<svg width="19" height="15" viewBox="0 0 19 15" fill="none" xmlns="http://www.w3.org/2000/svg">
<path d="M1 9L1 9.75L0.25 9.75L0.25 9L1 9ZM18.5303 8.46967C18.8232 8.76256 18.8232 9.23744 18.5303 9.53033L13.7574 14.3033C13.4645 14.5962 12.9896 14.5962 12.6967 14.3033C12.4038 14.0104 12.4038 13.5355 12.6967 13.2426L16.9393 9L12.6967 4.75736C12.4038 4.46447 12.4038 3.98959 12.6967 3.6967C12.9896 3.40381 13.4645 3.40381 13.7574 3.6967L18.5303 8.46967ZM1.75 -3.27835e-08L1.75 9L0.25 9L0.25 3.27835e-08L1.75 -3.27835e-08ZM1 8.25L18 8.25L18 9.75L1 9.75L1 8.25Z" fill="#ED1A33"/>
</svg>
