<svg width="24" height="24" viewBox="0 0 24 24" fill="none" xmlns="http://www.w3.org/2000/svg">
<path d="M19.8411 8.36949L18.9904 9.2202L18.1587 8.38847C17.8036 8.03338 17.2293 8.02864 16.8784 8.37953C16.5282 8.72969 16.5323 9.30472 16.8873 9.65981L17.7191 10.4915L16.8698 11.3408C16.5189 11.6917 16.5237 12.266 16.8788 12.6211C17.2339 12.9762 17.8082 12.9809 18.159 12.63L19.0083 11.7808L19.8408 12.6132C20.1959 12.9683 20.7709 12.9723 21.121 12.6222C21.4719 12.2713 21.4672 11.697 21.1121 11.3419L20.2796 10.5094L21.1303 9.65871C21.4805 9.30855 21.4765 8.73352 21.1214 8.37843C20.7663 8.02335 20.1913 8.01933 19.8411 8.36949Z" fill="#ED1C24"/>
<path d="M9.5 15.0156C5.45422 15.0156 2 15.6625 2 18.2467C2 20.83 5.4332 21.5001 9.5 21.5001C13.5448 21.5001 17 20.8533 17 18.269C17 15.6848 13.5668 15.0156 9.5 15.0156Z" fill="#ED1C24"/>
<path d="M9.49974 12.5543C12.2543 12.5543 14.4624 10.3178 14.4624 7.52774C14.4624 4.73766 12.2543 2.50012 9.49974 2.50012C6.74517 2.50012 4.53711 4.73766 4.53711 7.52774C4.53711 10.3178 6.74517 12.5543 9.49974 12.5543Z" fill="#FDE8EB"/>
</svg>
