<svg width="24" height="24" viewBox="0 0 24 24" fill="none" xmlns="http://www.w3.org/2000/svg">
<g clip-path="url(#clip0_2968_94370)">
<path d="M20.6451 4H4.12897C2.99349 4 2.07478 4.9 2.07478 6L2.06445 18C2.06445 19.1 2.99349 20 4.12897 20H20.6451C21.7806 20 22.7096 19.1 22.7096 18V6C22.7096 4.9 21.7806 4 20.6451 4ZM20.2322 8.25L12.9341 12.67C12.6038 12.87 12.1703 12.87 11.8399 12.67L4.54187 8.25C4.28381 8.09 4.12897 7.82 4.12897 7.53C4.12897 6.86 4.88252 6.46 5.4709 6.81L12.387 11L19.3032 6.81C19.8916 6.46 20.6451 6.86 20.6451 7.53C20.6451 7.82 20.4903 8.09 20.2322 8.25Z" fill="#F99D27"/>
</g>
<defs>
<clipPath id="clip0_2968_94370">
<rect width="24" height="24" fill="white"/>
</clipPath>
</defs>
</svg>
