<svg width="24" height="24" viewBox="0 0 24 24" fill="none" xmlns="http://www.w3.org/2000/svg">
<path d="M15.4223 1.5H8.57851C6.93001 1.5 5.59351 2.83575 5.59351 4.48425V19.5158C5.59351 21.1635 6.93001 22.5 8.57851 22.5H15.4223C17.0708 22.5 18.4065 21.1635 18.4065 19.5158V4.48425C18.4065 2.83575 17.07 1.5 15.4223 1.5ZM10.1565 3.375H13.8443C14.0513 3.375 14.2193 3.543 14.2193 3.75C14.2193 3.957 14.0513 4.125 13.8443 4.125H10.1565C9.94951 4.125 9.78151 3.957 9.78151 3.75C9.78151 3.543 9.94876 3.375 10.1565 3.375ZM12 21.2498C11.079 21.2498 10.332 20.5028 10.332 19.5817C10.332 18.6607 11.079 17.9137 12 17.9137C12.921 17.9137 13.668 18.6607 13.668 19.5817C13.668 20.5028 12.921 21.2498 12 21.2498ZM16.9223 16.641H7.07851V5.29725H16.9223V16.641Z" fill="#ED1C24"/>
<rect x="7" y="5" width="10" height="12" fill="#FDE8EB"/>
</svg>
