<svg width="24" height="25" viewBox="0 0 24 25" fill="none" xmlns="http://www.w3.org/2000/svg">
<path d="M13 21.75C11.9667 21.75 10.9874 21.5873 10.062 21.262C9.13736 20.9373 8.29169 20.4833 7.52503 19.9C7.29169 19.7167 7.16669 19.4793 7.15003 19.188C7.13336 18.896 7.24169 18.6333 7.47503 18.4C7.65836 18.2167 7.87503 18.125 8.12503 18.125C8.37503 18.125 8.60836 18.2 8.82503 18.35C9.40836 18.7833 10.05 19.125 10.75 19.375C11.45 19.625 12.2 19.75 13 19.75C14.9334 19.75 16.5834 19.0667 17.95 17.7C19.3167 16.3333 20 14.6833 20 12.75C20 10.8167 19.3167 9.16667 17.95 7.8C16.5834 6.43333 14.9334 5.75 13 5.75C11.0667 5.75 9.41669 6.43333 8.05003 7.8C6.68336 9.16667 6.00003 10.8167 6.00003 12.75V12.925L7.12503 11.8C7.30836 11.6167 7.53736 11.525 7.81203 11.525C8.08736 11.525 8.32503 11.6167 8.52503 11.8C8.72503 12 8.82503 12.2373 8.82503 12.512C8.82503 12.7873 8.72503 13.025 8.52503 13.225L5.70003 16.05C5.60003 16.15 5.49169 16.2207 5.37503 16.262C5.25836 16.304 5.13336 16.325 5.00003 16.325C4.86669 16.325 4.74169 16.304 4.62503 16.262C4.50836 16.2207 4.40003 16.15 4.30003 16.05L1.45003 13.2C1.26669 13.0167 1.17936 12.7833 1.18803 12.5C1.19603 12.2167 1.29169 11.9833 1.47503 11.8C1.65836 11.6 1.89169 11.5 2.17503 11.5C2.45836 11.5 2.69169 11.6 2.87503 11.8L4.00003 12.95V12.75C4.00003 11.5 4.23769 10.329 4.71303 9.237C5.18769 8.14567 5.82936 7.19567 6.63803 6.387C7.44603 5.579 8.39603 4.93733 9.48803 4.462C10.5794 3.98733 11.75 3.75 13 3.75C14.25 3.75 15.421 3.98733 16.513 4.462C17.6044 4.93733 18.5544 5.579 19.363 6.387C20.171 7.19567 20.8127 8.14567 21.288 9.237C21.7627 10.329 22 11.5 22 12.75C22 15.25 21.125 17.375 19.375 19.125C17.625 20.875 15.5 21.75 13 21.75Z" fill="#FDE8EB"/>
<path d="M11 16.75C10.7167 16.75 10.4794 16.654 10.288 16.462C10.096 16.2707 10 16.0333 10 15.75V12.75C10 12.4667 10.096 12.229 10.288 12.037C10.4794 11.8457 10.7167 11.75 11 11.75V10.75C11 10.2 11.196 9.729 11.588 9.337C11.9794 8.94567 12.45 8.75 13 8.75C13.55 8.75 14.021 8.94567 14.413 9.337C14.8044 9.729 15 10.2 15 10.75V11.75C15.2834 11.75 15.521 11.8457 15.713 12.037C15.9044 12.229 16 12.4667 16 12.75V15.75C16 16.0333 15.9044 16.2707 15.713 16.462C15.521 16.654 15.2834 16.75 15 16.75H11ZM12 11.75H14V10.75C14 10.4667 13.9044 10.229 13.713 10.037C13.521 9.84567 13.2834 9.75 13 9.75C12.7167 9.75 12.4794 9.84567 12.288 10.037C12.096 10.229 12 10.4667 12 10.75V11.75Z" fill="#ED1C24"/>
</svg>
