<svg width="24" height="24" viewBox="0 0 24 24" fill="none" xmlns="http://www.w3.org/2000/svg">
<path d="M12 0.375C5.58751 0.375 0.375 5.58751 0.375 12C0.375 18.4125 5.58751 23.625 12 23.625C18.4125 23.625 23.625 18.4125 23.625 12C23.625 5.58751 18.4125 0.375 12 0.375ZM10.875 17.625V16.8075C10.875 16.185 11.3775 15.6825 12 15.6825C12.6225 15.6825 13.125 16.185 13.125 16.8075V17.625C13.125 18.2475 12.6225 18.75 12 18.75C11.3775 18.75 10.875 18.2475 10.875 17.625ZM13.125 13.53C13.125 14.145 12.6225 14.655 12 14.655C11.3775 14.655 10.875 14.145 10.875 13.53V6.375C10.875 5.75248 11.3775 5.25 12 5.25C12.6225 5.25 13.125 5.75248 13.125 6.375V13.53Z" fill="#F99D27"/>
</svg>
