<svg width="24" height="24" viewBox="0 0 24 24" fill="none" xmlns="http://www.w3.org/2000/svg">
<path d="M12.0865 22.0001C11.9627 22.0001 11.8388 21.9716 11.7271 21.9138L8.12599 20.0497C7.10415 19.5202 6.30481 18.9259 5.68063 18.2336C4.31449 16.7196 3.5544 14.7761 3.54232 12.76L3.50004 6.12432C3.495 5.35848 3.98931 4.67109 4.72826 4.41221L11.3405 2.10685C11.7331 1.96662 12.1711 1.96466 12.5707 2.09999L19.2081 4.3269C19.9511 4.57499 20.4535 5.25748 20.4575 6.02234L20.4998 12.6629C20.5129 14.676 19.779 16.6274 18.434 18.1581C17.8168 18.8602 17.0245 19.4633 16.0128 20.0026L12.4439 21.9089C12.3331 21.9687 12.2103 21.9991 12.0865 22.0001Z" fill="#FDE8EB"/>
<path d="M11.3189 14.321C11.1256 14.322 10.9323 14.2523 10.7833 14.1092L8.86646 12.2657C8.57048 11.9793 8.56746 11.5145 8.86042 11.2262C9.15338 10.937 9.63158 10.934 9.92857 11.2194L11.3078 12.5451L14.6753 9.22485C14.9693 8.93558 15.4475 8.93264 15.7435 9.21799C16.0405 9.50432 16.0435 9.9701 15.7505 10.2574L11.8514 14.1023C11.7045 14.2474 11.5122 14.32 11.3189 14.321Z" fill="#ED1C24"/>
</svg>
