<svg width="24" height="24" viewBox="0 0 24 24" xmlns="http://www.w3.org/2000/svg">
<path d="M6.6875 9.92969H5.14379C5.40457 6.375 8.37992 3.5625 12 3.5625C14.8646 3.5625 17.4567 5.3668 18.4502 8.0523C18.5999 8.45695 19.0493 8.66363 19.454 8.51398C19.8586 8.36426 20.0654 7.91488 19.9157 7.5102C19.3236 5.90957 18.2716 4.53988 16.8737 3.54918C15.4436 2.5357 13.7583 2 12 2C9.74629 2 7.62742 2.87766 6.03379 4.47129C4.46094 6.04414 3.58613 8.12867 3.56355 10.3495C2.62988 10.8905 2 11.9001 2 13.0547V15.7109C2 17.4341 3.40188 18.8359 5.125 18.8359H6.6875C7.11898 18.8359 7.46875 18.4862 7.46875 18.0547V10.7109C7.46875 10.2795 7.11898 9.92969 6.6875 9.92969ZM5.90625 17.2734H5.125C4.26344 17.2734 3.5625 16.5725 3.5625 15.7109V13.0547C3.5625 12.1931 4.26344 11.4922 5.125 11.4922H5.90625V17.2734Z" fill="#030D1B"/>
<path d="M18.875 9.92969H17.3125C16.881 9.92969 16.5312 10.2795 16.5312 10.7109V16.0625V18.0547V18.875C16.5312 19.3058 16.1808 19.6562 15.75 19.6562H13.3672V19.681C13.1007 19.2004 12.5884 18.875 12 18.875C11.1371 18.875 10.4375 19.5746 10.4375 20.4375C10.4375 21.3004 11.1371 22 12 22C12.5884 22 13.1007 21.6746 13.3672 21.194V21.2188H15.75C17.0423 21.2188 18.0938 20.1673 18.0938 18.875V18.8359H18.875C20.5981 18.8359 22 17.4341 22 15.7109V13.0547C22 11.3316 20.5981 9.92969 18.875 9.92969ZM20.4375 15.7109C20.4375 16.5725 19.7366 17.2734 18.875 17.2734H18.0938V16.0625V11.4922H18.875C19.7366 11.4922 20.4375 12.1931 20.4375 13.0547V15.7109Z" fill="#030D1B"/>
</svg>
