<svg width="32" height="32" viewBox="0 0 32 32" fill="none" xmlns="http://www.w3.org/2000/svg">
<rect x="11" y="5" width="21" height="20" rx="4" fill="#202021" fill-opacity="0.07"/>
<path d="M24.9785 11.7864H23.567C22.3665 8.93591 19.7231 6.86442 16.6799 6.4688C13.6641 6.06675 10.701 7.22753 8.76239 9.56418C8.19251 10.2512 7.74046 10.998 7.40948 11.7864H6.02148C4.90679 11.7864 4 12.6932 4 13.8079V16.5032C4 17.6179 4.90679 18.5247 6.02148 18.5247H8.78872L8.4992 17.6409C7.65624 15.0667 8.1307 12.4365 9.80013 10.4249C11.4406 8.44747 13.9457 7.46898 16.5049 7.80459C19.2113 8.15714 21.5605 10.0711 22.4912 12.6819L22.4969 12.6971C22.6469 13.0959 22.7522 13.5058 22.8127 13.9276C23.0148 15.1878 22.8996 16.465 22.4805 17.6212L22.4775 17.6292C21.4371 20.5833 18.6387 22.5676 15.5132 22.5676C14.3912 22.5676 13.4785 23.4744 13.4785 24.5891C13.4785 25.7038 14.3853 26.6106 15.5 26.6106C16.6147 26.6106 17.5215 25.7038 17.5215 24.5891V23.6803C20.212 23.0408 22.472 21.1336 23.5582 18.5246H24.9785C26.0932 18.5246 27 17.6178 27 16.5031V13.8078C27 12.6931 26.0932 11.7864 24.9785 11.7864V11.7864Z" fill="#202021"/>
<path d="M9.43555 19.8723V21.22H15.5C18.8441 21.22 21.5645 18.4996 21.5645 15.1555C21.5645 11.8114 18.8441 9.09106 15.5 9.09106C12.1559 9.09106 9.43555 11.8114 9.43555 15.1555C9.43555 16.519 9.89353 17.8364 10.7306 18.9017C10.568 19.4696 10.0495 19.8723 9.43555 19.8723ZM17.5215 14.4817H18.8691V15.8293H17.5215V14.4817ZM14.8262 14.4817H16.1738V15.8293H14.8262V14.4817ZM12.1309 14.4817H13.4785V15.8293H12.1309V14.4817Z" fill="#202021"/>
</svg>
