<svg width="33" height="33" viewBox="0 0 33 33" fill="none" xmlns="http://www.w3.org/2000/svg">
<g clip-path="url(#clip0_859_99677)">
<rect x="11.0469" y="5.00781" width="21" height="20" rx="4" transform="rotate(0.0168211 11.0469 5.00781)" fill="#FDE8EB"/>
<g clip-path="url(#clip1_859_99677)">
<path d="M25.0238 11.7986L23.6123 11.7982C22.4127 8.9474 19.7698 6.87514 16.7267 6.47862C13.7111 6.07569 10.7476 7.2356 8.80834 9.57169C8.23825 10.2585 7.78599 11.0052 7.45477 11.7935L6.06678 11.7931C4.95208 11.7927 4.04502 12.6993 4.0447 13.814L4.04391 16.5093C4.04358 17.624 4.95011 18.531 6.0648 18.5314L8.83203 18.5322L8.54277 17.6483C7.70056 15.0738 8.1758 12.4438 9.84582 10.4327C11.4869 8.45576 13.9923 7.47801 16.5513 7.81437C19.2576 8.16771 21.6062 10.0824 22.5363 12.6935L22.5419 12.7086C22.6918 13.1074 22.797 13.5174 22.8574 13.9393C23.059 15.1995 22.9435 16.4766 22.524 17.6327L22.5211 17.6408C21.4798 20.5945 18.6808 22.578 15.5553 22.5771C14.4333 22.5768 13.5204 23.4833 13.52 24.598C13.5197 25.7127 14.4262 26.6197 15.5409 26.6201C16.6556 26.6204 17.5627 25.7139 17.563 24.5992L17.5633 23.6904C20.254 23.0517 22.5145 21.1451 23.6015 18.5365L25.0218 18.5369C26.1365 18.5372 27.0436 17.6307 27.0439 16.516L27.0447 13.8207C27.045 12.706 26.1385 11.799 25.0238 11.7986V11.7986Z" fill="#ED1C24"/>
<path d="M9.4773 19.8787L9.47691 21.2263L15.5414 21.2281C18.8855 21.2291 21.6066 18.5095 21.6076 15.1654C21.6086 11.8213 18.889 9.10017 15.5449 9.09919C12.2008 9.09821 9.47967 11.8177 9.47869 15.1619C9.47829 16.5253 9.93588 17.8428 10.7726 18.9085C10.6099 19.4763 10.0913 19.8788 9.4773 19.8787ZM17.5648 14.4904L18.9125 14.4908L18.9121 15.8385L17.5644 15.8381L17.5648 14.4904ZM14.8695 14.4896L16.2172 14.49L16.2168 15.8377L14.8691 15.8373L14.8695 14.4896ZM12.1742 14.4888L13.5219 14.4892L13.5215 15.8369L12.1738 15.8365L12.1742 14.4888Z" fill="#ED1C24"/>
</g>
</g>
<defs>
<clipPath id="clip0_859_99677">
<rect x="0.046875" y="0.00463867" width="32" height="32" rx="8" transform="rotate(0.0168211 0.046875 0.00463867)" fill="white"/>
</clipPath>
<clipPath id="clip1_859_99677">
<rect width="23" height="23" fill="white" transform="translate(4.04688 5.00586) rotate(0.0168211)"/>
</clipPath>
</defs>
</svg>
