<svg width="32" height="32" viewBox="0 0 32 32" fill="none" xmlns="http://www.w3.org/2000/svg">
<rect x="7" y="7.00012" width="19" height="18" rx="4" fill="#FDE8EB"/>
<g clip-path="url(#clip0_830_20357)">
<path d="M23.6297 13.9767H15.3452C14.0382 13.9767 12.9749 15.04 12.9749 16.347V20.848L10.8285 22.3811C10.6591 22.502 10.5586 22.6973 10.5586 22.9055C10.5586 23.1138 10.6591 23.3091 10.8285 23.43L13.0008 24.9816C13.1705 26.1232 14.1572 27.0019 15.3452 27.0019H23.6297C24.9367 27.0019 26 25.9386 26 24.6314V16.347C26 15.04 24.9367 13.9767 23.6297 13.9767ZM20.8441 23.0334C20.6922 23.0334 20.5748 22.9852 20.5404 22.8539L20.2779 21.9356H18.6968L18.4346 22.8539C18.4001 22.9852 18.2827 23.0334 18.1308 23.0334C17.8891 23.0334 17.5647 22.8816 17.5647 22.6607C17.5647 22.6468 17.5716 22.6193 17.5784 22.5916L18.911 18.2491C18.9731 18.0419 19.2285 17.9451 19.484 17.9451C19.7464 17.9451 20.0018 18.0419 20.0639 18.2491L21.3965 22.5916C21.4033 22.6193 21.4102 22.6399 21.4102 22.6607C21.4102 22.8746 21.0858 23.0334 20.8441 23.0334Z" fill="#ED1C24"/>
<path d="M18.8828 21.2289H20.0843L19.4834 19.1095L18.8828 21.2289Z" fill="#ED1C24"/>
<path d="M11.6859 16.3452C11.6859 15.4798 11.9885 14.6842 12.4925 14.057C11.7572 14.057 11.0749 13.8268 10.5125 13.4359C9.95 13.827 9.2677 14.057 8.5322 14.057C8.33162 14.057 8.16881 13.8941 8.16881 13.6934C8.16881 13.4927 8.33162 13.33 8.5322 13.33C9.04732 13.33 9.52937 13.1873 9.94211 12.9403C9.44427 12.403 9.11328 11.7093 9.03322 10.9416H8.53236C8.33162 10.9416 8.16881 10.7789 8.16881 10.5782C8.16881 10.3774 8.33162 10.2146 8.53236 10.2146H10.1492V9.33208C10.1492 9.13116 10.3119 8.96852 10.5126 8.96852C10.7134 8.96852 10.876 9.13116 10.876 9.33208V10.2146H12.4929C12.6936 10.2146 12.8564 10.3774 12.8564 10.5782C12.8564 10.7789 12.6936 10.9416 12.4929 10.9416H11.992C11.912 11.7093 11.581 12.403 11.0831 12.9403C11.4957 13.1877 11.9779 13.33 12.4929 13.33C12.6847 13.33 12.8415 13.4787 12.8551 13.6672C13.5089 13.0589 14.3842 12.6858 15.3454 12.6858H17.0252V11.1541L19.1717 9.62094C19.3409 9.50009 19.4414 9.30472 19.4414 9.09659C19.4414 8.88829 19.3409 8.69292 19.1717 8.57207L16.9994 7.02049C16.8295 5.8788 15.8428 5.00012 14.6547 5.00012H6.3705C5.06331 5.00012 4 6.06343 4 7.37045V15.655C4 16.9621 5.06331 18.0254 6.3705 18.0254H11.6859V16.3452Z" fill="#ED1C24"/>
<path d="M10.5124 12.4861C10.9102 12.0733 11.1802 11.5374 11.2593 10.9417H9.76562C9.84468 11.5374 10.1149 12.0733 10.5124 12.4861Z" fill="#ED1C24"/>
</g>
<defs>
<clipPath id="clip0_830_20357">
<rect width="22" height="22" fill="white" transform="translate(4 5.00012)"/>
</clipPath>
</defs>
</svg>
