<svg width="32" height="32" viewBox="0 0 32 32" fill="none" xmlns="http://www.w3.org/2000/svg">
<path fill-rule="evenodd" clip-rule="evenodd" d="M11.3748 3.91602C14.288 2.22336 17.8687 2.25294 20.7545 3.99352C23.612 5.76954 25.3486 8.93923 25.3325 12.3489C25.266 15.7362 23.4037 18.9203 21.076 21.3818C19.7325 22.8089 18.2295 24.0708 16.5978 25.1417C16.4298 25.2389 16.2457 25.3039 16.0547 25.3337C15.8708 25.3258 15.6918 25.2715 15.5337 25.1756C13.0426 23.5664 10.8571 21.5124 9.08246 19.1123C7.59747 17.1088 6.7538 14.6883 6.66602 12.1796C6.66409 8.76332 8.4617 5.60868 11.3748 3.91602ZM13.0582 13.5934C13.5483 14.8014 14.7049 15.5894 15.9882 15.5895C16.8288 15.5955 17.6369 15.2588 18.2324 14.6543C18.8279 14.0498 19.1613 13.2278 19.1583 12.3715C19.1628 11.0644 18.3933 9.88341 17.209 9.38002C16.0248 8.87664 14.6594 9.15013 13.7504 10.0728C12.8415 10.9955 12.5682 12.3853 13.0582 13.5934Z" fill="#ED1C24"/>
<ellipse cx="15.9987" cy="28.0003" rx="6.66667" ry="1.33333" fill="#ED1C24"/>
</svg>
