<svg width="32" height="32" viewBox="0 0 32 32" fill="none" xmlns="http://www.w3.org/2000/svg">
<path d="M16.1147 29.3334C15.9496 29.3334 15.7845 29.2955 15.6355 29.2184L10.834 26.7329C9.47155 26.0269 8.40576 25.2346 7.57352 24.3115C5.752 22.2928 4.73855 19.7014 4.72244 17.0133L4.66607 8.16576C4.65935 7.14464 5.31843 6.22812 6.30369 5.88295L15.12 2.80913C15.6435 2.62217 16.2274 2.61955 16.7603 2.79998L25.6102 5.7692C26.6008 6.09999 27.2707 7.00998 27.276 8.02979L27.3324 16.8839C27.3499 19.5681 26.3713 22.1699 24.578 24.2108C23.7551 25.147 22.6987 25.951 21.3497 26.6701L16.5912 29.2118C16.4435 29.2916 16.2798 29.3321 16.1147 29.3334Z" fill="#FDE8EB"/>
<path d="M15.0918 19.0946C14.8341 19.0959 14.5764 19.003 14.3777 18.8121L11.822 16.3541C11.4273 15.9724 11.4233 15.3526 11.8139 14.9682C12.2045 14.5825 12.8421 14.5786 13.2381 14.9591L15.0771 16.7268L19.5671 12.2997C19.9591 11.914 20.5967 11.9101 20.9913 12.2906C21.3873 12.6723 21.3913 13.2934 21.0007 13.6765L15.8019 18.803C15.6059 18.9965 15.3496 19.0932 15.0918 19.0946Z" fill="#ED1C24"/>
</svg>
