<svg width="32" height="32" viewBox="0 0 32 32" fill="none" xmlns="http://www.w3.org/2000/svg">
<path d="M16.1147 29.3335C15.9496 29.3335 15.7845 29.2956 15.6355 29.2184L10.834 26.733C9.47155 26.0269 8.40576 25.2346 7.57352 24.3116C5.752 22.2928 4.73855 19.7015 4.72244 17.0134L4.66607 8.16582C4.65935 7.1447 5.31843 6.22818 6.30369 5.88301L15.12 2.80919C15.6435 2.62223 16.2274 2.61961 16.7603 2.80004L25.6102 5.76927C26.6008 6.10005 27.2707 7.01004 27.276 8.02985L27.3324 16.8839C27.3499 19.5681 26.3713 22.1699 24.578 24.2109C23.7551 25.147 22.6987 25.9511 21.3497 26.6702L16.5912 29.2119C16.4435 29.2916 16.2798 29.3322 16.1147 29.3335Z" fill="#ED1C24"/>
<path d="M15.0918 19.0947C14.8341 19.096 14.5764 19.0032 14.3777 18.8123L11.822 16.3543C11.4273 15.9725 11.4233 15.3527 11.8139 14.9684C12.2045 14.5827 12.8421 14.5787 13.2381 14.9592L15.0771 16.7269L19.5671 12.2998C19.9591 11.9141 20.5967 11.9102 20.9913 12.2907C21.3873 12.6725 21.3913 13.2935 21.0007 13.6766L15.8019 18.8031C15.6059 18.9966 15.3496 19.0934 15.0918 19.0947Z" fill="white"/>
</svg>
