<svg width="32" height="32" viewBox="0 0 32 32" fill="none" xmlns="http://www.w3.org/2000/svg">
<path d="M18.3333 12.9373V10.2442C17.8046 10.2442 17.3662 9.8183 17.3662 9.30472V6.09802C17.3662 5.67088 17.018 5.33392 16.5796 5.33392H7.72082C4.93552 5.33392 2.66602 7.53728 2.66602 10.2442V13.4872C2.66602 13.739 2.76917 13.977 2.9497 14.1524C3.13023 14.3265 3.37524 14.4267 3.63313 14.4267C4.61315 14.4267 5.36105 15.1031 5.36105 15.9924C5.36105 16.9206 4.60025 17.6597 3.64603 17.671C3.11734 17.671 2.66602 18.0342 2.66602 18.5603V21.7683C2.66602 24.4739 4.93552 26.666 7.70792 26.666H16.5796C17.018 26.666 17.3662 26.3265 17.3662 25.9019V23.195C17.3662 22.6702 17.8046 22.2555 18.3333 22.2555V19.8267C17.8046 19.8267 17.3662 19.3996 17.3662 18.8872V13.8768C17.3662 13.3632 17.8046 12.9373 18.3333 12.9373Z" fill="#FDE8EB"/>
<path d="M26.6383 15.9931C26.6383 16.92 27.412 17.6591 28.3533 17.6716C28.882 17.6716 29.3333 18.0349 29.3333 18.5484V21.7677C29.3333 24.4746 27.0767 26.6666 24.2914 26.6666H20.0877C19.6622 26.6666 19.3011 26.3272 19.3011 25.9013V23.1956C19.3011 22.6695 18.8756 22.2562 18.334 22.2562V19.8274C18.8756 19.8274 19.3011 19.4002 19.3011 18.8879V13.8774C19.3011 13.3626 18.8756 12.938 18.334 12.938V10.2436C18.8756 10.2436 19.3011 9.81768 19.3011 9.30411V6.09866C19.3011 5.67152 19.6622 5.33331 20.0877 5.33331H24.2914C27.0767 5.33331 29.3333 7.52539 29.3333 10.231V13.3876C29.3333 13.6382 29.2302 13.8774 29.0497 14.0515C28.8691 14.2269 28.6241 14.3271 28.3662 14.3271C27.412 14.3271 26.6383 15.0799 26.6383 15.9931Z" fill="#ED1C24"/>
</svg>
