<svg width="32" height="32" viewBox="0 0 32 32" fill="none" xmlns="http://www.w3.org/2000/svg">
<path d="M28.3327 17.9686C27.238 17.9686 26.3473 17.0861 26.3473 16.0014C26.3473 14.9155 27.238 14.0329 28.3327 14.0329C28.598 14.0329 28.8527 13.9286 29.0394 13.7436C29.2274 13.5573 29.3327 13.305 29.3327 13.0421L29.3314 9.47232C29.3314 6.45482 26.8527 4.00012 23.8074 4.00012H8.19135C5.14602 4.00012 2.66735 6.45482 2.66735 9.47232L2.66602 13.157C2.66602 13.4199 2.77135 13.6723 2.95935 13.8585C3.14602 14.0435 3.40068 14.1479 3.66602 14.1479C4.79802 14.1479 5.65135 14.9445 5.65135 16.0014C5.65135 17.0861 4.76068 17.9686 3.66602 17.9686C3.11402 17.9686 2.66602 18.4125 2.66602 18.9595V22.5266C2.66602 25.5441 5.14335 28.0001 8.19002 28.0001H23.8087C26.8554 28.0001 29.3327 25.5441 29.3327 22.5266V18.9595C29.3327 18.4125 28.8847 17.9686 28.3327 17.9686Z" fill="#FDE8EB"/>
<path d="M20.5731 15.4516L19.0011 16.9823L19.3731 19.1463C19.4371 19.5209 19.2865 19.8903 18.9785 20.1116C18.6731 20.3356 18.2745 20.3636 17.9385 20.1849L15.9985 19.1649L14.0545 20.1863C13.9105 20.2623 13.7531 20.3023 13.5971 20.3023C13.3931 20.3023 13.1918 20.2383 13.0185 20.1129C12.7118 19.8903 12.5611 19.5209 12.6251 19.1463L12.9958 16.9823L11.4238 15.4516C11.1518 15.1876 11.0571 14.7996 11.1745 14.4383C11.2931 14.0783 11.5998 13.8223 11.9745 13.7689L14.1425 13.4529L15.1145 11.4836C15.2838 11.1449 15.6225 10.9343 15.9985 10.9343H16.0011C16.3785 10.9356 16.7171 11.1463 16.8838 11.4849L17.8558 13.4529L20.0278 13.7703C20.3985 13.8223 20.7051 14.0783 20.8225 14.4383C20.9411 14.7996 20.8465 15.1876 20.5731 15.4516Z" fill="#ED1C24"/>
</svg>
