<svg width="24" height="24" viewBox="0 0 24 24" fill="none" xmlns="http://www.w3.org/2000/svg">
<path d="M18.75 9.00017C19.1478 9.00017 19.5294 9.1582 19.8107 9.43951C20.092 9.72081 20.25 10.1023 20.25 10.5002V13.5002C20.25 13.898 20.092 14.2795 19.8107 14.5608C19.5294 14.8421 19.1478 15.0002 18.75 15.0002H17.9535C17.7707 16.4501 17.0649 17.7836 15.9688 18.7502C14.8727 19.7168 13.4615 20.2501 12 20.2502V18.7502C13.1935 18.7502 14.3381 18.2761 15.182 17.4322C16.0259 16.5882 16.5 15.4436 16.5 14.2502V9.75017C16.5 8.5567 16.0259 7.4121 15.182 6.56819C14.3381 5.72428 13.1935 5.25017 12 5.25017C10.8065 5.25017 9.66193 5.72428 8.81802 6.56819C7.97411 7.4121 7.5 8.5567 7.5 9.75017V15.0002H5.25C4.85218 15.0002 4.47064 14.8421 4.18934 14.5608C3.90804 14.2795 3.75 13.898 3.75 13.5002V10.5002C3.75 10.1023 3.90804 9.72081 4.18934 9.43951C4.47064 9.1582 4.85218 9.00017 5.25 9.00017H6.0465C6.22952 7.55034 6.93531 6.21712 8.03143 5.25068C9.12755 4.28423 10.5387 3.75098 12 3.75098C13.4613 3.75098 14.8724 4.28423 15.9686 5.25068C17.0647 6.21712 17.7705 7.55034 17.9535 9.00017H18.75ZM8.82 14.8389L9.615 13.5669C10.3298 14.0147 11.1565 14.2515 12 14.2502C12.8435 14.2515 13.6702 14.0147 14.385 13.5669L15.18 14.8389C14.2269 15.436 13.1247 15.7519 12 15.7502C10.8753 15.7519 9.77306 15.436 8.82 14.8389Z" fill="#ED1C24"/>
</svg>
