<svg width="24" height="24" viewBox="0 0 24 24" fill="none" xmlns="http://www.w3.org/2000/svg">
<path d="M19.6875 1.6875H4.3125C3.61631 1.6875 2.94863 1.96406 2.45634 2.45634C1.96406 2.94863 1.6875 3.61631 1.6875 4.3125V19.6875C1.6875 20.3837 1.96406 21.0514 2.45634 21.5437C2.94863 22.0359 3.61631 22.3125 4.3125 22.3125H11.8439V13.7308H10.1276V10.2982H11.8297V8.74688C11.8297 7.34288 12.4985 5.14941 15.4418 5.14941L18.0933 5.16005V8.10103H16.1678C15.8547 8.10103 15.4092 8.25694 15.4092 8.92566V10.2984H18.1371L17.824 13.731H15.2766V22.3125H19.6875C20.0322 22.3125 20.3736 22.2446 20.692 22.1127C21.0105 21.9808 21.2999 21.7874 21.5437 21.5437C21.7874 21.2999 21.9808 21.0105 22.1127 20.692C22.2446 20.3736 22.3125 20.0322 22.3125 19.6875V4.3125C22.3125 3.96778 22.2446 3.62644 22.1127 3.30796C21.9808 2.98948 21.7874 2.7001 21.5437 2.45634C21.2999 2.21259 21.0105 2.01923 20.692 1.88732C20.3736 1.7554 20.0322 1.6875 19.6875 1.6875Z" fill="#FBFDFF"/>
</svg>
