<svg width="24" height="24" viewBox="0 0 24 24" fill="none" xmlns="http://www.w3.org/2000/svg">
<path d="M19.4801 1.71436H4.51906C3.77508 1.71436 3.06157 2.0099 2.53549 2.53598C2.00941 3.06205 1.71387 3.77557 1.71387 4.51955L1.71387 19.4806C1.71387 20.2246 2.00941 20.9381 2.53549 21.4642C3.06157 21.9902 3.77508 22.2858 4.51906 22.2858H19.4801C20.2241 22.2858 20.9376 21.9902 21.4637 21.4642C21.9898 20.9381 22.2853 20.2246 22.2853 19.4806V4.51955C22.2853 3.77557 21.9898 3.06205 21.4637 2.53598C20.9376 2.0099 20.2241 1.71436 19.4801 1.71436V1.71436ZM8.72685 17.9938C8.72701 18.0509 8.71591 18.1074 8.69418 18.1601C8.67246 18.2129 8.64054 18.2608 8.60026 18.3012C8.55998 18.3416 8.51212 18.3737 8.45943 18.3955C8.40675 18.4174 8.35026 18.4286 8.29322 18.4286H6.4453C6.38815 18.4288 6.33154 18.4177 6.27872 18.3959C6.2259 18.3741 6.1779 18.342 6.1375 18.3016C6.09709 18.2612 6.06507 18.2132 6.04327 18.1604C6.02148 18.1076 6.01034 18.051 6.01049 17.9938V10.2468C6.01049 10.1315 6.0563 10.0209 6.13784 9.93937C6.21938 9.85783 6.32998 9.81202 6.4453 9.81202H8.29322C8.40833 9.81233 8.51863 9.85827 8.59992 9.93978C8.68121 10.0213 8.72686 10.1317 8.72685 10.2468V17.9938ZM7.36867 9.07799C7.02191 9.07799 6.68294 8.97517 6.39462 8.78252C6.1063 8.58987 5.88158 8.31605 5.74888 7.99568C5.61619 7.67532 5.58146 7.3228 5.64911 6.9827C5.71676 6.64261 5.88374 6.33021 6.12894 6.08501C6.37414 5.83982 6.68653 5.67284 7.02663 5.60519C7.36673 5.53754 7.71925 5.57226 8.03961 5.70496C8.35998 5.83766 8.6338 6.06237 8.82644 6.35069C9.01909 6.63901 9.12192 6.97799 9.12192 7.32475C9.12192 7.78974 8.9372 8.23568 8.60841 8.56448C8.27961 8.89328 7.83366 9.07799 7.36867 9.07799ZM18.3861 18.0242C18.3862 18.0768 18.376 18.1288 18.356 18.1774C18.3359 18.226 18.3065 18.2701 18.2693 18.3072C18.2322 18.3444 18.1881 18.3738 18.1395 18.3939C18.0909 18.4139 18.0389 18.4241 17.9863 18.424H15.9993C15.9468 18.4241 15.8947 18.4139 15.8462 18.3939C15.7976 18.3738 15.7535 18.3444 15.7163 18.3072C15.6792 18.2701 15.6497 18.226 15.6297 18.1774C15.6097 18.1288 15.5994 18.0768 15.5996 18.0242V14.395C15.5996 13.8527 15.7585 12.0199 14.1818 12.0199C12.9604 12.0199 12.7114 13.2741 12.6623 13.8375V18.0289C12.6623 18.1339 12.621 18.2347 12.5473 18.3095C12.4736 18.3843 12.3734 18.4271 12.2684 18.4286H10.3492C10.2968 18.4286 10.2448 18.4183 10.1964 18.3982C10.148 18.3781 10.104 18.3486 10.0669 18.3115C10.0299 18.2744 10.0006 18.2303 9.98062 18.1818C9.96066 18.1333 9.95047 18.0813 9.95062 18.0289V10.2129C9.95047 10.1605 9.96066 10.1085 9.98062 10.06C10.0006 10.0115 10.0299 9.96747 10.0669 9.93034C10.104 9.8932 10.148 9.86374 10.1964 9.84364C10.2448 9.82353 10.2968 9.81319 10.3492 9.81319H12.2684C12.3744 9.81319 12.4761 9.8553 12.5511 9.93027C12.626 10.0052 12.6682 10.1069 12.6682 10.2129V10.8885C13.1217 10.2071 13.7937 9.68345 15.2279 9.68345C18.4048 9.68345 18.3837 12.6499 18.3837 14.2793L18.3861 18.0242Z" fill="#FBFDFF"/>
</svg>
