<svg width="24" height="24" viewBox="0 0 24 24" fill="none" xmlns="http://www.w3.org/2000/svg">
<path fill-rule="evenodd" clip-rule="evenodd" d="M18.4939 16.846C18.054 18.1826 16.3307 18.8492 15.0995 18.738C13.418 18.5861 11.5883 17.6942 10.1994 16.7119C8.15781 15.268 6.24545 13.0344 5.13109 10.6642C4.34353 8.98939 4.16683 6.93022 5.33819 5.40362C5.77139 4.83933 6.24069 4.53796 6.9437 4.50281C7.92031 4.45531 8.05711 5.01399 8.39246 5.88417C8.64231 6.5349 8.97577 7.1987 9.16197 7.87318C9.51062 9.13189 8.29176 9.1845 8.13786 10.2133C8.04286 10.8622 8.82852 11.7323 9.18382 12.1949C9.86867 13.0959 10.7075 13.8686 11.6614 14.4775C12.2029 14.8186 13.0751 15.4331 13.6945 15.094C14.6483 14.5715 14.559 12.9633 15.8918 13.5076C16.5825 13.7888 17.2513 14.1946 17.9106 14.5499C18.9299 15.098 18.8824 15.6661 18.4939 16.846C18.7846 15.9644 18.2032 17.7276 18.4939 16.846Z" fill="#ED1C24"/>
</svg>
