<svg width="24" height="24" viewBox="0 0 24 24" fill="none" xmlns="http://www.w3.org/2000/svg">
<path d="M22.2853 5.62178C21.5203 5.95735 20.7052 6.17978 19.8553 6.28778C20.7296 5.76578 21.3969 4.94549 21.7106 3.95678C20.8954 4.44278 19.9954 4.78607 19.0363 4.97764C18.2623 4.1535 17.1592 3.64307 15.9557 3.64307C13.6209 3.64307 11.7412 5.53821 11.7412 7.8615C11.7412 8.19578 11.7694 8.51721 11.8389 8.82321C8.33273 8.65221 5.2303 6.97178 3.14615 4.41192C2.7823 5.04321 2.56887 5.76578 2.56887 6.54364C2.56887 8.00421 3.32101 9.29892 4.44215 10.0485C3.76458 10.0356 3.09987 9.83892 2.53672 9.52907C2.53672 9.54192 2.53672 9.55864 2.53672 9.57535C2.53672 11.6248 3.99858 13.3271 5.91558 13.7192C5.5723 13.8131 5.19815 13.8581 4.80987 13.8581C4.53987 13.8581 4.2673 13.8426 4.01144 13.7861C4.55787 15.4562 6.10844 16.6841 7.95215 16.7239C6.5173 17.8464 4.69544 18.5226 2.72315 18.5226C2.3773 18.5226 2.04558 18.5072 1.71387 18.4648C3.58201 19.6695 5.79601 20.3574 8.18358 20.3574C15.9442 20.3574 20.187 13.9288 20.187 8.35649C20.187 8.17007 20.1806 7.99007 20.1716 7.81135C21.0086 7.21735 21.7119 6.47549 22.2853 5.62178Z" fill="#FBFDFF"/>
</svg>
