<svg width="16" height="16" viewBox="0 0 16 16" fill="none" xmlns="http://www.w3.org/2000/svg">
<path opacity="0.4" d="M6.72235 10.6387H2.33868C1.78386 10.6387 1.3335 11.0811 1.3335 11.6262C1.3335 12.1706 1.78386 12.6138 2.33868 12.6138H6.72235C7.27717 12.6138 7.72753 12.1706 7.72753 11.6262C7.72753 11.0811 7.27717 10.6387 6.72235 10.6387Z" fill="#FF8694"/>
<path opacity="0.4" d="M14.6667 4.25245C14.6667 3.70809 14.2164 3.26562 13.6623 3.26562H9.27862C8.72381 3.26562 8.27344 3.70809 8.27344 4.25245C8.27344 4.79753 8.72381 5.24 9.27862 5.24H13.6623C14.2164 5.24 14.6667 4.79753 14.6667 4.25245Z" fill="#FF8694"/>
<path d="M5.91866 4.25237C5.91866 5.49682 4.89274 6.50548 3.62608 6.50548C2.36016 6.50548 1.3335 5.49682 1.3335 4.25237C1.3335 3.00866 2.36016 2 3.62608 2C4.89274 2 5.91866 3.00866 5.91866 4.25237Z" fill="#ED1C24"/>
<path d="M14.6667 11.5988C14.6667 12.8425 13.6408 13.8512 12.3741 13.8512C11.1082 13.8512 10.0815 12.8425 10.0815 11.5988C10.0815 10.3544 11.1082 9.3457 12.3741 9.3457C13.6408 9.3457 14.6667 10.3544 14.6667 11.5988Z" fill="#ED1C24"/>
</svg>
