<svg width="32" height="32" viewBox="0 0 32 32" fill="none" xmlns="http://www.w3.org/2000/svg">
<rect x="7" y="7.00024" width="19" height="18" rx="4" fill="#FDE8EB"/>
<g clip-path="url(#clip0_459_61606)">
<path d="M23.6297 13.9768H15.3452C14.0382 13.9768 12.9749 15.0401 12.9749 16.3471V20.8481L10.8285 22.3812C10.6591 22.5021 10.5586 22.6974 10.5586 22.9056C10.5586 23.1139 10.6591 23.3092 10.8285 23.4301L13.0008 24.9817C13.1705 26.1234 14.1572 27.002 15.3452 27.002H23.6297C24.9367 27.002 26 25.9387 26 24.6315V16.3471C26 15.0401 24.9367 13.9768 23.6297 13.9768ZM20.8441 23.0335C20.6922 23.0335 20.5748 22.9853 20.5404 22.854L20.2779 21.9358H18.6968L18.4346 22.854C18.4001 22.9853 18.2827 23.0335 18.1308 23.0335C17.8891 23.0335 17.5647 22.8817 17.5647 22.6609C17.5647 22.6469 17.5716 22.6194 17.5784 22.5917L18.911 18.2492C18.9731 18.0421 19.2285 17.9452 19.484 17.9452C19.7464 17.9452 20.0018 18.0421 20.0639 18.2492L21.3965 22.5917C21.4033 22.6194 21.4102 22.64 21.4102 22.6609C21.4102 22.8747 21.0858 23.0335 20.8441 23.0335Z" fill="#ED1C24"/>
<path d="M18.8828 21.229H20.0843L19.4834 19.1096L18.8828 21.229Z" fill="#ED1C24"/>
<path d="M11.6859 16.3453C11.6859 15.4799 11.9885 14.6843 12.4925 14.0571C11.7572 14.0571 11.0749 13.827 10.5125 13.4361C9.95 13.8271 9.2677 14.0571 8.5322 14.0571C8.33162 14.0571 8.16881 13.8943 8.16881 13.6935C8.16881 13.4928 8.33162 13.3301 8.5322 13.3301C9.04732 13.3301 9.52937 13.1875 9.94211 12.9404C9.44427 12.4031 9.11328 11.7094 9.03322 10.9417H8.53236C8.33162 10.9417 8.16881 10.779 8.16881 10.5783C8.16881 10.3775 8.33162 10.2147 8.53236 10.2147H10.1492V9.3322C10.1492 9.13129 10.3119 8.96864 10.5126 8.96864C10.7134 8.96864 10.876 9.13129 10.876 9.3322V10.2147H12.4929C12.6936 10.2147 12.8564 10.3775 12.8564 10.5783C12.8564 10.779 12.6936 10.9417 12.4929 10.9417H11.992C11.912 11.7094 11.581 12.4031 11.0831 12.9404C11.4957 13.1878 11.9779 13.3301 12.4929 13.3301C12.6847 13.3301 12.8415 13.4789 12.8551 13.6673C13.5089 13.0591 14.3842 12.6859 15.3454 12.6859H17.0252V11.1542L19.1717 9.62106C19.3409 9.50021 19.4414 9.30484 19.4414 9.09671C19.4414 8.88841 19.3409 8.69304 19.1717 8.57219L16.9994 7.02061C16.8295 5.87892 15.8428 5.00024 14.6547 5.00024H6.3705C5.06331 5.00024 4 6.06355 4 7.37057V15.6552C4 16.9622 5.06331 18.0255 6.3705 18.0255H11.6859V16.3453Z" fill="#ED1C24"/>
<path d="M10.5124 12.4863C10.9102 12.0735 11.1802 11.5376 11.2593 10.9419H9.76562C9.84468 11.5376 10.1149 12.0735 10.5124 12.4863Z" fill="#ED1C24"/>
</g>
<defs>
<clipPath id="clip0_459_61606">
<rect width="22" height="22" fill="white" transform="translate(4 5.00024)"/>
</clipPath>
</defs>
</svg>
