<svg width="32" height="32" viewBox="0 0 32 32" fill="none" xmlns="http://www.w3.org/2000/svg">
<path fill-rule="evenodd" clip-rule="evenodd" d="M11.3748 3.91578C14.288 2.22311 17.8687 2.2527 20.7545 3.99327C23.612 5.7693 25.3486 8.93898 25.3325 12.3487C25.266 15.736 23.4037 18.9201 21.076 21.3815C19.7325 22.8086 18.2295 24.0705 16.5978 25.1415C16.4298 25.2386 16.2457 25.3037 16.0547 25.3334C15.8708 25.3256 15.6918 25.2713 15.5337 25.1753C13.0426 23.5662 10.8571 21.5121 9.08246 19.112C7.59747 17.1086 6.7538 14.6881 6.66602 12.1793C6.66409 8.76307 8.4617 5.60844 11.3748 3.91578ZM13.0582 13.5931C13.5483 14.8012 14.7049 15.5892 15.9882 15.5892C16.8288 15.5952 17.6369 15.2585 18.2324 14.654C18.8279 14.0496 19.1613 13.2276 19.1583 12.3713C19.1628 11.0641 18.3933 9.88317 17.209 9.37978C16.0248 8.87639 14.6594 9.14988 13.7504 10.0725C12.8415 10.9952 12.5682 12.385 13.0582 13.5931Z" fill="#FDE8EB"/>
<ellipse cx="15.9987" cy="28.0001" rx="6.66667" ry="1.33333" fill="#ED1C24"/>
</svg>
