<svg width="32" height="32" viewBox="0 0 32 32" fill="none" xmlns="http://www.w3.org/2000/svg">
<path opacity="0.4" d="M17.3017 4.15018L20.2703 10.1159C20.489 10.5481 20.9065 10.8483 21.3879 10.915L28.056 11.8861C28.4454 11.9408 28.7988 12.1462 29.0375 12.4597C29.2736 12.7692 29.375 13.1614 29.3176 13.547C29.2709 13.8671 29.1202 14.1633 28.8895 14.3901L24.0578 19.0738C23.7044 19.4006 23.5444 19.8848 23.6297 20.3584L24.8193 26.9431C24.946 27.7382 24.4192 28.4879 23.6297 28.6386C23.3043 28.6907 22.9709 28.636 22.6775 28.4866L16.7296 25.3876C16.2881 25.1649 15.7667 25.1649 15.3253 25.3876L9.37733 28.4866C8.6465 28.8748 7.74098 28.6106 7.33422 27.8903C7.18352 27.6034 7.13018 27.2766 7.17952 26.9578L8.36911 20.3718C8.45446 19.8995 8.29309 19.4126 7.94102 19.0858L3.10931 14.4047C2.53452 13.8498 2.51719 12.936 3.07064 12.361C3.08264 12.349 3.09598 12.3357 3.10931 12.3223C3.3387 12.0889 3.6401 11.9408 3.9655 11.9021L10.6336 10.9296C11.1137 10.8616 11.5311 10.5641 11.7512 10.1292L14.6131 4.15018C14.8678 3.63792 15.396 3.31909 15.9694 3.33243H16.1481C16.6456 3.39246 17.079 3.70062 17.3017 4.15018Z" fill="#ED1C24"/>
<path d="M15.9893 25.2215C15.731 25.2295 15.4794 25.2989 15.2531 25.423L9.33425 28.5149C8.61004 28.8605 7.74338 28.5923 7.33734 27.8997C7.1869 27.6168 7.13232 27.2925 7.18291 26.975L8.36508 20.4029C8.44496 19.9252 8.28521 19.4394 7.93774 19.1032L3.10388 14.4233C2.5301 13.8615 2.51944 12.9394 3.08124 12.3643C3.08923 12.3563 3.09589 12.3496 3.10388 12.343C3.33286 12.1161 3.6284 11.9667 3.94657 11.9199L10.6203 10.9378C11.1035 10.8764 11.5229 10.5748 11.7359 10.1372L14.6367 4.08286C14.9123 3.59446 15.4408 3.30355 16 3.33424C15.9893 3.73057 15.9893 24.952 15.9893 25.2215Z" fill="#ED1C24"/>
</svg>
