<svg width="32" height="32" viewBox="0 0 32 32" fill="none" xmlns="http://www.w3.org/2000/svg">
<path d="M28.3346 17.9685C27.24 17.9685 26.3493 17.086 26.3493 16.0013C26.3493 14.9153 27.24 14.0328 28.3346 14.0328C28.6 14.0328 28.8546 13.9284 29.0413 13.7435C29.2293 13.5572 29.3346 13.3049 29.3346 13.0419L29.3333 9.4722C29.3333 6.4547 26.8546 4 23.8093 4H8.1933C5.14797 4 2.6693 6.4547 2.6693 9.4722L2.66797 13.1569C2.66797 13.4198 2.7733 13.6721 2.9613 13.8584C3.14797 14.0434 3.40264 14.1477 3.66797 14.1477C4.79997 14.1477 5.6533 14.9444 5.6533 16.0013C5.6533 17.086 4.76264 17.9685 3.66797 17.9685C3.11597 17.9685 2.66797 18.4124 2.66797 18.9594V22.5265C2.66797 25.544 5.1453 28 8.19197 28H23.8106C26.8573 28 29.3346 25.544 29.3346 22.5265V18.9594C29.3346 18.4124 28.8866 17.9685 28.3346 17.9685Z" fill="#ED1C24"/>
<path d="M20.577 15.4514L19.005 16.9821L19.377 19.1461C19.441 19.5207 19.2904 19.8901 18.9824 20.1114C18.677 20.3354 18.2784 20.3634 17.9424 20.1847L16.0024 19.1647L14.0584 20.1861C13.9144 20.2621 13.757 20.3021 13.601 20.3021C13.397 20.3021 13.1957 20.2381 13.0224 20.1127C12.7157 19.8901 12.565 19.5207 12.629 19.1461L12.9997 16.9821L11.4277 15.4514C11.1557 15.1874 11.061 14.7994 11.1784 14.4381C11.297 14.0781 11.6037 13.8221 11.9784 13.7687L14.1464 13.4527L15.1184 11.4834C15.2877 11.1447 15.6264 10.9341 16.0024 10.9341H16.005C16.3824 10.9354 16.721 11.1461 16.8877 11.4847L17.8597 13.4527L20.0317 13.7701C20.4024 13.8221 20.709 14.0781 20.8264 14.4381C20.945 14.7994 20.8504 15.1874 20.577 15.4514Z" fill="white"/>
</svg>
