<svg width="32" height="32" viewBox="0 0 32 32" fill="none" xmlns="http://www.w3.org/2000/svg">
<path fill-rule="evenodd" clip-rule="evenodd" d="M29.3279 11.1668H23.6817C21.0542 11.1715 18.9256 13.2469 18.9208 15.8088C18.9173 18.3764 21.0482 20.4611 23.6817 20.4645H29.3327V20.8725C29.3327 25.3514 26.6174 28 22.0225 28H9.97742C5.38128 28 2.66602 25.3514 2.66602 20.8725V11.1171C2.66602 6.63816 5.38128 4 9.97742 4H22.0177C26.6127 4 29.3279 6.63816 29.3279 11.1171V11.1668ZM8.98542 11.1564H16.5054H16.5102H16.5196C17.0826 11.1541 17.5377 10.7069 17.5353 10.1569C17.533 9.60797 17.0731 9.16424 16.5102 9.16655H8.98542C8.42602 9.16886 7.97209 9.61144 7.96972 10.158C7.96735 10.7069 8.42246 11.1541 8.98542 11.1564Z" fill="#FDE8EB"/>
<path d="M21.3819 16.3956C21.6607 17.6638 22.7727 18.5561 24.0421 18.5329H28.3754C28.9036 18.5329 29.332 18.0955 29.332 17.5547V14.1793C29.3309 13.6398 28.9036 13.2012 28.3754 13.2H23.9401C22.4961 13.2047 21.3298 14.4033 21.332 15.8804C21.332 16.0533 21.349 16.2262 21.3819 16.3956Z" fill="#ED1C24"/>
<ellipse cx="23.9993" cy="15.8667" rx="1.33333" ry="1.33333" fill="white"/>
</svg>
