<svg width="28" height="28" viewBox="0 0 28 28" fill="none" xmlns="http://www.w3.org/2000/svg">
<rect width="28" height="28" rx="8" fill="url(#paint0_linear_10496_135279)"/>
<g clip-path="url(#clip0_10496_135279)">
<path d="M13.9997 17.7064C13.4406 17.7064 12.9719 18.175 12.9719 18.7342C12.9719 19.2933 13.4406 19.762 13.9997 19.762C14.5383 19.762 15.0275 19.2933 15.0029 18.7589C15.0275 18.1709 14.563 17.7064 13.9997 17.7064Z" fill="white"/>
<path d="M23.5133 21.349C24.1588 20.2348 24.1629 18.9069 23.5215 17.7968L17.0832 6.64694C16.446 5.52455 15.2948 4.85852 14.0038 4.85852C12.7129 4.85852 11.5617 5.52866 10.9245 6.64283L4.47793 17.805C3.83656 18.9274 3.84068 20.2636 4.49026 21.3778C5.13163 22.4796 6.27868 23.1415 7.56141 23.1415H20.4216C21.7084 23.1415 22.8637 22.4714 23.5133 21.349ZM22.1154 20.5432C21.7578 21.1599 21.1246 21.5258 20.4175 21.5258H7.5573C6.85838 21.5258 6.22935 21.1681 5.87989 20.5637C5.52631 19.9511 5.5222 19.2193 5.87577 18.6026L12.3223 7.44453C12.6718 6.83195 13.2967 6.47015 14.0038 6.47015C14.7069 6.47015 15.3359 6.83606 15.6854 7.44865L22.1278 18.6067C22.4731 19.207 22.469 19.9306 22.1154 20.5432Z" fill="white"/>
<path d="M13.7448 10.491C13.2556 10.6308 12.9513 11.0748 12.9513 11.6134C12.976 11.9382 12.9965 12.2671 13.0212 12.5919C13.0911 13.8294 13.161 15.0422 13.2309 16.2797C13.2556 16.6991 13.5804 17.0033 13.9997 17.0033C14.4191 17.0033 14.748 16.6785 14.7685 16.2551C14.7685 16.0002 14.7685 15.7658 14.7932 15.5068C14.8384 14.7133 14.8878 13.9199 14.933 13.1264C14.9576 12.6125 15.0029 12.0985 15.0275 11.5846C15.0275 11.3996 15.0029 11.2352 14.933 11.0707C14.7233 10.6103 14.2341 10.3759 13.7448 10.491Z" fill="white"/>
</g>
<defs>
<linearGradient id="paint0_linear_10496_135279" x1="24.5" y1="32.0833" x2="1.16667" y2="2.33333" gradientUnits="userSpaceOnUse">
<stop stop-color="#F4060E"/>
<stop offset="1" stop-color="#FF989B" stop-opacity="0.56"/>
</linearGradient>
<clipPath id="clip0_10496_135279">
<rect width="20" height="20" fill="white" transform="translate(4 4)"/>
</clipPath>
</defs>
</svg>
