<svg width="184" height="54" viewBox="0 0 184 54" fill="none" xmlns="http://www.w3.org/2000/svg">
<path d="M182.98 47.0026C182.98 49.8339 180.645 52.1273 177.757 52.1273H6.84183C3.95531 52.1273 1.6123 49.8339 1.6123 47.0026V6.13437C1.6123 3.30438 3.95531 1.00293 6.84183 1.00293H177.756C180.645 1.00293 182.978 3.30438 182.978 6.13437L182.98 47.0026Z" fill="black"/>
<path d="M177.206 1.06485C180.351 1.06485 182.91 3.56691 182.91 6.64176V46.4887C182.91 49.5636 180.351 52.0656 177.206 52.0656H7.38654C4.24148 52.0656 1.68229 49.5636 1.68229 46.4887V6.64176C1.68229 3.56691 4.24148 1.06485 7.38654 1.06485H177.206ZM177.206 0.000602722H7.38654C3.6522 0.000602722 0.59375 2.99078 0.59375 6.64176V46.4887C0.59375 50.1397 3.6522 53.1299 7.38654 53.1299H177.206C180.941 53.1299 183.999 50.1397 183.999 46.4887V6.64176C183.999 2.99078 180.941 0.000602722 177.206 0.000602722Z" fill="#A6A6A6"/>
<path d="M41.5247 26.2784C41.4853 21.9975 45.11 19.9149 45.2757 19.8179C43.2229 16.8918 40.0412 16.492 38.9231 16.4601C36.2508 16.1852 33.6587 18.0235 32.2974 18.0235C30.909 18.0235 28.8127 16.4867 26.5534 16.5319C23.6461 16.5757 20.9263 18.2214 19.4346 20.7769C16.3561 25.9875 18.6521 33.6448 21.6015 37.8566C23.0769 39.9194 24.8009 42.2225 27.0575 42.1415C29.2651 42.0525 30.0898 40.7654 32.7539 40.7654C35.3936 40.7654 36.1679 42.1415 38.4693 42.0897C40.8387 42.0525 42.3304 40.0177 43.7541 37.9363C45.4591 35.5721 46.1438 33.2437 46.171 33.1241C46.1153 33.1055 41.5696 31.4094 41.5247 26.2784Z" fill="white"/>
<path d="M37.1774 13.6894C38.3647 12.2377 39.1771 10.2626 38.9516 8.2583C37.2331 8.33268 35.0838 9.4205 33.8462 10.8404C32.7512 12.0916 31.773 14.1424 32.0257 16.071C33.9562 16.2118 35.9383 15.1186 37.1774 13.6894Z" fill="white"/>
<path d="M67.2306 13.2949C67.2306 14.8583 66.751 16.0351 65.7932 16.8254C64.9061 17.5546 63.6453 17.9199 62.0124 17.9199C61.2027 17.9199 60.5098 17.8853 59.9297 17.8163V9.27439C60.6864 9.15485 61.5015 9.09375 62.3819 9.09375C63.9374 9.09375 65.1099 9.42448 65.9006 10.0859C66.7863 10.8337 67.2306 11.903 67.2306 13.2949ZM65.7294 13.3335C65.7294 12.32 65.4549 11.543 64.9061 11.0011C64.3572 10.4605 63.5557 10.1895 62.5001 10.1895C62.0518 10.1895 61.67 10.2188 61.3535 10.2799V16.7736C61.5287 16.8002 61.8493 16.8121 62.3153 16.8121C63.4049 16.8121 64.2458 16.5159 64.8382 15.9235C65.4305 15.3311 65.7294 14.4678 65.7294 13.3335Z" fill="white"/>
<path d="M75.1904 14.6605C75.1904 15.6234 74.9092 16.4124 74.3468 17.0313C73.7572 17.6676 72.976 17.985 72.0005 17.985C71.0604 17.985 70.3119 17.6809 69.7535 17.0699C69.1965 16.4602 68.918 15.6912 68.918 14.7641C68.918 13.7944 69.2046 12.9988 69.7807 12.3812C70.3567 11.7636 71.1311 11.4541 72.1065 11.4541C73.0466 11.4541 73.802 11.7583 74.3739 12.3679C74.9174 12.9603 75.1904 13.7254 75.1904 14.6605ZM73.7137 14.7056C73.7137 14.1278 73.586 13.6324 73.3319 13.2193C73.033 12.7199 72.6078 12.4702 72.0549 12.4702C71.4829 12.4702 71.0482 12.7199 70.7493 13.2193C70.4939 13.6324 70.3676 14.1358 70.3676 14.7308C70.3676 15.3086 70.4953 15.8041 70.7493 16.2171C71.0577 16.7166 71.487 16.9663 72.0413 16.9663C72.5847 16.9663 73.0113 16.7126 73.3183 16.2039C73.5819 15.7828 73.7137 15.2834 73.7137 14.7056Z" fill="white"/>
<path d="M85.8629 11.5815L83.859 17.8428H82.5548L81.7248 15.1239C81.5142 14.4452 81.343 13.7705 81.2099 13.101H81.1841C81.0604 13.7891 80.8892 14.4625 80.6692 15.1239L79.7875 17.8428H78.4683L76.584 11.5815H78.0471L78.7713 14.5581C78.9465 15.2621 79.0905 15.9328 79.206 16.5677H79.2318C79.3378 16.0444 79.513 15.3776 79.7603 14.5714L80.6692 11.5829H81.8294L82.7002 14.5076C82.9108 15.2209 83.082 15.9076 83.2137 16.5691H83.2531C83.3496 15.9249 83.495 15.2382 83.6879 14.5076L84.465 11.5829H85.8629V11.5815Z" fill="white"/>
<path d="M93.2444 17.843H91.8206V14.2568C91.8206 13.1517 91.3913 12.5991 90.53 12.5991C90.1075 12.5991 89.7665 12.7505 89.5016 13.0547C89.2394 13.3589 89.1062 13.7175 89.1062 14.1279V17.8417H87.6825V13.3708C87.6825 12.8209 87.6648 12.2246 87.6309 11.579H88.8821L88.9487 12.5579H88.9881C89.1538 12.2538 89.4011 12.0027 89.7257 11.8022C90.1116 11.5684 90.5436 11.4502 91.0164 11.4502C91.6141 11.4502 92.1114 11.6388 92.5067 12.0174C92.9985 12.4809 93.2444 13.1729 93.2444 14.0921V17.843Z" fill="white"/>
<path d="M97.1704 17.8427H95.748V8.7085H97.1704V17.8427Z" fill="white"/>
<path d="M105.553 14.6605C105.553 15.6234 105.272 16.4124 104.709 17.0313C104.119 17.6676 103.337 17.985 102.363 17.985C101.421 17.985 100.673 17.6809 100.116 17.0699C99.5588 16.4602 99.2803 15.6912 99.2803 14.7641C99.2803 13.7944 99.5669 12.9988 100.143 12.3812C100.719 11.7636 101.493 11.4541 102.467 11.4541C103.409 11.4541 104.163 11.7583 104.736 12.3679C105.28 12.9603 105.553 13.7254 105.553 14.6605ZM104.075 14.7056C104.075 14.1278 103.947 13.6324 103.693 13.2193C103.395 12.7199 102.969 12.4702 102.417 12.4702C101.844 12.4702 101.409 12.7199 101.112 13.2193C100.856 13.6324 100.73 14.1358 100.73 14.7308C100.73 15.3086 100.858 15.8041 101.112 16.2171C101.42 16.7166 101.849 16.9663 102.404 16.9663C102.947 16.9663 103.372 16.7126 103.679 16.2039C103.944 15.7828 104.075 15.2834 104.075 14.7056Z" fill="white"/>
<path d="M112.443 17.8429H111.165L111.059 17.1217H111.019C110.582 17.6968 109.958 17.985 109.149 17.985C108.544 17.985 108.055 17.7951 107.687 17.4179C107.353 17.0752 107.186 16.6488 107.186 16.1428C107.186 15.3777 107.512 14.7946 108.168 14.3908C108.823 13.987 109.744 13.7891 110.93 13.7984V13.6815C110.93 12.8567 110.487 12.445 109.6 12.445C108.968 12.445 108.411 12.6004 107.93 12.9085L107.641 11.9947C108.236 11.6347 108.971 11.4541 109.837 11.4541C111.511 11.4541 112.351 12.3175 112.351 14.0442V16.35C112.351 16.9756 112.382 17.4736 112.443 17.8429ZM110.965 15.6912V14.7255C109.395 14.699 108.609 15.12 108.609 15.9874C108.609 16.3141 108.699 16.5585 108.882 16.7219C109.066 16.8852 109.299 16.9663 109.578 16.9663C109.89 16.9663 110.183 16.8693 110.449 16.6767C110.716 16.4828 110.881 16.2371 110.942 15.9356C110.957 15.8678 110.965 15.7855 110.965 15.6912Z" fill="white"/>
<path d="M120.533 17.8427H119.27L119.203 16.8373H119.164C118.761 17.6023 118.073 17.9849 117.107 17.9849C116.335 17.9849 115.693 17.6887 115.183 17.0963C114.674 16.5039 114.42 15.7348 114.42 14.7905C114.42 13.777 114.696 12.9562 115.25 12.3293C115.787 11.7448 116.444 11.4526 117.227 11.4526C118.087 11.4526 118.689 11.7355 119.031 12.3027H119.058V8.7085H120.483V16.1559C120.483 16.7656 120.499 17.3274 120.533 17.8427ZM119.058 15.2022V14.1582C119.058 13.9776 119.044 13.8315 119.019 13.7199C118.938 13.3852 118.766 13.1036 118.504 12.8765C118.239 12.6494 117.92 12.5351 117.551 12.5351C117.02 12.5351 116.604 12.741 116.299 13.1541C115.996 13.5672 115.842 14.0945 115.842 14.7387C115.842 15.3576 115.988 15.8597 116.28 16.2462C116.588 16.658 117.004 16.8638 117.524 16.8638C117.992 16.8638 118.365 16.6925 118.649 16.3485C118.924 16.031 119.058 15.6485 119.058 15.2022Z" fill="white"/>
<path d="M132.71 14.6605C132.71 15.6234 132.429 16.4124 131.866 17.0313C131.277 17.6676 130.497 17.985 129.52 17.985C128.581 17.985 127.833 17.6809 127.273 17.0699C126.716 16.4602 126.438 15.6912 126.438 14.7641C126.438 13.7944 126.724 12.9988 127.3 12.3812C127.876 11.7636 128.651 11.4541 129.627 11.4541C130.566 11.4541 131.323 11.7583 131.893 12.3679C132.437 12.9603 132.71 13.7254 132.71 14.6605ZM131.235 14.7056C131.235 14.1278 131.107 13.6324 130.853 13.2193C130.553 12.7199 130.129 12.4702 129.574 12.4702C129.004 12.4702 128.569 12.7199 128.269 13.2193C128.013 13.6324 127.887 14.1358 127.887 14.7308C127.887 15.3086 128.015 15.8041 128.269 16.2171C128.577 16.7166 129.007 16.9663 129.561 16.9663C130.104 16.9663 130.532 16.7126 130.839 16.2039C131.101 15.7828 131.235 15.2834 131.235 14.7056Z" fill="white"/>
<path d="M140.366 17.843H138.944V14.2568C138.944 13.1517 138.514 12.5991 137.652 12.5991C137.229 12.5991 136.888 12.7505 136.625 13.0547C136.361 13.3589 136.229 13.7175 136.229 14.1279V17.8417H134.804V13.3708C134.804 12.8209 134.788 12.2246 134.754 11.579H136.004L136.07 12.5579H136.11C136.277 12.2538 136.524 12.0027 136.847 11.8022C137.235 11.5684 137.665 11.4502 138.139 11.4502C138.736 11.4502 139.233 11.6388 139.628 12.0174C140.122 12.4809 140.366 13.1729 140.366 14.0921V17.843Z" fill="white"/>
<path d="M149.947 12.624H148.38V15.6656C148.38 16.4387 148.658 16.8252 149.21 16.8252C149.465 16.8252 149.677 16.8039 149.844 16.7601L149.881 17.816C149.599 17.9196 149.23 17.9714 148.775 17.9714C148.212 17.9714 147.775 17.8041 147.458 17.4694C147.141 17.1347 146.983 16.5715 146.983 15.7812V12.624H146.047V11.5813H146.983V10.4337L148.378 10.022V11.58H149.946V12.624H149.947Z" fill="white"/>
<path d="M157.485 17.8427H156.06V14.2831C156.06 13.1607 155.63 12.5989 154.77 12.5989C154.11 12.5989 153.659 12.9243 153.412 13.5751C153.37 13.7119 153.345 13.8793 153.345 14.0759V17.8414H151.923V8.7085H153.345V12.482H153.372C153.821 11.7953 154.463 11.4526 155.296 11.4526C155.886 11.4526 156.373 11.6412 156.761 12.0198C157.243 12.4913 157.485 13.1926 157.485 14.1197V17.8427Z" fill="white"/>
<path d="M165.26 14.4158C165.26 14.6655 165.241 14.8754 165.207 15.0467H160.937C160.956 15.6657 161.16 16.1372 161.555 16.4639C161.917 16.7562 162.383 16.9023 162.953 16.9023C163.585 16.9023 164.161 16.804 164.68 16.6061L164.903 17.573C164.296 17.8307 163.581 17.9595 162.754 17.9595C161.762 17.9595 160.981 17.674 160.416 17.1028C159.848 16.5317 159.566 15.7653 159.566 14.8036C159.566 13.8593 159.829 13.073 160.357 12.446C160.909 11.7766 161.655 11.4419 162.596 11.4419C163.517 11.4419 164.217 11.7766 164.69 12.446C165.071 12.9773 165.26 13.6348 165.26 14.4158ZM163.902 14.0559C163.912 13.6428 163.819 13.2868 163.626 12.9866C163.379 12.6001 163.002 12.4062 162.493 12.4062C162.028 12.4062 161.649 12.5948 161.36 12.9733C161.123 13.2749 160.983 13.6348 160.937 14.0559H163.902Z" fill="white"/>
<path d="M73.4733 41.8451H70.3881L68.698 36.653H62.8236L61.2137 41.8451H58.21L64.03 24.1689H67.6248L73.4733 41.8451ZM68.1886 34.4747L66.6602 29.8591C66.4985 29.3876 66.1956 28.2772 65.7486 26.5292H65.6942C65.5163 27.281 65.2296 28.3914 64.8356 29.8591L63.3344 34.4747H68.1886Z" fill="white"/>
<path d="M88.4402 35.3157C88.4402 37.4834 87.841 39.1968 86.6428 40.4546C85.5695 41.5743 84.2368 42.1335 82.6459 42.1335C80.9287 42.1335 79.6951 41.5305 78.9439 40.3244H78.8895V47.0387H75.9931V33.2954C75.9931 31.9327 75.9564 30.534 75.8857 29.0996H78.433L78.5947 31.1198H78.649C79.615 29.5976 81.0809 28.8379 83.0481 28.8379C84.5859 28.8379 85.8698 29.4316 86.8968 30.6204C87.9266 31.8105 88.4402 33.3751 88.4402 35.3157ZM85.4894 35.4193C85.4894 34.1787 85.2041 33.156 84.6308 32.3511C84.0045 31.5116 83.1635 31.0919 82.1093 31.0919C81.3947 31.0919 80.7453 31.3257 80.1652 31.7866C79.5837 32.2514 79.2033 32.8584 79.0254 33.6102C78.9357 33.9609 78.8909 34.2478 78.8909 34.4736V36.5988C78.8909 37.5259 79.1816 38.3082 79.7631 38.9471C80.3445 39.5859 81.0999 39.9047 82.0291 39.9047C83.1201 39.9047 83.9692 39.493 84.5764 38.6721C85.1851 37.8499 85.4894 36.7661 85.4894 35.4193Z" fill="white"/>
<path d="M103.435 35.3157C103.435 37.4834 102.836 39.1968 101.636 40.4546C100.564 41.5743 99.2315 42.1335 97.6407 42.1335C95.9234 42.1335 94.6899 41.5305 93.9399 40.3244H93.8856V47.0387H90.9892V33.2954C90.9892 31.9327 90.9525 30.534 90.8818 29.0996H93.4291L93.5908 31.1198H93.6451C94.6097 29.5976 96.0756 28.8379 98.0442 28.8379C99.5807 28.8379 100.865 29.4316 101.894 30.6204C102.92 31.8105 103.435 33.3751 103.435 35.3157ZM100.484 35.4193C100.484 34.1787 100.197 33.156 99.6242 32.3511C98.9979 31.5116 98.1596 31.0919 97.104 31.0919C96.3881 31.0919 95.74 31.3257 95.1586 31.7866C94.5771 32.2514 94.1981 32.8584 94.0201 33.6102C93.9318 33.9609 93.8856 34.2478 93.8856 34.4736V36.5988C93.8856 37.5259 94.1763 38.3082 94.7551 38.9471C95.3365 39.5846 96.0919 39.9047 97.0239 39.9047C98.1148 39.9047 98.9639 39.493 99.5712 38.6721C100.18 37.8499 100.484 36.7661 100.484 35.4193Z" fill="white"/>
<path d="M120.2 36.8883C120.2 38.3919 119.666 39.6152 118.594 40.5595C117.416 41.5916 115.776 42.1069 113.669 42.1069C111.724 42.1069 110.164 41.7403 108.983 41.0058L109.655 38.6456C110.926 39.3973 112.321 39.7746 113.842 39.7746C114.933 39.7746 115.782 39.5328 116.392 39.052C116.999 38.5712 117.302 37.9257 117.302 37.1208C117.302 36.4035 117.052 35.7992 116.551 35.309C116.052 34.8189 115.219 34.3633 114.056 33.9423C110.891 32.7881 109.309 31.0972 109.309 28.8738C109.309 27.4207 109.864 26.2293 110.974 25.3021C112.08 24.3737 113.555 23.9102 115.4 23.9102C117.045 23.9102 118.412 24.1904 119.503 24.7496L118.779 27.0581C117.76 26.5161 116.608 26.2452 115.318 26.2452C114.299 26.2452 113.503 26.4909 112.933 26.9797C112.45 27.4167 112.209 27.9493 112.209 28.5802C112.209 29.2789 112.484 29.8567 113.039 30.3109C113.521 30.7306 114.397 31.1849 115.669 31.675C117.224 32.2873 118.367 33.0032 119.102 33.8241C119.834 34.6423 120.2 35.6663 120.2 36.8883Z" fill="white"/>
<path d="M129.776 31.2248H126.584V37.413C126.584 38.987 127.146 39.7733 128.274 39.7733C128.791 39.7733 129.221 39.7295 129.56 39.6418L129.64 41.7922C129.07 42.0008 128.319 42.1057 127.388 42.1057C126.244 42.1057 125.35 41.7643 124.705 41.0829C124.062 40.4002 123.739 39.2553 123.739 37.6468V31.2221H121.837V29.097H123.739V26.7633L126.584 25.9238V29.097H129.776V31.2248Z" fill="white"/>
<path d="M144.181 35.3676C144.181 37.3268 143.608 38.9352 142.464 40.1931C141.264 41.4881 139.672 42.1336 137.687 42.1336C135.774 42.1336 134.251 41.5133 133.116 40.2728C131.98 39.0322 131.412 37.4662 131.412 35.5788C131.412 33.6037 131.996 31.9859 133.169 30.7281C134.338 29.4689 135.917 28.8394 137.902 28.8394C139.815 28.8394 141.354 29.4596 142.516 30.7015C143.627 31.9062 144.181 33.4616 144.181 35.3676ZM141.176 35.4593C141.176 34.2838 140.919 33.2757 140.399 32.4349C139.792 31.4175 138.924 30.9101 137.799 30.9101C136.634 30.9101 135.75 31.4188 135.143 32.4349C134.622 33.277 134.366 34.301 134.366 35.5124C134.366 36.6879 134.622 37.696 135.143 38.5354C135.769 39.5529 136.644 40.0603 137.773 40.0603C138.879 40.0603 139.747 39.5423 140.373 38.5089C140.907 37.6522 141.176 36.6334 141.176 35.4593Z" fill="white"/>
<path d="M153.596 31.59C153.309 31.5382 153.004 31.5116 152.683 31.5116C151.664 31.5116 150.876 31.8875 150.322 32.6406C149.84 33.3047 149.598 34.1442 149.598 35.1576V41.8453H146.703L146.73 33.1135C146.73 31.6444 146.693 30.3069 146.621 29.1009H149.144L149.25 31.5395H149.33C149.636 30.7014 150.118 30.0267 150.778 29.5206C151.424 29.065 152.121 28.8379 152.872 28.8379C153.139 28.8379 153.381 28.8565 153.596 28.8897V31.59Z" fill="white"/>
<path d="M166.55 34.8694C166.55 35.3768 166.516 35.8044 166.444 36.1538H157.754C157.788 37.4129 158.208 38.3759 159.015 39.04C159.747 39.6337 160.694 39.9313 161.857 39.9313C163.144 39.9313 164.318 39.7307 165.373 39.3282L165.827 41.294C164.593 41.82 163.137 42.0817 161.456 42.0817C159.435 42.0817 157.848 41.4999 156.693 40.3377C155.541 39.1755 154.964 37.6148 154.964 35.657C154.964 33.7351 155.501 32.1345 156.575 30.8581C157.7 29.4953 159.22 28.814 161.133 28.814C163.012 28.814 164.434 29.4953 165.4 30.8581C166.165 31.9406 166.55 33.2795 166.55 34.8694ZM163.788 34.1349C163.807 33.2954 163.618 32.5702 163.225 31.9579C162.724 31.1702 161.954 30.7771 160.917 30.7771C159.97 30.7771 159.2 31.161 158.612 31.9313C158.129 32.5436 157.843 33.2782 157.754 34.1335H163.788V34.1349Z" fill="white"/>
</svg>
