<svg width="24" height="24" viewBox="0 0 24 24" fill="none" xmlns="http://www.w3.org/2000/svg">
<path d="M11.9999 21.6003C17.3019 21.6003 21.5999 17.3023 21.5999 12.0003C21.5999 6.6984 17.3019 2.40034 11.9999 2.40034C6.69797 2.40034 2.39992 6.6984 2.39992 12.0003C2.39992 17.3023 6.69797 21.6003 11.9999 21.6003ZM13.1822 17.3783C13.1822 17.6908 13.0581 17.9904 12.8372 18.2113C12.6163 18.4323 12.3166 18.5564 12.0042 18.5564C11.6917 18.5564 11.3921 18.4323 11.1712 18.2113C10.9503 17.9904 10.8261 17.6908 10.8261 17.3783L10.8261 10.5577C10.8261 10.2452 10.9503 9.9456 11.1712 9.72468C11.3921 9.50375 11.6917 9.37964 12.0042 9.37963C12.3166 9.37964 12.6163 9.50375 12.8372 9.72468C13.0581 9.9456 13.1822 10.2452 13.1822 10.5577L13.1822 17.3783ZM10.967 5.8754C11.2052 5.6404 11.5175 5.49518 11.8508 5.46444C12.184 5.43369 12.5176 5.51932 12.7948 5.70677C13.072 5.89421 13.2757 6.17189 13.3713 6.49258C13.4669 6.81328 13.4485 7.15718 13.3191 7.46582C13.1898 7.77445 12.9575 8.02875 12.6618 8.18547C12.3662 8.34218 12.0253 8.39164 11.6973 8.32544C11.3693 8.25923 11.0743 8.08144 10.8626 7.8223C10.6509 7.56317 10.5354 7.23869 10.5359 6.90405C10.5343 6.71233 10.5717 6.52228 10.6458 6.34545C10.7199 6.16862 10.8292 6.0087 10.967 5.8754Z" fill="#FAFAFA"/>
</svg>
