<svg width="343" height="329" viewBox="0 0 343 329" fill="none" xmlns="http://www.w3.org/2000/svg">
<ellipse cx="171" cy="159.245" rx="300" ry="400.757" fill="white"/>
<g style="mix-blend-mode:darken" opacity="0.1">
<path d="M316.756 -98.8491C312.957 288.779 102.256 362.712 102.256 362.712C102.256 362.712 66.7762 549.882 247.756 515.414C350.626 454.718 387.756 387.587 440.256 244.558L447.256 -57.3914C447.256 -57.3914 320.555 -486.477 316.756 -98.8491Z" fill="url(#paint0_linear_740_58933)"/>
</g>
<g style="mix-blend-mode:darken" opacity="0.1">
<path d="M349.756 403.647C453.256 282.729 26.2559 398.811 -18.7441 42.9663C-63.7441 -312.878 -53.244 353.898 -21.7441 387.064C9.75585 420.23 -8.00735 401.529 1.2559 409.866C12.0328 419.564 19.4557 425.192 29.7559 432.667C116.256 489.326 246.256 524.565 349.756 403.647Z" fill="url(#paint1_linear_740_58933)"/>
</g>
<defs>
<linearGradient id="paint0_linear_740_58933" x1="99.2556" y1="499.522" x2="501.26" y2="114.076" gradientUnits="userSpaceOnUse">
<stop offset="0.410046" stop-color="#FE644C" stop-opacity="0.2"/>
<stop offset="1" stop-color="#FE974C" stop-opacity="0.85"/>
</linearGradient>
<linearGradient id="paint1_linear_740_58933" x1="-49.2217" y1="470.69" x2="201.311" y2="61.0449" gradientUnits="userSpaceOnUse">
<stop offset="0.410046" stop-color="#FE644C" stop-opacity="0.2"/>
<stop offset="1" stop-color="#FE974C" stop-opacity="0.85"/>
</linearGradient>
</defs>
</svg>
