<svg width="23" height="18" viewBox="0 0 23 18" fill="none" xmlns="http://www.w3.org/2000/svg">
<path d="M12.3922 0C12.3858 0.09375 12.3728 0.1875 12.3728 0.28125C12.3728 3.21875 12.3728 6.15553 12.3728 9.0916V9.40517H22.5022V17.4677C22.496 17.4716 22.4895 17.4748 22.4828 17.4774C22.4749 17.479 22.4669 17.479 22.4591 17.4774C22.4503 17.4761 22.4419 17.4732 22.4343 17.4688C22.4196 17.46 22.4056 17.4503 22.3922 17.4397C22.3707 17.4246 22.3513 17.4084 22.3308 17.3922L12.4935 9.50216C12.4793 9.4921 12.4642 9.48344 12.4483 9.4763C12.4418 9.4763 12.4332 9.4763 12.3901 9.46013C12.3677 9.75519 12.3619 10.0513 12.3728 10.347C12.3728 10.6573 12.3728 10.9677 12.3728 11.278V14.9224C12.1843 14.8459 5.61315 9.66272 5.39332 9.41703H12.2834C12.2834 9.28556 12.1864 9.25754 12.125 9.20905C10.4447 7.87644 8.76329 6.54454 7.08082 5.21336L0.715517 0.177802C0.645474 0.119612 0.573276 0.0592673 0.5 0H12.3922Z" fill="white"/>
</svg>
