<svg width="19" height="21" viewBox="0 0 19 21" fill="none" xmlns="http://www.w3.org/2000/svg">
<path d="M3.1998 0.399902C2.56329 0.399902 1.95284 0.652759 1.50275 1.10285C1.05266 1.55293 0.799805 2.16338 0.799805 2.7999V17.1999C0.799805 17.8364 1.05266 18.4469 1.50275 18.897C1.95284 19.347 2.56329 19.5999 3.1998 19.5999H8.30821C8.00257 19.2297 7.73821 18.8274 7.51981 18.3999H3.1998C2.88155 18.3999 2.57632 18.2735 2.35128 18.0484C2.12623 17.8234 1.9998 17.5182 1.9998 17.1999V2.7999C1.9998 2.48164 2.12623 2.17642 2.35128 1.95137C2.57632 1.72633 2.88155 1.5999 3.1998 1.5999H7.9998V5.7999C7.9998 6.27729 8.18945 6.73513 8.52701 7.07269C8.86458 7.41026 9.32242 7.5999 9.7998 7.5999H13.9998V8.8263C14.4058 8.86308 14.8075 8.9374 15.1998 9.0483V6.8967C15.1994 6.41947 15.0095 5.96194 14.6718 5.6247L9.97501 0.926702C9.63757 0.58948 9.18006 0.400004 8.70301 0.399902H3.1998ZM13.7514 6.3999H9.7998C9.64068 6.3999 9.48806 6.33669 9.37554 6.22417C9.26302 6.11164 9.19981 5.95903 9.19981 5.7999V1.8483L13.7514 6.3999ZM6.7998 15.3999C6.7998 15.1983 6.80941 14.9979 6.82621 14.7999H6.1998C6.04068 14.7999 5.88806 14.8631 5.77554 14.9756C5.66302 15.0882 5.5998 15.2408 5.5998 15.3999C5.5998 15.559 5.66302 15.7116 5.77554 15.8242C5.88806 15.9367 6.04068 15.9999 6.1998 15.9999H6.82621C6.80842 15.8004 6.79961 15.6002 6.7998 15.3999ZM7.0482 13.5999C7.167 13.1811 7.32421 12.7803 7.51981 12.3999H6.1998C6.04068 12.3999 5.88806 12.4631 5.77554 12.5756C5.66302 12.6882 5.5998 12.8408 5.5998 12.9999C5.5998 13.159 5.66302 13.3116 5.77554 13.4242C5.88806 13.5367 6.04068 13.5999 6.1998 13.5999H7.0482ZM8.30821 11.1999C8.6838 10.7439 9.1206 10.3407 9.60421 9.9999H6.1998C6.04068 9.9999 5.88806 10.0631 5.77554 10.1756C5.66302 10.2882 5.5998 10.4408 5.5998 10.5999C5.5998 10.759 5.66302 10.9116 5.77554 11.0242C5.88806 11.1367 6.04068 11.1999 6.1998 11.1999H8.30821ZM3.7998 9.9999C3.64067 9.9999 3.48806 10.0631 3.37554 10.1756C3.26302 10.2882 3.1998 10.4408 3.1998 10.5999C3.1998 10.759 3.26302 10.9116 3.37554 11.0242C3.48806 11.1367 3.64067 11.1999 3.7998 11.1999C3.95893 11.1999 4.11155 11.1367 4.22407 11.0242C4.33659 10.9116 4.3998 10.759 4.3998 10.5999C4.3998 10.4408 4.33659 10.2882 4.22407 10.1756C4.11155 10.0631 3.95893 9.9999 3.7998 9.9999ZM3.1998 12.9999C3.1998 12.8408 3.26302 12.6882 3.37554 12.5756C3.48806 12.4631 3.64067 12.3999 3.7998 12.3999C3.95893 12.3999 4.11155 12.4631 4.22407 12.5756C4.33659 12.6882 4.3998 12.8408 4.3998 12.9999C4.3998 13.159 4.33659 13.3116 4.22407 13.4242C4.11155 13.5367 3.95893 13.5999 3.7998 13.5999C3.64067 13.5999 3.48806 13.5367 3.37554 13.4242C3.26302 13.3116 3.1998 13.159 3.1998 12.9999ZM3.1998 15.3999C3.1998 15.2408 3.26302 15.0882 3.37554 14.9756C3.48806 14.8631 3.64067 14.7999 3.7998 14.7999C3.95893 14.7999 4.11155 14.8631 4.22407 14.9756C4.33659 15.0882 4.3998 15.2408 4.3998 15.3999C4.3998 15.559 4.33659 15.7116 4.22407 15.8242C4.11155 15.9367 3.95893 15.9999 3.7998 15.9999C3.64067 15.9999 3.48806 15.9367 3.37554 15.8242C3.26302 15.7116 3.1998 15.559 3.1998 15.3999ZM18.7998 15.3999C18.7998 16.8321 18.2309 18.2056 17.2182 19.2183C16.2055 20.231 14.832 20.7999 13.3998 20.7999C11.9676 20.7999 10.5941 20.231 9.58143 19.2183C8.56873 18.2056 7.9998 16.8321 7.9998 15.3999C7.9998 13.9677 8.56873 12.5942 9.58143 11.5815C10.5941 10.5688 11.9676 9.9999 13.3998 9.9999C14.832 9.9999 16.2055 10.5688 17.2182 11.5815C18.2309 12.5942 18.7998 13.9677 18.7998 15.3999ZM13.9998 11.7999C13.9998 11.6408 13.9366 11.4882 13.8241 11.3756C13.7115 11.2631 13.5589 11.1999 13.3998 11.1999C13.2407 11.1999 13.0881 11.2631 12.9755 11.3756C12.863 11.4882 12.7998 11.6408 12.7998 11.7999V15.3999C12.7998 15.559 12.863 15.7116 12.9755 15.8242C13.0881 15.9367 13.2407 15.9999 13.3998 15.9999H15.7998C15.9589 15.9999 16.1115 15.9367 16.2241 15.8242C16.3366 15.7116 16.3998 15.559 16.3998 15.3999C16.3998 15.2408 16.3366 15.0882 16.2241 14.9756C16.1115 14.8631 15.9589 14.7999 15.7998 14.7999H13.9998V11.7999Z" fill="white"/>
</svg>
