<svg width="24" height="24" viewBox="0 0 24 24" fill="none" xmlns="http://www.w3.org/2000/svg">
<path d="M16.6756 2H7.33333C3.92889 2 2 3.92889 2 7.33333V16.6667C2 20.0711 3.92889 22 7.33333 22H16.6756C20.08 22 22 20.0711 22 16.6667V7.33333C22 3.92889 20.08 2 16.6756 2Z" fill="#FDE8EB"/>
<path d="M7.36964 9.36902C6.9163 9.36902 6.54297 9.74235 6.54297 10.2046V17.0757C6.54297 17.529 6.9163 17.9024 7.36964 17.9024C7.83186 17.9024 8.20519 17.529 8.20519 17.0757V10.2046C8.20519 9.74235 7.83186 9.36902 7.36964 9.36902Z" fill="#ED1C24"/>
<path d="M12.0357 6.08899C11.5823 6.08899 11.209 6.46232 11.209 6.92454V17.0757C11.209 17.529 11.5823 17.9023 12.0357 17.9023C12.4979 17.9023 12.8712 17.529 12.8712 17.0757V6.92454C12.8712 6.46232 12.4979 6.08899 12.0357 6.08899Z" fill="#ED1C24"/>
<path d="M16.6402 12.9956C16.178 12.9956 15.8047 13.3689 15.8047 13.8312V17.0756C15.8047 17.5289 16.178 17.9023 16.6314 17.9023C17.0936 17.9023 17.4669 17.5289 17.4669 17.0756V13.8312C17.4669 13.3689 17.0936 12.9956 16.6402 12.9956Z" fill="#ED1C24"/>
</svg>
