<svg width="48" height="48" viewBox="0 0 48 48" fill="none" xmlns="http://www.w3.org/2000/svg">
<g filter="url(#filter0_d_279_58454)">
<g clip-path="url(#clip0_279_58454)">
<path d="M49.7541 6.10449V38.7592L49.7479 38.7654H-2.33984V6.10449H49.7541Z" fill="#2E4593"/>
<path d="M49.7541 35.3589V38.7598L49.7479 38.7661H44.3255L28.3388 28.7419L26.737 27.7382L24.8486 26.5514L24.216 26.1536L22.2948 24.9527L21.5792 24.5002L20.9764 24.1259L19.7676 23.3712L19.3777 23.1238L18.7874 22.7559L13.1098 19.1905L10.556 17.5919L-2.33984 9.50767V6.10519L-2.296 6.04102L-2.19423 6.10519H3.08094L19.3777 16.3189L20.9764 17.3257L21.4054 17.5919L23.9608 19.1905L24.216 19.3534L25.1946 19.9672L26.737 20.9333L27 21.1024L28.3388 21.9401L29.6431 22.7559L33.1505 24.9527L35.7043 26.5514L49.7541 35.3589Z" fill="#FCF5FF"/>
<path d="M49.7588 38.664L49.7698 38.7845L46.2843 38.7658L28.3388 27.514L26.8074 26.551L26.737 26.5087L25.1946 25.5426L24.2599 24.9523L22.5578 23.8845L20.9764 22.8996L20.7525 22.7555L19.7676 22.1355L19.3777 21.8943L15.0687 19.1902L12.5211 17.5915L-2.33984 8.2719V6.03125L-2.296 6.04066L-2.19423 6.10484L16.1318 17.5915L18.6794 19.1902L19.3777 19.6271L20.9764 20.6339L21.5792 21.0097L22.5578 21.625L24.3632 22.7555L26.737 24.243L27 24.4106L27.869 24.9523L28.3388 25.2483L30.4181 26.551L49.7588 38.664Z" fill="#F42525"/>
<path d="M49.7541 6.74963V10.1474L37.8744 17.5912L35.3269 19.1898L29.6431 22.7552L28.3388 23.5694L27 24.4102L26.737 24.5746L26.1357 24.952L25.1946 25.5423L24.216 26.153L23.5819 26.5507L20.9764 28.1838L19.3777 29.1906L4.0987 38.7654H-2.33984V36.0002L12.7325 26.5507L15.28 24.952L18.7874 22.7552L19.3777 22.3856L19.7676 22.1351L20.9764 21.3804L21.5792 21.0093L24.216 19.3527L24.4712 19.1898L26.737 17.7713L27.0266 17.5912L28.3388 16.7675L45.3511 6.10449H49.3439L49.7541 6.74963Z" fill="#FCF5FF"/>
<path d="M49.6195 6.91716L32.5946 17.5912L30.0408 19.1898L28.3388 20.2609L27 21.1017L26.737 21.2661L24.3632 22.7552L22.5578 23.8841L21.5792 24.4995L20.9764 24.8752L20.8558 24.952L19.3777 25.8821L18.302 26.5507L-1.16863 38.7654H-2.33984V37.2356L14.6913 26.5507L17.2451 24.952L19.3777 23.6148L19.7676 23.3705L20.7525 22.7552L20.9764 22.6096L22.5578 21.6247L25.1946 19.9665L26.4301 19.1898L26.737 19.0004L28.3388 17.9936L28.9839 17.5912L47.3021 6.10449H49.1137H49.7541L49.7588 6.82006L49.6195 6.91716Z" fill="#F42525"/>
<path d="M49.7777 17.5918H-2.38672V26.5529H49.7777V17.5918Z" fill="white"/>
<path d="M49.7777 19.1904H-2.38672V24.9526H49.7777V19.1904Z" fill="#F42525"/>
<path d="M26.7371 6.10449H20.9766V38.7654H26.7371V6.10449Z" fill="#CD002A"/>
<path d="M26.7241 26.5507H28.3243V38.7654H19.3633V26.5507H20.9635V17.5912H19.3633V6.10449H28.3243V17.5912H26.7241V26.5507Z" fill="white"/>
<path d="M26.7552 6.10449H20.9336V38.7654H26.7552V6.10449Z" fill="#F42525"/>
</g>
</g>
<defs>
<filter id="filter0_d_279_58454" x="0" y="0" width="48" height="48" filterUnits="userSpaceOnUse" color-interpolation-filters="sRGB">
<feFlood flood-opacity="0" result="BackgroundImageFix"/>
<feColorMatrix in="SourceAlpha" type="matrix" values="0 0 0 0 0 0 0 0 0 0 0 0 0 0 0 0 0 0 127 0" result="hardAlpha"/>
<feOffset dy="2"/>
<feGaussianBlur stdDeviation="4"/>
<feComposite in2="hardAlpha" operator="out"/>
<feColorMatrix type="matrix" values="0 0 0 0 0.758333 0 0 0 0 0.726736 0 0 0 0 0.726736 0 0 0 0.24 0"/>
<feBlend mode="normal" in2="BackgroundImageFix" result="effect1_dropShadow_279_58454"/>
<feBlend mode="normal" in="SourceGraphic" in2="effect1_dropShadow_279_58454" result="shape"/>
</filter>
<clipPath id="clip0_279_58454">
<rect x="8" y="6" width="32" height="32" rx="16" fill="white"/>
</clipPath>
</defs>
</svg>
