<svg width="812" height="248" viewBox="0 0 812 248" fill="none" xmlns="http://www.w3.org/2000/svg">
<g clip-path="url(#clip0_281_50121)">
<rect width="813" height="400" fill="url(#paint0_linear_281_50121)"/>
<circle opacity="0.4" cx="45" cy="84" r="112" stroke="url(#paint1_linear_281_50121)" stroke-width="40"/>
<g style="mix-blend-mode:soft-light" filter="url(#filter0_f_281_50121)">
<circle cx="16" cy="84" r="62" fill="#FBBEC1" fill-opacity="0.5"/>
</g>
<g style="mix-blend-mode:soft-light" filter="url(#filter1_f_281_50121)">
<ellipse cx="373" cy="234.5" rx="62" ry="129.5" fill="#FBBEC1" fill-opacity="0.8"/>
</g>
<g style="mix-blend-mode:hard-light" opacity="0.4">
<circle cx="404" cy="122" r="83" stroke="url(#paint2_linear_281_50121)" stroke-width="40"/>
</g>
<path d="M406.197 210.006C406.197 210.006 407.751 224.256 409.491 225.399C412.601 227.451 448.6 232.194 448.6 232.194L447.421 241.56C447.421 241.56 398.116 245.99 396.022 243.526C392.386 239.252 385.996 218.633 385.996 218.633L406.197 210.006Z" fill="#E06A58"/>
<path d="M382.426 173.318L386.409 163.754C386.409 163.754 397.216 168.831 400.78 175.1C404.593 181.803 409.258 217.439 409.258 217.439C409.258 217.439 390.179 221.835 386.672 219.967C383.164 218.1 382.426 173.318 382.426 173.318Z" fill="#F2AE30"/>
<path d="M352.087 128.928C349.296 127.905 346.342 127.011 343.353 127.238C340.364 127.465 337.311 129.048 336.295 131.675C335.571 133.536 335.905 135.73 334.762 137.405C333.668 139.01 331.496 139.678 329.465 139.812C327.427 139.954 325.375 139.685 323.352 139.947C317.103 140.778 312.644 147.566 314.696 153.126C315.513 155.341 317.188 157.457 316.805 159.764C316.4 162.235 313.809 163.861 312.744 166.155C311.331 169.208 313.021 172.907 315.811 174.987C318.601 177.061 322.23 177.849 325.751 178.374C330.601 179.098 335.607 179.439 340.399 178.417C345.192 177.394 349.772 174.867 352.25 170.919C353.35 169.172 354.018 167.198 355.296 165.558C357.937 162.171 362.616 160.858 366.301 158.458C370.327 155.824 373.281 150.697 370.909 146.686C368.623 142.83 362.673 141.971 360.287 138.172C359.3 136.603 359.066 134.736 358.427 133.025C357.774 131.306 356.212 130.44 352.087 128.928Z" fill="#0A2240"/>
<path d="M368.345 176.223C369.048 177.032 369.879 177.92 371.029 177.998C372.243 178.083 373.259 177.224 374.04 176.393C378.073 172.126 380.735 166.886 381.815 161.482C380.813 160.914 379.848 160.368 378.974 159.856C378.165 159.374 377.554 158.699 377.206 157.911C376.965 157.329 376.88 156.718 376.944 156.079C377.512 150.74 378.016 147.765 379.89 142.347C370.987 140.338 362.587 137.952 357.759 133.919C357.169 136.404 356.474 141.268 354.99 146.089C353.406 151.194 350.935 156.242 346.746 158.415C354.968 163.272 362.303 169.307 368.345 176.223Z" fill="#F9A07B"/>
<path d="M376.942 156.086C376.879 156.725 376.964 157.343 377.205 157.918C371.937 164.308 360.157 155.958 354.988 146.096C356.472 141.275 357.168 136.411 357.757 133.926C362.579 137.959 370.985 140.352 379.889 142.354C378.015 147.771 377.51 150.739 376.942 156.086Z" fill="#E06A58"/>
<path d="M391.613 233.338C390.449 241.049 398.77 249.349 398.976 253.467C381.303 253.467 344.282 254.546 325.431 251.983C324.572 247.226 333.88 236.526 333.88 225.96C333.88 224.562 333.824 223.028 333.71 221.381C333.412 216.666 332.716 211.057 331.942 205.306C329.84 189.877 327.043 173.375 329.109 169.953C333.156 163.286 342.621 158.756 347.314 156.81C348.926 156.143 349.977 155.781 350.055 155.738C355.941 165.778 367.919 174.341 372.442 173.958C373.699 173.858 377.427 172.559 379.89 160.155C380.849 160.701 381.808 161.206 382.759 161.695C387.438 164.131 391.826 166.14 393.09 169.271C396.427 177.515 399.7 198.298 398.976 205.689C398.245 213.144 395.248 218.839 393.147 226.323C392.657 228.076 392.21 229.937 391.847 231.939C391.755 232.386 391.684 232.855 391.613 233.338Z" fill="#FFC73C"/>
<path d="M398.976 253.468C381.303 253.468 344.282 254.547 325.431 251.984C324.572 247.226 333.88 236.526 333.88 225.961C333.88 224.562 333.824 223.028 333.71 221.381C333.412 216.667 332.716 211.057 331.942 205.306C335.286 208.835 340.164 193.924 342.323 198.291C354.003 221.864 363.212 228.063 379.216 228.063C383.987 228.063 388.39 227.402 393.147 226.323C392.657 228.077 392.21 229.937 391.847 231.939C391.762 232.394 391.684 232.862 391.613 233.345C390.449 241.042 398.77 249.342 398.976 253.468Z" fill="#FFBB33"/>
<path d="M382.757 161.695C381.998 167.212 379.747 174.646 373.2 176.606C364.353 179.255 351.551 162.725 347.312 156.81C348.924 156.143 349.975 155.781 350.053 155.738C355.939 165.778 367.918 174.341 372.441 173.958C373.697 173.858 377.425 172.559 379.889 160.155C380.847 160.694 381.806 161.198 382.757 161.695Z" fill="#FCE172"/>
<path d="M386.396 245.166L386.332 251.322L496.387 251.976L496.614 244.996L386.396 245.166Z" fill="#FF9051"/>
<path d="M544.086 190.246L541.637 187.761L461.474 187.235L421.258 245.394L423.36 247.084L544.086 190.246Z" fill="#FFAE80"/>
<path d="M463.022 189.387L423.359 247.084L499.12 247.46L544.086 190.246L463.022 189.387Z" fill="#FF7D35"/>
<path d="M482.166 226.216C487.037 226.216 490.985 224.242 490.985 221.807C490.985 219.372 487.037 217.397 482.166 217.397C477.296 217.397 473.348 219.372 473.348 221.807C473.348 224.242 477.296 226.216 482.166 226.216Z" fill="#FF6007"/>
<path d="M404.041 135.41C405.29 128.706 402.718 122.603 398.296 121.779C393.874 120.955 389.277 125.722 388.028 132.426C386.778 139.13 389.35 145.232 393.772 146.056C398.194 146.88 402.791 142.114 404.041 135.41Z" fill="#FF7D35"/>
<path d="M404.047 114.372C403.223 120.208 400.617 126.641 396.819 133.748C395.484 127.926 394.632 120.833 393.453 113.74C392.253 106.632 390.727 99.5247 388.078 93.7167C387.482 92.4315 386.836 91.2032 386.133 90.0671C387.702 89.918 389.292 90.0671 390.805 90.486C393.169 91.118 395.385 92.3392 397.195 93.9723C400.206 96.6491 402.222 100.299 403.422 104.147C404.409 107.342 404.587 110.736 404.047 114.372Z" fill="#0B2D50"/>
<path d="M399.587 120.407C399.544 121.557 399.466 122.729 399.36 123.893C397.741 142.78 389.81 155.738 377.675 155.738C360.542 155.738 349.438 136.525 349.438 117.702C349.438 99.1343 360.812 85.6933 374.125 87.2483C381.801 88.1288 387.41 90.6778 391.393 94.4125C394.028 96.8976 395.93 99.9011 397.23 103.316C398.714 107.143 399.431 111.475 399.58 116.14C399.58 116.154 399.594 116.168 399.594 116.182C399.651 117.56 399.637 118.965 399.587 120.407Z" fill="#F9A07B"/>
<path d="M399.589 120.407C399.078 118.582 398.318 116.8 397.281 115.202C387.178 120.485 375.135 122.523 363.718 120.591C361.545 122.402 359.422 124.184 357.285 125.966C357.328 117.375 357.448 111.56 360.8 107.399C363.945 103.494 369.192 102.024 374.163 101.385C379.758 100.654 385.445 100.682 391.026 101.492C393.163 101.79 395.378 102.251 397.239 103.331C398.723 107.158 399.44 111.489 399.589 116.154C399.589 116.168 399.603 116.182 399.603 116.196C399.653 117.56 399.639 118.965 399.589 120.407Z" fill="#E06A58"/>
<path d="M402.059 108.776C399.709 110.764 396.762 112.412 393.453 113.747C384.038 117.545 371.804 118.802 362.269 118.34C357.582 128.636 355.687 132.328 354.487 141.31C349.907 137.014 346.179 129.147 345.072 122.963C343.978 116.8 344.085 110.331 345.803 104.275C348.508 94.7248 355.332 89.6125 360.06 87.1274C361.239 86.4813 362.304 86.034 363.128 85.7074C369.17 83.3714 375.979 83.5844 382.178 85.4802C385.558 86.531 388.405 88.3061 390.798 90.493C395.633 94.8597 398.622 100.774 400.554 105.205C401.164 106.561 401.654 107.789 402.059 108.776Z" fill="#0B2D50"/>
<path d="M404.047 114.372C403.656 112.305 403.074 110.303 402.25 108.372C401.789 107.278 401.221 106.22 400.56 105.198C398.409 101.818 395.278 99.0349 391.493 97.8066C390.414 96.2942 389.278 94.9309 388.085 93.7239C383.789 89.3572 378.748 86.8579 373.409 85.9845C368.964 85.2674 364.342 85.6721 360.074 87.1206C361.253 86.4745 362.318 86.0271 363.142 85.7005C369.184 83.3645 375.993 83.5775 382.192 85.4733C385.571 86.5242 388.419 88.2992 390.812 90.4861C393.176 91.1181 395.391 92.3393 397.202 93.9724C400.212 96.6492 402.229 100.299 403.429 104.147C404.409 107.342 404.586 110.736 404.047 114.372Z" fill="#225570"/>
<path d="M367.73 125.952C370.897 124.142 374.185 123.325 378.793 125.008" stroke="#0B2D50" stroke-width="2" stroke-miterlimit="10" stroke-linecap="round"/>
<path d="M389.414 125.824C392.126 123.801 396.145 123.595 398.24 125.824" stroke="#0B2D50" stroke-width="2" stroke-miterlimit="10" stroke-linecap="round"/>
<path d="M386.14 136.148C386.417 137.583 386.268 140.757 385.586 142.184" stroke="#CC454E" stroke-width="2" stroke-miterlimit="10" stroke-linecap="round"/>
<path d="M375.443 137.114C376.165 137.114 376.75 136.192 376.75 135.055C376.75 133.918 376.165 132.996 375.443 132.996C374.722 132.996 374.137 133.918 374.137 135.055C374.137 136.192 374.722 137.114 375.443 137.114Z" fill="#262D40"/>
<path d="M392.517 136.155C393.239 136.155 393.824 135.233 393.824 134.096C393.824 132.959 393.239 132.037 392.517 132.037C391.796 132.037 391.211 132.959 391.211 134.096C391.211 135.233 391.796 136.155 392.517 136.155Z" fill="#262D40"/>
<path d="M384.522 144.988C384.522 144.988 384.266 145.485 383.776 146.16C383.01 147.189 381.703 148.609 379.921 149.163H379.914C379.161 149.404 378.345 149.49 377.436 149.326C374.766 148.851 374.063 146.387 373.935 144.491C373.907 144.122 373.907 143.781 373.914 143.468C373.928 142.702 374.014 142.19 374.014 142.19C378.267 144.534 384.522 144.988 384.522 144.988Z" fill="#CC454E"/>
<path d="M384.522 144.988C384.522 144.988 384.266 145.485 383.776 146.16C381.604 146.131 377.159 145.016 373.914 143.468C373.928 142.702 374.013 142.19 374.013 142.19C378.267 144.534 384.522 144.988 384.522 144.988Z" fill="white"/>
<path d="M379.912 149.155C379.159 149.397 378.343 149.482 377.434 149.319C374.764 148.843 374.061 146.379 373.934 144.483C375.226 144.64 376.476 145.137 377.512 145.925C378.599 146.755 379.429 147.884 379.912 149.155Z" fill="#E8729B"/>
<path d="M354.53 122.694C354.53 122.694 354.381 113.839 358.066 105.042C362.689 94.0012 372.111 89.2795 381.249 88.96C392.262 88.5695 399.156 95.9609 399.156 95.9609C399.156 95.9609 395.57 89.6345 388.498 87.8168C383.855 86.624 376.847 86.4323 371.223 88.7186C365.429 91.0688 358.208 97.594 355.596 104.488C352.99 111.383 351.719 122.118 351.719 122.118L354.53 122.694Z" fill="#CF4D05"/>
<path d="M354.341 145.741C359.056 145.251 362.277 139.061 361.534 131.916C360.791 124.772 356.367 119.377 351.651 119.867C346.936 120.357 343.715 126.547 344.458 133.692C345.201 140.837 349.626 146.231 354.341 145.741Z" fill="#FF7D35"/>
<path d="M352.176 143.451C355.22 142.993 357.036 138.281 356.231 132.926C355.426 127.571 352.306 123.6 349.262 124.057C346.218 124.515 344.402 129.227 345.207 134.582C346.012 139.938 349.132 143.908 352.176 143.451Z" fill="#FFAD7F"/>
<path d="M381.323 156.001C383.848 156.001 385.895 154.726 385.895 153.154C385.895 151.581 383.848 150.307 381.323 150.307C378.797 150.307 376.75 151.581 376.75 153.154C376.75 154.726 378.797 156.001 381.323 156.001Z" fill="#CF4D05"/>
<path d="M358.352 143.633C358.352 143.633 365.068 152.267 376.748 153.154" stroke="#CF4D05" stroke-width="2" stroke-miterlimit="10" stroke-linecap="round"/>
<path d="M386.332 228.729L385.892 240.082C385.892 240.082 344.831 252.387 338.05 248.496C334.741 246.593 331.652 236.127 329.345 225.91C326.931 215.174 325.383 204.722 325.383 204.722L349.453 200.008C349.453 200.008 349.467 214.684 350.284 223.169C350.575 226.329 350.994 228.629 351.555 229.006C353.678 230.404 386.332 228.729 386.332 228.729Z" fill="#F9A07B"/>
<path d="M350.284 223.155C345.91 224.575 337.468 226.769 329.345 225.903C326.931 215.167 325.383 204.716 325.383 204.716L349.453 200.001C349.453 199.994 349.467 214.67 350.284 223.155Z" fill="#E06A58"/>
<path d="M385.16 228.843C391.267 227.536 401.605 224.398 405.893 223.319C408.939 222.552 416.87 226.656 418.965 230.526C419.881 232.215 420.747 241.787 417.573 240.8C415.983 240.303 416.245 236.199 415.748 234.523C415.344 233.16 414.051 231.839 412.085 230.703C413.398 233.976 413.349 236.831 413.207 240.367C413.178 241.148 413.128 241.964 412.752 242.639C412.369 243.313 411.545 243.796 410.835 243.498C410.111 243.2 409.862 242.298 409.699 241.51C409.138 238.783 408.57 236.057 408.343 232.975C408.4 236.007 408.336 239.046 408.144 242.071C408.002 244.385 406.852 245.656 405.439 245.252C404.807 245.074 404.551 244.492 404.281 243.725C403.855 245.209 402.79 246.849 401.413 246.224C400.575 245.848 400.057 242.823 400.206 239.713C397.565 241.354 394.582 242.049 391.146 242.206C388.064 242.348 384.912 241.773 383.059 239.678C383.243 236.405 384.322 231.562 385.16 228.843Z" fill="#F9A07B"/>
<path d="M404.347 243.256C404.553 240.799 404.34 238.307 403.715 235.936" stroke="#CC454E" stroke-miterlimit="10" stroke-linecap="round"/>
<path d="M346.747 176.194C345.001 171.273 338.603 161.205 338.603 161.205C338.603 161.205 328.84 165.266 325.375 172.161C319.51 183.834 322.492 217.347 322.492 217.347C330.395 220.656 346.257 220.706 353.01 219.754C353.01 219.754 350.248 186.028 346.747 176.194Z" fill="#FFC73C"/>
<path d="M347.988 178.253C350.651 190.998 352.078 202.884 352.532 214.528" stroke="#F2AE30" stroke-miterlimit="10" stroke-linecap="round"/>
</g>
<defs>
<filter id="filter0_f_281_50121" x="-86" y="-18" width="204" height="204" filterUnits="userSpaceOnUse" color-interpolation-filters="sRGB">
<feFlood flood-opacity="0" result="BackgroundImageFix"/>
<feBlend mode="normal" in="SourceGraphic" in2="BackgroundImageFix" result="shape"/>
<feGaussianBlur stdDeviation="20" result="effect1_foregroundBlur_281_50121"/>
</filter>
<filter id="filter1_f_281_50121" x="291" y="85" width="164" height="299" filterUnits="userSpaceOnUse" color-interpolation-filters="sRGB">
<feFlood flood-opacity="0" result="BackgroundImageFix"/>
<feBlend mode="normal" in="SourceGraphic" in2="BackgroundImageFix" result="shape"/>
<feGaussianBlur stdDeviation="10" result="effect1_foregroundBlur_281_50121"/>
</filter>
<linearGradient id="paint0_linear_281_50121" x1="-7.30366e-06" y1="65.9341" x2="417.276" y2="681.261" gradientUnits="userSpaceOnUse">
<stop stop-color="#FFA2A2"/>
<stop offset="0.31119" stop-color="#FF4651"/>
<stop offset="0.637217" stop-color="#FF1A27"/>
<stop offset="1" stop-color="#FF6A73"/>
</linearGradient>
<linearGradient id="paint1_linear_281_50121" x1="-31.8932" y1="-12.7573" x2="191.738" y2="248.039" gradientUnits="userSpaceOnUse">
<stop stop-color="white" stop-opacity="0.3"/>
<stop offset="1" stop-color="white" stop-opacity="0"/>
</linearGradient>
<linearGradient id="paint2_linear_281_50121" x1="344" y1="46.5" x2="518.5" y2="250" gradientUnits="userSpaceOnUse">
<stop stop-color="#FF9696" stop-opacity="0.5"/>
<stop offset="1" stop-color="#FF9D9D" stop-opacity="0"/>
</linearGradient>
<clipPath id="clip0_281_50121">
<rect width="813" height="264" fill="white"/>
</clipPath>
</defs>
</svg>
