<svg width="24" height="24" viewBox="0 0 24 24" fill="none" xmlns="http://www.w3.org/2000/svg">
<g clip-path="url(#clip0_855_64282)">
<path d="M18.75 8.99919C19.1478 8.99919 19.5294 9.15723 19.8107 9.43853C20.092 9.71984 20.25 10.1014 20.25 10.4992V13.4992C20.25 13.897 20.092 14.2785 19.8107 14.5599C19.5294 14.8412 19.1478 14.9992 18.75 14.9992H17.9535C17.7707 16.4492 17.0649 17.7826 15.9688 18.7492C14.8727 19.7158 13.4615 20.2492 12 20.2492V18.7492C13.1935 18.7492 14.3381 18.2751 15.182 17.4312C16.0259 16.5873 16.5 15.4427 16.5 14.2492V9.74919C16.5 8.55572 16.0259 7.41113 15.182 6.56721C14.3381 5.7233 13.1935 5.24919 12 5.24919C10.8065 5.24919 9.66193 5.7233 8.81802 6.56721C7.97411 7.41113 7.5 8.55572 7.5 9.74919V14.9992H5.25C4.85218 14.9992 4.47064 14.8412 4.18934 14.5599C3.90804 14.2785 3.75 13.897 3.75 13.4992V10.4992C3.75 10.1014 3.90804 9.71984 4.18934 9.43853C4.47064 9.15723 4.85218 8.99919 5.25 8.99919H6.0465C6.22952 7.54936 6.93531 6.21615 8.03143 5.2497C9.12755 4.28325 10.5387 3.75 12 3.75C13.4613 3.75 14.8724 4.28325 15.9686 5.2497C17.0647 6.21615 17.7705 7.54936 17.9535 8.99919H18.75ZM8.82 14.8379L9.615 13.5659C10.3298 14.0137 11.1565 14.2506 12 14.2492C12.8435 14.2506 13.6702 14.0137 14.385 13.5659L15.18 14.8379C14.2269 15.4351 13.1247 15.7509 12 15.7492C10.8753 15.7509 9.77306 15.4351 8.82 14.8379Z" fill="#ED1C24"/>
</g>
<defs>
<clipPath id="clip0_855_64282">
<rect width="18" height="18" fill="white" transform="translate(3 3)"/>
</clipPath>
</defs>
</svg>
