<svg width="20" height="21" viewBox="0 0 20 21" fill="none" xmlns="http://www.w3.org/2000/svg">
<g clip-path="url(#clip0_377_76797)">
<path d="M6.66721 10.5C6.66721 8.65913 8.15913 7.1664 10 7.1664C11.8409 7.1664 13.3336 8.65913 13.3336 10.5C13.3336 12.3409 11.8409 13.8336 10 13.8336C8.15913 13.8336 6.66721 12.3409 6.66721 10.5ZM4.8651 10.5C4.8651 13.336 7.16397 15.6349 10 15.6349C12.836 15.6349 15.1349 13.336 15.1349 10.5C15.1349 7.66397 12.836 5.3651 10 5.3651C7.16397 5.3651 4.8651 7.66397 4.8651 10.5ZM14.1381 5.16155C14.1381 5.82391 14.6753 6.36187 15.3384 6.36187C16.0008 6.36187 16.5388 5.82391 16.5388 5.16155C16.5388 4.49919 16.0016 3.96204 15.3384 3.96204C14.6753 3.96204 14.1381 4.49919 14.1381 5.16155ZM5.95961 18.6397C4.98465 18.5953 4.45477 18.433 4.10258 18.2956C3.6357 18.1139 3.30291 17.8974 2.95234 17.5477C2.60258 17.1979 2.3853 16.8651 2.20436 16.3982C2.06704 16.046 1.90468 15.5162 1.86026 14.5412C1.81179 13.4871 1.8021 13.1704 1.8021 10.5C1.8021 7.82956 1.8126 7.51373 1.86026 6.4588C1.90468 5.48384 2.06785 4.95477 2.20436 4.60178C2.38611 4.13489 2.60258 3.8021 2.95234 3.45153C3.3021 3.10178 3.63489 2.88449 4.10258 2.70355C4.45477 2.56624 4.98465 2.40388 5.95961 2.35945C7.01373 2.31099 7.33037 2.30129 10 2.30129C12.6704 2.30129 12.9863 2.31179 14.0412 2.35945C15.0162 2.40388 15.5452 2.56704 15.8982 2.70355C16.3651 2.88449 16.6979 3.10178 17.0485 3.45153C17.3982 3.80129 17.6147 4.13489 17.7964 4.60178C17.9338 4.95396 18.0961 5.48384 18.1405 6.4588C18.189 7.51373 18.1987 7.82956 18.1987 10.5C18.1987 13.1696 18.189 13.4863 18.1405 14.5412C18.0961 15.5162 17.933 16.046 17.7964 16.3982C17.6147 16.8651 17.3982 17.1979 17.0485 17.5477C16.6987 17.8974 16.3651 18.1139 15.8982 18.2956C15.546 18.433 15.0162 18.5953 14.0412 18.6397C12.9871 18.6882 12.6704 18.6979 10 18.6979C7.33037 18.6979 7.01373 18.6882 5.95961 18.6397ZM5.87722 0.560582C4.8126 0.609047 4.08562 0.777868 3.44992 1.02504C2.79241 1.28029 2.23506 1.62278 1.67851 2.17851C1.12278 2.73425 0.780291 3.2916 0.52504 3.94992C0.277868 4.58562 0.109047 5.3126 0.0605816 6.37722C0.0113086 7.44346 0 7.78433 0 10.5C0 13.2157 0.0113086 13.5565 0.0605816 14.6228C0.109047 15.6874 0.277868 16.4144 0.52504 17.0501C0.780291 17.7076 1.12197 18.2658 1.67851 18.8215C2.23425 19.3772 2.7916 19.7189 3.44992 19.975C4.08643 20.2221 4.8126 20.391 5.87722 20.4394C6.94426 20.4879 7.28433 20.5 10 20.5C12.7165 20.5 13.0565 20.4887 14.1228 20.4394C15.1874 20.391 15.9144 20.2221 16.5501 19.975C17.2076 19.7189 17.7649 19.3772 18.3215 18.8215C18.8772 18.2658 19.2189 17.7076 19.475 17.0501C19.7221 16.4144 19.8918 15.6874 19.9394 14.6228C19.9879 13.5557 19.9992 13.2157 19.9992 10.5C19.9992 7.78433 19.9879 7.44346 19.9394 6.37722C19.891 5.3126 19.7221 4.58562 19.475 3.94992C19.2189 3.29241 18.8772 2.73506 18.3215 2.17851C17.7658 1.62278 17.2076 1.28029 16.5509 1.02504C15.9144 0.777868 15.1874 0.608239 14.1236 0.560582C13.0574 0.512116 12.7165 0.5 10.0008 0.5C7.28433 0.5 6.94426 0.511309 5.87722 0.560582Z" fill="#FBFDFF"/>
</g>
<defs>
<clipPath id="clip0_377_76797">
<rect width="20" height="20" fill="white" transform="translate(0 0.5)"/>
</clipPath>
</defs>
</svg>
