<svg width="158" height="45" viewBox="0 0 158 45" fill="none" xmlns="http://www.w3.org/2000/svg">
<path d="M151.24 44.0176H5.8169C2.61906 44.0176 0 41.5771 0 38.5972V6.07523C0 3.0954 2.61906 0.654894 5.8169 0.654894H151.24C154.437 0.654894 157.056 3.0954 157.056 6.07523V38.5972C157.056 41.5771 154.437 44.0176 151.24 44.0176Z" fill="black"/>
<path d="M151.24 1.5235C153.933 1.5235 156.124 3.56561 156.124 6.07523V38.5972C156.124 41.1069 153.933 43.149 151.24 43.149H5.8169C3.12368 43.149 0.932159 41.1069 0.932159 38.5972V6.07523C0.932159 3.56561 3.12368 1.5235 5.8169 1.5235H151.24ZM151.24 0.654894H5.8169C2.61906 0.654894 0 3.0954 0 6.07523V38.5972C0 41.5771 2.61906 44.0176 5.8169 44.0176H151.24C154.437 44.0176 157.056 41.5771 157.056 38.5972V6.07523C157.056 3.0954 154.437 0.654894 151.24 0.654894Z" fill="#A6A6A6"/>
<path d="M12.1401 8.82562C11.7984 9.15897 11.6006 9.67796 11.6006 10.3501V34.3242C11.6006 34.9964 11.7984 35.5153 12.1401 35.8487L12.2244 35.9219L26.6416 22.493V22.1759L12.2244 8.74702L12.1401 8.82562Z" fill="url(#paint0_linear_855_64197)"/>
<path d="M31.442 26.9727L26.6416 22.4941V22.177L31.4478 17.6985L31.5554 17.7567L37.2473 20.7745C38.8716 21.6309 38.8716 23.0402 37.2473 23.902L31.5554 26.9144L31.442 26.9727Z" fill="url(#paint1_linear_855_64197)"/>
<path d="M31.5555 26.9142L26.6417 22.3354L12.1401 35.8497C12.6797 36.3781 13.5595 36.4418 14.56 35.9133L31.5555 26.9142Z" fill="url(#paint2_linear_855_64197)"/>
<path d="M31.5555 17.7571L14.56 8.758C13.5595 8.23494 12.6797 8.29863 12.1401 8.82711L26.6417 22.3359L31.5555 17.7571Z" fill="url(#paint3_linear_855_64197)"/>
<path d="M55.1648 11.7604C55.1648 12.6656 54.8739 13.3906 54.301 13.9313C53.6422 14.5722 52.7842 14.8948 51.7328 14.8948C50.7279 14.8948 49.87 14.5668 49.1661 13.9205C48.4608 13.2646 48.1089 12.4597 48.1089 11.4962C48.1089 10.5327 48.4608 9.72782 49.1661 9.07738C49.87 8.42559 50.7279 8.09766 51.7328 8.09766C52.2331 8.09766 52.7101 8.19387 53.1652 8.37274C53.6189 8.55296 53.9883 8.79688 54.2559 9.09771L53.648 9.66955C53.1812 9.15598 52.5457 8.90258 51.7328 8.90258C50.9999 8.90258 50.3644 9.14107 49.8249 9.62213C49.2912 10.1045 49.0236 10.7292 49.0236 11.4962C49.0236 12.2632 49.2912 12.8933 49.8249 13.3757C50.3644 13.8513 50.9999 14.0953 51.7328 14.0953C52.5108 14.0953 53.1652 13.8513 53.6815 13.3703C54.0218 13.0518 54.2152 12.6128 54.2661 12.0518H51.7328V11.2686H55.1124C55.1532 11.4379 55.1648 11.6019 55.1648 11.7604Z" fill="white" stroke="white" stroke-width="0.16" stroke-miterlimit="10"/>
<path d="M60.5264 9.04424H57.3518V11.104H60.2138V11.8872H57.3518V13.9469H60.5264V14.7451H56.4531V8.24609H60.5264V9.04424Z" fill="white" stroke="white" stroke-width="0.16" stroke-miterlimit="10"/>
<path d="M64.3103 14.7451H63.4116V9.04424H61.4644V8.24609H66.2589V9.04424H64.3103V14.7451Z" fill="white" stroke="white" stroke-width="0.16" stroke-miterlimit="10"/>
<path d="M69.729 14.7451V8.24609H70.6263V14.7451H69.729Z" fill="white" stroke="white" stroke-width="0.16" stroke-miterlimit="10"/>
<path d="M74.6032 14.7451H73.7118V9.04424H71.7573V8.24609H76.5577V9.04424H74.6032V14.7451Z" fill="white" stroke="white" stroke-width="0.16" stroke-miterlimit="10"/>
<path d="M85.6353 13.9096C84.9474 14.5668 84.0953 14.8948 83.0788 14.8948C82.0564 14.8948 81.2043 14.5668 80.5164 13.9096C79.83 13.2538 79.4883 12.4488 79.4883 11.4962C79.4883 10.5436 79.83 9.73866 80.5164 9.0828C81.2043 8.42559 82.0564 8.09766 83.0788 8.09766C84.0895 8.09766 84.9416 8.42559 85.6295 9.08822C86.3217 9.7495 86.6634 10.549 86.6634 11.4962C86.6634 12.4488 86.3217 13.2538 85.6353 13.9096ZM81.181 13.3649C81.6987 13.8513 82.3284 14.0953 83.0788 14.0953C83.8233 14.0953 84.4588 13.8513 84.9707 13.3649C85.487 12.8784 85.7487 12.2537 85.7487 11.4962C85.7487 10.7387 85.487 10.114 84.9707 9.62755C84.4588 9.14107 83.8233 8.89716 83.0788 8.89716C82.3284 8.89716 81.6987 9.14107 81.181 9.62755C80.6648 10.114 80.403 10.7387 80.403 11.4962C80.403 12.2537 80.6648 12.8784 81.181 13.3649Z" fill="white" stroke="white" stroke-width="0.16" stroke-miterlimit="10"/>
<path d="M87.9243 14.7451V8.24609H89.015L92.4062 13.3006H92.4455L92.4062 12.0512V8.24609H93.3035V14.7451H92.367L88.8158 9.44128H88.7765L88.8158 10.6961V14.7451H87.9243Z" fill="white" stroke="white" stroke-width="0.16" stroke-miterlimit="10"/>
<path d="M79.2669 24.2365C76.5344 24.2365 74.3022 26.1743 74.3022 28.8479C74.3022 31.4998 76.5344 33.4579 79.2669 33.4579C82.0052 33.4579 84.2375 31.4998 84.2375 28.8479C84.2375 26.1743 82.0052 24.2365 79.2669 24.2365ZM79.2669 31.6421C77.7676 31.6421 76.4777 30.4889 76.4777 28.8479C76.4777 27.1852 77.7676 26.0523 79.2669 26.0523C80.7662 26.0523 82.0619 27.1852 82.0619 28.8479C82.0619 30.4889 80.7662 31.6421 79.2669 31.6421ZM68.4344 24.2365C65.6961 24.2365 63.4697 26.1743 63.4697 28.8479C63.4697 31.4998 65.6961 33.4579 68.4344 33.4579C71.1712 33.4579 73.3991 31.4998 73.3991 28.8479C73.3991 26.1743 71.1712 24.2365 68.4344 24.2365ZM68.4344 31.6421C66.9336 31.6421 65.6394 30.4889 65.6394 28.8479C65.6394 27.1852 66.9336 26.0523 68.4344 26.0523C69.9337 26.0523 71.2236 27.1852 71.2236 28.8479C71.2236 30.4889 69.9337 31.6421 68.4344 31.6421ZM55.5441 25.6499V27.6093H60.5656C60.4187 28.7042 60.0261 29.5092 59.424 30.0702C58.6911 30.7477 57.5495 31.4998 55.5441 31.4998C52.4539 31.4998 50.0341 29.1758 50.0341 26.2963C50.0341 23.4167 52.4539 21.0927 55.5441 21.0927C57.215 21.0927 58.4308 21.7012 59.328 22.4898L60.8099 21.109C59.5549 19.9924 57.8854 19.1346 55.5441 19.1346C51.3065 19.1346 47.7451 22.3475 47.7451 26.2963C47.7451 30.245 51.3065 33.4579 55.5441 33.4579C57.8345 33.4579 59.5549 32.7587 60.9073 31.4469C62.2932 30.1555 62.7251 28.3397 62.7251 26.8735C62.7251 26.4182 62.6844 25.9995 62.6117 25.6499H55.5441ZM108.254 27.1689C107.845 26.1377 106.585 24.2365 104.016 24.2365C101.471 24.2365 99.3527 26.1052 99.3527 28.8479C99.3527 31.4307 101.45 33.4579 104.261 33.4579C106.534 33.4579 107.845 32.1665 108.385 31.4144L106.698 30.3669C106.135 31.1339 105.369 31.6421 104.261 31.6421C103.16 31.6421 102.37 31.1719 101.864 30.245L108.482 27.6933L108.254 27.1689ZM101.506 28.7042C101.45 26.9264 102.988 26.0158 104.091 26.0158C104.954 26.0158 105.687 26.4182 105.932 26.9941L101.506 28.7042ZM96.1272 33.1774H98.3027V19.6265H96.1272V33.1774ZM92.5644 25.2637H92.4916C92.003 24.7244 91.0709 24.2365 89.89 24.2365C87.412 24.2365 85.1464 26.2637 85.1464 28.8628C85.1464 31.4469 87.412 33.4579 89.89 33.4579C91.0709 33.4579 92.003 32.966 92.4916 32.4104H92.5644V33.0717C92.5644 34.8346 91.5537 35.7818 89.9235 35.7818C88.5943 35.7818 87.7698 34.8875 87.4295 34.1354L85.5375 34.8712C86.0829 36.0935 87.5269 37.5977 89.9235 37.5977C92.4742 37.5977 94.6264 36.1992 94.6264 32.7966V24.517H92.5644V25.2637ZM90.0762 31.6421C88.5769 31.6421 87.3219 30.4726 87.3219 28.8628C87.3219 27.238 88.5769 26.0523 90.0762 26.0523C91.5537 26.0523 92.7185 27.238 92.7185 28.8628C92.7185 30.4726 91.5537 31.6421 90.0762 31.6421ZM118.439 19.6265H113.236V33.1774H115.406V28.043H118.439C120.849 28.043 123.212 26.4182 123.212 23.8341C123.212 21.2513 120.843 19.6265 118.439 19.6265ZM118.496 26.158H115.406V21.5115H118.496C120.116 21.5115 121.041 22.7649 121.041 23.8341C121.041 24.8829 120.116 26.158 118.496 26.158ZM131.908 24.2108C130.341 24.2108 128.711 24.8558 128.04 26.2854L129.966 27.0375C130.38 26.2854 131.142 26.0415 131.948 26.0415C133.073 26.0415 134.215 26.6716 134.232 27.7841V27.9264C133.84 27.715 132.999 27.402 131.965 27.402C129.891 27.402 127.778 28.4657 127.778 30.4509C127.778 32.2668 129.477 33.4362 131.386 33.4362C132.846 33.4362 133.652 32.8223 134.158 32.1082H134.232V33.1557H136.328V27.9576C136.328 25.555 134.402 24.2108 131.908 24.2108ZM131.647 31.6366C130.937 31.6366 129.948 31.3087 129.948 30.4889C129.948 29.4401 131.181 29.0376 132.249 29.0376C133.204 29.0376 133.652 29.2341 134.232 29.4929C134.062 30.7477 132.903 31.6366 131.647 31.6366ZM143.963 24.5075L141.469 30.3818H141.394L138.816 24.5075H136.476L140.35 32.7166L138.14 37.2846H140.407L146.377 24.5075H143.963ZM124.405 33.1774H126.58V19.6265H124.405V33.1774Z" fill="white"/>
<defs>
<linearGradient id="paint0_linear_855_64197" x1="25.3616" y1="34.5739" x2="7.21358" y2="15.0981" gradientUnits="userSpaceOnUse">
<stop stop-color="#00A0FF"/>
<stop offset="0.0066" stop-color="#00A1FF"/>
<stop offset="0.2601" stop-color="#00BEFF"/>
<stop offset="0.5122" stop-color="#00D2FF"/>
<stop offset="0.7604" stop-color="#00DFFF"/>
<stop offset="1" stop-color="#00E3FF"/>
</linearGradient>
<linearGradient id="paint1_linear_855_64197" x1="39.3625" y1="22.334" x2="11.2123" y2="22.334" gradientUnits="userSpaceOnUse">
<stop stop-color="#FFE000"/>
<stop offset="0.4087" stop-color="#FFBD00"/>
<stop offset="0.7754" stop-color="#FFA500"/>
<stop offset="1" stop-color="#FF9C00"/>
</linearGradient>
<linearGradient id="paint2_linear_855_64197" x1="28.8835" y1="19.8463" x2="4.27337" y2="-6.56442" gradientUnits="userSpaceOnUse">
<stop stop-color="#FF3A44"/>
<stop offset="1" stop-color="#C31162"/>
</linearGradient>
<linearGradient id="paint3_linear_855_64197" x1="8.4898" y1="43.8263" x2="19.4793" y2="32.0328" gradientUnits="userSpaceOnUse">
<stop stop-color="#32A071"/>
<stop offset="0.0685" stop-color="#2DA771"/>
<stop offset="0.4762" stop-color="#15CF74"/>
<stop offset="0.8009" stop-color="#06E775"/>
<stop offset="1" stop-color="#00F076"/>
</linearGradient>
</defs>
</svg>
