<svg width="158" height="44" viewBox="0 0 158 44" fill="none" xmlns="http://www.w3.org/2000/svg">
<path d="M156.184 38.362C156.184 40.6729 154.185 42.5447 151.712 42.5447H5.35079C2.87895 42.5447 0.872559 40.6729 0.872559 38.362V5.0065C0.872559 2.69674 2.87895 0.818359 5.35079 0.818359H151.71C154.185 0.818359 156.183 2.69674 156.183 5.0065L156.184 38.362Z" fill="black"/>
<path d="M151.24 0.869209C153.933 0.869209 156.124 2.91132 156.124 5.42094V37.9429C156.124 40.4526 153.933 42.4947 151.24 42.4947H5.81691C3.12368 42.4947 0.932159 40.4526 0.932159 37.9429V5.42094C0.932159 2.91132 3.12368 0.869209 5.81691 0.869209H151.24ZM151.24 0.000602722H5.81691C2.61906 0.000602722 0 2.44111 0 5.42094V37.9429C0 40.9228 2.61906 43.3633 5.81691 43.3633H151.24C154.437 43.3633 157.056 40.9228 157.056 37.9429V5.42094C157.056 2.44111 154.437 0.000602722 151.24 0.000602722Z" fill="#A6A6A6"/>
<path d="M35.0503 21.4478C35.0166 17.9538 38.1205 16.254 38.2624 16.1749C36.5046 13.7867 33.7799 13.4604 32.8224 13.4343C30.5341 13.2099 28.3143 14.7103 27.1486 14.7103C25.9597 14.7103 24.1646 13.456 22.2299 13.4929C19.7402 13.5287 17.4111 14.8718 16.1337 16.9576C13.4975 21.2104 15.4636 27.46 17.9893 30.8976C19.2528 32.5811 20.7291 34.4609 22.6615 34.3948C24.552 34.3221 25.2581 33.2717 27.5395 33.2717C29.8 33.2717 30.4631 34.3948 32.4339 34.3525C34.4628 34.3221 35.7402 32.6614 36.9594 30.9626C38.4195 29.033 39.0058 27.1326 39.0291 27.0351C38.9814 27.0199 35.0887 25.6355 35.0503 21.4478Z" fill="white"/>
<path d="M31.3275 11.173C32.3443 9.9881 33.04 8.37609 32.8469 6.74023C31.3752 6.80094 29.5347 7.68879 28.4749 8.84766C27.5372 9.86885 26.6996 11.5427 26.916 13.1167C28.5691 13.2316 30.2665 12.3394 31.3275 11.173Z" fill="white"/>
<path d="M57.064 10.8508C57.064 12.1267 56.6534 13.0872 55.8332 13.7322C55.0735 14.3274 53.9939 14.6255 52.5955 14.6255C51.9021 14.6255 51.3088 14.5973 50.812 14.5409V7.56931C51.46 7.47174 52.158 7.42188 52.9119 7.42188C54.244 7.42188 55.248 7.69181 55.9251 8.23167C56.6836 8.842 57.064 9.71468 57.064 10.8508ZM55.7785 10.8822C55.7785 10.0551 55.5435 9.42089 55.0735 8.97859C54.6035 8.53738 53.9171 8.31623 53.0131 8.31623C52.6292 8.31623 52.3023 8.34008 52.0312 8.38995V13.69C52.1813 13.7116 52.4559 13.7214 52.8549 13.7214C53.7879 13.7214 54.5081 13.4796 55.0153 12.9961C55.5225 12.5127 55.7785 11.808 55.7785 10.8822Z" fill="white"/>
<path d="M63.8801 11.9646C63.8801 12.7505 63.6393 13.3945 63.1577 13.8997C62.6528 14.4189 61.9838 14.678 61.1485 14.678C60.3434 14.678 59.7024 14.4298 59.2243 13.9311C58.7473 13.4335 58.5088 12.8058 58.5088 12.0492C58.5088 11.2578 58.7543 10.6084 59.2475 10.1043C59.7408 9.60024 60.4039 9.34766 61.2392 9.34766C62.0443 9.34766 62.6911 9.59591 63.1809 10.0935C63.6463 10.577 63.8801 11.2014 63.8801 11.9646ZM62.6155 12.0015C62.6155 11.5299 62.5062 11.1255 62.2886 10.7884C62.0327 10.3808 61.6685 10.177 61.195 10.177C60.7053 10.177 60.333 10.3808 60.077 10.7884C59.8583 11.1255 59.7501 11.5364 59.7501 12.022C59.7501 12.4936 59.8595 12.898 60.077 13.2351C60.3411 13.6427 60.7087 13.8465 61.1834 13.8465C61.6488 13.8465 62.0141 13.6395 62.277 13.2243C62.5027 12.8806 62.6155 12.473 62.6155 12.0015Z" fill="white"/>
<path d="M73.0196 9.45312L71.3036 14.5634H70.1868L69.476 12.3443C69.2956 11.7904 69.1491 11.2397 69.035 10.6933H69.0129C68.9071 11.2548 68.7605 11.8045 68.572 12.3443L67.817 14.5634H66.6873L65.0737 9.45312H66.3267L66.9468 11.8825C67.0968 12.4571 67.2202 13.0045 67.3191 13.5227H67.3412C67.4319 13.0956 67.582 12.5514 67.7937 11.8934L68.572 9.45421H69.5655L70.3113 11.8413C70.4916 12.4235 70.6382 12.9839 70.751 13.5238H70.7848C70.8674 12.998 70.9919 12.4376 71.1571 11.8413L71.8225 9.45421H73.0196V9.45312Z" fill="white"/>
<path d="M79.3403 14.5633H78.1211V11.6363C78.1211 10.7344 77.7534 10.2834 77.0158 10.2834C76.654 10.2834 76.362 10.407 76.1352 10.6553C75.9106 10.9035 75.7966 11.1962 75.7966 11.5312V14.5622H74.5774V10.9133C74.5774 10.4645 74.5623 9.97771 74.5332 9.45086H75.6047L75.6617 10.2498H75.6954C75.8374 10.0016 76.0491 9.79668 76.3271 9.63298C76.6575 9.44219 77.0275 9.3457 77.4323 9.3457C77.9442 9.3457 78.37 9.49964 78.7086 9.8086C79.1297 10.1869 79.3403 10.7517 79.3403 11.5019V14.5633Z" fill="white"/>
<path d="M82.7024 14.5626H81.4844V7.10742H82.7024V14.5626Z" fill="white"/>
<path d="M89.8806 11.9646C89.8806 12.7505 89.6398 13.3945 89.1581 13.8997C88.6532 14.4189 87.9831 14.678 87.149 14.678C86.3428 14.678 85.7017 14.4298 85.2248 13.9311C84.7478 13.4335 84.5093 12.8058 84.5093 12.0492C84.5093 11.2578 84.7548 10.6084 85.248 10.1043C85.7413 9.60024 86.4044 9.34766 87.2386 9.34766C88.0448 9.34766 88.6905 9.59591 89.1814 10.0935C89.6468 10.577 89.8806 11.2014 89.8806 11.9646ZM88.6148 12.0015C88.6148 11.5299 88.5055 11.1255 88.2879 10.7884C88.0332 10.3808 87.6679 10.177 87.1955 10.177C86.7046 10.177 86.3323 10.3808 86.0775 10.7884C85.8588 11.1255 85.7506 11.5364 85.7506 12.022C85.7506 12.4936 85.86 12.898 86.0775 13.2351C86.3416 13.6427 86.7092 13.8465 87.1839 13.8465C87.6492 13.8465 88.0134 13.6395 88.2763 13.2243C88.5032 12.8806 88.6148 12.473 88.6148 12.0015Z" fill="white"/>
<path d="M95.7816 14.562H94.6868L94.5961 13.9734H94.5624C94.1877 14.4428 93.6538 14.678 92.9604 14.678C92.4427 14.678 92.0239 14.523 91.7086 14.2151C91.4224 13.9354 91.2793 13.5874 91.2793 13.1744C91.2793 12.55 91.5585 12.0741 92.1204 11.7445C92.6812 11.415 93.4699 11.2534 94.4856 11.261V11.1656C94.4856 10.4924 94.1063 10.1564 93.3466 10.1564C92.8057 10.1564 92.3287 10.2832 91.9168 10.5347L91.669 9.78887C92.1786 9.49509 92.808 9.34766 93.5502 9.34766C94.9835 9.34766 95.7025 10.0523 95.7025 11.4616V13.3435C95.7025 13.8541 95.7292 14.2606 95.7816 14.562ZM94.5158 12.8058V12.0177C93.1709 11.996 92.4985 12.3397 92.4985 13.0476C92.4985 13.3143 92.5753 13.5137 92.7324 13.6471C92.8894 13.7804 93.0895 13.8465 93.328 13.8465C93.5956 13.8465 93.8457 13.7674 94.0737 13.6102C94.3029 13.4519 94.4437 13.2514 94.496 13.0053C94.5088 12.95 94.5158 12.8828 94.5158 12.8058Z" fill="white"/>
<path d="M102.709 14.5626H101.627L101.57 13.7419H101.537C101.191 14.3663 100.602 14.6785 99.7753 14.6785C99.1145 14.6785 98.5642 14.4368 98.1279 13.9533C97.6917 13.4698 97.4741 12.8421 97.4741 12.0714C97.4741 11.2442 97.7103 10.5743 98.1849 10.0626C98.6445 9.5856 99.2075 9.3471 99.8777 9.3471C100.614 9.3471 101.129 9.57801 101.423 10.0409H101.446V7.10742H102.666V13.1858C102.666 13.6834 102.68 14.1419 102.709 14.5626ZM101.446 12.4074V11.5553C101.446 11.4079 101.434 11.2887 101.412 11.1976C101.344 10.9244 101.196 10.6946 100.971 10.5092C100.744 10.3238 100.471 10.2306 100.156 10.2306C99.7008 10.2306 99.3448 10.3986 99.0831 10.7358C98.8236 11.0729 98.6922 11.5033 98.6922 12.0291C98.6922 12.5343 98.8167 12.944 99.0668 13.2595C99.3309 13.5956 99.6869 13.7636 100.132 13.7636C100.533 13.7636 100.853 13.6237 101.096 13.343C101.331 13.0839 101.446 12.7717 101.446 12.4074Z" fill="white"/>
<path d="M113.136 11.9646C113.136 12.7505 112.896 13.3945 112.414 13.8997C111.909 14.4189 111.241 14.678 110.405 14.678C109.601 14.678 108.96 14.4298 108.481 13.9311C108.004 13.4335 107.765 12.8058 107.765 12.0492C107.765 11.2578 108.011 10.6084 108.504 10.1043C108.997 9.60024 109.66 9.34766 110.497 9.34766C111.301 9.34766 111.949 9.59591 112.437 10.0935C112.903 10.577 113.136 11.2014 113.136 11.9646ZM111.873 12.0015C111.873 11.5299 111.764 11.1255 111.546 10.7884C111.289 10.3808 110.926 10.177 110.451 10.177C109.963 10.177 109.59 10.3808 109.333 10.7884C109.115 11.1255 109.006 11.5364 109.006 12.022C109.006 12.4936 109.116 12.898 109.333 13.2351C109.597 13.6427 109.965 13.8465 110.44 13.8465C110.905 13.8465 111.272 13.6395 111.534 13.2243C111.759 12.8806 111.873 12.473 111.873 12.0015Z" fill="white"/>
<path d="M119.692 14.5633H118.474V11.6363C118.474 10.7344 118.106 10.2834 117.368 10.2834C117.006 10.2834 116.714 10.407 116.488 10.6553C116.263 10.9035 116.15 11.1962 116.15 11.5312V14.5622H114.929V10.9133C114.929 10.4645 114.915 9.97771 114.886 9.45086H115.957L116.014 10.2498H116.047C116.19 10.0016 116.402 9.79668 116.679 9.63298C117.011 9.44219 117.379 9.3457 117.785 9.3457C118.296 9.3457 118.722 9.49964 119.06 9.8086C119.483 10.1869 119.692 10.7517 119.692 11.5019V14.5633Z" fill="white"/>
<path d="M127.898 10.3034H126.555V12.7859C126.555 13.4168 126.794 13.7323 127.266 13.7323C127.485 13.7323 127.666 13.7149 127.809 13.6792L127.841 14.541C127.6 14.6256 127.283 14.6678 126.894 14.6678C126.412 14.6678 126.037 14.5312 125.766 14.2581C125.494 13.9849 125.359 13.5252 125.359 12.8802V10.3034H124.558V9.45238H125.359V8.51575L126.554 8.17969V9.4513H127.897V10.3034H127.898Z" fill="white"/>
<path d="M134.352 14.5626H133.132V11.6573C133.132 10.7412 132.764 10.2827 132.028 10.2827C131.462 10.2827 131.076 10.5483 130.864 11.0794C130.828 11.1911 130.807 11.3277 130.807 11.4881V14.5615H129.589V7.10742H130.807V10.1873H130.831C131.215 9.62679 131.765 9.3471 132.478 9.3471C132.983 9.3471 133.401 9.50104 133.732 9.81C134.145 10.1948 134.352 10.7672 134.352 11.5239V14.5626Z" fill="white"/>
<path d="M141.01 11.7651C141.01 11.9689 140.994 12.1402 140.965 12.28H137.308C137.324 12.7852 137.499 13.1701 137.837 13.4367C138.147 13.6752 138.546 13.7945 139.035 13.7945C139.576 13.7945 140.069 13.7143 140.513 13.5527L140.704 14.3419C140.184 14.5523 139.572 14.6574 138.864 14.6574C138.014 14.6574 137.345 14.4243 136.861 13.9582C136.375 13.492 136.134 12.8665 136.134 12.0817C136.134 11.3109 136.359 10.6691 136.811 10.1574C137.284 9.61108 137.922 9.33789 138.729 9.33789C139.517 9.33789 140.117 9.61108 140.521 10.1574C140.848 10.5911 141.01 11.1277 141.01 11.7651ZM139.847 11.4713C139.856 11.1342 139.776 10.8437 139.61 10.5987C139.399 10.2832 139.076 10.1249 138.64 10.1249C138.242 10.1249 137.918 10.2789 137.67 10.5878C137.468 10.8339 137.348 11.1277 137.308 11.4713H139.847Z" fill="white"/>
<path d="M62.4095 34.1514H59.7674L58.3202 29.9138H53.2897L51.9111 34.1514H49.3389L54.3228 19.7246H57.4011L62.4095 34.1514ZM57.8839 28.1359L56.5751 24.3688C56.4367 23.9839 56.1772 23.0776 55.7945 21.651H55.7479C55.5955 22.2646 55.3501 23.1709 55.0127 24.3688L53.7271 28.1359H57.8839Z" fill="white"/>
<path d="M75.2264 28.8222C75.2264 30.5913 74.7133 31.9898 73.6872 33.0164C72.7682 33.9303 71.6269 34.3867 70.2646 34.3867C68.7941 34.3867 67.7377 33.8945 67.0944 32.9102H67.0478V38.3901H64.5675V27.1733C64.5675 26.061 64.5361 24.9195 64.4756 23.7487H66.6569L66.7954 25.3976H66.8419C67.6691 24.1552 68.9244 23.5352 70.6089 23.5352C71.9259 23.5352 73.0253 24.0197 73.9048 24.99C74.7866 25.9613 75.2264 27.2383 75.2264 28.8222ZM72.6995 28.9067C72.6995 27.8942 72.4552 27.0595 71.9643 26.4025C71.4279 25.7174 70.7078 25.3748 69.805 25.3748C69.1931 25.3748 68.637 25.5656 68.1402 25.9418C67.6423 26.3212 67.3166 26.8166 67.1642 27.4302C67.0874 27.7164 67.049 27.9506 67.049 28.1349V29.8694C67.049 30.626 67.2979 31.2646 67.7959 31.786C68.2938 32.3074 68.9406 32.5676 69.7364 32.5676C70.6706 32.5676 71.3977 32.2315 71.9177 31.5616C72.4389 30.8906 72.6995 30.006 72.6995 28.9067Z" fill="white"/>
<path d="M88.0665 28.8222C88.0665 30.5913 87.5535 31.9898 86.5262 33.0164C85.6083 33.9303 84.467 34.3867 83.1047 34.3867C81.6342 34.3867 80.5779 33.8945 79.9357 32.9102H79.8891V38.3901H77.4088V27.1733C77.4088 26.061 77.3774 24.9195 77.3169 23.7487H79.4982L79.6367 25.3976H79.6832C80.5092 24.1552 81.7645 23.5352 83.4502 23.5352C84.766 23.5352 85.8654 24.0197 86.7473 24.99C87.6256 25.9613 88.0665 27.2383 88.0665 28.8222ZM85.5397 28.9067C85.5397 27.8942 85.2942 27.0595 84.8033 26.4025C84.2669 25.7174 83.5491 25.3748 82.6452 25.3748C82.0321 25.3748 81.4771 25.5656 80.9792 25.9418C80.4813 26.3212 80.1567 26.8166 80.0043 27.4302C79.9287 27.7164 79.8891 27.9506 79.8891 28.1349V29.8694C79.8891 30.626 80.1381 31.2646 80.6337 31.786C81.1316 32.3063 81.7785 32.5676 82.5765 32.5676C83.5107 32.5676 84.2379 32.2315 84.7579 31.5616C85.2791 30.8906 85.5397 30.006 85.5397 28.9067Z" fill="white"/>
<path d="M102.423 30.1061C102.423 31.3333 101.966 32.3317 101.048 33.1025C100.039 33.9448 98.6348 34.3654 96.8304 34.3654C95.1644 34.3654 93.8288 34.0662 92.8179 33.4667L93.3926 31.5403C94.4815 32.1539 95.6763 32.4618 96.9781 32.4618C97.9123 32.4618 98.6394 32.2645 99.1618 31.872C99.6818 31.4796 99.9413 30.9527 99.9413 30.2958C99.9413 29.7104 99.7272 29.2172 99.2979 28.8171C98.8709 28.4171 98.1578 28.0453 97.1619 27.7016C94.4513 26.7596 93.0971 25.3796 93.0971 23.5648C93.0971 22.3789 93.5717 21.4065 94.5222 20.6498C95.4692 19.892 96.7326 19.5137 98.3125 19.5137C99.7214 19.5137 100.892 19.7424 101.826 20.1988L101.206 22.0829C100.333 21.6406 99.3468 21.4195 98.2427 21.4195C97.3702 21.4195 96.6884 21.62 96.1998 22.019C95.7868 22.3756 95.5797 22.8103 95.5797 23.3253C95.5797 23.8955 95.8159 24.367 96.2906 24.7378C96.7036 25.0804 97.454 25.4511 98.5429 25.8511C99.8749 26.3509 100.853 26.9352 101.483 27.6051C102.11 28.2729 102.423 29.1087 102.423 30.1061Z" fill="white"/>
<path d="M110.623 25.4828H107.89V30.5334C107.89 31.8181 108.371 32.4598 109.337 32.4598C109.78 32.4598 110.148 32.424 110.439 32.3525L110.507 34.1076C110.019 34.2778 109.375 34.3634 108.578 34.3634C107.599 34.3634 106.833 34.0848 106.281 33.5287C105.73 32.9715 105.453 32.037 105.453 30.7242V25.4806H103.825V23.7461H105.453V21.8414L107.89 21.1562V23.7461H110.623V25.4828Z" fill="white"/>
<path d="M122.959 28.8653C122.959 30.4643 122.468 31.7771 121.488 32.8037C120.461 33.8607 119.097 34.3875 117.398 34.3875C115.76 34.3875 114.455 33.8813 113.483 32.8688C112.51 31.8562 112.024 30.5781 112.024 29.0377C112.024 27.4257 112.524 26.1053 113.528 25.0787C114.53 24.051 115.882 23.5371 117.581 23.5371C119.219 23.5371 120.538 24.0434 121.532 25.057C122.484 26.0402 122.959 27.3097 122.959 28.8653ZM120.385 28.9401C120.385 27.9807 120.165 27.1579 119.72 26.4717C119.2 25.6413 118.456 25.2272 117.493 25.2272C116.496 25.2272 115.739 25.6424 115.219 26.4717C114.773 27.159 114.553 27.9948 114.553 28.9835C114.553 29.9429 114.773 30.7657 115.219 31.4508C115.755 32.2812 116.504 32.6953 117.471 32.6953C118.418 32.6953 119.161 32.2725 119.698 31.4291C120.155 30.7299 120.385 29.8984 120.385 28.9401Z" fill="white"/>
<path d="M131.021 25.7813C130.776 25.7391 130.514 25.7174 130.239 25.7174C129.367 25.7174 128.692 26.0242 128.217 26.6388C127.804 27.1809 127.597 27.866 127.597 28.6931V34.1514H125.118L125.141 27.0248C125.141 25.8258 125.11 24.7341 125.048 23.7498H127.209L127.299 25.7401H127.368C127.63 25.0561 128.043 24.5054 128.608 24.0924C129.161 23.7205 129.758 23.5352 130.401 23.5352C130.63 23.5352 130.837 23.5503 131.021 23.5774V25.7813Z" fill="white"/>
<path d="M142.114 28.4579C142.114 28.872 142.085 29.2211 142.023 29.5062H134.582C134.611 30.5339 134.971 31.3198 135.662 31.8619C136.289 32.3464 137.1 32.5893 138.095 32.5893C139.197 32.5893 140.202 32.4256 141.106 32.0971L141.495 33.7015C140.438 34.1308 139.191 34.3444 137.752 34.3444C136.021 34.3444 134.662 33.8695 133.673 32.921C132.687 31.9724 132.192 30.6987 132.192 29.1007C132.192 27.5321 132.652 26.2258 133.572 25.184C134.535 24.0718 135.837 23.5156 137.475 23.5156C139.084 23.5156 140.302 24.0718 141.129 25.184C141.784 26.0675 142.114 27.1603 142.114 28.4579ZM139.749 27.8584C139.765 27.1733 139.603 26.5814 139.267 26.0816C138.838 25.4388 138.178 25.1179 137.29 25.1179C136.479 25.1179 135.82 25.4312 135.316 26.0599C134.903 26.5597 134.658 27.1592 134.582 27.8573H139.749V27.8584Z" fill="white"/>
</svg>
