<svg width="24" height="24" viewBox="0 0 24 24" fill="none" xmlns="http://www.w3.org/2000/svg">
<g clip-path="url(#clip0_855_64276)">
<path d="M17.1022 9.36975C17.8463 9.7321 18.6889 9.83937 19.5 9.675V18C19.5 18.1989 19.421 18.3897 19.2803 18.5303C19.1397 18.671 18.9489 18.75 18.75 18.75H5.25C5.05109 18.75 4.86032 18.671 4.71967 18.5303C4.57902 18.3897 4.5 18.1989 4.5 18V6C4.5 5.80109 4.57902 5.61032 4.71967 5.46967C4.86032 5.32902 5.05109 5.25 5.25 5.25H15.075C15.0255 5.49225 15 5.7435 15 6C14.9988 6.89104 15.3161 7.75317 15.8948 8.43075L12.0457 11.7622L7.23525 7.6785L6.26475 8.8215L12.0547 13.7378L17.1022 9.36975ZM18.75 8.25C18.4545 8.25 18.1619 8.1918 17.889 8.07873C17.616 7.96566 17.3679 7.79992 17.159 7.59099C16.9501 7.38206 16.7843 7.13402 16.6713 6.86104C16.5582 6.58806 16.5 6.29547 16.5 6C16.5 5.70453 16.5582 5.41194 16.6713 5.13896C16.7843 4.86598 16.9501 4.61794 17.159 4.40901C17.3679 4.20008 17.616 4.03434 17.889 3.92127C18.1619 3.8082 18.4545 3.75 18.75 3.75C19.3467 3.75 19.919 3.98705 20.341 4.40901C20.7629 4.83097 21 5.40326 21 6C21 6.59674 20.7629 7.16903 20.341 7.59099C19.919 8.01295 19.3467 8.25 18.75 8.25Z" fill="#ED1C24"/>
</g>
<defs>
<clipPath id="clip0_855_64276">
<rect width="18" height="18" fill="white" transform="translate(3 3)"/>
</clipPath>
</defs>
</svg>
