<svg width="20" height="21" viewBox="0 0 20 21" fill="none" xmlns="http://www.w3.org/2000/svg">
<path d="M18.5711 5.18408C17.9336 5.46373 17.2543 5.64908 16.5461 5.73908C17.2747 5.30408 17.8307 4.62051 18.0922 3.79658C17.4129 4.20158 16.6629 4.48766 15.8636 4.6473C15.2186 3.96051 14.2993 3.53516 13.2964 3.53516C11.3507 3.53516 9.78429 5.11444 9.78429 7.05051C9.78429 7.32908 9.80787 7.59694 9.86572 7.85194C6.94394 7.70944 4.35858 6.30908 2.62179 4.17587C2.31858 4.70194 2.14072 5.30408 2.14072 5.9523C2.14072 7.16944 2.76751 8.24837 3.70179 8.87301C3.13715 8.8623 2.58322 8.69837 2.11394 8.44016C2.11394 8.45087 2.11394 8.4648 2.11394 8.47873C2.11394 10.1866 3.33215 11.6052 4.92965 11.9319C4.64358 12.0102 4.33179 12.0477 4.00822 12.0477C3.78322 12.0477 3.55608 12.0348 3.34287 11.9877C3.79822 13.3794 5.09037 14.4027 6.62679 14.4359C5.43108 15.3712 3.91287 15.9348 2.26929 15.9348C1.98108 15.9348 1.70465 15.9219 1.42822 15.8866C2.98501 16.8905 4.83001 17.4637 6.81965 17.4637C13.2868 17.4637 16.8225 12.1066 16.8225 7.46301C16.8225 7.30766 16.8172 7.15766 16.8097 7.00873C17.5072 6.51373 18.0932 5.89551 18.5711 5.18408Z" fill="#FBFDFF"/>
</svg>
