<svg width="20" height="21" viewBox="0 0 20 21" fill="none" xmlns="http://www.w3.org/2000/svg">
<path d="M16.2334 1.92969H3.76589C3.1459 1.92969 2.5513 2.17598 2.11291 2.61437C1.67451 3.05277 1.42822 3.64736 1.42822 4.26735L1.42822 16.7349C1.42822 17.3549 1.67451 17.9495 2.11291 18.3879C2.5513 18.8263 3.1459 19.0725 3.76589 19.0725H16.2334C16.8534 19.0725 17.448 18.8263 17.8864 18.3879C18.3248 17.9495 18.5711 17.3549 18.5711 16.7349V4.26735C18.5711 3.64736 18.3248 3.05277 17.8864 2.61437C17.448 2.17598 16.8534 1.92969 16.2334 1.92969V1.92969ZM7.27238 15.4959C7.27251 15.5435 7.26325 15.5906 7.24515 15.6345C7.22705 15.6785 7.20045 15.7184 7.16688 15.7521C7.13331 15.7857 7.09343 15.8124 7.04953 15.8307C7.00562 15.8489 6.95855 15.8583 6.91102 15.8583H5.37108C5.32346 15.8584 5.27629 15.8491 5.23227 15.8309C5.18825 15.8128 5.14825 15.7861 5.11458 15.7524C5.08091 15.7187 5.05423 15.6788 5.03606 15.6347C5.0179 15.5907 5.00861 15.5435 5.00874 15.4959V9.04008C5.00874 8.94398 5.04692 8.85182 5.11487 8.78387C5.18282 8.71591 5.27498 8.67774 5.37108 8.67774H6.91102C7.00694 8.678 7.09886 8.71629 7.1666 8.78421C7.23434 8.85213 7.27238 8.94415 7.27238 9.04008V15.4959ZM6.14056 8.06605C5.85159 8.06605 5.56912 7.98036 5.32885 7.81982C5.08858 7.65928 4.90132 7.4311 4.79074 7.16413C4.68015 6.89716 4.65122 6.60339 4.70759 6.31998C4.76397 6.03656 4.90312 5.77623 5.10745 5.5719C5.31178 5.36757 5.57211 5.22842 5.85553 5.17205C6.13894 5.11567 6.43271 5.14461 6.69968 5.25519C6.96665 5.36577 7.19483 5.55304 7.35537 5.7933C7.51591 6.03357 7.6016 6.31605 7.6016 6.60501C7.6016 6.9925 7.44767 7.36413 7.17367 7.63812C6.89967 7.91212 6.52805 8.06605 6.14056 8.06605ZM15.3217 15.5212C15.3219 15.565 15.3133 15.6084 15.2966 15.6489C15.2799 15.6894 15.2554 15.7261 15.2244 15.7571C15.1935 15.788 15.1567 15.8126 15.1162 15.8293C15.0758 15.846 15.0324 15.8545 14.9886 15.8544H13.3328C13.289 15.8545 13.2456 15.846 13.2051 15.8293C13.1647 15.8126 13.1279 15.788 13.0969 15.7571C13.066 15.7261 13.0414 15.6894 13.0247 15.6489C13.0081 15.6084 12.9995 15.565 12.9997 15.5212V12.4969C12.9997 12.0449 13.1321 10.5177 11.8182 10.5177C10.8003 10.5177 10.5928 11.5628 10.5519 12.0323V15.5251C10.5519 15.6127 10.5175 15.6967 10.4561 15.759C10.3947 15.8213 10.3112 15.857 10.2237 15.8583H8.62433C8.58063 15.8583 8.53736 15.8496 8.497 15.8329C8.45664 15.8161 8.41998 15.7916 8.38912 15.7606C8.35827 15.7297 8.33382 15.693 8.31719 15.6525C8.30055 15.6121 8.29206 15.5688 8.29218 15.5251V9.01183C8.29206 8.96813 8.30055 8.92484 8.31719 8.88443C8.33382 8.84402 8.35827 8.80729 8.38912 8.77634C8.41998 8.74539 8.45664 8.72084 8.497 8.70409C8.53736 8.68734 8.58063 8.67871 8.62433 8.67871H10.2237C10.312 8.67871 10.3968 8.71381 10.4592 8.77628C10.5217 8.83875 10.5568 8.92348 10.5568 9.01183V9.57482C10.9347 9.00696 11.4948 8.5706 12.6899 8.5706C15.3373 8.5706 15.3198 11.0427 15.3198 12.4005L15.3217 15.5212Z" fill="#FBFDFF"/>
</svg>
