<svg width="75" height="48" viewBox="0 0 75 48" fill="none" xmlns="http://www.w3.org/2000/svg">
<g clip-path="url(#clip0_855_64200)">
<path d="M4.88967 7.92052C6.09589 5.2033 7.18956 3.35006 8.17068 2.35821C8.77122 1.78885 9.44391 1.51238 10.1905 1.53225C10.9379 1.55212 11.5617 1.83119 12.0643 2.37117C12.5668 2.9103 12.7662 3.58507 12.6622 4.39289C12.566 5.16529 12.0806 6.84487 11.2034 9.43249C11.1347 9.60874 10.7154 11.0179 9.94479 13.6617C8.72654 17.7673 8.07618 20.8258 7.99199 22.8397C7.89576 25.1518 8.73857 26.935 10.5187 28.1895C11.45 28.8047 12.5265 29.1926 13.749 29.3524C14.9707 29.5123 16.1838 29.4535 17.3866 29.1788C18.1959 28.9455 18.9863 28.9921 19.7569 29.3161C20.5275 29.6401 21.0731 30.2052 21.3935 31.0147C21.677 31.8156 21.6392 32.5794 21.2818 33.3051C20.9236 34.0309 20.3523 34.5493 19.567 34.8612C17.6967 35.6569 15.7327 35.9947 13.676 35.8755C11.6192 35.7554 9.74031 35.2819 8.03752 34.4551C6.33559 33.6274 4.85359 32.4265 3.58981 30.8506C2.32775 29.2747 1.52189 27.4983 1.17566 25.5207C0.853489 23.848 0.885277 21.8997 1.27446 19.6776C1.66365 17.4546 2.13273 15.546 2.68085 13.9528C3.31747 11.8508 4.0546 9.83942 4.88967 7.92052Z" fill="white"/>
<path d="M24.5518 24.9461C24.5518 24.9824 24.5158 25.017 24.4462 25.0507L24.4453 25.1034L24.5527 24.8926L24.5518 24.9461Z" fill="#F9B342"/>
<path d="M24.9834 23.9969C24.9834 23.9623 24.9843 23.9269 24.9843 23.8906C24.9843 23.9269 24.9843 23.9623 24.9834 23.9969Z" fill="#F9B342"/>
<path d="M46.3924 13.5034C46.5196 14.287 46.3684 14.9462 45.8357 15.5865C45.303 16.2267 44.8683 16.5455 43.9078 16.6949C42.6552 16.8902 40.9722 17.139 39.6328 17.3196C39.7685 18.8005 39.9008 20.1975 39.8871 21.7078C39.8802 22.4067 39.9026 23.1774 39.8948 23.9239C39.8871 24.6704 39.8467 25.4937 39.7144 26.2601C39.5812 27.0264 39.2943 27.9232 39.0572 28.6421C38.8201 29.3609 38.3862 30.2983 38.0185 30.7882C37.5683 31.3878 37.2728 31.6539 36.7272 31.9027C36.1817 32.1516 35.4961 32.3727 34.9488 32.2924C34.4016 32.212 34.1524 32.1135 33.7632 31.6038C33.374 31.0941 33.2976 30.7208 33.3302 29.9942C33.3878 28.3077 33.9866 26.362 34.0863 24.3274C34.1584 22.8422 34.0545 20.5993 33.9076 18.9508C33.8749 18.5827 33.8156 18.0453 33.7615 17.6626C32.3525 17.603 31.1137 17.1978 30.5054 15.9087C30.221 15.3048 30.3069 14.9177 30.5192 14.3976C30.7314 13.8766 31.1489 13.6218 31.6059 13.3099C31.862 13.1353 32.3053 13.0006 32.6043 12.9392C32.7898 12.9012 32.8818 12.8995 33.0493 12.8943C32.9737 12.9029 32.905 12.9073 32.8319 12.915C33.0501 12.8658 33.2675 12.8364 33.49 12.7967C33.4926 11.3279 33.6301 9.58265 34.0115 8.2288C34.4943 6.51552 35.1456 5.10378 36.1361 3.76288C37.1267 2.42198 38.3157 1.50875 39.7737 0.891871C41.1449 0.312139 42.3794 0.266349 43.7394 0.755362C45.0986 1.24437 45.9293 2.2008 46.4629 3.5201C46.8228 4.41 46.5256 5.12019 45.6905 5.57292C44.8554 6.02565 44.163 5.86322 43.5478 5.14093C43.5358 5.12624 43.5375 5.09859 43.4971 5.07786C43.4559 5.05712 43.364 5.0528 43.291 5.04675C43.2179 5.04071 43.0547 5.03898 42.9774 5.05021C42.7067 5.08909 42.2299 5.05971 42.0246 5.16339C41.2016 5.57897 40.9249 5.75263 40.3974 6.63907C39.5873 8.00157 39.3261 9.94553 39.3115 11.613C40.6294 11.4679 41.8734 11.2251 43.2102 11.0281C43.943 10.9201 44.6965 11.0739 45.2833 11.5897C45.8675 12.1046 46.2644 12.7198 46.3924 13.5034Z" fill="white"/>
<path d="M38.2403 34.0933C38.4035 34.1849 38.5306 34.3119 38.6226 34.476C38.7145 34.6402 38.7609 34.8294 38.7609 35.0437C38.7609 35.2588 38.7145 35.448 38.6226 35.6139C38.5306 35.7789 38.4026 35.9068 38.2403 35.9984C38.077 36.09 37.8932 36.1357 37.6878 36.1357C37.5298 36.1357 37.3863 36.1046 37.2548 36.0433C37.1243 35.982 37.016 35.8921 36.9301 35.7737V36.1116H36.5615V33.123H36.9464V34.2989C37.0315 34.1857 37.1389 34.1011 37.2669 34.0432C37.3949 33.9853 37.5349 33.9568 37.687 33.9568C37.8932 33.9568 38.0779 34.0026 38.2403 34.0933ZM38.022 35.702C38.1303 35.639 38.2153 35.5508 38.2781 35.4359C38.3408 35.3219 38.3726 35.1914 38.3726 35.0437C38.3726 34.8959 38.3408 34.7655 38.2781 34.6514C38.2153 34.5374 38.1303 34.4493 38.022 34.3879C37.9138 34.3266 37.7918 34.2955 37.6561 34.2955C37.5229 34.2955 37.4009 34.3266 37.2918 34.3879C37.1827 34.4493 37.0968 34.5374 37.0358 34.6514C36.9748 34.7655 36.9438 34.8968 36.9438 35.0437C36.9438 35.1914 36.9748 35.3219 37.0358 35.4359C37.0976 35.55 37.1827 35.639 37.2918 35.702C37.4009 35.7651 37.5229 35.7962 37.6561 35.7962C37.7918 35.7971 37.9138 35.7651 38.022 35.702Z" fill="white"/>
<path d="M41.032 33.9766L40.0028 36.3249C39.9117 36.5426 39.806 36.6955 39.684 36.7836C39.5629 36.8726 39.4168 36.9167 39.2459 36.9167C39.1419 36.9167 39.0405 36.9003 38.9434 36.8666C38.8455 36.8329 38.7656 36.7836 38.7012 36.7197L38.8653 36.4294C38.9744 36.5339 39.1015 36.5866 39.2459 36.5866C39.3395 36.5866 39.4177 36.5616 39.4804 36.5123C39.5431 36.4622 39.5998 36.3776 39.6505 36.2566L39.7184 36.108L38.7811 33.9774H39.1814L39.922 35.6855L40.6548 33.9774H41.032V33.9766Z" fill="white"/>
<path d="M45.9479 40.8012H44.1094V34.9961L45.9479 36.4752V40.8012Z" fill="white"/>
<path d="M51.9777 35.5276L53.1839 33.9785H47.2207V40.8014H49.0558V38.3373H50.4055L51.6263 36.7882H49.0558V35.5276H51.9777Z" fill="white"/>
<path d="M44.1086 34.9943L42.8311 33.9766H44.1086V34.9943Z" fill="white"/>
<path d="M44.1093 33.9778L41.958 32.2637H44.1093V33.9778Z" fill="white"/>
<path d="M56.412 40.9287C55.717 40.9287 55.0812 40.7767 54.5237 40.4769C53.9635 40.1762 53.5176 39.752 53.1989 39.2172C52.8801 38.6824 52.7178 38.0707 52.7178 37.3994C52.7178 36.7272 52.8793 36.1155 53.1989 35.5807C53.5185 35.045 53.9669 34.6217 54.534 34.3201C55.0976 34.0212 55.7385 33.8691 56.4404 33.8691C57.0254 33.8691 57.5658 33.9702 58.0461 34.1698C58.4559 34.34 58.8159 34.5802 59.1157 34.8817L59.2231 34.9906L58.1956 36.3211L58.0573 36.1751C57.626 35.7189 57.1217 35.4969 56.5134 35.4969C56.1328 35.4969 55.7909 35.5772 55.4979 35.7362C55.2092 35.8926 54.9807 36.1164 54.8192 36.4015C54.6568 36.6883 54.5743 37.0244 54.5743 37.4002C54.5743 37.77 54.6568 38.1026 54.8192 38.3895C54.9807 38.6755 55.2084 38.901 55.4945 39.0608C55.784 39.2224 56.1199 39.3036 56.4945 39.3036C56.8571 39.3036 57.1904 39.2319 57.4859 39.091L57.5048 38.3506H56.6474L55.424 36.798H59.193V40.0181L59.1243 40.0699C58.7592 40.3464 58.3322 40.5615 57.8536 40.7093C57.3794 40.8544 56.894 40.9287 56.412 40.9287Z" fill="white"/>
<path d="M45.9496 33.9766H44.1094L45.9496 35.4635V33.9766Z" fill="white"/>
<path d="M29.8044 25.5026C29.6257 26.7701 29.2701 27.8509 28.4316 29.3309C27.5707 30.8515 24.6875 33.3009 23.2278 30.9293C22.5921 29.896 23.05 28.5724 23.2502 28.0609C23.7072 26.891 23.7914 26.6033 23.971 25.9571C24.2493 24.9557 24.5552 23.7367 24.4701 22.5487C24.4615 22.4312 24.4237 22.2307 24.4048 22.1089C24.3859 21.9871 24.3395 21.7866 24.2313 21.308C24.0397 20.4648 23.4838 19.5049 23.1591 18.7791C22.8352 18.0543 22.6015 17.3363 22.3876 16.7047C21.7922 14.9448 22.3395 13.514 24.1625 12.7028C24.8524 12.396 26.4822 12.3485 27.5192 14.2743C28.0046 15.1755 28.7512 16.9311 29.0785 17.5696C30.2993 19.9481 30.0768 23.5664 29.8044 25.5026Z" fill="white"/>
<path d="M22.1569 10.4298C24.0088 10.4298 25.5101 8.92003 25.5101 7.05766C25.5101 5.19529 24.0088 3.68555 22.1569 3.68555C20.305 3.68555 18.8037 5.19529 18.8037 7.05766C18.8037 8.92003 20.305 10.4298 22.1569 10.4298Z" fill="white"/>
<path d="M54.0037 22.2409C55.4788 22.1156 56.7615 21.935 57.8518 21.7C58.8707 21.4642 59.8922 21.1747 60.9137 20.8326C61.0194 20.7989 61.2642 20.7307 61.6525 20.6287C62.0391 20.5268 62.3295 20.4421 62.5237 20.3738C62.717 20.3056 62.9636 20.2114 63.2634 20.0904C63.5632 19.9704 63.827 19.8408 64.0572 19.7017C64.2875 19.5634 64.4902 19.407 64.6672 19.2316C65.3055 18.6744 65.6707 18.0428 65.7669 17.3378C65.8614 16.6328 65.7282 15.9615 65.3666 15.3221C65.0049 14.6837 64.5813 14.0961 64.0959 13.5622C63.6088 13.0283 63.0881 12.5462 62.5323 12.1168C60.8965 10.8649 58.9566 10.1383 56.7126 9.93781C54.5046 9.73823 52.5329 10.229 50.8018 11.41C48.7519 12.7648 47.5551 14.8158 47.2106 17.565C46.9047 19.9263 47.1444 22.1078 47.9314 24.1097C48.7166 26.1124 50.087 27.582 52.0432 28.5203C54.1017 29.4949 56.2924 29.8534 58.6112 29.596C61.8768 29.278 64.0297 28.1367 65.0684 26.1711C65.3537 25.645 65.4482 25.073 65.3494 24.4535C65.2514 23.8358 64.9585 23.3295 64.4713 22.9355C64.0186 22.5778 63.4507 22.4042 62.766 22.4146C62.0804 22.4258 61.1267 22.6686 60.6207 23.6889C55.0364 25.7677 52.8765 22.5001 52.746 22.2919C52.7442 22.2884 52.7417 22.2841 52.7399 22.2815C53.1953 22.285 53.6171 22.2729 54.0037 22.2409ZM52.4745 17.5668C52.4745 17.5668 52.4435 15.8137 54.5149 15.2954C56.5863 14.777 58.1636 15.2954 59.0176 16.0487C59.0167 16.0487 56.0021 17.1598 52.4745 17.5668Z" fill="white"/>
</g>
<defs>
<clipPath id="clip0_855_64200">
<rect width="74.0045" height="46.5955" fill="white" transform="translate(0 0.417969)"/>
</clipPath>
</defs>
</svg>
