<svg width="21" height="21" viewBox="0 0 21 21" fill="none" xmlns="http://www.w3.org/2000/svg">
<path d="M16.9062 1.90625H4.09375C3.51359 1.90625 2.95719 2.13672 2.54695 2.54695C2.13672 2.95719 1.90625 3.51359 1.90625 4.09375V16.9062C1.90625 17.4864 2.13672 18.0428 2.54695 18.453C2.95719 18.8633 3.51359 19.0938 4.09375 19.0938H10.3699V11.9423H8.93965V9.0818H10.3581V7.78906C10.3581 6.61906 10.9154 4.79117 13.3682 4.79117L15.5778 4.80004V7.25086H13.9732C13.7123 7.25086 13.341 7.38078 13.341 7.93805V9.08199H15.6143L15.3533 11.9425H13.2305V19.0938H16.9062C17.1935 19.0938 17.478 19.0372 17.7434 18.9272C18.0088 18.8173 18.2499 18.6562 18.453 18.453C18.6562 18.2499 18.8173 18.0088 18.9272 17.7434C19.0372 17.478 19.0938 17.1935 19.0938 16.9062V4.09375C19.0938 3.80648 19.0372 3.52203 18.9272 3.25663C18.8173 2.99123 18.6562 2.75008 18.453 2.54695C18.2499 2.34383 18.0088 2.1827 17.7434 2.07276C17.478 1.96283 17.1935 1.90625 16.9062 1.90625Z" fill="#FBFDFF"/>
</svg>
