<svg width="176" height="52" viewBox="0 0 176 52" fill="none" xmlns="http://www.w3.org/2000/svg">
<path d="M43.604 39.0137C39.3407 39.0137 35.8721 35.438 35.8721 31.0428V11.9805H40.5775V31.0428C40.5775 32.7631 41.9349 34.1631 43.604 34.1631C45.2732 34.1631 46.6309 32.7631 46.6309 31.0428V11.9805H51.3363V31.0428C51.3363 35.438 47.8677 39.0137 43.604 39.0137Z" fill="white"/>
<path d="M89.9982 11.9805C94.2615 11.9805 97.7302 15.5565 97.7302 19.9517V39.0137H93.0248V19.9517C93.0248 18.231 91.6674 16.8314 89.9982 16.8314C88.3291 16.8314 86.9711 18.231 86.9711 19.9517V39.0137H82.2656V19.9517C82.2656 15.5565 85.7343 11.9805 89.9982 11.9805Z" fill="white"/>
<path d="M33.519 19.9517C33.519 15.5565 30.0503 11.9805 25.7864 11.9805H7.29492V16.8311H25.7864C27.4555 16.8311 28.8135 18.231 28.8135 19.9517C28.8135 21.6723 27.4555 23.0716 25.7864 23.0716H7.29492V23.0719V27.9219V27.9225H25.7864C27.4555 27.9225 28.8135 29.3225 28.8135 31.0428C28.8135 32.7638 27.4555 34.1631 25.7864 34.1631H7.29492V39.0137H25.7864C30.0503 39.0137 33.519 35.438 33.519 31.0428C33.519 28.8878 32.6816 26.9333 31.3292 25.4971C32.6816 24.0612 33.519 22.1064 33.519 19.9517Z" fill="white"/>
<path d="M72.1806 11.9805C70.0901 11.9805 68.1937 12.8437 66.8005 14.2382C65.4076 12.8437 63.5113 11.9805 61.4211 11.9805C57.1571 11.9805 53.6885 15.5565 53.6885 19.9517V39.0137H58.3942V19.9517C58.3942 18.231 59.752 16.8314 61.4211 16.8314C63.0902 16.8314 64.4476 18.231 64.4476 19.9517V39.0137H64.4479H69.153H69.1532V19.9517C69.1532 18.231 70.5113 16.8314 72.1804 16.8314C73.8495 16.8314 75.2069 18.231 75.2069 19.9517V39.0137H79.9124V19.9517C79.9125 15.5565 76.4439 11.9805 72.1806 11.9805Z" fill="white"/>
<path d="M105.397 27.6197C105.611 27.6197 105.803 27.583 105.971 27.5099C106.14 27.4367 106.283 27.3317 106.399 27.1953C106.516 27.059 106.605 26.8925 106.667 26.6955C106.728 26.4992 106.759 26.2757 106.759 26.0257V21.8184H108.357V26.0257C108.357 26.461 108.289 26.8604 108.151 27.2245C108.015 27.5886 107.818 27.9024 107.563 28.1658C107.307 28.4288 106.997 28.6335 106.631 28.7796C106.265 28.9257 105.854 28.9992 105.397 28.9992C104.936 28.9992 104.523 28.9257 104.158 28.7796C103.792 28.6335 103.482 28.4288 103.226 28.1658C102.971 27.9024 102.775 27.5886 102.64 27.2245C102.504 26.8604 102.437 26.461 102.437 26.0257V21.8184H104.035V26.0205C104.035 26.2709 104.066 26.4941 104.127 26.691C104.188 26.8873 104.278 27.0551 104.394 27.1931C104.511 27.3311 104.653 27.4367 104.822 27.5099C104.991 27.583 105.182 27.6197 105.397 27.6197Z" fill="white"/>
<path d="M110.414 21.828C110.461 21.8345 110.504 21.8471 110.542 21.8647C110.58 21.8828 110.616 21.9077 110.651 21.9401C110.685 21.9728 110.725 22.0166 110.769 22.072L114.041 26.3376C114.029 26.2009 114.019 26.0688 114.013 25.9398C114.007 25.8119 114.003 25.6907 114.003 25.5767V21.8184H115.413V28.9208H114.58C114.458 28.9208 114.354 28.9013 114.268 28.8625C114.183 28.8237 114.101 28.7524 114.022 28.6481L110.774 24.4168C110.783 24.5402 110.791 24.661 110.797 24.7799C110.804 24.8984 110.807 25.0099 110.807 25.1139V28.9208H109.397V21.8184H110.239C110.309 21.8184 110.367 21.822 110.414 21.8281" fill="white"/>
<path d="M121.55 21.8184V23.125H119.611V28.9211H118.013V23.125H116.074V21.8184H121.55Z" fill="white"/>
<path d="M125.078 27.6197C125.293 27.6197 125.484 27.583 125.653 27.5099C125.822 27.4367 125.964 27.3317 126.081 27.1953C126.198 27.059 126.287 26.8925 126.348 26.6955C126.41 26.4992 126.441 26.2757 126.441 26.0257V21.8184H128.039V26.0257C128.039 26.461 127.97 26.8604 127.833 27.2245C127.696 27.5886 127.5 27.9024 127.244 28.1658C126.989 28.4288 126.678 28.6335 126.313 28.7796C125.947 28.9257 125.536 28.9992 125.078 28.9992C124.618 28.9992 124.205 28.9257 123.839 28.7796C123.474 28.6335 123.163 28.4288 122.908 28.1658C122.653 27.9024 122.457 27.5886 122.321 27.2245C122.186 26.8604 122.118 26.461 122.118 26.0257V21.8184H123.717V26.0205C123.717 26.2709 123.747 26.4941 123.809 26.691C123.87 26.8873 123.959 27.0551 124.076 27.1931C124.193 27.3311 124.335 27.4367 124.504 27.5099C124.672 27.583 124.864 27.6197 125.078 27.6197Z" fill="white"/>
<path d="M130.678 24.6947H130.933C131.169 24.6947 131.34 24.6186 131.444 24.4657L132.995 22.1452C133.08 22.0182 133.177 21.9323 133.285 21.8867C133.394 21.8413 133.527 21.8184 133.685 21.8184H135.075L133.033 24.6899C132.96 24.7938 132.884 24.88 132.805 24.948C132.727 25.0163 132.646 25.0734 132.564 25.119C132.684 25.164 132.794 25.2272 132.893 25.3066C132.992 25.3863 133.083 25.4925 133.165 25.6256L135.246 28.9211H133.818C133.726 28.9211 133.648 28.9147 133.583 28.9014C133.519 28.8887 133.463 28.8694 133.415 28.8431C133.368 28.8175 133.327 28.7858 133.292 28.7482C133.258 28.7109 133.225 28.6679 133.193 28.6189L131.633 26.1475C131.576 26.0565 131.504 25.9923 131.418 25.9551C131.331 25.9175 131.214 25.8987 131.065 25.8987H130.678V28.9212H129.079V21.8184H130.678V24.6947Z" fill="white"/>
<path d="M102.437 39.0149H104.044V31.9121H102.437V39.0149Z" fill="white"/>
<path d="M106.338 31.9215C106.385 31.928 106.428 31.9403 106.466 31.9582C106.503 31.9763 106.539 32.0012 106.574 32.0339C106.609 32.0663 106.649 32.1104 106.693 32.1654L109.965 36.431C109.952 36.2943 109.943 36.1622 109.936 36.0336C109.93 35.9053 109.927 35.7842 109.927 35.6705V31.9121H111.336V39.0146H110.504C110.381 39.0146 110.277 38.9951 110.192 38.9563C110.107 38.9174 110.025 38.8458 109.946 38.7415L106.698 34.5102C106.707 34.6336 106.715 34.7548 106.721 34.8733C106.727 34.9919 106.731 35.1033 106.731 35.2073V39.0146H105.321V31.9121H106.163C106.233 31.9121 106.291 31.9149 106.338 31.9215" fill="white"/>
<path d="M117.086 35.4609C117.086 35.1098 117.042 34.793 116.954 34.5102C116.865 34.2274 116.738 33.9881 116.573 33.7911C116.407 33.5945 116.205 33.4436 115.965 33.3376C115.725 33.2321 115.453 33.1796 115.147 33.1796H114.079V37.7474H115.147C115.453 37.7474 115.725 37.6946 115.965 37.5887C116.205 37.4831 116.407 37.3322 116.573 37.1352C116.738 36.9386 116.865 36.6989 116.954 36.4164C117.042 36.1337 117.086 35.8153 117.086 35.4609ZM118.722 35.4609C118.722 35.9743 118.636 36.4482 118.464 36.8819C118.293 37.316 118.051 37.6914 117.739 38.0078C117.427 38.325 117.051 38.5718 116.611 38.749C116.171 38.9261 115.683 39.0149 115.147 39.0149H112.471V31.9121H115.147C115.683 31.9121 116.171 32.0012 116.611 32.18C117.051 32.3588 117.427 32.6059 117.739 32.9211C118.051 33.2366 118.293 33.6107 118.464 34.0447C118.636 34.4788 118.722 34.9507 118.722 35.4609Z" fill="white"/>
<path d="M124.653 35.4628C124.653 35.1117 124.609 34.7959 124.521 34.5147C124.433 34.2336 124.306 33.9955 124.14 33.8002C123.975 33.6055 123.772 33.4558 123.533 33.3519C123.293 33.2482 123.02 33.196 122.714 33.196C122.406 33.196 122.13 33.2482 121.889 33.3519C121.648 33.4558 121.445 33.6055 121.279 33.8002C121.114 33.9955 120.987 34.2336 120.899 34.5147C120.81 34.7959 120.766 35.1117 120.766 35.4628C120.766 35.8172 120.81 36.1346 120.899 36.4158C120.987 36.6972 121.114 36.935 121.279 37.1297C121.445 37.325 121.648 37.4737 121.889 37.576C122.13 37.6787 122.406 37.7296 122.714 37.7296C123.02 37.7296 123.293 37.6787 123.533 37.576C123.772 37.4737 123.975 37.325 124.14 37.1297C124.306 36.935 124.433 36.6972 124.521 36.4158C124.609 36.1346 124.653 35.8172 124.653 35.4628ZM126.29 35.4628C126.29 35.9762 126.204 36.454 126.032 36.8961C125.86 37.3379 125.618 37.7224 125.306 38.0489C124.994 38.3754 124.618 38.6313 124.178 38.8166C123.738 39.0022 123.251 39.0949 122.714 39.0949C122.178 39.0949 121.69 39.0022 121.249 38.8166C120.807 38.6313 120.429 38.3754 120.116 38.0489C119.802 37.7224 119.559 37.3379 119.388 36.8961C119.216 36.454 119.13 35.9762 119.13 35.4628C119.13 34.9494 119.216 34.4713 119.388 34.0295C119.559 33.5877 119.802 33.2041 120.116 32.8789C120.429 32.5544 120.807 32.2988 121.249 32.1135C121.69 31.9286 122.178 31.8359 122.714 31.8359C123.251 31.8359 123.738 31.9296 124.178 32.1161C124.618 32.303 124.994 32.5589 125.306 32.8841C125.618 33.209 125.86 33.5925 126.032 34.0343C126.204 34.4762 126.29 34.9526 126.29 35.4628Z" fill="white"/>
<path d="M128.072 31.9215C128.119 31.928 128.161 31.9403 128.199 31.9582C128.237 31.9763 128.273 32.0012 128.308 32.0339C128.343 32.0663 128.382 32.1104 128.426 32.1654L131.699 36.431C131.686 36.2943 131.677 36.1622 131.67 36.0336C131.664 35.9053 131.661 35.7842 131.661 35.6705V31.9121H133.07V39.0146H132.238C132.115 39.0146 132.011 38.9951 131.926 38.9563C131.841 38.9174 131.759 38.8458 131.68 38.7415L128.431 34.5102C128.44 34.6336 128.448 34.7548 128.455 34.8733C128.461 34.9919 128.464 35.1033 128.464 35.2073V39.0146H127.055V31.9121H127.896C127.966 31.9121 128.024 31.9149 128.071 31.9215" fill="white"/>
<path d="M138.641 31.9121V33.1796H135.813V34.8367H137.979V36.0556H135.813V37.7474H138.641V39.0149H134.205V31.9121H138.641Z" fill="white"/>
<path d="M143.389 33.3568C143.342 33.4348 143.292 33.4934 143.24 33.5323C143.188 33.5711 143.121 33.591 143.039 33.591C142.966 33.591 142.888 33.5673 142.805 33.52C142.721 33.4727 142.627 33.4202 142.521 33.3619C142.415 33.3033 142.295 33.2505 142.159 33.2032C142.024 33.1562 141.869 33.1329 141.696 33.1329C141.396 33.1329 141.174 33.1986 141.027 33.3302C140.88 33.4617 140.807 33.6395 140.807 33.8636C140.807 34.0071 140.851 34.1254 140.939 34.22C141.027 34.3139 141.143 34.3952 141.287 34.4635C141.43 34.5318 141.594 34.5941 141.778 34.6511C141.963 34.7081 142.151 34.7716 142.344 34.8412C142.536 34.9112 142.724 34.9934 142.909 35.0874C143.093 35.1816 143.257 35.3018 143.401 35.4479C143.544 35.5943 143.66 35.7725 143.748 35.982C143.837 36.1916 143.881 36.4443 143.881 36.7397C143.881 37.0685 143.826 37.3752 143.715 37.6615C143.605 37.9476 143.445 38.1966 143.235 38.4098C143.026 38.6226 142.767 38.7897 142.46 38.9118C142.152 39.0336 141.803 39.0949 141.412 39.0949C141.197 39.0949 140.979 39.0718 140.757 39.0265C140.535 38.9805 140.32 38.9167 140.112 38.8338C139.904 38.7509 139.708 38.6527 139.525 38.5387C139.343 38.425 139.183 38.2984 139.048 38.1585L139.52 37.3885C139.555 37.3302 139.604 37.2829 139.667 37.2473C139.73 37.211 139.798 37.1935 139.87 37.1935C139.965 37.1935 140.061 37.2242 140.156 37.2861C140.253 37.3476 140.361 37.4157 140.483 37.4908C140.604 37.5653 140.744 37.6337 140.901 37.6955C141.059 37.7571 141.245 37.7882 141.459 37.7882C141.749 37.7882 141.975 37.7225 142.136 37.5906C142.296 37.4591 142.377 37.2505 142.377 36.9641C142.377 36.7983 142.333 36.6636 142.244 36.5596C142.156 36.4556 142.04 36.3694 141.897 36.3014C141.753 36.2331 141.59 36.1728 141.407 36.121C141.224 36.0688 141.037 36.0112 140.845 35.948C140.653 35.8845 140.465 35.8065 140.282 35.7138C140.099 35.6212 139.936 35.4991 139.792 35.3478C139.649 35.1972 139.533 35.0087 139.445 34.7826C139.356 34.5568 139.312 34.2783 139.312 33.9466C139.312 33.6803 139.364 33.4202 139.468 33.1666C139.573 32.9133 139.725 32.6875 139.927 32.4889C140.129 32.291 140.376 32.1326 140.67 32.0138C140.963 31.8952 141.299 31.8359 141.677 31.8359C141.888 31.8359 142.094 31.8527 142.294 31.8871C142.494 31.921 142.684 31.9716 142.864 32.038C143.043 32.1048 143.212 32.1844 143.368 32.2767C143.524 32.3694 143.663 32.4743 143.786 32.5916L143.389 33.3568Z" fill="white"/>
<path d="M144.816 39.0149H146.424V31.9121H144.816V39.0149Z" fill="white"/>
<path d="M149.687 36.2995H151.57L150.936 34.3544C150.895 34.2307 150.847 34.0856 150.792 33.9178C150.737 33.7506 150.682 33.5693 150.629 33.3746C150.578 33.5728 150.526 33.7565 150.473 33.9252C150.419 34.0943 150.368 34.2407 150.321 34.3641L149.687 36.2995ZM154.114 39.0149H152.875C152.736 39.0149 152.622 38.9812 152.532 38.9148C152.442 38.848 152.38 38.7629 152.345 38.6586L151.939 37.4209H149.319L148.912 38.6586C148.881 38.7496 148.819 38.8319 148.728 38.9051C148.636 38.9783 148.524 39.0149 148.392 39.0149H147.144L149.811 31.9121H151.447L154.114 39.0149Z" fill="white"/>
</svg>
