<svg width="40" height="38" viewBox="0 0 40 38" fill="none" xmlns="http://www.w3.org/2000/svg">
<g filter="url(#filter0_d_2249_17939)">
<g clip-path="url(#clip0_2249_17939)">
<path d="M39.3145 6.57861V31.0696L39.3098 31.0743H0.244019V6.57861H39.3145Z" fill="#2E4593"/>
<path d="M39.3145 28.519V31.0696L39.3098 31.0743H35.243L23.253 23.5562L22.0516 22.8034L20.6354 21.9133L20.1609 21.615L18.72 20.7143L18.1833 20.3749L17.7312 20.0942L16.8246 19.5282L16.5322 19.3426L16.0895 19.0666L11.8313 16.3927L9.91593 15.1936L0.244019 9.13051V6.57865L0.2769 6.53052L0.353232 6.57865H4.3096L16.5322 14.2389L17.7312 14.994L18.053 15.1936L19.9695 16.3927L20.1609 16.5148L20.8949 16.9751L22.0516 17.6997L22.2489 17.8265L23.253 18.4548L24.2312 19.0666L26.8617 20.7143L28.7771 21.9133L39.3145 28.519Z" fill="#FCF5FF"/>
<path d="M39.318 30.998L39.3262 31.0884L36.7122 31.0743L23.253 22.6355L22.1045 21.9133L22.0516 21.8815L20.8949 21.157L20.1938 20.7143L18.9173 19.9133L17.7312 19.1747L17.5633 19.0666L16.8246 18.6016L16.5322 18.4207L13.3004 16.3926L11.3897 15.1936L0.244019 8.20393V6.52344L0.2769 6.5305L0.353232 6.57863L14.0978 15.1936L16.0084 16.3926L16.5322 16.7203L17.7312 17.4754L18.1833 17.7572L18.9173 18.2188L20.2713 19.0666L22.0516 20.1823L22.2489 20.3079L22.9007 20.7143L23.253 20.9362L24.8125 21.9133L39.318 30.998Z" fill="#F42525"/>
<path d="M39.3145 7.06246V9.61078L30.4047 15.1936L28.4941 16.3926L24.2312 19.0666L23.253 19.6773L22.2489 20.3079L22.0516 20.4312L21.6007 20.7142L20.8949 21.1569L20.1609 21.615L19.6853 21.9132L17.7312 23.1381L16.5322 23.8932L5.07293 31.0743H0.244019V29.0004L11.5483 21.9132L13.4589 20.7142L16.0895 19.0666L16.5322 18.7895L16.8246 18.6016L17.7312 18.0355L18.1833 17.7572L20.1609 16.5148L20.3523 16.3926L22.0516 15.3287L22.2689 15.1936L23.253 14.5759L36.0122 6.57861H39.0068L39.3145 7.06246Z" fill="#FCF5FF"/>
<path d="M39.2135 7.18811L26.4448 15.1936L24.5295 16.3926L23.253 17.1959L22.2489 17.8265L22.0516 17.9498L20.2713 19.0666L18.9173 19.9133L18.1833 20.3748L17.7312 20.6567L17.6408 20.7142L16.5322 21.4118L15.7254 21.9132L1.12243 31.0743H0.244019V29.927L13.0174 21.9132L14.9327 20.7142L16.5322 19.7113L16.8246 19.5281L17.5633 19.0666L17.7312 18.9574L18.9173 18.2188L20.8949 16.9751L21.8214 16.3926L22.0516 16.2506L23.253 15.4954L23.7368 15.1936L37.4755 6.57861H38.8342H39.3145L39.318 7.11529L39.2135 7.18811Z" fill="#F42525"/>
<path d="M39.3333 15.1936H0.209991V21.9144H39.3333V15.1936Z" fill="white"/>
<path d="M39.3333 16.3926H0.209991V20.7142H39.3333V16.3926Z" fill="#F42525"/>
<path d="M22.0516 6.57861H17.7312V31.0743H22.0516V6.57861Z" fill="#CD002A"/>
<path d="M22.0423 21.9132H23.2424V31.0743H16.5217V21.9132H17.7218V15.1936H16.5217V6.57861H23.2424V15.1936H22.0423V21.9132Z" fill="white"/>
<path d="M22.0646 6.57861H17.6984V31.0743H22.0646V6.57861Z" fill="#F42525"/>
</g>
</g>
<defs>
<filter id="filter0_d_2249_17939" x="0" y="0.5" width="40" height="40" filterUnits="userSpaceOnUse" color-interpolation-filters="sRGB">
<feFlood flood-opacity="0" result="BackgroundImageFix"/>
<feColorMatrix in="SourceAlpha" type="matrix" values="0 0 0 0 0 0 0 0 0 0 0 0 0 0 0 0 0 0 127 0" result="hardAlpha"/>
<feOffset dy="2"/>
<feGaussianBlur stdDeviation="4"/>
<feComposite in2="hardAlpha" operator="out"/>
<feColorMatrix type="matrix" values="0 0 0 0 0.758333 0 0 0 0 0.726736 0 0 0 0 0.726736 0 0 0 0.24 0"/>
<feBlend mode="normal" in2="BackgroundImageFix" result="effect1_dropShadow_2249_17939"/>
<feBlend mode="normal" in="SourceGraphic" in2="effect1_dropShadow_2249_17939" result="shape"/>
</filter>
<clipPath id="clip0_2249_17939">
<rect x="8" y="6.5" width="24" height="24" rx="12" fill="white"/>
</clipPath>
</defs>
</svg>
