<svg width="24" height="24" viewBox="0 0 24 24" fill="none" xmlns="http://www.w3.org/2000/svg">
<path d="M22.0642 12.182C22.0642 11.3564 21.9956 10.7539 21.8473 10.1292H12.1997V13.8555H17.8626C17.7485 14.7815 17.1319 16.1762 15.7619 17.1133L15.7426 17.238L18.793 19.5472L19.0044 19.5679C20.9453 17.8162 22.0642 15.239 22.0642 12.182Z" fill="#4285F4"/>
<path d="M12.1998 22C14.9742 22 17.3033 21.1074 19.0045 19.5678L15.762 17.1132C14.8943 17.7045 13.7297 18.1173 12.1998 18.1173C9.48256 18.1173 7.1763 16.3657 6.35419 13.9447L6.23369 13.9547L3.06187 16.3534L3.02039 16.4661C4.71011 19.7462 8.18095 22 12.1998 22Z" fill="#34A853"/>
<path d="M6.35415 13.9447C6.13723 13.3199 6.01169 12.6504 6.01169 11.9587C6.01169 11.267 6.13723 10.5976 6.34274 9.9728L6.337 9.83974L3.12542 7.40247L3.02034 7.45131C2.32392 8.81247 1.92432 10.341 1.92432 11.9587C1.92432 13.5765 2.32392 15.1049 3.02034 16.4661L6.35415 13.9447Z" fill="#FBBC05"/>
<path d="M12.1999 5.80017C14.1294 5.80017 15.4309 6.61462 16.1731 7.29523L19.073 4.52831C17.292 2.91057 14.9742 1.9176 12.1999 1.9176C8.18097 1.9176 4.71012 4.17127 3.02039 7.45137L6.34279 9.97286C7.17633 7.55182 9.48259 5.80017 12.1999 5.80017Z" fill="#EB4335"/>
</svg>
