<svg width="184" height="54" viewBox="0 0 184 54" fill="none" xmlns="http://www.w3.org/2000/svg">
<path d="M176.612 53.1294H6.79279C3.05845 53.1294 0 50.1392 0 46.4882V6.64127C0 2.99029 3.05845 0.000107765 6.79279 0.000107765H176.612C180.347 0.000107765 183.405 2.99029 183.405 6.64127V46.4882C183.405 50.1392 180.347 53.1294 176.612 53.1294Z" fill="black"/>
<path d="M176.612 1.06435C179.757 1.06435 182.317 3.56641 182.317 6.64127V46.4882C182.317 49.5631 179.757 52.0651 176.612 52.0651H6.79279C3.64773 52.0651 1.08854 49.5631 1.08854 46.4882V6.64127C1.08854 3.56641 3.64773 1.06435 6.79279 1.06435H176.612ZM176.612 0.000107765H6.79279C3.05845 0.000107765 0 2.99029 0 6.64127V46.4882C0 50.1392 3.05845 53.1294 6.79279 53.1294H176.612C180.347 53.1294 183.405 50.1392 183.405 46.4882V6.64127C183.405 2.99029 180.347 0.000107765 176.612 0.000107765Z" fill="#A6A6A6"/>
<path d="M14.1769 10.0137C13.7778 10.4222 13.5469 11.058 13.5469 11.8816V41.2554C13.5469 42.0789 13.7778 42.7148 14.1769 43.1232L14.2754 43.2129L31.1113 26.7594V26.3709L14.2754 9.91743L14.1769 10.0137Z" fill="url(#paint0_linear_1690_77962)"/>
<path d="M36.7171 32.2466L31.1113 26.7593V26.3708L36.7239 20.8836L36.8495 20.9549L43.4963 24.6524C45.3932 25.7017 45.3932 27.4284 43.4963 28.4844L36.8495 32.1752L36.7171 32.2466Z" fill="url(#paint1_linear_1690_77962)"/>
<path d="M36.8494 32.1751L31.1112 26.5649L14.1768 43.123C14.8068 43.7705 15.8342 43.8486 17.0026 43.201L36.8494 32.1751Z" fill="url(#paint2_linear_1690_77962)"/>
<path d="M36.8494 20.9548L17.0026 9.92884C15.8342 9.28797 14.8068 9.366 14.1768 10.0135L31.1112 26.5649L36.8494 20.9548Z" fill="url(#paint3_linear_1690_77962)"/>
<path d="M64.4193 13.6059C64.4193 14.715 64.0797 15.6033 63.4106 16.2657C62.6413 17.051 61.6394 17.4462 60.4116 17.4462C59.2381 17.4462 58.2362 17.0444 57.4143 16.2524C56.5906 15.4489 56.1797 14.4626 56.1797 13.2822C56.1797 12.1017 56.5906 11.1155 57.4143 10.3186C58.2362 9.51996 59.2381 9.11816 60.4116 9.11816C60.9958 9.11816 61.5528 9.23604 62.0843 9.4552C62.6142 9.67602 63.0455 9.97487 63.358 10.3435L62.6481 11.0441C62.103 10.4149 61.3609 10.1044 60.4116 10.1044C59.5557 10.1044 58.8136 10.3966 58.1836 10.986C57.5603 11.5771 57.2478 12.3424 57.2478 13.2822C57.2478 14.2219 57.5603 14.9939 58.1836 15.585C58.8136 16.1678 59.5557 16.4666 60.4116 16.4666C61.3201 16.4666 62.0843 16.1678 62.6872 15.5784C63.0846 15.1882 63.3104 14.6503 63.3699 13.9629H60.4116V13.0032H64.3582C64.4057 13.2108 64.4193 13.4117 64.4193 13.6059Z" fill="white" stroke="white" stroke-width="0.16" stroke-miterlimit="10"/>
<path d="M70.6805 10.2787H66.9733V12.8023H70.3154V13.762H66.9733V16.2856H70.6805V17.2635H65.9238V9.30078H70.6805V10.2787Z" fill="white" stroke="white" stroke-width="0.16" stroke-miterlimit="10"/>
<path d="M75.0997 17.2635H74.0502V10.2787H71.7764V9.30078H77.3753V10.2787H75.0997V17.2635Z" fill="white" stroke="white" stroke-width="0.16" stroke-miterlimit="10"/>
<path d="M81.4268 17.2635V9.30078H82.4745V17.2635H81.4268Z" fill="white" stroke="white" stroke-width="0.16" stroke-miterlimit="10"/>
<path d="M87.1193 17.2635H86.0783V10.2787H83.7959V9.30078H89.4016V10.2787H87.1193V17.2635Z" fill="white" stroke="white" stroke-width="0.16" stroke-miterlimit="10"/>
<path d="M100.002 16.2392C99.1983 17.0444 98.2031 17.4462 97.0161 17.4462C95.8223 17.4462 94.8271 17.0444 94.0239 16.2392C93.2223 15.4356 92.8232 14.4494 92.8232 13.2822C92.8232 12.115 93.2223 11.1288 94.0239 10.3252C94.8271 9.51995 95.8223 9.11816 97.0161 9.11816C98.1963 9.11816 99.1915 9.51995 99.9947 10.3318C100.803 11.1421 101.202 12.1216 101.202 13.2822C101.202 14.4494 100.803 15.4356 100.002 16.2392ZM94.7999 15.5717C95.4045 16.1678 96.1398 16.4666 97.0161 16.4666C97.8856 16.4666 98.6277 16.1678 99.2254 15.5717C99.8283 14.9757 100.134 14.2103 100.134 13.2822C100.134 12.3541 99.8283 11.5887 99.2254 10.9926C98.6277 10.3966 97.8856 10.0977 97.0161 10.0977C96.1398 10.0977 95.4045 10.3966 94.7999 10.9926C94.1971 11.5887 93.8914 12.3541 93.8914 13.2822C93.8914 14.2103 94.1971 14.9757 94.7999 15.5717Z" fill="white" stroke="white" stroke-width="0.16" stroke-miterlimit="10"/>
<path d="M102.675 17.2635V9.30078H103.948L107.909 15.4937H107.954L107.909 13.9629V9.30078H108.956V17.2635H107.863L103.716 10.7652H103.67L103.716 12.3026V17.2635H102.675Z" fill="white" stroke="white" stroke-width="0.16" stroke-miterlimit="10"/>
<path d="M92.565 28.8927C89.3741 28.8927 86.7673 31.2669 86.7673 34.5427C86.7673 37.7919 89.3741 40.191 92.565 40.191C95.7627 40.191 98.3694 37.7919 98.3694 34.5427C98.3694 31.2669 95.7627 28.8927 92.565 28.8927ZM92.565 37.9662C90.8141 37.9662 89.3078 36.5533 89.3078 34.5427C89.3078 32.5055 90.8141 31.1175 92.565 31.1175C94.3158 31.1175 95.8289 32.5055 95.8289 34.5427C95.8289 36.5533 94.3158 37.9662 92.565 37.9662ZM79.9151 28.8927C76.7174 28.8927 74.1175 31.2669 74.1175 34.5427C74.1175 37.7919 76.7174 40.191 79.9151 40.191C83.1111 40.191 85.7128 37.7919 85.7128 34.5427C85.7128 31.2669 83.1111 28.8927 79.9151 28.8927ZM79.9151 37.9662C78.1626 37.9662 76.6512 36.5533 76.6512 34.5427C76.6512 32.5055 78.1626 31.1175 79.9151 31.1175C81.6659 31.1175 83.1723 32.5055 83.1723 34.5427C83.1723 36.5533 81.6659 37.9662 79.9151 37.9662ZM64.8623 30.6244V33.0252H70.7262C70.5547 34.3667 70.0961 35.3529 69.3931 36.0403C68.5372 36.8704 67.2041 37.7919 64.8623 37.7919C61.2536 37.7919 58.4278 34.9445 58.4278 31.4164C58.4278 27.8883 61.2536 25.0409 64.8623 25.0409C66.8135 25.0409 68.2332 25.7863 69.281 26.7526L71.0115 25.0608C69.5459 23.6927 67.5964 22.6417 64.8623 22.6417C59.9138 22.6417 55.7549 26.5783 55.7549 31.4164C55.7549 36.2545 59.9138 40.191 64.8623 40.191C67.537 40.191 69.5459 39.3343 71.1253 37.7271C72.7436 36.1449 73.248 33.9201 73.248 32.1236C73.248 31.5658 73.2004 31.0528 73.1155 30.6244H64.8623ZM126.415 32.4856C125.938 31.2221 124.466 28.8927 121.467 28.8927C118.495 28.8927 116.02 31.1823 116.02 34.5427C116.02 37.7072 118.469 40.191 121.752 40.191C124.406 40.191 125.938 38.6087 126.568 37.6873L124.598 36.4039C123.941 37.3436 123.046 37.9662 121.752 37.9662C120.466 37.9662 119.544 37.3901 118.953 36.2545L126.682 33.1281L126.415 32.4856ZM118.535 34.3667C118.469 32.1884 120.266 31.0727 121.553 31.0727C122.562 31.0727 123.418 31.5658 123.703 32.2714L118.535 34.3667ZM112.254 39.8473H114.794V23.2444H112.254V39.8473ZM108.093 30.1512H108.008C107.438 29.4904 106.349 28.8927 104.97 28.8927C102.077 28.8927 99.4308 31.3765 99.4308 34.561C99.4308 37.7271 102.077 40.191 104.97 40.191C106.349 40.191 107.438 39.5883 108.008 38.9076H108.093V39.7178C108.093 41.8779 106.913 43.0384 105.009 43.0384C103.457 43.0384 102.494 41.9426 102.097 41.0211L99.8876 41.9227C100.524 43.4203 102.211 45.2632 105.009 45.2632C107.988 45.2632 110.501 43.5498 110.501 39.3808V29.2364H108.093V30.1512ZM105.188 37.9662C103.437 37.9662 101.971 36.5334 101.971 34.561C101.971 32.5703 103.437 31.1175 105.188 31.1175C106.913 31.1175 108.273 32.5703 108.273 34.561C108.273 36.5334 106.913 37.9662 105.188 37.9662ZM138.309 23.2444H132.233V39.8473H134.767V33.5565H138.309C141.123 33.5565 143.883 31.5658 143.883 28.3996C143.883 25.2351 141.116 23.2444 138.309 23.2444ZM138.376 31.247H134.767V25.5539H138.376C140.267 25.5539 141.347 27.0897 141.347 28.3996C141.347 29.6847 140.267 31.247 138.376 31.247ZM154.038 28.8612C152.207 28.8612 150.304 29.6515 149.521 31.4031L151.769 32.3245C152.253 31.4031 153.143 31.1042 154.084 31.1042C155.398 31.1042 156.731 31.8763 156.752 33.2394V33.4137C156.293 33.1547 155.312 32.7712 154.104 32.7712C151.683 32.7712 149.215 34.0745 149.215 36.5068C149.215 38.7316 151.199 40.1644 153.428 40.1644C155.133 40.1644 156.074 39.4123 156.665 38.5374H156.752V39.8208H159.199V33.4519C159.199 30.5082 156.95 28.8612 154.038 28.8612ZM153.732 37.9596C152.904 37.9596 151.749 37.5578 151.749 36.5533C151.749 35.2682 153.189 34.7751 154.435 34.7751C155.551 34.7751 156.074 35.0159 156.752 35.333C156.553 36.8704 155.2 37.9596 153.732 37.9596ZM168.114 29.2248L165.202 36.4221H165.115L162.104 29.2248H159.372L163.896 39.2828L161.315 44.8797H163.962L170.933 29.2248H168.114ZM145.275 39.8473H147.816V23.2444H145.275V39.8473Z" fill="white"/>
<defs>
<linearGradient id="paint0_linear_1690_77962" x1="29.6165" y1="41.5613" x2="7.33124" y2="18.7673" gradientUnits="userSpaceOnUse">
<stop stop-color="#00A0FF"/>
<stop offset="0.0066" stop-color="#00A1FF"/>
<stop offset="0.2601" stop-color="#00BEFF"/>
<stop offset="0.5122" stop-color="#00D2FF"/>
<stop offset="0.7604" stop-color="#00DFFF"/>
<stop offset="1" stop-color="#00E3FF"/>
</linearGradient>
<linearGradient id="paint1_linear_1690_77962" x1="45.9663" y1="26.5632" x2="13.0935" y2="26.5632" gradientUnits="userSpaceOnUse">
<stop stop-color="#FFE000"/>
<stop offset="0.4087" stop-color="#FFBD00"/>
<stop offset="0.7754" stop-color="#FFA500"/>
<stop offset="1" stop-color="#FF9C00"/>
</linearGradient>
<linearGradient id="paint2_linear_1690_77962" x1="33.7291" y1="23.5152" x2="3.50851" y2="-7.39539" gradientUnits="userSpaceOnUse">
<stop stop-color="#FF3A44"/>
<stop offset="1" stop-color="#C31162"/>
</linearGradient>
<linearGradient id="paint3_linear_1690_77962" x1="9.91401" y1="52.8956" x2="23.4089" y2="39.0927" gradientUnits="userSpaceOnUse">
<stop stop-color="#32A071"/>
<stop offset="0.0685" stop-color="#2DA771"/>
<stop offset="0.4762" stop-color="#15CF74"/>
<stop offset="0.8009" stop-color="#06E775"/>
<stop offset="1" stop-color="#00F076"/>
</linearGradient>
</defs>
</svg>