<svg width="12" height="14" viewBox="0 0 12 14" fill="none" xmlns="http://www.w3.org/2000/svg">
<path fill-rule="evenodd" clip-rule="evenodd" d="M8.94059 0.845666L8.94125 1.34542C10.7777 1.48934 11.9908 2.74072 11.9928 4.65976L12 10.2769C12.0026 12.3692 10.6882 13.6566 8.58121 13.6599L3.4346 13.6666C1.3408 13.6692 0.00988434 12.3512 0.00725146 10.253L1.10606e-05 4.70173C-0.00262181 2.77004 1.16769 1.52199 3.00412 1.35341L3.00346 0.853662C3.0028 0.560475 3.22002 0.339919 3.50963 0.339919C3.79925 0.339253 4.01646 0.559143 4.01712 0.852329L4.01778 1.31876L7.9276 1.31343L7.92694 0.846998C7.92628 0.553812 8.14349 0.333922 8.43311 0.333256C8.71614 0.332589 8.93994 0.552479 8.94059 0.845666ZM1.01432 4.90763L10.9798 4.8943V4.66109C10.9514 3.22847 10.2327 2.47685 8.94257 2.3649L8.94322 2.87798C8.94322 3.1645 8.72009 3.39172 8.43705 3.39172C8.14744 3.39239 7.92957 3.16584 7.92957 2.87931L7.92891 2.33958L4.01909 2.34491L4.01975 2.88398C4.01975 3.17117 3.8032 3.39772 3.51358 3.39772C3.22396 3.39839 3.00609 3.1725 3.00609 2.88531L3.00543 2.37223C1.72191 2.50084 1.01169 3.25512 1.01367 4.7004L1.01432 4.90763ZM8.15994 7.93611V7.94344C8.16653 8.24996 8.41665 8.48251 8.72009 8.47584C9.01629 8.46851 9.25259 8.21464 9.24601 7.90813C9.23218 7.61494 8.99457 7.37573 8.69903 7.37639C8.39625 7.38306 8.15929 7.6296 8.15994 7.93611ZM8.70363 10.9279C8.40085 10.9213 8.15665 10.6687 8.156 10.3622C8.14941 10.0557 8.3923 9.80185 8.69508 9.79452H8.70166C9.01102 9.79452 9.2618 10.0471 9.2618 10.3602C9.26246 10.6734 9.01234 10.9273 8.70363 10.9279ZM5.44808 7.94678C5.46125 8.25329 5.71203 8.4925 6.01481 8.47918C6.31101 8.46518 6.54731 8.21198 6.53414 7.90546C6.5269 7.60561 6.28336 7.3724 5.98716 7.37306C5.68438 7.38639 5.44743 7.64026 5.44808 7.94678ZM6.01744 10.898C5.71466 10.9113 5.46454 10.6721 5.45072 10.3656C5.45072 10.0591 5.68702 9.80584 5.9898 9.79185C6.286 9.79119 6.5302 10.0244 6.53678 10.3236C6.5506 10.6308 6.31364 10.884 6.01744 10.898ZM2.73622 7.9701C2.74939 8.27661 3.00017 8.51649 3.30295 8.5025C3.59915 8.48917 3.83545 8.2353 3.82163 7.92878C3.81504 7.62893 3.5715 7.39572 3.27465 7.39638C2.97187 7.40971 2.73557 7.66358 2.73622 7.9701ZM3.30558 10.9013C3.0028 10.9153 2.75268 10.6754 2.73886 10.3689C2.7382 10.0624 2.97516 9.80851 3.27794 9.79518C3.57414 9.79452 3.81834 10.0277 3.82492 10.3276C3.83874 10.6341 3.60244 10.888 3.30558 10.9013Z" fill="#979797"/>
</svg>
