<svg width="12" height="15" viewBox="0 0 12 15" fill="none" xmlns="http://www.w3.org/2000/svg">
<path d="M6.35743 0.512695C4.89926 0.514416 3.50132 1.09443 2.47024 2.12551C1.43916 3.15659 0.859148 4.55453 0.857428 6.0127C0.855681 7.20431 1.24492 8.36359 1.96543 9.3127C1.96543 9.3127 2.11543 9.5102 2.13993 9.5387L6.35743 14.5127L10.5769 9.5362C10.5989 9.5097 10.7494 9.3127 10.7494 9.3127L10.7499 9.3112C11.4701 8.3625 11.8591 7.20376 11.8574 6.0127C11.8557 4.55453 11.2757 3.15659 10.2446 2.12551C9.21354 1.09443 7.81559 0.514416 6.35743 0.512695ZM6.35743 8.0127C5.96186 8.0127 5.57519 7.8954 5.24629 7.67563C4.91739 7.45587 4.66104 7.14351 4.50967 6.77806C4.35829 6.41261 4.31869 6.01048 4.39586 5.62251C4.47303 5.23455 4.66351 4.87819 4.94321 4.59848C5.22292 4.31878 5.57929 4.12829 5.96725 4.05112C6.35521 3.97395 6.75734 4.01356 7.12279 4.16494C7.48825 4.31631 7.8006 4.57266 8.02037 4.90156C8.24013 5.23045 8.35743 5.61713 8.35743 6.0127C8.35677 6.54293 8.14584 7.05125 7.77091 7.42618C7.39598 7.80111 6.88766 8.01203 6.35743 8.0127Z" fill="#6B7580"/>
</svg>
