<svg width="32" height="32" viewBox="0 0 32 32" fill="none" xmlns="http://www.w3.org/2000/svg">
<rect x="11" y="5.00012" width="21" height="20" rx="4" fill="#FDE8EB"/>
<path d="M24.9785 11.7867H23.567C22.3665 8.93627 19.7231 6.86479 16.6799 6.46916C13.6641 6.06711 10.701 7.22789 8.76239 9.56455C8.19251 10.2515 7.74046 10.9984 7.40948 11.7867H6.02148C4.90679 11.7867 4 12.6935 4 13.8082V16.5035C4 17.6182 4.90679 18.525 6.02148 18.525H8.78872L8.4992 17.6413C7.65624 15.067 8.1307 12.4369 9.80013 10.4253C11.4406 8.44784 13.9457 7.46935 16.5049 7.80496C19.2113 8.15751 21.5605 10.0715 22.4912 12.6823L22.4969 12.6974C22.6469 13.0962 22.7522 13.5062 22.8127 13.928C23.0148 15.1881 22.8996 16.4654 22.4805 17.6216L22.4775 17.6296C21.4371 20.5836 18.6387 22.568 15.5132 22.568C14.3912 22.568 13.4785 23.4748 13.4785 24.5895C13.4785 25.7042 14.3853 26.611 15.5 26.611C16.6147 26.611 17.5215 25.7042 17.5215 24.5895V23.6807C20.212 23.0412 22.472 21.134 23.5582 18.525H24.9785C26.0932 18.525 27 17.6182 27 16.5035V13.8082C27 12.6935 26.0932 11.7867 24.9785 11.7867Z" fill="#ED1C24"/>
<path d="M9.43555 19.8712V21.2189H15.5C18.8441 21.2189 21.5645 18.4985 21.5645 15.1544C21.5645 11.8103 18.8441 9.08997 15.5 9.08997C12.1559 9.08997 9.43555 11.8103 9.43555 15.1544C9.43555 16.5179 9.89353 17.8353 10.7306 18.9006C10.568 19.4685 10.0495 19.8712 9.43555 19.8712ZM17.5215 14.4806H18.8691V15.8282H17.5215V14.4806ZM14.8262 14.4806H16.1738V15.8282H14.8262V14.4806ZM12.1309 14.4806H13.4785V15.8282H12.1309V14.4806Z" fill="#ED1C24"/>
</svg>
