<svg width="49" height="25" viewBox="0 0 49 25" fill="none" xmlns="http://www.w3.org/2000/svg">
<g clip-path="url(#clip0_251_1852)">
<path fill-rule="evenodd" clip-rule="evenodd" d="M11.19 23.8H6.03003V7.60999L11.19 11.74V23.8Z" fill="white"/>
<path fill-rule="evenodd" clip-rule="evenodd" d="M28.09 9.1L31.47 4.78H14.75V23.8H19.89V16.93H23.68L27.1 12.61H19.89V9.1H28.09Z" fill="white"/>
<path fill-rule="evenodd" clip-rule="evenodd" d="M6.03001 7.61L2.45001 4.78H6.03001V7.61Z" fill="white"/>
<path fill-rule="evenodd" clip-rule="evenodd" d="M6.03 4.78L0 0H6.03V4.78Z" fill="white"/>
<path fill-rule="evenodd" clip-rule="evenodd" d="M40.52 24.16C38.6797 24.1834 36.8622 23.7505 35.23 22.9C33.6931 22.0912 32.4066 20.8774 31.51 19.39C30.6087 17.8541 30.1453 16.1007 30.17 14.32C30.1453 12.5393 30.6087 10.7859 31.51 9.25C32.4117 7.75955 33.7054 6.54539 35.25 5.74C36.902 4.88491 38.74 4.45204 40.6 4.48C42.1408 4.46017 43.6702 4.74567 45.1 5.32C46.2238 5.77919 47.2439 6.45929 48.1 7.32L48.4 7.63L45.52 11.33L45.13 10.93C44.591 10.3167 43.926 9.82683 43.1805 9.49377C42.435 9.16071 41.6265 8.99229 40.81 9C39.8319 8.99424 38.8672 9.22768 38 9.68C37.2042 10.1042 36.5453 10.7458 36.1 11.53C35.6277 12.3828 35.3896 13.3454 35.41 14.32C35.3921 15.2848 35.6302 16.2371 36.1 17.08C36.5418 17.8847 37.2 18.5498 38 19C38.8605 19.4597 39.8247 19.6904 40.8 19.67C41.7487 19.6541 42.6817 19.4251 43.53 19L43.59 17H41.18L37.75 12.67H48.32V21.67L48.13 21.81C47.0554 22.605 45.8508 23.2073 44.57 23.59C43.2557 23.9797 41.8908 24.1718 40.52 24.16Z" fill="white"/>
<path fill-rule="evenodd" clip-rule="evenodd" d="M11.19 4.78H6.03003L11.19 8.92V4.78Z" fill="white"/>
</g>
<defs>
<clipPath id="clip0_251_1852">
<rect width="48.4" height="24.16" fill="white"/>
</clipPath>
</defs>
</svg>
