<svg width="20" height="21" viewBox="0 0 20 21" fill="none" xmlns="http://www.w3.org/2000/svg">
<path d="M10 2.58006C5.58171 2.58006 2 6.16178 2 10.5801C2 14.9983 5.58171 18.5801 10 18.5801C14.4183 18.5801 18 14.9983 18 10.5801C18 6.16178 14.4183 2.58006 10 2.58006ZM9.01475 6.0984C9.01475 5.83804 9.11818 5.58834 9.30228 5.40424C9.48638 5.22013 9.73608 5.1167 9.99644 5.1167C10.2568 5.1167 10.5065 5.22013 10.6906 5.40424C10.8747 5.58834 10.9781 5.83804 10.9781 6.0984V11.7823C10.9781 12.0426 10.8747 12.2923 10.6906 12.4765C10.5065 12.6606 10.2568 12.764 9.99644 12.764C9.73608 12.764 9.48638 12.6606 9.30228 12.4764C9.11818 12.2923 9.01475 12.0426 9.01475 11.7823V6.0984ZM10.8608 15.6842C10.6622 15.88 10.402 16.001 10.1243 16.0266C9.84662 16.0523 9.56863 15.9809 9.33762 15.8247C9.1066 15.6685 8.93683 15.4371 8.85717 15.1699C8.77751 14.9026 8.79288 14.616 8.90066 14.3588C9.00845 14.1016 9.202 13.8897 9.44839 13.7591C9.69479 13.6285 9.97881 13.5873 10.2522 13.6425C10.5255 13.6977 10.7713 13.8458 10.9478 14.0618C11.1242 14.2777 11.2204 14.5481 11.22 14.827C11.2213 14.9867 11.1902 15.1451 11.1284 15.2925C11.0667 15.4398 10.9756 15.5731 10.8608 15.6842V15.6842Z" fill="#FBB04C"/>
</svg>
