<svg width="24" height="24" viewBox="0 0 24 24" fill="none" xmlns="http://www.w3.org/2000/svg">
<path d="M16.334 2H7.665C4.276 2 2 4.378 2 7.917V16.084C2 19.622 4.276 22 7.665 22H16.333C19.722 22 22 19.622 22 16.084V7.917C22 4.378 19.723 2 16.334 2Z" fill="#FDE8EB"/>
<path fill-rule="evenodd" clip-rule="evenodd" d="M11.3144 11.2484H17.0144C17.4244 11.2484 17.7644 11.5884 17.7644 11.9984V13.8484C17.7644 14.2684 17.4244 14.5984 17.0144 14.5984C16.5944 14.5984 16.2644 14.2684 16.2644 13.8484V12.7484H14.9344V13.8484C14.9344 14.2684 14.5944 14.5984 14.1844 14.5984C13.7644 14.5984 13.4344 14.2684 13.4344 13.8484V12.7484H11.3144C10.9944 13.8184 10.0144 14.5984 8.84437 14.5984C7.40437 14.5984 6.23438 13.4384 6.23438 11.9984C6.23438 10.5684 7.40437 9.39844 8.84437 9.39844C10.0144 9.39844 10.9944 10.1784 11.3144 11.2484ZM7.73438 11.9984C7.73438 12.6084 8.23438 13.0984 8.84438 13.0984C9.44438 13.0984 9.94438 12.6084 9.94438 11.9984C9.94438 11.3884 9.44438 10.8984 8.84438 10.8984C8.23438 10.8984 7.73438 11.3884 7.73438 11.9984Z" fill="#ED1C24"/>
</svg>
