<svg width="21" height="21" viewBox="0 0 21 21" fill="none" xmlns="http://www.w3.org/2000/svg">
<path d="M10.1875 1.7449C7.26094 1.75206 4.88083 4.14384 4.88799 7.07038L4.89566 10.2064C3.92226 11.3958 3.33979 12.9173 3.34384 14.5742C3.3457 15.3367 3.46964 16.0678 3.70256 16.7517L16.839 16.4223C17.0063 15.825 17.0954 15.1937 17.0938 14.5405C17.0897 12.8836 16.4998 11.3651 15.5206 10.1804L15.513 7.04439C15.5058 4.11785 13.114 1.73774 10.1875 1.7449ZM10.1905 2.9949C12.4415 2.98939 14.2575 4.79651 14.263 7.04745L14.2677 9.0024C13.1274 8.16978 11.7222 7.67867 10.202 7.68239C8.68185 7.6861 7.27903 8.18408 6.14277 9.02227L6.13799 7.06732C6.13248 4.81638 7.93959 3.0004 10.1905 2.9949ZM10.2096 10.8074C10.9 10.8057 11.461 11.364 11.4627 12.0543C11.4638 12.5159 11.212 12.915 10.8403 13.1325L10.8423 13.9308C10.8431 14.2761 10.5641 14.5565 10.2188 14.5574C9.87351 14.5582 9.59314 14.2792 9.59229 13.9339L9.59034 13.1356C9.21762 12.9199 8.96384 12.522 8.96271 12.0604C8.96102 11.3701 9.51934 10.8091 10.2096 10.8074ZM3.95069 17.3852C4.2052 17.9502 4.53136 18.4744 4.92314 18.9453L15.5359 18.9194C15.9254 18.4465 16.249 17.9207 16.5007 17.3545L3.95069 17.3852Z" fill="#ED1C24"/>
</svg>
