<svg width="25" height="25" viewBox="0 0 25 25" fill="none" xmlns="http://www.w3.org/2000/svg">
<g clip-path="url(#clip0_1_214592)">
<path d="M12.123 0.865504C11.3547 0.867383 10.6969 1.33249 10.409 1.9947L8.37579 1.99967L8.38129 4.24967C8.3823 4.66404 8.71875 4.99884 9.13312 4.99783L15.1331 4.98315C15.5475 4.98214 15.8823 4.6457 15.8813 4.23132L15.8758 1.98133L13.8426 1.9863C13.5514 1.32551 12.8914 0.863625 12.123 0.865504ZM4.2508 2.00976L4.30033 22.2597L13.9038 22.2362C13.6739 21.7718 13.5039 21.2659 13.4014 20.7374L5.79666 20.756L5.75538 3.88109L7.63037 3.8765L7.62579 2.00151L4.2508 2.00976ZM12.1258 1.9905C12.5401 1.98949 12.8766 2.32429 12.8776 2.73866C12.8786 3.15304 12.5438 3.48948 12.1294 3.4905C11.7151 3.49151 11.3786 3.15671 11.3776 2.74233C11.3766 2.32796 11.7114 1.99151 12.1258 1.9905ZM16.6258 1.97949L16.6303 3.85449L18.5053 3.8499L18.5293 13.6489C18.7767 13.6146 19.0242 13.5987 19.2792 13.598C19.5342 13.5974 19.7817 13.6115 20.0293 13.6409L20.0008 1.97124L16.6258 1.97949ZM12.1395 7.61548C11.1042 7.61802 10.2666 8.45969 10.2691 9.49506L10.2698 9.76313C10.2723 10.7985 11.0786 11.9035 12.15 11.9009C13.2214 11.8983 14.0223 10.7893 14.0198 9.75396L14.0191 9.48589C14.0166 8.45052 13.1749 7.61295 12.1395 7.61548ZM12.1533 13.2405C10.7658 13.2439 9.5516 13.5733 8.87341 13.8037C8.52495 13.9245 8.26305 14.2178 8.19269 14.5817L8.04083 15.3768C9.0038 16.5894 10.4909 17.3695 12.1634 17.3655C12.7521 17.364 13.3182 17.265 13.8465 17.0837C14.3352 16.0213 15.1238 15.1269 16.1086 14.5133C16.0252 14.176 15.7737 13.903 15.4359 13.7876C14.7566 13.5605 13.5408 13.2371 12.1533 13.2405ZM19.281 14.348C16.5885 14.3546 14.4114 16.5425 14.418 19.2349C14.4245 21.9274 16.6124 24.1046 19.3049 24.098C21.9974 24.0914 24.1745 21.9036 24.1679 19.2111C24.1613 16.5186 21.9735 14.3415 19.281 14.348ZM21.4171 17.4849L22.1579 18.2236L18.9235 21.4739L16.6675 19.3474L17.2927 18.6215L18.9189 19.5989L21.4171 17.4849Z" fill="#ED1C24"/>
</g>
<defs>
<clipPath id="clip0_1_214592">
<rect width="24" height="24" fill="white" transform="translate(0.12207 0.519531) rotate(-0.140141)"/>
</clipPath>
</defs>
</svg>
