<svg width="24" height="24" viewBox="0 0 24 24" fill="none" xmlns="http://www.w3.org/2000/svg">
<path d="M4 19.2783C4 21.0132 4.85498 21.8848 6.57324 21.8848H14.376C16.0942 21.8848 16.9492 21.0049 16.9492 19.2783V17.7427H18.4019C20.1118 17.7427 20.9751 16.8628 20.9751 15.1362V8.396C20.9751 7.375 20.7676 6.72754 20.145 6.08838L15.9531 1.83008C15.3638 1.22412 14.6665 1 13.7783 1H10.5991C8.88916 1 8.02588 1.87988 8.02588 3.60645V5.14209H6.57324C4.86328 5.14209 4 6.01367 4 7.74854V19.2783ZM16.1606 10.5874L11.5869 5.93066C10.9561 5.2832 10.4331 5.14209 9.50342 5.14209H9.3623V3.63135C9.3623 2.80957 9.80225 2.33643 10.6655 2.33643H14.3345V6.59473C14.3345 7.55762 14.7993 8.01416 15.7539 8.01416H19.6387V15.1113C19.6387 15.9414 19.1904 16.4062 18.3271 16.4062H16.9492V12.7954C16.9492 11.7329 16.8247 11.2681 16.1606 10.5874ZM15.5381 6.39551V2.99219L19.29 6.81055H15.9448C15.6543 6.81055 15.5381 6.68604 15.5381 6.39551ZM5.33643 19.2534V7.76514C5.33643 6.95166 5.77637 6.47852 6.63965 6.47852H9.3623V11.293C9.3623 12.3389 9.89355 12.8618 10.9229 12.8618H15.6128V19.2534C15.6128 20.0835 15.1646 20.5483 14.3096 20.5483H6.63135C5.77637 20.5483 5.33643 20.0835 5.33643 19.2534ZM11.0806 11.6084C10.7485 11.6084 10.6157 11.4756 10.6157 11.1436V6.78564L15.3555 11.6084H11.0806Z" fill="black"/>
</svg>
