<svg width="21" height="21" viewBox="0 0 21 21" fill="none" xmlns="http://www.w3.org/2000/svg">
<path d="M10.1885 1.7449C7.26192 1.75206 4.88181 4.14384 4.88897 7.07038L4.89664 10.2064C3.92324 11.3958 3.34076 12.9173 3.34481 14.5742C3.34668 15.3367 3.47061 16.0678 3.70354 16.7517L16.84 16.4223C17.0073 15.825 17.0964 15.1937 17.0948 14.5405C17.0907 12.8836 16.5008 11.3651 15.5216 10.1804L15.5139 7.04439C15.5068 4.11785 13.115 1.73774 10.1885 1.7449ZM10.1915 2.9949C12.4425 2.98939 14.2584 4.79651 14.2639 7.04745L14.2687 9.0024C13.1284 8.16978 11.7231 7.67867 10.203 7.68239C8.68282 7.6861 7.28001 8.18408 6.14374 9.02227L6.13896 7.06732C6.13346 4.81638 7.94057 3.0004 10.1915 2.9949ZM10.2106 10.8074C10.9009 10.8057 11.462 11.364 11.4637 12.0543C11.4648 12.5159 11.213 12.915 10.8413 13.1325L10.8433 13.9308C10.8441 14.2761 10.5651 14.5565 10.2198 14.5574C9.87448 14.5582 9.59411 14.2792 9.59327 13.9339L9.59131 13.1356C9.2186 12.9199 8.96481 12.522 8.96368 12.0604C8.96199 11.3701 9.52031 10.8091 10.2106 10.8074ZM3.95167 17.3852C4.20618 17.9502 4.53234 18.4744 4.92411 18.9453L15.5369 18.9194C15.9263 18.4465 16.2499 17.9207 16.5017 17.3545L3.95167 17.3852Z" fill="#6F7A7B"/>
</svg>
