<svg width="25" height="25" viewBox="0 0 25 25" fill="none" xmlns="http://www.w3.org/2000/svg">
<g clip-path="url(#clip0_1_214355)">
<path d="M12.3319 2.48949C7.16695 2.50213 4.0889 5.34927 4.10055 10.1093L4.1017 10.58C4.09183 10.635 4.08246 10.6997 4.08261 10.7597C4.08275 10.8197 4.09244 10.8844 4.10258 10.9393L4.10515 11.9901C3.48027 12.4514 3.10768 13.1893 3.09349 14.0121L0.840565 14.0176C0.741178 14.0165 0.642551 14.0351 0.550416 14.0724C0.458281 14.1096 0.374475 14.1649 0.303869 14.2348C0.233262 14.3048 0.177264 14.3881 0.139127 14.4799C0.100991 14.5717 0.0814772 14.6701 0.0817203 14.7695C0.0819634 14.8689 0.101958 14.9672 0.140543 15.0588C0.179128 15.1504 0.235534 15.2335 0.306481 15.3031C0.377429 15.3727 0.461504 15.4275 0.553821 15.4643C0.646137 15.5012 0.744854 15.5193 0.844234 15.5176L23.3442 15.4626C23.4436 15.4638 23.5422 15.4452 23.6343 15.4079C23.7265 15.3706 23.8103 15.3154 23.8809 15.2454C23.9515 15.1754 24.0075 15.0922 24.0456 15.0004C24.0837 14.9086 24.1033 14.8101 24.103 14.7107C24.1028 14.6113 24.0828 14.513 24.0442 14.4214C24.0056 14.3298 23.9492 14.2468 23.8782 14.1772C23.8073 14.1076 23.7232 14.0527 23.6309 14.0159C23.5386 13.9791 23.4399 13.961 23.3405 13.9626L21.0876 13.9681C21.0693 13.1504 20.6931 12.419 20.066 11.956L20.064 11.1259C20.0621 10.3509 19.8951 9.65633 19.7389 9.16671C20.0585 9.00093 20.3126 8.7298 20.4568 8.39444C20.6407 7.97899 20.63 7.50421 20.434 7.09469C18.9969 4.1582 16.0419 2.48042 12.3319 2.48949ZM9.48694 8.37147C10.4136 9.04421 12.2607 9.98969 15.2907 9.98228C16.4557 9.97943 17.495 9.79689 18.2995 9.59992C18.4255 9.97461 18.5625 10.5246 18.564 11.1296L18.5671 12.3844C18.5678 12.6744 18.7331 12.9387 18.9984 13.0631C19.3526 13.2247 19.5643 13.5625 19.5837 13.9718L16.0895 13.9803C16.0889 13.7153 15.9831 13.4613 15.7953 13.2743C15.6075 13.0872 15.3531 12.9824 15.0881 12.9828C14.823 12.9837 14.5692 13.0898 14.3823 13.2778C14.1955 13.4657 14.0909 13.7202 14.0915 13.9852L10.0896 13.995C10.0889 13.73 9.98307 13.476 9.79529 13.289C9.6075 13.1019 9.35314 12.9971 9.0881 12.9975C8.82305 12.9984 8.56921 13.1045 8.38234 13.2924C8.19547 13.4804 8.09087 13.7349 8.09152 13.9999L4.59739 14.0084C4.6146 13.5941 4.82468 13.2506 5.17815 13.0871C5.44284 12.9615 5.60688 12.6964 5.60617 12.4064L5.60376 11.421C7.37279 11.0217 8.77936 9.36321 9.48694 8.37147ZM5.21312 17.007C6.34772 20.9292 9.03878 23.4976 12.1138 23.4901C15.1888 23.4826 17.8672 20.901 18.9826 16.9733L17.4133 16.9771C16.4256 19.9795 14.3551 21.9846 12.1101 21.9901C9.86511 21.9956 7.78479 20.0007 6.78246 17.0031L5.21312 17.007Z" fill="#ED1C24"/>
</g>
<defs>
<clipPath id="clip0_1_214355">
<rect width="24" height="24" fill="white" transform="translate(0.0585938 0.519531) rotate(-0.140141)"/>
</clipPath>
</defs>
</svg>
