<svg width="1440" height="1031" viewBox="0 0 1440 1031" fill="none" xmlns="http://www.w3.org/2000/svg">
<path fill-rule="evenodd" clip-rule="evenodd" d="M0.754199 1031H1027.62H1439L1438.25 547.606C1331.78 501.549 1407 613 1176 613C887 613 779.5 721.5 367.5 655C58.5 655 184.5 758 0 785.415L0.754199 1031Z" fill="#FFF5F5"/>
<g opacity="0.6">
<path d="M1447.44 8.44629C1437.63 44.8419 1383.15 223.678 1254.48 252.609C997.233 310.448 776.081 113.711 632.69 298.727C479.509 485.288 201.224 404.326 112.486 415.304C32.3038 425.22 -59.3388 494.862 -76.2441 508.187" stroke="#333333" stroke-opacity="0.1" stroke-width="2.11" stroke-linecap="round" stroke-linejoin="round" stroke-dasharray="1.06 8.45"/>
<path d="M1448 17.7168C1440.22 35.4689 1415.5 89.2156 1378.27 144.425C1345.95 192.378 1303.07 246.69 1242.73 260.765C1065.83 301.55 909.727 218.049 781.169 225.342C722.044 228.915 670.905 250.01 627.2 306.512C604.175 334.67 578.52 356.716 550.257 373.495C391.914 467.083 187.653 411.918 112.091 424.077C32.3332 436.927 -58.2399 501.659 -75.2344 514.234" stroke="#333333" stroke-opacity="0.1" stroke-width="2.11" stroke-linecap="round" stroke-linejoin="round" stroke-dasharray="1.06 8.45"/>
<path d="M1448.46 26.749C1438.18 42.3471 1407.23 88.8963 1368.8 142.747C1334.77 190.41 1292.56 254.207 1230.97 268.913C1054.19 311.125 901.736 223.917 773.891 232.978C714.276 237.205 664.347 259.057 621.698 314.296C598.984 342.224 573.856 364.129 545.326 380.403C384.629 471.384 187.61 417.808 111.692 432.842C32.3566 448.559 -57.1765 508.508 -74.2305 520.295" stroke="#333333" stroke-opacity="0.1" stroke-width="2.11" stroke-linecap="round" stroke-linejoin="round" stroke-dasharray="1.05 8.43"/>
<path d="M1448.96 35.5435C1417.07 68.9633 1387.13 104.197 1359.31 141.068C1323.58 188.435 1282.01 261.649 1219.19 277.069C1042.52 320.447 893.748 230.044 766.601 240.614C706.497 245.613 657.779 268.096 616.184 322.081C593.774 349.778 569.226 371.616 540.421 387.333C377.577 476.086 187.607 423.691 111.332 441.622C32.3984 460.169 -56.1097 515.364 -73.2305 526.364" stroke="#333333" stroke-opacity="0.1" stroke-width="2.11" stroke-linecap="round" stroke-linejoin="round" stroke-dasharray="1.05 8.43"/>
<path d="M1449.61 44.1372C1434.56 54.7439 1391.04 87.6039 1349.82 139.39C1312.37 186.451 1271.47 269.077 1207.43 285.217C1030.83 329.739 885.763 236.194 759.322 248.25C698.727 254.028 651.19 277.136 610.672 329.872C588.567 357.355 564.561 379.043 535.444 394.248C370.298 480.498 187.525 429.544 110.894 450.394C32.4649 471.741 -55.0256 522.249 -72.2207 532.432" stroke="#333333" stroke-opacity="0.1" stroke-width="2.11" stroke-linecap="round" stroke-linejoin="round" stroke-dasharray="1.05 8.43"/>
<path d="M1450.49 52.6489C1433.34 60.5594 1383.18 86.6157 1340.34 137.711C1301.11 184.468 1260.92 276.489 1195.64 293.372C1019.13 339.015 877.733 242.374 752.013 255.885C690.957 262.451 644.653 286.182 605.138 337.656C583.36 364.878 559.903 386.471 530.512 401.17C363.048 484.902 187.495 435.337 110.5 459.165C32.5091 483.268 -53.9342 529.149 -71.2109 538.508" stroke="#333333" stroke-opacity="0.1" stroke-width="2.11" stroke-linecap="round" stroke-linejoin="round" stroke-dasharray="1.06 8.45"/>
<path d="M1451.63 61.1836C1432.63 66.383 1375.47 85.4498 1330.86 136.032C1289.9 182.47 1250.37 283.917 1183.89 301.528C1007.45 348.263 869.794 248.569 744.75 263.528C683.182 270.889 638.088 295.222 599.657 345.441C578.117 372.448 555.24 393.899 525.574 408.085C355.785 489.3 187.466 441.176 110.1 467.938C32.5548 494.766 -52.8857 536.101 -70.207 544.628" stroke="#333333" stroke-opacity="0.1" stroke-width="2.11" stroke-linecap="round" stroke-linejoin="round" stroke-dasharray="1.06 8.44"/>
<path d="M1452.96 69.8374C1432.33 72.4074 1367.83 84.2174 1321.37 134.354C1278.64 180.473 1239.83 291.323 1172.12 309.647C995.752 357.459 861.802 254.764 737.47 271.135C675.404 279.305 631.529 304.24 594.116 353.203C572.903 379.943 550.538 401.297 520.582 414.979C348.513 493.683 187.429 446.955 109.713 476.71C32.599 506.235 -51.8314 543.077 -69.1973 550.705" stroke="#333333" stroke-opacity="0.1" stroke-width="2.11" stroke-linecap="round" stroke-linejoin="round" stroke-dasharray="1.06 8.45"/>
<path d="M1454.42 78.6465C1432.33 78.7208 1360.23 82.9842 1311.89 132.675C1267.37 178.46 1229.28 298.721 1160.37 317.832C984.066 366.699 853.829 261.033 730.195 278.8C667.647 287.787 624.975 313.309 588.653 361.017C567.745 387.563 545.915 408.747 515.714 421.924C341.238 498.042 187.411 452.704 109.316 485.475C32.6478 517.651 -50.7649 550.096 -68.2051 556.78" stroke="#333333" stroke-opacity="0.1" stroke-width="2.11" stroke-linecap="round" stroke-linejoin="round" stroke-dasharray="1.06 8.46"/>
<path d="M1455.97 87.5886C1432.6 85.3603 1352.62 81.7504 1302.41 130.996C1256.08 176.438 1218.73 306.118 1148.59 325.98C972.342 375.886 845.834 267.301 722.899 286.435C659.86 296.247 618.406 322.348 583.132 368.8C562.528 395.116 541.24 416.166 510.765 428.845C333.941 502.379 187.356 458.452 108.928 494.254C32.6529 529.067 -49.772 557.121 -67.1973 562.937" stroke="#333333" stroke-opacity="0.1" stroke-width="2.11" stroke-linecap="round" stroke-linejoin="round" stroke-dasharray="1.06 8.44"/>
<path d="M1457.55 96.6585C1433.04 92.2019 1344.99 80.5627 1292.93 129.34C1244.78 174.426 1208.18 313.546 1136.82 334.158C960.63 385.082 837.858 273.6 715.621 294.093C652.092 304.715 611.826 331.395 577.659 376.585C557.352 402.671 536.599 423.587 505.863 435.769C326.648 506.748 187.305 464.172 108.512 503.034C32.6611 540.44 -48.7684 564.186 -66.2012 569.073" stroke="#333333" stroke-opacity="0.1" stroke-width="2.11" stroke-linecap="round" stroke-linejoin="round" stroke-dasharray="1.05 8.44"/>
<path d="M1459.14 105.831C1433.52 99.3764 1337.33 79.4257 1283.44 127.639C1233.47 172.361 1197.63 320.892 1125.05 342.298C948.914 394.225 829.871 279.906 708.354 301.721C644.335 313.219 605.295 340.449 572.138 384.391C552.136 410.247 531.925 431.022 500.914 442.698C319.367 511.092 187.266 469.883 108.139 511.776C32.6443 551.796 -47.8122 571.286 -65.2227 575.215" stroke="#333333" stroke-opacity="0.1" stroke-width="2.11" stroke-linecap="round" stroke-linejoin="round" stroke-dasharray="1.05 8.43"/>
<path d="M1460.74 115.079C1434.08 106.731 1329.63 78.3272 1273.96 125.961C1222.14 170.304 1187.06 328.268 1113.28 350.44C937.193 403.355 821.893 286.205 701.045 309.343C636.536 321.695 598.707 349.452 566.604 392.161C546.891 417.787 527.238 438.421 495.945 449.607C312.043 515.394 187.169 475.552 107.715 520.578C32.6068 563.139 -46.8841 578.41 -64.25 581.374" stroke="#333333" stroke-opacity="0.1" stroke-width="2.11" stroke-linecap="round" stroke-linejoin="round" stroke-dasharray="1.05 8.44"/>
<path d="M1462.33 124.386C1434.7 114.262 1321.89 77.2645 1264.48 124.282C1210.81 168.231 1176.51 335.636 1101.51 358.588C925.479 412.475 813.923 292.548 693.736 316.993C628.751 330.206 592.118 358.528 561.07 399.952C541.661 425.347 522.528 445.833 490.99 456.529C304.704 519.664 187.057 481.226 107.291 529.32C32.5541 574.458 -45.9713 585.555 -63.2852 587.538" stroke="#333333" stroke-opacity="0.1" stroke-width="2.11" stroke-linecap="round" stroke-linejoin="round" stroke-dasharray="1.06 8.44"/>
<path d="M1463.92 133.736C1435.34 121.941 1314.14 76.2237 1255 122.595C1199.47 166.136 1165.95 342.989 1089.75 366.735C913.711 421.581 805.958 298.89 686.484 324.612C621.016 338.725 585.594 367.552 555.593 407.721C536.489 432.886 517.891 453.23 486.085 463.428C297.422 523.971 187.003 486.855 106.925 538.106C32.4701 585.762 -45.0748 592.722 -62.3145 593.702" stroke="#333333" stroke-opacity="0.1" stroke-width="2.11" stroke-linecap="round" stroke-linejoin="round" stroke-dasharray="1.06 8.45"/>
<path d="M1465.52 143.133C1436.07 129.763 1306.36 75.2071 1245.51 120.924C1188.11 164.05 1155.4 350.35 1077.98 374.891C901.994 430.688 797.991 305.279 679.201 332.257C613.25 347.231 579.024 376.6 550.085 415.521C531.278 440.455 513.214 460.644 481.142 470.367C290.102 528.258 186.895 492.509 106.527 546.872C32.3618 597.053 -44.2546 599.89 -61.3828 599.861" stroke="#333333" stroke-opacity="0.1" stroke-width="2.11" stroke-linecap="round" stroke-linejoin="round" stroke-dasharray="1.05 8.44"/>
<path d="M1467.09 152.552C1436.76 137.696 1298.55 74.212 1236.03 119.246C1176.76 161.94 1144.83 357.674 1066.22 383.047C890.261 439.772 790.04 311.667 671.918 339.892C605.492 355.765 572.461 385.677 544.578 423.305C526.075 448.01 508.546 468.049 476.243 477.282C282.782 532.522 186.779 498.139 106.13 555.666C32.2317 608.403 -43.4563 607.11 -60.4434 606.063" stroke="#333333" stroke-opacity="0.1" stroke-width="2.11" stroke-linecap="round" stroke-linejoin="round" stroke-dasharray="1.06 8.45"/>
<path d="M1468.66 162.006C1437.53 145.762 1290.71 73.2233 1226.54 117.537C1165.39 159.778 1134.26 365.012 1054.44 391.172C878.475 448.811 782.079 318.084 664.625 347.527C597.732 364.306 565.897 394.685 539.098 431.088C520.892 455.6 503.89 475.454 471.298 484.204C275.49 536.769 186.669 503.761 105.76 564.423C32.0551 619.684 -42.7342 614.314 -59.543 612.22" stroke="#333333" stroke-opacity="0.1" stroke-width="2.11" stroke-linecap="round" stroke-linejoin="round" stroke-dasharray="1.06 8.44"/>
<path d="M1470.23 171.477C1438.29 153.843 1282.89 72.2505 1217.06 115.888C1154.04 157.646 1123.69 372.38 1042.67 399.35C866.757 457.903 774.134 324.494 657.349 355.163C589.98 372.856 559.303 403.725 533.559 438.873C515.658 463.124 499.191 482.852 466.331 491.119C268.139 541.003 186.494 509.369 105.346 573.21C31.8644 631.012 -42.0261 621.49 -58.627 618.429" stroke="#333333" stroke-opacity="0.1" stroke-width="2.11" stroke-linecap="round" stroke-linejoin="round" stroke-dasharray="1.05 8.43"/>
<path d="M1471.78 180.947C1439.02 161.999 1275.03 71.2926 1207.58 114.21C1142.66 155.515 1113.12 379.734 1030.9 407.506C855.006 466.928 766.193 330.927 650.062 362.799C582.232 381.42 552.759 412.772 528.055 446.665C510.444 470.678 494.519 490.25 461.399 498.042C260.852 545.223 186.337 514.977 104.937 581.975C31.6264 642.317 -41.3876 628.71 -57.7285 624.602" stroke="#333333" stroke-opacity="0.1" stroke-width="2.11" stroke-linecap="round" stroke-linejoin="round" stroke-dasharray="1.06 8.46"/>
<path d="M1473.33 190.448C1439.82 170.252 1267.16 70.3351 1198.1 112.532C1131.25 153.384 1102.55 387.036 1019.13 415.655C843.247 475.997 758.26 337.397 642.782 370.443C574.484 389.992 546.222 421.812 522.543 454.45C505.236 478.218 489.861 497.649 456.436 504.958C253.468 549.427 186.144 520.556 104.513 590.755C31.3657 653.667 -40.7421 635.908 -56.875 630.79" stroke="#333333" stroke-opacity="0.1" stroke-width="2.11" stroke-linecap="round" stroke-linejoin="round" stroke-dasharray="1.06 8.45"/>
<path d="M1474.92 199.985C1440.66 178.571 1259.32 69.3991 1188.65 110.853C1119.95 151.17 1092.01 394.36 1007.42 423.81C831.53 485.029 750.376 343.837 635.544 378.078C566.793 398.571 539.727 430.852 517.08 462.234C500.078 485.787 485.215 505.039 451.568 511.88C246.215 553.624 186.036 526.171 104.191 599.527C31.1172 665.024 -40.1142 643.068 -55.9648 636.955" stroke="#333333" stroke-opacity="0.1" stroke-width="2.11" stroke-linecap="round" stroke-linejoin="round" stroke-dasharray="1.06 8.45"/>
<path d="M1476.41 209.477C1441.41 186.904 1251.35 68.4257 1179.11 109.204C1108.51 149.008 1081.32 401.564 995.576 431.988C819.592 493.801 742.389 350.343 628.188 385.743C559.014 407.165 533.092 439.898 511.552 470.018C494.847 493.348 480.511 512.355 446.611 518.802C238.793 557.515 185.796 531.756 103.772 608.298C30.7585 676.395 -39.5816 650.213 -55.1797 643.112" stroke="#333333" stroke-opacity="0.1" stroke-width="2.11" stroke-linecap="round" stroke-linejoin="round" stroke-dasharray="1.06 8.45"/>
<path d="M1477.97 219C1442.24 195.283 1243.43 67.334 1169.64 107.495C1097.06 146.632 1070.78 408.903 983.827 440.114C807.888 502.922 734.554 356.983 620.926 393.32C551.321 415.87 526.52 448.938 506.02 477.78C489.619 500.872 475.826 519.768 441.651 525.688C231.53 561.824 185.478 537.201 103.351 617.071C30.3219 687.634 -39.0971 657.306 -54.3164 649.255" stroke="#333333" stroke-opacity="0.1" stroke-width="2.11" stroke-linecap="round" stroke-linejoin="round" stroke-dasharray="1.06 8.46"/>
<path d="M1479.52 228.543C1443.13 203.78 1235.61 66.5237 1160.13 105.816C1085.73 144.559 1060.19 416.293 972.035 448.232C796.133 512.05 726.565 363.267 613.613 400.955C485.552 443.738 512.737 520.651 436.715 532.64C224.21 566.168 185.37 542.927 102.945 625.842C30.0281 699.205 -38.6333 664.392 -53.4961 655.389" stroke="#333333" stroke-opacity="0.1" stroke-width="2.11" stroke-linecap="round" stroke-linejoin="round" stroke-dasharray="1.05 8.43"/>
</g>
</svg>
