<svg width="1440" height="686" viewBox="0 0 1440 686" fill="none" xmlns="http://www.w3.org/2000/svg">
<g clip-path="url(#clip0_1690_77887)">
<rect width="1440" height="900" fill="url(#paint0_linear_1690_77887)"/>
<g style="mix-blend-mode:screen" opacity="0.4">
<path d="M337 898.5L-0.5 -0.5L1 898.5H337Z" fill="url(#paint1_linear_1690_77887)"/>
</g>
<g style="mix-blend-mode:screen" opacity="0.4">
<path d="M1440 0L1022 900H1440V0Z" fill="url(#paint2_linear_1690_77887)"/>
</g>
<path d="M898 900L-0.5 0L340.5 900H898Z" fill="url(#paint3_linear_1690_77887)"/>
<path d="M581 912L1440 0.5L988.5 970.5L581 912Z" fill="url(#paint4_linear_1690_77887)"/>
<path opacity="0.2" d="M1167 948C1167 829.448 1119.91 715.752 1036.08 631.923C952.248 548.095 838.552 501 720 501C601.448 501 487.752 548.094 403.923 631.923C320.095 715.752 273 829.448 273 948L720 948H1167Z" fill="url(#paint5_linear_1690_77887)" fill-opacity="0.4"/>
<path opacity="0.2" d="M1144 948C1144 835.548 1099.33 727.702 1019.81 648.187C940.298 568.671 832.452 524 720 524C607.548 524 499.702 568.671 420.187 648.187C340.671 727.702 296 835.548 296 948L720 948H1144Z" fill="url(#paint6_linear_1690_77887)" fill-opacity="0.4"/>
<path opacity="0.2" d="M1201 948C1201 820.431 1150.32 698.087 1060.12 607.882C969.913 517.677 847.569 467 720 467C592.431 467 470.087 517.677 379.882 607.882C289.677 698.087 239 820.431 239 948L720 948H1201Z" fill="url(#paint7_linear_1690_77887)" fill-opacity="0.4"/>
<path opacity="0.2" d="M1240 948C1240 810.087 1185.21 677.823 1087.7 580.304C990.177 482.786 857.913 428 720 428C582.087 428 449.823 482.786 352.305 580.304C254.786 677.823 200 810.087 200 948L720 948H1240Z" fill="url(#paint8_linear_1690_77887)" fill-opacity="0.4"/>
<path opacity="0.2" d="M1280 948C1280 799.479 1221 657.041 1115.98 552.02C1010.96 447 868.521 388 720 388C571.479 388 429.041 447 324.02 552.02C219 657.041 160 799.479 160 948L720 948H1280Z" fill="url(#paint9_linear_1690_77887)" fill-opacity="0.4"/>
<path opacity="0.2" d="M1310 948C1310 791.522 1247.84 641.453 1137.19 530.807C1026.55 420.161 876.478 358 720 358C563.522 358 413.454 420.161 302.807 530.807C192.161 641.453 130 791.522 130 948L720 948H1310Z" fill="url(#paint10_linear_1690_77887)" fill-opacity="0.4"/>
<path opacity="0.2" d="M1344 948C1344 782.505 1278.26 623.788 1161.23 506.765C1044.21 389.743 885.495 324 720 324C554.505 324 395.788 389.743 278.765 506.765C161.743 623.788 96 782.505 96 948L720 948H1344Z" fill="url(#paint11_linear_1690_77887)" fill-opacity="0.4"/>
<path opacity="0.2" d="M1167 948C1167 829.448 1119.91 715.752 1036.08 631.923C952.248 548.095 838.552 501 720 501C601.448 501 487.752 548.094 403.923 631.923C320.095 715.752 273 829.448 273 948L720 948H1167Z" fill="url(#paint12_linear_1690_77887)" fill-opacity="0.4"/>
<path opacity="0.4" d="M1392 948C1392 769.775 1321.2 598.849 1195.18 472.824C1069.15 346.8 898.226 276 720 276C541.775 276 370.849 346.8 244.824 472.824C118.8 598.849 48 769.774 48 948L720 948H1392Z" fill="url(#paint13_linear_1690_77887)" fill-opacity="0.4"/>
</g>
<defs>
<linearGradient id="paint0_linear_1690_77887" x1="720" y1="929" x2="720" y2="-35.9999" gradientUnits="userSpaceOnUse">
<stop offset="0.0117244" stop-color="#ED1C24"/>
<stop offset="0.282081" stop-color="#E41C23"/>
<stop offset="0.786458" stop-color="#FF4F55"/>
<stop offset="1" stop-color="#FF9FA3"/>
</linearGradient>
<linearGradient id="paint1_linear_1690_77887" x1="-51" y1="24.5" x2="140" y2="710" gradientUnits="userSpaceOnUse">
<stop stop-color="#FF868A"/>
<stop offset="1" stop-color="#E72128" stop-opacity="0"/>
</linearGradient>
<linearGradient id="paint2_linear_1690_77887" x1="1428" y1="89" x2="1108.08" y2="569.676" gradientUnits="userSpaceOnUse">
<stop stop-color="#FF868A"/>
<stop offset="1" stop-color="#E72128" stop-opacity="0"/>
</linearGradient>
<linearGradient id="paint3_linear_1690_77887" x1="-3.49998" y1="-9.00001" x2="230.5" y2="449" gradientUnits="userSpaceOnUse">
<stop stop-color="#FFA6A6"/>
<stop offset="1" stop-color="#EB0000" stop-opacity="0"/>
</linearGradient>
<linearGradient id="paint4_linear_1690_77887" x1="1407.5" y1="39" x2="1092.42" y2="443.728" gradientUnits="userSpaceOnUse">
<stop stop-color="#FFA6A6"/>
<stop offset="1" stop-color="#EB0000" stop-opacity="0"/>
</linearGradient>
<linearGradient id="paint5_linear_1690_77887" x1="720" y1="501" x2="720" y2="1395" gradientUnits="userSpaceOnUse">
<stop stop-color="#FFC9CB"/>
<stop offset="1" stop-color="#FF252E" stop-opacity="0.56"/>
<stop offset="1" stop-color="#FF9599" stop-opacity="0"/>
</linearGradient>
<linearGradient id="paint6_linear_1690_77887" x1="720" y1="524" x2="720" y2="1372" gradientUnits="userSpaceOnUse">
<stop stop-color="#FFC9CB"/>
<stop offset="1" stop-color="#FF252E" stop-opacity="0.56"/>
<stop offset="1" stop-color="#FF9599" stop-opacity="0"/>
</linearGradient>
<linearGradient id="paint7_linear_1690_77887" x1="720" y1="467" x2="720" y2="1429" gradientUnits="userSpaceOnUse">
<stop stop-color="#FFC9CB"/>
<stop offset="1" stop-color="#FF252E" stop-opacity="0.56"/>
<stop offset="1" stop-color="#FF9599" stop-opacity="0"/>
</linearGradient>
<linearGradient id="paint8_linear_1690_77887" x1="720" y1="428" x2="720" y2="1468" gradientUnits="userSpaceOnUse">
<stop stop-color="#FFC9CB"/>
<stop offset="1" stop-color="#FF252E" stop-opacity="0.56"/>
<stop offset="1" stop-color="#FF9599" stop-opacity="0"/>
</linearGradient>
<linearGradient id="paint9_linear_1690_77887" x1="720" y1="388" x2="720" y2="1508" gradientUnits="userSpaceOnUse">
<stop stop-color="#FFC9CB"/>
<stop offset="1" stop-color="#FF252E" stop-opacity="0.56"/>
<stop offset="1" stop-color="#FF9599" stop-opacity="0"/>
</linearGradient>
<linearGradient id="paint10_linear_1690_77887" x1="720" y1="358" x2="720" y2="1538" gradientUnits="userSpaceOnUse">
<stop stop-color="#FFC9CB"/>
<stop offset="1" stop-color="#FF252E" stop-opacity="0.56"/>
<stop offset="1" stop-color="#FF9599" stop-opacity="0"/>
</linearGradient>
<linearGradient id="paint11_linear_1690_77887" x1="720" y1="324" x2="720" y2="1572" gradientUnits="userSpaceOnUse">
<stop stop-color="#FFC9CB"/>
<stop offset="1" stop-color="#FF252E" stop-opacity="0.56"/>
<stop offset="1" stop-color="#FF9599" stop-opacity="0"/>
</linearGradient>
<linearGradient id="paint12_linear_1690_77887" x1="720" y1="501" x2="720" y2="1395" gradientUnits="userSpaceOnUse">
<stop stop-color="#FFC9CB"/>
<stop offset="1" stop-color="#FF252E" stop-opacity="0.56"/>
<stop offset="1" stop-color="#FF9599" stop-opacity="0"/>
</linearGradient>
<linearGradient id="paint13_linear_1690_77887" x1="720" y1="276" x2="720" y2="1620" gradientUnits="userSpaceOnUse">
<stop stop-color="#FFC9CB"/>
<stop offset="1" stop-color="#FF252E" stop-opacity="0.56"/>
<stop offset="1" stop-color="#FF9599" stop-opacity="0"/>
</linearGradient>
<clipPath id="clip0_1690_77887">
<rect width="1440" height="686" fill="white"/>
</clipPath>
</defs>
</svg>
