<svg width="22" height="22" viewBox="0 0 22 22" fill="none" xmlns="http://www.w3.org/2000/svg">
<g clip-path="url(#clip0_83_17048)">
<path d="M19.6297 8.97668H11.3452C10.0382 8.97668 8.97491 10.04 8.97491 11.347V15.848L6.82849 17.3811C6.65913 17.502 6.55859 17.6973 6.55859 17.9055C6.55859 18.1138 6.65913 18.3091 6.82849 18.43L9.00076 19.9816C9.17046 21.1232 10.1572 22.0019 11.3452 22.0019H19.6297C20.9367 22.0019 22 20.9386 22 19.6314V11.347C22 10.04 20.9367 8.97668 19.6297 8.97668ZM16.8441 18.0334C16.6922 18.0334 16.5748 17.9852 16.5404 17.8539L16.2779 16.9356H14.6968L14.4346 17.8539C14.4001 17.9852 14.2827 18.0334 14.1308 18.0334C13.8891 18.0334 13.5647 17.8816 13.5647 17.6607C13.5647 17.6468 13.5716 17.6193 13.5784 17.5916L14.911 13.2491C14.9731 13.0419 15.2285 12.9451 15.484 12.9451C15.7464 12.9451 16.0018 13.0419 16.0639 13.2491L17.3965 17.5916C17.4033 17.6193 17.4102 17.6399 17.4102 17.6607C17.4102 17.8746 17.0858 18.0334 16.8441 18.0334Z" fill="#ED1C24"/>
<path d="M14.8828 16.2289H16.0843L15.4834 14.1095L14.8828 16.2289Z" fill="#ED1C24"/>
<path d="M7.68587 11.3452C7.68587 10.4798 7.98849 9.6842 8.49254 9.05696C7.7572 9.05696 7.07491 8.82684 6.51245 8.43593C5.95 8.82701 5.2677 9.05696 4.5322 9.05696C4.33162 9.05696 4.16881 8.89415 4.16881 8.69341C4.16881 8.49266 4.33162 8.33002 4.5322 8.33002C5.04732 8.33002 5.52937 8.18735 5.94211 7.94028C5.44427 7.403 5.11328 6.70929 5.03322 5.94156H4.53236C4.33162 5.94156 4.16881 5.77892 4.16881 5.57817C4.16881 5.37743 4.33162 5.21461 4.53236 5.21461H6.14923V4.33208C6.14923 4.13116 6.31187 3.96852 6.51262 3.96852C6.71336 3.96852 6.87601 4.13116 6.87601 4.33208V5.21461H8.49287C8.69362 5.21461 8.85643 5.37743 8.85643 5.57817C8.85643 5.77892 8.69362 5.94156 8.49287 5.94156H7.99202C7.91196 6.70929 7.58096 7.403 7.08313 7.94028C7.4957 8.18768 7.97792 8.33002 8.49287 8.33002C8.68472 8.33002 8.84149 8.47873 8.85509 8.66722C9.50885 8.05894 10.3842 7.68582 11.3454 7.68582H13.0252V6.15405L15.1717 4.62094C15.3409 4.50009 15.4414 4.30472 15.4414 4.09659C15.4414 3.88829 15.3409 3.69292 15.1717 3.57207L12.9994 2.02049C12.8295 0.878799 11.8428 0.00012207 10.6547 0.00012207H2.3705C1.06331 0.00012207 0 1.06343 0 2.37045V10.655C0 11.9621 1.06331 13.0254 2.3705 13.0254H7.68587V11.3452Z" fill="#ED1C24"/>
<path d="M6.51237 7.48613C6.91017 7.07339 7.18024 6.53746 7.25929 5.94177H5.76562C5.84468 6.53746 6.11491 7.07339 6.51237 7.48613Z" fill="#ED1C24"/>
</g>
<defs>
<clipPath id="clip0_83_17048">
<rect width="22" height="22" fill="white"/>
</clipPath>
</defs>
</svg>
