<svg width="267" height="244" viewBox="0 0 267 244" fill="none" xmlns="http://www.w3.org/2000/svg">
<g clip-path="url(#clip0_250_7725)">
<rect width="267" height="244" rx="24" fill="white"/>
<path opacity="0.010101" d="M-52.1832 296.839L83.4407 338.303C91.1051 340.646 99.4068 337.788 104.004 331.223L185.349 215.05C189.946 208.485 189.793 199.706 184.969 193.305L99.6195 80.042C94.7961 73.6412 86.3998 71.0742 78.8217 73.6835L-55.2724 119.856C-62.8505 122.465 -67.8865 129.657 -67.7466 137.671L-65.2715 279.47C-65.1316 287.483 -59.8477 294.495 -52.1832 296.839Z" stroke="#666B6F" stroke-opacity="0.02" stroke-width="3"/>
<path opacity="0.020202" d="M-51.8805 299.186L84.1466 338.191C91.8508 340.401 100.101 337.398 104.583 330.753L183.714 213.437C188.196 206.792 187.889 198.018 182.955 191.702L95.8332 80.1915C90.8989 73.8759 82.459 71.4558 74.9276 74.197L-58.0472 122.596C-65.5786 125.337 -70.4883 132.616 -70.2086 140.626L-65.27 282.049C-64.9903 290.058 -59.5848 296.977 -51.8805 299.186Z" stroke="#666B6F" stroke-opacity="0.02" stroke-width="3"/>
<path opacity="0.030303" d="M-51.5554 301.502L84.8305 338.046C92.5721 340.121 100.769 336.974 105.134 330.253L182.036 211.835C186.401 205.113 185.941 196.345 180.897 190.116L92.0391 80.3857C86.9953 74.1571 78.5144 71.8847 71.0321 74.7569L-60.7868 125.357C-68.2691 128.23 -73.0511 135.593 -72.6316 143.597L-65.2419 284.6C-64.8224 292.604 -59.297 299.428 -51.5554 301.502Z" stroke="#666B6F" stroke-opacity="0.02" stroke-width="3"/>
<path opacity="0.040404" d="M-51.2083 303.778L85.492 337.861C93.2686 339.8 101.409 336.511 105.656 329.714L180.314 210.236C184.561 203.44 183.949 194.681 178.797 188.541L88.2379 80.617C83.0862 74.4774 74.5669 72.3533 67.1358 75.3557L-63.4906 128.132C-70.9217 131.135 -75.5744 138.58 -75.0154 146.576L-65.1877 287.118C-64.6286 295.113 -58.9849 301.839 -51.2083 303.778Z" stroke="#666B6F" stroke-opacity="0.02" stroke-width="3"/>
<path opacity="0.050505" d="M-50.8359 306.019L86.1347 337.641C93.9439 339.444 102.026 336.014 106.154 329.144L178.555 208.649C182.682 201.779 181.917 193.032 176.659 186.983L84.4346 80.8912C79.1765 74.8425 70.6215 72.8674 63.2439 75.999L-66.1546 130.925C-73.5322 134.057 -78.0542 141.583 -77.3557 149.567L-65.1039 289.606C-64.4054 297.59 -58.6451 304.216 -50.8359 306.019Z" stroke="#666B6F" stroke-opacity="0.02" stroke-width="3"/>
<path opacity="0.0606061" d="M-50.4405 308.226L86.7559 337.388C94.5955 339.054 102.616 335.483 106.624 328.542L176.755 207.072C180.762 200.131 179.844 191.399 174.481 185.443L80.628 81.2082C75.2651 75.2522 66.6769 73.4267 59.3552 76.6866L-68.7801 133.736C-76.1019 136.996 -80.4919 144.6 -79.6542 152.57L-64.9928 292.064C-64.1551 300.034 -58.2801 306.559 -50.4405 308.226Z" stroke="#666B6F" stroke-opacity="0.02" stroke-width="3"/>
<path opacity="0.0707071" d="M-50.0244 310.399L87.354 337.103C95.2214 338.632 103.179 334.922 107.064 327.912L174.913 205.509C178.799 198.499 177.729 189.785 172.263 183.923L76.8175 81.5704C71.3515 75.7088 62.7328 74.0335 55.469 77.4206L-71.3685 136.566C-78.6323 139.953 -82.8889 147.632 -81.9122 155.587L-64.8566 294.494C-63.8798 302.449 -57.8919 308.87 -50.0244 310.399Z" stroke="#666B6F" stroke-opacity="0.02" stroke-width="3"/>
<path opacity="0.0808081" d="M-49.588 312.526L87.9285 336.774C95.8214 338.166 103.713 334.317 107.475 327.241L173.032 203.948C176.794 196.871 175.572 188.177 170.005 182.411L73.0041 81.9642C67.4367 76.1989 58.79 74.6742 51.5865 78.1876L-73.9192 139.401C-81.1228 142.914 -85.2448 150.667 -84.1293 158.603L-64.6955 296.882C-63.58 304.819 -57.4809 311.135 -49.588 312.526Z" stroke="#666B6F" stroke-opacity="0.02" stroke-width="3"/>
<path opacity="0.0909091" d="M-49.128 314.625L88.4827 336.42C96.3987 337.674 104.222 333.688 107.86 326.547L171.113 202.406C174.752 195.265 173.378 186.593 167.711 180.926L69.1925 82.4077C63.5253 76.7405 54.8533 75.3669 47.7122 79.0055L-76.4282 142.258C-83.5694 145.897 -87.5554 153.72 -86.3017 161.636L-64.5062 299.247C-63.2525 307.163 -57.0441 313.371 -49.128 314.625Z" stroke="#666B6F" stroke-opacity="0.02" stroke-width="3"/>
<path opacity="0.10101" d="M-48.6504 316.678L89.011 336.025C96.9477 337.141 104.7 333.019 108.213 325.815L169.153 200.87C172.667 193.666 171.142 185.02 165.377 179.452L65.3782 82.8849C59.6129 77.3174 50.9184 76.0955 43.8418 79.8582L-78.9005 145.121C-85.977 148.884 -89.8259 156.775 -88.4342 164.668L-64.2946 301.571C-62.9029 309.464 -56.587 315.563 -48.6504 316.678Z" stroke="#666B6F" stroke-opacity="0.02" stroke-width="3"/>
<path opacity="0.111111" d="M-48.1535 318.702L89.5151 335.606C97.47 336.583 105.149 332.326 108.536 325.062L167.155 199.355C170.542 192.091 168.866 183.473 163.005 178.007L61.5643 83.4119C55.7027 77.9459 46.9881 76.8759 39.9783 80.7615L-81.3335 148.006C-88.3433 151.891 -92.0539 159.849 -90.5247 167.716L-64.059 303.87C-62.5297 311.738 -56.1084 317.726 -48.1535 318.702Z" stroke="#666B6F" stroke-opacity="0.02" stroke-width="3"/>
<path opacity="0.121212" d="M-47.6378 320.683L89.9946 335.148C97.9654 335.986 105.569 331.596 108.829 324.274L165.118 197.848C168.377 190.526 166.552 181.938 160.596 176.575L57.7516 83.9741C51.7955 78.6112 43.0636 77.6934 36.1227 81.7008L-83.7271 150.896C-90.668 154.903 -94.2392 162.924 -92.5728 170.764L-63.7998 306.13C-62.1334 313.97 -55.6086 319.845 -47.6378 320.683Z" stroke="#666B6F" stroke-opacity="0.02" stroke-width="3"/>
<path opacity="0.131313" d="M-47.1036 322.625L90.4497 334.659C98.4339 335.358 105.96 330.835 109.091 323.458L163.043 196.356C166.175 188.978 164.2 180.423 158.151 175.165L53.9415 84.5772C47.8927 79.3191 39.1461 78.5539 32.2762 82.6818L-86.0805 153.798C-92.9504 157.925 -96.381 166.008 -94.5781 173.817L-63.5171 308.357C-61.7142 316.166 -55.0878 321.926 -47.1036 322.625Z" stroke="#666B6F" stroke-opacity="0.02" stroke-width="3"/>
<path opacity="0.141414" d="M-46.5532 324.526L90.8781 334.136C98.8733 334.695 106.319 330.043 109.321 322.612L160.93 194.876C163.932 187.445 161.808 178.926 155.669 173.774L50.133 85.2194C43.9933 80.0677 35.2347 79.4552 28.4379 83.7023L-88.3951 156.708C-95.1919 160.955 -98.481 169.096 -96.5421 176.872L-63.2132 310.547C-61.2743 318.323 -54.5484 323.967 -46.5532 324.526Z" stroke="#666B6F" stroke-opacity="0.02" stroke-width="3"/>
<path opacity="0.151515" d="M-45.9868 326.393L91.2799 333.586C99.2836 334.006 106.647 329.224 109.519 321.742L158.779 193.416C161.651 185.934 159.379 177.453 153.15 172.409L46.3274 85.9059C40.0988 80.8621 31.3308 80.4025 24.6091 84.7677L-90.6704 159.631C-97.3921 163.996 -100.539 172.193 -98.4642 179.935L-62.8882 312.706C-60.8139 320.448 -53.9905 325.973 -45.9868 326.393Z" stroke="#666B6F" stroke-opacity="0.02" stroke-width="3"/>
<path opacity="0.161616" d="M-45.4028 328.217L91.6569 333.003C99.6667 333.283 106.946 328.373 109.687 320.842L156.593 191.969C159.334 184.438 156.914 175.998 150.598 171.064L42.5276 86.6297C36.212 81.6954 27.4373 81.389 20.7928 85.8707L-92.9041 162.56C-99.5486 167.042 -102.551 175.293 -100.342 182.997L-62.5405 314.827C-60.3314 322.532 -53.4126 327.937 -45.4028 328.217Z" stroke="#666B6F" stroke-opacity="0.02" stroke-width="3"/>
<path opacity="0.171717" d="M-44.8052 330.007L92.0054 332.395C100.019 332.535 107.211 327.499 109.82 319.921L154.368 190.545C156.978 182.967 154.411 174.57 148.01 169.747L38.7314 87.3996C32.3305 82.5762 23.5519 82.423 16.9866 87.02L-95.0992 165.503C-101.664 170.1 -104.523 178.402 -102.18 186.067L-62.174 316.919C-59.8307 324.584 -52.8187 329.868 -44.8052 330.007Z" stroke="#666B6F" stroke-opacity="0.02" stroke-width="3"/>
<path opacity="0.181818" d="M-44.1962 331.75L92.3234 331.75C100.338 331.75 107.441 326.589 109.918 318.966L152.105 189.129C154.581 181.506 151.868 173.156 145.384 168.445L34.9377 88.2008C28.4536 83.4899 19.6736 83.4898 13.1896 88.2008L-97.2571 168.445C-103.741 173.156 -106.454 181.506 -103.978 189.129L-61.7907 318.966C-59.3141 326.589 -52.2109 331.75 -44.1962 331.75Z" stroke="#666B6F" stroke-opacity="0.02" stroke-width="3"/>
<path opacity="0.191919" d="M-43.5722 333.457L92.6149 331.079C100.628 330.94 107.64 325.656 109.984 317.991L149.807 187.735C152.15 180.07 149.292 171.769 142.726 167.172L31.1516 89.0461C24.5863 84.4491 15.8076 84.6023 9.40681 89.4257L-99.3736 171.398C-105.774 176.221 -108.341 184.617 -105.732 192.195L-61.3872 320.982C-58.7778 328.56 -51.5857 333.596 -43.5722 333.457Z" stroke="#666B6F" stroke-opacity="0.02" stroke-width="3"/>
<path opacity="0.20202" d="M-42.9317 335.127L92.8815 330.384C100.891 330.104 107.81 324.699 110.019 316.994L147.477 186.363C149.686 178.659 146.683 170.408 140.039 165.926L27.3761 89.9342C20.7316 85.4525 11.9569 85.7589 5.64125 90.6932L-101.446 174.359C-107.762 179.293 -110.182 187.733 -107.441 195.265L-60.9616 322.965C-58.2205 330.496 -50.9415 335.406 -42.9317 335.127Z" stroke="#666B6F" stroke-opacity="0.02" stroke-width="3"/>
<path opacity="0.212121" d="M-42.2841 336.751L93.1143 329.655C101.118 329.235 107.941 323.71 110.016 315.968L145.107 185.004C147.182 177.262 144.035 169.065 137.314 164.7L23.6031 90.8559C16.8815 86.4908 8.11348 86.9504 1.8849 91.9942L-103.484 177.32C-109.712 182.364 -111.985 190.845 -109.113 198.327L-60.5236 324.906C-57.6513 332.388 -50.2878 337.17 -42.2841 336.751Z" stroke="#666B6F" stroke-opacity="0.02" stroke-width="3"/>
<path opacity="0.222222" d="M-41.626 338.342L93.3168 328.906C101.312 328.347 108.038 322.703 109.977 314.926L142.702 183.672C144.641 175.896 141.352 167.755 134.555 163.508L19.8377 91.8243C13.0409 87.5772 4.28224 88.1897 -1.85736 93.3414L-105.482 180.293C-111.622 185.445 -113.746 193.964 -110.743 201.395L-60.0694 326.817C-57.067 334.248 -49.6211 338.901 -41.626 338.342Z" stroke="#666B6F" stroke-opacity="0.02" stroke-width="3"/>
<path opacity="0.232323" d="M-40.9537 339.885L93.4932 328.123C101.477 327.424 108.104 321.664 109.907 313.855L140.266 182.353C142.069 174.544 138.638 166.462 131.769 162.334L16.0849 92.8244C9.21493 88.6965 0.468304 89.4617 -5.58046 94.7198L-107.436 183.262C-113.485 188.52 -115.46 197.075 -112.329 204.453L-59.5954 328.684C-56.4638 336.062 -48.9379 340.584 -40.9537 339.885Z" stroke="#666B6F" stroke-opacity="0.02" stroke-width="3"/>
<path opacity="0.242424" d="M-40.2731 341.394L93.638 327.319C101.609 326.482 108.134 320.607 109.8 312.767L137.795 181.061C139.461 173.221 135.89 165.2 128.949 161.193L12.3401 93.8685C5.39916 89.8612 -3.33276 90.779 -9.28884 96.1418L-109.352 186.239C-115.308 191.602 -117.134 200.19 -113.874 207.512L-59.1074 330.52C-55.8476 337.842 -48.2438 342.232 -40.2731 341.394Z" stroke="#666B6F" stroke-opacity="0.02" stroke-width="3"/>
<path opacity="0.252525" d="M-39.5843 342.856L93.7512 326.485C101.706 325.508 108.127 319.52 109.657 311.653L135.289 179.784C136.819 171.917 133.108 163.959 126.098 160.074L8.60464 94.9459C1.59484 91.0603 -7.11974 92.1303 -12.9813 97.5963L-111.229 189.214C-117.091 194.68 -118.766 203.299 -115.379 210.562L-58.6056 332.313C-55.2184 339.577 -47.5392 343.833 -39.5843 342.856Z" stroke="#666B6F" stroke-opacity="0.02" stroke-width="3"/>
<path opacity="0.262626" d="M-38.8892 344.283L93.8315 325.63C101.768 324.515 108.084 318.416 109.476 310.523L132.749 178.534C134.141 170.641 130.292 162.75 123.215 158.987L4.87809 96.0661C-2.19846 92.3035 -10.893 93.5254 -16.6583 99.0929L-113.068 192.195C-118.833 197.762 -120.358 206.409 -116.844 213.612L-58.0916 334.073C-54.5782 341.277 -46.8259 345.399 -38.8892 344.283Z" stroke="#666B6F" stroke-opacity="0.02" stroke-width="3"/>
<path opacity="0.272727" d="M-38.1844 345.669L93.8825 324.752C101.798 323.498 108.007 317.29 109.261 309.374L130.178 177.307C131.432 169.391 127.446 161.568 120.305 157.929L1.16532 97.2248C-5.97581 93.5862 -14.6477 94.9597 -20.315 100.627L-114.864 195.176C-120.532 200.844 -121.905 209.516 -118.267 216.657L-57.5621 335.796C-53.9235 342.937 -46.1004 346.923 -38.1844 345.669Z" stroke="#666B6F" stroke-opacity="0.02" stroke-width="3"/>
<path opacity="0.282828" d="M-37.4736 347.013L93.901 323.848C101.794 322.456 107.893 316.14 109.008 308.204L127.574 176.101C128.69 168.164 124.568 160.412 117.364 156.898L-2.53602 98.4189C-9.73958 94.9055 -18.3862 96.4302 -23.9537 102.195L-116.622 198.156C-122.189 203.922 -123.411 212.616 -119.649 219.693L-57.0206 337.479C-53.258 344.556 -45.3665 348.404 -37.4736 347.013Z" stroke="#666B6F" stroke-opacity="0.02" stroke-width="3"/>
<path opacity="0.292929" d="M-36.7568 348.317L93.8875 322.923C101.755 321.393 107.743 314.972 108.72 307.017L124.939 174.92C125.916 166.965 121.659 159.286 114.395 155.898L-6.22458 99.6524C-13.4884 96.2652 -22.1071 97.9405 -27.5731 103.802L-118.34 201.138C-123.806 206.999 -124.876 215.714 -120.99 222.724L-56.4672 339.126C-52.5816 346.136 -44.6242 349.847 -36.7568 348.317Z" stroke="#666B6F" stroke-opacity="0.02" stroke-width="3"/>
<path opacity="0.30303" d="M-36.0343 349.581L93.8419 321.975C101.681 320.308 107.556 313.784 108.394 305.813L122.273 173.763C123.111 165.792 118.721 158.188 111.399 154.928L-9.89926 100.923C-17.221 97.6628 -25.8092 99.4882 -31.1721 105.444L-120.018 204.117C-125.381 210.073 -126.298 218.805 -122.291 225.746L-55.9021 340.735C-51.8948 347.676 -43.8738 351.247 -36.0343 349.581Z" stroke="#666B6F" stroke-opacity="0.02" stroke-width="3"/>
<path opacity="0.313131" d="M-35.3096 350.801L93.7611 321.003C101.57 319.2 107.331 312.574 108.029 304.59L119.574 172.628C120.273 164.644 115.751 157.118 108.373 153.986L-13.5622 102.227C-20.9398 99.0959 -29.4948 101.071 -34.7529 107.12L-121.658 207.093C-126.916 213.142 -127.682 221.888 -123.554 228.758L-55.3288 342.304C-51.201 349.174 -43.1189 352.604 -35.3096 350.801Z" stroke="#666B6F" stroke-opacity="0.02" stroke-width="3"/>
<path opacity="0.323232" d="M-34.5793 351.982L93.6491 320.011C101.426 318.072 107.069 311.346 107.629 303.351L116.847 171.519C117.406 163.524 112.753 156.078 105.322 153.075L-17.2087 103.57C-24.6398 100.567 -33.159 102.691 -38.3107 108.831L-123.258 210.067C-128.409 216.206 -129.022 224.965 -124.775 231.762L-54.7438 343.835C-50.4966 350.632 -42.3559 353.921 -34.5793 351.982Z" stroke="#666B6F" stroke-opacity="0.02" stroke-width="3"/>
<path opacity="0.333333" d="M-33.8471 353.121L93.5026 318.998C101.244 316.924 106.77 310.1 107.189 302.097L114.089 170.435C114.509 162.432 109.727 155.068 102.244 152.196L-20.8409 104.948C-28.3233 102.076 -36.8041 104.348 -41.8479 110.577L-124.819 213.037C-129.863 219.266 -130.322 228.034 -125.957 234.755L-54.1507 345.328C-49.7856 352.049 -41.5887 355.196 -33.8471 353.121Z" stroke="#666B6F" stroke-opacity="0.02" stroke-width="3"/>
<path opacity="0.343434" d="M-33.111 354.225L93.324 317.97C101.028 315.761 106.434 308.843 106.713 300.833L111.304 169.383C111.584 161.373 106.674 154.094 99.1425 151.353L-24.4556 106.367C-31.9869 103.625 -40.4268 106.046 -45.3612 112.361L-126.339 216.008C-131.274 222.324 -131.58 231.099 -127.098 237.743L-53.5475 346.787C-49.0658 353.431 -40.8152 356.434 -33.111 354.225Z" stroke="#666B6F" stroke-opacity="0.02" stroke-width="3"/>
<path opacity="0.353535" d="M-32.3748 355.285L93.1101 316.921C100.775 314.578 106.059 307.566 106.198 299.552L108.488 168.354C108.628 160.34 103.592 153.148 96.0143 150.539L-28.0552 107.818C-35.6333 105.209 -44.0297 107.776 -48.853 114.177L-127.822 218.972C-132.646 225.373 -132.799 234.152 -128.202 240.717L-52.938 348.205C-48.3409 354.77 -40.0393 357.629 -32.3748 355.285Z" stroke="#666B6F" stroke-opacity="0.02" stroke-width="3"/>
<path opacity="0.363636" d="M-31.6385 356.306L92.8611 315.853C100.484 313.377 105.644 306.273 105.644 298.259L105.644 167.352C105.644 159.337 100.484 152.234 92.8612 149.757L-31.6385 109.305C-39.2609 106.828 -47.6112 109.542 -52.3221 116.026L-129.267 221.931C-133.978 228.415 -133.978 237.195 -129.267 243.679L-52.3221 349.585C-47.6112 356.069 -39.2609 358.782 -31.6385 356.306Z" stroke="#666B6F" stroke-opacity="0.02" stroke-width="3"/>
<path opacity="0.373737" d="M-30.9021 357.281L92.5777 314.764C100.156 312.154 105.192 304.962 105.052 296.949L102.773 166.374C102.633 158.36 97.3488 151.348 89.6843 149.005L-35.2041 110.823C-42.8686 108.48 -51.1703 111.338 -55.7673 117.903L-130.673 224.88C-135.27 231.445 -135.117 240.224 -130.294 246.625L-51.6999 350.923C-46.8766 357.323 -38.4802 359.89 -30.9021 357.281Z" stroke="#666B6F" stroke-opacity="0.02" stroke-width="3"/>
<path opacity="0.383838" d="M-30.1673 358.224L92.2587 313.664C99.7901 310.923 104.7 303.644 104.42 295.634L99.8733 165.43C99.5936 157.421 94.1881 150.502 86.4838 148.293L-38.7523 112.382C-46.4565 110.173 -54.707 113.176 -59.1887 119.82L-132.042 227.83C-136.524 234.474 -136.217 243.249 -131.283 249.565L-51.0729 352.229C-46.1385 358.545 -37.6986 360.965 -30.1673 358.224Z" stroke="#666B6F" stroke-opacity="0.02" stroke-width="3"/>
<path opacity="0.393939" d="M-29.4285 359.115L91.9101 312.538C99.3924 309.665 104.174 302.302 103.755 294.298L96.9528 164.505C96.5333 156.501 91.0078 149.678 83.2663 147.604L-42.2764 113.965C-50.0179 111.89 -58.2148 115.037 -62.5799 121.758L-133.367 230.761C-137.732 237.483 -137.273 246.251 -132.229 252.48L-50.4355 353.486C-45.3917 359.715 -36.9109 361.987 -29.4285 359.115Z" stroke="#666B6F" stroke-opacity="0.02" stroke-width="3"/>
<path opacity="0.40404" d="M-28.6988 359.975L91.5193 311.404C98.9503 308.402 103.603 300.956 103.044 292.961L93.9994 163.617C93.4403 155.622 87.7966 148.896 80.02 146.957L-45.7879 115.59C-53.5646 113.651 -61.7053 116.94 -65.9524 123.737L-134.661 233.694C-138.909 240.491 -138.296 249.249 -133.144 255.389L-49.8009 354.714C-44.6491 360.854 -36.1299 362.978 -28.6988 359.975Z" stroke="#666B6F" stroke-opacity="0.02" stroke-width="3"/>
<path opacity="0.414141" d="M-27.9686 360.792L91.0964 310.252C98.474 307.12 102.996 299.594 102.298 291.61L91.0241 162.755C90.3256 154.771 84.5654 148.144 76.7561 146.341L-49.2763 117.244C-57.0856 115.442 -65.1676 118.872 -69.2955 125.742L-135.914 236.615C-140.042 243.485 -139.277 252.231 -134.019 258.28L-49.1593 355.9C-43.9012 361.949 -35.3462 363.924 -27.9686 360.792Z" stroke="#666B6F" stroke-opacity="0.02" stroke-width="3"/>
<path opacity="0.424242" d="M-27.2436 361.568L90.6364 309.084C97.9582 305.824 102.348 298.221 101.51 290.25L88.0226 161.921C87.1848 153.95 81.3098 147.425 73.4703 145.759L-52.7457 118.931C-60.5853 117.265 -68.6062 120.836 -72.6136 127.777L-137.131 239.525C-141.139 246.466 -140.221 255.198 -134.858 261.154L-48.5164 357.046C-43.1535 363.002 -34.5653 364.828 -27.2436 361.568Z" stroke="#666B6F" stroke-opacity="0.02" stroke-width="3"/>
<path opacity="0.434343" d="M-26.5234 362.309L90.1401 307.908C97.4039 304.521 101.661 296.842 100.684 288.887L84.9963 161.122C84.0195 153.167 78.0316 146.746 70.1641 145.217L-56.1948 120.655C-64.0622 119.126 -72.0196 122.837 -75.9052 129.846L-138.312 242.431C-142.197 249.441 -141.127 258.155 -135.661 264.017L-47.8719 358.159C-42.4059 364.021 -33.7872 365.696 -26.5234 362.309Z" stroke="#666B6F" stroke-opacity="0.02" stroke-width="3"/>
<path opacity="0.444444" d="M-25.8081 363.004L89.6079 306.712C96.8114 303.199 100.933 295.447 99.818 287.51L81.9465 160.348C80.8311 152.411 74.732 146.095 66.839 144.703L-59.6221 122.405C-67.5151 121.013 -75.4065 124.862 -79.1692 131.938L-139.455 245.32C-143.218 252.396 -141.996 261.091 -136.428 266.856L-47.2257 359.228C-41.6583 364.993 -33.0116 366.518 -25.8081 363.004Z" stroke="#666B6F" stroke-opacity="0.02" stroke-width="3"/>
<path opacity="0.454545" d="M-25.0973 363.666L89.0408 305.51C96.1819 301.871 100.168 294.048 98.9142 286.132L78.8749 159.609C77.6211 151.693 71.4127 145.485 63.4967 144.231L-63.0264 124.192C-70.9424 122.938 -78.7655 126.924 -82.404 134.065L-140.56 248.203C-144.199 255.345 -142.825 264.016 -137.158 269.684L-46.5776 360.264C-40.9104 365.931 -32.2385 367.305 -25.0973 363.666Z" stroke="#666B6F" stroke-opacity="0.02" stroke-width="3"/>
<path opacity="0.464646" d="M-24.3912 364.289L88.4393 304.296C95.5158 300.533 99.3648 292.641 97.973 284.749L75.7828 158.902C74.391 151.009 68.0752 144.909 60.1385 143.794L-66.4062 126.009C-74.3429 124.894 -82.0952 129.016 -85.6086 136.219L-141.627 251.075C-145.141 258.278 -143.616 266.925 -137.851 272.493L-45.9276 361.262C-40.1623 366.829 -31.4677 368.051 -24.3912 364.289Z" stroke="#666B6F" stroke-opacity="0.02" stroke-width="3"/>
<path opacity="0.474747" d="M-23.6967 364.867L87.7968 303.065C94.8066 299.18 98.5172 291.222 96.9879 283.355L72.6642 158.22C71.135 150.353 64.7137 144.365 56.7587 143.388L-69.7677 127.853C-77.7226 126.876 -85.4018 131.133 -88.7889 138.396L-142.663 253.929C-146.05 261.193 -144.375 269.812 -138.513 275.278L-45.2827 362.217C-39.4211 367.683 -30.7065 368.753 -23.6967 364.867Z" stroke="#666B6F" stroke-opacity="0.02" stroke-width="3"/>
<path opacity="0.484848" d="M-23.0064 365.409L87.1215 301.827C94.0624 297.82 97.6336 289.799 95.9672 281.959L69.5282 157.573C67.8618 149.734 61.337 143.859 53.3662 143.021L-73.1019 129.729C-81.0727 128.891 -88.6764 133.281 -91.9362 140.603L-143.659 256.773C-146.919 264.095 -145.093 272.683 -139.137 278.046L-44.6353 363.136C-38.6792 368.499 -29.9473 369.417 -23.0064 365.409Z" stroke="#666B6F" stroke-opacity="0.02" stroke-width="3"/>
<path opacity="0.494949" d="M-22.3256 365.915L86.4086 300.581C93.2785 296.453 96.7091 288.371 94.9062 280.561L66.3705 156.96C64.5676 149.15 57.9412 143.39 49.957 142.692L-76.4131 131.636C-84.3973 130.937 -91.9233 135.459 -95.0549 142.837L-144.62 259.606C-147.752 266.983 -145.777 275.538 -139.728 280.796L-43.9909 364.019C-37.9421 369.277 -29.1955 370.043 -22.3256 365.915Z" stroke="#666B6F" stroke-opacity="0.02" stroke-width="3"/>
<path opacity="0.50505" d="M-21.6559 366.378L85.657 299.322C92.4539 295.074 95.7429 286.934 93.804 279.157L63.191 156.375C61.252 148.598 54.5261 142.955 46.531 142.396L-79.7018 133.568C-87.697 133.009 -95.1429 137.662 -98.1452 145.093L-145.548 262.42C-148.551 269.851 -146.427 278.37 -140.287 283.522L-43.351 364.861C-37.2114 370.013 -28.4527 370.625 -21.6559 366.378Z" stroke="#666B6F" stroke-opacity="0.02" stroke-width="3"/>
<path opacity="0.515152" d="M-20.9971 366.801L84.8677 298.052C91.5894 293.686 94.7359 285.49 92.6615 277.748L59.991 155.82C57.9166 148.078 51.0933 142.553 43.0895 142.133L-82.9667 135.527C-90.9704 135.108 -98.334 139.89 -101.206 147.372L-146.443 265.217C-149.315 272.699 -147.042 281.18 -140.814 286.224L-42.7153 365.663C-36.4867 370.707 -27.7187 371.166 -20.9971 366.801Z" stroke="#666B6F" stroke-opacity="0.02" stroke-width="3"/>
<path opacity="0.525253" d="M-20.3471 367.188L84.0431 296.776C90.6876 292.294 93.6906 284.044 91.4814 276.34L56.7739 155.3C54.5647 147.596 47.646 142.19 39.6362 141.911L-86.2045 137.516C-94.2143 137.237 -101.493 142.146 -104.234 149.678L-147.301 268.001C-150.042 275.533 -147.622 283.973 -141.306 288.907L-42.0819 366.429C-35.7663 371.364 -26.9916 371.67 -20.3471 367.188Z" stroke="#666B6F" stroke-opacity="0.02" stroke-width="3"/>
<path opacity="0.535354" d="M-19.7094 367.546L83.1807 295.501C89.7459 290.904 92.6044 282.603 90.2611 274.938L53.5376 154.821C51.1943 147.157 44.1823 141.873 36.1688 141.733L-89.4176 139.541C-97.4311 139.401 -104.623 144.437 -107.233 152.015L-148.126 270.777C-150.735 278.355 -148.168 286.752 -141.767 291.575L-41.4541 367.166C-35.0533 371.99 -26.2746 372.143 -19.7094 367.546Z" stroke="#666B6F" stroke-opacity="0.02" stroke-width="3"/>
<path opacity="0.545455" d="M-19.0799 367.855L82.2849 294.209C88.769 289.499 91.4821 281.148 89.0055 273.526L50.2875 154.364C47.8109 146.742 40.7077 141.581 32.693 141.581L-92.6008 141.581C-100.615 141.581 -107.719 146.742 -110.195 154.364L-148.913 273.526C-151.39 281.148 -148.677 289.499 -142.193 294.209L-40.8279 367.855C-34.3439 372.566 -25.5639 372.566 -19.0799 367.855Z" stroke="#666B6F" stroke-opacity="0.02" stroke-width="3"/>
<path opacity="0.555556" d="M-18.464 368.135L81.351 292.919C87.7518 288.095 90.3188 279.699 87.7095 272.121L47.0194 153.948C44.4101 146.37 37.2179 141.334 29.2044 141.474L-95.7584 143.655C-103.772 143.795 -110.784 149.079 -113.127 156.743L-149.668 276.264C-152.012 283.929 -149.153 292.23 -142.588 296.827L-40.2088 368.514C-33.6435 373.111 -24.8648 372.958 -18.464 368.135Z" stroke="#666B6F" stroke-opacity="0.02" stroke-width="3"/>
<path opacity="0.565657" d="M-17.865 368.371L80.3764 291.616C86.692 286.682 89.1121 278.242 86.3709 270.71L43.7312 153.559C40.9901 146.027 33.7111 141.118 25.7013 141.397L-98.8929 145.748C-106.903 146.028 -113.821 151.434 -116.031 159.138L-150.394 278.978C-152.603 286.683 -149.6 294.933 -142.956 299.415L-39.5998 369.13C-32.9553 373.611 -24.1807 373.305 -17.865 368.371Z" stroke="#666B6F" stroke-opacity="0.02" stroke-width="3"/>
<path opacity="0.575758" d="M-17.2771 368.578L79.3674 290.317C85.596 285.273 87.8685 276.792 84.9962 269.31L40.4302 153.211C37.558 145.729 30.1945 140.947 22.1908 141.366L-101.997 147.875C-110.001 148.294 -116.824 153.82 -118.899 161.561L-151.085 281.682C-153.159 289.424 -150.013 297.62 -143.291 301.986L-38.9954 369.716C-32.2737 374.081 -23.5057 373.622 -17.2771 368.578Z" stroke="#666B6F" stroke-opacity="0.02" stroke-width="3"/>
<path opacity="0.585859" d="M-16.7056 368.747L78.3195 289.012C84.4591 283.86 86.5832 275.341 83.5808 267.91L37.1122 152.896C34.1098 145.465 26.664 140.812 18.6688 141.371L-105.076 150.024C-113.071 150.583 -119.797 156.227 -121.735 164.003L-151.745 284.365C-153.684 292.142 -150.395 300.283 -143.598 304.53L-38.4007 370.264C-31.6038 374.511 -22.8452 373.899 -16.7056 368.747Z" stroke="#666B6F" stroke-opacity="0.02" stroke-width="3"/>
<path opacity="0.59596" d="M-16.1464 368.876L77.2373 287.699C83.286 282.441 85.2611 273.886 82.1295 266.508L33.7826 152.61C30.651 145.233 23.125 140.711 15.1408 141.409L-108.123 152.193C-116.107 152.892 -122.733 158.652 -124.536 166.461L-152.371 287.025C-154.174 294.834 -150.743 302.916 -143.873 307.044L-37.8117 370.772C-30.9418 374.9 -22.1952 374.134 -16.1464 368.876Z" stroke="#666B6F" stroke-opacity="0.02" stroke-width="3"/>
<path opacity="0.606061" d="M-15.6028 368.971L76.1182 286.385C82.0743 281.022 83.8998 272.434 80.6399 265.112L30.4393 152.36C27.1795 145.038 19.5757 140.648 11.605 141.486L-111.142 154.387C-119.112 155.225 -125.637 161.1 -127.304 168.939L-152.965 289.665C-154.631 297.505 -151.06 305.525 -144.119 309.533L-37.2317 371.244C-30.2908 375.252 -21.5588 374.334 -15.6028 368.971Z" stroke="#666B6F" stroke-opacity="0.02" stroke-width="3"/>
<path opacity="0.616162" d="M-15.0762 369.032L74.9614 285.07C80.823 279.604 82.4983 270.986 79.1111 263.722L27.0822 152.146C23.695 144.882 16.0159 140.625 8.06091 141.602L-114.132 156.605C-122.087 157.582 -128.509 163.57 -130.038 171.437L-153.529 292.287C-155.058 300.154 -151.347 308.111 -144.337 311.997L-36.6622 371.682C-29.6524 375.568 -20.9378 374.498 -15.0762 369.032Z" stroke="#666B6F" stroke-opacity="0.02" stroke-width="3"/>
<path opacity="0.626263" d="M-14.5702 369.062L73.7641 283.758C79.5294 278.191 81.054 269.544 77.5406 262.341L23.709 151.97C20.1956 144.766 12.4433 140.644 4.50659 141.76L-117.097 158.85C-125.034 159.965 -131.35 166.064 -132.742 173.957L-154.066 294.891C-155.457 302.784 -151.608 310.675 -144.532 314.438L-36.1066 372.089C-29.0301 375.851 -20.3355 374.629 -14.5702 369.062Z" stroke="#666B6F" stroke-opacity="0.02" stroke-width="3"/>
<path opacity="0.636364" d="M-14.0788 369.052L72.5329 282.441C78.2001 276.774 79.5736 268.102 75.935 260.96L20.3269 151.823C16.6883 144.682 8.86529 140.696 0.949267 141.95L-120.03 161.111C-127.946 162.365 -134.154 168.573 -135.408 176.489L-154.569 297.469C-155.823 305.385 -151.837 313.208 -144.696 316.846L-35.5591 372.454C-28.4179 376.093 -19.746 374.72 -14.0788 369.052Z" stroke="#666B6F" stroke-opacity="0.02" stroke-width="3"/>
<path opacity="0.646465" d="M-13.6051 369.011L71.2652 281.126C76.8326 275.36 78.0546 266.666 74.2919 259.589L16.934 151.715C13.1713 144.638 5.27988 140.789 -2.61305 142.181L-122.932 163.396C-130.825 164.788 -136.924 171.104 -138.04 179.041L-155.043 300.027C-156.159 307.964 -152.037 315.716 -144.833 319.23L-35.0227 372.788C-27.8192 376.301 -19.1725 374.777 -13.6051 369.011Z" stroke="#666B6F" stroke-opacity="0.02" stroke-width="3"/>
<path opacity="0.656566" d="M-13.1488 368.939L69.962 279.814C75.428 273.952 76.498 265.238 72.6124 258.228L13.5317 151.644C9.64612 144.634 1.68873 140.923 -6.17871 142.452L-125.803 165.705C-133.671 167.234 -139.659 173.656 -140.636 181.611L-155.487 302.566C-156.464 310.521 -152.207 318.2 -144.943 321.587L-34.4973 373.089C-27.2335 376.476 -18.6148 374.801 -13.1488 368.939Z" stroke="#666B6F" stroke-opacity="0.02" stroke-width="3"/>
<path opacity="0.666667" d="M-12.7133 368.832L68.6207 278.502C73.9836 272.546 74.9013 263.814 70.894 256.873L10.1181 151.606C6.11077 144.665 -1.91021 141.094 -9.74975 142.76L-128.645 168.032C-136.485 169.698 -142.36 176.223 -143.198 184.194L-155.903 305.08C-156.741 313.051 -152.351 320.654 -145.029 323.914L-33.9862 373.354C-26.6644 376.614 -18.0762 374.788 -12.7133 368.832Z" stroke="#666B6F" stroke-opacity="0.02" stroke-width="3"/>
<path opacity="0.676768" d="M-12.2998 368.688L67.2408 277.187C72.4989 271.138 73.2641 262.391 69.1362 255.521L6.69301 151.599C2.56514 144.729 -5.5169 141.298 -13.3262 143.101L-131.459 170.374C-139.268 172.177 -145.028 178.803 -145.727 186.787L-156.294 307.566C-156.992 315.55 -152.47 323.076 -145.093 326.208L-33.4905 373.58C-26.1129 376.712 -17.5579 374.737 -12.2998 368.688Z" stroke="#666B6F" stroke-opacity="0.02" stroke-width="3"/>
<path opacity="0.686869" d="M-11.9044 368.516L65.8267 275.88C70.9784 269.741 71.5909 260.982 67.3438 254.185L3.26163 151.632C-0.985516 144.835 -9.12621 141.546 -16.9028 143.485L-134.239 172.74C-142.016 174.679 -147.659 181.405 -148.218 189.4L-156.654 310.034C-157.213 318.029 -152.56 325.475 -145.129 328.477L-33.0065 373.778C-25.5754 376.78 -17.0561 374.656 -11.9044 368.516Z" stroke="#666B6F" stroke-opacity="0.02" stroke-width="3"/>
<path opacity="0.69697" d="M-11.5283 368.31L64.378 274.573C69.4218 268.345 69.8813 259.577 65.5162 252.855L-0.176204 151.697C-4.54131 144.976 -12.7382 141.829 -20.4798 143.904L-136.986 175.121C-144.728 177.196 -150.253 184.019 -150.673 192.023L-156.985 312.474C-157.405 320.478 -152.623 327.841 -145.14 330.713L-32.5353 373.938C-25.053 376.811 -16.5722 374.538 -11.5283 368.31Z" stroke="#666B6F" stroke-opacity="0.02" stroke-width="3"/>
<path opacity="0.707071" d="M-11.1768 368.077L62.8901 273.275C67.8244 266.96 68.1308 258.185 63.6491 251.541L-3.62438 151.804C-8.10613 145.159 -16.3566 142.156 -24.0609 144.365L-139.705 177.526C-147.409 179.735 -152.815 186.654 -153.094 194.664L-157.293 314.895C-157.573 322.905 -152.663 330.183 -145.132 332.925L-32.0823 374.071C-24.551 376.812 -16.1111 374.392 -11.1768 368.077Z" stroke="#666B6F" stroke-opacity="0.02" stroke-width="3"/>
<path opacity="0.717172" d="M-10.8436 367.81L61.3698 271.979C66.1932 265.579 66.3464 256.8 61.7494 250.235L-7.07559 151.942C-11.6726 145.377 -19.9743 142.519 -27.6388 144.862L-142.388 179.944C-150.053 182.288 -155.337 189.3 -155.477 197.313L-157.571 317.288C-157.711 325.301 -152.675 332.493 -145.097 335.103L-31.6414 374.168C-24.0633 376.778 -15.6669 374.211 -10.8436 367.81Z" stroke="#666B6F" stroke-opacity="0.02" stroke-width="3"/>
<path opacity="0.727273" d="M-10.5376 367.511L59.809 270.688C64.5199 264.204 64.5199 255.423 59.809 248.939L-10.5377 152.116C-15.2486 145.632 -23.5989 142.918 -31.2213 145.395L-145.045 182.379C-152.667 184.855 -157.828 191.958 -157.828 199.973L-157.828 319.654C-157.828 327.669 -152.667 334.772 -145.045 337.248L-31.2213 374.232C-23.5988 376.709 -15.2486 373.995 -10.5376 367.511Z" stroke="#666B6F" stroke-opacity="0.02" stroke-width="3"/>
<path opacity="0.737374" d="M-10.2529 367.185L58.2144 269.404C62.8114 262.839 62.6582 254.06 57.8348 247.659L-14.0033 152.327C-18.8266 145.926 -27.223 143.359 -34.801 145.968L-147.667 184.831C-155.245 187.44 -160.281 194.632 -160.141 202.646L-158.058 321.997C-157.918 330.01 -152.634 337.022 -144.969 339.366L-30.8161 374.266C-23.1516 376.609 -14.8499 373.75 -10.2529 367.185Z" stroke="#666B6F" stroke-opacity="0.02" stroke-width="3"/>
<path opacity="0.747475" d="M-9.98865 366.83L56.5873 268.127C61.0691 261.483 60.7627 252.708 55.8283 246.392L-17.4707 152.574C-22.405 146.258 -30.8449 143.838 -38.3762 146.579L-150.253 187.299C-157.785 190.041 -162.694 197.319 -162.415 205.329L-158.26 324.314C-157.98 332.324 -152.574 339.243 -144.87 341.452L-30.4251 374.268C-22.7209 376.477 -14.4704 373.474 -9.98865 366.83Z" stroke="#666B6F" stroke-opacity="0.02" stroke-width="3"/>
<path opacity="0.757576" d="M-9.75021 366.443L54.9232 266.855C59.2883 260.133 58.8288 251.365 53.785 245.137L-20.9439 152.854C-25.9877 146.626 -34.4686 144.353 -41.9509 147.226L-152.809 189.78C-160.292 192.652 -165.074 200.016 -164.654 208.02L-158.44 326.602C-158.02 334.606 -152.495 341.429 -144.753 343.504L-30.0538 374.237C-22.3122 376.312 -14.1153 373.165 -9.75021 366.443Z" stroke="#666B6F" stroke-opacity="0.02" stroke-width="3"/>
<path opacity="0.767677" d="M-9.53503 366.027L53.2252 265.59C57.4723 258.793 56.8598 250.034 51.7081 243.895L-24.4195 153.169C-29.5712 147.03 -38.0905 144.906 -45.5216 147.908L-155.331 192.274C-162.762 195.276 -167.415 202.722 -166.856 210.717L-158.594 328.862C-158.035 336.857 -152.392 343.583 -144.615 345.522L-29.6995 374.174C-21.9229 376.113 -13.7822 372.824 -9.53503 366.027Z" stroke="#666B6F" stroke-opacity="0.02" stroke-width="3"/>
<path opacity="0.777778" d="M-9.3482 365.582L51.489 264.332C55.6169 257.462 54.8516 248.715 49.5935 242.666L-27.9013 153.519C-33.1594 147.47 -41.7144 145.495 -49.092 148.627L-157.824 194.78C-165.201 197.912 -169.723 205.438 -169.025 213.422L-158.73 331.094C-158.031 339.079 -152.271 345.705 -144.462 347.508L-29.3674 374.079C-21.5581 375.882 -13.4761 372.452 -9.3482 365.582Z" stroke="#666B6F" stroke-opacity="0.02" stroke-width="3"/>
<path opacity="0.787879" d="M-9.18367 365.114L49.7212 263.088C53.7286 256.147 52.8108 247.415 47.448 241.459L-31.3822 153.909C-36.7451 147.953 -45.3332 146.127 -52.655 149.387L-160.28 197.305C-167.601 200.565 -171.991 208.168 -171.154 216.139L-158.839 333.304C-158.001 341.274 -152.126 347.799 -144.287 349.466L-29.0515 373.96C-21.212 375.626 -13.191 372.055 -9.18367 365.114Z" stroke="#666B6F" stroke-opacity="0.02" stroke-width="3"/>
<path opacity="0.79798" d="M-9.04814 364.624L47.916 261.857C51.8016 254.848 50.7316 246.133 45.2656 240.271L-34.8678 154.339C-40.3339 148.477 -48.9526 146.802 -56.2163 150.189L-162.706 199.846C-169.969 203.233 -174.226 210.912 -173.249 218.867L-158.93 335.489C-157.953 343.444 -151.965 349.866 -144.098 351.395L-28.7586 373.815C-20.8912 375.344 -12.9337 371.633 -9.04814 364.624Z" stroke="#666B6F" stroke-opacity="0.02" stroke-width="3"/>
<path opacity="0.808081" d="M-8.93378 364.099L46.0818 260.63C49.8445 253.553 48.6225 244.858 43.0551 239.093L-38.3493 154.796C-43.9168 149.031 -52.5634 147.507 -59.767 151.02L-165.093 202.391C-172.297 205.904 -176.419 213.657 -175.303 221.593L-158.994 337.639C-157.879 345.576 -151.78 351.892 -143.887 353.283L-28.4808 373.633C-20.5879 375.024 -12.6964 371.175 -8.93378 364.099Z" stroke="#666B6F" stroke-opacity="0.02" stroke-width="3"/>
<path opacity="0.818182" d="M-8.84918 363.547L44.2107 259.412C47.8493 252.27 46.4758 243.599 40.8085 237.931L-41.8342 155.289C-47.5014 149.621 -56.1733 148.248 -63.3145 151.886L-167.45 204.946C-174.591 208.585 -178.577 216.408 -177.324 224.324L-159.041 339.759C-157.787 347.675 -151.578 353.884 -143.662 355.138L-28.2269 373.421C-20.3108 374.675 -12.4878 370.689 -8.84918 363.547Z" stroke="#666B6F" stroke-opacity="0.02" stroke-width="3"/>
<path opacity="0.828283" d="M-8.79196 362.973L42.3057 258.207C45.8191 251.004 44.2945 242.357 38.5292 236.79L-45.3189 155.818C-51.0842 150.251 -59.7788 149.029 -66.8553 152.792L-169.774 207.514C-176.85 211.277 -180.699 219.169 -179.308 227.061L-159.067 341.853C-157.675 349.746 -151.359 355.845 -143.423 356.961L-27.9944 373.183C-20.0577 374.298 -12.3054 370.176 -8.79196 362.973Z" stroke="#666B6F" stroke-opacity="0.02" stroke-width="3"/>
<path opacity="0.838384" d="M-8.76158 362.375L40.3681 257.016C43.7552 249.753 42.0799 241.134 36.2184 235.668L-48.802 156.385C-54.6636 150.919 -63.3782 149.849 -70.388 153.735L-172.063 210.094C-179.073 213.98 -182.784 221.937 -181.254 229.804L-159.073 343.919C-157.543 351.787 -151.122 357.775 -143.167 358.751L-27.7828 372.919C-19.8279 373.896 -12.1487 369.639 -8.76158 362.375Z" stroke="#666B6F" stroke-opacity="0.02" stroke-width="3"/>
<path opacity="0.848485" d="M-8.75729 361.75L38.3993 255.835C41.6592 248.513 39.8337 239.925 33.8776 234.562L-52.2818 156.983C-58.2378 151.621 -66.9698 150.703 -73.9107 154.71L-174.317 212.68C-181.258 216.687 -184.829 224.708 -183.162 232.547L-159.057 345.953C-157.391 353.792 -150.866 359.667 -142.895 360.505L-27.5917 372.624C-19.6209 373.462 -12.0172 369.072 -8.75729 361.75Z" stroke="#666B6F" stroke-opacity="0.02" stroke-width="3"/>
<path opacity="0.858586" d="M-8.78049 361.108L36.3986 254.673C39.5302 247.295 37.5551 238.74 31.5063 233.482L-55.7585 157.624C-61.8073 152.366 -70.5539 151.6 -77.4238 155.728L-176.536 215.281C-183.405 219.409 -186.836 227.491 -185.033 235.3L-159.023 347.963C-157.22 355.773 -150.593 361.533 -142.609 362.231L-27.4222 372.309C-19.438 373.008 -11.9121 368.485 -8.78049 361.108Z" stroke="#666B6F" stroke-opacity="0.02" stroke-width="3"/>
<path opacity="0.868687" d="M-8.83608 360.433L34.3618 253.515C37.3641 246.084 35.24 237.565 29.1004 232.413L-59.2362 158.29C-65.3758 153.138 -74.1344 152.526 -80.9312 156.773L-178.724 217.88C-185.521 222.128 -188.81 230.268 -186.871 238.045L-158.974 349.935C-157.035 357.711 -150.309 363.355 -142.314 363.914L-27.2795 371.958C-19.2843 372.517 -11.8384 367.865 -8.83608 360.433Z" stroke="#666B6F" stroke-opacity="0.02" stroke-width="3"/>
<path opacity="0.878788" d="M-8.91783 359.74L32.2957 252.375C35.1679 244.892 32.8955 236.411 26.6669 231.368L-62.7075 158.994C-68.9361 153.95 -77.7041 153.49 -84.4258 157.855L-180.876 220.491C-187.597 224.856 -190.744 233.053 -188.67 240.794L-158.905 351.879C-156.83 359.621 -150.007 365.146 -142.003 365.566L-27.1573 371.584C-19.1536 372.004 -11.79 367.222 -8.91783 359.74Z" stroke="#666B6F" stroke-opacity="0.02" stroke-width="3"/>
<path opacity="0.888889" d="M-9.03266 359.029L30.1942 251.255C32.9354 243.723 30.5153 235.283 24.1996 230.349L-66.1786 159.738C-72.4943 154.803 -81.2689 154.497 -87.9134 158.979L-182.997 223.114C-189.641 227.595 -192.644 235.846 -190.435 243.55L-158.822 353.799C-156.613 361.503 -149.694 366.908 -141.684 367.188L-27.0626 371.191C-19.0528 371.47 -11.7738 366.561 -9.03266 359.029Z" stroke="#666B6F" stroke-opacity="0.02" stroke-width="3"/>
<path opacity="0.89899" d="M-9.1723 358.296L28.0661 250.148C30.6754 242.57 28.1084 234.174 21.7076 229.35L-69.6401 160.515C-76.041 155.691 -84.8196 155.538 -91.3849 160.135L-185.079 225.741C-191.645 230.338 -194.503 238.64 -192.16 246.304L-158.718 355.686C-156.375 363.35 -149.363 368.634 -141.35 368.774L-26.9873 370.77C-18.9738 370.91 -11.7816 365.874 -9.1723 358.296Z" stroke="#666B6F" stroke-opacity="0.02" stroke-width="3"/>
<path opacity="0.909091" d="M-9.34376 357.533L25.9052 249.048C28.3818 241.425 25.6687 233.075 19.1846 228.364L-73.0982 161.317C-79.5822 156.606 -88.3623 156.606 -94.8463 161.317L-187.129 228.364C-193.613 233.075 -196.326 241.425 -193.85 249.048L-158.601 357.533C-156.124 365.155 -149.021 370.316 -141.006 370.316L-26.9383 370.316C-18.9236 370.316 -11.8204 365.155 -9.34376 357.533Z" stroke="#666B6F" stroke-opacity="0.02" stroke-width="3"/>
<path opacity="0.919192" d="M-9.54625 356.759L23.7128 247.973C26.0561 240.309 23.1976 232.007 16.6323 227.41L-76.5512 162.162C-83.1164 157.565 -91.8951 157.718 -98.2959 162.542L-189.146 231.002C-195.546 235.825 -198.113 244.222 -195.504 251.8L-158.469 359.358C-155.859 366.936 -148.667 371.972 -140.654 371.832L-26.915 369.847C-18.9015 369.707 -11.8895 364.423 -9.54625 356.759Z" stroke="#666B6F" stroke-opacity="0.02" stroke-width="3"/>
<path opacity="0.929293" d="M-9.77732 355.963L21.4921 246.913C23.7013 239.209 20.6984 230.959 14.0539 226.477L-79.9957 163.04C-86.6401 158.558 -95.4148 158.864 -101.73 163.799L-191.126 233.642C-197.441 238.576 -199.862 247.016 -197.12 254.547L-158.32 361.15C-155.579 368.682 -148.3 373.591 -140.29 373.312L-26.915 369.352C-18.9052 369.073 -11.9865 363.667 -9.77732 355.963Z" stroke="#666B6F" stroke-opacity="0.02" stroke-width="3"/>
<path opacity="0.939394" d="M-10.04 355.145L19.2408 245.868C21.3152 238.126 18.1687 229.929 11.447 225.564L-83.4339 163.948C-90.1555 159.583 -98.9235 160.042 -105.152 165.086L-193.073 236.283C-199.301 241.327 -201.574 249.807 -198.701 257.29L-158.158 362.908C-155.286 370.39 -147.923 375.172 -139.919 374.753L-26.9414 368.832C-18.9377 368.412 -12.1143 362.887 -10.04 355.145Z" stroke="#666B6F" stroke-opacity="0.02" stroke-width="3"/>
<path opacity="0.949495" d="M-10.3373 354.313L16.9565 244.844C18.8954 237.067 15.6064 228.926 8.80952 224.679L-86.8678 164.893C-93.6646 160.646 -102.423 161.259 -108.563 166.41L-194.988 238.93C-201.128 244.082 -203.252 252.601 -200.25 260.032L-157.986 364.637C-154.984 372.069 -147.538 376.721 -139.543 376.162L-26.9973 368.292C-19.0021 367.733 -12.2762 362.089 -10.3373 354.313Z" stroke="#666B6F" stroke-opacity="0.02" stroke-width="3"/>
<path opacity="0.959596" d="M-10.6612 353.458L14.6477 243.833C16.4506 236.023 13.02 227.941 6.15009 223.813L-90.2887 165.867C-97.1587 161.739 -105.905 162.505 -111.954 167.763L-196.865 241.575C-202.914 246.833 -204.889 255.388 -201.758 262.766L-157.797 366.331C-154.665 373.708 -147.14 378.23 -139.155 377.532L-27.0747 367.726C-19.0905 367.027 -12.4641 361.267 -10.6612 353.458Z" stroke="#666B6F" stroke-opacity="0.02" stroke-width="3"/>
<path opacity="0.969697" d="M-11.0184 352.589L12.3086 242.844C13.975 235.005 10.4038 226.984 3.46291 222.976L-93.7025 166.878C-100.643 162.871 -109.375 163.788 -115.331 169.151L-198.71 244.226C-204.666 249.589 -206.492 258.177 -203.232 265.498L-157.597 367.995C-154.337 375.317 -146.733 379.707 -138.763 378.87L-27.1804 367.142C-19.2096 366.304 -12.6848 360.429 -11.0184 352.589Z" stroke="#666B6F" stroke-opacity="0.02" stroke-width="3"/>
<path opacity="0.979798" d="M-11.4046 351.707L9.94407 241.878C11.4733 234.01 7.76274 226.053 0.752938 222.167L-97.104 167.924C-104.114 164.039 -112.828 165.109 -118.69 170.575L-200.518 246.88C-206.379 252.346 -208.054 260.965 -204.667 268.229L-157.383 369.631C-153.995 376.895 -146.316 381.151 -138.361 380.175L-27.3101 366.539C-19.3552 365.562 -12.9339 359.574 -11.4046 351.707Z" stroke="#666B6F" stroke-opacity="0.02" stroke-width="3"/>
<path opacity="0.989899" d="M-11.8282 350.803L7.54625 240.925C8.93798 233.032 5.08908 225.141 -1.98747 221.378L-100.501 168.997C-107.577 165.235 -116.272 166.457 -122.037 172.024L-202.296 249.529C-208.062 255.097 -209.586 263.744 -206.073 270.947L-157.162 371.228C-153.649 378.432 -145.897 382.554 -137.96 381.439L-27.4725 365.911C-19.5358 364.795 -13.22 358.696 -11.8282 350.803Z" stroke="#666B6F" stroke-opacity="0.02" stroke-width="3"/>
<path d="M-12.2813 349.885L5.12381 239.993C6.37758 232.077 2.39154 224.254 -4.7496 220.616L-103.884 170.104C-111.025 166.465 -119.697 167.839 -125.365 173.506L-204.038 252.18C-209.706 257.847 -211.079 266.519 -207.44 273.66L-156.929 372.795C-153.29 379.936 -145.467 383.922 -137.551 382.668L-27.6595 365.263C-19.7435 364.009 -13.5351 357.801 -12.2813 349.885Z" stroke="#666B6F" stroke-opacity="0.02" stroke-width="3"/>
</g>
<defs>
<clipPath id="clip0_250_7725">
<rect width="267" height="244" rx="24" fill="white"/>
</clipPath>
</defs>
</svg>
