<svg width="258" height="96" viewBox="0 0 258 96" fill="none" xmlns="http://www.w3.org/2000/svg">
<g clip-path="url(#clip0_32_1262)">
<path opacity="0.010101" d="M-28.2026 145.334L45.9736 168.012C53.6381 170.355 61.9398 167.497 66.5368 160.931L111.027 97.3935C115.624 90.8283 115.47 82.0496 110.647 75.6488L63.9669 13.7022C59.1436 7.30142 50.7472 4.73439 43.1692 7.34371L-30.1705 32.5966C-37.7485 35.2059 -42.7845 42.3981 -42.6446 50.4115L-41.2909 127.965C-41.151 135.979 -35.8671 142.991 -28.2026 145.334Z" stroke="#ED1C24" stroke-opacity="0.01" stroke-width="3"/>
<path opacity="0.020202" d="M-27.9968 146.706L46.3768 168.032C54.0811 170.241 62.3316 167.239 66.8133 160.594L110.079 96.4507C114.56 89.8062 114.254 81.0316 109.32 74.7159L61.6853 13.7468C56.751 7.43115 48.3111 5.01105 40.7797 7.75224L-31.9251 34.2146C-39.4564 36.9558 -44.3662 44.2348 -44.0865 52.2446L-41.3863 129.568C-41.1065 137.578 -35.701 144.497 -27.9968 146.706Z" stroke="#ED1C24" stroke-opacity="0.01" stroke-width="3"/>
<path opacity="0.030303" d="M-27.7788 148.055L46.7678 168.03C54.5094 170.104 62.7063 166.958 67.0714 160.236L109.105 95.5106C113.47 88.7889 113.01 80.021 107.966 73.7924L59.3978 13.8151C54.3539 7.58653 45.8731 5.31409 38.3907 8.1863L-33.6596 35.8438C-41.1419 38.716 -45.9239 46.0796 -45.5044 54.0833L-41.4653 131.154C-41.0458 139.158 -35.5204 145.981 -27.7788 148.055Z" stroke="#ED1C24" stroke-opacity="0.01" stroke-width="3"/>
<path opacity="0.040404" d="M-27.548 149.382L47.1471 168.006C54.9237 169.945 63.0644 166.656 67.3115 159.859L108.106 94.5745C112.353 87.7776 111.74 79.019 106.589 72.8794L57.1056 13.908C51.9539 7.76838 43.4347 5.6443 36.0036 8.64666L-35.3726 37.4845C-42.8037 40.4869 -47.4564 47.9328 -46.8973 55.9279L-41.5274 132.722C-40.9683 140.717 -35.3246 147.443 -27.548 149.382Z" stroke="#ED1C24" stroke-opacity="0.01" stroke-width="3"/>
<path opacity="0.050505" d="M-27.3026 150.685L47.5165 167.958C55.3258 169.761 63.4078 166.331 67.5357 159.461L107.084 93.6414C111.212 86.7715 110.447 78.0248 105.189 71.9761L54.8116 14.0241C49.5535 7.97531 40.9985 6.00024 33.621 9.13183L-37.062 39.135C-44.4395 42.2666 -48.9616 49.7925 -48.2631 57.7767L-41.5706 134.272C-40.8721 142.256 -35.1119 148.882 -27.3026 150.685Z" stroke="#ED1C24" stroke-opacity="0.01" stroke-width="3"/>
<path opacity="0.0606061" d="M-27.045 151.967L47.8739 167.891C55.7134 169.558 63.7344 165.986 67.7417 159.046L106.038 92.7144C110.045 85.7735 109.128 77.0416 103.765 71.0855L52.5143 14.1661C47.1514 8.21006 38.5632 6.38459 31.2415 9.64446L-38.7293 40.7975C-46.0511 44.0573 -50.4411 51.661 -49.6034 59.6318L-41.5973 135.805C-40.7595 143.776 -34.8845 150.3 -27.045 151.967Z" stroke="#ED1C24" stroke-opacity="0.01" stroke-width="3"/>
<path opacity="0.0707071" d="M-26.7753 153.225L48.2191 167.802C56.0866 169.331 64.044 165.621 67.9295 158.611L104.968 91.7917C108.854 84.7819 107.784 76.0674 102.318 70.2058L50.2143 14.3318C44.7483 8.47024 36.1296 6.79494 28.8658 10.1821L-40.3743 42.4693C-47.6381 45.8565 -51.8947 53.5356 -50.918 61.4906L-41.6074 137.319C-40.6307 145.274 -34.6427 151.695 -26.7753 153.225Z" stroke="#ED1C24" stroke-opacity="0.01" stroke-width="3"/>
<path opacity="0.0808081" d="M-26.4958 154.459L48.55 167.692C56.4429 169.084 64.3343 165.235 68.097 158.158L103.872 90.8745C107.635 83.7979 106.413 75.1034 100.846 69.3381L47.9102 14.5219C42.3428 8.75662 33.6961 7.23199 26.4926 10.7454L-41.9986 44.1508C-49.2022 47.6642 -53.3241 55.4165 -52.2087 63.3532L-41.6032 138.815C-40.4878 146.752 -34.3887 153.068 -26.4958 154.459Z" stroke="#ED1C24" stroke-opacity="0.01" stroke-width="3"/>
<path opacity="0.0909091" d="M-26.2028 155.671L48.8703 167.561C56.7863 168.815 64.6093 164.829 68.2479 157.688L102.755 89.9637C106.394 82.8225 105.02 74.1506 99.3531 68.4834L45.6067 14.737C39.9395 9.06976 31.2675 7.69626 24.1264 11.3349L-43.598 45.8422C-50.7391 49.4807 -54.7252 57.3038 -53.4714 65.2198L-41.581 140.293C-40.3272 148.209 -34.1188 154.417 -26.2028 155.671Z" stroke="#ED1C24" stroke-opacity="0.01" stroke-width="3"/>
<path opacity="0.10101" d="M-25.8995 156.859L49.177 167.41C57.1136 168.525 64.866 164.403 68.3793 157.2L101.614 89.0585C105.128 81.855 103.603 73.2083 97.8376 67.6408L43.3014 14.9758C37.5361 9.40835 28.8415 8.18641 21.765 11.9491L-45.175 47.5417C-52.2516 51.3044 -56.1005 59.1958 -54.7088 67.0887L-41.5438 141.751C-40.152 149.644 -33.8362 155.743 -25.8995 156.859Z" stroke="#ED1C24" stroke-opacity="0.01" stroke-width="3"/>
<path opacity="0.111111" d="M-25.5871 158.023L49.4689 167.238C57.4239 168.215 65.1031 163.959 68.4902 156.695L100.448 88.16C103.836 80.8962 102.16 72.2775 96.2987 66.8115L40.994 15.239C35.1324 9.77301 26.4178 8.70299 19.408 12.5886L-46.7304 49.2497C-53.7403 53.1353 -57.4509 61.0927 -55.9216 68.9602L-41.4927 143.191C-39.9634 151.058 -33.5421 157.046 -25.5871 158.023Z" stroke="#ED1C24" stroke-opacity="0.01" stroke-width="3"/>
<path opacity="0.121212" d="M-25.2639 159.163L49.748 167.048C57.7188 167.885 65.3225 163.495 68.5824 156.174L99.2606 87.2692C102.52 79.9474 100.695 71.3593 94.7389 65.9964L38.6871 15.5272C32.731 10.1643 23.9991 9.24653 17.0582 13.2539L-48.2619 50.9664C-55.2028 54.9738 -58.774 62.9947 -57.1076 70.8343L-41.4259 144.611C-39.7595 152.451 -33.2347 158.326 -25.2639 159.163Z" stroke="#ED1C24" stroke-opacity="0.01" stroke-width="3"/>
<path opacity="0.131313" d="M-24.932 160.279L50.0123 166.836C57.9965 167.534 65.5224 163.012 68.654 155.634L98.0489 86.3843C101.181 79.0068 99.2054 70.4518 93.1567 65.1937L36.3794 15.838C30.3307 10.5799 21.5841 9.81466 14.7141 13.9425L-49.771 52.6891C-56.641 56.817 -60.0716 64.8991 -58.2687 72.7083L-41.3455 146.011C-39.5426 153.82 -32.9162 159.58 -24.932 160.279Z" stroke="#ED1C24" stroke-opacity="0.01" stroke-width="3"/>
<path opacity="0.141414" d="M-24.5907 161.371L50.2625 166.605C58.2577 167.164 65.7036 162.512 68.7059 155.08L96.8149 85.5083C99.8172 78.0772 97.6932 69.558 91.5536 64.4063L34.0727 16.1741C27.933 11.0223 19.1744 10.4099 12.3776 14.657L-51.2565 54.42C-58.0534 58.6672 -61.3424 66.8079 -59.4035 74.5845L-41.2506 147.392C-39.3117 155.168 -32.5858 160.812 -24.5907 161.371Z" stroke="#ED1C24" stroke-opacity="0.01" stroke-width="3"/>
<path opacity="0.151515" d="M-24.241 162.439L50.4978 166.356C58.5015 166.775 65.8651 161.993 68.7373 154.511L95.558 84.6402C98.4302 77.1579 96.1578 68.677 89.9292 63.6332L31.7665 16.534C25.5379 11.4902 16.7699 11.0307 10.0482 15.3958L-52.719 56.1573C-59.4407 60.5225 -62.5872 68.7193 -60.5128 76.4609L-41.1425 148.752C-39.0681 156.494 -32.2447 162.019 -24.241 162.439Z" stroke="#ED1C24" stroke-opacity="0.01" stroke-width="3"/>
<path opacity="0.161616" d="M-23.8823 163.482L50.719 166.088C58.7288 166.367 66.0078 161.458 68.749 153.926L94.2797 83.7811C97.0209 76.2498 94.6008 67.8099 88.2851 62.8755L29.4626 16.9184C23.1469 11.984 14.3723 11.6776 7.72779 16.1594L-54.1572 57.9013C-60.8017 62.3831 -63.8046 70.6336 -61.5955 78.3378L-41.02 150.093C-38.8109 157.797 -31.8921 163.203 -23.8823 163.482Z" stroke="#ED1C24" stroke-opacity="0.01" stroke-width="3"/>
<path opacity="0.171717" d="M-23.5176 164.503L50.9233 165.802C58.9368 165.942 66.129 160.906 68.7383 153.328L92.9776 82.932C95.5869 75.3539 93.0199 66.9576 86.6191 62.1342L27.1588 17.3277C20.758 12.5044 11.9793 12.3511 5.41408 16.9482L-55.5736 59.6522C-62.1389 64.2493 -64.9974 72.5509 -62.6541 80.2154L-40.8864 151.414C-38.5431 159.079 -31.5311 164.363 -23.5176 164.503Z" stroke="#ED1C24" stroke-opacity="0.01" stroke-width="3"/>
<path opacity="0.181818" d="M-23.1452 165.496L51.1125 165.496C59.1272 165.496 66.2304 160.336 68.707 152.713L91.6539 82.0899C94.1306 74.4675 91.4174 66.1172 84.9334 61.4063L24.8577 17.7587C18.3737 13.0478 9.59365 13.0478 3.10963 17.7587L-56.9661 61.4063C-63.4501 66.1172 -66.1633 74.4675 -63.6866 82.0899L-40.7397 152.713C-38.263 160.336 -31.1599 165.496 -23.1452 165.496Z" stroke="#ED1C24" stroke-opacity="0.01" stroke-width="3"/>
<path opacity="0.191919" d="M-22.766 166.466L51.2858 165.173C59.2993 165.033 66.3113 159.749 68.6546 152.085L90.3085 81.2579C92.6518 73.5934 89.7933 65.2917 83.2281 60.6947L22.5591 18.2138C15.9939 13.6168 7.21518 13.77 0.81437 18.5934L-58.3351 63.1657C-64.7359 67.989 -67.3029 76.3854 -64.6936 83.9635L-40.581 153.991C-37.9717 161.57 -30.7795 166.606 -22.766 166.466Z" stroke="#ED1C24" stroke-opacity="0.01" stroke-width="3"/>
<path opacity="0.20202" d="M-22.3804 167.411L51.4431 164.833C59.4529 164.554 66.3717 159.148 68.5808 151.444L88.9418 80.4368C91.1509 72.7326 88.148 64.4821 81.5035 60.0003L20.2637 18.6936C13.6192 14.2118 4.84456 14.5182 -1.4711 19.4526L-59.6803 64.9306C-65.996 69.8649 -68.4161 78.3048 -65.6749 85.8362L-40.4103 155.25C-37.6692 162.781 -30.3902 167.691 -22.3804 167.411Z" stroke="#ED1C24" stroke-opacity="0.01" stroke-width="3"/>
<path opacity="0.212121" d="M-21.9893 168.332L51.5837 164.476C59.5874 164.056 66.4107 158.531 68.4851 150.789L87.5533 79.6258C89.6276 71.8842 86.4812 63.6873 79.7595 59.3222L17.9713 19.1965C11.2496 14.8314 2.48162 15.2909 -3.74696 20.3347L-61.0024 66.6992C-67.231 71.7431 -69.5034 80.2239 -66.6312 87.7063L-40.2288 156.487C-37.3566 163.969 -29.993 168.751 -21.9893 168.332Z" stroke="#ED1C24" stroke-opacity="0.01" stroke-width="3"/>
<path opacity="0.222222" d="M-21.594 169.228L51.7064 164.102C59.7016 163.543 66.4275 157.899 68.3664 150.122L86.1427 78.8258C88.0816 71.0491 84.7925 62.9084 77.9957 58.6613L15.6816 19.7232C8.8848 15.476 0.126155 16.0885 -6.01345 21.2402L-62.3019 68.4719C-68.4415 73.6236 -70.5656 82.1428 -67.5633 89.5739L-40.0374 157.703C-37.035 165.134 -29.5891 169.787 -21.594 169.228Z" stroke="#ED1C24" stroke-opacity="0.01" stroke-width="3"/>
<path opacity="0.232323" d="M-21.1925 170.099L51.8135 163.712C59.7977 163.014 66.4241 157.253 68.227 149.444L84.7125 78.0376C86.5154 70.2283 83.0848 62.1463 76.2148 58.0184L13.3975 20.2739C6.52754 16.1461 -2.21908 16.9113 -8.26784 22.1694L-63.5766 70.2486C-69.6254 75.5067 -71.6004 84.0617 -68.4689 91.4392L-39.8342 158.898C-36.7026 166.276 -29.1766 170.798 -21.1925 170.099Z" stroke="#ED1C24" stroke-opacity="0.01" stroke-width="3"/>
<path opacity="0.242424" d="M-20.7869 170.945L51.903 163.305C59.8738 162.467 66.3986 156.592 68.065 148.752L83.2613 77.2594C84.9276 69.4198 81.3565 61.3989 74.4155 57.3915L11.1175 20.8464C4.17661 16.8391 -4.55532 17.7568 -10.5114 23.1197L-64.828 72.0266C-70.7841 77.3895 -72.6096 85.9776 -69.3497 93.2994L-39.6212 160.071C-36.3614 167.392 -28.7576 171.782 -20.7869 170.945Z" stroke="#ED1C24" stroke-opacity="0.01" stroke-width="3"/>
<path opacity="0.252525" d="M-20.3782 171.766L51.9741 162.882C59.929 161.906 66.3503 155.918 67.8796 148.05L81.7887 76.494C83.318 68.6265 79.6074 60.6691 72.5976 56.7835L8.84164 21.443C1.83183 17.5574 -6.88275 18.6274 -12.7443 24.0934L-66.0568 73.8081C-71.9184 79.2741 -73.5937 87.8928 -70.2065 95.1566L-39.3995 161.222C-36.0124 168.486 -28.3332 172.743 -20.3782 171.766Z" stroke="#ED1C24" stroke-opacity="0.01" stroke-width="3"/>
<path opacity="0.262626" d="M-19.9656 172.563L52.0279 162.445C59.9646 161.33 66.2805 155.231 67.6722 147.338L80.2966 75.7412C81.6883 67.8483 77.8394 59.9568 70.7629 56.1942L6.57163 22.0631C-0.50492 18.3004 -9.1995 19.5224 -14.9648 25.0898L-67.2616 75.5922C-73.0268 81.1597 -74.5515 89.8063 -71.0381 97.0099L-39.168 162.353C-35.6546 169.557 -27.9023 173.679 -19.9656 172.563Z" stroke="#ED1C24" stroke-opacity="0.01" stroke-width="3"/>
<path opacity="0.272727" d="M-19.5502 173.334L52.0637 161.991C59.9797 160.737 66.1881 154.529 67.4419 146.613L78.7844 74.9992C80.0381 67.0832 76.0521 59.2601 68.911 55.6215L4.30721 22.7042C-2.83393 19.0657 -11.5059 20.4391 -17.1731 26.1064L-68.4429 77.3762C-74.1102 83.0435 -75.4837 91.7154 -71.8451 98.8565L-38.9278 163.46C-35.2892 170.601 -27.4662 174.587 -19.5502 173.334Z" stroke="#ED1C24" stroke-opacity="0.01" stroke-width="3"/>
<path opacity="0.282828" d="M-19.1319 174.08L52.0815 161.523C59.9744 160.131 66.0735 153.816 67.1889 145.879L77.2528 74.2707C78.3682 66.334 74.2463 58.5817 67.0427 55.0682L2.0492 23.3688C-5.15435 19.8554 -13.801 21.38 -19.3685 27.1453L-69.6005 79.1621C-75.168 84.9274 -76.3899 93.622 -72.6273 100.699L-38.6789 164.546C-34.9162 171.623 -27.0248 175.472 -19.1319 174.08Z" stroke="#ED1C24" stroke-opacity="0.01" stroke-width="3"/>
<path opacity="0.292929" d="M-18.7117 174.801L52.0806 161.04C59.9481 159.511 65.9361 153.089 66.9128 145.134L75.7017 73.5545C76.6784 65.5996 72.4218 57.9204 65.158 54.5332L-0.202513 24.0551C-7.46629 20.668 -16.085 22.3433 -21.551 28.2048L-70.7349 80.9481C-76.2009 86.8097 -77.271 95.5243 -73.3854 102.534L-38.4222 165.609C-34.5366 172.619 -26.5792 176.33 -18.7117 174.801Z" stroke="#ED1C24" stroke-opacity="0.01" stroke-width="3"/>
<path opacity="0.30303" d="M-18.2899 175.499L52.0612 160.545C59.9007 158.879 65.7757 152.354 66.6135 144.383L74.1315 72.8547C74.9692 64.8839 70.5792 57.2801 63.2574 54.0203L-2.44726 24.7667C-9.76905 21.5068 -18.3572 23.3323 -23.7201 29.2883L-71.8458 82.7374C-77.2087 88.6934 -78.1264 97.4254 -74.1191 104.366L-38.1577 166.653C-34.1504 173.594 -26.1294 177.165 -18.2899 175.499Z" stroke="#ED1C24" stroke-opacity="0.01" stroke-width="3"/>
<path opacity="0.313131" d="M-17.8672 176.17L52.0226 160.035C59.8319 158.232 65.5921 151.605 66.2906 143.621L72.5422 72.1659C73.2407 64.1817 68.7186 56.6558 61.3411 53.5242L-4.68511 25.4977C-12.0627 22.3661 -20.6176 24.3412 -25.8757 30.39L-72.9337 84.524C-78.1918 90.5727 -78.957 99.3193 -74.8292 106.189L-37.8864 167.672C-33.7585 174.542 -25.6765 177.973 -17.8672 176.17Z" stroke="#ED1C24" stroke-opacity="0.01" stroke-width="3"/>
<path opacity="0.323232" d="M-17.4438 176.817L51.9649 159.511C59.7415 157.573 65.3853 150.847 65.9443 142.852L70.9343 71.4922C71.4933 63.497 66.8406 56.0511 59.4095 53.0487L-6.91527 26.2518C-14.3464 23.2494 -22.8656 25.3735 -28.0173 31.5131L-73.9983 86.311C-79.15 92.4506 -79.7625 101.209 -75.5153 108.006L-37.6083 168.67C-33.3611 175.467 -25.2204 178.756 -17.4438 176.817Z" stroke="#ED1C24" stroke-opacity="0.01" stroke-width="3"/>
<path opacity="0.333333" d="M-17.0197 177.438L51.8884 158.974C59.63 156.9 65.1555 150.076 65.575 142.072L69.3086 70.8312C69.728 62.8275 64.9461 55.4639 57.4637 52.5917L-9.13698 27.0261C-16.6193 24.1539 -25.1002 26.4264 -30.144 32.6549L-75.0391 88.0958C-80.0829 94.3244 -80.5424 103.092 -76.1773 109.814L-37.3233 169.644C-32.9582 176.366 -24.7613 179.512 -17.0197 177.438Z" stroke="#ED1C24" stroke-opacity="0.01" stroke-width="3"/>
<path opacity="0.343434" d="M-16.5968 178.037L51.7916 158.427C59.4958 156.217 64.9014 149.299 65.181 141.289L67.664 70.1878C67.9437 62.178 63.0339 54.899 55.5026 52.1578L-11.3513 27.825C-18.8827 25.0838 -27.3226 27.5039 -32.2569 33.8195L-76.0578 89.8821C-80.9921 96.1978 -81.2986 104.972 -76.8168 111.617L-37.0333 170.598C-32.5516 177.243 -24.301 180.246 -16.5968 178.037Z" stroke="#ED1C24" stroke-opacity="0.01" stroke-width="3"/>
<path opacity="0.353535" d="M-16.1732 178.608L51.6765 157.865C59.341 155.521 64.625 148.509 64.7648 140.496L66.0031 69.5568C66.143 61.5433 61.1069 54.3511 53.5289 51.7418L-13.5556 28.6427C-21.1336 26.0334 -29.5299 28.6005 -34.3533 35.0013L-77.052 91.6643C-81.8754 98.0652 -82.0286 106.844 -77.4316 113.409L-36.7364 171.528C-32.1394 178.093 -23.8377 180.952 -16.1732 178.608Z" stroke="#ED1C24" stroke-opacity="0.01" stroke-width="3"/>
<path opacity="0.363636" d="M-15.7517 179.156L51.5406 157.292C59.1631 154.815 64.3238 147.712 64.3238 139.697L64.3238 68.9418C64.3238 60.9271 59.1631 53.824 51.5406 51.3473L-15.7517 29.4827C-23.3741 27.006 -31.7244 29.7192 -36.4353 36.2032L-78.0243 93.4455C-82.7352 99.9295 -82.7352 108.71 -78.0243 115.194L-36.4353 172.436C-31.7244 178.92 -23.3741 181.633 -15.7517 179.156Z" stroke="#ED1C24" stroke-opacity="0.01" stroke-width="3"/>
<path opacity="0.373737" d="M-15.3324 179.679L51.3841 156.707C58.9621 154.098 63.9981 146.905 63.8583 138.892L62.6268 68.3419C62.4869 60.3284 57.203 53.3164 49.5385 50.9731L-17.939 30.3432C-25.6035 27.9999 -33.9052 30.8584 -38.5023 37.4237L-78.9742 95.2236C-83.5712 101.789 -83.418 110.568 -78.5947 116.968L-36.1302 173.321C-31.3068 179.721 -22.9104 182.288 -15.3324 179.679Z" stroke="#ED1C24" stroke-opacity="0.01" stroke-width="3"/>
<path opacity="0.383838" d="M-14.9141 180.178L51.2085 156.112C58.7398 153.371 63.6496 146.092 63.3698 138.082L60.9141 67.7585C60.6344 59.7487 55.2289 52.83 47.5247 50.6208L-20.1157 31.2253C-27.8199 29.0161 -36.0704 32.0191 -40.5522 38.6636L-79.9004 96.9998C-84.3822 103.644 -84.0758 112.419 -79.1414 118.735L-35.8197 174.184C-30.8853 180.5 -22.4455 182.92 -14.9141 180.178Z" stroke="#ED1C24" stroke-opacity="0.01" stroke-width="3"/>
<path opacity="0.393939" d="M-14.4969 180.652L51.014 155.504C58.4963 152.632 63.2782 145.269 62.8588 137.265L59.1863 67.1896C58.7668 59.1859 53.2414 52.3625 45.4998 50.2882L-22.2808 32.1264C-30.0224 30.0521 -38.2193 33.1985 -42.5844 39.9202L-80.8026 98.7711C-85.1677 105.493 -84.7082 114.261 -79.6644 120.489L-35.5039 175.023C-30.4601 181.252 -21.9793 183.524 -14.4969 180.652Z" stroke="#ED1C24" stroke-opacity="0.01" stroke-width="3"/>
<path opacity="0.40404" d="M-14.0847 181.104L50.7969 154.89C58.228 151.887 62.8807 144.441 62.3216 136.446L57.4403 66.6397C56.8812 58.6445 51.2375 51.9187 43.4609 49.9797L-24.4376 33.0508C-32.2142 31.1118 -40.3549 34.4009 -44.602 41.1977L-81.6842 100.542C-85.9313 107.338 -85.3188 116.097 -80.1671 122.237L-35.1867 175.842C-30.035 181.982 -21.5158 184.106 -14.0847 181.104Z" stroke="#ED1C24" stroke-opacity="0.01" stroke-width="3"/>
<path opacity="0.414141" d="M-13.6753 181.528L50.5598 154.262C57.9374 151.131 62.4594 143.605 61.7609 135.621L55.6789 66.1036C54.9804 58.1195 49.2202 51.4931 41.4109 49.6902L-26.583 33.9925C-34.3923 32.1896 -42.4743 35.6203 -46.6022 42.4902L-82.5429 102.305C-86.6707 109.175 -85.9055 117.922 -80.6474 123.971L-34.8659 176.636C-29.6078 182.685 -21.0529 184.66 -13.6753 181.528Z" stroke="#ED1C24" stroke-opacity="0.01" stroke-width="3"/>
<path opacity="0.424242" d="M-13.2697 181.93L50.302 153.626C57.6237 150.366 62.0138 142.763 61.176 134.792L53.9021 65.5851C53.0643 57.6143 47.1893 51.0895 39.3498 49.4231L-28.7174 34.955C-36.557 33.2887 -44.5779 36.8598 -48.5853 43.8007L-83.3792 104.066C-87.3866 111.007 -86.4688 119.738 -81.1059 125.695L-34.5425 177.408C-29.1797 183.364 -20.5915 185.19 -13.2697 181.93Z" stroke="#ED1C24" stroke-opacity="0.01" stroke-width="3"/>
<path opacity="0.434343" d="M-12.8688 182.309L50.0229 152.982C57.2867 149.595 61.5433 141.916 60.5666 133.961L52.1097 65.0845C51.1329 57.1296 45.145 50.7083 37.2775 49.179L-30.8408 35.9382C-38.7083 34.4089 -46.6657 38.1195 -50.5513 45.1293L-84.1938 105.822C-88.0794 112.832 -87.0094 121.546 -81.5434 127.408L-34.2173 178.159C-28.7513 184.021 -20.1326 185.696 -12.8688 182.309Z" stroke="#ED1C24" stroke-opacity="0.01" stroke-width="3"/>
<path opacity="0.444444" d="M-12.4715 182.661L49.7239 152.327C56.9275 148.813 61.0494 141.061 59.934 133.124L50.3034 64.5989C49.188 56.6622 43.0889 50.3464 35.1959 48.9547L-32.9515 36.9384C-40.8444 35.5467 -48.7359 39.3956 -52.4985 46.4722L-84.9854 107.571C-88.748 114.648 -87.5261 123.342 -81.9586 129.107L-33.8891 178.885C-28.3217 184.65 -19.675 186.175 -12.4715 182.661Z" stroke="#ED1C24" stroke-opacity="0.01" stroke-width="3"/>
<path opacity="0.454545" d="M-12.0796 182.992L49.4036 151.665C56.5447 148.026 60.5307 140.203 59.277 132.287L48.4823 64.1326C47.2286 56.2166 41.0201 50.0082 33.1041 48.7544L-35.0505 37.9598C-42.9665 36.706 -50.7895 40.692 -54.4281 47.8332L-85.7554 109.316C-89.394 116.457 -88.0205 125.129 -82.3532 130.797L-33.5599 179.59C-27.8927 185.257 -19.2207 186.631 -12.0796 182.992Z" stroke="#ED1C24" stroke-opacity="0.01" stroke-width="3"/>
<path opacity="0.464646" d="M-11.6931 183.299L49.0622 150.995C56.1387 147.232 59.9877 139.34 58.5959 131.447L46.6472 63.6833C45.2555 55.7904 38.9397 49.6913 31.003 48.5758L-37.1369 38.9994C-45.0736 37.884 -52.8259 42.0059 -56.3393 49.2095L-86.5034 111.055C-90.0168 118.259 -88.4922 126.905 -82.7269 132.473L-33.2294 180.272C-27.4642 185.839 -18.7696 187.061 -11.6931 183.299Z" stroke="#ED1C24" stroke-opacity="0.01" stroke-width="3"/>
<path opacity="0.474747" d="M-11.3127 183.583L48.6994 150.317C55.7092 146.432 59.4198 138.474 57.8905 130.607L44.7981 63.2526C43.2688 55.3851 36.8475 49.3972 28.8926 48.4204L-39.211 40.0584C-47.1659 39.0816 -54.8451 43.3383 -58.2322 50.602L-87.2302 112.788C-90.6173 120.052 -88.942 128.671 -83.0805 134.137L-32.8986 180.932C-27.037 186.398 -18.3225 187.468 -11.3127 183.583Z" stroke="#ED1C24" stroke-opacity="0.01" stroke-width="3"/>
<path opacity="0.484848" d="M-10.9383 183.841L48.3155 149.631C55.2564 145.624 58.8276 137.603 57.1612 129.763L42.9358 62.8381C41.2695 54.9985 34.7446 49.1236 26.7739 48.2858L-41.2718 41.1339C-49.2425 40.2962 -56.8462 44.6862 -60.1061 52.008L-87.9352 114.513C-91.1951 121.835 -89.3696 130.423 -83.4135 135.786L-32.5672 181.568C-26.6112 186.931 -17.8793 187.849 -10.9383 183.841Z" stroke="#ED1C24" stroke-opacity="0.01" stroke-width="3"/>
<path opacity="0.494949" d="M-10.5699 184.08L47.9111 148.941C54.781 144.813 58.2116 136.731 56.4087 128.921L41.0612 62.4443C39.2583 54.635 32.632 48.8748 24.6478 48.1763L-43.3185 42.23C-51.3026 41.5315 -58.8286 46.0535 -61.9602 53.4311L-88.6181 116.233C-91.7497 123.611 -89.7746 132.166 -83.7259 137.424L-32.2352 182.184C-26.1864 187.442 -17.4398 188.207 -10.5699 184.08Z" stroke="#ED1C24" stroke-opacity="0.01" stroke-width="3"/>
<path opacity="0.50505" d="M-10.2111 184.293L47.4828 148.242C54.2796 143.995 57.5686 135.854 55.6297 128.077L39.1714 62.0668C37.2325 54.2902 30.5066 48.6465 22.5115 48.0874L-45.3541 43.3418C-53.3493 42.7827 -60.7951 47.4354 -63.7975 54.8665L-89.2824 117.944C-92.2848 125.375 -90.1607 133.894 -84.0211 139.046L-31.9061 182.776C-25.7665 187.927 -17.0079 188.54 -10.2111 184.293Z" stroke="#ED1C24" stroke-opacity="0.01" stroke-width="3"/>
<path opacity="0.515152" d="M-9.85878 184.483L47.0339 147.537C53.7556 143.172 56.902 134.975 54.8277 127.233L37.2702 61.708C35.1959 53.9664 28.3725 48.441 20.3688 48.0215L-47.3749 44.4712C-55.3786 44.0518 -62.7422 48.8337 -65.6144 56.3161L-89.9249 119.647C-92.7971 127.129 -90.5246 135.61 -84.2961 140.654L-31.577 183.345C-25.3485 188.389 -16.5805 188.848 -9.85878 184.483Z" stroke="#ED1C24" stroke-opacity="0.01" stroke-width="3"/>
<path opacity="0.525253" d="M-9.51292 184.652L46.5649 146.827C53.2094 142.345 56.2124 134.095 54.0032 126.39L35.3585 61.3686C33.1494 53.6644 26.2306 48.2589 18.2208 47.9792L-49.3801 45.6185C-57.3899 45.3388 -64.6689 50.2485 -67.4101 57.7799L-90.545 121.343C-93.2862 128.874 -90.8661 137.314 -84.5504 142.248L-31.2477 183.893C-24.9321 188.827 -16.1574 189.134 -9.51292 184.652Z" stroke="#ED1C24" stroke-opacity="0.01" stroke-width="3"/>
<path opacity="0.535354" d="M-9.17714 184.798L46.0727 146.112C52.6379 141.515 55.4964 133.213 53.1531 125.548L33.4334 61.048C31.0901 53.3835 24.0781 48.0996 16.0646 47.9597L-51.3727 46.7826C-59.3861 46.6427 -66.5783 51.6787 -69.1876 59.2568L-91.1464 123.03C-93.7557 130.608 -91.1887 139.004 -84.7879 143.827L-30.9219 184.418C-24.5211 189.242 -15.7424 189.395 -9.17714 184.798Z" stroke="#ED1C24" stroke-opacity="0.01" stroke-width="3"/>
<path opacity="0.545455" d="M-8.8493 184.922L45.5595 145.392C52.0435 140.681 54.7567 132.33 52.28 124.708L31.4977 60.7466C29.021 53.1242 21.9178 47.9634 13.9032 47.9634L-53.3498 47.9634C-61.3645 47.9634 -68.4677 53.1242 -70.9444 60.7466L-91.7267 124.708C-94.2034 132.33 -91.4902 140.681 -85.0062 145.392L-30.5974 184.922C-24.1133 189.633 -15.3333 189.633 -8.8493 184.922Z" stroke="#ED1C24" stroke-opacity="0.01" stroke-width="3"/>
<path opacity="0.555556" d="M-8.52927 185.024L45.0259 144.668C51.4267 139.844 53.9938 131.448 51.3844 123.87L29.5524 60.465C26.943 52.887 19.7509 47.8509 11.7374 47.9908L-55.3108 49.1612C-63.3242 49.301 -70.3363 54.585 -72.6795 62.2495L-92.2855 126.378C-94.6288 134.042 -91.7703 142.344 -85.205 146.941L-30.274 185.404C-23.7088 190.001 -14.9301 189.848 -8.52927 185.024Z" stroke="#ED1C24" stroke-opacity="0.01" stroke-width="3"/>
<path opacity="0.565657" d="M-8.22067 185.103L44.4687 143.937C50.7844 139.003 53.2045 130.563 50.4633 123.032L27.5945 60.2005C24.8534 52.6691 17.5744 47.7594 9.5646 48.0391L-57.2585 50.3726C-65.2683 50.6523 -72.1871 56.0579 -74.3962 63.7621L-92.8264 128.036C-95.0355 135.74 -92.0326 143.99 -85.3881 148.472L-29.9555 185.862C-23.311 190.344 -14.5363 190.037 -8.22067 185.103Z" stroke="#ED1C24" stroke-opacity="0.01" stroke-width="3"/>
<path opacity="0.575758" d="M-7.92134 185.163L43.8904 143.207C50.119 138.163 52.3914 129.682 49.5192 122.2L25.6271 59.9585C22.7549 52.4761 15.3913 47.6942 7.38763 48.1136L-59.1903 51.6028C-67.194 52.0223 -74.0173 57.5477 -76.0917 65.2893L-93.347 129.687C-95.4213 137.428 -92.2748 145.625 -85.5531 149.99L-29.6396 186.301C-22.9179 190.666 -14.1499 190.207 -7.92134 185.163Z" stroke="#ED1C24" stroke-opacity="0.01" stroke-width="3"/>
<path opacity="0.585859" d="M-7.63207 185.2L43.2905 142.471C49.4301 137.319 51.5542 128.8 48.5518 121.369L23.65 59.7344C20.6476 52.3033 13.2017 47.6506 5.20656 48.2097L-61.1062 52.8467C-69.1014 53.4058 -75.8273 59.0495 -77.7662 66.8261L-93.8479 131.326C-95.7868 139.103 -92.4977 147.244 -85.7009 151.491L-29.3272 186.717C-22.5303 190.964 -13.7717 190.352 -7.63207 185.2Z" stroke="#ED1C24" stroke-opacity="0.01" stroke-width="3"/>
<path opacity="0.59596" d="M-7.35361 185.216L42.6686 141.733C48.7174 136.474 50.6924 127.919 47.5608 120.542L21.6632 59.5308C18.5316 52.1532 11.0056 47.6312 3.02143 48.3297L-63.0064 54.1064C-70.9906 54.8049 -77.617 60.5651 -79.4199 68.3744L-94.3297 132.956C-96.1326 140.765 -92.702 148.847 -85.8321 152.975L-29.0189 187.112C-22.149 191.24 -13.4024 190.474 -7.35361 185.216Z" stroke="#ED1C24" stroke-opacity="0.01" stroke-width="3"/>
<path opacity="0.606061" d="M-7.08471 185.212L42.0264 140.992C47.9825 135.629 49.8079 127.041 46.5481 119.719L19.6687 59.3467C16.4088 52.025 8.80508 47.6349 0.834294 48.4727L-64.8892 55.3805C-72.86 56.2183 -79.3848 62.0933 -81.0512 69.9328L-94.7911 134.574C-96.4575 142.414 -92.8863 150.435 -85.9454 154.442L-28.7136 187.485C-21.7727 191.492 -13.0408 190.574 -7.08471 185.212Z" stroke="#ED1C24" stroke-opacity="0.01" stroke-width="3"/>
<path opacity="0.616162" d="M-6.82903 185.186L41.3606 140.249C47.2221 134.783 48.8975 126.164 45.5103 118.9L17.6636 59.1827C14.2764 51.919 6.59723 47.6623 -1.35771 48.6391L-66.7575 56.6692C-74.7125 57.6459 -81.1338 63.6339 -82.663 71.5013L-95.2356 136.182C-96.7649 144.049 -93.0543 152.006 -86.0445 155.892L-28.415 187.837C-21.4052 191.722 -12.6906 190.652 -6.82903 185.186Z" stroke="#ED1C24" stroke-opacity="0.01" stroke-width="3"/>
<path opacity="0.626263" d="M-6.58437 185.14L40.6736 139.503C46.4389 133.936 47.9636 125.289 44.4502 118.086L15.6508 59.0381C12.1374 51.8346 4.38507 47.7126 -3.55162 48.828L-68.6087 57.9712C-76.5453 59.0866 -82.8612 65.1857 -84.2529 73.0787L-95.661 137.777C-97.0527 145.67 -93.2038 153.561 -86.1272 157.324L-28.1208 188.167C-21.0442 191.929 -12.3497 190.707 -6.58437 185.14Z" stroke="#ED1C24" stroke-opacity="0.01" stroke-width="3"/>
<path opacity="0.636364" d="M-6.35241 185.075L39.9644 138.758C45.6316 133.091 47.0051 124.419 43.3665 117.278L13.6293 58.9151C9.99072 51.7739 2.16766 47.7879 -5.74835 49.0417L-70.4437 59.2884C-78.3597 60.5422 -84.5682 66.7506 -85.8219 74.6666L-96.0687 139.362C-97.3224 147.278 -93.3364 155.101 -86.1953 158.74L-27.8327 188.477C-20.6916 192.115 -12.0196 190.742 -6.35241 185.075Z" stroke="#ED1C24" stroke-opacity="0.01" stroke-width="3"/>
<path opacity="0.646465" d="M-6.13093 184.988L39.2353 138.01C44.8028 132.245 46.0247 123.55 42.262 116.474L11.6021 58.811C7.83946 51.7345 -0.0519693 47.8856 -7.9449 49.2773L-72.26 60.6178C-80.1529 62.0095 -86.252 68.3253 -87.3674 76.262L-96.4564 140.934C-97.5719 148.87 -93.4499 156.623 -86.2463 160.136L-27.5486 188.765C-20.345 192.278 -11.6984 190.754 -6.13093 184.988Z" stroke="#ED1C24" stroke-opacity="0.01" stroke-width="3"/>
<path opacity="0.656566" d="M-5.92357 184.883L38.4831 137.263C43.9492 131.401 45.0192 122.687 41.1336 115.677L9.56633 58.7282C5.68074 51.7184 -2.27666 48.0078 -10.1441 49.537L-74.0604 61.9611C-81.9279 63.4904 -87.9158 69.9117 -88.8926 77.8666L-96.8278 142.494C-97.8046 150.449 -93.5479 158.128 -86.2842 161.515L-27.2721 189.033C-20.0083 192.42 -11.3896 190.745 -5.92357 184.883Z" stroke="#ED1C24" stroke-opacity="0.01" stroke-width="3"/>
<path opacity="0.666667" d="M-5.72904 184.759L37.7096 136.515C43.0725 130.559 43.9903 121.827 39.9829 114.886L7.52388 58.6657C3.51653 51.7248 -4.50442 48.1536 -12.344 49.82L-75.8434 63.3172C-83.683 64.9836 -89.5579 71.5084 -90.3957 79.4792L-97.1815 144.042C-98.0192 152.012 -93.6292 159.616 -86.3075 162.876L-27.0019 189.281C-19.6801 192.54 -11.0919 190.715 -5.72904 184.759Z" stroke="#ED1C24" stroke-opacity="0.01" stroke-width="3"/>
<path opacity="0.676768" d="M-5.54703 184.616L36.9154 135.768C42.1735 129.719 42.9388 120.973 38.8109 114.103L5.47581 58.6239C1.34795 51.754 -6.73411 48.3233 -14.5434 50.1262L-77.608 64.6859C-85.4173 66.4888 -91.1775 73.1152 -91.8761 81.0993L-97.5171 145.577C-98.2156 153.561 -93.6936 161.087 -86.316 164.218L-26.7377 189.508C-19.3601 192.639 -10.8051 190.664 -5.54703 184.616Z" stroke="#ED1C24" stroke-opacity="0.01" stroke-width="3"/>
<path opacity="0.686869" d="M-5.37925 184.452L36.0991 135.02C41.2509 128.88 41.8634 120.122 37.6162 113.325L3.42109 58.601C-0.826051 51.8042 -8.96675 48.5152 -16.7434 50.4541L-79.3555 66.065C-87.1321 68.004 -92.7758 74.7299 -93.3349 82.725L-97.8362 147.097C-98.3953 155.092 -93.7426 162.538 -86.3115 165.54L-26.4813 189.713C-19.0502 192.715 -10.531 190.591 -5.37925 184.452Z" stroke="#ED1C24" stroke-opacity="0.01" stroke-width="3"/>
<path opacity="0.69697" d="M-5.22534 184.272L35.2616 134.275C40.3054 128.046 40.7649 119.278 36.3998 112.557L1.36078 58.6012C-3.00433 51.8795 -11.2012 48.733 -18.9428 50.8074L-81.085 67.4583C-88.8266 69.5327 -94.352 76.356 -94.7715 84.3597L-98.1385 148.606C-98.558 156.61 -93.776 163.973 -86.2937 166.845L-26.2324 189.901C-18.75 192.773 -10.2691 190.501 -5.22534 184.272Z" stroke="#ED1C24" stroke-opacity="0.01" stroke-width="3"/>
<path opacity="0.707071" d="M-5.08698 184.074L34.4014 133.531C39.3357 127.215 39.6421 118.44 35.1604 111.796L-0.706115 58.6216C-5.18787 51.9771 -13.4384 48.9742 -21.1426 51.1833L-82.7977 68.8626C-90.5019 71.0718 -95.9074 77.9905 -96.1871 86.0004L-98.4256 150.101C-98.7053 158.111 -93.7956 165.39 -86.2642 168.131L-25.9926 190.068C-18.4612 192.809 -10.0213 190.389 -5.08698 184.074Z" stroke="#ED1C24" stroke-opacity="0.01" stroke-width="3"/>
<path opacity="0.717172" d="M-4.96084 183.856L33.5224 132.787C38.3457 126.386 38.499 117.607 33.9019 111.042L-2.77555 58.6614C-7.37258 52.0961 -15.6743 49.2376 -23.3388 51.5809L-84.4899 70.2767C-92.1543 72.6199 -97.4383 79.632 -97.5782 87.6454L-98.6942 151.581C-98.8341 159.594 -93.798 166.787 -86.22 169.396L-25.7586 190.214C-18.1806 192.824 -9.78419 190.257 -4.96084 183.856Z" stroke="#ED1C24" stroke-opacity="0.01" stroke-width="3"/>
<path opacity="0.727273" d="M-4.85156 183.621L32.6201 132.046C37.331 125.562 37.331 116.782 32.6201 110.298L-4.85155 58.7227C-9.56247 52.2387 -17.9128 49.5255 -25.5352 52.0022L-86.1656 71.7022C-93.7881 74.1789 -98.9488 81.2821 -98.9488 89.2968L-98.9488 153.047C-98.9488 161.062 -93.7881 168.165 -86.1656 170.642L-25.5352 190.342C-17.9128 192.819 -9.56248 190.105 -4.85156 183.621Z" stroke="#ED1C24" stroke-opacity="0.01" stroke-width="3"/>
<path opacity="0.737374" d="M-4.7568 183.371L31.6974 131.309C36.2945 124.743 36.1412 115.965 31.3179 109.564L-6.93111 58.8057C-11.7545 52.4049 -20.1508 49.8378 -27.7289 52.4471L-87.8223 73.139C-95.4003 75.7483 -100.436 82.9405 -100.296 90.9539L-99.1873 154.5C-99.0474 162.514 -93.7634 169.526 -86.0989 171.869L-25.32 190.451C-17.6555 192.794 -9.35384 189.936 -4.7568 183.371Z" stroke="#ED1C24" stroke-opacity="0.01" stroke-width="3"/>
<path opacity="0.747475" d="M-4.67719 183.103L30.7541 130.574C35.2358 123.929 34.9294 115.154 29.9951 108.839L-9.01411 58.9093C-13.9484 52.5937 -22.3884 50.1735 -29.9197 52.9147L-89.46 74.5856C-96.9913 77.3268 -101.901 84.6058 -101.621 92.6156L-99.4101 155.938C-99.1304 163.948 -93.7249 170.867 -86.0206 173.076L-25.1137 190.541C-17.4095 192.75 -9.15894 189.747 -4.67719 183.103Z" stroke="#ED1C24" stroke-opacity="0.01" stroke-width="3"/>
<path opacity="0.757576" d="M-4.61337 182.818L29.7898 129.842C34.1549 123.12 33.6954 114.352 28.6516 108.124L-11.1006 59.0338C-16.1444 52.8052 -24.6253 50.5327 -32.1076 53.405L-91.079 76.0419C-98.5614 78.9141 -103.343 86.2777 -102.924 94.2814L-99.618 157.362C-99.1985 165.365 -93.6731 172.189 -85.9315 174.263L-24.9169 190.612C-17.1753 192.686 -8.97847 189.54 -4.61337 182.818Z" stroke="#ED1C24" stroke-opacity="0.01" stroke-width="3"/>
<path opacity="0.767677" d="M-4.56499 182.515L28.8053 129.112C33.0524 122.315 32.4399 113.556 27.2882 107.417L-13.1896 59.1772C-18.3414 53.0376 -26.8606 50.9135 -34.2917 53.9158L-92.6786 77.5057C-100.11 80.5081 -104.762 87.9539 -104.203 95.9491L-99.8106 158.768C-99.2515 166.763 -93.6078 173.489 -85.8312 175.428L-24.7295 190.662C-16.9528 192.601 -8.81213 189.312 -4.56499 182.515Z" stroke="#ED1C24" stroke-opacity="0.01" stroke-width="3"/>
<path opacity="0.777778" d="M-4.53363 182.198L27.7993 128.387C31.9272 121.517 31.1619 112.77 25.9038 106.721L-15.2821 59.3425C-20.5402 53.2937 -29.0952 51.3186 -36.4727 54.4502L-94.26 78.9794C-101.638 82.111 -106.16 89.637 -105.461 97.6212L-99.9896 160.16C-99.2911 168.144 -93.5309 174.771 -85.7216 176.574L-24.5528 190.695C-16.7436 192.498 -8.6615 189.068 -4.53363 182.198Z" stroke="#ED1C24" stroke-opacity="0.01" stroke-width="3"/>
<path opacity="0.787879" d="M-4.51893 181.866L26.7726 127.667C30.78 120.726 29.8622 111.994 24.4994 106.038L-17.377 59.5297C-22.7398 53.5736 -31.328 51.7481 -38.6498 55.008L-95.8223 80.4629C-103.144 83.7227 -107.534 91.3265 -106.696 99.2972L-100.155 161.538C-99.3169 169.508 -93.4419 176.033 -85.6024 177.7L-24.3868 190.711C-16.5472 192.378 -8.52628 188.806 -4.51893 181.866Z" stroke="#ED1C24" stroke-opacity="0.01" stroke-width="3"/>
<path opacity="0.79798" d="M-4.52149 181.518L25.7251 126.952C29.6107 119.942 28.5407 111.227 23.0747 105.366L-19.4742 59.7378C-24.9402 53.8763 -33.5589 52.2009 -40.8227 55.5881L-97.366 81.9546C-104.63 85.3418 -108.886 93.021 -107.91 100.976L-100.306 162.899C-99.3297 170.854 -93.3417 177.276 -85.4743 178.805L-24.2319 190.709C-16.3645 192.239 -8.40708 188.528 -4.52149 181.518Z" stroke="#ED1C24" stroke-opacity="0.01" stroke-width="3"/>
<path opacity="0.808081" d="M-4.53993 181.154L24.6584 126.24C28.4211 119.163 27.1991 110.469 21.6316 104.704L-21.5719 59.9649C-27.1394 54.1996 -35.7861 52.675 -42.9896 56.1884L-98.8892 83.4525C-106.093 86.9659 -110.215 94.7182 -109.099 102.655L-100.444 164.244C-99.3282 172.18 -93.229 178.496 -85.3361 179.888L-24.087 190.688C-16.194 192.079 -8.3026 188.231 -4.53993 181.154Z" stroke="#ED1C24" stroke-opacity="0.01" stroke-width="3"/>
<path opacity="0.818182" d="M-4.57486 180.776L23.5723 125.534C27.2109 118.393 25.8374 109.721 20.1702 104.054L-23.6701 60.2138C-29.3373 54.5466 -38.0093 53.1731 -45.1504 56.8117L-100.392 84.9589C-107.533 88.5975 -111.519 96.4205 -110.266 104.337L-100.567 165.573C-99.3131 173.489 -93.1047 179.697 -85.1887 180.951L-23.9525 190.65C-16.0365 191.903 -8.21345 187.917 -4.57486 180.776Z" stroke="#ED1C24" stroke-opacity="0.01" stroke-width="3"/>
<path opacity="0.828283" d="M-4.6298 180.385L22.4637 124.836C25.9771 117.632 24.4525 108.985 18.6872 103.418L-25.7716 60.4846C-31.5368 54.9171 -40.2314 53.6952 -47.308 57.4579L-101.878 86.4735C-108.955 90.2362 -112.804 98.1276 -111.412 106.021L-100.68 166.886C-99.2881 174.779 -92.9723 180.878 -85.0356 181.994L-23.8322 190.596C-15.8955 191.711 -8.14321 187.589 -4.6298 180.385Z" stroke="#ED1C24" stroke-opacity="0.01" stroke-width="3"/>
<path opacity="0.838384" d="M-4.70044 179.979L21.3372 124.141C24.7243 116.877 23.049 108.258 17.1875 102.792L-27.8714 60.7742C-33.733 55.3082 -42.4476 54.2382 -49.4574 58.1238L-103.343 87.9931C-110.353 91.8787 -114.063 99.8361 -112.534 107.703L-100.778 168.182C-99.249 176.049 -92.8277 182.037 -84.8728 183.014L-23.7217 190.522C-15.7668 191.499 -8.0876 187.242 -4.70044 179.979Z" stroke="#ED1C24" stroke-opacity="0.01" stroke-width="3"/>
<path opacity="0.848485" d="M-4.7893 179.559L20.1907 123.453C23.4506 116.132 21.6251 107.543 15.669 102.181L-29.9718 61.0854C-35.9278 55.7226 -44.6597 54.8048 -51.6007 58.8121L-104.788 89.52C-111.729 93.5274 -115.3 101.548 -113.634 109.388L-100.865 169.462C-99.1986 177.301 -92.6737 183.176 -84.703 184.014L-23.6237 190.433C-15.6529 191.271 -8.04918 186.881 -4.7893 179.559Z" stroke="#ED1C24" stroke-opacity="0.01" stroke-width="3"/>
<path opacity="0.858586" d="M-4.896 179.127L19.025 122.773C22.1566 115.395 20.1815 106.84 14.1328 101.582L-32.0714 61.4173C-38.1202 56.1592 -46.8668 55.3939 -53.7367 59.5218L-106.214 91.053C-113.083 95.1809 -116.514 103.263 -114.711 111.072L-100.939 170.724C-99.1365 178.534 -92.5101 184.294 -84.5259 184.992L-23.5377 190.328C-15.5535 191.027 -8.02758 186.505 -4.896 179.127Z" stroke="#ED1C24" stroke-opacity="0.01" stroke-width="3"/>
<path opacity="0.868687" d="M-5.02205 178.682L17.8389 122.099C20.8413 114.668 18.7172 106.148 12.5776 100.997L-34.1715 61.7695C-40.3111 56.6178 -49.0697 56.0053 -55.8666 60.2525L-107.62 92.5917C-114.417 96.8388 -117.706 104.979 -115.767 112.756L-101.003 171.97C-99.0644 179.747 -92.3385 185.39 -84.3434 185.949L-23.4654 190.206C-15.4703 190.765 -8.0244 186.113 -5.02205 178.682Z" stroke="#ED1C24" stroke-opacity="0.01" stroke-width="3"/>
<path opacity="0.878788" d="M-5.16608 178.224L16.6342 121.432C19.5064 113.95 17.2339 105.469 11.0053 100.425L-36.27 62.1421C-42.4986 57.0983 -51.2666 56.6388 -57.9882 61.004L-109.006 94.1354C-115.728 98.5006 -118.874 106.697 -116.8 114.439L-101.056 173.198C-98.9812 180.94 -92.1579 186.465 -84.1542 186.885L-23.4055 190.068C-15.4018 190.488 -8.03828 185.706 -5.16608 178.224Z" stroke="#ED1C24" stroke-opacity="0.01" stroke-width="3"/>
<path opacity="0.888889" d="M-5.32863 177.754L15.4106 120.774C18.1518 113.242 15.7317 104.802 9.41601 99.8681L-38.3669 62.536C-44.6826 57.6016 -53.4572 57.2952 -60.1017 61.777L-110.372 95.685C-117.017 100.167 -120.02 108.417 -117.811 116.121L-101.097 174.41C-98.8876 182.114 -91.9689 187.52 -83.959 187.799L-23.3586 189.916C-15.3488 190.195 -8.06981 185.285 -5.32863 177.754Z" stroke="#ED1C24" stroke-opacity="0.01" stroke-width="3"/>
<path opacity="0.89899" d="M-5.51023 177.273L14.1681 120.123C16.7774 112.545 14.2103 104.148 7.80954 99.325L-40.4623 62.9496C-46.8631 58.1262 -55.6418 57.973 -62.207 62.5701L-111.719 97.2387C-118.284 101.836 -121.143 110.137 -118.799 117.802L-101.128 175.604C-98.7843 183.268 -91.7723 188.552 -83.7588 188.692L-23.3252 189.747C-15.3117 189.887 -8.11955 184.851 -5.51023 177.273Z" stroke="#ED1C24" stroke-opacity="0.01" stroke-width="3"/>
<path opacity="0.909091" d="M-5.71049 176.778L12.9073 119.479C15.3839 111.856 12.6708 103.506 6.18673 98.7952L-42.5552 63.3822C-49.0392 58.6712 -57.8192 58.6713 -64.3032 63.3822L-113.045 98.7952C-119.529 103.506 -122.242 111.856 -119.766 119.479L-101.148 176.778C-98.6712 184.401 -91.568 189.562 -83.5533 189.562L-23.305 189.562C-15.2903 189.562 -8.18717 184.401 -5.71049 176.778Z" stroke="#ED1C24" stroke-opacity="0.01" stroke-width="3"/>
<path opacity="0.919192" d="M-5.92995 176.274L11.6281 118.845C13.9713 111.18 11.1128 102.879 4.54758 98.2817L-44.6456 63.8363C-51.2108 59.2392 -59.9895 59.3925 -66.3903 64.2158L-114.351 100.357C-120.752 105.18 -123.319 113.577 -120.71 121.155L-101.158 177.937C-98.5489 185.515 -91.3568 190.551 -83.3433 190.411L-23.2987 189.363C-15.2852 189.223 -8.27322 183.939 -5.92995 176.274Z" stroke="#ED1C24" stroke-opacity="0.01" stroke-width="3"/>
<path opacity="0.929293" d="M-6.16915 175.759L10.3303 118.219C12.5394 110.515 9.53647 102.264 2.89199 97.7826L-46.7335 64.3098C-53.378 59.828 -62.1526 60.1344 -68.4683 65.0688L-115.638 101.922C-121.954 106.856 -124.374 115.296 -121.632 122.827L-101.159 179.076C-98.4183 186.608 -91.1393 191.518 -83.1295 191.238L-23.3068 189.149C-15.297 188.869 -8.3783 183.464 -6.16915 175.759Z" stroke="#ED1C24" stroke-opacity="0.01" stroke-width="3"/>
<path opacity="0.939394" d="M-6.42858 175.235L9.01374 117.603C11.0881 109.862 7.94161 101.665 1.21992 97.2999L-48.819 64.8043C-55.5407 60.4392 -64.3087 60.8987 -70.5372 65.9425L-116.905 103.491C-123.134 108.534 -125.406 117.015 -122.534 124.498L-101.152 180.199C-98.28 187.682 -90.9165 192.464 -82.9128 192.044L-23.33 188.922C-15.3263 188.502 -8.50293 182.977 -6.42858 175.235Z" stroke="#ED1C24" stroke-opacity="0.01" stroke-width="3"/>
<path opacity="0.949495" d="M-6.70686 174.7L7.68023 116.996C9.61916 109.22 6.33011 101.079 -0.466741 96.832L-50.9001 65.3177C-57.697 61.0706 -66.4556 61.683 -72.5952 66.8348L-118.152 105.061C-124.291 110.213 -126.416 118.732 -123.413 126.163L-101.135 181.303C-98.133 188.734 -90.6871 193.387 -82.692 192.828L-23.3668 188.679C-15.3717 188.12 -8.64579 182.477 -6.70686 174.7Z" stroke="#ED1C24" stroke-opacity="0.01" stroke-width="3"/>
<path opacity="0.959596" d="M-7.00453 174.156L6.32953 116.4C8.13245 108.591 4.70182 100.509 -2.16812 96.3808L-52.9771 65.8517C-59.847 61.7238 -68.5936 62.4891 -74.6423 67.7472L-119.378 106.635C-125.427 111.893 -127.402 120.448 -124.27 127.826L-101.11 182.389C-97.978 189.767 -90.452 194.289 -82.4678 193.59L-23.418 188.424C-15.4338 187.726 -8.80745 181.965 -7.00453 174.156Z" stroke="#ED1C24" stroke-opacity="0.01" stroke-width="3"/>
<path opacity="0.969697" d="M-7.32306 173.603L4.96054 115.813C6.62688 107.974 3.05573 99.9527 -3.8852 95.9454L-55.0507 66.405C-61.9916 62.3976 -70.7235 63.3154 -76.6796 68.6783L-120.585 108.211C-126.541 113.574 -128.367 122.162 -125.107 129.484L-101.077 183.457C-97.8167 190.779 -90.213 195.169 -82.2422 194.331L-23.485 188.155C-15.5142 187.318 -8.9894 181.443 -7.32306 173.603Z" stroke="#ED1C24" stroke-opacity="0.01" stroke-width="3"/>
<path opacity="0.979798" d="M-7.66005 173.042L3.57599 115.237C5.10526 107.37 1.39466 99.4124 -5.61515 95.5268L-57.1182 66.9781C-64.128 63.0925 -72.8426 64.1626 -78.7042 69.6286L-121.771 109.789C-127.632 115.255 -129.308 123.874 -125.921 131.137L-101.034 184.506C-97.647 191.77 -89.9678 196.027 -82.0129 195.05L-23.5656 187.874C-15.6106 186.897 -9.18932 180.909 -7.66005 173.042Z" stroke="#ED1C24" stroke-opacity="0.01" stroke-width="3"/>
<path opacity="0.989899" d="M-8.01993 172.471L2.17177 114.671C3.56351 106.778 -0.285405 98.8868 -7.36195 95.1241L-59.1836 67.5701C-66.2602 63.8074 -74.9548 65.0293 -80.72 70.5968L-122.939 111.367C-128.705 116.935 -130.229 125.582 -126.716 132.785L-100.987 185.537C-97.4736 192.74 -89.7214 196.862 -81.7847 195.747L-23.6642 187.579C-15.7275 186.463 -9.41167 180.364 -8.01993 172.471Z" stroke="#ED1C24" stroke-opacity="0.01" stroke-width="3"/>
<path d="M-8.39833 171.893L0.752631 114.116C2.00641 106.2 -1.97963 98.3769 -9.12078 94.7384L-61.2421 68.1812C-68.3832 64.5426 -77.0551 65.9161 -82.7224 71.5834L-124.086 112.947C-129.753 118.614 -131.127 127.286 -127.488 134.427L-100.931 186.549C-97.2925 193.69 -89.4694 197.676 -81.5534 196.422L-23.7765 187.271C-15.8605 186.017 -9.6521 179.809 -8.39833 171.893Z" stroke="#ED1C24" stroke-opacity="0.01" stroke-width="3"/>
</g>
<defs>
<clipPath id="clip0_32_1262">
<rect width="258" height="96" rx="24" fill="white"/>
</clipPath>
</defs>
</svg>
