<svg width="557" height="96" viewBox="0 0 557 96" fill="none" xmlns="http://www.w3.org/2000/svg">
<g clip-path="url(#clip0_249_4049)">
<rect width="557" height="96" fill="white"/>
<g opacity="0.7">
<path opacity="0.010101" d="M-29.9613 377.394L263.296 467.052C270.961 469.395 279.262 466.537 283.859 459.972L459.75 208.773C464.347 202.208 464.194 193.429 459.371 187.028L274.82 -57.8785C269.997 -64.2794 261.6 -66.8464 254.022 -64.2371L-35.9273 35.6007C-43.5054 38.21 -48.5414 45.4021 -48.4015 53.4156L-43.0496 360.026C-42.9097 368.039 -37.6257 375.051 -29.9613 377.394Z" stroke="#ED1C24" stroke-opacity="0.15" stroke-width="3"/>
<path opacity="0.020202" d="M-29.4128 382.248L264.776 466.605C272.48 468.814 280.73 465.811 285.212 459.167L456.35 205.445C460.832 198.8 460.525 190.025 455.591 183.71L267.171 -57.4562C262.237 -63.7719 253.797 -66.192 246.266 -63.4508L-41.3216 41.2225C-48.853 43.9636 -53.7627 51.2426 -53.483 59.2524L-42.8022 365.11C-42.5225 373.12 -37.117 380.039 -29.4128 382.248Z" stroke="#ED1C24" stroke-opacity="0.15" stroke-width="3"/>
<path opacity="0.030303" d="M-28.8141 387.04L266.21 466.092C273.952 468.166 282.149 465.02 286.514 458.298L452.864 202.141C457.229 195.42 456.769 186.652 451.725 180.423L259.511 -56.9416C254.467 -63.1702 245.986 -65.4427 238.504 -62.5705L-46.6408 46.8864C-54.1232 49.7586 -58.9051 57.1222 -58.4857 65.1259L-42.5006 370.139C-42.0811 378.143 -36.5557 384.966 -28.8141 387.04Z" stroke="#ED1C24" stroke-opacity="0.15" stroke-width="3"/>
<path opacity="0.040404" d="M-28.1687 391.754L267.596 465.496C275.372 467.435 283.513 464.146 287.76 457.349L449.289 198.848C453.537 192.051 452.924 183.292 447.772 177.153L251.839 -56.3519C246.687 -62.4915 238.168 -64.6156 230.737 -61.6132L-51.8865 52.5739C-59.3176 55.5763 -63.9703 63.0221 -63.4112 71.0173L-42.1481 375.094C-41.589 383.089 -35.9453 389.815 -28.1687 391.754Z" stroke="#ED1C24" stroke-opacity="0.15" stroke-width="3"/>
<path opacity="0.050505" d="M-27.4685 396.401L268.941 464.833C276.75 466.636 284.832 463.205 288.96 456.335L445.638 195.58C449.766 188.71 449.001 179.963 443.743 173.914L244.165 -55.673C238.907 -61.7218 230.352 -63.6968 222.975 -60.5653L-57.0488 58.2976C-64.4263 61.4292 -68.9484 68.9552 -68.2499 76.9394L-41.7365 379.988C-41.038 387.972 -35.2778 394.599 -27.4685 396.401Z" stroke="#ED1C24" stroke-opacity="0.15" stroke-width="3"/>
<path opacity="0.0606061" d="M-26.7221 400.981L270.237 464.102C278.077 465.768 286.098 462.197 290.105 455.256L441.902 192.337C445.909 185.396 444.991 176.664 439.629 170.708L236.485 -54.9063C231.122 -60.8624 222.534 -62.6879 215.212 -59.428L-62.1345 64.0546C-69.4563 67.3145 -73.8463 74.9182 -73.0086 82.889L-41.2744 384.819C-40.4366 392.79 -34.5616 399.315 -26.7221 400.981Z" stroke="#ED1C24" stroke-opacity="0.15" stroke-width="3"/>
<path opacity="0.0707071" d="M-25.9277 405.496L271.487 463.307C279.354 464.836 287.311 461.126 291.197 454.116L438.085 189.123C441.971 182.113 440.901 173.399 435.435 167.537L228.802 -54.0492C223.336 -59.9107 214.717 -61.586 207.454 -58.1989L-67.1403 69.8464C-74.4041 73.2336 -78.6607 80.9127 -77.684 88.8677L-40.7599 389.59C-39.7831 397.545 -33.7952 403.966 -25.9277 405.496Z" stroke="#ED1C24" stroke-opacity="0.15" stroke-width="3"/>
<path opacity="0.0808081" d="M-25.0899 409.92L272.685 462.425C280.578 463.817 288.469 459.968 292.232 452.892L434.185 185.916C437.948 178.84 436.726 170.145 431.158 164.38L221.116 -53.1256C215.548 -58.8909 206.902 -60.4156 199.698 -56.9022L-72.0688 75.6474C-79.2723 79.1608 -83.3943 86.9131 -82.2789 94.8498L-40.1974 394.275C-39.0819 402.212 -32.9828 408.528 -25.0899 409.92Z" stroke="#ED1C24" stroke-opacity="0.15" stroke-width="3"/>
<path opacity="0.0909091" d="M-24.2031 414.287L273.837 461.492C281.753 462.746 289.577 458.76 293.215 451.619L430.209 182.753C433.848 175.611 432.474 166.94 426.807 161.272L213.434 -52.1012C207.766 -57.7684 199.094 -59.1419 191.953 -55.5033L-76.9129 81.4909C-84.0541 85.1295 -88.0401 92.9526 -86.7863 100.869L-39.5813 398.909C-38.3276 406.825 -32.1191 413.034 -24.2031 414.287Z" stroke="#ED1C24" stroke-opacity="0.15" stroke-width="3"/>
<path opacity="0.10101" d="M-23.2758 418.568L274.937 460.479C282.873 461.594 290.626 457.472 294.139 450.269L426.151 179.603C429.665 172.4 428.14 163.753 422.375 158.186L205.751 -51.006C199.985 -56.5734 191.291 -57.7954 184.214 -54.0327L-81.6793 87.3454C-88.7558 91.1081 -92.6047 98.9995 -91.213 106.892L-38.92 403.46C-37.5283 411.353 -31.2125 417.453 -23.2758 418.568Z" stroke="#ED1C24" stroke-opacity="0.15" stroke-width="3"/>
<path opacity="0.111111" d="M-22.3046 422.79L275.986 459.416C283.941 460.392 291.62 456.136 295.007 448.872L422.017 176.499C425.404 169.235 423.728 160.616 417.867 155.15L198.073 -49.8108C192.211 -55.2768 183.497 -56.3468 176.487 -52.4612L-86.3629 93.2389C-93.3727 97.1245 -97.0833 105.082 -95.5541 112.949L-38.2101 407.958C-36.6809 415.826 -30.2596 421.814 -22.3046 422.79Z" stroke="#ED1C24" stroke-opacity="0.15" stroke-width="3"/>
<path opacity="0.121212" d="M-21.2954 426.927L276.979 458.277C284.95 459.114 292.554 454.724 295.814 447.403L417.801 173.414C421.061 166.092 419.236 157.504 413.28 152.141L190.397 -48.5431C184.441 -53.906 175.709 -54.8237 168.768 -50.8164L-90.9681 99.1426C-97.909 103.15 -101.48 111.171 -99.8138 119.01L-37.4574 412.374C-35.791 420.214 -29.2662 426.089 -21.2954 426.927Z" stroke="#ED1C24" stroke-opacity="0.15" stroke-width="3"/>
<path opacity="0.131313" d="M-20.2452 430.988L277.921 457.074C285.905 457.772 293.431 453.25 296.563 445.873L413.511 170.361C416.642 162.983 414.667 154.428 408.618 149.17L182.73 -47.1918C176.681 -52.4499 167.935 -53.2151 161.065 -49.0873L-95.4901 105.066C-102.36 109.194 -105.791 117.276 -103.988 125.086L-36.6587 416.72C-34.8558 424.529 -28.2294 430.289 -20.2452 430.988Z" stroke="#ED1C24" stroke-opacity="0.15" stroke-width="3"/>
<path opacity="0.141414" d="M-19.1582 434.97L278.807 455.805C286.802 456.364 294.248 451.712 297.25 444.281L409.142 167.338C412.145 159.907 410.021 151.387 403.881 146.236L175.069 -45.7603C168.93 -50.9121 160.171 -51.5245 153.374 -47.2774L-99.9315 111.006C-106.728 115.253 -110.017 123.393 -108.079 131.17L-35.8182 420.99C-33.8793 428.767 -27.1534 434.41 -19.1582 434.97Z" stroke="#ED1C24" stroke-opacity="0.15" stroke-width="3"/>
<path opacity="0.151515" d="M-18.0339 438.882L279.638 454.482C287.641 454.902 295.005 450.12 297.877 442.638L404.699 164.356C407.572 156.874 405.299 148.393 399.07 143.349L167.419 -44.2389C161.19 -49.2827 152.422 -49.7422 145.701 -45.3771L-104.29 116.969C-111.012 121.334 -114.158 129.531 -112.084 137.272L-34.9353 425.196C-32.861 432.937 -26.0376 438.463 -18.0339 438.882Z" stroke="#ED1C24" stroke-opacity="0.15" stroke-width="3"/>
<path opacity="0.161616" d="M-16.8704 442.712L280.416 453.094C288.425 453.373 295.704 448.464 298.446 440.932L400.185 161.404C402.927 153.873 400.506 145.433 394.191 140.499L159.783 -42.6402C153.468 -47.5745 144.693 -47.8809 138.049 -43.3992L-108.563 122.942C-115.207 127.424 -118.21 135.675 -116.001 143.379L-34.0081 429.323C-31.799 437.027 -24.8802 442.433 -16.8704 442.712Z" stroke="#ED1C24" stroke-opacity="0.15" stroke-width="3"/>
<path opacity="0.171717" d="M-15.6792 446.474L281.13 451.655C289.144 451.795 296.336 446.759 298.945 439.181L395.592 158.499C398.201 150.921 395.634 142.525 389.233 137.701L152.154 -40.9502C145.754 -45.7736 136.975 -45.9268 130.41 -41.3298L-112.759 128.939C-119.325 133.536 -122.183 141.838 -119.84 149.502L-33.048 433.386C-30.7047 441.05 -23.6927 446.334 -15.6792 446.474Z" stroke="#ED1C24" stroke-opacity="0.15" stroke-width="3"/>
<path opacity="0.181818" d="M-14.4601 450.142L281.782 450.142C289.797 450.142 296.9 444.981 299.376 437.359L390.92 155.616C393.397 147.994 390.684 139.643 384.2 134.932L144.535 -39.1943C138.051 -43.9053 129.271 -43.9053 122.787 -39.1944L-116.878 134.932C-123.362 139.643 -126.075 147.994 -123.598 155.616L-32.0547 437.359C-29.578 444.981 -22.4748 450.142 -14.4601 450.142Z" stroke="#ED1C24" stroke-opacity="0.15" stroke-width="3"/>
<path opacity="0.191919" d="M-13.2055 453.741L282.379 448.581C290.393 448.441 297.405 443.157 299.748 435.493L386.182 152.781C388.525 145.116 385.666 136.815 379.101 132.218L136.936 -37.3485C130.37 -41.9455 121.592 -41.7923 115.191 -36.969L-120.909 140.945C-127.31 145.769 -129.877 154.165 -127.268 161.743L-31.0204 441.266C-28.4111 448.844 -21.2189 453.88 -13.2055 453.741Z" stroke="#ED1C24" stroke-opacity="0.15" stroke-width="3"/>
<path opacity="0.20202" d="M-11.9176 457.265L282.92 446.969C290.929 446.689 297.848 441.283 300.057 433.579L381.375 149.991C383.584 142.287 380.581 134.036 373.937 129.554L129.357 -35.4171C122.712 -39.8988 113.937 -39.5924 107.622 -34.6581L-124.855 146.972C-131.17 151.907 -133.59 160.347 -130.849 167.878L-29.9476 445.103C-27.2064 452.635 -19.9274 457.544 -11.9176 457.265Z" stroke="#ED1C24" stroke-opacity="0.15" stroke-width="3"/>
<path opacity="0.212121" d="M-10.6091 460.699L283.392 445.291C291.395 444.872 298.219 439.346 300.293 431.605L376.491 147.232C378.565 139.491 375.418 131.294 368.697 126.929L121.789 -33.4155C115.067 -37.7806 106.299 -37.3211 100.07 -32.2773L-128.725 152.997C-134.953 158.041 -137.226 166.522 -134.354 174.004L-28.8485 448.854C-25.9763 456.337 -18.6128 461.119 -10.6091 460.699Z" stroke="#ED1C24" stroke-opacity="0.15" stroke-width="3"/>
<path opacity="0.222222" d="M-9.27547 464.068L283.8 443.574C291.796 443.015 298.521 437.371 300.46 429.594L371.535 144.53C373.474 136.753 370.185 128.612 363.388 124.365L114.239 -31.3206C107.442 -35.5678 98.6832 -34.9553 92.5436 -29.8036L-132.514 159.042C-138.653 164.194 -140.777 172.713 -137.775 180.144L-27.7189 452.543C-24.7165 459.974 -17.2706 464.627 -9.27547 464.068Z" stroke="#ED1C24" stroke-opacity="0.15" stroke-width="3"/>
<path opacity="0.232323" d="M-7.91071 467.342L284.153 441.79C292.137 441.091 298.763 435.331 300.566 427.522L366.517 141.857C368.32 134.048 364.889 125.965 358.019 121.838L106.716 -29.1608C99.846 -33.2887 91.0994 -32.5234 85.0507 -27.2653L-136.214 165.077C-142.263 170.336 -144.238 178.891 -141.107 186.268L-26.5524 456.141C-23.4209 463.518 -15.8949 468.04 -7.91071 467.342Z" stroke="#ED1C24" stroke-opacity="0.15" stroke-width="3"/>
<path opacity="0.242424" d="M-6.52406 470.547L284.44 439.966C292.41 439.128 298.935 433.253 300.602 425.413L361.43 139.24C363.096 131.401 359.525 123.38 352.584 119.372L99.2139 -26.9108C92.273 -30.9182 83.541 -30.0004 77.585 -24.6376L-139.834 171.128C-145.79 176.49 -147.616 185.079 -144.356 192.4L-25.3584 459.673C-22.0986 466.995 -14.4948 471.385 -6.52406 470.547Z" stroke="#ED1C24" stroke-opacity="0.15" stroke-width="3"/>
<path opacity="0.252525" d="M-5.11721 473.66L284.66 438.08C292.615 437.103 299.037 431.116 300.566 423.248L356.273 136.658C357.803 128.791 354.092 120.833 347.082 116.948L91.7336 -24.5941C84.7238 -28.4797 76.0093 -27.4096 70.1477 -21.9437L-143.374 177.168C-149.235 182.634 -150.911 191.253 -147.523 198.517L-24.1385 463.117C-20.7513 470.381 -13.0721 474.637 -5.11721 473.66Z" stroke="#ED1C24" stroke-opacity="0.15" stroke-width="3"/>
<path opacity="0.262626" d="M-3.6965 476.703L284.809 436.156C292.746 435.04 299.062 428.941 300.454 421.048L351.044 134.133C352.436 126.24 348.587 118.349 341.511 114.586L84.2717 -22.1902C77.1952 -25.9528 68.5006 -24.7309 62.7353 -19.1635L-146.838 183.219C-152.603 188.787 -154.128 197.433 -150.614 204.637L-22.8989 466.492C-19.3855 473.696 -11.6332 477.818 -3.6965 476.703Z" stroke="#ED1C24" stroke-opacity="0.15" stroke-width="3"/>
<path opacity="0.272727" d="M-2.25093 479.665L284.898 434.185C292.814 432.931 299.023 426.723 300.276 418.806L345.756 131.657C347.01 123.741 343.024 115.918 335.883 112.28L76.8419 -19.7082C69.7008 -23.3468 61.0289 -21.9733 55.3616 -16.3061L-150.214 189.27C-155.882 194.937 -157.255 203.609 -153.617 210.75L-21.6286 469.791C-17.99 476.932 -10.1669 480.918 -2.25093 479.665Z" stroke="#ED1C24" stroke-opacity="0.15" stroke-width="3"/>
<path opacity="0.282828" d="M-0.788524 482.541L284.92 432.162C292.813 430.771 298.912 424.455 300.027 416.518L340.403 129.226C341.519 121.289 337.397 113.537 330.193 110.023L69.4391 -17.1549C62.2355 -20.6683 53.5889 -19.1436 48.0214 -13.3784L-153.51 195.313C-159.077 201.079 -160.299 209.773 -156.537 216.85L-20.3355 473.007C-16.5729 480.083 -8.68144 483.932 -0.788524 482.541Z" stroke="#ED1C24" stroke-opacity="0.15" stroke-width="3"/>
<path opacity="0.292929" d="M0.691045 485.339L284.875 430.099C292.743 428.57 298.731 422.149 299.707 414.194L334.989 126.849C335.966 118.894 331.709 111.214 324.445 107.827L62.0662 -14.5221C54.8025 -17.9093 46.1838 -16.2339 40.7178 -10.3724L-156.723 201.357C-162.189 207.219 -163.259 215.933 -159.373 222.943L-19.0194 476.148C-15.1338 483.158 -7.17638 486.869 0.691045 485.339Z" stroke="#ED1C24" stroke-opacity="0.15" stroke-width="3"/>
<path opacity="0.30303" d="M2.1831 488.057L284.761 427.994C292.6 426.327 298.475 419.802 299.313 411.832L329.51 124.524C330.348 116.553 325.958 108.949 318.636 105.689L54.7216 -11.8131C47.3998 -15.0729 38.8116 -13.2475 33.4487 -7.2914L-159.857 207.396C-165.22 213.352 -166.137 222.084 -162.13 229.025L-17.6847 479.212C-13.6774 486.152 -5.65644 489.724 2.1831 488.057Z" stroke="#ED1C24" stroke-opacity="0.15" stroke-width="3"/>
<path opacity="0.313131" d="M3.68451 490.687L284.574 425.838C292.383 424.035 298.143 417.409 298.842 409.425L323.967 122.244C324.666 114.26 320.144 106.734 312.766 103.602L47.4047 -9.0372C40.0271 -12.1688 31.4721 -10.1937 26.214 -4.14496L-162.913 213.421C-168.171 219.47 -168.937 228.217 -164.809 235.087L-16.3347 482.189C-12.2068 489.059 -4.12476 492.49 3.68451 490.687Z" stroke="#ED1C24" stroke-opacity="0.15" stroke-width="3"/>
<path opacity="0.323232" d="M5.2021 493.238L284.323 423.645C292.099 421.706 297.743 414.98 298.302 406.985L318.368 120.02C318.928 112.025 314.275 104.579 306.844 101.577L40.1251 -6.18434C32.694 -9.1867 24.1748 -7.06263 19.023 -0.923036L-165.885 219.441C-171.036 225.581 -171.649 234.34 -167.402 241.137L-14.9623 485.091C-10.7152 491.887 -2.57451 495.176 5.2021 493.238Z" stroke="#ED1C24" stroke-opacity="0.15" stroke-width="3"/>
<path opacity="0.333333" d="M6.72582 495.708L283.997 421.413C291.739 419.339 297.264 412.516 297.684 404.512L312.707 117.853C313.126 109.849 308.344 102.486 300.862 99.6135L32.8755 -3.25695C25.3931 -6.12916 16.9123 -3.85673 11.8685 2.37184L-168.78 225.454C-173.823 231.682 -174.283 240.45 -169.918 247.172L-13.5777 487.914C-9.21262 494.636 -1.01576 497.783 6.72582 495.708Z" stroke="#ED1C24" stroke-opacity="0.15" stroke-width="3"/>
<path opacity="0.343434" d="M8.25982 498.105L283.604 419.152C291.308 416.942 296.713 410.024 296.993 402.014L306.99 115.748C307.269 107.738 302.36 100.459 294.828 97.7183L25.6628 -0.249976C18.1314 -2.99116 9.69151 -0.571058 4.75718 5.74459L-171.593 231.462C-176.527 237.778 -176.834 246.553 -172.352 253.197L-12.1767 490.667C-7.69491 497.311 0.555616 500.314 8.25982 498.105Z" stroke="#ED1C24" stroke-opacity="0.15" stroke-width="3"/>
<path opacity="0.353535" d="M9.80116 500.416L283.139 416.848C290.804 414.505 296.088 407.492 296.228 399.479L301.216 113.695C301.356 105.682 296.32 98.4895 288.742 95.8802L18.4867 2.82387C10.9086 0.214545 2.51223 2.78157 -2.31112 9.18237L-174.326 237.454C-179.15 243.855 -179.303 252.634 -174.706 259.199L-10.762 493.335C-6.16499 499.9 2.13669 502.759 9.80116 500.416Z" stroke="#ED1C24" stroke-opacity="0.15" stroke-width="3"/>
<path opacity="0.363636" d="M11.3449 502.646L282.6 414.51C290.223 412.033 295.384 404.93 295.384 396.915L295.384 111.7C295.384 103.685 290.223 96.5822 282.6 94.1056L11.3449 5.96934C3.72248 3.49266 -4.62783 6.20583 -9.33874 12.6898L-176.984 243.434C-181.695 249.918 -181.695 258.698 -176.984 265.182L-9.33877 495.925C-4.62784 502.409 3.72247 505.122 11.3449 502.646Z" stroke="#ED1C24" stroke-opacity="0.15" stroke-width="3"/>
<path opacity="0.373737" d="M12.8934 504.786L281.99 412.129C289.568 409.52 294.604 402.327 294.464 394.314L289.497 109.755C289.357 101.742 284.073 94.7297 276.409 92.3865L4.24245 9.17691C-3.42203 6.83364 -11.7237 9.69214 -16.3207 16.2574L-179.562 249.39C-184.159 255.955 -184.006 264.734 -179.182 271.135L-7.90436 498.428C-3.08101 504.829 5.31538 507.396 12.8934 504.786Z" stroke="#ED1C24" stroke-opacity="0.15" stroke-width="3"/>
<path opacity="0.383838" d="M14.4434 506.86L281.306 409.729C288.838 406.988 293.747 399.709 293.468 391.699L283.557 107.883C283.277 99.8729 277.871 92.9542 270.167 90.745L-2.82121 12.4669C-10.5254 10.2577 -18.7759 13.2607 -23.2577 19.9052L-182.063 255.343C-186.544 261.988 -186.238 270.762 -181.304 277.078L-6.46215 500.865C-1.52781 507.181 6.91207 509.601 14.4434 506.86Z" stroke="#ED1C24" stroke-opacity="0.15" stroke-width="3"/>
<path opacity="0.393939" d="M16.0022 508.832L280.557 407.279C288.04 404.407 292.822 397.043 292.402 389.039L277.571 106.051C277.152 98.0469 271.627 91.2235 263.885 89.1492L-9.83625 15.8058C-17.5778 13.7314 -25.7747 16.8779 -30.1398 23.5996L-184.478 261.26C-188.843 267.981 -188.384 276.749 -183.34 282.978L-5.00486 503.203C0.0389563 509.432 8.51981 511.704 16.0022 508.832Z" stroke="#ED1C24" stroke-opacity="0.15" stroke-width="3"/>
<path opacity="0.40404" d="M17.5508 510.741L279.725 404.815C287.156 401.813 291.809 394.367 291.25 386.372L271.525 104.296C270.966 96.3011 265.323 89.5752 257.546 87.6363L-16.819 19.2294C-24.5956 17.2905 -32.7363 20.5795 -36.9835 27.3764L-186.826 267.174C-191.073 273.971 -190.46 282.73 -185.309 288.869L-3.55121 505.479C1.60052 511.619 10.1197 513.743 17.5508 510.741Z" stroke="#ED1C24" stroke-opacity="0.15" stroke-width="3"/>
<path opacity="0.414141" d="M19.1013 512.561L278.823 402.316C286.201 399.184 290.723 391.658 290.024 383.674L265.433 102.596C264.735 94.6115 258.975 87.9851 251.165 86.1822L-23.755 22.7119C-31.5643 20.909 -39.6463 24.3396 -43.7742 31.2095L-189.093 273.061C-193.221 279.931 -192.456 288.677 -187.198 294.726L-2.08938 507.669C3.16874 513.718 11.7237 515.693 19.1013 512.561Z" stroke="#ED1C24" stroke-opacity="0.15" stroke-width="3"/>
<path opacity="0.424242" d="M20.6469 514.3L277.846 399.788C285.167 396.528 289.558 388.924 288.72 380.954L259.291 100.957C258.453 92.9861 252.578 86.4613 244.739 84.7949L-30.6482 26.2597C-38.4878 24.5933 -46.5087 28.1645 -50.5161 35.1054L-191.286 278.925C-195.293 285.866 -194.375 294.598 -189.012 300.554L-0.625873 509.779C4.73701 515.735 13.3252 517.56 20.6469 514.3Z" stroke="#ED1C24" stroke-opacity="0.15" stroke-width="3"/>
<path opacity="0.434343" d="M22.1858 515.969L276.792 397.244C284.056 393.857 288.312 386.178 287.335 378.223L253.099 99.3905C252.122 91.4356 246.134 85.0143 238.267 83.485L-37.4982 29.8817C-45.3656 28.3524 -53.323 32.063 -57.2086 39.0728L-193.405 284.777C-197.29 291.787 -196.22 300.501 -190.754 306.363L0.837369 511.819C6.30336 517.681 14.9221 519.356 22.1858 515.969Z" stroke="#ED1C24" stroke-opacity="0.15" stroke-width="3"/>
<path opacity="0.444444" d="M23.7192 517.544L275.664 394.663C282.867 391.15 286.989 383.397 285.874 375.461L246.862 97.8747C245.746 89.938 239.647 83.6222 231.754 82.2305L-44.3011 33.5545C-52.1941 32.1628 -60.0855 36.0117 -63.8482 43.0882L-195.448 290.591C-199.21 297.667 -197.988 306.362 -192.421 312.127L2.3016 513.768C7.86905 519.533 16.5157 521.058 23.7192 517.544Z" stroke="#ED1C24" stroke-opacity="0.15" stroke-width="3"/>
<path opacity="0.454545" d="M25.2475 519.052L274.463 392.07C281.604 388.432 285.59 380.609 284.336 372.693L240.582 96.4351C239.328 88.519 233.119 82.3106 225.203 81.0568L-51.0542 37.302C-58.9702 36.0482 -66.7933 40.0342 -70.4319 47.1753L-197.414 296.391C-201.052 303.532 -199.679 312.204 -194.011 317.871L3.7672 515.65C9.43445 521.317 18.1064 522.691 25.2475 519.052Z" stroke="#ED1C24" stroke-opacity="0.15" stroke-width="3"/>
<path opacity="0.464646" d="M26.7684 520.48L273.189 389.456C280.266 385.693 284.114 377.802 282.723 369.909L234.259 95.0601C232.868 87.1672 226.552 81.0681 218.615 79.9526L-57.7573 41.111C-65.694 39.9956 -73.4463 44.1176 -76.9597 51.3211L-199.304 302.164C-202.818 309.368 -201.293 318.015 -195.528 323.582L5.232 517.453C10.9973 523.021 19.6919 524.243 26.7684 520.48Z" stroke="#ED1C24" stroke-opacity="0.15" stroke-width="3"/>
<path opacity="0.474747" d="M28.2721 521.819L271.833 386.811C278.842 382.926 282.553 374.968 281.024 367.101L227.888 93.7414C226.359 85.874 219.937 79.886 211.982 78.9093L-64.4177 44.9716C-72.3726 43.9949 -80.0518 48.2515 -83.439 55.5153L-201.128 307.9C-204.515 315.164 -202.84 323.783 -196.978 329.249L6.68615 519.169C12.5477 524.635 21.2623 525.705 28.2721 521.819Z" stroke="#ED1C24" stroke-opacity="0.15" stroke-width="3"/>
<path opacity="0.484848" d="M29.7715 523.085L270.408 384.153C277.349 380.146 280.92 372.125 279.254 364.285L221.483 92.4941C219.817 84.6545 213.292 78.7795 205.321 77.9418L-71.0202 48.8972C-78.9909 48.0594 -86.5947 52.4494 -89.8545 59.7712L-202.872 313.612C-206.132 320.934 -204.306 329.522 -198.35 334.885L8.14261 520.812C14.0987 526.174 22.8306 527.092 29.7715 523.085Z" stroke="#ED1C24" stroke-opacity="0.15" stroke-width="3"/>
<path opacity="0.494949" d="M31.2557 524.277L268.906 381.482C275.776 377.354 279.206 369.272 277.404 361.463L215.036 91.3184C213.233 83.5091 206.606 77.7489 198.622 77.0504L-77.5734 52.8864C-85.5575 52.1879 -93.0835 56.7099 -96.2151 64.0875L-204.546 319.298C-207.677 326.676 -205.702 335.231 -199.653 340.489L9.59045 522.381C15.6392 527.64 24.3858 528.405 31.2557 524.277Z" stroke="#ED1C24" stroke-opacity="0.15" stroke-width="3"/>
<path opacity="0.50505" d="M32.7214 525.382L267.324 378.786C274.121 374.539 277.41 366.399 275.471 358.622L208.546 90.2013C206.607 82.4247 199.881 76.781 191.886 76.2219L-84.0783 56.9246C-92.0734 56.3655 -99.5193 61.0182 -102.522 68.4493L-206.152 324.944C-209.154 332.375 -207.03 340.894 -200.891 346.046L11.0263 523.865C17.1659 529.017 25.9245 529.629 32.7214 525.382Z" stroke="#ED1C24" stroke-opacity="0.15" stroke-width="3"/>
<path opacity="0.515152" d="M34.1677 526.403L265.662 376.069C272.384 371.704 275.53 363.507 273.456 355.766L202.015 89.1454C199.941 81.4038 193.118 75.8783 185.114 75.4589L-90.5334 61.0128C-98.5371 60.5934 -105.901 65.3753 -108.773 72.8577L-207.692 330.55C-210.564 338.032 -208.291 346.513 -202.063 351.557L12.4494 525.265C18.678 530.309 27.446 530.769 34.1677 526.403Z" stroke="#ED1C24" stroke-opacity="0.15" stroke-width="3"/>
<path opacity="0.525253" d="M35.6008 527.356L263.928 373.348C270.573 368.866 273.576 360.615 271.367 352.911L195.453 88.1673C193.243 80.4631 186.325 75.0576 178.315 74.7779L-96.9301 65.1661C-104.94 64.8864 -112.219 69.7961 -114.96 77.3274L-209.157 336.131C-211.898 343.662 -209.478 352.102 -203.162 357.036L13.866 526.597C20.1817 531.532 28.9564 531.838 35.6008 527.356Z" stroke="#ED1C24" stroke-opacity="0.15" stroke-width="3"/>
<path opacity="0.535354" d="M37.012 528.246L262.115 370.627C268.68 366.03 271.539 357.729 269.196 350.064L188.852 87.2713C186.509 79.6068 179.496 74.3229 171.483 74.183L-103.275 69.3871C-111.289 69.2472 -118.481 74.2833 -121.09 81.8613L-210.556 341.69C-213.166 349.268 -210.599 357.664 -204.198 362.488L15.2673 527.867C21.6681 532.69 30.4468 532.843 37.012 528.246Z" stroke="#ED1C24" stroke-opacity="0.15" stroke-width="3"/>
<path opacity="0.545455" d="M38.4113 529.039L260.234 367.875C266.718 363.165 269.431 354.814 266.954 347.192L182.226 86.4238C179.749 78.8014 172.646 73.6406 164.631 73.6406L-109.557 73.6407C-117.571 73.6407 -124.674 78.8014 -127.151 86.4238L-211.88 347.192C-214.356 354.814 -211.643 363.165 -205.159 367.875L16.6633 529.039C23.1473 533.75 31.9273 533.75 38.4113 529.039Z" stroke="#ED1C24" stroke-opacity="0.15" stroke-width="3"/>
<path opacity="0.555556" d="M39.7879 529.769L258.274 365.127C264.675 360.304 267.242 351.908 264.633 344.33L175.566 85.6594C172.956 78.0814 165.764 73.0454 157.751 73.1853L-115.782 77.9598C-123.796 78.0997 -130.808 83.3837 -133.151 91.0481L-213.137 352.669C-215.48 360.334 -212.622 368.635 -206.056 373.232L18.0431 530.148C24.6084 534.745 33.3871 534.592 39.7879 529.769Z" stroke="#ED1C24" stroke-opacity="0.15" stroke-width="3"/>
<path opacity="0.565657" d="M41.135 530.411L256.232 362.359C262.548 357.425 264.968 348.985 262.227 341.454L168.868 84.9528C166.127 77.4215 158.848 72.5118 150.838 72.7915L-121.958 82.3178C-129.968 82.5975 -136.886 88.003 -139.096 95.7072L-214.334 358.095C-216.543 365.8 -213.54 374.05 -206.896 378.532L19.4002 531.17C26.0446 535.652 34.8193 535.346 41.135 530.411Z" stroke="#ED1C24" stroke-opacity="0.15" stroke-width="3"/>
<path opacity="0.575758" d="M42.4607 530.994L254.116 359.598C260.345 354.555 262.617 346.074 259.745 338.591L162.144 84.3309C159.271 76.8486 151.908 72.0666 143.904 72.4861L-128.072 86.7398C-136.076 87.1592 -142.899 92.6847 -144.974 100.426L-215.463 363.496C-217.538 371.238 -214.391 379.434 -207.669 383.8L20.7424 532.132C27.4641 536.497 36.2321 536.037 42.4607 530.994Z" stroke="#ED1C24" stroke-opacity="0.15" stroke-width="3"/>
<path opacity="0.585859" d="M43.7589 531.499L251.922 356.83C258.061 351.678 260.185 343.159 257.183 335.728L155.388 83.7775C152.386 76.3464 144.94 71.6937 136.945 72.2527L-134.13 91.2082C-142.125 91.7673 -148.851 97.4109 -150.79 105.188L-216.529 368.853C-218.468 376.63 -215.179 384.77 -208.382 389.017L22.0639 533.016C28.8607 537.263 37.6194 536.651 43.7589 531.499Z" stroke="#ED1C24" stroke-opacity="0.15" stroke-width="3"/>
<path opacity="0.59596" d="M45.0357 531.922L249.656 354.048C255.705 348.79 257.68 340.235 254.548 332.857L148.611 83.2859C145.48 75.9083 137.954 71.3863 129.97 72.0849L-140.123 95.7149C-148.107 96.4134 -154.734 102.174 -156.537 109.983L-217.526 374.158C-219.329 381.968 -215.899 390.05 -209.029 394.178L23.3704 533.817C30.2403 537.945 38.9869 537.18 45.0357 531.922Z" stroke="#ED1C24" stroke-opacity="0.15" stroke-width="3"/>
<path opacity="0.606061" d="M46.2827 532.275L247.312 351.267C253.268 345.904 255.094 337.316 251.834 329.994L141.807 82.8696C138.547 75.5478 130.943 71.1578 122.972 71.9956L-146.058 100.272C-154.028 101.11 -160.553 106.984 -162.22 114.824L-218.462 379.425C-220.128 387.264 -216.557 395.285 -209.616 399.292L24.6538 534.548C31.5947 538.556 40.3266 537.638 46.2827 532.275Z" stroke="#ED1C24" stroke-opacity="0.15" stroke-width="3"/>
<path opacity="0.616162" d="M47.5031 532.557L244.895 348.486C250.756 343.02 252.432 334.402 249.045 327.138L134.98 82.5262C131.593 75.2624 123.914 71.0058 115.959 71.9825L-151.928 104.875C-159.883 105.852 -166.305 111.84 -167.834 119.707L-219.333 384.648C-220.862 392.515 -217.152 400.472 -210.142 404.358L25.9172 535.208C32.927 539.093 41.6415 538.023 47.5031 532.557Z" stroke="#ED1C24" stroke-opacity="0.15" stroke-width="3"/>
<path opacity="0.626263" d="M48.6826 532.778L242.391 345.716C248.156 340.149 249.681 331.502 246.168 324.298L128.12 82.2651C124.607 75.0615 116.854 70.9396 108.918 72.055L-157.748 109.532C-165.685 110.648 -172.001 116.747 -173.392 124.64L-220.154 389.836C-221.545 397.728 -217.696 405.62 -210.62 409.383L27.1462 535.805C34.2227 539.568 42.9173 538.346 48.6826 532.778Z" stroke="#ED1C24" stroke-opacity="0.15" stroke-width="3"/>
<path opacity="0.636364" d="M49.8394 532.914L239.821 342.932C245.488 337.265 246.861 328.593 243.223 321.452L121.247 82.0618C117.609 74.9206 109.786 70.9346 101.87 72.1883L-163.497 114.218C-171.413 115.472 -177.621 121.68 -178.875 129.596L-220.905 394.963C-222.158 402.879 -218.172 410.702 -211.031 414.34L28.3591 536.316C35.5003 539.954 44.1722 538.581 49.8394 532.914Z" stroke="#ED1C24" stroke-opacity="0.15" stroke-width="3"/>
<path opacity="0.646465" d="M50.9616 532.99L237.173 340.162C242.74 334.397 243.962 325.703 240.199 318.626L114.352 81.9419C110.59 74.8654 102.698 71.0164 94.8052 72.4082L-169.184 118.957C-177.077 120.348 -183.176 126.664 -184.291 134.601L-221.598 400.053C-222.714 407.99 -218.592 415.742 -211.388 419.256L29.5439 536.766C36.7475 540.28 45.3941 538.755 50.9616 532.99Z" stroke="#ED1C24" stroke-opacity="0.15" stroke-width="3"/>
<path opacity="0.656566" d="M52.0514 532.997L234.451 337.397C239.917 331.535 240.987 322.821 237.101 315.811L107.44 81.8951C103.554 74.8853 95.5966 71.1747 87.7292 72.704L-174.806 123.736C-182.673 125.265 -188.661 131.686 -189.638 139.641L-222.232 405.096C-223.208 413.051 -218.952 420.73 -211.688 424.118L30.7029 537.146C37.9666 540.533 46.5853 538.858 52.0514 532.997Z" stroke="#ED1C24" stroke-opacity="0.15" stroke-width="3"/>
<path opacity="0.666667" d="M53.1043 532.933L231.652 334.635C237.015 328.679 237.933 319.947 233.926 313.006L100.508 81.9196C96.5004 74.9786 88.4794 71.4075 80.6399 73.0738L-180.365 128.552C-188.205 130.218 -194.08 136.743 -194.917 144.714L-222.809 410.088C-223.647 418.059 -219.257 425.663 -211.935 428.923L31.8314 537.455C39.1532 540.715 47.7414 538.889 53.1043 532.933Z" stroke="#ED1C24" stroke-opacity="0.15" stroke-width="3"/>
<path opacity="0.676768" d="M54.1174 532.792L228.776 331.87C234.034 325.821 234.799 317.075 230.671 310.205L93.556 82.0068C89.4281 75.1369 81.3461 71.7062 73.5368 73.5091L-185.863 133.396C-193.673 135.199 -199.433 141.826 -200.131 149.81L-223.334 415.02C-224.033 423.005 -219.511 430.531 -212.133 433.662L32.9268 537.684C40.3043 540.816 48.8593 538.84 54.1174 532.792Z" stroke="#ED1C24" stroke-opacity="0.15" stroke-width="3"/>
<path opacity="0.686869" d="M55.0966 532.594L225.828 329.124C230.98 322.985 231.592 314.226 227.345 307.429L86.5927 82.1785C82.3456 75.3817 74.2049 72.0926 66.4283 74.0316L-191.293 138.289C-199.069 140.228 -204.713 146.953 -205.272 154.949L-223.8 419.912C-224.359 427.908 -219.707 435.354 -212.276 438.356L33.9946 537.855C41.4257 540.858 49.9449 538.734 55.0966 532.594Z" stroke="#ED1C24" stroke-opacity="0.15" stroke-width="3"/>
<path opacity="0.69697" d="M56.0415 532.326L222.81 326.383C227.854 320.155 228.314 311.387 223.949 304.665L79.6201 82.4187C75.255 75.697 67.0581 72.5505 59.3166 74.6249L-196.652 143.211C-204.394 145.286 -209.919 152.109 -210.339 160.113L-224.208 424.748C-224.627 432.752 -219.845 440.115 -212.363 442.987L35.0345 537.954C42.5169 540.827 50.9977 538.554 56.0415 532.326Z" stroke="#ED1C24" stroke-opacity="0.15" stroke-width="3"/>
<path opacity="0.707071" d="M56.939 532.001L219.711 323.662C224.645 317.346 224.952 308.572 220.47 301.927L72.6274 82.7417C68.1456 76.0973 59.8951 73.0943 52.1909 75.3035L-201.953 148.178C-209.657 150.387 -215.063 157.306 -215.342 165.316L-224.569 429.54C-224.849 437.55 -219.939 444.829 -212.408 447.57L36.0334 537.995C43.5647 540.737 52.0046 538.316 56.939 532.001Z" stroke="#ED1C24" stroke-opacity="0.15" stroke-width="3"/>
<path opacity="0.717172" d="M57.8015 531.605L216.544 320.946C221.367 314.546 221.521 305.767 216.924 299.202L65.6296 83.1316C61.0325 76.5663 52.7308 73.7078 45.0664 76.0511L-207.181 153.171C-214.845 155.514 -220.129 162.526 -220.269 170.54L-224.873 434.272C-225.013 442.286 -219.977 449.478 -212.399 452.087L37.0037 537.964C44.5817 540.573 52.9781 538.006 57.8015 531.605Z" stroke="#ED1C24" stroke-opacity="0.15" stroke-width="3"/>
<path opacity="0.727273" d="M58.6157 531.142L213.297 318.241C218.008 311.757 218.008 302.977 213.297 296.493L58.6157 83.5917C53.9048 77.1077 45.5545 74.3945 37.9321 76.8712L-212.348 158.192C-219.971 160.669 -225.131 167.772 -225.132 175.787L-225.131 438.947C-225.131 446.962 -219.971 454.065 -212.348 456.542L37.9321 537.863C45.5545 540.339 53.9048 537.626 58.6157 531.142Z" stroke="#ED1C24" stroke-opacity="0.15" stroke-width="3"/>
<path opacity="0.737374" d="M59.3892 530.624L209.98 315.557C214.577 308.992 214.424 300.213 209.601 293.813L51.5956 84.1327C46.7723 77.7319 38.3759 75.1648 30.7978 77.7742L-217.446 163.251C-225.024 165.861 -230.06 173.053 -229.92 181.066L-225.338 443.574C-225.198 451.588 -219.914 458.6 -212.25 460.943L38.826 537.704C46.4905 540.048 54.7922 537.189 59.3892 530.624Z" stroke="#ED1C24" stroke-opacity="0.15" stroke-width="3"/>
<path opacity="0.747475" d="M60.124 530.045L206.596 312.891C211.078 306.246 210.772 297.472 205.837 291.156L44.5739 84.7481C39.6395 78.4325 31.1996 76.0124 23.6683 78.7536L-222.47 168.341C-230.002 171.082 -234.911 178.361 -234.632 186.371L-225.49 448.146C-225.211 456.156 -219.805 463.075 -212.101 465.284L39.6875 537.483C47.3917 539.692 55.6422 536.689 60.124 530.045Z" stroke="#ED1C24" stroke-opacity="0.15" stroke-width="3"/>
<path opacity="0.757576" d="M60.8109 529.399L203.137 310.236C207.502 303.514 207.043 294.746 201.999 288.517L37.5436 85.4317C32.4998 79.2032 24.0189 76.9307 16.5365 79.8029L-227.429 173.453C-234.911 176.325 -239.693 183.688 -239.274 191.692L-225.597 452.656C-225.178 460.66 -219.652 467.483 -211.911 469.558L40.5073 537.193C48.2489 539.267 56.4458 536.121 60.8109 529.399Z" stroke="#ED1C24" stroke-opacity="0.15" stroke-width="3"/>
<path opacity="0.767677" d="M61.4535 528.692L199.609 307.597C203.856 300.8 203.243 292.042 198.092 285.902L30.5105 86.1868C25.3588 80.0472 16.8395 77.9231 9.40847 80.9255L-232.318 178.589C-239.749 181.591 -244.401 189.037 -243.842 197.033L-225.656 457.107C-225.097 465.102 -219.453 471.828 -211.677 473.767L41.289 536.839C49.0657 538.778 57.2064 535.489 61.4535 528.692Z" stroke="#ED1C24" stroke-opacity="0.15" stroke-width="3"/>
<path opacity="0.777778" d="M62.0428 527.922L196.003 304.975C200.131 298.105 199.365 289.358 194.107 283.31L23.4681 87.0117C18.21 80.963 9.65501 78.9879 2.27746 82.1195L-237.143 183.748C-244.521 186.879 -249.043 194.405 -248.344 202.389L-225.675 461.497C-224.977 469.481 -219.217 476.107 -211.407 477.91L42.0236 536.42C49.8329 538.222 57.9149 534.792 62.0428 527.922Z" stroke="#ED1C24" stroke-opacity="0.15" stroke-width="3"/>
<path opacity="0.787879" d="M62.5883 527.105L192.331 302.385C196.338 295.444 195.42 286.712 190.057 280.756L16.4282 87.9216C11.0654 81.9656 2.4772 80.1401 -4.84458 83.3999L-241.896 188.942C-249.217 192.202 -253.607 199.805 -252.77 207.776L-225.646 465.839C-224.808 473.81 -218.933 480.335 -211.094 482.001L42.7205 535.951C50.56 537.618 58.581 534.046 62.5883 527.105Z" stroke="#ED1C24" stroke-opacity="0.15" stroke-width="3"/>
<path opacity="0.79798" d="M63.0801 526.241L188.584 299.827C192.469 292.817 191.399 284.102 185.933 278.241L9.38298 88.9139C3.91699 83.0523 -4.70174 81.377 -11.9655 84.7642L-246.583 194.168C-253.847 197.555 -258.104 205.235 -257.127 213.189L-225.578 470.132C-224.602 478.087 -218.614 484.508 -210.746 486.037L43.3696 535.433C51.237 536.962 59.1945 533.251 63.0801 526.241Z" stroke="#ED1C24" stroke-opacity="0.15" stroke-width="3"/>
<path opacity="0.808081" d="M63.5329 525.306L184.778 297.277C188.541 290.2 187.319 281.506 181.752 275.741L2.34951 89.9644C-3.21797 84.1991 -11.8646 82.6745 -19.0681 86.1879L-251.19 199.401C-258.394 202.915 -262.516 210.667 -261.4 218.604L-225.457 474.35C-224.342 482.286 -218.243 488.602 -210.35 489.994L43.9858 534.84C51.8788 536.232 59.7702 532.383 63.5329 525.306Z" stroke="#ED1C24" stroke-opacity="0.15" stroke-width="3"/>
<path opacity="0.818182" d="M63.9263 524.31L180.896 294.745C184.534 287.604 183.161 278.932 177.493 273.265L-4.69041 91.0813C-10.3576 85.4141 -19.0296 84.0406 -26.1707 87.6792L-255.736 204.648C-262.877 208.287 -266.863 216.11 -265.609 224.026L-225.304 478.501C-224.05 486.417 -217.842 492.625 -209.926 493.879L44.5487 534.184C52.4647 535.438 60.2878 531.451 63.9263 524.31Z" stroke="#ED1C24" stroke-opacity="0.15" stroke-width="3"/>
<path opacity="0.828283" d="M64.269 523.27L176.945 292.249C180.459 285.046 178.934 276.399 173.169 270.832L-11.726 92.2809C-17.4913 86.7134 -26.1859 85.4915 -33.2624 89.2542L-260.21 209.924C-267.287 213.687 -271.136 221.578 -269.744 229.471L-225.11 482.601C-223.719 490.494 -217.403 496.593 -209.466 497.708L45.0666 533.48C53.0033 534.596 60.7556 530.474 64.269 523.27Z" stroke="#ED1C24" stroke-opacity="0.15" stroke-width="3"/>
<path opacity="0.838384" d="M64.5595 522.178L172.928 289.781C176.315 282.518 174.64 273.899 168.778 268.433L-18.7566 93.5538C-24.6182 88.0878 -33.3328 87.0178 -40.3426 90.9034L-264.614 215.219C-271.624 219.105 -275.334 227.062 -273.805 234.929L-224.877 486.64C-223.348 494.507 -216.927 500.495 -208.972 501.472L45.5382 532.722C53.4932 533.699 61.1724 529.442 64.5595 522.178Z" stroke="#ED1C24" stroke-opacity="0.15" stroke-width="3"/>
<path opacity="0.848485" d="M64.8017 521.028L168.849 287.335C172.108 280.013 170.283 271.425 164.327 266.062L-25.7762 94.8929C-31.7322 89.53 -40.4642 88.6122 -47.4051 92.6196L-268.942 220.524C-275.883 224.531 -279.454 232.552 -277.788 240.392L-224.602 490.611C-222.936 498.45 -216.411 504.325 -208.44 505.163L45.9673 531.902C53.9381 532.74 61.5418 528.35 64.8017 521.028Z" stroke="#ED1C24" stroke-opacity="0.15" stroke-width="3"/>
<path opacity="0.858586" d="M64.9913 519.841L164.704 284.932C167.836 277.554 165.861 268.999 159.812 263.741L-32.7869 96.3172C-38.8356 91.0591 -47.5823 90.2939 -54.4522 94.4218L-273.198 225.858C-280.068 229.985 -283.499 238.067 -281.696 245.877L-224.289 494.532C-222.486 502.342 -215.86 508.102 -207.876 508.8L46.3496 531.042C54.3338 531.741 61.8598 527.219 64.9913 519.841Z" stroke="#ED1C24" stroke-opacity="0.15" stroke-width="3"/>
<path opacity="0.868687" d="M65.1171 518.588L160.486 282.542C163.488 275.111 161.364 266.591 155.224 261.44L-39.7979 97.7965C-45.9375 92.6448 -54.6961 92.0323 -61.493 96.2795L-277.392 231.188C-284.189 235.435 -287.478 243.576 -285.539 251.353L-223.95 498.374C-222.011 506.151 -215.285 511.794 -207.29 512.354L46.6737 530.112C54.6689 530.671 62.1148 526.019 65.1171 518.588Z" stroke="#ED1C24" stroke-opacity="0.15" stroke-width="3"/>
<path opacity="0.878788" d="M65.1939 517.288L156.209 280.186C159.081 272.704 156.809 264.223 150.58 259.179L-46.7924 99.35C-53.0209 94.3062 -61.789 93.8466 -68.5106 98.2117L-281.509 236.534C-288.23 240.899 -291.377 249.096 -289.302 256.838L-223.57 502.155C-221.496 509.896 -214.672 515.422 -206.668 515.841L46.9544 529.133C54.9581 529.553 62.3217 524.771 65.1939 517.288Z" stroke="#ED1C24" stroke-opacity="0.15" stroke-width="3"/>
<path opacity="0.888889" d="M65.2054 515.955L151.859 277.876C154.6 270.345 152.18 261.905 145.864 256.97L-53.7846 100.987C-60.1003 96.0531 -68.875 95.7467 -75.5194 100.228L-285.563 241.905C-292.207 246.386 -295.21 254.637 -293.001 262.341L-223.166 505.885C-220.957 513.589 -214.038 518.994 -206.029 519.274L47.1754 528.116C55.1852 528.396 62.4642 523.486 65.2054 515.955Z" stroke="#ED1C24" stroke-opacity="0.15" stroke-width="3"/>
<path opacity="0.89899" d="M65.1704 514.572L147.456 275.596C150.066 268.018 147.499 259.622 141.098 254.799L-60.7539 102.693C-67.1547 97.8692 -75.9334 97.716 -82.4986 102.313L-289.536 247.282C-296.101 251.879 -298.96 260.181 -296.616 267.845L-222.721 509.547C-220.377 517.212 -213.365 522.496 -205.352 522.635L47.3554 527.046C55.3689 527.186 62.561 522.15 65.1704 514.572Z" stroke="#ED1C24" stroke-opacity="0.15" stroke-width="3"/>
<path opacity="0.909091" d="M65.0722 513.129L142.986 273.336C145.462 265.713 142.749 257.363 136.265 252.652L-67.7149 104.452C-74.1988 99.7412 -82.9789 99.7411 -89.4629 104.452L-293.443 252.652C-299.927 257.363 -302.64 265.713 -300.163 273.336L-222.25 513.129C-219.773 520.751 -212.67 525.912 -204.655 525.912L47.4776 525.912C55.4923 525.912 62.5956 520.751 65.0722 513.129Z" stroke="#ED1C24" stroke-opacity="0.15" stroke-width="3"/>
<path opacity="0.919192" d="M64.9174 511.656L138.455 271.125C140.798 263.461 137.94 255.159 131.374 250.562L-74.6591 106.296C-81.2243 101.699 -90.003 101.852 -96.4038 106.676L-297.277 258.044C-303.678 262.868 -306.245 271.264 -303.636 278.842L-221.748 516.659C-219.139 524.238 -211.947 529.274 -203.934 529.134L47.5487 524.744C55.5621 524.604 62.5742 519.32 64.9174 511.656Z" stroke="#ED1C24" stroke-opacity="0.15" stroke-width="3"/>
<path opacity="0.929293" d="M64.7045 510.137L133.864 268.949C136.073 261.245 133.07 252.994 126.426 248.512L-81.5862 108.207C-88.2307 103.725 -97.0054 104.031 -103.321 108.966L-301.039 263.44C-307.355 268.374 -309.775 276.814 -307.034 284.345L-221.218 520.122C-218.477 527.653 -211.198 532.563 -203.188 532.283L47.5668 523.526C55.5766 523.247 62.4954 517.841 64.7045 510.137Z" stroke="#ED1C24" stroke-opacity="0.15" stroke-width="3"/>
<path opacity="0.939394" d="M64.4311 508.573L129.212 266.807C131.287 259.065 128.14 250.868 121.418 246.503L-88.4968 110.182C-95.2185 105.817 -103.987 106.277 -110.215 111.321L-304.731 268.837C-310.96 273.88 -313.232 282.361 -310.36 289.844L-220.662 523.514C-217.79 530.997 -210.426 535.779 -202.423 535.359L47.5297 522.26C55.5334 521.84 62.3568 516.315 64.4311 508.573Z" stroke="#ED1C24" stroke-opacity="0.15" stroke-width="3"/>
<path opacity="0.949495" d="M64.0907 506.975L124.494 264.709C126.433 256.933 123.144 248.792 116.347 244.545L-95.3954 112.233C-102.192 107.986 -110.951 108.599 -117.091 113.75L-308.359 274.243C-314.498 279.395 -316.622 287.914 -313.62 295.345L-220.087 526.847C-217.085 534.278 -209.639 538.931 -201.644 538.372L47.4307 520.955C55.4259 520.396 62.1518 514.752 64.0907 506.975Z" stroke="#ED1C24" stroke-opacity="0.15" stroke-width="3"/>
<path opacity="0.959596" d="M63.6971 505.325L119.726 262.638C121.529 254.829 118.098 246.747 111.228 242.619L-102.267 114.339C-109.137 110.211 -117.883 110.976 -123.932 116.234L-311.908 279.639C-317.956 284.897 -319.931 293.452 -316.8 300.829L-219.48 530.1C-216.349 537.477 -208.823 541.999 -200.839 541.301L47.2836 519.593C55.2678 518.894 61.8942 513.134 63.6971 505.325Z" stroke="#ED1C24" stroke-opacity="0.15" stroke-width="3"/>
<path opacity="0.969697" d="M63.2391 503.65L114.896 260.622C116.563 252.783 112.991 244.762 106.051 240.754L-109.12 116.526C-116.061 112.518 -124.793 113.436 -130.749 118.799L-315.389 285.049C-321.345 290.412 -323.17 299 -319.91 306.322L-218.853 533.299C-215.594 540.621 -207.99 545.011 -200.019 544.173L47.0772 518.202C55.0479 517.365 61.5727 511.49 63.2391 503.65Z" stroke="#ED1C24" stroke-opacity="0.15" stroke-width="3"/>
<path opacity="0.979798" d="M62.7254 501.938L110.016 258.647C111.546 250.779 107.835 242.822 100.825 238.936L-115.945 118.779C-122.954 114.893 -131.669 115.963 -137.531 121.429L-318.793 290.459C-324.654 295.925 -326.33 304.544 -322.942 311.808L-218.199 536.431C-214.812 543.695 -207.132 547.952 -199.177 546.975L46.8199 516.77C54.7749 515.793 61.1962 509.805 62.7254 501.938Z" stroke="#ED1C24" stroke-opacity="0.15" stroke-width="3"/>
<path opacity="0.989899" d="M62.1398 500.182L105.071 256.706C106.463 248.813 102.614 240.921 95.5375 237.159L-122.755 121.09C-129.832 117.328 -138.527 118.55 -144.292 124.117L-322.136 295.859C-327.901 301.426 -329.426 310.073 -325.912 317.276L-217.533 539.487C-214.019 546.691 -206.267 550.813 -198.33 549.697L46.4956 515.289C54.4323 514.174 60.7481 508.075 62.1398 500.182Z" stroke="#ED1C24" stroke-opacity="0.15" stroke-width="3"/>
<path d="M61.4936 498.394L100.073 254.811C101.327 246.895 97.3411 239.072 90.2 235.433L-129.54 123.47C-136.681 119.832 -145.353 121.205 -151.02 126.872L-325.406 301.259C-331.073 306.926 -332.447 315.598 -328.808 322.739L-216.845 542.479C-213.207 549.62 -205.384 553.606 -197.468 552.352L46.1154 513.772C54.0314 512.519 60.2398 506.31 61.4936 498.394Z" stroke="#ED1C24" stroke-opacity="0.15" stroke-width="3"/>
</g>
</g>
<defs>
<clipPath id="clip0_249_4049">
<rect width="557" height="96" fill="white"/>
</clipPath>
</defs>
</svg>
