<svg width="1135" height="646" viewBox="0 0 1135 646" fill="none" xmlns="http://www.w3.org/2000/svg">
<g clip-path="url(#clip0_170_1766)">
<rect width="1135" height="646" fill="white"/>
<path opacity="0.010101" d="M365.467 528.812L820.489 544.701C828.498 544.981 835.777 540.071 838.519 532.54L994.24 104.699C996.981 97.1672 994.561 88.7273 988.246 83.793L629.465 -196.517C623.149 -201.452 614.375 -201.758 607.73 -197.276L230.27 57.3239C223.625 61.8057 220.622 70.0562 222.832 77.7604L348.329 515.422C350.538 523.126 357.457 528.532 365.467 528.812Z" stroke="#ED1C24" stroke-opacity="0.01" stroke-width="3"/>
<path opacity="0.020202" d="M368.053 535.491L822.399 543.421C830.412 543.561 837.605 538.525 840.214 530.947L988.157 101.289C990.766 93.711 988.199 85.3146 981.799 80.4912L618.886 -192.983C612.485 -197.806 603.707 -197.959 597.142 -193.362L224.906 67.2796C218.341 71.8766 215.483 80.1783 217.826 87.8428L350.684 522.402C353.027 530.067 360.039 535.351 368.053 535.491Z" stroke="#ED1C24" stroke-opacity="0.01" stroke-width="3"/>
<path opacity="0.030303" d="M370.68 542.053L824.211 542.053C832.226 542.053 839.329 536.893 841.806 529.27L981.955 97.936C984.432 90.3136 981.718 81.9633 975.234 77.2524L608.319 -189.327C601.835 -194.038 593.055 -194.038 586.571 -189.327L219.657 77.2525C213.173 81.9634 210.459 90.3136 212.936 97.9361L353.085 529.27C355.562 536.893 362.665 542.053 370.68 542.053Z" stroke="#ED1C24" stroke-opacity="0.01" stroke-width="3"/>
<path opacity="0.040404" d="M373.353 548.502L825.931 540.602C833.945 540.462 840.957 535.178 843.3 527.514L975.641 94.6446C977.985 86.9801 975.126 78.6784 968.561 74.0814L597.774 -185.547C591.208 -190.144 582.43 -189.99 576.029 -185.167L214.529 87.243C208.128 92.0664 205.561 100.463 208.17 108.041L355.538 536.027C358.147 543.605 365.339 548.641 373.353 548.502Z" stroke="#ED1C24" stroke-opacity="0.01" stroke-width="3"/>
<path opacity="0.050505" d="M376.078 554.826L827.566 539.06C835.576 538.78 842.495 533.375 844.704 525.671L969.227 91.4074C971.436 83.7032 968.433 75.4526 961.789 70.9709L587.259 -181.652C580.615 -186.134 571.84 -185.828 565.525 -180.893L209.53 97.2403C203.214 102.175 200.794 110.615 203.535 118.146L358.048 542.665C360.789 550.196 368.068 555.106 376.078 554.826Z" stroke="#ED1C24" stroke-opacity="0.01" stroke-width="3"/>
<path opacity="0.0606061" d="M378.847 561.04L829.109 537.443C837.113 537.024 843.936 531.498 846.01 523.757L962.707 88.2403C964.781 80.4987 961.634 72.3018 954.913 67.9367L576.773 -177.63C570.051 -181.995 561.283 -181.536 555.055 -176.492L204.655 107.256C198.427 112.3 196.154 120.781 199.027 128.263L360.607 549.196C363.48 556.678 370.843 561.46 378.847 561.04Z" stroke="#ED1C24" stroke-opacity="0.01" stroke-width="3"/>
<path opacity="0.0707071" d="M381.655 567.134L830.555 535.743C838.55 535.184 845.276 529.541 847.215 521.764L956.079 85.1349C958.018 77.3583 954.729 69.2176 947.932 64.9705L566.314 -173.491C559.517 -177.738 550.758 -177.126 544.619 -171.974L199.902 117.278C193.762 122.43 191.638 130.949 194.641 138.38L363.212 555.609C366.214 563.04 373.66 567.693 381.655 567.134Z" stroke="#ED1C24" stroke-opacity="0.01" stroke-width="3"/>
<path opacity="0.0808081" d="M384.498 573.111L831.902 533.968C839.886 533.269 846.512 527.509 848.315 519.7L949.343 82.0985C951.146 74.2892 947.716 66.2072 940.846 62.0793L555.881 -169.231C549.012 -173.358 540.265 -172.593 534.216 -167.335L195.267 127.309C189.218 132.567 187.243 141.122 190.375 148.5L365.857 561.91C368.988 569.287 376.514 573.809 384.498 573.111Z" stroke="#ED1C24" stroke-opacity="0.01" stroke-width="3"/>
<path opacity="0.0909091" d="M387.386 578.969L833.158 532.116C841.129 531.278 847.654 525.403 849.32 517.564L942.512 79.1304C944.179 71.2909 940.607 63.2699 933.667 59.2626L545.49 -164.852C538.549 -168.859 529.817 -167.941 523.861 -162.578L190.762 137.345C184.806 142.708 182.981 151.296 186.24 158.618L368.551 568.095C371.811 575.416 379.415 579.806 387.386 578.969Z" stroke="#ED1C24" stroke-opacity="0.01" stroke-width="3"/>
<path opacity="0.10101" d="M390.307 584.705L834.317 530.188C842.272 529.211 848.693 523.223 850.222 515.356L935.58 76.2302C937.109 68.3628 933.398 60.4054 926.389 56.5198L535.132 -160.357C528.123 -164.243 519.408 -163.173 513.546 -157.707L186.379 147.382C180.518 152.848 178.843 161.466 182.23 168.73L371.286 574.162C374.673 581.425 382.352 585.682 390.307 584.705Z" stroke="#ED1C24" stroke-opacity="0.01" stroke-width="3"/>
<path opacity="0.111111" d="M393.256 590.324L835.371 528.189C843.308 527.073 849.624 520.974 851.016 513.081L928.543 73.4036C929.934 65.5107 926.085 57.6193 919.009 53.8566L524.808 -155.744C517.731 -159.507 509.037 -158.285 503.271 -152.717L182.115 157.42C176.349 162.988 174.825 171.634 178.338 178.838L374.053 580.114C377.567 587.318 385.319 591.439 393.256 590.324Z" stroke="#ED1C24" stroke-opacity="0.01" stroke-width="3"/>
<path opacity="0.121212" d="M396.239 595.824L836.329 526.121C844.245 524.867 850.454 518.659 851.708 510.743L921.411 70.6519C922.665 62.7359 918.679 54.9128 911.538 51.2743L514.526 -151.013C507.385 -154.652 498.713 -153.278 493.046 -147.611L177.976 167.459C172.308 173.126 170.935 181.798 174.574 188.939L376.861 585.951C380.5 593.092 388.323 597.078 396.239 595.824Z" stroke="#ED1C24" stroke-opacity="0.01" stroke-width="3"/>
<path opacity="0.131313" d="M399.248 601.199L837.185 523.978C845.077 522.587 851.177 516.271 852.292 508.334L914.181 67.9691C915.297 60.0325 911.175 52.2802 903.971 48.7668L504.284 -146.174C497.08 -149.687 488.434 -148.162 482.866 -142.397L173.957 177.488C168.389 183.253 167.167 191.948 170.93 199.024L379.701 591.665C383.463 598.741 391.355 602.59 399.248 601.199Z" stroke="#ED1C24" stroke-opacity="0.01" stroke-width="3"/>
<path opacity="0.141414" d="M402.283 606.456L837.938 521.773C845.806 520.244 851.794 513.823 852.77 505.868L906.857 65.367C907.834 57.412 903.577 49.7328 896.313 46.3457L494.086 -141.216C486.822 -144.603 478.203 -142.928 472.737 -137.066L170.06 187.515C164.594 193.377 163.524 202.091 167.41 209.101L382.573 597.265C386.458 604.275 394.416 607.985 402.283 606.456Z" stroke="#ED1C24" stroke-opacity="0.01" stroke-width="3"/>
<path opacity="0.151515" d="M405.342 611.592L838.589 519.502C846.428 517.836 852.303 511.311 853.141 503.341L899.439 62.8419C900.277 54.8711 895.887 47.2674 888.565 44.0075L483.933 -136.146C476.611 -139.406 468.023 -137.581 462.66 -131.625L166.285 197.533C160.923 203.489 160.005 212.221 164.012 219.162L385.475 602.746C389.482 609.687 397.503 613.258 405.342 611.592Z" stroke="#ED1C24" stroke-opacity="0.01" stroke-width="3"/>
<path opacity="0.161616" d="M408.43 616.607L839.141 517.169C846.95 515.366 852.711 508.74 853.409 500.756L891.936 60.3966C892.634 52.4124 888.112 44.8865 880.735 41.7549L473.833 -130.964C466.456 -134.096 457.901 -132.121 452.643 -126.072L162.638 207.541C157.38 213.589 156.614 222.336 160.742 229.206L388.41 608.109C392.538 614.979 400.62 618.41 408.43 616.607Z" stroke="#ED1C24" stroke-opacity="0.01" stroke-width="3"/>
<path opacity="0.171717" d="M411.529 621.507L839.582 514.782C847.359 512.843 853.003 506.117 853.562 498.122L884.335 58.0388C884.895 50.0437 880.242 42.5978 872.811 39.5954L463.777 -125.665C456.346 -128.667 447.826 -126.543 442.675 -120.404L159.104 217.542C153.953 223.682 153.34 232.441 157.587 239.238L391.365 613.36C395.612 620.157 403.753 623.446 411.529 621.507Z" stroke="#ED1C24" stroke-opacity="0.01" stroke-width="3"/>
<path opacity="0.181818" d="M414.646 626.276L839.917 512.324C847.659 510.25 853.184 503.427 853.604 495.423L876.646 55.7531C877.065 47.7493 872.283 40.3858 864.801 37.5136L453.77 -120.266C446.288 -123.138 437.807 -120.866 432.763 -114.637L155.69 227.519C150.647 233.748 150.187 242.516 154.552 249.237L394.342 618.482C398.707 625.203 406.904 628.35 414.646 626.276Z" stroke="#ED1C24" stroke-opacity="0.01" stroke-width="3"/>
<path opacity="0.191919" d="M417.779 630.924L840.147 509.812C847.851 507.602 853.257 500.684 853.536 492.674L868.871 53.5521C869.151 45.5422 864.241 38.2633 856.71 35.5221L443.818 -114.758C436.287 -117.499 427.847 -115.079 422.913 -108.763L152.398 237.48C147.463 243.796 147.157 252.571 151.639 259.215L397.342 623.485C401.824 630.13 410.075 633.133 417.779 630.924Z" stroke="#ED1C24" stroke-opacity="0.01" stroke-width="3"/>
<path opacity="0.20202" d="M420.928 635.454L840.273 507.248C847.937 504.905 853.221 497.893 853.361 489.879L861.014 51.4401C861.154 43.4266 856.118 36.2345 848.54 33.6252L433.925 -109.138C426.347 -111.748 417.95 -109.181 413.127 -102.78L149.228 247.426C144.404 253.827 144.251 262.606 148.848 269.171L400.365 628.374C404.962 634.939 413.263 637.798 420.928 635.454Z" stroke="#ED1C24" stroke-opacity="0.01" stroke-width="3"/>
<path opacity="0.212121" d="M424.082 639.862L840.285 504.63C847.907 502.153 853.068 495.05 853.068 487.035L853.068 49.4136C853.068 41.3988 847.907 34.2957 840.285 31.819L424.082 -103.414C416.459 -105.89 408.109 -103.177 403.398 -96.693L146.171 257.35C141.46 263.834 141.46 272.614 146.171 279.098L403.398 633.142C408.109 639.626 416.459 642.339 424.082 639.862Z" stroke="#ED1C24" stroke-opacity="0.01" stroke-width="3"/>
<path opacity="0.222222" d="M427.243 644.151L840.187 501.963C847.765 499.354 852.801 492.161 852.661 484.148L845.039 47.4764C844.899 39.463 839.615 32.4509 831.951 30.1077L414.296 -97.5821C406.631 -99.9254 398.33 -97.0669 393.733 -90.5016L143.23 267.253C138.633 273.818 138.786 282.597 143.61 288.998L406.445 637.792C411.269 644.193 419.665 646.76 427.243 644.151Z" stroke="#ED1C24" stroke-opacity="0.01" stroke-width="3"/>
<path opacity="0.232323" d="M430.418 648.32L839.987 499.249C847.518 496.508 852.428 489.229 852.148 481.219L836.937 45.6304C836.657 37.6206 831.252 30.7018 823.548 28.4927L404.578 -91.645C396.873 -93.8541 388.623 -90.8512 384.141 -84.2067L140.415 277.133C135.933 283.777 136.239 292.552 141.174 298.868L409.512 642.325C414.447 648.641 422.886 651.061 430.418 648.32Z" stroke="#ED1C24" stroke-opacity="0.01" stroke-width="3"/>
<path opacity="0.242424" d="M433.593 652.362L839.673 496.482C847.155 493.61 851.937 486.246 851.518 478.243L828.753 43.8685C828.334 35.8648 822.808 29.0415 815.067 26.9671L394.918 -85.6115C387.176 -87.6858 378.979 -84.5394 374.614 -77.8177L137.713 286.979C133.347 293.701 133.807 302.469 138.851 308.697L412.586 646.733C417.63 652.961 426.111 655.234 433.593 652.362Z" stroke="#ED1C24" stroke-opacity="0.01" stroke-width="3"/>
<path opacity="0.252525" d="M436.767 656.287L839.245 493.675C846.676 490.673 851.329 483.227 850.77 475.232L820.489 42.2033C819.93 34.2082 814.287 27.4823 806.51 25.5433L385.318 -79.4716C377.541 -81.4106 369.401 -78.1215 365.154 -71.3246L135.123 296.801C130.876 303.598 131.488 312.357 136.64 318.496L415.665 651.026C420.817 657.165 429.336 659.289 436.767 656.287Z" stroke="#ED1C24" stroke-opacity="0.01" stroke-width="3"/>
<path opacity="0.262626" d="M439.944 660.095L838.709 490.829C846.087 487.697 850.609 480.171 849.911 472.187L812.154 40.6331C811.456 32.6489 805.696 26.0226 797.886 24.2197L375.787 -73.2297C367.978 -75.0326 359.896 -71.602 355.768 -64.732L132.652 306.595C128.524 313.465 129.289 322.212 134.547 328.26L418.754 655.202C424.012 661.251 432.567 663.226 439.944 660.095Z" stroke="#ED1C24" stroke-opacity="0.01" stroke-width="3"/>
<path opacity="0.272727" d="M443.118 663.773L838.061 487.934C845.382 484.674 849.772 477.07 848.935 469.099L803.745 39.1489C802.907 31.1781 797.032 24.6533 789.193 22.987L366.321 -66.8971C358.482 -68.5635 350.461 -64.9923 346.453 -58.0514L130.294 316.347C126.287 323.288 127.205 332.02 132.567 337.976L421.845 659.252C427.208 665.208 435.796 667.033 443.118 663.773Z" stroke="#ED1C24" stroke-opacity="0.01" stroke-width="3"/>
<path opacity="0.282828" d="M446.288 667.335L837.3 485.003C844.564 481.615 848.821 473.936 847.844 465.981L795.265 37.7626C794.288 29.8077 788.3 23.3864 780.433 21.8571L356.925 -60.4645C349.058 -61.9938 341.1 -58.2832 337.215 -51.2733L128.051 326.068C124.165 333.078 125.235 341.792 130.701 347.654L424.939 663.185C430.405 669.047 439.024 670.722 446.288 667.335Z" stroke="#ED1C24" stroke-opacity="0.01" stroke-width="3"/>
<path opacity="0.292929" d="M449.448 670.774L836.425 482.032C843.629 478.519 847.751 470.767 846.635 462.83L786.714 36.4693C785.599 28.5326 779.5 22.2168 771.607 20.8251L347.597 -53.9393C339.704 -55.331 331.812 -51.4821 328.05 -44.4056L125.918 335.748C122.156 342.825 123.378 351.519 128.945 357.285L428.031 666.997C433.598 672.762 442.245 674.287 449.448 670.774Z" stroke="#ED1C24" stroke-opacity="0.01" stroke-width="3"/>
<path opacity="0.30303" d="M452.604 674.105L835.439 479.04C842.581 475.402 846.567 467.579 845.313 459.663L778.098 35.2857C776.844 27.3697 770.636 21.1613 762.72 19.9075L338.343 -47.3072C330.427 -48.5609 322.604 -44.5749 318.965 -37.4337L123.901 345.402C120.262 352.543 121.636 361.215 127.303 366.883L431.123 670.703C436.79 676.37 445.462 677.744 452.604 674.105Z" stroke="#ED1C24" stroke-opacity="0.01" stroke-width="3"/>
<path opacity="0.313131" d="M455.746 677.306L834.339 476.005C841.416 472.242 845.265 464.351 843.873 456.458L769.415 34.1887C768.024 26.2958 761.708 20.1967 753.771 19.0812L329.161 -40.5939C321.224 -41.7093 313.472 -37.5873 309.958 -30.3837L121.992 355.004C118.479 362.208 120.003 370.854 125.769 376.422L434.21 674.279C439.975 679.847 448.669 681.069 455.746 677.306Z" stroke="#ED1C24" stroke-opacity="0.01" stroke-width="3"/>
<path opacity="0.323232" d="M458.873 680.393L833.122 472.943C840.132 469.058 843.842 461.1 842.313 453.233L760.666 33.1953C759.137 25.3278 752.715 19.3399 744.76 18.3631L320.051 -33.7847C312.096 -34.7614 304.417 -30.5048 301.029 -23.241L120.191 364.567C116.804 371.831 118.48 380.45 124.341 385.916L437.287 677.742C443.148 683.208 451.863 684.279 458.873 680.393Z" stroke="#ED1C24" stroke-opacity="0.01" stroke-width="3"/>
<path opacity="0.333333" d="M461.986 683.354L831.793 469.847C838.733 465.839 842.305 457.818 840.638 449.979L751.857 32.2949C750.191 24.4554 743.666 18.5804 735.695 17.7426L311.019 -26.8926C303.048 -27.7304 295.444 -23.3404 292.184 -16.0186L118.502 374.079C115.242 381.401 117.067 389.989 123.023 395.352L440.358 681.081C446.314 686.444 455.046 687.362 461.986 683.354Z" stroke="#ED1C24" stroke-opacity="0.01" stroke-width="3"/>
<path opacity="0.343434" d="M465.083 686.212L830.349 466.738C837.219 462.61 840.649 454.528 838.846 446.719L742.988 31.509C741.185 23.6997 734.558 17.9395 726.574 17.241L302.064 -19.8988C294.08 -20.5974 286.554 -16.0753 283.423 -8.69775L116.92 383.558C113.788 390.936 115.763 399.491 121.812 404.749L443.418 684.316C449.466 689.574 458.213 690.34 465.083 686.212Z" stroke="#ED1C24" stroke-opacity="0.01" stroke-width="3"/>
<path opacity="0.353535" d="M468.161 688.94L828.792 463.593C835.589 459.346 838.878 451.205 836.939 443.429L734.062 30.8126C732.123 23.036 725.397 17.3924 717.402 16.8333L293.19 -12.8305C285.195 -13.3896 277.749 -8.73686 274.747 -1.30575L115.446 392.977C112.444 400.408 114.568 408.927 120.708 414.079L446.466 687.423C452.606 692.575 461.364 693.187 468.161 688.94Z" stroke="#ED1C24" stroke-opacity="0.01" stroke-width="3"/>
<path opacity="0.363636" d="M471.217 691.556L827.118 460.431C833.84 456.066 836.987 447.869 834.912 440.128L725.079 30.2239C723.004 22.4823 716.181 16.9569 708.177 16.5374L284.395 -5.67209C276.391 -6.09155 269.028 -1.3096 266.156 6.17277L114.077 402.351C111.205 409.833 113.478 418.314 119.706 423.358L449.499 690.418C455.727 695.462 464.495 695.922 471.217 691.556Z" stroke="#ED1C24" stroke-opacity="0.01" stroke-width="3"/>
<path opacity="0.373737" d="M474.243 694.056L825.324 457.249C831.968 452.767 834.971 444.516 832.762 436.812L716.035 29.7375C713.826 22.0333 706.907 16.6278 698.898 16.3481L275.676 1.56886C267.666 1.28915 260.387 6.19888 257.646 13.7302L112.808 411.671C110.066 419.202 112.486 427.642 118.802 432.576L452.509 693.297C458.824 698.231 467.599 698.537 474.243 694.056Z" stroke="#ED1C24" stroke-opacity="0.01" stroke-width="3"/>
<path opacity="0.383838" d="M477.253 696.443L823.423 454.052C829.988 449.455 832.847 441.153 830.503 433.488L706.948 29.3578C704.605 21.6934 697.593 16.4095 689.58 16.2696L267.048 8.89426C259.034 8.75439 251.842 13.7904 249.233 21.3685L111.649 420.941C109.04 428.519 111.607 436.915 118.008 441.739L455.508 696.063C461.909 700.887 470.687 701.04 477.253 696.443Z" stroke="#ED1C24" stroke-opacity="0.01" stroke-width="3"/>
<path opacity="0.393939" d="M480.236 698.707L821.408 450.83C827.892 446.119 830.605 437.769 828.128 430.147L697.812 29.0746C695.336 21.4522 688.232 16.2914 680.218 16.2914L258.505 16.2914C250.491 16.2914 243.388 21.4522 240.911 29.0746L110.595 430.147C108.118 437.769 110.831 446.119 117.315 450.83L458.488 698.707C464.972 703.418 473.752 703.418 480.236 698.707Z" stroke="#ED1C24" stroke-opacity="0.01" stroke-width="3"/>
<path opacity="0.40404" d="M483.185 700.871L819.273 447.611C825.674 442.787 828.241 434.391 825.632 426.813L688.624 28.9118C686.014 21.3338 678.822 16.2978 670.809 16.4376L250.044 23.7821C242.031 23.922 235.019 29.2059 232.676 36.8704L109.637 439.31C107.294 446.975 110.153 455.277 116.718 459.874L461.44 701.251C468.005 705.848 476.784 705.695 483.185 700.871Z" stroke="#ED1C24" stroke-opacity="0.01" stroke-width="3"/>
<path opacity="0.414141" d="M486.1 702.911L817.021 444.367C823.337 439.433 825.757 430.993 823.015 423.462L679.386 28.8429C676.645 21.3115 669.366 16.4018 661.356 16.6815L241.667 31.3374C233.658 31.6171 226.739 37.0226 224.53 44.7268L108.777 448.403C106.568 456.108 109.571 464.358 116.216 468.84L464.365 703.67C471.01 708.152 479.785 707.845 486.1 702.911Z" stroke="#ED1C24" stroke-opacity="0.01" stroke-width="3"/>
<path opacity="0.424242" d="M488.985 704.841L814.656 441.118C820.884 436.074 823.157 427.593 820.285 420.111L670.107 28.8843C667.235 21.4019 659.871 16.62 651.867 17.0394L233.381 38.9714C225.377 39.3908 218.554 44.9163 216.48 52.6579L108.019 457.439C105.944 465.181 109.091 473.378 115.813 477.743L467.266 705.979C473.988 710.345 482.756 709.885 488.985 704.841Z" stroke="#ED1C24" stroke-opacity="0.01" stroke-width="3"/>
<path opacity="0.434343" d="M491.834 706.666L812.175 437.867C818.315 432.716 820.439 424.196 817.437 416.765L660.785 29.0386C657.783 21.6075 650.337 16.9548 642.342 17.5138L225.184 46.6844C217.188 47.2435 210.462 52.8872 208.524 60.6638L107.357 466.419C105.419 474.195 108.708 482.336 115.504 486.583L470.138 708.183C476.935 712.43 485.694 711.818 491.834 706.666Z" stroke="#ED1C24" stroke-opacity="0.01" stroke-width="3"/>
<path opacity="0.444444" d="M494.644 708.368L809.579 434.6C815.628 429.342 817.603 420.787 814.471 413.409L651.422 29.2893C648.291 21.9117 640.765 17.3897 632.781 18.0882L217.076 54.4577C209.092 55.1562 202.465 60.9164 200.662 68.7257L106.792 475.323C104.989 483.132 108.42 491.214 115.289 495.342L472.979 710.264C479.849 714.392 488.596 713.627 494.644 708.368Z" stroke="#ED1C24" stroke-opacity="0.01" stroke-width="3"/>
<path opacity="0.454545" d="M497.416 709.971L806.869 431.339C812.825 425.976 814.65 417.388 811.39 410.066L642.021 29.6576C638.762 22.3358 631.158 17.9458 623.187 18.7835L209.059 62.3101C201.089 63.1479 194.564 69.0229 192.897 76.8624L106.321 484.172C104.655 492.011 108.226 500.032 115.167 504.04L475.788 712.244C482.728 716.251 491.46 715.334 497.416 709.971Z" stroke="#ED1C24" stroke-opacity="0.01" stroke-width="3"/>
<path opacity="0.464646" d="M500.15 711.461L804.045 428.074C809.907 422.608 811.582 413.989 808.195 406.725L632.587 30.1316C629.2 22.8679 621.52 18.6112 613.566 19.588L201.138 70.2277C193.183 71.2045 186.761 77.1925 185.232 85.0599L105.946 492.951C104.417 500.818 108.128 508.775 115.137 512.661L478.564 714.111C485.574 717.997 494.288 716.927 500.15 711.461Z" stroke="#ED1C24" stroke-opacity="0.01" stroke-width="3"/>
<path opacity="0.474747" d="M502.837 712.848L801.105 424.814C806.87 419.246 808.395 410.6 804.882 403.396L623.115 30.7192C619.602 23.5156 611.849 19.3937 603.913 20.5091L193.307 78.216C185.37 79.3314 179.054 85.4305 177.663 93.3235L105.661 501.665C104.269 509.558 108.118 517.45 115.195 521.212L481.301 715.874C488.377 719.637 497.072 718.415 502.837 712.848Z" stroke="#ED1C24" stroke-opacity="0.01" stroke-width="3"/>
<path opacity="0.484848" d="M505.479 714.119L798.05 421.548C803.717 415.881 805.091 407.209 801.452 400.068L613.61 31.4077C609.972 24.2666 602.149 20.2806 594.233 21.5344L185.569 86.2603C177.653 87.514 171.445 93.7224 170.191 101.638L105.465 510.302C104.212 518.218 108.198 526.041 115.339 529.679L483.999 717.521C491.14 721.16 499.812 719.786 505.479 714.119Z" stroke="#ED1C24" stroke-opacity="0.01" stroke-width="3"/>
<path opacity="0.494949" d="M508.084 715.294L794.89 418.298C800.457 412.533 801.679 403.838 797.916 396.762L604.084 32.2162C600.322 25.1397 592.43 21.2907 584.537 22.6825L177.936 94.3772C170.043 95.769 163.944 102.085 162.829 110.021L105.368 518.877C104.252 526.814 108.374 534.566 115.578 538.079L486.666 719.071C493.87 722.584 502.516 721.06 508.084 715.294Z" stroke="#ED1C24" stroke-opacity="0.01" stroke-width="3"/>
<path opacity="0.50505" d="M510.624 716.359L791.6 415.049C797.066 409.187 798.136 400.473 794.25 393.463L594.514 33.1288C590.628 26.119 582.671 22.4084 574.804 23.9377L170.383 102.549C162.516 104.078 156.528 110.5 155.551 118.455L105.342 527.373C104.366 535.328 108.622 543.007 115.886 546.394L489.275 720.509C496.539 723.896 505.158 722.22 510.624 716.359Z" stroke="#ED1C24" stroke-opacity="0.01" stroke-width="3"/>
<path opacity="0.515152" d="M513.118 717.32L788.201 411.809C793.564 405.852 794.482 397.121 790.474 390.18L584.921 34.1516C580.914 27.2107 572.893 23.6395 565.054 25.3059L162.932 110.78C155.092 112.446 149.217 118.971 148.379 126.942L105.407 535.795C104.569 543.766 108.959 551.37 116.281 554.63L491.845 721.841C499.167 725.101 507.755 723.276 513.118 717.32Z" stroke="#ED1C24" stroke-opacity="0.01" stroke-width="3"/>
<path opacity="0.525253" d="M515.568 718.179L784.698 408.58C789.956 402.531 790.721 393.785 786.593 386.915L575.313 35.2861C571.186 28.4162 563.103 24.9855 555.294 26.7885L155.586 119.068C147.777 120.871 142.017 127.498 141.318 135.482L105.565 544.143C104.867 552.127 109.389 559.653 116.766 562.784L494.377 723.071C501.755 726.202 510.31 724.227 515.568 718.179Z" stroke="#ED1C24" stroke-opacity="0.01" stroke-width="3"/>
<path opacity="0.535354" d="M517.956 718.938L781.073 405.366C786.225 399.227 786.837 390.468 782.59 383.671L565.674 36.533C561.427 29.7362 553.286 26.4471 545.51 28.3861L148.331 127.414C140.554 129.353 134.91 136.079 134.351 144.074L105.797 552.415C105.238 560.41 109.891 567.856 117.322 570.858L496.854 724.199C504.285 727.201 512.804 725.077 517.956 718.938Z" stroke="#ED1C24" stroke-opacity="0.01" stroke-width="3"/>
<path opacity="0.545455" d="M520.295 719.596L777.343 402.168C782.387 395.939 782.847 387.171 778.481 380.449L556.021 37.891C551.656 31.1693 543.459 28.0228 535.718 30.0971L141.181 135.813C133.44 137.887 127.914 144.711 127.495 152.714L106.118 560.609C105.699 568.612 110.481 575.976 117.963 578.848L499.288 725.225C506.77 728.097 515.251 725.825 520.295 719.596Z" stroke="#ED1C24" stroke-opacity="0.01" stroke-width="3"/>
<path opacity="0.555556" d="M522.579 720.156L773.505 398.987C778.439 392.671 778.745 383.896 774.264 377.252L546.353 39.3608C541.871 32.7163 533.621 29.7133 525.917 31.9225L134.135 144.264C126.431 146.473 121.025 153.392 120.746 161.402L106.522 568.724C106.242 576.733 111.152 584.012 118.683 586.754L501.674 726.151C509.205 728.892 517.645 726.472 522.579 720.156Z" stroke="#ED1C24" stroke-opacity="0.01" stroke-width="3"/>
<path opacity="0.565657" d="M524.795 720.611L769.545 395.817C774.368 389.416 774.522 380.638 769.925 374.072L536.659 40.9344C532.062 34.3692 523.76 31.5107 516.096 33.854L127.18 152.758C119.515 155.101 114.231 162.113 114.091 170.126L106.994 576.751C106.854 584.764 111.89 591.956 119.468 594.566L503.997 726.97C511.575 729.579 519.972 727.012 524.795 720.611Z" stroke="#ED1C24" stroke-opacity="0.01" stroke-width="3"/>
<path opacity="0.575758" d="M526.956 720.982L765.481 392.681C770.192 386.197 770.192 377.417 765.481 370.933L526.956 42.6319C522.246 36.1479 513.895 33.4347 506.273 35.9114L120.332 161.311C112.709 163.788 107.548 170.891 107.549 178.906L107.548 584.708C107.548 592.723 112.709 599.826 120.332 602.303L506.273 727.703C513.895 730.179 522.246 727.466 526.956 720.982Z" stroke="#ED1C24" stroke-opacity="0.01" stroke-width="3"/>
<path opacity="0.585859" d="M529.053 721.25L761.305 389.56C765.902 382.995 765.749 374.217 760.926 367.816L517.24 44.4333C512.416 38.0325 504.02 35.4655 496.442 38.0748L113.584 169.903C106.006 172.513 100.97 179.705 101.109 187.718L108.176 592.575C108.316 600.589 113.6 607.601 121.265 609.944L508.49 728.331C516.155 730.674 524.456 727.816 529.053 721.25Z" stroke="#ED1C24" stroke-opacity="0.01" stroke-width="3"/>
<path opacity="0.59596" d="M531.088 721.427L757.021 386.467C761.503 379.823 761.196 371.048 756.262 364.732L507.513 46.3487C502.579 40.0331 494.139 37.613 486.608 40.3541L106.939 178.542C99.4079 181.283 94.4982 188.562 94.7779 196.572L108.878 600.361C109.158 608.371 114.564 615.289 122.268 617.498L510.651 728.866C518.355 731.075 526.606 728.072 531.088 721.427Z" stroke="#ED1C24" stroke-opacity="0.01" stroke-width="3"/>
<path opacity="0.606061" d="M533.063 721.509L752.635 383.398C757 376.677 756.54 367.909 751.497 361.68L497.785 48.3731C492.742 42.1446 484.261 39.8721 476.779 42.7443L100.405 187.221C92.9224 190.093 88.1405 197.456 88.56 205.46L109.659 608.058C110.079 616.062 115.604 622.886 123.346 624.96L512.76 729.303C520.501 731.377 528.698 728.231 533.063 721.509Z" stroke="#ED1C24" stroke-opacity="0.01" stroke-width="3"/>
<path opacity="0.616162" d="M534.962 721.502L748.131 380.36C752.378 373.564 751.765 364.805 746.614 358.665L488.041 50.511C482.89 44.3714 474.371 42.2473 466.94 45.2496L93.964 195.942C86.5329 198.944 81.8802 206.39 82.4393 214.385L110.5 615.672C111.059 623.667 116.703 630.393 124.479 632.332L514.797 729.649C522.574 731.588 530.715 728.299 534.962 721.502Z" stroke="#ED1C24" stroke-opacity="0.01" stroke-width="3"/>
<path opacity="0.626263" d="M536.795 721.401L743.523 377.348C747.651 370.479 746.886 361.732 741.628 355.683L478.297 52.7555C473.038 46.7067 464.483 44.7317 457.106 47.8632L87.6309 204.696C80.2533 207.828 75.7312 215.354 76.4298 223.338L111.413 623.193C112.111 631.178 117.871 637.804 125.681 639.607L516.776 729.899C524.586 731.701 532.668 728.271 536.795 721.401Z" stroke="#ED1C24" stroke-opacity="0.01" stroke-width="3"/>
<path opacity="0.636364" d="M538.558 721.219L738.807 374.376C742.815 367.435 741.897 358.703 736.534 352.747L468.548 55.1183C463.185 49.1622 454.597 47.3368 447.275 50.5966L81.4008 213.494C74.079 216.754 69.689 224.358 70.5268 232.329L112.39 630.634C113.228 638.605 119.103 645.13 126.943 646.796L518.69 730.064C526.53 731.731 534.551 728.16 538.558 721.219Z" stroke="#ED1C24" stroke-opacity="0.01" stroke-width="3"/>
<path opacity="0.646465" d="M540.256 720.941L733.993 371.43C737.879 364.42 736.809 355.705 731.343 349.844L458.806 57.5836C453.34 51.722 444.721 50.0467 437.457 53.4339L75.2828 222.319C68.0191 225.706 63.7624 233.385 64.7392 241.34L113.44 637.977C114.417 645.932 120.405 652.353 128.272 653.882L520.545 730.132C528.413 731.662 536.37 727.951 540.256 720.941Z" stroke="#ED1C24" stroke-opacity="0.01" stroke-width="3"/>
<path opacity="0.656566" d="M541.877 720.584L729.07 368.525C732.832 361.448 731.61 352.753 726.043 346.988L449.061 60.1647C443.493 54.3994 434.847 52.8748 427.643 56.3882L69.2656 231.181C62.0621 234.694 57.9401 242.446 59.0555 250.383L114.548 645.234C115.664 653.171 121.763 659.486 129.656 660.878L522.33 730.117C530.222 731.509 538.114 727.66 541.877 720.584Z" stroke="#ED1C24" stroke-opacity="0.01" stroke-width="3"/>
<path opacity="0.666667" d="M543.424 720.142L724.043 365.657C727.681 358.516 726.308 349.844 720.641 344.177L439.32 62.8559C433.653 57.1887 424.981 55.8152 417.84 59.4538L63.3549 240.073C56.2137 243.711 52.2277 251.534 53.4814 259.45L115.719 652.4C116.972 660.316 123.181 666.524 131.097 667.778L524.046 730.015C531.962 731.269 539.785 727.283 543.424 720.142Z" stroke="#ED1C24" stroke-opacity="0.01" stroke-width="3"/>
<path opacity="0.676768" d="M544.899 719.616L718.917 362.828C722.43 355.624 720.906 346.977 715.14 341.41L429.589 65.6557C423.823 60.0882 415.129 58.8663 408.052 62.629L57.5539 248.992C50.4773 252.755 46.6284 260.646 48.0202 268.539L116.952 659.472C118.344 667.365 124.66 673.464 132.596 674.58L525.697 729.826C533.634 730.942 541.386 726.82 544.899 719.616Z" stroke="#ED1C24" stroke-opacity="0.01" stroke-width="3"/>
<path opacity="0.686869" d="M546.293 719.004L713.684 360.034C717.071 352.77 715.396 344.151 709.534 338.685L419.86 68.5592C413.998 63.0932 405.284 62.0232 398.274 65.9088L51.8545 257.932C44.8447 261.818 41.1341 269.775 42.6634 277.643L118.239 666.445C119.768 674.313 126.19 680.301 134.145 681.278L527.272 729.548C535.227 730.524 542.906 726.268 546.293 719.004Z" stroke="#ED1C24" stroke-opacity="0.01" stroke-width="3"/>
<path opacity="0.69697" d="M547.614 718.322L708.354 357.292C711.614 349.971 709.789 341.382 703.833 336.02L410.145 71.5816C404.189 66.2188 395.457 65.301 388.516 69.3083L46.266 266.906C39.3251 270.914 35.7539 278.935 37.4202 286.774L119.586 673.334C121.252 681.174 127.777 687.049 135.748 687.887L528.779 729.196C536.75 730.034 544.354 725.644 547.614 718.322Z" stroke="#ED1C24" stroke-opacity="0.01" stroke-width="3"/>
<path opacity="0.707071" d="M548.847 717.562L702.917 354.595C706.049 347.218 704.074 338.663 698.025 333.405L400.434 74.7127C394.385 69.4546 385.639 68.6894 378.769 72.8172L40.7772 275.903C33.9073 280.031 30.4766 288.113 32.2796 295.922L120.981 680.128C122.783 687.937 129.41 693.698 137.394 694.396L530.206 728.763C538.19 729.461 545.716 724.939 548.847 717.562Z" stroke="#ED1C24" stroke-opacity="0.01" stroke-width="3"/>
<path opacity="0.717172" d="M550.011 716.717L697.392 351.936C700.394 344.505 698.27 335.986 692.13 330.834L390.747 77.9434C384.607 72.7916 375.848 72.1792 369.052 76.4263L35.4053 284.912C28.6085 289.159 25.3194 297.299 27.2583 305.076L122.437 686.818C124.376 694.595 131.102 700.238 139.097 700.797L531.567 728.241C539.562 728.801 547.008 724.148 550.011 716.717Z" stroke="#ED1C24" stroke-opacity="0.01" stroke-width="3"/>
<path opacity="0.727273" d="M551.085 715.802L691.76 349.331C694.632 341.848 692.36 333.367 686.131 328.324L381.067 81.2874C374.838 76.2437 366.07 75.7842 359.349 80.1493L30.1331 293.944C23.4114 298.309 20.2649 306.506 22.3393 314.248L123.937 693.417C126.012 701.158 132.835 706.684 140.839 707.103L532.845 727.647C540.849 728.067 548.212 723.285 551.085 715.802Z" stroke="#ED1C24" stroke-opacity="0.01" stroke-width="3"/>
<path opacity="0.737374" d="M552.08 714.818L686.036 346.777C688.777 339.246 686.357 330.806 680.041 325.872L371.408 84.7415C365.093 79.8072 356.318 79.5008 349.673 83.9825L24.9721 302.996C18.3277 307.478 15.3247 315.729 17.5339 323.433L125.49 699.921C127.699 707.625 134.618 713.031 142.628 713.311L534.05 726.979C542.06 727.259 549.339 722.349 552.08 714.818Z" stroke="#ED1C24" stroke-opacity="0.01" stroke-width="3"/>
<path opacity="0.747475" d="M552.991 713.762L680.215 344.275C682.825 336.697 680.258 328.301 673.857 323.477L361.769 88.3019C355.368 83.4786 346.589 83.3254 340.024 87.9224L19.9184 312.063C13.3532 316.66 10.4947 324.961 12.838 332.626L127.09 706.328C129.433 713.992 136.445 719.276 144.459 719.416L535.176 726.236C543.189 726.376 550.382 721.34 552.991 713.762Z" stroke="#ED1C24" stroke-opacity="0.01" stroke-width="3"/>
<path opacity="0.757576" d="M553.819 712.635L674.302 341.825C676.779 334.203 674.066 325.852 667.582 321.141L352.152 91.9681C345.668 87.2572 336.888 87.2572 330.404 91.9681L14.9741 321.141C8.49011 325.852 5.77692 334.203 8.25361 341.825L128.737 712.635C131.214 720.257 138.317 725.418 146.332 725.418L536.224 725.418C544.239 725.418 551.342 720.258 553.819 712.635Z" stroke="#ED1C24" stroke-opacity="0.01" stroke-width="3"/>
<path opacity="0.767677" d="M554.559 711.432L668.294 339.421C670.638 331.756 667.779 323.455 661.214 318.858L342.556 95.7313C335.991 91.1343 327.212 91.2875 320.812 96.1109L10.1352 330.222C3.73435 335.046 1.16731 343.442 3.77665 351.02L130.426 718.835C133.035 726.413 140.227 731.449 148.241 731.309L537.19 724.52C545.204 724.38 552.216 719.096 554.559 711.432Z" stroke="#ED1C24" stroke-opacity="0.01" stroke-width="3"/>
<path opacity="0.777778" d="M555.212 710.167L662.193 337.078C664.403 329.373 661.4 321.123 654.755 316.641L332.985 99.6042C326.34 95.1224 317.566 95.4289 311.25 100.363L5.40322 339.317C-0.912437 344.251 -3.33255 352.691 -0.591347 360.222L132.155 724.941C134.896 732.472 142.175 737.382 150.185 737.102L538.074 723.557C546.084 723.277 553.002 717.872 555.212 710.167Z" stroke="#ED1C24" stroke-opacity="0.01" stroke-width="3"/>
<path opacity="0.787879" d="M555.776 708.843L656.002 334.797C658.076 327.055 654.93 318.858 648.208 314.493L323.44 103.586C316.718 99.2213 307.95 99.6809 301.722 104.725L0.778881 348.423C-5.44971 353.467 -7.72215 361.948 -4.84993 369.431L133.925 730.951C136.797 738.434 144.161 743.216 152.164 742.796L538.875 722.529C546.879 722.11 553.702 716.585 555.776 708.843Z" stroke="#ED1C24" stroke-opacity="0.01" stroke-width="3"/>
<path opacity="0.79798" d="M556.249 707.457L649.718 332.576C651.657 324.799 648.367 316.659 641.571 312.411L313.921 107.673C307.124 103.426 298.366 104.039 292.226 109.19L-3.74087 357.536C-9.88048 362.688 -12.0046 371.207 -9.0022 378.638L135.73 736.862C138.732 744.293 146.178 748.946 154.173 748.387L539.589 721.436C547.584 720.877 554.31 715.233 556.249 707.457Z" stroke="#ED1C24" stroke-opacity="0.01" stroke-width="3"/>
<path opacity="0.808081" d="M556.636 706L643.348 330.406C645.151 322.597 641.721 314.515 634.851 310.387L304.435 111.854C297.565 107.726 288.819 108.491 282.77 113.749L-8.1504 366.642C-14.1992 371.901 -16.1742 380.456 -13.0426 387.833L137.574 742.663C140.705 750.041 148.231 754.563 156.216 753.864L540.222 720.268C548.206 719.57 554.833 713.809 556.636 706Z" stroke="#ED1C24" stroke-opacity="0.01" stroke-width="3"/>
<path opacity="0.818182" d="M556.937 704.488L636.898 328.303C638.564 320.463 634.993 312.442 628.052 308.435L294.988 116.14C288.047 112.133 279.315 113.05 273.359 118.413L-12.4472 375.754C-18.4032 381.117 -20.2287 389.705 -16.9688 397.027L139.458 748.367C142.718 755.689 150.321 760.079 158.292 759.241L540.775 719.04C548.746 718.203 555.271 712.328 556.937 704.488Z" stroke="#ED1C24" stroke-opacity="0.01" stroke-width="3"/>
<path opacity="0.828283" d="M557.133 702.926L630.347 326.27C631.877 318.402 628.166 310.445 621.156 306.559L285.56 120.535C278.55 116.649 269.835 117.719 263.974 123.185L-16.651 384.872C-22.5125 390.338 -24.1879 398.957 -20.8007 406.221L141.36 753.976C144.748 761.24 152.427 765.497 160.382 764.52L541.227 717.758C549.182 716.781 555.604 710.793 557.133 702.926Z" stroke="#ED1C24" stroke-opacity="0.01" stroke-width="3"/>
<path opacity="0.838384" d="M557.246 701.297L623.723 324.291C625.114 316.398 621.266 308.506 614.189 304.744L276.178 125.02C269.101 121.257 260.406 122.479 254.641 128.046L-20.7379 393.977C-26.5031 399.544 -28.0278 408.191 -24.5144 415.395L143.304 759.472C146.817 766.676 154.569 770.798 162.506 769.683L541.602 716.404C549.539 715.289 555.855 709.19 557.246 701.297Z" stroke="#ED1C24" stroke-opacity="0.01" stroke-width="3"/>
<path opacity="0.848485" d="M557.264 699.619L617.012 322.383C618.266 314.467 614.28 306.644 607.139 303.005L266.83 129.609C259.689 125.97 251.017 127.344 245.349 133.011L-24.7215 403.082C-30.3888 408.749 -31.7622 417.421 -28.1236 424.562L145.273 764.872C148.911 772.013 156.734 775.999 164.65 774.745L541.886 714.997C549.802 713.743 556.01 707.535 557.264 699.619Z" stroke="#ED1C24" stroke-opacity="0.01" stroke-width="3"/>
<path opacity="0.858586" d="M557.19 697.888L610.222 320.542C611.338 312.605 607.216 304.853 600.012 301.339L257.523 134.296C250.319 130.783 241.673 132.308 236.105 138.073L-28.5972 412.18C-34.1647 417.945 -35.3866 426.64 -31.6239 433.717L147.27 770.167C151.033 777.244 158.924 781.093 166.817 779.701L542.082 713.532C549.975 712.14 556.074 705.824 557.19 697.888Z" stroke="#ED1C24" stroke-opacity="0.01" stroke-width="3"/>
<path opacity="0.868687" d="M557.016 696.106L603.347 318.77C604.324 310.815 600.067 303.136 592.803 299.749L248.252 139.082C240.988 135.695 232.37 137.37 226.904 143.232L-32.3719 421.27C-37.8379 427.132 -38.9079 435.847 -35.0223 442.856L149.288 775.361C153.173 782.371 161.131 786.081 168.998 784.552L542.184 712.012C550.051 710.483 556.039 704.061 557.016 696.106Z" stroke="#ED1C24" stroke-opacity="0.01" stroke-width="3"/>
<path opacity="0.878788" d="M556.748 694.276L596.394 317.067C597.232 309.096 592.842 301.493 585.52 298.233L239.025 143.963C231.703 140.703 223.115 142.529 217.752 148.485L-36.0399 430.349C-41.4028 436.305 -42.3206 445.037 -38.3132 451.978L151.33 780.45C155.337 787.391 163.358 790.962 171.198 789.296L542.196 710.438C550.035 708.771 555.91 702.246 556.748 694.276Z" stroke="#ED1C24" stroke-opacity="0.01" stroke-width="3"/>
<path opacity="0.888889" d="M556.389 692.401L589.368 315.438C590.067 307.454 585.545 299.928 578.167 296.797L229.846 148.943C222.469 145.811 213.914 147.786 208.655 153.835L-39.5989 439.419C-44.857 445.468 -45.6222 454.214 -41.4943 461.084L153.397 785.439C157.525 792.309 165.607 795.739 173.417 793.936L542.121 708.814C549.93 707.011 555.69 700.385 556.389 692.401Z" stroke="#ED1C24" stroke-opacity="0.01" stroke-width="3"/>
<path opacity="0.89899" d="M555.928 690.48L582.263 313.88C582.822 305.885 578.169 298.439 570.738 295.437L220.709 154.016C213.278 151.014 204.759 153.138 199.607 159.277L-43.0576 448.473C-48.2093 454.613 -48.8218 463.372 -44.5746 470.169L155.48 790.323C159.727 797.119 167.868 800.408 175.644 798.47L541.949 707.14C549.726 705.201 555.369 698.475 555.928 690.48Z" stroke="#ED1C24" stroke-opacity="0.01" stroke-width="3"/>
<path opacity="0.909091" d="M555.37 688.509L575.081 312.39C575.501 304.386 570.719 297.023 563.236 294.151L211.617 159.177C204.135 156.304 195.654 158.577 190.61 164.805L-46.4135 457.506C-51.4573 463.734 -51.9169 472.502 -47.5517 479.224L157.578 795.097C161.943 801.818 170.14 804.965 177.882 802.89L541.683 705.41C549.425 703.336 554.95 696.512 555.37 688.509Z" stroke="#ED1C24" stroke-opacity="0.01" stroke-width="3"/>
<path opacity="0.919192" d="M554.716 686.502L567.829 310.98C568.109 302.97 563.199 295.691 555.668 292.95L202.578 164.436C195.046 161.695 186.606 164.115 181.672 170.431L-49.6633 466.526C-54.5977 472.842 -54.9041 481.617 -50.4223 488.261L159.695 799.773C164.177 806.417 172.427 809.42 180.131 807.211L541.326 703.64C549.031 701.431 554.436 694.512 554.716 686.502Z" stroke="#ED1C24" stroke-opacity="0.01" stroke-width="3"/>
<path opacity="0.929293" d="M553.961 684.454L560.503 309.644C560.643 301.63 555.607 294.438 548.029 291.829L193.585 169.784C186.007 167.175 177.611 169.742 172.788 176.143L-52.8129 475.525C-57.6363 481.925 -57.7895 490.704 -53.1925 497.269L161.822 804.342C166.419 810.908 174.721 813.766 182.386 811.423L540.873 701.822C548.537 699.479 553.821 692.467 553.961 684.454Z" stroke="#ED1C24" stroke-opacity="0.01" stroke-width="3"/>
<path opacity="0.939394" d="M553.106 682.373L553.106 308.39C553.106 300.375 547.945 293.272 540.322 290.796L184.643 175.228C177.021 172.752 168.671 175.465 163.96 181.949L-55.8622 484.508C-60.5731 490.992 -60.5731 499.772 -55.8622 506.256L163.96 808.815C168.671 815.299 177.021 818.012 184.643 815.535L540.323 699.968C547.945 697.491 553.106 690.388 553.106 682.373Z" stroke="#ED1C24" stroke-opacity="0.01" stroke-width="3"/>
<path opacity="0.949495" d="M552.154 680.252L545.642 307.21C545.502 299.196 540.219 292.184 532.554 289.841L175.757 180.757C168.093 178.414 159.791 181.273 155.194 187.838L-58.8067 493.463C-63.4037 500.028 -63.2505 508.807 -58.4271 515.208L166.11 813.178C170.933 819.579 179.329 822.146 186.907 819.536L539.68 698.067C547.258 695.458 552.294 688.266 552.154 680.252Z" stroke="#ED1C24" stroke-opacity="0.01" stroke-width="3"/>
<path opacity="0.959596" d="M551.103 678.1L538.113 306.112C537.833 298.102 532.428 291.183 524.723 288.974L166.927 186.377C159.223 184.168 150.972 187.171 146.49 193.816L-61.6497 502.396C-66.1315 509.041 -65.825 517.815 -60.8907 524.131L168.268 817.441C173.202 823.756 181.642 826.177 189.174 823.435L538.942 696.13C546.473 693.389 551.383 686.11 551.103 678.1Z" stroke="#ED1C24" stroke-opacity="0.01" stroke-width="3"/>
<path opacity="0.969697" d="M549.948 675.915L530.514 305.093C530.095 297.089 524.569 290.266 516.828 288.191L158.149 192.084C150.407 190.009 142.21 193.156 137.845 199.877L-64.3963 511.302C-68.7614 518.024 -68.3019 526.792 -63.2581 533.021L170.428 821.599C175.472 827.828 183.953 830.1 191.435 827.228L538.103 694.155C545.586 691.283 550.368 683.919 549.948 675.915Z" stroke="#ED1C24" stroke-opacity="0.01" stroke-width="3"/>
<path opacity="0.979798" d="M548.7 673.701L522.859 304.156C522.3 296.16 516.657 289.434 508.88 287.496L149.436 197.876C141.659 195.937 133.519 199.226 129.272 206.023L-67.0358 520.181C-71.2829 526.977 -70.6704 535.736 -65.5187 541.876L172.601 825.655C177.752 831.795 186.272 833.919 193.703 830.916L537.176 692.144C544.607 689.142 549.26 681.696 548.7 673.701Z" stroke="#ED1C24" stroke-opacity="0.01" stroke-width="3"/>
<path opacity="0.989899" d="M547.34 671.458L515.13 303.301C514.432 295.317 508.672 288.69 500.862 286.887L140.77 203.754C132.961 201.951 124.879 205.381 120.751 212.251L-69.5883 529.029C-73.7162 535.899 -72.9509 544.646 -67.6928 550.694L174.763 829.608C180.021 835.657 188.576 837.632 195.954 834.5L536.139 690.1C543.516 686.968 548.038 679.442 547.34 671.458Z" stroke="#ED1C24" stroke-opacity="0.01" stroke-width="3"/>
<path d="M545.886 669.187L507.348 302.527C506.51 294.556 500.635 288.031 492.796 286.365L132.172 209.712C124.333 208.046 116.312 211.617 112.304 218.558L-72.0356 537.844C-76.0429 544.785 -75.1252 553.517 -69.7623 559.473L176.933 833.456C182.296 839.412 190.884 841.237 198.206 837.977L535.011 688.022C542.333 684.762 546.723 677.158 545.886 669.187Z" stroke="#ED1C24" stroke-opacity="0.01" stroke-width="3"/>
</g>
<defs>
<clipPath id="clip0_170_1766">
<rect width="1135" height="646" fill="white"/>
</clipPath>
</defs>
</svg>
