<svg width="1441" height="1295" viewBox="0 0 1441 1295" fill="none" xmlns="http://www.w3.org/2000/svg">
<g clip-path="url(#clip0_170_2091)">
<rect width="1441" height="1295" fill="white"/>
<path opacity="0.010101" d="M492.177 836.421L516.704 1538.78C516.984 1546.79 512.074 1554.07 504.543 1556.81L-155.864 1797.18C-163.395 1799.92 -171.835 1797.5 -176.77 1791.19L-609.45 1237.38C-614.385 1231.07 -614.691 1222.29 -610.209 1215.65L-217.214 633.007C-212.732 626.362 -204.482 623.359 -196.778 625.568L478.787 819.283C486.492 821.493 491.897 828.411 492.177 836.421Z" stroke="#ED1C24" stroke-opacity="0.02" stroke-width="3"/>
<path opacity="0.020202" d="M502.397 840.333L514.639 1541.68C514.779 1549.69 509.743 1556.89 502.165 1559.5L-161.073 1787.87C-168.651 1790.48 -177.048 1787.91 -181.871 1781.51L-604.017 1221.3C-608.84 1214.9 -608.993 1206.12 -604.396 1199.56L-202.059 624.96C-197.461 618.394 -189.16 615.536 -181.495 617.879L489.309 822.965C496.973 825.308 502.257 832.32 502.397 840.333Z" stroke="#ED1C24" stroke-opacity="0.02" stroke-width="3"/>
<path opacity="0.030303" d="M512.443 844.319L512.443 1544.44C512.443 1552.45 507.282 1559.56 499.66 1562.03L-166.193 1778.38C-173.815 1780.86 -182.166 1778.14 -186.877 1771.66L-598.396 1205.25C-603.107 1198.77 -603.107 1189.99 -598.396 1183.5L-186.877 617.097C-182.166 610.613 -173.815 607.899 -166.193 610.376L499.66 826.725C507.282 829.201 512.443 836.305 512.443 844.319Z" stroke="#ED1C24" stroke-opacity="0.02" stroke-width="3"/>
<path opacity="0.040404" d="M522.31 848.377L510.115 1547.05C509.975 1555.07 504.691 1562.08 497.027 1564.42L-171.223 1768.73C-178.888 1771.07 -187.189 1768.21 -191.786 1761.65L-592.592 1189.24C-597.189 1182.67 -597.036 1173.89 -592.213 1167.49L-171.674 609.419C-166.851 603.018 -158.455 600.451 -150.876 603.06L509.836 830.562C517.414 833.171 522.45 840.364 522.31 848.377Z" stroke="#ED1C24" stroke-opacity="0.02" stroke-width="3"/>
<path opacity="0.050505" d="M532.005 852.51L507.664 1549.53C507.385 1557.54 501.979 1564.46 494.275 1566.67L-176.155 1758.91C-183.859 1761.12 -192.11 1758.12 -196.591 1751.48L-586.599 1173.26C-591.081 1166.62 -590.775 1157.85 -585.84 1151.53L-156.448 601.934C-151.514 595.618 -143.074 593.198 -135.543 595.939L519.844 834.48C527.375 837.222 532.285 844.501 532.005 852.51Z" stroke="#ED1C24" stroke-opacity="0.02" stroke-width="3"/>
<path opacity="0.0606061" d="M541.521 856.712L505.089 1551.87C504.669 1559.87 499.144 1566.7 491.402 1568.77L-180.991 1748.94C-188.732 1751.01 -196.929 1747.87 -201.294 1741.14L-580.424 1157.34C-584.789 1150.61 -584.33 1141.85 -579.286 1135.62L-141.208 594.637C-136.164 588.408 -127.683 586.136 -120.201 589.008L529.676 838.472C537.158 841.345 541.94 848.708 541.521 856.712Z" stroke="#ED1C24" stroke-opacity="0.02" stroke-width="3"/>
<path opacity="0.0707071" d="M550.857 860.977L502.392 1554.06C501.833 1562.06 496.189 1568.78 488.413 1570.72L-185.726 1738.8C-193.503 1740.74 -201.643 1737.45 -205.891 1730.66L-574.066 1141.45C-578.313 1134.66 -577.701 1125.9 -572.549 1119.76L-125.955 587.527C-120.804 581.388 -112.284 579.264 -104.853 582.266L539.333 842.534C546.764 845.536 551.416 852.982 550.857 860.977Z" stroke="#ED1C24" stroke-opacity="0.02" stroke-width="3"/>
<path opacity="0.0808081" d="M560.014 865.302L499.577 1556.1C498.878 1564.09 493.118 1570.71 485.309 1572.52L-190.36 1728.51C-198.169 1730.31 -206.251 1726.88 -210.379 1720.01L-567.528 1125.62C-571.656 1118.75 -570.891 1110 -565.633 1103.95L-110.694 580.603C-105.436 574.554 -96.8809 572.579 -89.5033 575.711L548.813 846.66C556.191 849.792 560.713 857.317 560.014 865.302Z" stroke="#ED1C24" stroke-opacity="0.02" stroke-width="3"/>
<path opacity="0.0909091" d="M568.991 869.684L496.646 1558C495.808 1565.97 489.933 1572.49 482.094 1574.16L-194.888 1718.06C-202.728 1719.72 -210.749 1716.15 -214.756 1709.21L-560.809 1109.83C-564.816 1102.89 -563.898 1094.16 -558.536 1088.2L-95.4262 573.867C-90.0634 567.911 -81.4752 566.085 -74.1535 569.345L558.117 850.85C565.439 854.11 569.828 861.713 568.991 869.684Z" stroke="#ED1C24" stroke-opacity="0.02" stroke-width="3"/>
<path opacity="0.10101" d="M577.789 874.126L493.606 1559.75C492.629 1567.7 486.641 1574.12 478.773 1575.65L-199.306 1707.46C-207.173 1708.99 -215.131 1705.28 -219.016 1698.27L-553.908 1094.11C-557.794 1087.1 -556.724 1078.38 -551.258 1072.52L-80.1535 567.322C-74.6875 561.461 -66.0688 559.785 -58.8051 563.172L567.246 855.105C574.509 858.492 578.766 866.171 577.789 874.126Z" stroke="#ED1C24" stroke-opacity="0.02" stroke-width="3"/>
<path opacity="0.111111" d="M586.403 878.615L490.452 1561.34C489.337 1569.28 483.238 1575.59 475.345 1576.98L-203.616 1696.7C-211.509 1698.1 -219.4 1694.25 -223.163 1687.17L-546.833 1078.44C-550.596 1071.36 -549.374 1062.66 -543.806 1056.9L-64.8846 560.961C-59.3171 555.196 -50.6705 553.671 -43.467 557.185L576.193 859.413C583.397 862.926 587.519 870.679 586.403 878.615Z" stroke="#ED1C24" stroke-opacity="0.02" stroke-width="3"/>
<path opacity="0.121212" d="M594.838 883.155L487.195 1562.78C485.941 1570.7 479.733 1576.91 471.817 1578.16L-207.811 1685.8C-215.727 1687.06 -223.55 1683.07 -227.188 1675.93L-539.579 1062.83C-543.218 1055.69 -541.844 1047.02 -536.177 1041.35L-49.617 554.789C-43.9498 549.122 -35.2779 547.748 -28.1368 551.387L584.964 863.777C592.105 867.416 596.091 875.239 594.838 883.155Z" stroke="#ED1C24" stroke-opacity="0.02" stroke-width="3"/>
<path opacity="0.131313" d="M603.087 887.736L483.831 1564.07C482.44 1571.96 476.124 1578.06 468.187 1579.17L-211.893 1674.75C-219.83 1675.87 -227.582 1671.75 -231.096 1664.54L-532.153 1047.28C-535.667 1040.08 -534.142 1031.43 -528.377 1025.87L-34.36 548.799C-28.5947 543.232 -19.9001 542.01 -12.8236 545.772L593.553 868.189C600.63 871.951 604.478 879.843 603.087 887.736Z" stroke="#ED1C24" stroke-opacity="0.02" stroke-width="3"/>
<path opacity="0.141414" d="M611.155 892.36L480.369 1565.2C478.839 1573.06 472.418 1579.05 464.463 1580.03L-215.856 1663.56C-223.811 1664.54 -231.49 1660.28 -234.878 1653.02L-524.552 1031.81C-527.939 1024.54 -526.264 1015.92 -520.402 1010.46L-19.1117 542.997C-13.2502 537.531 -4.5356 536.461 2.4742 540.347L601.963 872.649C608.973 876.535 612.684 884.492 611.155 892.36Z" stroke="#ED1C24" stroke-opacity="0.02" stroke-width="3"/>
<path opacity="0.151515" d="M619.041 897.026L476.81 1566.17C475.144 1574.01 468.619 1579.88 460.648 1580.72L-219.697 1652.23C-227.668 1653.07 -235.272 1648.68 -238.532 1641.36L-516.778 1016.41C-520.037 1009.08 -518.212 1000.5 -512.256 995.132L-3.87571 537.385C2.08035 532.022 10.8123 531.104 17.7532 535.111L610.195 877.158C617.136 881.165 620.707 889.186 619.041 897.026Z" stroke="#ED1C24" stroke-opacity="0.02" stroke-width="3"/>
<path opacity="0.161616" d="M626.741 901.721L473.154 1566.98C471.351 1574.79 464.725 1580.55 456.741 1581.25L-223.419 1640.75C-231.403 1641.45 -238.929 1636.93 -242.06 1629.55L-508.835 1001.07C-511.967 993.693 -509.992 985.138 -503.943 979.88L11.3408 531.951C17.3895 526.693 26.1361 525.928 33.006 530.056L618.243 881.702C625.113 885.829 628.544 893.912 626.741 901.721Z" stroke="#ED1C24" stroke-opacity="0.02" stroke-width="3"/>
<path opacity="0.171717" d="M634.26 906.449L469.409 1567.63C467.47 1575.41 460.744 1581.05 452.749 1581.61L-227.013 1629.14C-235.009 1629.7 -242.454 1625.05 -245.457 1617.62L-500.722 985.815C-503.724 978.384 -501.6 969.865 -495.461 964.713L26.539 526.703C32.6786 521.552 41.4372 520.939 48.234 525.186L626.113 886.285C632.91 890.532 636.199 898.673 634.26 906.449Z" stroke="#ED1C24" stroke-opacity="0.02" stroke-width="3"/>
<path opacity="0.181818" d="M641.592 911.206L465.573 1568.12C463.499 1575.86 456.675 1581.39 448.672 1581.81L-230.483 1617.4C-238.487 1617.82 -245.85 1613.04 -248.722 1605.55L-492.444 970.638C-495.316 963.156 -493.043 954.675 -486.815 949.631L41.7118 521.639C47.9403 516.595 56.7083 516.136 63.43 520.501L633.799 890.902C640.52 895.267 643.667 903.464 641.592 911.206Z" stroke="#ED1C24" stroke-opacity="0.02" stroke-width="3"/>
<path opacity="0.191919" d="M648.742 915.987L461.652 1568.44C459.443 1576.15 452.524 1581.55 444.515 1581.83L-233.823 1605.52C-241.833 1605.8 -249.112 1600.89 -251.853 1593.36L-483.999 955.543C-486.741 948.012 -484.321 939.572 -478.005 934.638L56.8583 516.757C63.174 511.823 71.9486 511.516 78.5931 515.998L641.303 895.551C647.948 900.032 650.951 908.283 648.742 915.987Z" stroke="#ED1C24" stroke-opacity="0.02" stroke-width="3"/>
<path opacity="0.20202" d="M655.708 920.793L457.651 1568.61C455.307 1576.27 448.295 1581.56 440.282 1581.7L-237.031 1593.52C-245.044 1593.66 -252.236 1588.62 -254.846 1581.05L-475.391 940.536C-478 932.958 -475.433 924.562 -469.032 919.738L71.9762 512.059C78.377 507.236 87.1556 507.083 93.7209 511.68L648.627 900.23C655.192 904.827 658.051 913.128 655.708 920.793Z" stroke="#ED1C24" stroke-opacity="0.02" stroke-width="3"/>
<path opacity="0.212121" d="M662.487 925.611L453.567 1568.6C451.091 1576.22 443.987 1581.38 435.973 1581.38L-240.107 1581.38C-248.122 1581.38 -255.225 1576.22 -257.702 1568.6L-466.622 925.611C-469.099 917.988 -466.386 909.638 -459.901 904.927L87.0587 507.537C93.5428 502.827 102.323 502.827 108.807 507.537L655.767 904.927C662.251 909.638 664.964 917.989 662.487 925.611Z" stroke="#ED1C24" stroke-opacity="0.02" stroke-width="3"/>
<path opacity="0.222222" d="M669.085 930.448L449.41 1568.43C446.801 1576.01 439.608 1581.05 431.595 1580.91L-243.047 1569.13C-251.06 1568.99 -258.072 1563.71 -260.416 1556.04L-457.692 910.78C-460.035 903.116 -457.176 894.814 -450.611 890.217L102.107 503.199C108.672 498.602 117.451 498.756 123.852 503.579L662.727 909.65C669.128 914.474 671.695 922.87 669.085 930.448Z" stroke="#ED1C24" stroke-opacity="0.02" stroke-width="3"/>
<path opacity="0.232323" d="M675.495 935.292L445.175 1568.09C442.434 1575.62 435.155 1580.53 427.145 1580.25L-245.853 1556.75C-253.863 1556.47 -260.782 1551.06 -262.991 1543.36L-448.608 896.037C-450.817 888.333 -447.814 880.082 -441.169 875.601L117.112 499.035C123.756 494.553 132.531 494.86 138.847 499.794L669.5 914.386C675.816 919.32 678.236 927.76 675.495 935.292Z" stroke="#ED1C24" stroke-opacity="0.02" stroke-width="3"/>
<path opacity="0.242424" d="M681.723 940.147L440.874 1567.58C438.001 1575.06 430.638 1579.85 422.634 1579.43L-248.518 1544.25C-256.522 1543.83 -263.346 1538.31 -265.42 1530.57L-439.365 881.394C-441.44 873.652 -438.293 865.455 -431.571 861.09L132.077 495.053C138.799 490.687 147.567 491.147 153.795 496.191L676.094 919.14C682.323 924.184 684.595 932.665 681.723 940.147Z" stroke="#ED1C24" stroke-opacity="0.02" stroke-width="3"/>
<path opacity="0.252525" d="M687.769 945.008L436.506 1566.91C433.504 1574.34 426.058 1578.99 418.063 1578.43L-251.041 1531.64C-259.036 1531.08 -265.762 1525.44 -267.701 1517.66L-429.967 866.848C-431.906 859.071 -428.617 850.931 -421.82 846.683L146.998 491.246C153.795 486.999 162.553 487.612 168.693 492.764L682.508 923.906C688.647 929.057 690.772 937.577 687.769 945.008Z" stroke="#ED1C24" stroke-opacity="0.02" stroke-width="3"/>
<path opacity="0.262626" d="M693.631 949.87L432.075 1566.06C428.943 1573.44 421.417 1577.96 413.433 1577.26L-253.422 1518.92C-261.406 1518.22 -268.033 1512.46 -269.836 1504.65L-420.418 852.403C-422.221 844.594 -418.791 836.512 -411.921 832.384L161.869 487.616C168.739 483.488 177.486 484.254 183.534 489.512L688.739 928.679C694.788 933.937 696.763 942.492 693.631 949.87Z" stroke="#ED1C24" stroke-opacity="0.02" stroke-width="3"/>
<path opacity="0.272727" d="M699.308 954.726L427.58 1565.04C424.32 1572.36 416.717 1576.75 408.746 1575.91L-255.661 1506.08C-263.632 1505.24 -270.157 1499.36 -271.823 1491.52L-410.722 838.057C-412.388 830.217 -408.817 822.196 -401.876 818.189L176.687 484.155C183.628 480.148 192.359 481.066 198.316 486.429L694.786 933.453C700.742 938.816 702.568 947.404 699.308 954.726Z" stroke="#ED1C24" stroke-opacity="0.02" stroke-width="3"/>
<path opacity="0.282828" d="M704.804 959.583L423.031 1563.85C419.644 1571.11 411.965 1575.37 404.01 1574.39L-257.752 1493.14C-265.707 1492.16 -272.128 1486.17 -273.657 1478.3L-400.876 823.823C-402.405 815.955 -398.694 807.998 -391.685 804.112L191.452 480.874C198.462 476.989 207.176 478.059 213.038 483.525L700.654 938.234C706.516 943.7 708.191 952.319 704.804 959.583Z" stroke="#ED1C24" stroke-opacity="0.02" stroke-width="3"/>
<path opacity="0.292929" d="M710.116 964.428L418.425 1562.48C414.912 1569.69 407.16 1573.81 399.223 1572.69L-259.697 1480.09C-267.634 1478.97 -273.95 1472.87 -275.342 1464.98L-390.886 809.692C-392.278 801.799 -388.429 793.908 -381.353 790.145L206.157 477.76C213.234 473.998 221.928 475.22 227.694 480.787L706.339 943.01C712.105 948.578 713.629 957.224 710.116 964.428Z" stroke="#ED1C24" stroke-opacity="0.02" stroke-width="3"/>
<path opacity="0.30303" d="M715.247 969.261L413.77 1560.94C410.132 1568.08 402.309 1572.07 394.393 1570.82L-261.492 1466.93C-269.408 1465.68 -275.617 1459.47 -276.871 1451.56L-380.752 795.671C-382.006 787.755 -378.02 779.932 -370.879 776.293L220.803 474.816C227.944 471.178 236.616 472.551 242.284 478.218L711.845 947.78C717.513 953.448 718.886 962.119 715.247 969.261Z" stroke="#ED1C24" stroke-opacity="0.02" stroke-width="3"/>
<path opacity="0.313131" d="M720.198 974.082L409.068 1559.23C405.305 1566.31 397.413 1570.16 389.521 1568.77L-263.136 1453.69C-271.029 1452.29 -277.128 1445.98 -278.244 1438.04L-370.477 781.766C-371.593 773.829 -367.471 766.077 -360.267 762.564L235.386 472.044C242.59 468.531 251.236 470.055 256.804 475.821L717.171 952.545C722.739 958.311 723.961 967.005 720.198 974.082Z" stroke="#ED1C24" stroke-opacity="0.02" stroke-width="3"/>
<path opacity="0.323232" d="M724.968 978.884L404.32 1557.35C400.435 1564.36 392.477 1568.07 384.61 1566.54L-264.628 1440.34C-272.496 1438.81 -278.483 1432.39 -279.46 1424.43L-360.063 767.975C-361.04 760.02 -356.783 752.341 -349.52 748.954L249.903 469.438C257.167 466.051 265.785 467.726 271.251 473.588L722.318 957.298C727.784 963.159 728.854 971.874 724.968 978.884Z" stroke="#ED1C24" stroke-opacity="0.02" stroke-width="3"/>
<path opacity="0.333333" d="M729.557 983.663L399.53 1555.29C395.523 1562.23 387.502 1565.8 379.663 1564.13L-265.968 1426.9C-273.807 1425.23 -279.682 1418.71 -280.52 1410.74L-349.514 754.3C-350.352 746.329 -345.962 738.725 -338.64 735.465L264.349 466.997C271.671 463.737 280.259 465.563 285.622 471.519L727.284 962.034C732.647 967.991 733.565 976.722 729.557 983.663Z" stroke="#ED1C24" stroke-opacity="0.02" stroke-width="3"/>
<path opacity="0.343434" d="M733.97 988.42L394.705 1553.05C390.577 1559.92 382.495 1563.35 374.685 1561.55L-267.15 1413.37C-274.959 1411.57 -280.72 1404.94 -281.418 1396.96L-338.829 740.744C-339.528 732.76 -335.006 725.234 -327.628 722.103L278.725 464.721C286.103 461.589 294.658 463.564 299.916 469.613L732.074 966.754C737.332 972.803 738.098 981.55 733.97 988.42Z" stroke="#ED1C24" stroke-opacity="0.02" stroke-width="3"/>
<path opacity="0.353535" d="M738.201 993.147L389.841 1550.64C385.594 1557.44 377.453 1560.73 369.676 1558.79L-268.18 1399.75C-275.956 1397.81 -281.6 1391.09 -282.159 1383.09L-328.016 727.31C-328.575 719.315 -323.922 711.869 -316.491 708.866L293.024 462.606C300.455 459.604 308.974 461.728 314.126 467.868L736.684 971.452C741.835 977.592 742.448 986.351 738.201 993.147Z" stroke="#ED1C24" stroke-opacity="0.02" stroke-width="3"/>
<path opacity="0.363636" d="M742.256 997.844L384.947 1548.05C380.582 1554.77 372.385 1557.92 364.644 1555.85L-269.049 1386.05C-276.791 1383.97 -282.316 1377.15 -282.736 1369.15L-317.071 713.998C-317.49 705.994 -312.708 698.631 -305.226 695.759L307.247 460.652C314.73 457.78 323.21 460.052 328.254 466.281L741.118 976.126C746.162 982.354 746.622 991.122 742.256 997.844Z" stroke="#ED1C24" stroke-opacity="0.02" stroke-width="3"/>
<path opacity="0.373737" d="M746.133 1002.51L380.023 1545.29C375.541 1551.93 367.291 1554.94 359.587 1552.73L-269.763 1372.26C-277.467 1370.05 -282.873 1363.14 -283.152 1355.13L-306.001 700.813C-306.281 692.803 -301.371 685.524 -293.84 682.783L321.388 458.859C328.919 456.117 337.359 458.538 342.293 464.853L745.374 980.773C750.309 987.089 750.615 995.864 746.133 1002.51Z" stroke="#ED1C24" stroke-opacity="0.02" stroke-width="3"/>
<path opacity="0.383838" d="M749.837 1007.13L375.075 1542.35C370.478 1548.91 362.177 1551.77 354.512 1549.43L-270.315 1358.4C-277.979 1356.06 -283.263 1349.05 -283.403 1341.03L-294.806 687.755C-294.946 679.742 -289.91 672.55 -282.332 669.941L335.448 457.222C343.026 454.613 351.422 457.18 356.245 463.58L749.457 985.39C754.281 991.791 754.434 1000.57 749.837 1007.13Z" stroke="#ED1C24" stroke-opacity="0.02" stroke-width="3"/>
<path opacity="0.393939" d="M753.365 1011.72L370.104 1539.23C365.394 1545.72 357.043 1548.43 349.421 1545.96L-270.707 1344.46C-278.33 1341.99 -283.49 1334.88 -283.49 1326.87V674.828C-283.49 666.813 -278.33 659.71 -270.707 657.233L349.421 455.741C357.043 453.265 365.394 455.978 370.104 462.462L753.365 989.974C758.076 996.458 758.076 1005.24 753.365 1011.72Z" stroke="#ED1C24" stroke-opacity="0.02" stroke-width="3"/>
<path opacity="0.40404" d="M756.719 1016.27L365.115 1535.95C360.292 1542.35 351.895 1544.91 344.317 1542.3L-270.937 1330.45C-278.515 1327.85 -283.551 1320.65 -283.411 1312.64L-272.055 662.033C-271.915 654.02 -266.631 647.008 -258.966 644.665L363.306 454.417C370.971 452.074 379.272 454.932 383.869 461.497L757.099 994.524C761.696 1001.09 761.543 1009.87 756.719 1016.27Z" stroke="#ED1C24" stroke-opacity="0.02" stroke-width="3"/>
<path opacity="0.414141" d="M759.9 1020.76L360.108 1532.47C355.174 1538.79 346.734 1541.21 339.202 1538.47L-271.006 1316.37C-278.537 1313.63 -283.447 1306.35 -283.167 1298.34L-260.505 649.366C-260.225 641.356 -254.819 634.437 -247.115 632.228L377.099 453.237C384.804 451.028 393.054 454.031 397.536 460.675L760.659 999.028C765.141 1005.67 764.834 1014.45 759.9 1020.76Z" stroke="#ED1C24" stroke-opacity="0.02" stroke-width="3"/>
<path opacity="0.424242" d="M762.911 1025.21L355.089 1528.83C350.046 1535.06 341.565 1537.33 334.082 1534.46L-270.91 1302.22C-278.392 1299.35 -283.174 1291.99 -282.755 1283.98L-248.839 636.838C-248.42 628.834 -242.894 622.011 -235.153 619.937L390.801 452.213C398.542 450.138 406.739 453.285 411.104 460.007L764.049 1003.49C768.414 1010.22 767.955 1018.98 762.911 1025.21Z" stroke="#ED1C24" stroke-opacity="0.02" stroke-width="3"/>
<path opacity="0.434343" d="M765.754 1029.61L350.064 1525.01C344.912 1531.15 336.393 1533.28 328.962 1530.27L-270.647 1288.02C-278.078 1285.01 -282.731 1277.57 -282.172 1269.57L-237.061 624.449C-236.501 616.454 -230.858 609.728 -223.081 607.789L404.408 451.338C412.185 449.399 420.326 452.688 424.573 459.485L767.271 1007.92C771.518 1014.71 770.906 1023.47 765.754 1029.61Z" stroke="#ED1C24" stroke-opacity="0.02" stroke-width="3"/>
<path opacity="0.444444" d="M768.424 1033.95L345.028 1521.01C339.77 1527.06 331.215 1529.04 323.837 1525.91L-270.223 1273.74C-277.601 1270.61 -282.123 1263.09 -281.424 1255.1L-225.177 612.193C-224.479 604.209 -218.718 597.583 -210.909 595.78L417.914 450.604C425.723 448.802 433.805 452.232 437.933 459.102L770.32 1012.29C774.448 1019.16 773.682 1027.9 768.424 1033.95Z" stroke="#ED1C24" stroke-opacity="0.02" stroke-width="3"/>
<path opacity="0.454545" d="M770.93 1038.24L339.991 1516.84C334.628 1522.8 326.04 1524.62 318.718 1521.37L-269.63 1259.42C-276.952 1256.16 -281.342 1248.55 -280.504 1240.58L-213.185 600.081C-212.347 592.11 -206.472 585.585 -198.633 583.919L431.322 450.018C439.161 448.352 447.182 451.923 451.189 458.864L773.203 1016.61C777.211 1023.55 776.293 1032.28 770.93 1038.24Z" stroke="#ED1C24" stroke-opacity="0.02" stroke-width="3"/>
<path opacity="0.464646" d="M773.269 1042.46L334.954 1512.5C329.488 1518.36 320.869 1520.03 313.606 1516.65L-268.872 1245.03C-276.136 1241.65 -280.392 1233.97 -279.415 1226.01L-201.091 588.11C-200.114 580.155 -194.126 573.734 -186.259 572.204L444.626 449.573C452.493 448.044 460.451 451.754 464.336 458.764L775.92 1020.88C779.805 1027.89 778.735 1036.6 773.269 1042.46Z" stroke="#ED1C24" stroke-opacity="0.02" stroke-width="3"/>
<path opacity="0.474747" d="M775.443 1046.62L329.919 1507.97C324.351 1513.74 315.705 1515.26 308.501 1511.75L-267.947 1230.6C-275.15 1227.08 -279.272 1219.33 -278.157 1211.4L-188.897 576.281C-187.782 568.344 -181.683 562.028 -173.79 560.636L457.824 449.266C465.717 447.874 473.608 451.723 477.371 458.8L778.47 1025.08C782.232 1032.16 781.01 1040.86 775.443 1046.62Z" stroke="#ED1C24" stroke-opacity="0.02" stroke-width="3"/>
<path opacity="0.484848" d="M777.455 1050.72L324.891 1503.28C319.224 1508.95 310.552 1510.32 303.411 1506.68L-266.852 1216.12C-273.993 1212.48 -277.979 1204.66 -276.726 1196.74L-176.604 564.599C-175.35 556.683 -169.142 550.475 -161.226 549.221L470.916 449.1C478.832 447.846 486.655 451.832 490.293 458.973L780.857 1029.24C784.496 1036.38 783.122 1045.05 777.455 1050.72Z" stroke="#ED1C24" stroke-opacity="0.02" stroke-width="3"/>
<path opacity="0.494949" d="M779.306 1054.74L319.874 1498.41C314.109 1503.98 305.414 1505.2 298.337 1501.44L-265.589 1201.59C-272.665 1197.83 -276.514 1189.94 -275.123 1182.05L-164.216 553.063C-162.824 545.17 -156.508 539.071 -148.572 537.956L483.899 449.068C491.836 447.952 499.588 452.074 503.101 459.278L783.083 1033.33C786.596 1040.53 785.072 1049.18 779.306 1054.74Z" stroke="#ED1C24" stroke-opacity="0.02" stroke-width="3"/>
<path opacity="0.50505" d="M780.994 1058.69L314.865 1493.37C309.003 1498.83 300.289 1499.9 293.279 1496.02L-264.16 1187.02C-271.17 1183.14 -274.881 1175.18 -273.351 1167.31L-151.739 541.671C-150.21 533.803 -143.789 527.815 -135.834 526.839L496.766 449.165C504.721 448.188 512.4 452.445 515.787 459.709L785.143 1037.34C788.531 1044.61 786.855 1053.23 780.994 1058.69Z" stroke="#ED1C24" stroke-opacity="0.02" stroke-width="3"/>
<path opacity="0.515152" d="M782.525 1062.57L309.874 1488.15C303.918 1493.51 295.186 1494.43 288.245 1490.42L-262.56 1172.41C-269.501 1168.41 -273.072 1160.38 -271.406 1152.54L-139.171 530.428C-137.505 522.588 -130.98 516.714 -123.009 515.876L509.522 449.394C517.493 448.556 525.096 452.946 528.356 460.268L787.047 1041.3C790.307 1048.62 788.481 1057.21 782.525 1062.57Z" stroke="#ED1C24" stroke-opacity="0.02" stroke-width="3"/>
<path opacity="0.525253" d="M783.901 1066.38L304.902 1482.76C298.853 1488.02 290.106 1488.79 283.237 1484.66L-260.79 1157.77C-267.66 1153.65 -271.091 1145.56 -269.288 1137.75L-126.516 519.342C-124.713 511.532 -118.087 505.772 -110.102 505.074L522.162 449.758C530.146 449.059 537.672 453.581 540.804 460.959L788.793 1045.18C791.924 1052.56 789.949 1061.12 783.901 1066.38Z" stroke="#ED1C24" stroke-opacity="0.02" stroke-width="3"/>
<path opacity="0.535354" d="M785.119 1070.09L299.949 1477.2C293.809 1482.35 285.051 1482.96 278.254 1478.72L-258.853 1143.1C-265.649 1138.85 -268.938 1130.71 -267 1122.93L-113.78 508.4C-111.841 500.623 -105.115 494.979 -97.1197 494.42L534.682 450.24C542.677 449.681 550.123 454.334 553.125 461.765L790.38 1048.99C793.382 1056.42 791.258 1064.94 785.119 1070.09Z" stroke="#ED1C24" stroke-opacity="0.02" stroke-width="3"/>
<path opacity="0.545455" d="M786.185 1073.73L295.022 1471.47C288.793 1476.51 280.025 1476.97 273.304 1472.61L-256.743 1128.39C-263.465 1124.03 -266.611 1115.83 -264.537 1108.09L-100.961 497.613C-98.8869 489.872 -92.0635 484.346 -84.0598 483.927L547.083 450.85C555.086 450.431 562.45 455.213 565.322 462.695L791.814 1052.73C794.686 1060.21 792.414 1068.69 786.185 1073.73Z" stroke="#ED1C24" stroke-opacity="0.02" stroke-width="3"/>
<path opacity="0.555556" d="M787.101 1077.29L290.124 1465.57C283.809 1470.5 275.034 1470.81 268.389 1466.33L-254.462 1113.66C-261.107 1109.18 -264.11 1100.93 -261.901 1093.23L-88.0635 486.983C-85.8543 479.279 -78.9356 473.874 -70.9258 473.594L559.363 451.584C567.373 451.304 574.652 456.214 577.393 463.745L793.096 1056.38C795.837 1063.92 793.417 1072.36 787.101 1077.29Z" stroke="#ED1C24" stroke-opacity="0.02" stroke-width="3"/>
<path opacity="0.565657" d="M787.865 1080.75L285.253 1459.5C278.852 1464.32 270.074 1464.47 263.508 1459.88L-252.015 1098.9C-258.58 1094.31 -261.438 1086.01 -259.095 1078.34L-75.0947 476.502C-72.7514 468.838 -65.7394 463.554 -57.7259 463.414L571.516 452.431C579.529 452.291 586.721 457.327 589.331 464.905L794.223 1059.96C796.832 1067.53 794.265 1075.93 787.865 1080.75Z" stroke="#ED1C24" stroke-opacity="0.02" stroke-width="3"/>
<path opacity="0.575758" d="M788.484 1084.13L280.42 1453.26C273.935 1457.97 265.156 1457.97 258.672 1453.26L-249.393 1084.13C-255.877 1079.42 -258.59 1071.07 -256.114 1063.45L-62.0502 466.184C-59.5735 458.561 -52.4703 453.4 -44.4556 453.4L583.547 453.4C591.561 453.4 598.664 458.561 601.141 466.184L795.205 1063.45C797.681 1071.07 794.968 1079.42 788.484 1084.13Z" stroke="#ED1C24" stroke-opacity="0.02" stroke-width="3"/>
<path opacity="0.585859" d="M788.953 1087.41L275.618 1446.85C269.053 1451.45 260.274 1451.3 253.873 1446.47L-246.605 1069.34C-253.006 1064.51 -255.573 1056.12 -252.963 1048.54L-48.9406 456.014C-46.3313 448.436 -39.1392 443.4 -31.1257 443.54L595.446 454.477C603.459 454.617 610.471 459.901 612.814 467.565L796.034 1066.85C798.377 1074.51 795.519 1082.82 788.953 1087.41Z" stroke="#ED1C24" stroke-opacity="0.02" stroke-width="3"/>
<path opacity="0.59596" d="M789.282 1090.6L270.859 1440.29C264.215 1444.77 255.44 1444.46 249.124 1439.53L-243.643 1054.53C-249.959 1049.6 -252.379 1041.16 -249.638 1033.63L-35.7619 446.009C-33.0208 438.478 -25.7418 433.568 -17.732 433.848L607.218 455.671C615.228 455.951 622.147 461.357 624.356 469.061L796.721 1070.17C798.93 1077.87 795.927 1086.12 789.282 1090.6Z" stroke="#ED1C24" stroke-opacity="0.02" stroke-width="3"/>
<path opacity="0.606061" d="M789.469 1093.7L266.142 1433.55C259.421 1437.91 250.653 1437.45 244.424 1432.41L-240.512 1039.72C-246.74 1034.67 -249.013 1026.19 -246.141 1018.71L-22.5205 436.16C-19.6483 428.678 -12.2847 423.896 -4.28101 424.315L618.86 456.973C626.863 457.392 633.687 462.918 635.761 470.659L797.263 1073.39C799.337 1081.13 796.191 1089.33 789.469 1093.7Z" stroke="#ED1C24" stroke-opacity="0.02" stroke-width="3"/>
<path opacity="0.616162" d="M789.515 1096.69L261.469 1426.65C254.672 1430.89 245.913 1430.28 239.774 1425.13L-237.212 1024.89C-243.351 1019.74 -245.475 1011.22 -242.473 1003.79L-9.2203 426.469C-6.21795 419.038 1.22791 414.386 9.22309 414.945L630.366 458.379C638.362 458.938 645.087 464.582 647.026 472.359L797.662 1076.52C799.6 1084.3 796.311 1092.44 789.515 1096.69Z" stroke="#ED1C24" stroke-opacity="0.02" stroke-width="3"/>
<path opacity="0.626263" d="M789.422 1099.57L256.842 1419.58C249.972 1423.71 241.226 1422.94 235.177 1417.69L-233.743 1010.06C-239.791 1004.8 -241.766 996.246 -238.635 988.869L4.13607 416.936C7.26766 409.559 14.7936 405.037 22.7778 405.735L641.738 459.887C649.722 460.586 656.349 466.346 658.152 474.155L797.919 1079.56C799.722 1087.36 796.292 1095.45 789.422 1099.57Z" stroke="#ED1C24" stroke-opacity="0.02" stroke-width="3"/>
<path opacity="0.636364" d="M789.195 1102.36L252.269 1412.36C245.328 1416.36 236.596 1415.45 230.64 1410.08L-230.102 995.228C-236.058 989.866 -237.884 981.277 -234.624 973.956L17.5486 407.567C20.8085 400.245 28.4122 395.855 36.383 396.693L652.976 461.5C660.947 462.338 667.471 468.213 669.138 476.052L798.041 1082.49C799.707 1090.33 796.136 1098.35 789.195 1102.36Z" stroke="#ED1C24" stroke-opacity="0.02" stroke-width="3"/>
<path opacity="0.646465" d="M788.835 1105.04L247.748 1404.97C240.738 1408.85 232.024 1407.78 226.162 1402.32L-226.292 980.398C-232.154 974.932 -233.829 966.313 -230.442 959.05L31.0122 398.359C34.3993 391.095 42.0785 386.839 50.0334 387.815L664.076 463.21C672.031 464.187 678.452 470.175 679.981 478.042L798.026 1085.33C799.555 1093.2 795.845 1101.15 788.835 1105.04Z" stroke="#ED1C24" stroke-opacity="0.02" stroke-width="3"/>
<path opacity="0.656566" d="M788.342 1107.61L243.283 1397.42C236.206 1401.19 227.512 1399.96 221.746 1394.4L-222.315 965.572C-228.081 960.004 -229.605 951.358 -226.092 944.154L44.5228 389.312C48.0362 382.109 55.7885 377.987 63.7252 379.102L675.036 465.016C682.972 466.132 689.288 472.231 690.68 480.124L797.876 1088.06C799.268 1095.96 795.419 1103.85 788.342 1107.61Z" stroke="#ED1C24" stroke-opacity="0.02" stroke-width="3"/>
<path opacity="0.666667" d="M787.721 1110.07L238.876 1389.72C231.735 1393.36 223.063 1391.99 217.396 1386.32L-218.169 950.753C-223.837 945.086 -225.21 936.414 -221.572 929.273L58.0788 380.428C61.7174 373.287 69.5404 369.301 77.4564 370.555L685.855 466.916C693.771 468.17 699.98 474.378 701.233 482.294L797.594 1090.69C798.848 1098.61 794.862 1106.43 787.721 1110.07Z" stroke="#ED1C24" stroke-opacity="0.02" stroke-width="3"/>
<path opacity="0.676768" d="M786.974 1112.42L234.532 1381.86C227.329 1385.37 218.682 1383.85 213.115 1378.08L-213.855 935.944C-219.423 930.179 -220.645 921.485 -216.882 914.408L71.6776 371.707C75.4402 364.63 83.3317 360.781 91.2246 362.173L696.534 468.905C704.427 470.297 710.526 476.613 711.641 484.55L797.184 1093.22C798.299 1101.15 794.177 1108.9 786.974 1112.42Z" stroke="#ED1C24" stroke-opacity="0.02" stroke-width="3"/>
<path opacity="0.686869" d="M786.103 1114.65L230.253 1373.85C222.99 1377.23 214.371 1375.56 208.905 1369.7L-209.373 921.149C-214.839 915.288 -215.909 906.573 -212.023 899.563L85.3165 363.149C89.202 356.139 97.1594 352.428 105.027 353.958L707.07 470.983C714.938 472.512 720.926 478.934 721.902 486.889L796.646 1095.63C797.623 1103.58 793.366 1111.26 786.103 1114.65Z" stroke="#ED1C24" stroke-opacity="0.02" stroke-width="3"/>
<path opacity="0.69697" d="M785.108 1116.77L226.04 1365.68C218.718 1368.94 210.13 1367.11 204.767 1361.16L-204.725 906.371C-210.088 900.415 -211.005 891.683 -206.998 884.742L98.9901 354.755C102.997 347.814 111.018 344.243 118.858 345.909L717.461 473.146C725.3 474.813 731.175 481.338 732.013 489.308L795.982 1097.93C796.82 1105.9 792.43 1113.51 785.108 1116.77Z" stroke="#ED1C24" stroke-opacity="0.02" stroke-width="3"/>
<path opacity="0.707071" d="M783.991 1118.76L221.893 1357.35C214.516 1360.49 205.961 1358.51 200.703 1352.46L-199.914 891.606C-205.172 885.557 -205.937 876.811 -201.809 869.941L112.694 346.519C116.822 339.65 124.904 336.219 132.713 338.022L727.703 475.386C735.513 477.189 741.273 483.815 741.971 491.8L795.192 1100.12C795.891 1108.1 791.369 1115.63 783.991 1118.76Z" stroke="#ED1C24" stroke-opacity="0.02" stroke-width="3"/>
<path opacity="0.717172" d="M782.762 1120.64L217.824 1348.89C210.393 1351.89 201.874 1349.77 196.722 1343.63L-194.932 876.872C-200.084 870.732 -200.696 861.973 -196.449 855.177L126.434 338.456C130.681 331.66 138.822 328.371 146.598 330.309L737.805 477.714C745.581 479.653 751.225 486.379 751.784 494.374L794.287 1102.19C794.846 1110.19 790.193 1117.64 782.762 1120.64Z" stroke="#ED1C24" stroke-opacity="0.02" stroke-width="3"/>
<path opacity="0.727273" d="M781.414 1122.39L213.825 1340.27C206.343 1343.14 197.862 1340.87 192.818 1334.64L-189.789 862.155C-194.833 855.927 -195.293 847.159 -190.928 840.437L140.197 330.551C144.562 323.829 152.758 320.683 160.5 322.757L747.754 480.111C755.495 482.186 761.021 489.009 761.44 497.013L793.259 1104.15C793.678 1112.15 788.896 1119.52 781.414 1122.39Z" stroke="#ED1C24" stroke-opacity="0.02" stroke-width="3"/>
<path opacity="0.737374" d="M779.956 1124.02L209.906 1331.5C202.375 1334.24 193.935 1331.82 189 1325.51L-184.481 847.471C-189.415 841.156 -189.722 832.381 -185.24 825.737L153.986 322.814C158.467 316.169 166.718 313.167 174.422 315.376L757.556 482.587C765.261 484.796 770.666 491.715 770.946 499.724L792.117 1105.99C792.397 1114 787.487 1121.28 779.956 1124.02Z" stroke="#ED1C24" stroke-opacity="0.02" stroke-width="3"/>
<path opacity="0.747475" d="M778.386 1125.52L206.064 1322.59C198.486 1325.2 190.09 1322.63 185.267 1316.23L-179.011 832.815C-183.835 826.414 -183.988 817.635 -179.391 811.07L167.794 315.238C172.391 308.673 180.693 305.815 188.357 308.158L767.208 485.13C774.872 487.473 780.156 494.485 780.296 502.499L790.86 1107.71C791 1115.72 785.964 1122.91 778.386 1125.52Z" stroke="#ED1C24" stroke-opacity="0.02" stroke-width="3"/>
<path opacity="0.757576" d="M776.71 1126.9L202.307 1313.53C194.685 1316.01 186.334 1313.3 181.623 1306.81L-173.377 818.195C-178.088 811.711 -178.088 802.931 -173.377 796.447L181.623 307.83C186.334 301.346 194.685 298.633 202.307 301.11L776.71 487.745C784.333 490.221 789.493 497.325 789.493 505.339L789.493 1109.3C789.493 1117.32 784.333 1124.42 776.71 1126.9Z" stroke="#ED1C24" stroke-opacity="0.02" stroke-width="3"/>
<path opacity="0.767677" d="M774.928 1128.14L198.633 1304.33C190.968 1306.68 182.667 1303.82 178.07 1297.25L-167.584 803.61C-172.181 797.045 -172.027 788.266 -167.204 781.865L195.466 300.585C200.29 294.185 208.686 291.618 216.264 294.227L786.06 490.423C793.638 493.033 798.674 500.225 798.534 508.238L788.017 1110.77C787.877 1118.79 782.593 1125.8 774.928 1128.14Z" stroke="#ED1C24" stroke-opacity="0.02" stroke-width="3"/>
<path opacity="0.777778" d="M773.043 1129.25L195.044 1294.99C187.339 1297.2 179.089 1294.2 174.607 1287.55L-161.631 789.06C-166.113 782.416 -165.807 773.641 -160.872 767.326L209.32 293.501C214.255 287.185 222.695 284.765 230.226 287.506L795.256 493.16C802.787 495.901 807.697 503.18 807.417 511.19L786.432 1112.12C786.153 1120.13 780.747 1127.04 773.043 1129.25Z" stroke="#ED1C24" stroke-opacity="0.02" stroke-width="3"/>
<path opacity="0.787879" d="M771.058 1130.24L191.544 1285.52C183.803 1287.59 175.606 1284.45 171.241 1277.72L-155.519 774.558C-159.884 767.836 -159.425 759.068 -154.381 752.839L223.184 286.585C228.228 280.357 236.709 278.084 244.191 280.956L804.299 495.962C811.782 498.834 816.563 506.197 816.144 514.201L784.745 1113.34C784.325 1121.34 778.8 1128.16 771.058 1130.24Z" stroke="#ED1C24" stroke-opacity="0.02" stroke-width="3"/>
<path opacity="0.79798" d="M768.976 1131.08L188.136 1275.9C180.36 1277.84 172.219 1274.55 167.972 1267.76L-149.249 760.097C-153.496 753.3 -152.884 744.541 -147.732 738.402L237.054 279.831C242.206 273.692 250.725 271.568 258.156 274.57L813.188 498.817C820.62 501.82 825.272 509.266 824.713 517.261L782.955 1114.42C782.396 1122.42 776.753 1129.14 768.976 1131.08Z" stroke="#ED1C24" stroke-opacity="0.02" stroke-width="3"/>
<path opacity="0.808081" d="M766.802 1131.8L184.824 1266.16C177.015 1267.96 168.933 1264.53 164.805 1257.66L-142.82 745.687C-146.948 738.817 -146.182 730.07 -140.924 724.022L250.93 273.244C256.189 267.196 264.743 265.221 272.121 268.352L821.925 501.73C829.303 504.862 833.825 512.388 833.126 520.372L781.07 1115.38C780.371 1123.37 774.611 1130 766.802 1131.8Z" stroke="#ED1C24" stroke-opacity="0.02" stroke-width="3"/>
<path opacity="0.818182" d="M764.533 1132.37L181.605 1256.28C173.766 1257.95 165.745 1254.37 161.738 1247.43L-136.238 731.325C-140.245 724.385 -139.327 715.653 -133.964 709.697L264.804 266.819C270.167 260.863 278.755 259.038 286.077 262.298L830.505 504.692C837.827 507.952 842.217 515.556 841.379 523.527L779.085 1116.21C778.247 1124.18 772.372 1130.71 764.533 1132.37Z" stroke="#ED1C24" stroke-opacity="0.02" stroke-width="3"/>
<path opacity="0.828283" d="M762.176 1132.81L178.486 1246.27C170.618 1247.8 162.661 1244.09 158.775 1237.08L-129.5 717.016C-133.385 710.006 -132.315 701.291 -126.849 695.43L278.677 260.556C284.143 254.694 292.762 253.019 300.025 256.406L838.929 507.701C846.193 511.089 850.45 518.768 849.473 526.723L777.008 1116.91C776.031 1124.86 770.043 1131.28 762.176 1132.81Z" stroke="#ED1C24" stroke-opacity="0.02" stroke-width="3"/>
<path opacity="0.838384" d="M759.732 1133.11L175.466 1236.13C167.573 1237.52 159.681 1233.67 155.919 1226.6L-122.609 702.762C-126.372 695.686 -125.15 686.991 -119.582 681.226L292.544 254.457C298.112 248.691 306.758 247.167 313.962 250.68L847.198 510.757C854.401 514.27 858.523 522.022 857.408 529.959L774.839 1117.46C773.724 1125.4 767.625 1131.72 759.732 1133.11Z" stroke="#ED1C24" stroke-opacity="0.02" stroke-width="3"/>
<path opacity="0.848485" d="M757.201 1133.26L172.545 1225.86C164.629 1227.12 156.806 1223.13 153.168 1215.99L-115.569 688.564C-119.208 681.423 -117.834 672.751 -112.167 667.084L306.4 248.517C312.068 242.849 320.74 241.476 327.881 245.115L855.306 513.851C862.448 517.49 866.434 525.313 865.18 533.229L772.579 1117.89C771.326 1125.8 765.117 1132.01 757.201 1133.26Z" stroke="#ED1C24" stroke-opacity="0.02" stroke-width="3"/>
<path opacity="0.858586" d="M754.594 1133.28L169.733 1215.48C161.796 1216.59 154.044 1212.47 150.531 1205.27L-108.375 674.432C-111.888 667.228 -110.364 658.581 -104.598 653.014L320.25 242.743C326.015 237.176 334.709 235.954 341.786 239.716L863.262 516.99C870.339 520.753 874.188 528.644 872.796 536.537L770.238 1118.17C768.846 1126.07 762.53 1132.16 754.594 1133.28Z" stroke="#ED1C24" stroke-opacity="0.02" stroke-width="3"/>
<path opacity="0.868687" d="M751.906 1133.15L167.025 1204.97C159.07 1205.94 151.391 1201.69 148.004 1194.42L-101.033 660.361C-104.421 653.097 -102.745 644.478 -96.8838 639.012L334.083 237.129C339.945 231.663 348.659 230.593 355.669 234.479L871.059 520.164C878.068 524.049 881.779 532.007 880.25 539.874L767.811 1118.32C766.282 1126.19 759.861 1132.18 751.906 1133.15Z" stroke="#ED1C24" stroke-opacity="0.02" stroke-width="3"/>
<path opacity="0.878788" d="M749.141 1132.88L164.424 1194.34C156.454 1195.17 148.85 1190.78 145.59 1183.46L-93.5456 646.354C-96.8055 639.032 -94.98 630.444 -89.024 625.081L347.899 231.674C353.855 226.311 362.587 225.393 369.528 229.401L878.696 523.369C885.637 527.377 889.208 535.398 887.542 543.237L765.303 1118.33C763.637 1126.17 757.112 1132.04 749.141 1132.88Z" stroke="#ED1C24" stroke-opacity="0.02" stroke-width="3"/>
<path opacity="0.888889" d="M746.304 1132.46L161.935 1183.59C153.951 1184.28 146.425 1179.76 143.293 1172.39L-85.9104 632.415C-89.042 625.038 -87.0669 616.483 -81.0182 611.225L361.696 226.379C367.745 221.121 376.491 220.356 383.361 224.484L886.177 526.606C893.047 530.734 896.477 538.816 894.675 546.625L762.718 1118.19C760.915 1126 754.289 1131.76 746.304 1132.46Z" stroke="#ED1C24" stroke-opacity="0.02" stroke-width="3"/>
<path opacity="0.89899" d="M743.397 1131.9L159.556 1172.72C151.561 1173.28 144.115 1168.63 141.113 1161.2L-78.1318 618.548C-81.1342 611.117 -79.0101 602.598 -72.8705 597.446L375.47 221.244C381.609 216.092 390.368 215.48 397.165 219.727L893.499 529.871C900.295 534.118 903.585 542.259 901.646 550.035L760.057 1117.92C758.118 1125.69 751.392 1131.34 743.397 1131.9Z" stroke="#ED1C24" stroke-opacity="0.02" stroke-width="3"/>
<path opacity="0.909091" d="M740.422 1131.18L157.291 1161.74C149.287 1162.16 141.924 1157.38 139.052 1149.9L-70.2105 604.752C-73.0827 597.27 -70.8102 588.789 -64.5817 583.745L389.218 216.265C395.446 211.222 404.214 210.762 410.936 215.127L900.662 533.159C907.383 537.524 910.53 545.721 908.455 553.462L757.323 1117.5C755.249 1125.24 748.425 1130.76 740.422 1131.18Z" stroke="#ED1C24" stroke-opacity="0.02" stroke-width="3"/>
<path opacity="0.919192" d="M737.381 1130.32L155.141 1150.66C147.131 1150.94 139.852 1146.03 137.111 1138.49L-62.1483 591.033C-64.8894 583.502 -62.4693 575.062 -56.1537 570.128L402.938 211.446C409.253 206.512 418.028 206.206 424.672 210.687L907.666 536.471C914.31 540.952 917.313 549.203 915.104 556.907L754.519 1116.93C752.31 1124.64 745.391 1130.04 737.381 1130.32Z" stroke="#ED1C24" stroke-opacity="0.02" stroke-width="3"/>
<path opacity="0.929293" d="M734.28 1129.31L153.109 1139.46C145.095 1139.6 137.903 1134.56 135.294 1126.98L-53.9457 577.393C-56.5551 569.815 -53.988 561.418 -47.5872 556.595L416.627 206.784C423.028 201.961 431.807 201.808 438.372 206.405L914.512 539.802C921.078 544.399 923.936 552.7 921.593 560.365L751.649 1116.23C749.306 1123.89 742.294 1129.17 734.28 1129.31Z" stroke="#ED1C24" stroke-opacity="0.02" stroke-width="3"/>
<path opacity="0.939394" d="M731.12 1128.16L151.196 1128.16C143.181 1128.16 136.078 1123 133.602 1115.37L-45.6047 563.832C-48.0814 556.21 -45.3682 547.859 -38.8842 543.148L430.284 202.278C436.768 197.567 445.548 197.567 452.032 202.278L921.201 543.148C927.685 547.859 930.398 556.21 927.922 563.832L748.715 1115.37C746.238 1123 739.135 1128.16 731.12 1128.16Z" stroke="#ED1C24" stroke-opacity="0.02" stroke-width="3"/>
<path opacity="0.949495" d="M727.901 1126.84L149.401 1116.75C141.387 1116.61 134.375 1111.32 132.032 1103.66L-37.1313 550.35C-39.4745 542.686 -36.616 534.384 -30.0508 529.787L443.902 197.922C450.467 193.325 459.245 193.478 465.646 198.302L927.728 546.505C934.129 551.328 936.696 559.725 934.086 567.303L745.716 1114.37C743.107 1121.95 735.915 1126.98 727.901 1126.84Z" stroke="#ED1C24" stroke-opacity="0.02" stroke-width="3"/>
<path opacity="0.959596" d="M724.631 1125.39L147.73 1105.24C139.72 1104.96 132.801 1099.55 130.592 1091.85L-28.5204 536.959C-30.7295 529.255 -27.7265 521.004 -21.0821 516.523L457.483 193.727C464.127 189.245 472.902 189.551 479.217 194.486L934.099 549.878C940.415 554.813 942.835 563.253 940.094 570.784L742.661 1113.22C739.92 1120.76 732.641 1125.67 724.631 1125.39Z" stroke="#ED1C24" stroke-opacity="0.02" stroke-width="3"/>
<path opacity="0.969697" d="M721.31 1123.77L146.182 1093.63C138.178 1093.21 131.355 1087.68 129.28 1079.94L-19.7781 523.649C-21.8524 515.907 -18.7059 507.71 -11.9843 503.345L471.021 189.678C477.743 185.313 486.511 185.772 492.739 190.816L940.312 553.253C946.54 558.297 948.813 566.778 945.94 574.26L739.55 1111.93C736.678 1119.41 729.314 1124.19 721.31 1123.77Z" stroke="#ED1C24" stroke-opacity="0.02" stroke-width="3"/>
<path opacity="0.979798" d="M717.943 1122.01L144.76 1081.93C136.765 1081.37 130.039 1075.72 128.1 1067.95L-10.9041 510.433C-12.8431 502.656 -9.55401 494.515 -2.7572 490.268L484.516 185.786C491.313 181.539 500.072 182.151 506.211 187.303L946.367 556.637C952.507 561.789 954.631 570.308 951.628 577.739L736.386 1110.48C733.384 1117.91 725.938 1122.57 717.943 1122.01Z" stroke="#ED1C24" stroke-opacity="0.02" stroke-width="3"/>
<path opacity="0.989899" d="M714.53 1120.09L143.464 1070.13C135.48 1069.43 128.854 1063.67 127.051 1055.86L-1.90165 497.306C-3.70458 489.496 -0.273934 481.414 6.59596 477.286L497.964 182.042C504.834 177.915 513.581 178.68 519.63 183.938L952.265 560.022C958.313 565.28 960.288 573.835 957.157 581.212L733.171 1108.89C730.04 1116.27 722.514 1120.79 714.53 1120.09Z" stroke="#ED1C24" stroke-opacity="0.02" stroke-width="3"/>
<path d="M711.072 1118.02L142.294 1058.24C134.323 1057.4 127.798 1051.52 126.132 1043.68L7.22491 484.269C5.55856 476.43 9.12974 468.409 16.0706 464.402L511.36 178.446C518.301 174.438 527.033 175.356 532.989 180.719L958.002 563.403C963.958 568.765 965.784 577.354 962.524 584.675L729.907 1107.14C726.647 1114.46 719.043 1118.85 711.072 1118.02Z" stroke="#ED1C24" stroke-opacity="0.02" stroke-width="3"/>
</g>
<defs>
<clipPath id="clip0_170_2091">
<rect width="1441" height="1295" fill="white"/>
</clipPath>
</defs>
</svg>
