<svg width="25" height="31" viewBox="0 0 25 31" fill="none" xmlns="http://www.w3.org/2000/svg">
<path d="M12.4136 20.375C16.1357 20.375 19.1812 17.4219 19.1812 13.8125V11.75H5.646V13.8125C5.646 17.4219 8.69141 20.375 12.4136 20.375Z" fill="#666B6F"/>
<path d="M19.66 21.4075L15.314 20.4375H9.51318L5.16711 21.4075C2.24094 22.0606 0.16748 24.5866 0.16748 27.4982V30.875H24.6597V27.4982C24.6597 24.5866 22.5862 22.0606 19.66 21.4075Z" fill="#009262"/>
<path d="M5.58154 28.375H4.29248V30.875H5.58154V28.375Z" fill="#32C997"/>
<path d="M20.5347 28.375H19.2456V30.875H20.5347V28.375Z" fill="#32C997"/>
<path d="M15.314 20.4375H9.51317L6.97552 21.0039C7.28832 23.6615 9.62867 25.7094 12.4136 25.7094C15.1985 25.7094 17.5388 23.6616 17.8516 21.0039L15.314 20.4375Z" fill="#32C997"/>
<path d="M15.314 20.4375V17.25H9.51319V20.4375L8.34485 20.6982C8.50315 22.7416 10.2666 24.3577 12.4136 24.3577C14.5606 24.3577 16.324 22.7416 16.4823 20.6982L15.314 20.4375Z" fill="#FFD3B3"/>
<path d="M12.4136 19.2419C13.4426 19.2419 14.4222 19.0358 15.314 18.6671V17.25H9.51318V18.6671C10.405 19.0358 11.3846 19.2419 12.4136 19.2419Z" fill="#FCB98B"/>
<path d="M19.1812 8.625H18.4077V11.875H19.1812C19.6795 11.875 20.0835 11.4832 20.0835 11V9.5C20.0835 9.01675 19.6795 8.625 19.1812 8.625Z" fill="#FFD3B3"/>
<path d="M5.646 8.625H6.41943V11.875H5.646C5.14764 11.875 4.74365 11.4832 4.74365 11V9.5C4.74365 9.01675 5.14764 8.625 5.646 8.625Z" fill="#FFD3B3"/>
<path d="M6.42578 6.08203V12.2756C6.42578 15.4824 9.10664 18.082 12.4137 18.082C15.7207 18.082 18.4016 15.4824 18.4016 12.2756V6.08203H6.42578Z" fill="#FFD3B3"/>
<path d="M6.41943 6.07031V12.2703C6.41943 15.4805 9.10307 18.0828 12.4136 18.0828C15.724 18.0828 18.4077 15.4805 18.4077 12.2703V6.07031H6.41943Z" fill="#FFD3B3"/>
<path d="M12.4136 0.125C16.1357 0.125 19.1812 3.07812 19.1812 6.6875V8.625H18.4077L18.2643 11.875L17.9034 8.625C15.0994 8.10618 17.475 7.9874 8.23004 7.9874C8.23004 7.9874 6.99634 7.9874 7.2798 7.9874L6.41943 11.875V8.625H5.646V6.6875C5.646 3.07812 8.69141 0.125 12.4136 0.125Z" fill="#666B6F"/>
</svg>
