<svg width="267" height="244" viewBox="0 0 267 244" fill="none" xmlns="http://www.w3.org/2000/svg">
<g clip-path="url(#clip0_250_7614)">
<rect width="267" height="244" rx="24" fill="white"/>
<path opacity="0.010101" d="M-60.1834 296.839L75.4405 338.303C83.105 340.646 91.4067 337.788 96.0037 331.223L177.349 215.05C181.946 208.485 181.793 199.706 176.969 193.305L91.6193 80.042C86.796 73.6412 78.3996 71.0742 70.8215 73.6835L-63.2726 119.856C-70.8507 122.465 -75.8867 129.657 -75.7468 137.671L-73.2717 279.47C-73.1318 287.483 -67.8478 294.495 -60.1834 296.839Z" stroke="#FF9C27" stroke-opacity="0.05" stroke-width="3"/>
<path opacity="0.020202" d="M-59.8808 299.186L76.1463 338.191C83.8506 340.401 92.1011 337.398 96.5828 330.753L175.714 213.437C180.195 206.792 179.889 198.018 174.955 191.702L87.833 80.1915C82.8987 73.8759 74.4588 71.4558 66.9274 74.197L-66.0474 122.596C-73.5788 125.337 -78.4885 132.616 -78.2088 140.626L-73.2702 282.049C-72.9905 290.058 -67.585 296.977 -59.8808 299.186Z" stroke="#FF9C27" stroke-opacity="0.05" stroke-width="3"/>
<path opacity="0.030303" d="M-59.5556 301.502L76.8303 338.046C84.5719 340.121 92.7688 336.974 97.1339 330.253L174.035 211.835C178.4 205.113 177.941 196.345 172.897 190.116L84.0389 80.3857C78.995 74.1571 70.5142 71.8847 63.0318 74.7569L-68.787 125.357C-76.2694 128.23 -81.0513 135.593 -80.6318 143.597L-73.2421 284.6C-72.8227 292.604 -67.2972 299.428 -59.5556 301.502Z" stroke="#FF9C27" stroke-opacity="0.05" stroke-width="3"/>
<path opacity="0.040404" d="M-59.2085 303.778L77.4918 337.861C85.2684 339.8 93.4091 336.511 97.6562 329.714L172.314 210.236C176.561 203.44 175.949 194.681 170.797 188.541L80.2377 80.617C75.0859 74.4774 66.5667 72.3533 59.1356 75.3557L-71.4909 128.132C-78.9219 131.135 -83.5747 138.58 -83.0156 146.576L-73.1879 287.118C-72.6289 295.113 -66.9852 301.839 -59.2085 303.778Z" stroke="#FF9C27" stroke-opacity="0.05" stroke-width="3"/>
<path opacity="0.050505" d="M-58.8361 306.019L78.1344 337.641C85.9437 339.444 94.0257 336.014 98.1536 329.144L170.554 208.649C174.682 201.779 173.917 193.032 168.659 186.983L76.4343 80.8912C71.1762 74.8425 62.6212 72.8674 55.2437 75.999L-74.1549 130.925C-81.5324 134.057 -86.0544 141.583 -85.3559 149.567L-73.1041 289.606C-72.4056 297.59 -66.6454 304.216 -58.8361 306.019Z" stroke="#FF9C27" stroke-opacity="0.05" stroke-width="3"/>
<path opacity="0.0606061" d="M-58.4408 308.226L78.7557 337.388C86.5953 339.054 94.6162 335.483 98.6236 328.542L168.754 207.072C172.762 200.131 171.844 191.399 166.481 185.443L72.6278 81.2082C67.2649 75.2522 58.6767 73.4267 51.3549 76.6866L-76.7803 133.736C-84.1021 136.996 -88.4921 144.6 -87.6544 152.57L-72.993 292.064C-72.1553 300.034 -66.2803 306.559 -58.4408 308.226Z" stroke="#FF9C27" stroke-opacity="0.05" stroke-width="3"/>
<path opacity="0.0707071" d="M-58.0246 310.399L79.3538 337.103C87.2212 338.632 95.1787 334.922 99.0642 327.912L166.913 205.509C170.799 198.499 169.729 189.785 164.263 183.923L68.8173 81.5704C63.3513 75.7088 54.7326 74.0335 47.4688 77.4206L-79.3687 136.566C-86.6325 139.953 -90.8891 147.632 -89.9124 155.587L-72.8568 294.494C-71.88 302.449 -65.8921 308.87 -58.0246 310.399Z" stroke="#FF9C27" stroke-opacity="0.05" stroke-width="3"/>
<path opacity="0.0808081" d="M-57.5883 312.526L79.9282 336.774C87.8212 338.166 95.7126 334.317 99.4752 327.241L165.031 203.948C168.794 196.871 167.572 188.177 162.005 182.411L65.0039 81.9642C59.4364 76.1989 50.7898 74.6742 43.5862 78.1876L-81.9195 139.401C-89.123 142.914 -93.245 150.667 -92.1296 158.603L-72.6957 296.882C-71.5803 304.819 -65.4812 311.135 -57.5883 312.526Z" stroke="#FF9C27" stroke-opacity="0.05" stroke-width="3"/>
<path opacity="0.0909091" d="M-57.1282 314.625L80.4825 336.42C88.3985 337.674 96.2216 333.688 99.8602 326.547L163.113 202.406C166.751 195.265 165.378 186.593 159.711 180.926L61.1923 82.4077C55.5251 76.7405 46.8532 75.3669 39.712 79.0055L-84.4284 142.258C-91.5696 145.897 -95.5556 153.72 -94.3018 161.636L-72.5064 299.247C-71.2526 307.163 -65.0442 313.371 -57.1282 314.625Z" stroke="#FF9C27" stroke-opacity="0.05" stroke-width="3"/>
<path opacity="0.10101" d="M-56.6506 316.678L81.0108 336.025C88.9475 337.141 96.6998 333.019 100.213 325.815L161.153 200.87C164.666 193.666 163.142 185.02 157.376 179.452L57.378 82.8849C51.6127 77.3174 42.9182 76.0955 35.8416 79.8582L-86.9007 145.121C-93.9772 148.884 -97.8261 156.775 -96.4344 164.668L-72.2948 301.571C-70.9031 309.464 -64.5872 315.563 -56.6506 316.678Z" stroke="#FF9C27" stroke-opacity="0.05" stroke-width="3"/>
<path opacity="0.111111" d="M-56.1537 318.702L81.5148 335.606C89.4698 336.583 97.149 332.326 100.536 325.062L159.154 199.355C162.541 192.091 160.866 183.473 155.005 178.007L53.564 83.4119C47.7025 77.9459 38.9879 76.8759 31.9781 80.7615L-89.3338 148.006C-96.3436 151.891 -100.054 159.849 -98.5249 167.716L-72.0592 303.87C-70.53 311.738 -64.1087 317.726 -56.1537 318.702Z" stroke="#FF9C27" stroke-opacity="0.05" stroke-width="3"/>
<path opacity="0.121212" d="M-55.638 320.683L81.9945 335.148C89.9652 335.986 97.569 331.596 100.829 324.274L157.117 197.848C160.377 190.526 158.552 181.938 152.596 176.575L49.7514 83.9741C43.7953 78.6112 35.0634 77.6934 28.1225 81.7008L-91.7273 150.896C-98.6682 154.903 -102.239 162.924 -100.573 170.764L-71.8 306.13C-70.1336 313.97 -63.6088 319.845 -55.638 320.683Z" stroke="#FF9C27" stroke-opacity="0.05" stroke-width="3"/>
<path opacity="0.131313" d="M-55.1039 322.625L82.4495 334.659C90.4337 335.358 97.9596 330.835 101.091 323.458L155.043 196.356C158.174 188.978 156.199 180.423 150.151 175.165L45.9412 84.5772C39.8925 79.3191 31.1459 78.5539 24.2759 82.6818L-94.0807 153.798C-100.951 157.925 -104.381 166.008 -102.578 173.817L-71.5173 308.357C-69.7144 316.166 -63.0881 321.926 -55.1039 322.625Z" stroke="#FF9C27" stroke-opacity="0.05" stroke-width="3"/>
<path opacity="0.141414" d="M-54.5534 324.526L82.8779 334.136C90.873 334.695 98.3189 330.043 101.321 322.612L152.93 194.876C155.932 187.445 153.808 178.926 147.668 173.774L42.1327 85.2194C35.9931 80.0677 27.2345 79.4552 20.4377 83.7023L-96.3953 156.708C-103.192 160.955 -106.481 169.096 -104.542 176.872L-71.2134 310.547C-69.2745 318.323 -62.5486 323.967 -54.5534 324.526Z" stroke="#FF9C27" stroke-opacity="0.05" stroke-width="3"/>
<path opacity="0.151515" d="M-53.987 326.393L83.2798 333.586C91.2835 334.006 98.647 329.224 101.519 321.742L150.779 193.416C153.651 185.934 151.378 177.453 145.15 172.409L38.3272 85.9059C32.0986 80.8621 23.3306 80.4025 16.6089 84.7677L-98.6706 159.631C-105.392 163.996 -108.539 172.193 -106.464 179.935L-70.8884 312.706C-68.8141 320.448 -61.9907 325.973 -53.987 326.393Z" stroke="#FF9C27" stroke-opacity="0.05" stroke-width="3"/>
<path opacity="0.161616" d="M-53.403 328.217L83.6567 333.003C91.6665 333.283 98.9455 328.373 101.687 320.842L148.592 191.969C151.334 184.438 148.913 175.998 142.598 171.064L34.5274 86.6297C28.2118 81.6954 19.4371 81.389 12.7926 85.8707L-100.904 162.56C-107.549 167.042 -110.552 175.293 -108.343 182.997L-70.5407 314.827C-68.3315 322.532 -61.4128 327.937 -53.403 328.217Z" stroke="#FF9C27" stroke-opacity="0.05" stroke-width="3"/>
<path opacity="0.171717" d="M-52.8054 330.007L84.0052 332.395C92.0187 332.535 99.2109 327.499 101.82 319.921L146.368 190.545C148.977 182.967 146.41 174.57 140.01 169.747L30.7312 87.3996C24.3304 82.5762 15.5517 82.423 8.98642 87.02L-103.099 165.503C-109.665 170.1 -112.523 178.402 -110.18 186.067L-70.1742 316.919C-67.8309 324.584 -60.8189 329.868 -52.8054 330.007Z" stroke="#FF9C27" stroke-opacity="0.05" stroke-width="3"/>
<path opacity="0.181818" d="M-52.1964 331.75L84.3232 331.75C92.3379 331.75 99.4411 326.589 101.918 318.966L144.105 189.129C146.581 181.506 143.868 173.156 137.384 168.445L26.9374 88.2008C20.4534 83.4899 11.6734 83.4898 5.18936 88.2008L-105.257 168.445C-111.741 173.156 -114.455 181.506 -111.978 189.129L-69.791 318.966C-67.3143 326.589 -60.2111 331.75 -52.1964 331.75Z" stroke="#FF9C27" stroke-opacity="0.05" stroke-width="3"/>
<path opacity="0.191919" d="M-51.5724 333.457L84.6146 331.079C92.6281 330.94 99.6402 325.656 101.983 317.991L141.807 187.735C144.15 180.07 141.292 171.769 134.726 167.172L23.1513 89.0461C16.5861 84.4491 7.80741 84.6023 1.4066 89.4257L-107.374 171.398C-113.775 176.221 -116.342 184.617 -113.732 192.195L-69.3874 320.982C-66.7781 328.56 -59.5859 333.596 -51.5724 333.457Z" stroke="#FF9C27" stroke-opacity="0.05" stroke-width="3"/>
<path opacity="0.20202" d="M-50.9319 335.127L84.8813 330.384C92.8911 330.104 99.8098 324.699 102.019 316.994L139.477 186.363C141.686 178.659 138.683 170.408 132.039 165.926L19.3759 89.9342C12.7314 85.4525 3.95669 85.7589 -2.35897 90.6932L-109.446 174.359C-115.762 179.293 -118.182 187.733 -115.441 195.265L-68.9619 322.965C-66.2207 330.496 -58.9417 335.406 -50.9319 335.127Z" stroke="#FF9C27" stroke-opacity="0.05" stroke-width="3"/>
<path opacity="0.212121" d="M-50.2843 336.751L85.1141 329.655C93.1178 329.235 99.9411 323.71 102.015 315.968L137.107 185.004C139.182 177.262 136.035 169.065 129.313 164.7L15.6029 90.8559C8.88125 86.4908 0.11327 86.9504 -6.11531 91.9942L-111.484 177.32C-117.713 182.364 -119.985 190.845 -117.113 198.327L-68.5238 324.906C-65.6516 332.388 -58.288 337.17 -50.2843 336.751Z" stroke="#FF9C27" stroke-opacity="0.05" stroke-width="3"/>
<path opacity="0.222222" d="M-49.6262 338.342L85.3166 328.906C93.3117 328.347 100.038 322.703 101.977 314.926L134.702 183.672C136.641 175.896 133.352 167.755 126.555 163.508L11.8375 91.8243C5.04067 87.5772 -3.71797 88.1897 -9.85758 93.3414L-113.482 180.293C-119.622 185.445 -121.746 193.964 -118.743 201.395L-68.0696 326.817C-65.0672 334.248 -57.6213 338.901 -49.6262 338.342Z" stroke="#FF9C27" stroke-opacity="0.05" stroke-width="3"/>
<path opacity="0.232323" d="M-48.9539 339.885L85.493 328.123C93.4772 327.424 100.104 321.664 101.906 313.855L132.266 182.353C134.069 174.544 130.638 166.462 123.768 162.334L8.08465 92.8244C1.21472 88.6965 -7.53191 89.4617 -13.5807 94.7198L-115.437 183.262C-121.485 188.52 -123.46 197.075 -120.329 204.453L-67.5956 328.684C-64.4641 336.062 -56.9381 340.584 -48.9539 339.885Z" stroke="#FF9C27" stroke-opacity="0.05" stroke-width="3"/>
<path opacity="0.242424" d="M-48.2733 341.394L85.6378 327.319C93.6086 326.482 100.133 320.607 101.8 312.767L129.795 181.061C131.461 173.221 127.89 165.2 120.949 161.193L4.33983 93.8685C-2.60109 89.8612 -11.333 90.779 -17.2891 96.1418L-117.353 186.239C-123.309 191.602 -125.134 200.19 -121.874 207.512L-67.1077 330.52C-63.8478 337.842 -56.2441 342.232 -48.2733 341.394Z" stroke="#FF9C27" stroke-opacity="0.05" stroke-width="3"/>
<path opacity="0.252525" d="M-47.5845 342.856L85.751 326.485C93.7059 325.508 100.127 319.52 101.657 311.653L127.289 179.784C128.818 171.917 125.108 163.959 118.098 160.074L0.604425 94.9459C-6.40538 91.0603 -15.12 92.1303 -20.9815 97.5963L-119.229 189.214C-125.091 194.68 -126.766 203.299 -123.379 210.562L-66.6058 332.313C-63.2186 339.577 -55.5394 343.833 -47.5845 342.856Z" stroke="#FF9C27" stroke-opacity="0.05" stroke-width="3"/>
<path opacity="0.262626" d="M-46.8894 344.283L85.8313 325.63C93.768 324.515 100.084 318.416 101.475 310.523L124.749 178.534C126.14 170.641 122.292 162.75 115.215 158.987L-3.12213 96.0661C-10.1987 92.3035 -18.8932 93.5254 -24.6585 99.0929L-121.068 192.195C-126.833 197.762 -128.358 206.409 -124.845 213.612L-66.0918 334.073C-62.5784 341.277 -54.8261 345.399 -46.8894 344.283Z" stroke="#FF9C27" stroke-opacity="0.05" stroke-width="3"/>
<path opacity="0.272727" d="M-46.1846 345.669L85.8823 324.752C93.7983 323.498 100.007 317.29 101.26 309.374L122.178 177.307C123.432 169.391 119.446 161.568 112.304 157.929L-6.83486 97.2248C-13.976 93.5862 -22.6479 94.9597 -28.3152 100.627L-122.865 195.176C-128.532 200.844 -129.905 209.516 -126.267 216.657L-65.5623 335.796C-61.9237 342.937 -54.1006 346.923 -46.1846 345.669Z" stroke="#FF9C27" stroke-opacity="0.05" stroke-width="3"/>
<path opacity="0.282828" d="M-45.4738 347.013L85.9008 323.848C93.7937 322.456 99.8928 316.14 101.008 308.204L119.574 176.101C120.69 168.164 116.568 160.412 109.364 156.898L-10.5362 98.4189C-17.7398 94.9055 -26.3864 96.4302 -31.9539 102.195L-124.622 198.156C-130.19 203.922 -131.412 212.616 -127.649 219.693L-65.0208 337.479C-61.2582 344.556 -53.3667 348.404 -45.4738 347.013Z" stroke="#FF9C27" stroke-opacity="0.05" stroke-width="3"/>
<path opacity="0.292929" d="M-44.757 348.317L85.8873 322.923C93.7547 321.393 99.7427 314.972 100.719 307.017L116.939 174.92C117.916 166.965 113.659 159.286 106.395 155.898L-14.2248 99.6524C-21.4886 96.2652 -30.1073 97.9405 -35.5733 103.802L-126.34 201.138C-131.806 206.999 -132.876 215.714 -128.991 222.724L-64.4674 339.126C-60.5818 346.136 -52.6244 349.847 -44.757 348.317Z" stroke="#FF9C27" stroke-opacity="0.05" stroke-width="3"/>
<path opacity="0.30303" d="M-44.0345 349.581L85.8416 321.975C93.6812 320.308 99.5562 313.784 100.394 305.813L114.273 173.763C115.111 165.792 110.721 158.188 103.399 154.928L-17.8995 100.923C-25.2213 97.6628 -33.8094 99.4882 -39.1723 105.444L-128.018 204.117C-133.381 210.073 -134.299 218.805 -130.291 225.746L-63.9023 340.735C-59.895 347.676 -51.874 351.247 -44.0345 349.581Z" stroke="#FF9C27" stroke-opacity="0.05" stroke-width="3"/>
<path opacity="0.313131" d="M-43.3099 350.801L85.7609 321.003C93.5701 319.2 99.3304 312.574 100.029 304.59L111.574 172.628C112.273 164.644 107.751 157.118 100.373 153.986L-21.5625 102.227C-28.94 99.0959 -37.495 101.071 -42.7531 107.12L-129.659 207.093C-134.917 213.142 -135.682 221.888 -131.554 228.758L-63.3291 342.304C-59.2012 349.174 -51.1191 352.604 -43.3099 350.801Z" stroke="#FF9C27" stroke-opacity="0.05" stroke-width="3"/>
<path opacity="0.323232" d="M-42.5796 351.982L85.6489 320.011C93.4255 318.072 99.0692 311.346 99.6283 303.351L108.847 171.519C109.406 163.524 104.753 156.078 97.3222 153.075L-25.2089 103.57C-32.64 100.567 -41.1592 102.691 -46.311 108.831L-131.258 210.067C-136.41 216.206 -137.022 224.965 -132.775 231.762L-62.744 343.835C-58.4969 350.632 -50.3562 353.921 -42.5796 351.982Z" stroke="#FF9C27" stroke-opacity="0.05" stroke-width="3"/>
<path opacity="0.333333" d="M-41.8474 353.121L85.5024 318.998C93.2439 316.924 98.7694 310.1 99.1889 302.097L106.089 170.435C106.508 162.432 101.726 155.068 94.2441 152.196L-28.8411 104.948C-36.3235 102.076 -44.8043 104.348 -49.8481 110.577L-132.819 213.037C-137.863 219.266 -138.322 228.034 -133.957 234.755L-62.1509 345.328C-57.7858 352.049 -49.5889 355.196 -41.8474 353.121Z" stroke="#FF9C27" stroke-opacity="0.05" stroke-width="3"/>
<path opacity="0.343434" d="M-41.1112 354.225L85.3238 317.97C93.028 315.761 98.4336 308.843 98.7133 300.833L103.304 169.383C103.583 161.373 98.6736 154.094 91.1422 151.353L-32.4558 106.367C-39.9871 103.625 -48.4271 106.046 -53.3614 112.361L-134.34 216.008C-139.274 222.324 -139.58 231.099 -135.099 237.743L-61.5477 346.787C-57.066 353.431 -48.8154 356.434 -41.1112 354.225Z" stroke="#FF9C27" stroke-opacity="0.05" stroke-width="3"/>
<path opacity="0.353535" d="M-40.375 355.285L85.1099 316.921C92.7743 314.578 98.0583 307.566 98.1981 299.552L100.488 168.354C100.628 160.34 95.5921 153.148 88.014 150.539L-36.0555 107.818C-43.6335 105.209 -52.0299 107.776 -56.8533 114.177L-135.823 218.972C-140.646 225.373 -140.799 234.152 -136.202 240.717L-60.9382 348.205C-56.3412 354.77 -48.0395 357.629 -40.375 355.285Z" stroke="#FF9C27" stroke-opacity="0.05" stroke-width="3"/>
<path opacity="0.363636" d="M-39.6387 356.306L84.8609 315.853C92.4834 313.377 97.6442 306.273 97.6441 298.259L97.6442 167.352C97.6441 159.337 92.4834 152.234 84.861 149.757L-39.6387 109.305C-47.2611 106.828 -55.6114 109.542 -60.3223 116.026L-137.267 221.931C-141.978 228.415 -141.978 237.195 -137.267 243.679L-60.3224 349.585C-55.6115 356.069 -47.2611 358.782 -39.6387 356.306Z" stroke="#FF9C27" stroke-opacity="0.05" stroke-width="3"/>
<path opacity="0.373737" d="M-38.9024 357.281L84.5775 314.764C92.1555 312.154 97.1915 304.962 97.0516 296.949L94.7724 166.374C94.6325 158.36 89.3486 151.348 81.6841 149.005L-43.2043 110.823C-50.8688 108.48 -59.1705 111.338 -63.7675 117.903L-138.674 224.88C-143.271 231.445 -143.117 240.224 -138.294 246.625L-59.7001 350.923C-54.8768 357.323 -46.4804 359.89 -38.9024 357.281Z" stroke="#FF9C27" stroke-opacity="0.05" stroke-width="3"/>
<path opacity="0.383838" d="M-38.1675 358.224L84.2585 313.664C91.7898 310.923 96.6996 303.644 96.4199 295.634L91.873 165.43C91.5933 157.421 86.1878 150.502 78.4836 148.293L-46.7525 112.382C-54.4567 110.173 -62.7072 113.176 -67.189 119.82L-140.042 227.83C-144.524 234.474 -144.218 243.249 -139.283 249.565L-59.0731 352.229C-54.1388 358.545 -45.6989 360.965 -38.1675 358.224Z" stroke="#FF9C27" stroke-opacity="0.05" stroke-width="3"/>
<path opacity="0.393939" d="M-37.4288 359.115L83.9098 312.538C91.3922 309.665 96.1741 302.302 95.7547 294.298L88.9525 164.505C88.5331 156.501 83.0076 149.678 75.266 147.604L-50.2766 113.965C-58.0182 111.89 -66.215 115.037 -70.5801 121.758L-141.368 230.761C-145.733 237.483 -145.273 246.251 -140.229 252.48L-58.4358 353.486C-53.392 359.715 -44.9111 361.987 -37.4288 359.115Z" stroke="#FF9C27" stroke-opacity="0.05" stroke-width="3"/>
<path opacity="0.40404" d="M-36.699 359.975L83.519 311.404C90.9501 308.402 95.6028 300.956 95.0437 292.961L85.9992 163.617C85.4401 155.622 79.7964 148.896 72.0198 146.957L-53.7882 115.59C-61.5648 113.651 -69.7055 116.94 -73.9526 123.737L-142.662 233.694C-146.909 240.491 -146.296 249.249 -141.145 255.389L-57.8011 354.714C-52.6493 360.854 -44.1301 362.978 -36.699 359.975Z" stroke="#FF9C27" stroke-opacity="0.05" stroke-width="3"/>
<path opacity="0.414141" d="M-35.9689 360.792L83.0962 310.252C90.4738 307.12 94.9958 299.594 94.2973 291.61L83.0239 162.755C82.3254 154.771 76.5652 148.144 68.7559 146.341L-57.2765 117.244C-65.0858 115.442 -73.1678 118.872 -77.2957 125.742L-143.915 236.615C-148.043 243.485 -147.277 252.231 -142.019 258.28L-57.1595 355.9C-51.9014 361.949 -43.3464 363.924 -35.9689 360.792Z" stroke="#FF9C27" stroke-opacity="0.05" stroke-width="3"/>
<path opacity="0.424242" d="M-35.2438 361.568L82.6361 309.084C89.9579 305.824 94.348 298.221 93.5102 290.25L80.0223 161.921C79.1845 153.95 73.3095 147.425 65.47 145.759L-60.746 118.931C-68.5855 117.265 -76.6065 120.836 -80.6138 127.777L-145.132 239.525C-149.139 246.466 -148.221 255.198 -142.858 261.154L-56.5166 357.046C-51.1537 363.002 -42.5656 364.828 -35.2438 361.568Z" stroke="#FF9C27" stroke-opacity="0.05" stroke-width="3"/>
<path opacity="0.434343" d="M-34.5236 362.309L82.1399 307.908C89.4037 304.521 93.6603 296.842 92.6835 288.887L76.996 161.122C76.0193 153.167 70.0313 146.746 62.1639 145.217L-64.195 120.655C-72.0624 119.126 -80.0198 122.837 -83.9054 129.846L-146.312 242.431C-150.198 249.441 -149.128 258.155 -143.662 264.017L-55.8721 358.159C-50.4061 364.021 -41.7874 365.696 -34.5236 362.309Z" stroke="#FF9C27" stroke-opacity="0.05" stroke-width="3"/>
<path opacity="0.444444" d="M-33.8083 363.004L81.6077 306.712C88.8112 303.199 92.9332 295.447 91.8178 287.51L73.9463 160.348C72.8308 152.411 66.7317 146.095 58.8388 144.703L-67.6224 122.405C-75.5153 121.013 -83.4067 124.862 -87.1694 131.938L-147.455 245.32C-151.218 252.396 -149.996 261.091 -144.428 266.856L-55.226 359.228C-49.6585 364.993 -41.0118 366.518 -33.8083 363.004Z" stroke="#FF9C27" stroke-opacity="0.05" stroke-width="3"/>
<path opacity="0.454545" d="M-33.0976 363.666L81.0406 305.51C88.1817 301.871 92.1677 294.048 90.9139 286.132L70.8747 159.609C69.6209 151.693 63.4125 145.485 55.4965 144.231L-71.0267 124.192C-78.9427 122.938 -86.7657 126.924 -90.4043 134.065L-148.561 248.203C-152.199 255.345 -150.826 264.016 -145.158 269.684L-54.5779 360.264C-48.9106 365.931 -40.2387 367.305 -33.0976 363.666Z" stroke="#FF9C27" stroke-opacity="0.05" stroke-width="3"/>
<path opacity="0.464646" d="M-32.3913 364.289L80.4391 304.296C87.5157 300.533 91.3646 292.641 89.9728 284.749L67.7826 158.902C66.3909 151.009 60.075 144.909 52.1384 143.794L-74.4064 126.009C-82.3431 124.894 -90.0954 129.016 -93.6088 136.219L-149.628 251.075C-153.141 258.278 -151.616 266.925 -145.851 272.493L-53.9278 361.262C-48.1625 366.829 -39.4679 368.051 -32.3913 364.289Z" stroke="#FF9C27" stroke-opacity="0.05" stroke-width="3"/>
<path opacity="0.474747" d="M-31.6969 364.867L79.7966 303.065C86.8064 299.18 90.517 291.222 88.9877 283.355L64.6641 158.22C63.1348 150.353 56.7135 144.365 48.7585 143.388L-77.7678 127.853C-85.7228 126.876 -93.402 131.133 -96.7891 138.396L-150.663 253.929C-154.05 261.193 -152.375 269.812 -146.513 275.278L-53.2829 362.217C-47.4213 367.683 -38.7067 368.753 -31.6969 364.867Z" stroke="#FF9C27" stroke-opacity="0.05" stroke-width="3"/>
<path opacity="0.484848" d="M-31.0066 365.409L79.1212 301.827C86.0621 297.82 89.6333 289.799 87.967 281.959L61.5279 157.573C59.8616 149.734 53.3368 143.859 45.366 143.021L-81.1021 129.729C-89.0729 128.891 -96.6766 133.281 -99.9365 140.603L-151.659 256.773C-154.919 264.095 -153.093 272.683 -147.137 278.046L-52.6355 363.136C-46.6795 368.499 -37.9476 369.417 -31.0066 365.409Z" stroke="#FF9C27" stroke-opacity="0.05" stroke-width="3"/>
<path opacity="0.494949" d="M-30.3258 365.915L78.4083 300.581C85.2783 296.453 88.7089 288.371 86.906 280.561L58.3703 156.96C56.5674 149.15 49.941 143.39 41.9568 142.692L-84.4134 131.636C-92.3975 130.937 -99.9235 135.459 -103.055 142.837L-152.62 259.606C-155.752 266.983 -153.777 275.538 -147.728 280.796L-51.9911 364.019C-45.9423 369.277 -37.1957 370.043 -30.3258 365.915Z" stroke="#FF9C27" stroke-opacity="0.05" stroke-width="3"/>
<path opacity="0.50505" d="M-29.6561 366.378L77.6568 299.322C84.4536 295.074 87.7427 286.934 85.8038 279.157L55.1907 156.375C53.2518 148.598 46.5259 142.955 38.5307 142.396L-87.7021 133.568C-95.6972 133.009 -103.143 137.662 -106.145 145.093L-153.549 262.42C-156.551 269.851 -154.427 278.37 -148.287 283.522L-51.3512 364.861C-45.2116 370.013 -36.4529 370.625 -29.6561 366.378Z" stroke="#FF9C27" stroke-opacity="0.05" stroke-width="3"/>
<path opacity="0.515152" d="M-28.9973 366.801L76.8675 298.052C83.5892 293.686 86.7357 285.49 84.6613 277.748L51.9907 155.82C49.9164 148.078 43.093 142.553 35.0893 142.133L-90.9669 135.527C-98.9706 135.108 -106.334 139.89 -109.206 147.372L-154.443 265.217C-157.315 272.699 -155.043 281.18 -148.814 286.224L-50.7155 365.663C-44.4869 370.707 -35.719 371.166 -28.9973 366.801Z" stroke="#FF9C27" stroke-opacity="0.05" stroke-width="3"/>
<path opacity="0.525253" d="M-28.3473 367.188L76.0429 296.776C82.6874 292.294 85.6904 284.044 83.4812 276.34L48.7737 155.3C46.5645 147.596 39.6458 142.19 31.636 141.911L-94.2047 137.516C-102.215 137.237 -109.494 142.146 -112.235 149.678L-155.301 268.001C-158.042 275.533 -155.622 283.973 -149.306 288.907L-50.0821 366.429C-43.7665 371.364 -34.9918 371.67 -28.3473 367.188Z" stroke="#FF9C27" stroke-opacity="0.05" stroke-width="3"/>
<path opacity="0.535354" d="M-27.7096 367.546L75.1805 295.501C81.7457 290.904 84.6042 282.603 82.2609 274.938L45.5374 154.821C43.1941 147.157 36.1821 141.873 28.1686 141.733L-97.4178 139.541C-105.431 139.401 -112.623 144.437 -115.233 152.015L-156.126 270.777C-158.735 278.355 -156.168 286.752 -149.767 291.575L-49.4543 367.166C-43.0535 371.99 -34.2748 372.143 -27.7096 367.546Z" stroke="#FF9C27" stroke-opacity="0.05" stroke-width="3"/>
<path opacity="0.545455" d="M-27.0801 367.855L74.2847 294.209C80.7687 289.499 83.4819 281.148 81.0052 273.526L42.2873 154.364C39.8106 146.742 32.7075 141.581 24.6928 141.581L-100.601 141.581C-108.616 141.581 -115.719 146.742 -118.196 154.364L-156.913 273.526C-159.39 281.148 -156.677 289.499 -150.193 294.209L-48.8281 367.855C-42.3441 372.566 -33.5641 372.566 -27.0801 367.855Z" stroke="#FF9C27" stroke-opacity="0.05" stroke-width="3"/>
<path opacity="0.555556" d="M-26.4642 368.135L73.3507 292.919C79.7515 288.095 82.3186 279.699 79.7093 272.121L39.0192 153.948C36.4098 146.37 29.2176 141.334 21.2042 141.474L-103.759 143.655C-111.772 143.795 -118.784 149.079 -121.127 156.743L-157.669 276.264C-160.012 283.929 -157.153 292.23 -150.588 296.827L-48.209 368.514C-41.6437 373.111 -32.865 372.958 -26.4642 368.135Z" stroke="#FF9C27" stroke-opacity="0.05" stroke-width="3"/>
<path opacity="0.565657" d="M-25.8653 368.371L72.3761 291.616C78.6918 286.682 81.1119 278.242 78.3707 270.71L35.731 153.559C32.9898 146.027 25.7108 141.118 17.701 141.397L-106.893 145.748C-114.903 146.028 -121.822 151.434 -124.031 159.138L-158.395 278.978C-160.604 286.683 -157.601 294.933 -150.956 299.415L-47.6001 369.13C-40.9556 373.611 -32.1809 373.305 -25.8653 368.371Z" stroke="#FF9C27" stroke-opacity="0.05" stroke-width="3"/>
<path opacity="0.575758" d="M-25.2774 368.578L71.3672 290.317C77.5958 285.273 79.8682 276.792 76.996 269.31L32.43 153.211C29.5578 145.729 22.1942 140.947 14.1905 141.366L-109.997 147.875C-118.001 148.294 -124.824 153.82 -126.899 161.561L-159.085 281.682C-161.159 289.424 -158.013 297.62 -151.291 301.986L-46.9956 369.716C-40.2739 374.081 -31.5059 373.622 -25.2774 368.578Z" stroke="#FF9C27" stroke-opacity="0.05" stroke-width="3"/>
<path opacity="0.585859" d="M-24.7058 368.747L70.3193 289.012C76.4589 283.86 78.583 275.341 75.5806 267.91L29.112 152.896C26.1096 145.465 18.6638 140.812 10.6686 141.371L-113.076 150.024C-121.071 150.583 -127.797 156.227 -129.736 164.003L-159.745 284.365C-161.684 292.142 -158.395 300.283 -151.598 304.53L-46.4009 370.264C-39.6041 374.511 -30.8454 373.899 -24.7058 368.747Z" stroke="#FF9C27" stroke-opacity="0.05" stroke-width="3"/>
<path opacity="0.59596" d="M-24.1466 368.876L69.2371 287.699C75.2859 282.441 77.2609 273.886 74.1293 266.508L25.7824 152.61C22.6508 145.233 15.1249 140.711 7.14066 141.409L-116.123 152.193C-124.107 152.892 -130.734 158.652 -132.537 166.461L-160.371 287.025C-162.174 294.834 -158.743 302.916 -151.873 307.044L-45.8119 370.772C-38.942 374.9 -30.1953 374.134 -24.1466 368.876Z" stroke="#FF9C27" stroke-opacity="0.05" stroke-width="3"/>
<path opacity="0.606061" d="M-23.603 368.971L68.118 286.385C74.0741 281.022 75.8996 272.434 72.6397 265.112L22.4391 152.36C19.1792 145.038 11.5755 140.648 3.60474 141.486L-119.142 154.387C-127.113 155.225 -133.638 161.1 -135.304 168.939L-160.965 289.665C-162.631 297.505 -159.06 305.525 -152.119 309.533L-45.2319 371.244C-38.291 375.252 -29.559 374.334 -23.603 368.971Z" stroke="#FF9C27" stroke-opacity="0.05" stroke-width="3"/>
<path opacity="0.616162" d="M-23.0765 369.032L66.9612 285.07C72.8228 279.604 74.4981 270.986 71.1109 263.722L19.0819 152.146C15.6948 144.882 8.01562 140.625 0.0606686 141.602L-122.133 156.605C-130.088 157.582 -136.509 163.57 -138.038 171.437L-161.529 292.287C-163.058 300.154 -159.348 308.111 -152.338 311.997L-44.6624 371.682C-37.6526 375.568 -28.9381 374.498 -23.0765 369.032Z" stroke="#FF9C27" stroke-opacity="0.05" stroke-width="3"/>
<path opacity="0.626263" d="M-22.5705 369.062L65.7638 283.758C71.5291 278.191 73.0538 269.544 69.5403 262.341L15.7087 151.97C12.1953 144.766 4.44305 140.644 -3.49365 141.76L-125.098 158.85C-133.034 159.965 -139.35 166.064 -140.742 173.957L-162.066 294.891C-163.458 302.784 -159.609 310.675 -152.532 314.438L-44.1069 372.089C-37.0303 375.851 -28.3358 374.629 -22.5705 369.062Z" stroke="#FF9C27" stroke-opacity="0.05" stroke-width="3"/>
<path opacity="0.636364" d="M-22.079 369.052L64.5326 282.441C70.1999 276.774 71.5734 268.102 67.9348 260.96L12.3267 151.823C8.68813 144.682 0.865074 140.696 -7.05095 141.95L-128.03 161.111C-135.946 162.365 -142.155 168.573 -143.408 176.489L-162.57 297.469C-163.823 305.385 -159.837 313.208 -152.696 316.846L-43.5593 372.454C-36.4181 376.093 -27.7462 374.72 -22.079 369.052Z" stroke="#FF9C27" stroke-opacity="0.05" stroke-width="3"/>
<path opacity="0.646465" d="M-21.6053 369.011L63.2649 281.126C68.8324 275.36 70.0544 266.666 66.2917 259.589L8.93375 151.715C5.17109 144.638 -2.72033 140.789 -10.6133 142.181L-130.933 163.396C-138.826 164.788 -144.925 171.104 -146.04 179.041L-163.044 300.027C-164.159 307.964 -160.037 315.716 -152.834 319.23L-43.0229 372.788C-35.8194 376.301 -27.1728 374.777 -21.6053 369.011Z" stroke="#FF9C27" stroke-opacity="0.05" stroke-width="3"/>
<path opacity="0.656566" d="M-21.1491 368.939L61.9617 279.814C67.4277 273.952 68.4977 265.238 64.6121 258.228L5.53147 151.644C1.64588 144.634 -6.31152 140.923 -14.179 142.452L-133.804 165.705C-141.671 167.234 -147.659 173.656 -148.636 181.611L-163.487 302.566C-164.464 310.521 -160.207 318.2 -152.944 321.587L-42.4976 373.089C-35.2338 376.476 -26.6151 374.801 -21.1491 368.939Z" stroke="#FF9C27" stroke-opacity="0.05" stroke-width="3"/>
<path opacity="0.666667" d="M-20.7135 368.832L60.6205 278.502C65.9833 272.546 66.9011 263.814 62.8938 256.873L2.1179 151.606C-1.88944 144.665 -9.91042 141.094 -17.75 142.76L-136.646 168.032C-144.485 169.698 -150.36 176.223 -151.198 184.194L-163.903 305.08C-164.741 313.051 -160.351 320.654 -153.029 323.914L-41.9864 373.354C-34.6646 376.614 -26.0764 374.788 -20.7135 368.832Z" stroke="#FF9C27" stroke-opacity="0.05" stroke-width="3"/>
<path opacity="0.676768" d="M-20.3001 368.688L59.2405 277.187C64.4986 271.138 65.2639 262.391 61.136 255.521L-1.30723 151.599C-5.4351 144.729 -13.5171 141.298 -21.3264 143.101L-139.459 170.374C-147.268 172.177 -153.029 178.803 -153.727 186.787L-164.294 307.566C-164.992 315.55 -160.47 323.076 -153.093 326.208L-41.4907 373.58C-34.1132 376.712 -25.5582 374.737 -20.3001 368.688Z" stroke="#FF9C27" stroke-opacity="0.05" stroke-width="3"/>
<path opacity="0.686869" d="M-19.9047 368.516L57.8265 275.88C62.9782 269.741 63.5907 260.982 59.3435 254.185L-4.73861 151.632C-8.98576 144.835 -17.1265 141.546 -24.9031 143.485L-142.239 172.74C-150.016 174.679 -155.659 181.405 -156.219 189.4L-164.654 310.034C-165.213 318.029 -160.56 325.475 -153.129 328.477L-41.0067 373.778C-33.5756 376.78 -25.0564 374.656 -19.9047 368.516Z" stroke="#FF9C27" stroke-opacity="0.05" stroke-width="3"/>
<path opacity="0.69697" d="M-19.5286 368.31L56.3778 274.573C61.4216 268.345 61.8811 259.577 57.516 252.855L-8.17642 151.697C-12.5415 144.976 -20.7384 141.829 -28.48 143.904L-144.986 175.121C-152.728 177.196 -158.253 184.019 -158.673 192.023L-164.985 312.474C-165.405 320.478 -160.623 327.841 -153.141 330.713L-40.5356 373.938C-33.0532 376.811 -24.5724 374.538 -19.5286 368.31Z" stroke="#FF9C27" stroke-opacity="0.05" stroke-width="3"/>
<path opacity="0.707071" d="M-19.177 368.077L54.8898 273.275C59.8242 266.96 60.1306 258.185 55.6488 251.541L-11.6246 151.804C-16.1064 145.159 -24.3569 142.156 -32.0611 144.365L-147.705 177.526C-155.409 179.735 -160.815 186.654 -161.095 194.664L-165.293 314.895C-165.573 322.905 -160.663 330.183 -153.132 332.925L-40.0826 374.071C-32.5512 376.812 -24.1113 374.392 -19.177 368.077Z" stroke="#FF9C27" stroke-opacity="0.05" stroke-width="3"/>
<path opacity="0.717172" d="M-18.8438 367.81L53.3696 271.979C58.193 265.579 58.3462 256.8 53.7492 250.235L-15.0758 151.942C-19.6729 145.377 -27.9745 142.519 -35.639 144.862L-150.389 179.944C-158.053 182.288 -163.337 189.3 -163.477 197.313L-165.571 317.288C-165.711 325.301 -160.675 332.493 -153.097 335.103L-39.6416 374.168C-32.0635 376.778 -23.6671 374.211 -18.8438 367.81Z" stroke="#FF9C27" stroke-opacity="0.05" stroke-width="3"/>
<path opacity="0.727273" d="M-18.5378 367.511L51.8088 270.688C56.5197 264.204 56.5197 255.423 51.8088 248.939L-18.5379 152.116C-23.2488 145.632 -31.5991 142.918 -39.2215 145.395L-153.045 182.379C-160.667 184.855 -165.828 191.958 -165.828 199.973L-165.828 319.654C-165.828 327.669 -160.667 334.772 -153.045 337.248L-39.2215 374.232C-31.5991 376.709 -23.2488 373.995 -18.5378 367.511Z" stroke="#FF9C27" stroke-opacity="0.05" stroke-width="3"/>
<path opacity="0.737374" d="M-18.2531 367.185L50.2142 269.404C54.8112 262.839 54.658 254.06 49.8346 247.659L-22.0035 152.327C-26.8268 145.926 -35.2232 143.359 -42.8012 145.968L-155.667 184.831C-163.245 187.44 -168.281 194.632 -168.141 202.646L-166.058 321.997C-165.918 330.01 -160.634 337.022 -152.969 339.366L-38.8163 374.266C-31.1518 376.609 -22.8501 373.75 -18.2531 367.185Z" stroke="#FF9C27" stroke-opacity="0.05" stroke-width="3"/>
<path opacity="0.747475" d="M-17.9889 366.83L48.5871 268.127C53.0688 261.483 52.7624 252.708 47.8281 246.392L-25.4709 152.574C-30.4052 146.258 -38.8451 143.838 -46.3765 146.579L-158.254 187.299C-165.785 190.041 -170.695 197.319 -170.415 205.329L-166.26 324.314C-165.98 332.324 -160.575 339.243 -152.871 341.452L-38.4254 374.268C-30.7211 376.477 -22.4706 373.474 -17.9889 366.83Z" stroke="#FF9C27" stroke-opacity="0.05" stroke-width="3"/>
<path opacity="0.757576" d="M-17.7504 366.443L46.9229 266.855C51.2881 260.133 50.8286 251.365 45.7847 245.137L-28.9442 152.854C-33.988 146.626 -42.4688 144.353 -49.9512 147.226L-160.81 189.78C-168.292 192.652 -173.074 200.016 -172.654 208.02L-166.44 326.602C-166.02 334.606 -160.495 341.429 -152.753 343.504L-38.054 374.237C-30.3124 376.312 -22.1155 373.165 -17.7504 366.443Z" stroke="#FF9C27" stroke-opacity="0.05" stroke-width="3"/>
<path opacity="0.767677" d="M-17.5353 366.027L45.2249 265.59C49.472 258.793 48.8596 250.034 43.7078 243.895L-32.4197 153.169C-37.5715 147.03 -46.0907 144.906 -53.5218 147.908L-163.331 192.274C-170.763 195.276 -175.415 202.722 -174.856 210.717L-166.595 328.862C-166.036 336.857 -160.392 343.583 -152.615 345.522L-37.6997 374.174C-29.9231 376.113 -21.7824 372.824 -17.5353 366.027Z" stroke="#FF9C27" stroke-opacity="0.05" stroke-width="3"/>
<path opacity="0.777778" d="M-17.3484 365.582L43.4887 264.332C47.6166 257.462 46.8514 248.715 41.5933 242.666L-35.9016 153.519C-41.1597 147.47 -49.7146 145.495 -57.0922 148.627L-165.824 194.78C-173.201 197.912 -177.723 205.438 -177.025 213.422L-166.73 331.094C-166.031 339.079 -160.271 345.705 -152.462 347.508L-37.3676 374.079C-29.5583 375.882 -21.4763 372.452 -17.3484 365.582Z" stroke="#FF9C27" stroke-opacity="0.05" stroke-width="3"/>
<path opacity="0.787879" d="M-17.1839 365.114L41.721 263.088C45.7284 256.147 44.8106 247.415 39.4477 241.459L-39.3824 153.909C-44.7453 147.953 -53.3335 146.127 -60.6552 149.387L-168.28 197.305C-175.602 200.565 -179.992 208.168 -179.154 216.139L-166.839 333.304C-166.002 341.274 -160.127 347.799 -152.287 349.466L-37.0517 373.96C-29.2122 375.626 -21.1912 372.055 -17.1839 365.114Z" stroke="#FF9C27" stroke-opacity="0.05" stroke-width="3"/>
<path opacity="0.79798" d="M-17.0484 364.624L39.9158 261.857C43.8014 254.848 42.7314 246.133 37.2654 240.271L-42.8681 154.339C-48.3341 148.477 -56.9528 146.802 -64.2166 150.189L-170.706 199.846C-177.97 203.233 -182.226 210.912 -181.25 218.867L-166.93 335.489C-165.953 343.444 -159.966 349.866 -152.098 351.395L-36.7588 373.815C-28.8914 375.344 -20.934 371.633 -17.0484 364.624Z" stroke="#FF9C27" stroke-opacity="0.05" stroke-width="3"/>
<path opacity="0.808081" d="M-16.934 364.099L38.0816 260.63C41.8443 253.553 40.6223 244.858 35.0548 239.093L-46.3495 154.796C-51.917 149.031 -60.5636 147.507 -67.7672 151.02L-173.093 202.391C-180.297 205.904 -184.419 213.657 -183.304 221.593L-166.994 337.639C-165.879 345.576 -159.78 351.892 -151.887 353.283L-36.481 373.633C-28.5881 375.024 -20.6967 371.175 -16.934 364.099Z" stroke="#FF9C27" stroke-opacity="0.05" stroke-width="3"/>
<path opacity="0.818182" d="M-16.8494 363.547L36.2104 259.412C39.849 252.27 38.4755 243.599 32.8083 237.931L-49.8344 155.289C-55.5016 149.621 -64.1735 148.248 -71.3147 151.886L-175.45 204.946C-182.592 208.585 -186.578 216.408 -185.324 224.324L-167.041 339.759C-165.787 347.675 -159.579 353.884 -151.663 355.138L-36.2271 373.421C-28.311 374.675 -20.488 370.689 -16.8494 363.547Z" stroke="#FF9C27" stroke-opacity="0.05" stroke-width="3"/>
<path opacity="0.828283" d="M-16.7922 362.973L34.3054 258.207C37.8188 251.004 36.2942 242.357 30.5289 236.79L-53.3191 155.818C-59.0844 150.251 -67.779 149.029 -74.8556 152.792L-177.774 207.514C-184.851 211.277 -188.7 219.169 -187.308 227.061L-167.067 341.853C-165.675 349.746 -159.359 355.845 -151.423 356.961L-35.9946 373.183C-28.0579 374.298 -20.3056 370.176 -16.7922 362.973Z" stroke="#FF9C27" stroke-opacity="0.05" stroke-width="3"/>
<path opacity="0.838384" d="M-16.7618 362.375L32.3679 257.016C35.7551 249.753 34.0798 241.134 28.2182 235.668L-56.8022 156.385C-62.6638 150.919 -71.3784 149.849 -78.3882 153.735L-180.063 210.094C-187.073 213.98 -190.784 221.937 -189.254 229.804L-167.073 343.919C-165.543 351.787 -159.122 357.775 -151.167 358.751L-35.783 372.919C-27.8281 373.896 -20.1489 369.639 -16.7618 362.375Z" stroke="#FF9C27" stroke-opacity="0.05" stroke-width="3"/>
<path opacity="0.848485" d="M-16.7575 361.75L30.3991 255.835C33.6589 248.513 31.8335 239.925 25.8774 234.562L-60.282 156.983C-66.238 151.621 -74.97 150.703 -81.9109 154.71L-182.317 212.68C-189.258 216.687 -192.829 224.708 -191.163 232.547L-167.058 345.953C-165.391 353.792 -158.866 359.667 -150.896 360.505L-35.5919 372.624C-27.6211 373.462 -20.0174 369.072 -16.7575 361.75Z" stroke="#FF9C27" stroke-opacity="0.05" stroke-width="3"/>
<path opacity="0.858586" d="M-16.7807 361.108L28.3984 254.673C31.53 247.295 29.5549 238.74 23.5061 233.482L-63.7587 157.624C-69.8075 152.366 -78.5541 151.6 -85.424 155.728L-184.536 215.281C-191.406 219.409 -194.836 227.491 -193.033 235.3L-167.023 347.963C-165.22 355.773 -158.594 361.533 -150.609 362.231L-35.4224 372.309C-27.4382 373.008 -19.9123 368.485 -16.7807 361.108Z" stroke="#FF9C27" stroke-opacity="0.05" stroke-width="3"/>
<path opacity="0.868687" d="M-16.8363 360.433L26.3616 253.515C29.3639 246.084 27.2399 237.565 21.1003 232.413L-67.2363 158.29C-73.376 153.138 -82.1346 152.526 -88.9314 156.773L-186.724 217.88C-193.521 222.128 -196.81 230.268 -194.871 238.045L-166.974 349.935C-165.035 357.711 -158.309 363.355 -150.314 363.914L-35.2797 371.958C-27.2845 372.517 -19.8386 367.865 -16.8363 360.433Z" stroke="#FF9C27" stroke-opacity="0.05" stroke-width="3"/>
<path opacity="0.878788" d="M-16.918 359.74L24.2955 252.375C27.1677 244.892 24.8953 236.411 18.6667 231.368L-70.7077 158.994C-76.9363 153.95 -85.7043 153.49 -92.426 157.855L-188.876 220.491C-195.598 224.856 -198.744 233.053 -196.67 240.794L-166.905 351.879C-164.83 359.621 -158.007 365.146 -150.003 365.566L-35.1575 371.584C-27.1538 372.004 -19.7903 367.222 -16.918 359.74Z" stroke="#FF9C27" stroke-opacity="0.05" stroke-width="3"/>
<path opacity="0.888889" d="M-17.0328 359.029L22.194 251.255C24.9352 243.723 22.5151 235.283 16.1994 230.349L-74.1788 159.738C-80.4944 154.803 -89.2691 154.497 -95.9136 158.979L-190.997 223.114C-197.642 227.595 -200.645 235.846 -198.435 243.55L-166.822 353.799C-164.613 361.503 -157.694 366.908 -149.684 367.188L-35.0628 371.191C-27.053 371.47 -19.774 366.561 -17.0328 359.029Z" stroke="#FF9C27" stroke-opacity="0.05" stroke-width="3"/>
<path opacity="0.89899" d="M-17.1725 358.296L20.0659 250.148C22.6752 242.57 20.1082 234.174 13.7074 229.35L-77.6403 160.515C-84.0412 155.691 -92.8198 155.538 -99.3851 160.135L-193.079 225.741C-199.645 230.338 -202.503 238.64 -200.16 246.304L-166.719 355.686C-164.375 363.35 -157.363 368.634 -149.35 368.774L-34.9875 370.77C-26.974 370.91 -19.7818 365.874 -17.1725 358.296Z" stroke="#FF9C27" stroke-opacity="0.05" stroke-width="3"/>
<path opacity="0.909091" d="M-17.3439 357.533L17.905 249.048C20.3817 241.425 17.6685 233.075 11.1845 228.364L-81.0984 161.317C-87.5824 156.606 -96.3625 156.606 -102.846 161.317L-195.129 228.364C-201.613 233.075 -204.327 241.425 -201.85 249.048L-166.601 357.533C-164.124 365.155 -157.021 370.316 -149.006 370.316L-34.9385 370.316C-26.9238 370.316 -19.8206 365.155 -17.3439 357.533Z" stroke="#FF9C27" stroke-opacity="0.05" stroke-width="3"/>
<path opacity="0.919192" d="M-17.5464 356.759L15.7126 247.973C18.0559 240.309 15.1974 232.007 8.63215 227.41L-84.5514 162.162C-91.1166 157.565 -99.8953 157.718 -106.296 162.542L-197.146 231.002C-203.547 235.825 -206.114 244.222 -203.504 251.8L-166.469 359.358C-163.86 366.936 -156.667 371.972 -148.654 371.832L-34.9152 369.847C-26.9017 369.707 -19.8897 364.423 -17.5464 356.759Z" stroke="#FF9C27" stroke-opacity="0.05" stroke-width="3"/>
<path opacity="0.929293" d="M-17.7775 355.963L13.492 246.913C15.7011 239.209 12.6982 230.959 6.05369 226.477L-87.9958 163.04C-94.6403 158.558 -103.415 158.864 -109.731 163.799L-199.126 233.642C-205.442 238.576 -207.862 247.016 -205.121 254.547L-166.32 361.15C-163.579 368.682 -156.3 373.591 -148.29 373.312L-34.9152 369.352C-26.9054 369.073 -19.9867 363.667 -17.7775 355.963Z" stroke="#FF9C27" stroke-opacity="0.05" stroke-width="3"/>
<path opacity="0.939394" d="M-18.0402 355.145L11.2407 245.868C13.315 238.126 10.1685 229.929 3.44685 225.564L-91.434 163.948C-98.1557 159.583 -106.924 160.042 -113.152 165.086L-201.073 236.283C-207.301 241.327 -209.574 249.807 -206.702 257.29L-166.158 362.908C-163.286 370.39 -155.923 375.172 -147.919 374.753L-34.9416 368.832C-26.9379 368.412 -20.1145 362.887 -18.0402 355.145Z" stroke="#FF9C27" stroke-opacity="0.05" stroke-width="3"/>
<path opacity="0.949495" d="M-18.3375 354.313L8.95624 244.844C10.8952 237.067 7.60612 228.926 0.809276 224.679L-94.868 164.893C-101.665 160.646 -110.423 161.259 -116.563 166.41L-202.989 238.93C-209.128 244.082 -211.252 252.601 -208.25 260.032L-165.987 364.637C-162.984 372.069 -155.538 376.721 -147.543 376.162L-34.9975 368.292C-27.0023 367.733 -20.2765 362.089 -18.3375 354.313Z" stroke="#FF9C27" stroke-opacity="0.05" stroke-width="3"/>
<path opacity="0.959596" d="M-18.6614 353.458L6.64752 243.833C8.45042 236.023 5.0198 227.941 -1.85013 223.813L-98.2889 165.867C-105.159 161.739 -113.905 162.505 -119.954 167.763L-204.866 241.575C-210.914 246.833 -212.89 255.388 -209.758 262.766L-165.797 366.331C-162.666 373.708 -155.14 378.23 -147.156 377.532L-35.0749 367.726C-27.0907 367.027 -20.4644 361.267 -18.6614 353.458Z" stroke="#FF9C27" stroke-opacity="0.05" stroke-width="3"/>
<path opacity="0.969697" d="M-19.0187 352.589L4.30839 242.844C5.97475 235.005 2.40359 226.984 -4.53734 222.976L-101.703 166.878C-108.644 162.871 -117.376 163.788 -123.332 169.151L-206.71 244.226C-212.666 249.589 -214.492 258.177 -211.232 265.498L-165.597 367.995C-162.337 375.317 -154.734 379.707 -146.763 378.87L-35.1806 367.142C-27.2098 366.304 -20.685 360.429 -19.0187 352.589Z" stroke="#FF9C27" stroke-opacity="0.05" stroke-width="3"/>
<path opacity="0.979798" d="M-19.4048 351.707L1.94385 241.878C3.47313 234.01 -0.237469 226.053 -7.24728 222.167L-105.104 167.924C-112.114 164.039 -120.829 165.109 -126.69 170.575L-208.518 246.88C-214.379 252.346 -216.055 260.965 -212.667 268.229L-165.383 369.631C-161.996 376.895 -154.316 381.151 -146.361 380.175L-35.3103 366.539C-27.3554 365.562 -20.9341 359.574 -19.4048 351.707Z" stroke="#FF9C27" stroke-opacity="0.05" stroke-width="3"/>
<path opacity="0.989899" d="M-19.8285 350.803L-0.453989 240.925C0.93774 233.032 -2.91116 225.141 -9.98772 221.378L-108.501 168.997C-115.578 165.235 -124.272 166.457 -130.037 172.024L-210.297 249.529C-216.062 255.097 -217.586 263.744 -214.073 270.947L-165.163 371.228C-161.649 378.432 -153.897 382.554 -145.96 381.439L-35.4727 365.911C-27.5361 364.795 -21.2202 358.696 -19.8285 350.803Z" stroke="#FF9C27" stroke-opacity="0.05" stroke-width="3"/>
<path d="M-20.2816 349.885L-2.87643 239.993C-1.62266 232.077 -5.6087 224.254 -12.7498 220.616L-111.885 170.104C-119.026 166.465 -127.698 167.839 -133.365 173.506L-212.039 252.18C-217.706 257.847 -219.079 266.519 -215.441 273.66L-164.929 372.795C-161.29 379.936 -153.467 383.922 -145.551 382.668L-35.6597 365.263C-27.7437 364.009 -21.5353 357.801 -20.2816 349.885Z" stroke="#FF9C27" stroke-opacity="0.05" stroke-width="3"/>
</g>
<defs>
<clipPath id="clip0_250_7614">
<rect width="267" height="244" rx="24" fill="white"/>
</clipPath>
</defs>
</svg>
