<svg width="17" height="17" viewBox="0 0 17 17" fill="none" xmlns="http://www.w3.org/2000/svg">
<g clip-path="url(#clip0_1354_59960)">
<path d="M8.39924 0C3.75659 0 0 3.75692 0 8.39924C0 13.0419 3.75692 16.7985 8.39924 16.7985C13.0419 16.7985 16.7985 13.0416 16.7985 8.39924C16.7985 3.75659 13.0415 0 8.39924 0ZM8.39924 15.4861C4.48201 15.4861 1.31238 12.3162 1.31238 8.39924C1.31238 4.48201 4.48228 1.31238 8.39924 1.31238C12.3165 1.31238 15.4861 4.48228 15.4861 8.39924C15.4861 12.3165 12.3162 15.4861 8.39924 15.4861Z" fill="#ED1A33"/>
<path d="M8.39935 7.03198C8.03694 7.03198 7.74316 7.32576 7.74316 7.68817V11.9138C7.74316 12.2762 8.03694 12.57 8.39935 12.57C8.76177 12.57 9.05555 12.2762 9.05555 11.9138V7.68817C9.05555 7.32576 8.76177 7.03198 8.39935 7.03198Z" fill="#ED1A33"/>
<path d="M8.39953 6.2285C8.88878 6.2285 9.28539 5.83189 9.28539 5.34264C9.28539 4.8534 8.88878 4.45679 8.39953 4.45679C7.91028 4.45679 7.51367 4.8534 7.51367 5.34264C7.51367 5.83189 7.91028 6.2285 8.39953 6.2285Z" fill="#ED1A33"/>
</g>
<defs>
<clipPath id="clip0_1354_59960">
<rect width="16.7985" height="16.7985" fill="white"/>
</clipPath>
</defs>
</svg>
