<svg width="558" height="96" viewBox="0 0 558 96" fill="none" xmlns="http://www.w3.org/2000/svg">
<g clip-path="url(#clip0_249_3935)">
<rect width="558" height="96" fill="white"/>
<g opacity="0.7">
<path opacity="0.020202" d="M-34.555 205.759L101.472 244.765C109.176 246.974 117.427 243.971 121.909 237.326L201.039 120.01C205.521 113.366 205.215 104.591 200.28 98.2753L113.159 -13.2352C108.224 -19.5509 99.7845 -21.971 92.2531 -19.2298L-40.7217 29.1691C-48.2531 31.9103 -53.1628 39.1893 -52.8831 47.1991L-47.9445 188.622C-47.6648 196.632 -42.2593 203.55 -34.555 205.759Z" stroke="#FF9C27" stroke-opacity="0.2" stroke-width="3"/>
<path opacity="0.030303" d="M-34.2299 208.075L102.156 244.62C109.898 246.694 118.094 243.547 122.46 236.826L199.361 118.408C203.726 111.686 203.267 102.918 198.223 96.6897L109.365 -13.0411C104.321 -19.2696 95.8399 -21.5421 88.3576 -18.6699L-43.4613 31.9307C-50.9436 34.8029 -55.7256 42.1664 -55.3061 50.1701L-47.9164 191.174C-47.4969 199.177 -41.9715 206.001 -34.2299 208.075Z" stroke="#FF9C27" stroke-opacity="0.2" stroke-width="3"/>
<path opacity="0.040404" d="M-33.8828 210.351L102.818 244.434C110.594 246.373 118.735 243.084 122.982 236.287L197.64 116.81C201.887 110.013 201.274 101.254 196.123 95.1146L105.563 -12.8097C100.412 -18.9494 91.8925 -21.0734 84.4614 -18.0711L-46.1651 34.7054C-53.5962 37.7078 -58.2489 45.1537 -57.6898 53.1488L-47.8621 193.691C-47.3031 201.686 -41.6594 208.412 -33.8828 210.351Z" stroke="#FF9C27" stroke-opacity="0.2" stroke-width="3"/>
<path opacity="0.050505" d="M-33.5103 212.592L103.46 244.214C111.269 246.017 119.352 242.587 123.479 235.717L195.88 115.222C200.008 108.352 199.243 99.6053 193.985 93.5566L101.76 -12.5355C96.502 -18.5843 87.947 -20.5594 80.5695 -17.4278L-48.829 37.4987C-56.2066 40.6302 -60.7286 48.1562 -60.0301 56.1404L-47.7783 196.179C-47.0798 204.163 -41.3196 210.789 -33.5103 212.592Z" stroke="#FF9C27" stroke-opacity="0.2" stroke-width="3"/>
<path opacity="0.0606061" d="M-33.115 214.799L104.081 243.961C111.921 245.627 119.942 242.056 123.949 235.115L194.08 113.645C198.087 106.704 197.17 97.9722 191.807 92.0161L97.9535 -12.2185C92.5906 -18.1746 84.0024 -20.0001 76.6807 -16.7402L-51.4546 40.3093C-58.7764 43.5692 -63.1664 51.1729 -62.3287 59.1437L-47.6673 198.637C-46.8296 206.608 -40.9546 213.132 -33.115 214.799Z" stroke="#FF9C27" stroke-opacity="0.2" stroke-width="3"/>
<path opacity="0.0707071" d="M-32.6989 216.973L104.68 243.676C112.547 245.205 120.504 241.495 124.39 234.485L192.239 112.082C196.125 105.072 195.055 96.3579 189.589 90.4963L94.1431 -11.8564C88.6771 -17.718 80.0584 -19.3933 72.7946 -16.0061L-54.0429 43.1392C-61.3067 46.5263 -65.5633 54.2055 -64.5866 62.1605L-47.531 201.067C-46.5543 209.022 -40.5663 215.443 -32.6989 216.973Z" stroke="#FF9C27" stroke-opacity="0.2" stroke-width="3"/>
<path opacity="0.0808081" d="M-32.2625 219.1L105.254 243.348C113.147 244.739 121.038 240.89 124.801 233.814L190.357 110.521C194.12 103.444 192.898 94.7498 187.33 88.9845L90.3296 -11.4626C84.7622 -17.2279 76.1155 -18.7525 68.912 -15.2391L-56.5937 45.9741C-63.7973 49.4875 -67.9193 57.2398 -66.8038 65.1765L-47.37 203.455C-46.2545 211.392 -40.1554 217.708 -32.2625 219.1Z" stroke="#FF9C27" stroke-opacity="0.2" stroke-width="3"/>
<path opacity="0.0909091" d="M-31.8024 221.198L105.808 242.993C113.724 244.247 121.547 240.261 125.186 233.12L188.439 108.98C192.077 101.839 190.704 93.1666 185.037 87.4993L86.5181 -11.0191C80.8509 -16.6863 72.179 -18.0598 65.0378 -14.4212L-59.1026 48.8315C-66.2437 52.4701 -70.2298 60.2931 -68.976 68.2092L-47.1806 205.82C-45.9268 213.736 -39.7184 219.944 -31.8024 221.198Z" stroke="#FF9C27" stroke-opacity="0.2" stroke-width="3"/>
<path opacity="0.10101" d="M-31.3247 223.251L106.337 242.598C114.273 243.714 122.026 239.592 125.539 232.388L186.479 107.443C189.992 100.24 188.468 91.593 182.702 86.0255L82.7038 -10.5419C76.9386 -16.1093 68.244 -17.3313 61.1675 -13.5686L-61.5748 51.6946C-68.6514 55.4573 -72.5003 63.3487 -71.1085 71.2417L-46.969 208.144C-45.5772 216.037 -39.2614 222.136 -31.3247 223.251Z" stroke="#FF9C27" stroke-opacity="0.2" stroke-width="3"/>
<path opacity="0.111111" d="M-30.828 225.276L106.841 242.179C114.796 243.156 122.475 238.899 125.862 231.636L184.48 105.928C187.867 98.6647 186.192 90.046 180.33 84.58L78.8898 -10.0148C73.0282 -15.4808 64.3136 -16.5509 57.3038 -12.6653L-64.008 54.579C-71.0178 58.4646 -74.7284 66.422 -73.1992 74.2894L-46.7335 210.443C-45.2042 218.311 -38.7829 224.299 -30.828 225.276Z" stroke="#FF9C27" stroke-opacity="0.2" stroke-width="3"/>
<path opacity="0.121212" d="M-30.3122 227.256L107.32 241.722C115.291 242.559 122.895 238.169 126.155 230.848L182.443 104.422C185.703 97.0997 183.878 88.5116 177.921 83.1487L75.0772 -9.45267C69.1211 -14.8155 60.3892 -15.7333 53.4483 -11.726L-66.4015 57.4693C-73.3424 61.4767 -76.9135 69.4976 -75.2472 77.3372L-46.4742 212.704C-44.8078 220.543 -38.283 226.418 -30.3122 227.256Z" stroke="#FF9C27" stroke-opacity="0.2" stroke-width="3"/>
<path opacity="0.131313" d="M-29.7781 229.198L107.775 241.232C115.76 241.931 123.285 237.409 126.417 230.031L180.369 102.929C183.5 95.5514 181.525 86.9964 175.476 81.7383L71.267 -8.84954C65.2183 -14.1076 56.4717 -14.8729 49.6017 -10.745L-68.7549 60.3708C-75.6248 64.4987 -79.0554 72.5808 -77.2525 80.39L-46.1915 214.93C-44.3886 222.739 -37.7623 228.499 -29.7781 229.198Z" stroke="#FF9C27" stroke-opacity="0.2" stroke-width="3"/>
<path opacity="0.141414" d="M-29.2277 231.099L108.204 240.71C116.199 241.269 123.645 236.616 126.647 229.185L178.255 101.45C181.258 94.0185 179.134 85.4993 172.994 80.3475L67.4585 -8.20734C61.3188 -13.3591 52.5602 -13.9715 45.7634 -9.72441L-71.0696 63.2809C-77.8664 67.5281 -81.1555 75.6688 -79.2166 83.4454L-45.8877 217.12C-43.9488 224.897 -37.2229 230.54 -29.2277 231.099Z" stroke="#FF9C27" stroke-opacity="0.2" stroke-width="3"/>
<path opacity="0.151515" d="M-28.6612 232.966L108.606 240.16C116.609 240.579 123.973 235.797 126.845 228.315L176.105 99.9894C178.977 92.5071 176.704 84.0262 170.476 78.9824L63.653 -7.52088C57.4244 -12.5647 48.6564 -13.0242 41.9347 -8.65909L-73.3448 66.2043C-80.0665 70.5694 -83.213 78.7663 -81.1386 86.5079L-45.5626 219.279C-43.4883 227.021 -36.6649 232.546 -28.6612 232.966Z" stroke="#FF9C27" stroke-opacity="0.2" stroke-width="3"/>
<path opacity="0.161616" d="M-28.0772 234.79L108.983 239.576C116.992 239.856 124.271 234.946 127.012 227.415L173.918 98.5423C176.659 91.011 174.239 82.5711 167.924 77.6368L59.8532 -6.79704C53.5376 -11.7314 44.7629 -12.0378 38.1185 -7.55603L-75.5785 69.1335C-82.2229 73.6153 -85.2259 81.8658 -83.0167 89.57L-45.2149 221.401C-43.0057 229.105 -36.087 234.51 -28.0772 234.79Z" stroke="#FF9C27" stroke-opacity="0.2" stroke-width="3"/>
<path opacity="0.171717" d="M-27.4796 236.581L109.331 238.969C117.344 239.109 124.537 234.073 127.146 226.495L171.694 97.1178C174.303 89.5398 171.736 81.1434 165.335 76.32L56.057 -6.02719C49.6562 -10.8505 40.8775 -11.0038 34.3122 -6.40675L-77.7735 72.0766C-84.3388 76.6736 -87.1973 84.9753 -84.854 92.6398L-44.8484 223.492C-42.5051 231.157 -35.4931 236.441 -27.4796 236.581Z" stroke="#FF9C27" stroke-opacity="0.2" stroke-width="3"/>
<path opacity="0.181818" d="M-26.8706 238.323L109.649 238.323C117.664 238.323 124.767 233.162 127.244 225.54L169.43 95.7018C171.907 88.0794 169.194 79.7291 162.71 75.0182L52.2632 -5.22599C45.7792 -9.93691 36.9992 -9.93692 30.5151 -5.226L-79.9315 75.0182C-86.4155 79.7291 -89.1287 88.0794 -86.652 95.7018L-44.4652 225.54C-41.9885 233.162 -34.8853 238.323 -26.8706 238.323Z" stroke="#FF9C27" stroke-opacity="0.2" stroke-width="3"/>
<path opacity="0.191919" d="M-26.2466 240.03L109.94 237.653C117.954 237.513 124.966 232.229 127.309 224.564L167.133 94.3082C169.476 86.6437 166.617 78.342 160.052 73.745L48.4772 -4.38062C41.9119 -8.97765 33.1332 -8.82442 26.7324 -4.00106L-82.048 77.9709C-88.4488 82.7942 -91.0158 91.1906 -88.4065 98.7686L-44.0615 227.556C-41.4522 235.134 -34.26 240.17 -26.2466 240.03Z" stroke="#FF9C27" stroke-opacity="0.2" stroke-width="3"/>
<path opacity="0.20202" d="M-25.6061 241.7L110.207 236.957C118.217 236.677 125.136 231.272 127.345 223.568L164.803 92.936C167.012 85.2318 164.009 76.9813 157.364 72.4995L44.7016 -3.49251C38.0572 -7.97426 29.2825 -7.66786 22.9668 -2.73352L-84.1207 80.9324C-90.4363 85.8667 -92.8564 94.3066 -90.1152 101.838L-43.6361 229.538C-40.8949 237.07 -33.6159 241.979 -25.6061 241.7Z" stroke="#FF9C27" stroke-opacity="0.2" stroke-width="3"/>
<path opacity="0.212121" d="M-24.9585 243.324L110.44 236.228C118.444 235.808 125.267 230.283 127.341 222.541L162.433 91.5771C164.507 83.8356 161.361 75.6387 154.639 71.2736L40.9287 -2.57081C34.207 -6.93592 25.439 -6.4764 19.2105 -1.4326L-86.1582 83.8933C-92.3868 88.9371 -94.6592 97.4179 -91.787 104.9L-43.198 231.479C-40.3258 238.961 -32.9622 243.743 -24.9585 243.324Z" stroke="#FF9C27" stroke-opacity="0.2" stroke-width="3"/>
<path opacity="0.222222" d="M-24.3004 244.915L110.642 235.479C118.638 234.92 125.363 229.276 127.302 221.5L160.028 90.2454C161.967 82.4688 158.678 74.3281 151.881 70.081L37.1633 -1.60242C30.3664 -5.84955 21.6078 -5.23709 15.4682 -0.0853512L-88.1564 86.866C-94.296 92.0178 -96.4201 100.537 -93.4177 107.968L-42.7438 233.39C-39.7415 240.821 -32.2956 245.474 -24.3004 244.915Z" stroke="#FF9C27" stroke-opacity="0.2" stroke-width="3"/>
<path opacity="0.232323" d="M-23.6281 246.459L110.819 234.696C118.803 233.998 125.429 228.237 127.232 220.428L157.592 88.9266C159.395 81.1173 155.964 73.0353 149.094 68.9074L33.4105 -0.602389C26.5406 -4.73026 17.7939 -3.96504 11.7452 1.29307L-90.1108 89.8351C-96.1596 95.0932 -98.1347 103.648 -95.0031 111.026L-42.2698 235.258C-39.1382 242.635 -31.6123 247.157 -23.6281 246.459Z" stroke="#FF9C27" stroke-opacity="0.2" stroke-width="3"/>
<path opacity="0.242424" d="M-22.9475 247.967L110.964 233.893C118.934 233.055 125.459 227.18 127.126 219.34L155.121 87.634C156.787 79.7944 153.216 71.7735 146.275 67.7661L29.6656 0.441781C22.7247 -3.56556 13.9928 -2.6478 8.03672 2.71508L-92.0267 92.8126C-97.9828 98.1755 -99.8083 106.764 -96.5484 114.085L-41.7819 237.093C-38.522 244.415 -30.9183 248.805 -22.9475 247.967Z" stroke="#FF9C27" stroke-opacity="0.2" stroke-width="3"/>
<path opacity="0.252525" d="M-22.2587 249.43L111.077 233.058C119.032 232.081 125.453 226.093 126.982 218.226L152.615 86.3573C154.144 78.4899 150.434 70.5325 143.424 66.6469L25.9302 1.51913C18.9204 -2.36647 10.2058 -1.29646 4.34425 4.16955L-93.9035 95.787C-99.765 101.253 -101.44 109.872 -98.0532 117.136L-41.28 238.886C-37.8928 246.15 -30.2137 250.406 -22.2587 249.43Z" stroke="#FF9C27" stroke-opacity="0.2" stroke-width="3"/>
<path opacity="0.262626" d="M-21.5636 250.856L111.157 232.204C119.094 231.088 125.41 224.989 126.801 217.096L150.075 85.1073C151.466 77.2144 147.617 69.323 140.541 65.5603L22.2037 2.63938C15.1272 -1.12328 6.4326 0.0986675 0.667322 5.66614L-95.7422 98.7678C-101.507 104.335 -103.032 112.982 -99.5187 120.185L-40.766 240.646C-37.2526 247.85 -29.5003 251.972 -21.5636 250.856Z" stroke="#FF9C27" stroke-opacity="0.2" stroke-width="3"/>
<path opacity="0.272727" d="M-20.8589 252.243L111.208 231.325C119.124 230.072 125.332 223.863 126.586 215.947L147.504 83.8802C148.757 75.9642 144.771 68.1411 137.63 64.5025L18.4909 3.79804C11.3497 0.159449 2.67782 1.53295 -2.98942 7.20019L-97.5389 101.75C-103.206 107.417 -104.58 116.089 -100.941 123.23L-40.2365 242.369C-36.5979 249.51 -28.7749 253.496 -20.8589 252.243Z" stroke="#FF9C27" stroke-opacity="0.2" stroke-width="3"/>
<path opacity="0.282828" d="M-20.1481 253.586L111.227 230.421C119.119 229.029 125.219 222.714 126.334 214.777L144.9 82.6739C146.015 74.7372 141.893 66.9849 134.69 63.4714L14.7895 4.99218C7.58592 1.47878 -1.06072 3.00341 -6.62818 8.76869L-99.2965 104.73C-104.864 110.495 -106.086 119.189 -102.323 126.266L-39.6951 244.052C-35.9325 251.129 -28.041 254.978 -20.1481 253.586Z" stroke="#FF9C27" stroke-opacity="0.2" stroke-width="3"/>
<path opacity="0.292929" d="M-19.4313 254.891L111.213 229.496C119.08 227.967 125.068 221.545 126.045 213.59L142.265 81.4929C143.241 73.538 138.985 65.8588 131.721 62.4717L11.1009 6.22563C3.83715 2.83848 -4.78155 4.51379 -10.2476 10.3754L-101.014 107.711C-106.48 113.572 -107.55 122.287 -103.665 129.297L-39.1417 245.7C-35.2561 252.709 -27.2987 256.42 -19.4313 254.891Z" stroke="#FF9C27" stroke-opacity="0.2" stroke-width="3"/>
<path opacity="0.30303" d="M-18.7087 256.154L111.167 228.548C119.007 226.882 124.882 220.357 125.72 212.386L139.599 80.3358C140.437 72.365 136.047 64.7613 128.725 61.5014L7.4263 7.49586C0.104523 4.236 -8.48363 6.06147 -13.8465 12.0175L-102.692 110.691C-108.055 116.647 -108.973 125.379 -104.965 132.319L-38.5765 247.308C-34.5692 254.249 -26.5482 257.82 -18.7087 256.154Z" stroke="#FF9C27" stroke-opacity="0.2" stroke-width="3"/>
<path opacity="0.313131" d="M-17.9841 257.375L111.087 227.576C118.896 225.773 124.656 219.147 125.355 211.163L136.9 79.201C137.598 71.2168 133.076 63.6908 125.699 60.5592L3.76328 8.80072C-3.61428 5.66913 -12.1693 7.6442 -17.4274 13.693L-104.333 113.666C-109.591 119.715 -110.356 128.462 -106.228 135.332L-38.0033 248.877C-33.8755 255.747 -25.7934 259.177 -17.9841 257.375Z" stroke="#FF9C27" stroke-opacity="0.2" stroke-width="3"/>
<path opacity="0.323232" d="M-17.2538 258.555L110.975 226.584C118.751 224.645 124.395 217.919 124.954 209.924L134.173 78.0919C134.732 70.0968 130.079 62.6509 122.648 59.6485L0.116827 10.1428C-7.31426 7.1404 -15.8335 9.26448 -20.9852 15.4041L-105.932 116.64C-111.084 122.78 -111.696 131.538 -107.449 138.335L-37.4183 250.408C-33.1711 257.205 -25.0304 260.494 -17.2538 258.555Z" stroke="#FF9C27" stroke-opacity="0.2" stroke-width="3"/>
<path opacity="0.333333" d="M-16.5215 259.695L110.828 225.571C118.57 223.497 124.095 216.674 124.515 208.67L131.415 77.0085C131.834 69.0048 127.052 61.6413 119.57 58.7691L-3.51529 11.5211C-10.9976 8.6489 -19.4785 10.9213 -24.5223 17.1499L-107.493 119.61C-112.537 125.839 -112.997 134.607 -108.631 141.329L-36.8251 251.901C-32.46 258.623 -24.2631 261.769 -16.5215 259.695Z" stroke="#FF9C27" stroke-opacity="0.2" stroke-width="3"/>
<path opacity="0.343434" d="M-15.7855 260.798L110.65 224.544C118.354 222.335 123.759 215.416 124.039 207.406L128.629 75.9559C128.909 67.9461 123.999 60.6671 116.468 57.9259L-7.13002 12.9399C-14.6614 10.1987 -23.1013 12.6188 -28.0356 18.9344L-109.014 122.582C-113.948 128.897 -114.255 137.672 -109.773 144.317L-36.222 253.36C-31.7402 260.005 -23.4897 263.008 -15.7855 260.798Z" stroke="#FF9C27" stroke-opacity="0.2" stroke-width="3"/>
<path opacity="0.353535" d="M-15.0493 261.859L110.436 223.494C118.1 221.151 123.384 214.139 123.524 206.125L125.814 74.9269C125.954 66.9134 120.918 59.7212 113.34 57.1119L-10.7297 14.3913C-18.3078 11.782 -26.7042 14.349 -31.5275 20.7499L-110.497 125.546C-115.32 131.946 -115.473 140.725 -110.876 147.29L-35.6125 254.778C-31.0154 261.344 -22.7138 264.202 -15.0493 261.859Z" stroke="#FF9C27" stroke-opacity="0.2" stroke-width="3"/>
<path opacity="0.363636" d="M-14.3129 262.879L110.187 222.427C117.809 219.95 122.97 212.847 122.97 204.832L122.97 73.9253C122.97 65.9106 117.809 58.8074 110.187 56.3307L-14.3129 15.8783C-21.9353 13.4016 -30.2856 16.1148 -34.9965 22.5988L-111.942 128.505C-116.652 134.989 -116.652 143.769 -111.942 150.253L-34.9965 256.158C-30.2856 262.642 -21.9353 265.356 -14.3129 262.879Z" stroke="#FF9C27" stroke-opacity="0.2" stroke-width="3"/>
<path opacity="0.373737" d="M-13.5765 263.854L109.903 221.337C117.481 218.728 122.517 211.535 122.377 203.522L120.098 72.947C119.958 64.9336 114.674 57.9215 107.01 55.5782L-17.8785 17.396C-25.543 15.0528 -33.8447 17.9113 -38.4417 24.4765L-113.348 131.453C-117.945 138.019 -117.792 146.797 -112.968 153.198L-34.3743 257.496C-29.5509 263.897 -21.1546 266.464 -13.5765 263.854Z" stroke="#FF9C27" stroke-opacity="0.2" stroke-width="3"/>
<path opacity="0.383838" d="M-12.8418 264.797L109.584 220.237C117.116 217.496 122.025 210.217 121.746 202.207L117.199 72.0037C116.919 63.9939 111.514 57.0752 103.809 54.866L-21.4268 18.9552C-29.131 16.746 -37.3815 19.749 -41.8632 26.3934L-114.717 134.403C-119.198 141.047 -118.892 149.822 -113.958 156.138L-33.7474 258.802C-28.813 265.118 -20.3731 267.538 -12.8418 264.797Z" stroke="#FF9C27" stroke-opacity="0.2" stroke-width="3"/>
<path opacity="0.393939" d="M-12.103 265.688L109.236 219.111C116.718 216.239 121.5 208.875 121.08 200.871L114.278 71.0783C113.859 63.0746 108.333 56.2512 100.592 54.1768L-24.9509 20.5378C-32.6924 18.4635 -40.8893 21.6099 -45.2544 28.3316L-116.042 137.335C-120.407 144.056 -119.947 152.824 -114.904 159.053L-33.11 260.06C-28.0662 266.288 -19.5854 268.561 -12.103 265.688Z" stroke="#FF9C27" stroke-opacity="0.2" stroke-width="3"/>
<path opacity="0.40404" d="M-11.3733 266.548L108.845 217.977C116.276 214.975 120.929 207.529 120.37 199.534L111.325 70.1903C110.766 62.1951 105.122 55.4692 97.3456 53.5303L-28.4624 22.1628C-36.239 20.2239 -44.3797 23.513 -48.6268 30.3098L-117.336 140.267C-121.583 147.064 -120.971 155.823 -115.819 161.962L-32.4753 261.287C-27.3236 267.427 -18.8043 269.551 -11.3733 266.548Z" stroke="#FF9C27" stroke-opacity="0.2" stroke-width="3"/>
<path opacity="0.414141" d="M-10.643 267.365L108.422 216.825C115.8 213.694 120.322 206.168 119.623 198.183L108.35 69.3281C107.651 61.3439 101.891 54.7175 94.0817 52.9146L-31.9507 23.8177C-39.7599 22.0148 -47.842 25.4454 -51.9699 32.3153L-118.589 143.188C-122.717 150.058 -121.951 158.804 -116.693 164.853L-31.8337 262.473C-26.5756 268.522 -18.0206 270.497 -10.643 267.365Z" stroke="#FF9C27" stroke-opacity="0.2" stroke-width="3"/>
<path opacity="0.424242" d="M-9.91806 268.141L107.962 215.657C115.284 212.398 119.674 204.794 118.836 196.823L105.348 68.4943C104.51 60.5235 98.6353 53.9987 90.7958 52.3323L-35.4202 25.5043C-43.2598 23.8379 -51.2807 27.4091 -55.2881 34.35L-119.806 146.098C-123.813 153.039 -122.895 161.771 -117.533 167.727L-31.1909 263.619C-25.828 269.575 -17.2398 271.401 -9.91806 268.141Z" stroke="#FF9C27" stroke-opacity="0.2" stroke-width="3"/>
<path opacity="0.434343" d="M-9.19784 268.882L107.466 214.481C114.729 211.094 118.986 203.415 118.009 195.46L102.322 67.6957C101.345 59.7407 95.3571 53.3194 87.4897 51.7901L-38.8692 27.2285C-46.7367 25.6992 -54.6941 29.4098 -58.5797 36.4196L-120.986 149.004C-124.872 156.014 -123.802 164.728 -118.336 170.59L-30.5463 264.733C-25.0803 270.594 -16.4616 272.27 -9.19784 268.882Z" stroke="#FF9C27" stroke-opacity="0.2" stroke-width="3"/>
<path opacity="0.444444" d="M-8.48252 269.578L106.933 213.285C114.137 209.772 118.259 202.02 117.144 194.083L99.2721 66.9208C98.1566 58.9841 92.0575 52.6682 84.1646 51.2765L-42.2966 28.978C-50.1895 27.5863 -58.081 31.4352 -61.8436 38.5117L-122.129 151.893C-125.892 158.969 -124.67 167.664 -119.103 173.429L-29.9002 265.801C-24.3327 271.566 -15.6861 273.091 -8.48252 269.578Z" stroke="#FF9C27" stroke-opacity="0.2" stroke-width="3"/>
<path opacity="0.454545" d="M-7.77185 270.24L106.366 212.083C113.507 208.445 117.493 200.622 116.24 192.706L96.2004 66.1826C94.9466 58.2665 88.7382 52.0581 80.8222 50.8044L-45.7009 30.7651C-53.6169 29.5113 -61.44 33.4974 -65.0785 40.6385L-123.235 154.777C-126.873 161.918 -125.5 170.59 -119.833 176.257L-29.2521 266.837C-23.5849 272.505 -14.913 273.878 -7.77185 270.24Z" stroke="#FF9C27" stroke-opacity="0.2" stroke-width="3"/>
<path opacity="0.464646" d="M-7.06554 270.862L105.765 210.869C112.841 207.106 116.69 199.215 115.299 191.322L93.1084 65.4748C91.7167 57.5818 85.4009 51.4827 77.4642 50.3673L-49.0806 32.5826C-57.0173 31.4672 -64.7696 35.5891 -68.283 42.7927L-124.302 157.648C-127.815 164.852 -126.291 173.498 -120.525 179.066L-28.6019 267.835C-22.8367 273.403 -14.1421 274.625 -7.06554 270.862Z" stroke="#FF9C27" stroke-opacity="0.2" stroke-width="3"/>
<path opacity="0.474747" d="M-6.37118 271.44L105.122 209.638C112.132 205.753 115.843 197.795 114.313 189.928L89.9898 64.7935C88.4605 56.9261 82.0392 50.9381 74.0843 49.9614L-52.4421 34.4259C-60.397 33.4492 -68.0762 37.7058 -71.4634 44.9696L-125.337 160.503C-128.724 167.766 -127.049 176.385 -121.188 181.851L-27.9571 268.79C-22.0956 274.256 -13.381 275.326 -6.37118 271.44Z" stroke="#FF9C27" stroke-opacity="0.2" stroke-width="3"/>
<path opacity="0.484848" d="M-5.68083 271.983L104.447 208.4C111.388 204.393 114.959 196.372 113.293 188.532L86.8537 64.1465C85.1874 56.3069 78.6626 50.4319 70.6918 49.5942L-55.7763 36.3019C-63.7471 35.4641 -71.3508 39.8541 -74.6107 47.1759L-126.333 163.347C-129.593 170.668 -127.768 179.257 -121.812 184.619L-27.3097 269.709C-21.3537 275.072 -12.6217 275.99 -5.68083 271.983Z" stroke="#FF9C27" stroke-opacity="0.2" stroke-width="3"/>
<path opacity="0.494949" d="M-5.00003 272.488L103.734 207.154C110.604 203.026 114.035 194.944 112.232 187.135L83.6961 63.533C81.8931 55.7237 75.2668 49.9635 67.2826 49.265L-59.0876 38.2091C-67.0718 37.5105 -74.5977 42.0326 -77.7293 49.4101L-127.295 166.179C-130.426 173.556 -128.451 182.111 -122.402 187.369L-26.6653 270.592C-20.6166 275.851 -11.8699 276.616 -5.00003 272.488Z" stroke="#FF9C27" stroke-opacity="0.2" stroke-width="3"/>
<path opacity="0.50505" d="M-4.33037 272.951L102.983 205.895C109.779 201.648 113.068 193.507 111.13 185.73L80.5165 62.9482C78.5775 55.1715 71.8516 49.5278 63.8565 48.9688L-62.3763 40.1417C-70.3715 39.5826 -77.8174 44.2353 -80.8197 51.6664L-128.223 168.993C-131.225 176.424 -129.101 184.944 -122.962 190.095L-26.0255 271.434C-19.8859 276.586 -11.1272 277.199 -4.33037 272.951Z" stroke="#FF9C27" stroke-opacity="0.2" stroke-width="3"/>
<path opacity="0.515152" d="M-3.6715 273.374L102.193 204.625C108.915 200.26 112.061 192.063 109.987 184.321L77.3165 62.3932C75.2422 54.6516 68.4188 49.1261 60.4151 48.7067L-65.6412 42.1003C-73.6449 41.6809 -81.0084 46.4628 -83.8806 53.9452L-129.117 171.79C-131.989 179.273 -129.717 187.754 -123.488 192.797L-25.3898 272.236C-19.1612 277.28 -10.3932 277.739 -3.6715 273.374Z" stroke="#FF9C27" stroke-opacity="0.2" stroke-width="3"/>
<path opacity="0.525253" d="M-3.02156 273.762L101.369 203.349C108.013 198.868 111.016 190.617 108.807 182.913L74.0994 61.8734C71.8903 54.1692 64.9715 48.7637 56.9617 48.484L-68.879 44.0895C-76.8888 43.8098 -84.1677 48.7195 -86.9089 56.2509L-129.975 174.575C-132.716 182.106 -130.296 190.546 -123.981 195.48L-24.7564 273.003C-18.4407 277.937 -9.66603 278.243 -3.02156 273.762Z" stroke="#FF9C27" stroke-opacity="0.2" stroke-width="3"/>
<path opacity="0.535354" d="M-2.38383 274.119L100.506 202.075C107.071 197.478 109.93 189.176 107.587 181.512L70.8632 61.3943C68.5199 53.7298 61.5079 48.4459 53.4944 48.306L-72.0921 46.1139C-80.1055 45.974 -87.2977 51.01 -89.907 58.5881L-130.8 177.35C-133.409 184.929 -130.842 193.325 -124.442 198.148L-24.1286 273.74C-17.7277 278.563 -8.94907 278.716 -2.38383 274.119Z" stroke="#FF9C27" stroke-opacity="0.2" stroke-width="3"/>
<path opacity="0.545455" d="M-1.75426 274.429L99.6106 200.783C106.095 196.072 108.808 187.721 106.331 180.099L67.6132 60.9376C65.1365 53.3152 58.0333 48.1544 50.0186 48.1544L-75.2752 48.1544C-83.2899 48.1544 -90.3931 53.3152 -92.8697 60.9376L-131.588 180.099C-134.064 187.721 -131.351 196.072 -124.867 200.783L-23.5023 274.429C-17.0183 279.139 -8.23827 279.139 -1.75426 274.429Z" stroke="#FF9C27" stroke-opacity="0.2" stroke-width="3"/>
<path opacity="0.555556" d="M-1.13843 274.708L98.6765 199.492C105.077 194.668 107.644 186.272 105.035 178.694L64.345 60.5213C61.7356 52.9433 54.5435 47.9073 46.53 48.0471L-78.4329 50.2284C-86.4463 50.3682 -93.4584 55.6522 -95.8017 63.3167L-132.343 182.837C-134.686 190.502 -131.828 198.804 -125.262 203.401L-22.8832 275.087C-16.3179 279.684 -7.53924 279.531 -1.13843 274.708Z" stroke="#FF9C27" stroke-opacity="0.2" stroke-width="3"/>
<path opacity="0.565657" d="M-0.539522 274.944L97.7019 198.189C104.018 193.255 106.438 184.815 103.696 177.284L61.0567 60.132C58.3156 52.6007 51.0366 47.691 43.0268 47.9707L-81.5674 52.3216C-89.5772 52.6013 -96.4959 58.0068 -98.7051 65.711L-133.069 185.552C-135.278 193.256 -132.275 201.506 -125.631 205.988L-22.2743 275.703C-15.6298 280.185 -6.85517 279.878 -0.539522 274.944Z" stroke="#FF9C27" stroke-opacity="0.2" stroke-width="3"/>
<path opacity="0.575758" d="M0.0484346 275.151L96.693 196.89C102.922 191.846 105.194 183.365 102.322 175.883L57.7558 59.7843C54.8836 52.302 47.52 47.52 39.5163 47.9395L-84.6715 54.4479C-92.6752 54.8673 -99.4986 60.3928 -101.573 68.1344L-133.759 188.255C-135.834 195.997 -132.687 204.194 -125.965 208.559L-21.6698 276.289C-14.9481 280.654 -6.18014 280.195 0.0484346 275.151Z" stroke="#FF9C27" stroke-opacity="0.2" stroke-width="3"/>
<path opacity="0.585859" d="M0.620005 275.32L95.6451 195.585C101.785 190.433 103.909 181.914 100.906 174.483L54.4378 59.469C51.4355 52.0379 43.9896 47.3852 35.9944 47.9443L-87.7499 56.5973C-95.7451 57.1564 -102.471 62.8001 -104.41 70.5767L-134.419 190.939C-136.358 198.715 -133.069 206.856 -126.272 211.103L-21.0751 276.838C-14.2782 281.085 -5.51959 280.472 0.620005 275.32Z" stroke="#FF9C27" stroke-opacity="0.2" stroke-width="3"/>
<path opacity="0.59596" d="M1.17915 275.45L94.5629 194.272C100.612 189.014 102.587 180.459 99.4551 173.082L51.1081 59.1833C47.9765 51.8058 40.4506 47.2838 32.4664 47.9823L-90.7974 58.7665C-98.7815 59.465 -105.408 65.2252 -107.211 73.0345L-135.045 193.598C-136.848 201.407 -133.417 209.489 -126.547 213.617L-20.4861 277.345C-13.6162 281.473 -4.8696 280.708 1.17915 275.45Z" stroke="#FF9C27" stroke-opacity="0.2" stroke-width="3"/>
<path opacity="0.606061" d="M1.72279 275.544L93.4438 192.958C99.3998 187.595 101.225 179.007 97.9655 171.685L47.7649 58.9331C44.505 51.6113 36.9013 47.2213 28.9305 48.0591L-93.8161 60.9603C-101.787 61.798 -108.312 67.673 -109.978 75.5126L-135.639 196.238C-137.305 204.078 -133.734 212.099 -126.793 216.106L-19.9061 277.817C-12.9652 281.825 -4.23327 280.907 1.72279 275.544Z" stroke="#FF9C27" stroke-opacity="0.2" stroke-width="3"/>
<path opacity="0.616162" d="M2.24931 275.605L92.287 191.644C98.1486 186.178 99.8239 177.559 96.4367 170.295L44.4077 58.7188C41.0206 51.455 33.3414 47.1984 25.3865 48.1751L-96.8069 63.1786C-104.762 64.1553 -111.183 70.1433 -112.712 78.0107L-136.203 198.86C-137.732 206.727 -134.022 214.685 -127.012 218.57L-19.3366 278.256C-12.3268 282.141 -3.61225 281.071 2.24931 275.605Z" stroke="#FF9C27" stroke-opacity="0.2" stroke-width="3"/>
<path opacity="0.626263" d="M2.75526 275.635L91.0896 190.332C96.8549 184.764 98.3795 176.118 94.8661 168.914L41.0345 58.5429C37.5211 51.3394 29.7688 47.2174 21.8321 48.3329L-99.772 65.4232C-107.709 66.5386 -114.024 72.6377 -115.416 80.5307L-136.74 201.464C-138.132 209.357 -134.283 217.249 -127.206 221.011L-18.7811 278.662C-11.7046 282.425 -3.01001 281.203 2.75526 275.635Z" stroke="#FF9C27" stroke-opacity="0.2" stroke-width="3"/>
<path opacity="0.636364" d="M3.24681 275.626L89.8584 189.014C95.5256 183.347 96.8992 174.675 93.2606 167.534L37.6525 58.3967C34.0139 51.2556 26.1908 47.2695 18.2748 48.5233L-102.704 67.6845C-110.62 68.9383 -116.829 75.1467 -118.083 83.0627L-137.244 204.042C-138.498 211.958 -134.512 219.781 -127.37 223.42L-18.2335 279.028C-11.0924 282.666 -2.42042 281.293 3.24681 275.626Z" stroke="#FF9C27" stroke-opacity="0.2" stroke-width="3"/>
<path opacity="0.646465" d="M3.72053 275.584L88.5908 187.699C94.1582 181.934 95.3802 173.239 91.6175 166.162L34.2596 58.2878C30.4969 51.2113 22.6055 47.3624 14.7126 48.7541L-105.607 69.9697C-113.5 71.3614 -119.599 77.6772 -120.714 85.6139L-137.718 206.6C-138.833 214.537 -134.711 222.289 -127.508 225.803L-17.6971 279.361C-10.4936 282.874 -1.84693 281.35 3.72053 275.584Z" stroke="#FF9C27" stroke-opacity="0.2" stroke-width="3"/>
<path opacity="0.656566" d="M4.17673 275.513L87.2875 186.387C92.7535 180.526 93.8235 171.811 89.9379 164.801L30.8573 58.2168C26.9717 51.207 19.0143 47.4964 11.1468 49.0257L-108.478 72.2783C-116.345 73.8076 -122.333 80.2289 -123.31 88.1839L-138.161 209.139C-139.138 217.094 -134.881 224.773 -127.618 228.16L-17.1718 279.662C-9.90799 283.049 -1.28927 281.374 4.17673 275.513Z" stroke="#FF9C27" stroke-opacity="0.2" stroke-width="3"/>
<path opacity="0.666667" d="M4.6123 275.405L85.9463 185.075C91.3092 179.119 92.227 170.387 88.2196 163.446L27.4437 58.179C23.4364 51.2381 15.4154 47.6669 7.57588 49.3333L-111.32 74.6053C-119.159 76.2716 -125.034 82.7965 -125.872 90.7673L-138.578 211.653C-139.415 219.624 -135.025 227.228 -127.704 230.488L-16.6605 279.927C-9.33875 283.187 -0.750567 281.362 4.6123 275.405Z" stroke="#FF9C27" stroke-opacity="0.2" stroke-width="3"/>
<path opacity="0.676768" d="M5.02566 275.261L84.5663 183.76C89.8244 177.711 90.5896 168.965 86.4617 162.095L24.0185 58.1717C19.8906 51.3018 11.8086 47.8712 3.99932 49.6741L-114.133 76.9472C-121.943 78.7501 -127.703 85.3765 -128.401 93.3606L-138.968 214.139C-139.667 222.124 -135.145 229.649 -127.767 232.781L-16.165 280.153C-8.78743 283.285 -0.232449 281.31 5.02566 275.261Z" stroke="#FF9C27" stroke-opacity="0.2" stroke-width="3"/>
<path opacity="0.686869" d="M5.42115 275.09L83.1523 182.453C88.304 176.314 88.9165 167.555 84.6693 160.758L20.5872 58.2054C16.34 51.4086 8.19935 48.1195 0.42273 50.0584L-116.913 79.3136C-124.69 81.2525 -130.334 87.9784 -130.893 95.9736L-139.328 216.607C-139.887 224.602 -135.235 232.048 -127.804 235.051L-15.6809 280.351C-8.24981 283.353 0.269421 281.229 5.42115 275.09Z" stroke="#FF9C27" stroke-opacity="0.2" stroke-width="3"/>
<path opacity="0.69697" d="M5.79727 274.883L81.7036 181.146C86.7474 174.918 87.2069 166.15 82.8418 159.428L17.1494 58.2707C12.7843 51.549 4.58747 48.4025 -3.15413 50.4769L-119.661 81.6947C-127.402 83.7691 -132.928 90.5924 -133.347 98.5961L-139.66 219.047C-140.079 227.051 -135.297 234.414 -127.815 237.287L-15.2097 280.512C-7.72737 283.384 0.753463 281.111 5.79727 274.883Z" stroke="#FF9C27" stroke-opacity="0.2" stroke-width="3"/>
<path opacity="0.707071" d="M6.1488 274.65L80.2156 179.849C85.15 173.533 85.4564 164.758 80.9746 158.114L13.7012 58.3769C9.21943 51.7324 0.968912 48.7295 -6.73531 50.9386L-122.379 84.099C-130.084 86.3082 -135.489 93.2269 -135.769 101.237L-139.967 221.468C-140.247 229.478 -135.337 236.757 -127.806 239.498L-14.7568 280.644C-7.22544 283.386 1.21446 280.966 6.1488 274.65Z" stroke="#FF9C27" stroke-opacity="0.2" stroke-width="3"/>
<path opacity="0.717172" d="M6.48204 274.383L78.6954 178.553C83.5188 172.152 83.672 163.373 79.075 156.808L10.25 58.5157C5.65298 51.9504 -2.64869 49.0919 -10.3132 51.4352L-125.063 86.5176C-132.727 88.8609 -138.011 95.873 -138.151 103.886L-140.245 223.861C-140.385 231.874 -135.349 239.066 -127.771 241.676L-14.3157 280.742C-6.7377 283.351 1.65869 280.784 6.48204 274.383Z" stroke="#FF9C27" stroke-opacity="0.2" stroke-width="3"/>
<path opacity="0.727273" d="M6.78787 274.085L77.1345 177.261C81.8454 170.777 81.8454 161.997 77.1345 155.513L6.78785 58.6889C2.07694 52.2049 -6.27335 49.4917 -13.8958 51.9684L-127.719 88.9518C-135.341 91.4285 -140.502 98.5316 -140.502 106.546L-140.502 226.227C-140.502 234.242 -135.341 241.345 -127.719 243.822L-13.8958 280.805C-6.27334 283.282 2.07694 280.569 6.78787 274.085Z" stroke="#FF9C27" stroke-opacity="0.2" stroke-width="3"/>
<path opacity="0.737374" d="M7.07269 273.758L75.5399 175.977C80.137 169.412 79.9837 160.633 75.1604 154.232L3.32229 58.9C-1.50107 52.4992 -9.89744 49.9322 -17.4755 52.5415L-130.341 91.4042C-137.919 94.0136 -142.955 101.206 -142.815 109.219L-140.732 228.57C-140.592 236.584 -135.308 243.596 -127.644 245.939L-13.4905 280.839C-5.82603 283.182 2.47565 280.324 7.07269 273.758Z" stroke="#FF9C27" stroke-opacity="0.2" stroke-width="3"/>
<path opacity="0.747475" d="M7.33692 273.403L73.9129 174.7C78.3946 168.056 78.0882 159.281 73.1539 152.966L-0.145093 59.1471C-5.07942 52.8315 -13.5193 50.4114 -21.0507 53.1526L-132.928 93.8726C-140.459 96.6138 -145.369 103.893 -145.089 111.903L-140.934 230.887C-140.654 238.897 -135.249 245.816 -127.545 248.025L-13.0995 280.842C-5.39534 283.051 2.85517 280.048 7.33692 273.403Z" stroke="#FF9C27" stroke-opacity="0.2" stroke-width="3"/>
<path opacity="0.757576" d="M7.57541 273.017L72.2488 173.428C76.6139 166.707 76.1544 157.939 71.1106 151.71L-3.61832 59.4277C-8.66212 53.1991 -17.143 50.9266 -24.6253 53.7988L-135.484 96.3534C-142.966 99.2256 -147.748 106.589 -147.329 114.593L-141.114 233.175C-140.694 241.179 -135.169 248.003 -127.427 250.077L-12.7282 280.81C-4.98656 282.885 3.2103 279.738 7.57541 273.017Z" stroke="#FF9C27" stroke-opacity="0.2" stroke-width="3"/>
<path opacity="0.767677" d="M7.79053 272.6L70.5507 172.163C74.7979 165.366 74.1854 156.607 69.0337 150.468L-7.09393 59.7425C-12.2457 53.6029 -20.7649 51.4788 -28.196 54.4812L-138.006 98.8471C-145.437 101.849 -150.089 109.295 -149.53 117.291L-141.269 235.436C-140.71 243.431 -135.066 250.157 -127.289 252.096L-12.3739 280.747C-4.59732 282.686 3.54338 279.397 7.79053 272.6Z" stroke="#FF9C27" stroke-opacity="0.2" stroke-width="3"/>
<path opacity="0.777778" d="M7.97736 272.155L68.8146 170.905C72.9424 164.035 72.1772 155.288 66.9191 149.24L-10.5758 60.0921C-15.8339 54.0433 -24.3888 52.0683 -31.7664 55.1999L-140.498 101.354C-147.876 104.485 -152.398 112.011 -151.699 119.995L-141.404 237.668C-140.706 245.652 -134.945 252.278 -127.136 254.081L-12.0418 280.653C-4.23254 282.456 3.8495 279.025 7.97736 272.155Z" stroke="#FF9C27" stroke-opacity="0.2" stroke-width="3"/>
<path opacity="0.787879" d="M8.14189 271.687L67.0468 169.661C71.0542 162.72 70.1364 153.988 64.7735 148.032L-14.0567 60.4821C-19.4195 54.526 -28.0077 52.7005 -35.3295 55.9604L-142.954 103.878C-150.276 107.138 -154.666 114.742 -153.828 122.712L-141.514 239.877C-140.676 247.848 -134.801 254.372 -126.961 256.039L-11.726 280.533C-3.88641 282.199 4.13454 278.628 8.14189 271.687Z" stroke="#FF9C27" stroke-opacity="0.2" stroke-width="3"/>
<path opacity="0.79798" d="M8.27742 271.197L65.2416 168.431C69.1272 161.421 68.0572 152.706 62.5912 146.845L-17.5423 60.9121C-23.0083 55.0505 -31.627 53.3752 -38.8908 56.7624L-145.38 106.419C-152.644 109.806 -156.901 117.486 -155.924 125.44L-141.604 242.063C-140.628 250.018 -134.64 256.439 -126.772 257.968L-11.433 280.388C-3.56559 281.917 4.39182 278.207 8.27742 271.197Z" stroke="#FF9C27" stroke-opacity="0.2" stroke-width="3"/>
<path opacity="0.808081" d="M8.39178 270.672L63.4074 167.203C67.17 160.126 65.9481 151.432 60.3806 145.666L-21.0238 61.3697C-26.5912 55.6044 -35.2378 54.0797 -42.4414 57.5932L-147.768 108.964C-154.971 112.478 -159.093 120.23 -157.978 128.167L-141.669 244.212C-140.553 252.149 -134.454 258.465 -126.561 259.857L-11.1552 280.206C-3.26231 281.598 4.62912 277.749 8.39178 270.672Z" stroke="#FF9C27" stroke-opacity="0.2" stroke-width="3"/>
<path opacity="0.818182" d="M8.47632 270.121L61.5362 165.985C65.1748 158.844 63.8013 150.172 58.134 144.505L-24.5087 61.8619C-30.1759 56.1946 -38.8478 54.8211 -45.989 58.4597L-150.125 111.52C-157.266 115.158 -161.252 122.981 -159.998 130.897L-141.715 246.333C-140.461 254.249 -134.253 260.457 -126.337 261.711L-10.9014 279.994C-2.98533 281.248 4.83773 277.262 8.47632 270.121Z" stroke="#FF9C27" stroke-opacity="0.2" stroke-width="3"/>
<path opacity="0.828283" d="M8.53354 269.546L59.6312 164.78C63.1446 157.577 61.62 148.93 55.8547 143.363L-27.9934 62.3916C-33.7587 56.8242 -42.4533 55.6022 -49.5298 59.3649L-152.448 114.088C-159.525 117.85 -163.374 125.742 -161.982 133.635L-141.741 248.426C-140.35 256.319 -134.034 262.418 -126.097 263.534L-10.6689 279.756C-2.73219 280.872 5.02014 276.75 8.53354 269.546Z" stroke="#FF9C27" stroke-opacity="0.2" stroke-width="3"/>
<path opacity="0.838384" d="M8.56404 268.948L57.6937 163.59C61.0809 156.326 59.4056 147.707 53.544 142.241L-31.4764 62.9583C-37.338 57.4922 -46.0526 56.4222 -53.0624 60.3078L-154.738 116.667C-161.747 120.553 -165.458 128.51 -163.929 136.378L-141.747 250.493C-140.218 258.36 -133.796 264.348 -125.841 265.325L-10.4572 279.492C-2.50228 280.469 5.1769 276.212 8.56404 268.948Z" stroke="#FF9C27" stroke-opacity="0.2" stroke-width="3"/>
<path opacity="0.848485" d="M8.56833 268.323L55.7249 162.408C58.9848 155.086 57.1593 146.498 51.2032 141.135L-34.9561 63.5567C-40.9122 58.1938 -49.6441 57.2761 -56.5851 61.2834L-156.991 119.253C-163.932 123.26 -167.503 131.281 -165.837 139.121L-141.732 252.526C-140.065 260.366 -133.541 266.241 -125.57 267.078L-10.2661 279.197C-2.29528 280.035 5.30846 275.645 8.56833 268.323Z" stroke="#FF9C27" stroke-opacity="0.2" stroke-width="3"/>
<path opacity="0.858586" d="M8.54513 267.681L53.7242 161.246C56.8558 153.868 54.8807 145.313 48.832 140.055L-38.4329 64.197C-44.4816 58.9389 -53.2282 58.1737 -60.0982 62.3016L-159.21 121.854C-166.08 125.982 -169.51 134.064 -167.708 141.873L-141.697 254.537C-139.894 262.346 -133.268 268.106 -125.284 268.805L-10.0966 278.882C-2.11238 279.581 5.41355 275.059 8.54513 267.681Z" stroke="#FF9C27" stroke-opacity="0.2" stroke-width="3"/>
<path opacity="0.868687" d="M8.48948 267.007L51.6873 160.088C54.6897 152.657 52.5656 144.138 46.426 138.986L-41.9106 64.863C-48.0502 59.7112 -56.8088 59.0988 -63.6057 63.3459L-161.399 124.454C-168.195 128.701 -171.484 136.842 -169.546 144.618L-141.648 256.508C-139.709 264.285 -132.983 269.928 -124.988 270.487L-9.95392 278.531C-1.95875 279.09 5.48713 274.438 8.48948 267.007Z" stroke="#FF9C27" stroke-opacity="0.2" stroke-width="3"/>
<path opacity="0.878788" d="M8.40773 266.313L49.6212 158.948C52.4935 151.466 50.221 142.985 43.9924 137.941L-45.382 65.5669C-51.6106 60.5231 -60.3786 60.0636 -67.1002 64.4287L-163.55 127.064C-170.272 131.429 -173.418 139.626 -171.344 147.368L-141.579 258.452C-139.505 266.194 -132.681 271.719 -124.678 272.139L-9.83175 278.158C-1.82804 278.577 5.53552 273.795 8.40773 266.313Z" stroke="#FF9C27" stroke-opacity="0.2" stroke-width="3"/>
<path opacity="0.888889" d="M8.29291 265.603L47.5197 157.828C50.2609 150.296 47.8408 141.857 41.5251 136.922L-48.853 66.3111C-55.1687 61.3767 -63.9434 61.0703 -70.5878 65.5521L-165.671 129.687C-172.316 134.169 -175.319 142.419 -173.11 150.123L-141.496 260.372C-139.287 268.076 -132.369 273.482 -124.359 273.761L-9.73703 277.764C-1.72723 278.044 5.55172 273.134 8.29291 265.603Z" stroke="#FF9C27" stroke-opacity="0.2" stroke-width="3"/>
<path opacity="0.89899" d="M8.1532 264.869L45.3916 156.721C48.0009 149.143 45.4339 140.747 39.0331 135.924L-52.3146 67.0881C-58.7155 62.2647 -67.4941 62.1115 -74.0594 66.7085L-167.754 132.314C-174.319 136.911 -177.178 145.213 -174.834 152.877L-141.393 262.259C-139.05 269.924 -132.038 275.208 -124.024 275.347L-9.66177 277.344C-1.64831 277.484 5.54387 272.447 8.1532 264.869Z" stroke="#FF9C27" stroke-opacity="0.2" stroke-width="3"/>
<path opacity="0.909091" d="M7.98181 264.106L43.2307 155.621C45.7074 147.999 42.9942 139.648 36.5102 134.937L-55.7726 67.89C-62.2567 63.1791 -71.0367 63.1791 -77.5207 67.89L-169.804 134.937C-176.288 139.648 -179.001 147.999 -176.524 155.621L-141.275 264.106C-138.799 271.729 -131.695 276.889 -123.681 276.889L-9.61276 276.889C-1.59808 276.889 5.50514 271.729 7.98181 264.106Z" stroke="#FF9C27" stroke-opacity="0.2" stroke-width="3"/>
<path opacity="0.919192" d="M7.77931 263.332L41.0384 154.546C43.3816 146.882 40.5232 138.58 33.9579 133.983L-59.2257 68.7354C-65.7909 64.1384 -74.5696 64.2916 -80.9704 69.115L-171.82 137.575C-178.221 142.398 -180.788 150.795 -178.179 158.373L-141.143 265.931C-138.534 273.509 -131.342 278.545 -123.328 278.406L-9.58945 276.42C-1.57598 276.28 5.43604 270.996 7.77931 263.332Z" stroke="#FF9C27" stroke-opacity="0.2" stroke-width="3"/>
<path opacity="0.929293" d="M7.5483 262.536L38.8178 153.487C41.0269 145.782 38.024 137.532 31.3795 133.05L-62.67 69.6129C-69.3145 65.1311 -78.0892 65.4376 -84.4048 70.3719L-173.8 140.215C-180.116 145.149 -182.536 153.589 -179.795 161.121L-140.994 267.723C-138.253 275.255 -130.974 280.164 -122.965 279.885L-9.58941 275.926C-1.57961 275.646 5.33915 270.24 7.5483 262.536Z" stroke="#FF9C27" stroke-opacity="0.2" stroke-width="3"/>
<path opacity="0.939394" d="M7.28557 261.719L36.5664 152.441C38.6408 144.699 35.4943 136.503 28.7726 132.138L-66.1083 70.5212C-72.83 66.1561 -81.5979 66.6156 -87.8265 71.6594L-175.747 142.856C-181.976 147.9 -184.248 156.381 -181.376 163.863L-140.833 269.481C-137.96 276.964 -130.597 281.746 -122.593 281.326L-9.61582 275.405C-1.61212 274.986 5.21122 269.46 7.28557 261.719Z" stroke="#FF9C27" stroke-opacity="0.2" stroke-width="3"/>
<path opacity="0.949495" d="M6.98822 260.886L34.282 151.417C36.2209 143.64 32.9319 135.499 26.135 131.252L-69.5423 71.4665C-76.3391 67.2194 -85.0977 67.8318 -91.2374 72.9836L-177.663 145.503C-183.803 150.655 -185.927 159.174 -182.924 166.605L-140.661 271.211C-137.659 278.642 -130.213 283.295 -122.218 282.735L-9.67177 274.865C-1.6766 274.306 5.04928 268.663 6.98822 260.886Z" stroke="#FF9C27" stroke-opacity="0.2" stroke-width="3"/>
<path opacity="0.959596" d="M6.66434 260.031L31.9733 150.406C33.7762 142.597 30.3456 134.515 23.4756 130.387L-72.9632 72.4404C-79.8331 68.3126 -88.5797 69.0778 -94.6285 74.3359L-179.54 148.148C-185.589 153.406 -187.564 161.961 -184.432 169.339L-140.471 272.904C-137.34 280.281 -129.814 284.803 -121.83 284.105L-9.74915 274.299C-1.76496 273.601 4.86142 267.84 6.66434 260.031Z" stroke="#FF9C27" stroke-opacity="0.2" stroke-width="3"/>
<path opacity="0.969697" d="M6.30709 259.163L29.6341 149.417C31.3005 141.578 27.7293 133.557 20.7884 129.55L-76.377 73.4512C-83.3179 69.4439 -92.0498 70.3616 -98.0059 75.7245L-181.384 150.799C-187.341 156.162 -189.166 164.75 -185.906 172.072L-140.272 274.569C-137.012 281.891 -129.408 286.281 -121.437 285.443L-9.85486 273.715C-1.88408 272.877 4.64073 267.002 6.30709 259.163Z" stroke="#FF9C27" stroke-opacity="0.2" stroke-width="3"/>
<path opacity="0.979798" d="M5.92102 258.28L27.2697 148.451C28.799 140.583 25.0884 132.626 18.0786 128.74L-79.7784 74.4974C-86.7882 70.6118 -95.5028 71.6818 -101.364 77.1478L-183.192 153.453C-189.053 158.919 -190.729 167.538 -187.342 174.802L-140.057 276.204C-136.67 283.468 -128.991 287.725 -121.036 286.748L-9.98451 273.112C-2.02956 272.136 4.39174 266.148 5.92102 258.28Z" stroke="#FF9C27" stroke-opacity="0.2" stroke-width="3"/>
<path opacity="0.989899" d="M5.49733 257.376L24.8718 147.498C26.2635 139.605 22.4146 131.714 15.3381 127.951L-83.1752 75.5706C-90.2518 71.808 -98.9464 73.0299 -104.712 78.5974L-184.971 156.103C-190.736 161.67 -192.261 170.317 -188.747 177.52L-139.837 277.802C-136.323 285.005 -128.571 289.127 -120.634 288.012L-10.1469 272.484C-2.21025 271.368 4.10559 265.269 5.49733 257.376Z" stroke="#FF9C27" stroke-opacity="0.2" stroke-width="3"/>
<path d="M5.04425 256.458L22.4494 146.566C23.7031 138.65 19.7171 130.827 12.576 127.189L-86.5587 76.6771C-93.6999 73.0385 -102.372 74.412 -108.039 80.0793L-186.713 158.753C-192.38 164.42 -193.754 173.092 -190.115 180.233L-139.603 279.368C-135.965 286.509 -128.142 290.495 -120.226 289.241L-10.3339 271.836C-2.41793 270.583 3.79048 264.374 5.04425 256.458Z" stroke="#FF9C27" stroke-opacity="0.2" stroke-width="3"/>
</g>
</g>
<defs>
<clipPath id="clip0_249_3935">
<rect width="558" height="96" fill="white"/>
</clipPath>
</defs>
</svg>
