<svg width="33" height="33" viewBox="0 0 33 33" fill="none" xmlns="http://www.w3.org/2000/svg">
<path d="M24.039 22.4432L18.855 21.25H13.23L8.04598 22.4432C5.77598 22.9656 4.16748 24.9864 4.16748 27.3158V31.875H27.9175V27.3158C27.9175 24.9864 26.309 22.9656 24.039 22.4432Z" fill="#6E83B7"/>
<path d="M20.27 21.5757L18.855 21.25H13.23L11.815 21.5757L13.1675 26.4375L16.0425 24.0625L18.9175 26.4375L20.27 21.5757Z" fill="#EDEFF1"/>
<path d="M9.41748 29.375H8.16748V31.875H9.41748V29.375Z" fill="#466089"/>
<path d="M23.9175 29.375H22.6675V31.875H23.9175V29.375Z" fill="#466089"/>
<path d="M18.855 21.25V18.3125H13.23V21.25C13.23 22.8033 14.4892 24.0625 16.0425 24.0625C17.5958 24.0625 18.855 22.8033 18.855 21.25Z" fill="#FFD3B3"/>
<path d="M16.0425 20.2419C17.0403 20.2419 17.9902 20.0358 18.855 19.6671V18.25H13.23V19.6671C14.0947 20.0358 15.0447 20.2419 16.0425 20.2419Z" fill="#FCB98B"/>
<path d="M22.605 9.625H21.855V12.875H22.605C23.0882 12.875 23.48 12.4832 23.48 12V10.5C23.48 10.0168 23.0882 9.625 22.605 9.625Z" fill="#FFD3B3"/>
<path d="M9.47998 9.625H10.23V12.875H9.47998C8.99673 12.875 8.60498 12.4832 8.60498 12V10.5C8.60498 10.0168 8.99673 9.625 9.47998 9.625Z" fill="#FFD3B3"/>
<path d="M10.2361 7.08203V13.2756C10.2361 16.4824 12.8357 19.082 16.0425 19.082C19.2493 19.082 21.849 16.4824 21.849 13.2756V7.08203H10.2361Z" fill="#FFD3B3"/>
<path d="M10.23 7.07031V13.2703C10.23 16.4805 12.8323 19.0828 16.0425 19.0828C19.2526 19.0828 21.855 16.4805 21.855 13.2703V7.07031H10.23Z" fill="#FFD3B3"/>
<path d="M17.1232 14.7128C17.0093 14.6328 16.8735 14.5898 16.7343 14.5898H16.6623C16.4829 14.5898 16.3109 14.6611 16.184 14.788C16.1234 14.8485 16.076 14.9195 16.0425 14.9966C16.009 14.9196 15.9615 14.8485 15.901 14.788C15.7741 14.6611 15.6021 14.5898 15.4227 14.5898H15.3507C15.2115 14.5898 15.0757 14.6328 14.9618 14.7128L13.0425 16.0616H15.3632C15.6693 16.0616 15.9315 15.8747 16.0425 15.6088C16.1534 15.8747 16.4157 16.0616 16.7217 16.0616H19.0425L17.1232 14.7128Z" fill="#6E83B7"/>
<path d="M19.23 3L19.205 2.96244C18.4397 1.8145 17.1513 1.125 15.7716 1.125C12.2969 1.125 9.47998 3.94187 9.47998 7.41663V9.625H10.23V12.875L11.1675 9.5625C14.723 9.4605 17.7191 8.908 19.23 7.125C19.23 7.125 19.7747 8.83431 20.98 9.5625L21.855 12.875V9.625H22.605V7.05737C22.605 5.06825 21.1859 3.36219 19.23 3Z" fill="#6E83B7"/>
</svg>
