<svg width="60" height="60" viewBox="0 0 60 60" fill="none" xmlns="http://www.w3.org/2000/svg">
<path d="M31.9892 6.49646C33.5994 8.1066 34.8377 9.881 35.3867 11.3644C35.5555 11.8206 35.3226 12.3271 34.8665 12.496C34.4105 12.6647 33.9037 12.4318 33.735 11.9757C33.2779 10.7404 32.1597 9.1576 30.7439 7.74178C29.328 6.32609 27.7452 5.20781 26.5098 4.75071C26.0537 4.58186 25.8207 4.07521 25.9896 3.61916C26.1584 3.163 26.6651 2.93004 27.1211 3.09901C28.6046 3.64793 30.379 4.88633 31.9892 6.49646Z" fill="url(#paint0_linear_1437_32896)"/>
<path d="M21.4419 6.49646C19.8318 8.1066 15.2045 13.8733 14.6556 15.3567C14.4867 15.8129 14.7197 16.3194 15.1757 16.4883C15.6318 16.657 16.1386 16.4241 16.3073 15.968C16.7644 14.7327 21.2714 9.1576 22.6873 7.74178C24.1031 6.32597 25.6858 5.20781 26.9212 4.75071C27.3773 4.58186 27.6103 4.07521 27.4415 3.61916C27.2726 3.163 26.766 2.93004 26.3099 3.09901C24.8265 3.64793 23.0521 4.88633 21.4419 6.49646Z" fill="url(#paint1_linear_1437_32896)"/>
<path d="M35.2492 11.0227H33.2895C32.7177 9.98239 31.816 8.81409 30.744 7.74208C29.4054 6.40352 27.9177 5.33151 26.7154 4.83131C26.6461 4.80196 26.5768 4.77495 26.5099 4.7503C26.0532 4.58122 25.8207 4.07515 25.9897 3.61957C26.1083 3.29668 26.396 3.0865 26.7154 3.05127C26.8481 3.03484 26.9878 3.0501 27.1216 3.09942C28.6046 3.64775 30.3788 4.8865 31.9886 6.49628C33.4774 7.98395 34.6469 9.6137 35.2492 11.0227Z" fill="url(#paint2_linear_1437_32896)"/>
<path d="M26.9211 4.7503C26.8542 4.77495 26.7849 4.80196 26.7156 4.83131C25.5133 5.33151 24.0256 6.40352 22.6871 7.74208C22.1035 8.32564 20.9916 9.6184 19.8573 11.0227H17.6123C19.0495 9.17926 20.6299 7.30881 21.4424 6.49628C23.0522 4.8865 24.8264 3.64775 26.3105 3.09942C26.4444 3.0501 26.5829 3.03484 26.7156 3.05127C27.035 3.0865 27.3227 3.29668 27.4413 3.61957C27.6103 4.07515 27.3779 4.58122 26.9211 4.7503Z" fill="url(#paint3_linear_1437_32896)"/>
<path d="M20.4961 7.39268C18.458 7.39268 16.7998 5.73452 16.7998 3.6964C16.7998 1.65828 18.458 0 20.4961 0C22.2908 0 25.2739 2.52669 25.8537 3.03311L26.6129 3.69628L25.8537 4.35945C25.274 4.86599 22.2908 7.39268 20.4961 7.39268ZM20.4961 1.76125C19.4291 1.76125 18.5611 2.62931 18.5611 3.69628C18.5611 4.76325 19.4291 5.63131 20.4961 5.63131C20.9986 5.63131 22.3636 4.90767 23.8948 3.69816C22.5936 2.67687 21.1178 1.76125 20.4961 1.76125Z" fill="url(#paint4_linear_1437_32896)"/>
<path d="M27.3725 4.35957L26.6133 3.6964L27.3725 3.03323C27.9523 2.52669 30.9355 0 32.7302 0C34.7683 0 36.4265 1.65816 36.4265 3.69628C36.4265 5.7344 34.7683 7.39256 32.7302 7.39256C30.9355 7.39268 27.9523 4.86599 27.3725 4.35957ZM29.3315 3.69828C30.8627 4.90791 32.2277 5.63143 32.7302 5.63143C33.7972 5.63143 34.6653 4.76337 34.6653 3.6964C34.6653 2.62943 33.7972 1.76137 32.7302 1.76137C32.1085 1.76125 30.6328 2.67687 29.3315 3.69828Z" fill="url(#paint5_linear_1437_32896)"/>
<path d="M27.3725 3.03311L26.6133 3.69628L27.3725 4.35945C27.9523 4.86587 30.9355 7.39256 32.7301 7.39256C33.3045 7.39256 33.8486 7.26082 34.334 7.0261V4.77781C33.9859 5.29245 33.3968 5.63143 32.7301 5.63143C32.2276 5.63143 30.8626 4.90779 29.3314 3.69828C30.6327 2.67687 32.1084 1.76125 32.7301 1.76125C33.3968 1.76125 33.9859 2.10023 34.334 2.61487V0.366458C33.8486 0.131742 33.3045 0 32.7301 0C30.9355 0 27.9523 2.52669 27.3725 3.03311Z" fill="url(#paint6_linear_1437_32896)"/>
<path d="M26.613 5.8568C27.8064 5.8568 28.7738 4.88937 28.7738 3.69598C28.7738 2.50259 27.8064 1.53516 26.613 1.53516C25.4196 1.53516 24.4521 2.50259 24.4521 3.69598C24.4521 4.88937 25.4196 5.8568 26.613 5.8568Z" fill="url(#paint7_linear_1437_32896)"/>
<path d="M12.9642 19.7266L12.0864 21.7479C10.9409 24.3855 9.35789 26.8106 7.40407 28.9205L1.61449 35.1732C0.585797 36.2842 0.239652 37.7264 0.482705 39.059C0.733742 40.435 0.64885 41.8474 0.307519 43.2039C-0.10978 44.8623 -0.275573 47.1685 0.960005 49.397C2.31171 51.8349 3.99452 54.1932 6.75406 55.3917L14.9764 58.9627C20.4202 61.3269 26.8225 58.9875 29.3165 53.6019C30.6054 50.8187 30.6011 47.7819 29.5642 45.1531C29.5538 45.1269 29.5418 45.1014 29.5313 45.0752C29.9145 44.308 30.1897 43.4658 30.3303 42.5613L31.1032 37.5889C31.4375 35.4383 32.0456 33.3394 32.9126 31.3431L33.9915 28.859L12.9642 19.7266Z" fill="url(#paint8_linear_1437_32896)"/>
<path d="M12.9642 19.7266L12.0864 21.7479C10.9409 24.3855 9.35789 26.8106 7.40407 28.9205L1.61449 35.1732C0.585797 36.2842 0.239652 37.7264 0.482705 39.059C0.733742 40.435 0.64885 41.8474 0.307519 43.2039C-0.10978 44.8623 -0.275573 47.1685 0.960005 49.397C2.31171 51.8349 3.99452 54.1932 6.75406 55.3917L14.9764 58.9627C20.4202 61.3269 26.8225 58.9875 29.3165 53.6019C30.6054 50.8187 30.6011 47.7819 29.5642 45.1531C29.5538 45.1269 29.5418 45.1014 29.5313 45.0752C29.9145 44.308 30.1897 43.4658 30.3303 42.5613L31.1032 37.5889C31.4375 35.4383 32.0456 33.3394 32.9126 31.3431L33.9915 28.859L12.9642 19.7266Z" fill="url(#paint9_linear_1437_32896)"/>
<path d="M30.1811 27.2041L24.5898 40.0784C28.0927 42.0789 29.5313 45.0752 29.5313 45.0752C29.9146 44.308 30.1898 43.4657 30.3303 42.5613L31.1033 37.5889C31.4376 35.4383 32.0457 33.3394 32.9127 31.343L33.9915 28.859L30.1811 27.2041Z" fill="url(#paint10_linear_1437_32896)"/>
<path d="M6.67383 29.7095L7.4044 28.9205C9.35809 26.8106 10.9412 24.3855 12.0867 21.7479L12.9646 19.7266L33.9918 28.8587L32.913 31.3427C32.046 33.339 31.438 35.438 31.1036 37.5886L30.7059 40.1465L6.67383 29.7095Z" fill="url(#paint11_linear_1437_32896)"/>
<path d="M36.0323 23.8889L15.2022 14.8424C13.9412 14.2948 12.475 14.873 11.9274 16.134L10.1637 20.1952C9.61605 21.4561 10.1943 22.9223 11.4553 23.4699L32.2854 32.5164C33.5463 33.0641 35.0125 32.4858 35.5601 31.2249L37.3238 27.1636C37.8715 25.9026 37.2932 24.4365 36.0323 23.8889Z" fill="url(#paint12_linear_1437_32896)"/>
<path d="M36.0323 23.8889L15.2022 14.8424C13.9412 14.2948 12.475 14.873 11.9274 16.134L10.1637 20.1952C9.61605 21.4561 10.1943 22.9223 11.4553 23.4699L32.2854 32.5164C33.5463 33.0641 35.0125 32.4858 35.5601 31.2249L37.3238 27.1636C37.8715 25.9026 37.2932 24.4365 36.0323 23.8889Z" fill="url(#paint13_linear_1437_32896)"/>
<path d="M43.5643 43.9699L55.4118 32.1224C57.6178 29.9164 56.9839 26.1925 54.1721 24.8407L46.4923 21.1484C43.9006 19.9024 41.5382 18.2273 39.5049 16.194L37.9467 14.6357L21.7363 30.8458L23.6514 32.7609C25.1904 34.2999 26.5261 36.0293 27.6262 37.9073L30.1697 42.2494C32.9939 47.0707 39.6133 47.9209 43.5643 43.9699Z" fill="url(#paint14_linear_1437_32896)"/>
<path d="M56.809 30.13C55.9057 29.2267 54.8819 28.5183 53.7892 28.0049C53.3463 28.6799 52.8274 29.3204 52.2339 29.9138C48.7145 33.4333 43.5548 34.3131 39.2158 32.5526L34.9747 36.7936C32.8802 38.8881 31.833 41.6336 31.833 44.3795C31.833 47.1243 32.8802 49.8698 34.9747 51.9643C39.2289 56.2184 46.1255 56.2184 50.3797 51.9643L56.8089 45.5351C58.9363 43.4075 59.9994 40.6199 59.9994 37.8324C59.9994 35.0448 58.9357 32.2568 56.809 30.13Z" fill="url(#paint15_linear_1437_32896)"/>
<path d="M35.2436 29.9138C39.9354 34.6056 47.5425 34.6056 52.2344 29.9138C53.5492 28.5989 54.4953 27.0551 55.0733 25.4107C54.8038 25.1922 54.5034 24.9999 54.1724 24.8408L46.4926 21.1485C43.9656 19.9336 41.6576 18.3098 39.659 16.3447L32.0039 23.9998C32.4784 26.1672 33.5583 28.2285 35.2436 29.9138Z" fill="url(#paint16_linear_1437_32896)"/>
<path d="M47.4613 21.6143L46.4923 21.1484C43.9006 19.9024 41.5382 18.2273 39.5049 16.194L37.9467 14.6357L21.7363 30.8458L23.6514 32.7609C25.1904 34.2999 26.5261 36.0293 27.6262 37.9073L28.9346 40.1409L47.4613 21.6143Z" fill="url(#paint17_linear_1437_32896)"/>
<path d="M45.2401 30.0075L49.484 25.7635C51.1805 24.0671 53.9311 24.0671 55.6275 25.7635C57.3239 27.46 57.3239 30.2106 55.6275 31.907L51.3836 36.1509C49.6871 37.8474 46.9365 37.8474 45.2401 36.1509C43.5437 34.4545 43.5437 31.7039 45.2401 30.0075Z" fill="url(#paint18_linear_1437_32896)"/>
<path d="M31.085 26.6924L33.792 23.9854L36.189 26.3823C36.7329 26.9263 36.7329 27.8082 36.189 28.3522L35.4517 29.0895C34.9077 29.6335 34.0258 29.6335 33.4818 29.0895L31.085 26.6924Z" fill="url(#paint19_linear_1437_32896)"/>
<path d="M18.0142 26.9719L34.0725 10.9136C35.0446 9.94155 36.6207 9.94155 37.5928 10.9136L40.7236 14.0444C41.6957 15.0165 41.6957 16.5926 40.7236 17.5647L24.6653 33.6229C23.6932 34.595 22.1171 34.595 21.145 33.6229L18.0142 30.4921C17.0421 29.52 17.0421 27.944 18.0142 26.9719Z" fill="url(#paint20_linear_1437_32896)"/>
<path d="M25.3682 19.6182L18.0234 26.9629L24.6745 33.614L32.0193 26.2691L25.3682 19.6182Z" fill="url(#paint21_linear_1437_32896)"/>
<path d="M24.0972 20.8884L34.072 10.9136C35.0441 9.94155 36.6202 9.94155 37.5923 10.9136L40.7231 14.0444C41.6952 15.0165 41.6952 16.5926 40.7231 17.5647L30.7483 27.5395C29.7762 28.5116 28.2001 28.5116 27.228 27.5395L24.0972 24.4087C23.1251 23.4365 23.1251 21.8605 24.0972 20.8884Z" fill="url(#paint22_linear_1437_32896)"/>
<path d="M29.93 18.6041L37.1549 11.3792C37.7725 10.7616 38.7738 10.7616 39.3916 11.3792L40.2575 12.2452C40.8751 12.8628 40.8751 13.8641 40.2575 14.4818L33.0326 21.7067C32.415 22.3243 31.4137 22.3243 30.796 21.7067L29.93 20.8408C29.3124 20.2231 29.3124 19.2217 29.93 18.6041Z" fill="url(#paint23_linear_1437_32896)"/>
<defs>
<linearGradient id="paint0_linear_1437_32896" x1="32.21" y1="6.27572" x2="30.5345" y2="7.95114" gradientUnits="userSpaceOnUse">
<stop stop-color="#F9F5F3"/>
<stop offset="1" stop-color="#E1D3CE"/>
</linearGradient>
<linearGradient id="paint1_linear_1437_32896" x1="19.3412" y1="8.08629" x2="21.2794" y2="10.0246" gradientUnits="userSpaceOnUse">
<stop stop-color="#F9F5F3"/>
<stop offset="1" stop-color="#E1D3CE"/>
</linearGradient>
<linearGradient id="paint2_linear_1437_32896" x1="30.5919" y1="10.2149" x2="30.5919" y2="5.12732" gradientUnits="userSpaceOnUse">
<stop stop-color="#9E9797" stop-opacity="0"/>
<stop offset="0.3107" stop-color="#979090" stop-opacity="0.311"/>
<stop offset="0.7858" stop-color="#817A7A" stop-opacity="0.786"/>
<stop offset="1" stop-color="#766E6E"/>
</linearGradient>
<linearGradient id="paint3_linear_1437_32896" x1="22.5544" y1="10.2149" x2="22.5544" y2="5.12732" gradientUnits="userSpaceOnUse">
<stop stop-color="#9E9797" stop-opacity="0"/>
<stop offset="0.3107" stop-color="#979090" stop-opacity="0.311"/>
<stop offset="0.7858" stop-color="#817A7A" stop-opacity="0.786"/>
<stop offset="1" stop-color="#766E6E"/>
</linearGradient>
<linearGradient id="paint4_linear_1437_32896" x1="20.4551" y1="0.981957" x2="22.3338" y2="5.60031" gradientUnits="userSpaceOnUse">
<stop stop-color="#F9F5F3"/>
<stop offset="1" stop-color="#E1D3CE"/>
</linearGradient>
<linearGradient id="paint5_linear_1437_32896" x1="30.5386" y1="1.14247" x2="32.9653" y2="6.46544" gradientUnits="userSpaceOnUse">
<stop stop-color="#F9F5F3"/>
<stop offset="1" stop-color="#E1D3CE"/>
</linearGradient>
<linearGradient id="paint6_linear_1437_32896" x1="31.1743" y1="3.6964" x2="27.7319" y2="3.6964" gradientUnits="userSpaceOnUse">
<stop stop-color="#9E9797" stop-opacity="0"/>
<stop offset="0.3107" stop-color="#979090" stop-opacity="0.311"/>
<stop offset="0.7858" stop-color="#817A7A" stop-opacity="0.786"/>
<stop offset="1" stop-color="#766E6E"/>
</linearGradient>
<linearGradient id="paint7_linear_1437_32896" x1="25.8123" y1="1.93977" x2="27.2451" y2="5.0829" gradientUnits="userSpaceOnUse">
<stop stop-color="#F9F5F3"/>
<stop offset="1" stop-color="#E1D3CE"/>
</linearGradient>
<linearGradient id="paint8_linear_1437_32896" x1="10.8225" y1="32.6121" x2="26.0658" y2="48.635" gradientUnits="userSpaceOnUse">
<stop stop-color="#FD4755"/>
<stop offset="1" stop-color="#A72B2B"/>
</linearGradient>
<linearGradient id="paint9_linear_1437_32896" x1="15.6" y1="40.6749" x2="30.9309" y2="33.3804" gradientUnits="userSpaceOnUse">
<stop stop-color="#A72B2B" stop-opacity="0"/>
<stop offset="1" stop-color="#42210B"/>
</linearGradient>
<linearGradient id="paint10_linear_1437_32896" x1="30.3412" y1="36.5638" x2="33.3847" y2="42.651" gradientUnits="userSpaceOnUse">
<stop stop-color="#A72B2B" stop-opacity="0"/>
<stop offset="1" stop-color="#42210B"/>
</linearGradient>
<linearGradient id="paint11_linear_1437_32896" x1="20.2429" y1="31.3931" x2="22.5024" y2="26.1869" gradientUnits="userSpaceOnUse">
<stop stop-color="#A72B2B" stop-opacity="0"/>
<stop offset="1" stop-color="#42210B"/>
</linearGradient>
<linearGradient id="paint12_linear_1437_32896" x1="24.4835" y1="21.2455" x2="22.8863" y2="26.8511" gradientUnits="userSpaceOnUse">
<stop stop-color="#5A5A5A"/>
<stop offset="1" stop-color="#444444"/>
</linearGradient>
<linearGradient id="paint13_linear_1437_32896" x1="19.1145" y1="19.976" x2="22.8236" y2="22.9432" gradientUnits="userSpaceOnUse">
<stop stop-color="#433F43" stop-opacity="0"/>
<stop offset="1" stop-color="#1A1A1A"/>
</linearGradient>
<linearGradient id="paint14_linear_1437_32896" x1="37.1613" y1="24.7429" x2="41.1754" y2="33.7478" gradientUnits="userSpaceOnUse">
<stop stop-color="#FD4755"/>
<stop offset="1" stop-color="#A72B2B"/>
</linearGradient>
<linearGradient id="paint15_linear_1437_32896" x1="36.7484" y1="31.9036" x2="50.4265" y2="45.5817" gradientUnits="userSpaceOnUse">
<stop stop-color="#FD4755"/>
<stop offset="1" stop-color="#A72B2B"/>
</linearGradient>
<linearGradient id="paint16_linear_1437_32896" x1="43.6066" y1="22.3443" x2="43.2811" y2="33.6275" gradientUnits="userSpaceOnUse">
<stop stop-color="#FD4755"/>
<stop offset="1" stop-color="#A72B2B"/>
</linearGradient>
<linearGradient id="paint17_linear_1437_32896" x1="35.5094" y1="28.165" x2="31.4954" y2="24.151" gradientUnits="userSpaceOnUse">
<stop stop-color="#A72B2B" stop-opacity="0"/>
<stop offset="1" stop-color="#42210B"/>
</linearGradient>
<linearGradient id="paint18_linear_1437_32896" x1="56.3173" y1="30.5481" x2="33.5473" y2="32.0807" gradientUnits="userSpaceOnUse">
<stop stop-color="#FD4755"/>
<stop offset="1" stop-color="#A72B2B"/>
</linearGradient>
<linearGradient id="paint19_linear_1437_32896" x1="36.3784" y1="26.7282" x2="33.8082" y2="26.7282" gradientUnits="userSpaceOnUse">
<stop stop-color="#5A5A5A"/>
<stop offset="1" stop-color="#444444"/>
</linearGradient>
<linearGradient id="paint20_linear_1437_32896" x1="27.8248" y1="20.2514" x2="31.3689" y2="24.8805" gradientUnits="userSpaceOnUse">
<stop stop-color="#5A5A5A"/>
<stop offset="1" stop-color="#444444"/>
</linearGradient>
<linearGradient id="paint21_linear_1437_32896" x1="23.6881" y1="27.9486" x2="27.9589" y2="23.6778" gradientUnits="userSpaceOnUse">
<stop stop-color="#433F43" stop-opacity="0"/>
<stop offset="1" stop-color="#1A1A1A"/>
</linearGradient>
<linearGradient id="paint22_linear_1437_32896" x1="30.1727" y1="16.9214" x2="34.9464" y2="21.8397" gradientUnits="userSpaceOnUse">
<stop stop-color="#5A5A5A"/>
<stop offset="1" stop-color="#444444"/>
</linearGradient>
<linearGradient id="paint23_linear_1437_32896" x1="33.9316" y1="15.3359" x2="35.8121" y2="17.2888" gradientUnits="userSpaceOnUse">
<stop stop-color="#F9F5F3"/>
<stop offset="1" stop-color="#E1D3CE"/>
</linearGradient>
</defs>
</svg>
