<svg width="1194" height="1571" viewBox="0 0 1194 1571" fill="none" xmlns="http://www.w3.org/2000/svg">
<g clip-path="url(#clip0_31_1146)">
<rect width="1194" height="1571" fill="white"/>
<g clip-path="url(#clip1_31_1146)">
<path opacity="0.010101" d="M761.41 608.77L785.937 1311.14C786.217 1319.15 781.307 1326.43 773.776 1329.17L113.369 1569.53C105.838 1572.28 97.3981 1569.86 92.4637 1563.54L-340.217 1009.73C-345.151 1003.42 -345.458 994.64 -340.976 988L52.0192 405.36C56.501 398.716 64.7515 395.713 72.4557 397.922L748.021 591.64C755.725 593.85 761.131 600.76 761.41 608.77Z" stroke="#ED1C24" stroke-opacity="0.02" stroke-width="3"/>
<path opacity="0.020202" d="M771.631 612.69L783.873 1314.03C784.013 1322.05 778.977 1329.24 771.398 1331.85L108.16 1560.22C100.582 1562.83 92.1857 1560.26 87.3624 1553.86L-334.783 993.66C-339.607 987.25 -339.76 978.48 -335.163 971.91L67.1748 397.313C71.7718 390.748 80.0735 387.889 87.7379 390.233L758.542 595.32C766.207 597.66 771.491 604.67 771.631 612.69Z" stroke="#ED1C24" stroke-opacity="0.02" stroke-width="3"/>
<path opacity="0.030303" d="M781.676 616.67V1316.79C781.676 1324.81 776.515 1331.91 768.893 1334.39L103.04 1550.73C95.418 1553.21 87.0677 1550.5 82.3569 1544.01L-329.163 977.61C-333.874 971.12 -333.874 962.34 -329.163 955.86L82.3568 389.45C87.0677 382.966 95.4179 380.253 103.04 382.729L768.893 599.08C776.515 601.55 781.676 608.66 781.676 616.67Z" stroke="#ED1C24" stroke-opacity="0.02" stroke-width="3"/>
<path opacity="0.040404" d="M791.544 620.73L779.348 1319.41C779.208 1327.42 773.924 1334.43 766.26 1336.78L98.0102 1541.08C90.3457 1543.42 82.044 1540.57 77.447 1534L-323.359 961.59C-327.956 955.03 -327.803 946.25 -322.979 939.85L97.5592 381.772C102.383 375.372 110.779 372.805 118.357 375.414L779.07 602.92C786.648 605.52 791.684 612.72 791.544 620.73Z" stroke="#ED1C24" stroke-opacity="0.02" stroke-width="3"/>
<path opacity="0.050505" d="M801.239 624.86L776.898 1321.89C776.618 1329.9 771.213 1336.82 763.508 1339.02L93.0784 1531.27C85.3742 1533.48 77.1237 1530.47 72.642 1523.83L-317.366 945.62C-321.848 938.97 -321.541 930.2 -316.607 923.88L112.785 374.287C117.719 367.972 126.159 365.551 133.69 368.293L789.077 606.83C796.609 609.58 801.518 616.85 801.239 624.86Z" stroke="#ED1C24" stroke-opacity="0.02" stroke-width="3"/>
<path opacity="0.0606061" d="M810.754 629.07L774.322 1324.22C773.903 1332.23 768.377 1339.05 760.636 1341.13L88.243 1521.29C80.5014 1523.37 72.3044 1520.22 67.9393 1513.5L-311.191 929.69C-315.556 922.97 -315.096 914.2 -310.052 907.97L128.025 366.99C133.069 360.762 141.55 358.489 149.032 361.361L798.909 610.83C806.392 613.7 811.173 621.06 810.754 629.07Z" stroke="#ED1C24" stroke-opacity="0.02" stroke-width="3"/>
<path opacity="0.0707071" d="M820.091 633.33L771.626 1326.42C771.067 1334.41 765.423 1341.14 757.646 1343.08L83.5073 1511.16C75.7307 1513.1 67.59 1509.81 63.3429 1503.01L-304.833 913.81C-309.08 907.01 -308.467 898.25 -303.316 892.11L143.278 359.881C148.43 353.741 156.949 351.617 164.38 354.619L808.566 614.89C815.997 617.89 820.65 625.34 820.091 633.33Z" stroke="#ED1C24" stroke-opacity="0.02" stroke-width="3"/>
<path opacity="0.0808081" d="M829.247 637.66L768.81 1328.46C768.111 1336.44 762.351 1343.07 754.542 1344.87L78.8731 1500.86C71.0639 1502.66 62.9819 1499.23 58.854 1492.36L-298.295 897.97C-302.423 891.1 -301.657 882.35 -296.399 876.3L158.539 352.956C163.798 346.908 172.353 344.933 179.73 348.064L818.046 619.01C825.424 622.15 829.946 629.67 829.247 637.66Z" stroke="#ED1C24" stroke-opacity="0.02" stroke-width="3"/>
<path opacity="0.0909091" d="M838.224 642.04L765.879 1330.35C765.041 1338.32 759.166 1344.85 751.327 1346.51L74.3451 1490.41C66.5056 1492.08 58.4846 1488.51 54.4772 1481.57L-291.576 882.18C-295.583 875.24 -294.665 866.51 -289.302 860.56L173.807 346.22C179.17 340.264 187.758 338.439 195.08 341.698L827.35 623.2C834.672 626.46 839.062 634.07 838.224 642.04Z" stroke="#ED1C24" stroke-opacity="0.02" stroke-width="3"/>
<path opacity="0.10101" d="M847.023 646.48L762.839 1332.1C761.862 1340.06 755.874 1346.48 748.007 1348.01L69.9277 1479.81C62.0602 1481.34 54.1028 1477.63 50.2172 1470.62L-284.675 866.46C-288.561 859.45 -287.491 850.73 -282.024 844.87L189.08 339.676C194.546 333.814 203.165 332.139 210.428 335.526L836.479 627.46C843.743 630.85 847.999 638.52 847.023 646.48Z" stroke="#ED1C24" stroke-opacity="0.02" stroke-width="3"/>
<path opacity="0.111111" d="M855.637 650.97L759.686 1333.69C758.57 1341.63 752.471 1347.95 744.578 1349.34L65.6174 1469.06C57.7245 1470.45 49.8331 1466.6 46.0704 1459.52L-277.6 850.79C-281.362 843.71 -280.14 835.02 -274.573 829.25L204.349 333.315C209.916 327.549 218.563 326.025 225.766 329.538L845.426 631.77C852.63 635.28 856.752 643.03 855.637 650.97Z" stroke="#ED1C24" stroke-opacity="0.02" stroke-width="3"/>
<path opacity="0.121212" d="M864.071 655.51L756.429 1335.14C755.175 1343.05 748.966 1349.26 741.05 1350.51L61.4227 1458.16C53.5067 1459.41 45.6836 1455.42 42.045 1448.28L-270.346 835.18C-273.984 828.04 -272.611 819.37 -266.943 813.7L219.616 327.142C225.284 321.475 233.955 320.101 241.097 323.74L854.198 636.13C861.339 639.77 865.325 647.59 864.071 655.51Z" stroke="#ED1C24" stroke-opacity="0.02" stroke-width="3"/>
<path opacity="0.131313" d="M872.32 660.09L753.065 1336.42C751.673 1344.31 745.357 1350.41 737.421 1351.53L57.3402 1447.11C49.4035 1448.22 41.6512 1444.1 38.1378 1436.9L-262.92 819.64C-266.433 812.43 -264.908 803.79 -259.143 798.22L234.873 321.152C240.639 315.585 249.333 314.363 256.41 318.126L862.787 640.54C869.863 644.3 873.712 652.2 872.32 660.09Z" stroke="#ED1C24" stroke-opacity="0.02" stroke-width="3"/>
<path opacity="0.141414" d="M880.388 664.71L749.602 1337.55C748.073 1345.42 741.652 1351.4 733.697 1352.38L53.3771 1435.91C45.4221 1436.89 37.7429 1432.63 34.3558 1425.37L-255.319 804.16C-258.706 796.9 -257.031 788.28 -251.169 782.81L250.122 315.351C255.983 309.885 264.698 308.815 271.708 312.701L871.197 645C878.207 648.89 881.917 656.85 880.388 664.71Z" stroke="#ED1C24" stroke-opacity="0.02" stroke-width="3"/>
<path opacity="0.151515" d="M888.274 669.38L746.043 1338.52C744.377 1346.36 737.852 1352.24 729.882 1353.08L49.536 1424.58C41.5652 1425.42 33.9615 1421.03 30.7016 1413.71L-247.544 788.76C-250.804 781.44 -248.978 772.85 -243.022 767.49L265.358 309.738C271.314 304.375 280.046 303.457 286.987 307.465L879.429 649.51C886.37 653.52 889.941 661.54 888.274 669.38Z" stroke="#ED1C24" stroke-opacity="0.02" stroke-width="3"/>
<path opacity="0.161616" d="M895.974 674.07L742.387 1339.33C740.584 1347.14 733.958 1352.9 725.974 1353.6L45.8146 1413.11C37.8304 1413.81 30.3044 1409.28 27.1729 1401.91L-239.602 773.42C-242.733 766.05 -240.758 757.49 -234.709 752.23L280.574 304.305C286.623 299.046 295.37 298.281 302.239 302.409L887.477 654.06C894.347 658.18 897.777 666.27 895.974 674.07Z" stroke="#ED1C24" stroke-opacity="0.02" stroke-width="3"/>
<path opacity="0.171717" d="M903.493 678.8L738.642 1339.98C736.703 1347.76 729.977 1353.4 721.982 1353.96L42.22 1401.5C34.2248 1402.06 26.779 1397.4 23.7766 1389.97L-231.489 758.17C-234.491 750.74 -232.367 742.22 -226.227 737.07L295.772 299.057C301.912 293.905 310.671 293.293 317.467 297.54L895.346 658.64C902.143 662.89 905.432 671.03 903.493 678.8Z" stroke="#ED1C24" stroke-opacity="0.02" stroke-width="3"/>
<path opacity="0.181818" d="M910.826 683.56L734.806 1340.47C732.732 1348.21 725.909 1353.74 717.905 1354.16L38.7507 1389.75C30.747 1390.17 23.3834 1385.39 20.5112 1377.91L-223.21 742.99C-226.082 735.51 -223.81 727.03 -217.581 721.98L310.945 293.992C317.174 288.949 325.942 288.489 332.663 292.854L903.032 663.26C909.754 667.62 912.9 675.82 910.826 683.56Z" stroke="#ED1C24" stroke-opacity="0.02" stroke-width="3"/>
<path opacity="0.191919" d="M917.975 688.34L730.886 1340.8C728.677 1348.5 721.758 1353.91 713.748 1354.19L35.4103 1377.88C27.4004 1378.16 20.1215 1373.25 17.3803 1365.71L-214.766 727.9C-217.507 720.37 -215.087 711.93 -208.772 706.99L326.092 289.111C332.407 284.176 341.182 283.87 347.826 288.352L910.537 667.9C917.181 672.39 920.184 680.64 917.975 688.34Z" stroke="#ED1C24" stroke-opacity="0.02" stroke-width="3"/>
<path opacity="0.20202" d="M924.941 693.15L726.884 1340.96C724.541 1348.63 717.529 1353.91 709.515 1354.05L32.2026 1365.87C24.1891 1366.01 16.997 1360.98 14.3876 1353.4L-206.157 712.89C-208.766 705.31 -206.199 696.92 -199.799 692.09L341.21 284.413C347.61 279.59 356.389 279.436 362.954 284.033L917.861 672.58C924.426 677.18 927.284 685.48 924.941 693.15Z" stroke="#ED1C24" stroke-opacity="0.02" stroke-width="3"/>
<path opacity="0.212121" d="M931.721 697.96L722.801 1340.95C720.324 1348.58 713.221 1353.74 705.206 1353.74H29.1261C21.1114 1353.74 14.0081 1348.58 11.5314 1340.95L-197.389 697.96C-199.865 690.34 -197.152 681.99 -190.668 677.28L356.292 279.891C362.776 275.18 371.556 275.18 378.04 279.891L925 677.28C931.484 681.99 934.197 690.34 931.721 697.96Z" stroke="#ED1C24" stroke-opacity="0.02" stroke-width="3"/>
<path opacity="0.222222" d="M938.319 702.8L718.643 1340.79C716.034 1348.36 708.842 1353.4 700.828 1353.26L26.1865 1341.48C18.1731 1341.34 11.161 1336.06 8.81779 1328.4L-188.458 683.13C-190.802 675.47 -187.943 667.17 -181.378 662.57L371.341 275.553C377.906 270.956 386.684 271.109 393.085 275.933L931.96 682C938.361 686.83 940.928 695.22 938.319 702.8Z" stroke="#ED1C24" stroke-opacity="0.02" stroke-width="3"/>
<path opacity="0.232323" d="M944.728 707.65L714.409 1340.44C711.668 1347.97 704.389 1352.88 696.379 1352.6L23.3801 1329.1C15.3703 1328.82 8.45151 1323.42 6.24237 1315.71L-179.374 668.39C-181.583 660.69 -178.581 652.44 -171.936 647.95L386.345 271.389C392.99 266.907 401.764 267.213 408.08 272.148L938.734 686.74C945.049 691.67 947.469 700.11 944.728 707.65Z" stroke="#ED1C24" stroke-opacity="0.02" stroke-width="3"/>
<path opacity="0.242424" d="M950.957 712.5L710.107 1339.94C707.235 1347.42 699.871 1352.2 691.868 1351.78L20.7148 1316.61C12.7111 1316.19 5.88776 1310.66 3.81342 1302.92L-170.132 653.75C-172.206 646.01 -169.06 637.81 -162.338 633.44L401.31 267.406C408.032 263.041 416.8 263.5 423.029 268.544L945.328 691.49C951.556 696.54 953.829 705.02 950.957 712.5Z" stroke="#ED1C24" stroke-opacity="0.02" stroke-width="3"/>
<path opacity="0.252525" d="M957.002 717.36L705.74 1339.26C702.737 1346.69 695.291 1351.34 687.296 1350.78L18.192 1304C10.1968 1303.44 3.47089 1297.79 1.53197 1290.02L-160.734 639.2C-162.673 631.42 -159.384 623.28 -152.587 619.04L416.231 263.6C423.028 259.353 431.786 259.965 437.926 265.117L951.741 696.26C957.881 701.41 960.005 709.93 957.002 717.36Z" stroke="#ED1C24" stroke-opacity="0.02" stroke-width="3"/>
<path opacity="0.262626" d="M962.864 722.22L701.308 1338.41C698.176 1345.79 690.651 1350.31 682.666 1349.61L15.811 1291.27C7.82694 1290.57 1.20058 1284.81 -0.602325 1277L-151.185 624.76C-152.988 616.95 -149.557 608.87 -142.687 604.74L431.102 259.97C437.972 255.842 446.719 256.607 452.768 261.865L957.972 701.03C964.021 706.29 965.996 714.85 962.864 722.22Z" stroke="#ED1C24" stroke-opacity="0.02" stroke-width="3"/>
<path opacity="0.272727" d="M968.541 727.08L696.814 1337.39C693.554 1344.71 685.95 1349.1 677.979 1348.26L13.5722 1278.43C5.6014 1277.59 -0.923424 1271.72 -2.58977 1263.88L-141.489 610.41C-143.155 602.57 -139.584 594.55 -132.643 590.54L445.92 256.509C452.861 252.502 461.593 253.419 467.549 258.782L964.019 705.81C969.976 711.17 971.801 719.76 968.541 727.08Z" stroke="#ED1C24" stroke-opacity="0.02" stroke-width="3"/>
<path opacity="0.282828" d="M974.038 731.94L692.265 1336.2C688.877 1343.46 681.198 1347.72 673.243 1346.74L11.4815 1265.49C3.52654 1264.51 -2.89476 1258.53 -4.42403 1250.66L-131.642 596.18C-133.172 588.31 -129.461 580.35 -122.451 576.47L460.685 253.228C467.695 249.342 476.41 250.412 482.271 255.878L969.888 710.59C975.749 716.05 977.425 724.67 974.038 731.94Z" stroke="#ED1C24" stroke-opacity="0.02" stroke-width="3"/>
<path opacity="0.292929" d="M979.349 736.78L687.659 1334.84C684.145 1342.04 676.393 1346.16 668.456 1345.05L9.53589 1252.44C1.59919 1251.32 -4.71663 1245.23 -6.10835 1237.33L-121.653 582.05C-123.045 574.153 -119.196 566.261 -112.119 562.498L475.391 250.114C482.467 246.351 491.162 247.573 496.927 253.141L975.573 715.36C981.338 720.93 982.863 729.58 979.349 736.78Z" stroke="#ED1C24" stroke-opacity="0.02" stroke-width="3"/>
<path opacity="0.30303" d="M984.481 741.61L683.004 1333.3C679.365 1340.44 671.542 1344.42 663.626 1343.17L7.74094 1239.29C-0.174961 1238.03 -6.38338 1231.83 -7.63715 1223.91L-111.519 568.025C-112.773 560.109 -108.787 552.286 -101.646 548.647L490.037 247.17C497.178 243.531 505.85 244.905 511.517 250.572L981.079 720.13C986.746 725.8 988.119 734.47 984.481 741.61Z" stroke="#ED1C24" stroke-opacity="0.02" stroke-width="3"/>
<path opacity="0.313131" d="M989.432 746.44L678.301 1331.59C674.538 1338.66 666.647 1342.51 658.754 1341.12L6.09698 1226.04C-1.79584 1224.65 -7.89495 1218.33 -9.01038 1210.4L-101.244 554.12C-102.359 546.183 -98.2374 538.431 -91.0338 534.917L504.62 244.398C511.823 240.884 520.47 242.409 526.037 248.174L986.405 724.9C991.972 730.66 993.194 739.36 989.432 746.44Z" stroke="#ED1C24" stroke-opacity="0.02" stroke-width="3"/>
<path opacity="0.323232" d="M994.202 751.24L673.554 1329.7C669.668 1336.71 661.711 1340.42 653.843 1338.89L4.60538 1212.69C-3.26207 1211.16 -9.25003 1204.74 -10.2267 1196.79L-90.8299 540.328C-91.8066 532.373 -87.55 524.694 -80.2862 521.307L519.136 241.792C526.4 238.405 535.019 240.08 540.485 245.941L991.551 729.65C997.017 735.51 998.087 744.23 994.202 751.24Z" stroke="#ED1C24" stroke-opacity="0.02" stroke-width="3"/>
<path opacity="0.333333" d="M998.791 756.02L668.764 1327.64C664.756 1334.58 656.736 1338.15 648.896 1336.49L3.26579 1199.25C-4.57377 1197.59 -10.4488 1191.06 -11.2865 1183.09L-80.2809 526.653C-81.1187 518.682 -76.7287 511.079 -69.4069 507.819L533.582 239.351C540.904 236.091 549.492 237.916 554.855 243.872L996.518 734.39C1001.88 740.34 1002.8 749.08 998.791 756.02Z" stroke="#ED1C24" stroke-opacity="0.02" stroke-width="3"/>
<path opacity="0.343434" d="M1003.2 760.77L663.938 1325.41C659.81 1332.28 651.728 1335.71 643.919 1333.9L2.08323 1185.72C-5.72606 1183.92 -11.4862 1177.29 -12.1848 1169.31L-69.5959 513.098C-70.2944 505.114 -65.7723 497.588 -58.3948 494.456L547.959 237.074C555.336 233.943 563.891 235.918 569.149 241.967L1001.31 739.11C1006.57 745.16 1007.33 753.9 1003.2 760.77Z" stroke="#ED1C24" stroke-opacity="0.02" stroke-width="3"/>
<path opacity="0.353535" d="M1007.43 765.5L659.074 1322.99C654.827 1329.79 646.686 1333.08 638.91 1331.14L1.05363 1172.11C-6.723 1170.17 -12.3667 1163.44 -12.9257 1155.45L-58.7825 499.663C-59.3415 491.668 -54.6888 484.222 -47.2577 481.22L562.257 234.96C569.688 231.958 578.208 234.082 583.359 240.221L1005.92 743.81C1011.07 749.95 1011.68 758.7 1007.43 765.5Z" stroke="#ED1C24" stroke-opacity="0.02" stroke-width="3"/>
<path opacity="0.363636" d="M1011.49 770.2L654.181 1320.41C649.816 1327.13 641.619 1330.27 633.877 1328.2L0.184078 1158.4C-7.55753 1156.33 -13.083 1149.5 -13.5025 1141.5L-47.8373 486.352C-48.2568 478.348 -43.4749 470.984 -35.9925 468.112L576.481 233.006C583.963 230.134 592.444 232.406 597.488 238.635L1010.35 748.48C1015.4 754.71 1015.85 763.48 1011.49 770.2Z" stroke="#ED1C24" stroke-opacity="0.02" stroke-width="3"/>
<path opacity="0.373737" d="M1015.37 774.86L649.256 1317.64C644.775 1324.29 636.524 1327.29 628.82 1325.08L-0.529621 1144.62C-8.23385 1142.41 -13.6394 1135.49 -13.9191 1127.48L-36.7682 473.167C-37.0479 465.157 -32.1382 457.878 -24.6068 455.137L590.621 231.212C598.153 228.471 606.592 230.891 611.527 237.207L1014.61 753.13C1019.54 759.44 1019.85 768.22 1015.37 774.86Z" stroke="#ED1C24" stroke-opacity="0.02" stroke-width="3"/>
<path opacity="0.383838" d="M1019.07 779.49L644.309 1314.7C639.712 1321.27 631.41 1324.13 623.746 1321.78L-1.08154 1130.75C-8.74604 1128.41 -14.0299 1121.4 -14.1698 1113.39L-25.5728 460.109C-25.7127 452.096 -20.6767 444.903 -13.0986 442.294L604.681 229.575C612.259 226.966 620.655 229.533 625.479 235.934L1018.69 757.74C1023.51 764.14 1023.67 772.92 1019.07 779.49Z" stroke="#ED1C24" stroke-opacity="0.02" stroke-width="3"/>
<path opacity="0.393939" d="M1022.6 784.08L639.338 1311.59C634.627 1318.07 626.277 1320.79 618.654 1318.31L-1.47363 1116.82C-9.09607 1114.34 -14.2568 1107.24 -14.2568 1099.22V447.181C-14.2568 439.167 -9.09607 432.064 -1.47363 429.587L618.654 228.095C626.277 225.618 634.627 228.332 639.338 234.816L1022.6 762.33C1027.31 768.81 1027.31 777.59 1022.6 784.08Z" stroke="#ED1C24" stroke-opacity="0.02" stroke-width="3"/>
<path opacity="0.40404" d="M1025.95 788.62L634.348 1308.3C629.525 1314.7 621.129 1317.27 613.551 1314.66L-1.70365 1102.81C-9.2817 1100.2 -14.3177 1093.01 -14.1778 1084.99L-2.82145 434.387C-2.68157 426.373 2.60237 419.361 10.2669 417.018L632.54 226.77C640.204 224.427 648.506 227.286 653.103 233.851L1026.33 766.88C1030.93 773.44 1030.78 782.22 1025.95 788.62Z" stroke="#ED1C24" stroke-opacity="0.02" stroke-width="3"/>
<path opacity="0.414141" d="M1029.13 793.12L629.341 1304.83C624.407 1311.14 615.967 1313.56 608.436 1310.82L-1.77256 1088.72C-9.30392 1085.98 -14.2137 1078.7 -13.934 1070.69L8.72878 421.719C9.00849 413.709 14.414 406.79 22.1182 404.581L646.333 225.591C654.037 223.382 662.288 226.385 666.769 233.029L1029.89 771.38C1034.37 778.03 1034.07 786.8 1029.13 793.12Z" stroke="#ED1C24" stroke-opacity="0.02" stroke-width="3"/>
<path opacity="0.424242" d="M1032.14 797.57L624.323 1301.18C619.279 1307.41 610.798 1309.68 603.316 1306.81L-1.67648 1074.58C-9.15885 1071.71 -13.9408 1064.34 -13.5213 1056.34L20.3942 409.191C20.8137 401.188 26.3391 394.364 34.0807 392.29L660.034 224.566C667.776 222.492 675.972 225.638 680.338 232.36L1033.28 775.85C1037.65 782.57 1037.19 791.34 1032.14 797.57Z" stroke="#ED1C24" stroke-opacity="0.02" stroke-width="3"/>
<path opacity="0.434343" d="M1034.99 801.97L619.297 1297.37C614.145 1303.51 605.626 1305.63 598.195 1302.63L-1.41393 1060.37C-8.84491 1057.37 -13.4976 1049.92 -12.9385 1041.93L32.173 396.802C32.732 388.807 38.3757 382.081 46.1524 380.142L673.642 223.692C681.418 221.753 689.559 225.042 693.806 231.839L1036.5 780.27C1040.75 787.07 1040.14 795.83 1034.99 801.97Z" stroke="#ED1C24" stroke-opacity="0.02" stroke-width="3"/>
<path opacity="0.444444" d="M1037.66 806.31L614.261 1293.37C609.003 1299.42 600.448 1301.39 593.07 1298.26L-0.989888 1046.1C-8.36741 1042.96 -12.8894 1035.44 -12.1909 1027.45L44.0562 384.547C44.7548 376.562 50.515 369.936 58.3243 368.133L687.147 222.958C694.957 221.155 703.039 224.586 707.166 231.456L1039.55 784.64C1043.68 791.51 1042.92 800.26 1037.66 806.31Z" stroke="#ED1C24" stroke-opacity="0.02" stroke-width="3"/>
<path opacity="0.454545" d="M1040.16 810.59L609.225 1289.2C603.862 1295.15 595.274 1296.98 587.952 1293.72L-0.39715 1031.77C-7.71889 1028.51 -12.1089 1020.91 -11.2712 1012.93L56.0481 372.434C56.8859 364.464 62.7608 357.939 70.6004 356.272L700.555 222.371C708.395 220.705 716.415 224.276 720.423 231.217L1042.44 788.96C1046.44 795.9 1045.53 804.63 1040.16 810.59Z" stroke="#ED1C24" stroke-opacity="0.02" stroke-width="3"/>
<path opacity="0.464646" d="M1042.5 814.82L604.187 1284.85C598.721 1290.71 590.103 1292.39 582.839 1289L0.361713 1017.39C-6.90208 1014 -11.1588 1006.32 -10.182 998.37L68.1425 360.463C69.1193 352.509 75.1073 346.087 82.9747 344.558L713.859 221.926C721.727 220.397 729.684 224.108 733.57 231.118L1045.15 793.23C1049.04 800.24 1047.97 808.95 1042.5 814.82Z" stroke="#ED1C24" stroke-opacity="0.02" stroke-width="3"/>
<path opacity="0.474747" d="M1044.68 818.97L599.152 1280.33C593.585 1286.09 584.938 1287.62 577.735 1284.1L1.28672 1002.95C-5.91685 999.44 -10.0388 991.69 -8.92339 983.75L80.3363 348.634C81.4517 340.697 87.5508 334.382 95.4438 332.99L727.057 221.619C734.95 220.228 742.841 224.077 746.604 231.153L1047.7 797.44C1051.47 804.51 1050.24 813.21 1044.68 818.97Z" stroke="#ED1C24" stroke-opacity="0.02" stroke-width="3"/>
<path opacity="0.484848" d="M1046.69 823.07L594.125 1275.63C588.458 1281.3 579.786 1282.67 572.645 1279.04L2.38114 988.47C-4.76003 984.83 -8.74601 977.01 -7.49224 969.09L92.6292 336.953C93.883 329.037 100.091 322.828 108.007 321.575L740.149 221.453C748.065 220.199 755.888 224.185 759.527 231.327L1050.09 801.59C1053.73 808.73 1052.36 817.4 1046.69 823.07Z" stroke="#ED1C24" stroke-opacity="0.02" stroke-width="3"/>
<path opacity="0.494949" d="M1048.54 827.1L589.107 1270.76C583.342 1276.33 574.647 1277.55 567.571 1273.79L3.6444 973.95C-3.43211 970.18 -7.28102 962.29 -5.88929 954.4L105.017 325.416C106.409 317.523 112.725 311.424 120.662 310.309L753.132 221.421C761.069 220.306 768.821 224.428 772.334 231.631L1052.32 805.68C1055.83 812.88 1054.3 821.53 1048.54 827.1Z" stroke="#ED1C24" stroke-opacity="0.02" stroke-width="3"/>
<path opacity="0.50505" d="M1050.23 831.05L584.098 1265.72C578.237 1271.18 569.522 1272.25 562.512 1268.37L5.07314 959.38C-1.93662 955.49 -5.64722 947.53 -4.11795 939.66L117.494 314.024C119.024 306.157 125.445 300.169 133.4 299.192L766 221.519C773.955 220.542 781.634 224.798 785.021 232.062L1054.38 809.7C1057.76 816.96 1056.09 825.58 1050.23 831.05Z" stroke="#ED1C24" stroke-opacity="0.02" stroke-width="3"/>
<path opacity="0.515152" d="M1051.76 834.92L579.107 1260.5C573.151 1265.86 564.419 1266.78 557.478 1262.77L6.6731 944.77C-0.267838 940.76 -3.83898 932.74 -2.17265 924.9L130.062 302.782C131.729 294.942 138.254 289.067 146.224 288.229L778.755 221.748C786.726 220.91 794.33 225.3 797.59 232.622L1056.28 813.65C1059.54 820.97 1057.71 829.56 1051.76 834.92Z" stroke="#ED1C24" stroke-opacity="0.02" stroke-width="3"/>
<path opacity="0.525253" d="M1053.13 838.73L574.135 1255.12C568.086 1260.37 559.34 1261.14 552.47 1257.01L8.44324 930.13C1.5733 926 -1.85727 917.92 -0.0543684 910.11L142.718 291.695C144.52 283.886 151.147 278.126 159.131 277.427L791.396 222.111C799.38 221.413 806.906 225.935 810.037 233.312L1058.03 817.54C1061.16 824.92 1059.18 833.47 1053.13 838.73Z" stroke="#ED1C24" stroke-opacity="0.02" stroke-width="3"/>
<path opacity="0.535354" d="M1054.35 842.45L569.182 1249.55C563.042 1254.7 554.284 1255.32 547.487 1251.07L10.3806 915.45C3.58376 911.2 0.294774 903.06 2.23369 895.28L155.454 280.753C157.393 272.977 164.118 267.333 172.114 266.774L803.915 222.594C811.91 222.035 819.356 226.688 822.358 234.119L1059.61 821.35C1062.62 828.78 1060.49 837.3 1054.35 842.45Z" stroke="#ED1C24" stroke-opacity="0.02" stroke-width="3"/>
<path opacity="0.545455" d="M1055.42 846.09L564.255 1243.82C558.027 1248.87 549.259 1249.33 542.537 1244.96L12.4902 900.74C5.76851 896.38 2.62204 888.18 4.69638 880.44L168.272 269.967C170.347 262.225 177.17 256.7 185.174 256.28L816.316 223.204C824.32 222.784 831.683 227.566 834.556 235.048L1061.05 825.08C1063.92 832.56 1061.65 841.04 1055.42 846.09Z" stroke="#ED1C24" stroke-opacity="0.02" stroke-width="3"/>
<path opacity="0.555556" d="M1056.33 849.64L559.358 1237.92C553.042 1242.86 544.267 1243.16 537.623 1238.68L14.7712 886.02C8.12676 881.53 5.12382 873.28 7.33296 865.58L181.17 259.337C183.379 251.633 190.298 246.227 198.308 245.947L828.596 223.937C836.606 223.657 843.885 228.567 846.626 236.099L1062.33 828.74C1065.07 836.27 1062.65 844.71 1056.33 849.64Z" stroke="#ED1C24" stroke-opacity="0.02" stroke-width="3"/>
<path opacity="0.565657" d="M1057.1 853.11L554.487 1231.85C548.086 1236.67 539.307 1236.83 532.742 1232.23L17.2187 871.26C10.6535 866.66 7.79499 858.36 10.1383 850.69L194.139 248.856C196.482 241.191 203.494 235.907 211.507 235.768L840.749 224.784C848.763 224.644 855.955 229.68 858.564 237.258L1063.46 832.31C1066.07 839.89 1063.5 848.28 1057.1 853.11Z" stroke="#ED1C24" stroke-opacity="0.02" stroke-width="3"/>
<path opacity="0.575758" d="M1057.72 856.49L549.653 1225.62C543.169 1230.33 534.389 1230.33 527.905 1225.62L19.8404 856.49C13.3563 851.78 10.6432 843.43 13.1199 835.8L207.183 238.537C209.66 230.915 216.763 225.754 224.778 225.754H852.78C860.795 225.754 867.898 230.915 870.375 238.537L1064.44 835.8C1066.91 843.43 1064.2 851.78 1057.72 856.49Z" stroke="#ED1C24" stroke-opacity="0.02" stroke-width="3"/>
<path opacity="0.585859" d="M1058.19 859.77L544.851 1219.21C538.286 1223.8 529.508 1223.65 523.107 1218.83L22.6284 841.69C16.2276 836.87 13.6605 828.47 16.2698 820.89L220.293 228.368C222.902 220.79 230.094 215.754 238.108 215.893L864.679 226.83C872.692 226.97 879.704 232.254 882.048 239.919L1065.27 839.2C1067.61 846.87 1064.75 855.17 1058.19 859.77Z" stroke="#ED1C24" stroke-opacity="0.02" stroke-width="3"/>
<path opacity="0.59596" d="M1058.52 862.96L540.093 1212.64C533.448 1217.12 524.674 1216.81 518.358 1211.88L25.5901 826.89C19.2745 821.95 16.8544 813.51 19.5956 805.98L233.471 218.362C236.213 210.831 243.492 205.921 251.501 206.201L876.452 228.025C884.461 228.304 891.38 233.71 893.589 241.414L1065.95 842.52C1068.16 850.23 1065.16 858.48 1058.52 862.96Z" stroke="#ED1C24" stroke-opacity="0.02" stroke-width="3"/>
<path opacity="0.606061" d="M1058.7 866.05L535.376 1205.9C528.654 1210.27 519.886 1209.81 513.657 1204.76L28.7217 812.07C22.4931 807.03 20.2207 798.55 23.0929 791.06L246.713 208.514C249.585 201.031 256.949 196.249 264.952 196.669L888.093 229.326C896.097 229.746 902.92 235.271 904.994 243.013L1066.5 845.75C1068.57 853.49 1065.42 861.68 1058.7 866.05Z" stroke="#ED1C24" stroke-opacity="0.02" stroke-width="3"/>
<path opacity="0.616162" d="M1058.75 869.04L530.702 1199C523.905 1203.25 515.147 1202.64 509.007 1197.48L32.0218 797.25C25.8822 792.09 23.7581 783.57 26.7605 776.14L260.013 198.823C263.015 191.392 270.461 186.739 278.456 187.298L899.6 230.733C907.595 231.292 914.321 236.936 916.26 244.712L1066.89 848.88C1068.83 856.65 1065.54 864.79 1058.75 869.04Z" stroke="#ED1C24" stroke-opacity="0.02" stroke-width="3"/>
<path opacity="0.626263" d="M1058.66 871.93L526.076 1191.93C519.206 1196.06 510.459 1195.3 504.411 1190.04L35.4908 782.41C29.442 777.15 27.467 768.6 30.5985 761.22L273.369 189.29C276.501 181.912 284.027 177.39 292.011 178.089L910.972 232.241C918.956 232.939 925.582 238.699 927.385 246.509L1067.15 851.91C1068.96 859.72 1065.52 867.8 1058.66 871.93Z" stroke="#ED1C24" stroke-opacity="0.02" stroke-width="3"/>
<path opacity="0.636364" d="M1058.43 874.71L521.502 1184.71C514.561 1188.72 505.829 1187.8 499.873 1182.44L39.1314 767.58C33.1753 762.22 31.3499 753.63 34.6097 746.31L286.782 179.921C290.042 172.599 297.646 168.209 305.616 169.047L922.209 233.853C930.18 234.691 936.705 240.566 938.371 248.406L1067.27 854.85C1068.94 862.69 1065.37 870.71 1058.43 874.71Z" stroke="#ED1C24" stroke-opacity="0.02" stroke-width="3"/>
<path opacity="0.646465" d="M1058.07 877.39L516.982 1177.32C509.972 1181.21 501.257 1180.14 495.396 1174.67L42.9408 752.75C37.0793 747.29 35.404 738.67 38.7911 731.4L300.246 170.712C303.633 163.449 311.312 159.192 319.267 160.169L933.309 235.564C941.264 236.541 947.685 242.528 949.215 250.396L1067.26 857.68C1068.79 865.55 1065.08 873.51 1058.07 877.39Z" stroke="#ED1C24" stroke-opacity="0.02" stroke-width="3"/>
<path opacity="0.656566" d="M1057.58 879.96L512.516 1169.78C505.44 1173.54 496.745 1172.32 490.98 1166.75L46.9182 737.93C41.1529 732.36 39.6283 723.71 43.1417 716.51L313.756 161.666C317.27 154.462 325.022 150.34 332.959 151.456L944.269 237.37C952.206 238.485 958.522 244.584 959.913 252.477L1067.11 860.42C1068.5 868.31 1064.65 876.2 1057.58 879.96Z" stroke="#ED1C24" stroke-opacity="0.02" stroke-width="3"/>
<path opacity="0.666667" d="M1056.95 882.42L508.11 1162.07C500.969 1165.71 492.297 1164.34 486.63 1158.67L51.064 723.11C45.3968 717.44 44.0233 708.77 47.6619 701.63L327.312 152.782C330.951 145.641 338.774 141.655 346.69 142.908L955.089 239.269C963.005 240.523 969.213 246.731 970.467 254.647L1066.83 863.05C1068.08 870.96 1064.1 878.79 1056.95 882.42Z" stroke="#ED1C24" stroke-opacity="0.02" stroke-width="3"/>
<path opacity="0.676768" d="M1056.21 884.77L503.766 1154.21C496.562 1157.73 487.916 1156.2 482.348 1150.44L55.3786 708.3C49.8112 702.53 48.5892 693.84 52.3519 686.76L340.911 144.06C344.674 136.984 352.565 133.135 360.458 134.527L965.768 241.259C973.661 242.651 979.76 248.967 980.875 256.903L1066.42 865.57C1067.53 873.51 1063.41 881.26 1056.21 884.77Z" stroke="#ED1C24" stroke-opacity="0.02" stroke-width="3"/>
<path opacity="0.686869" d="M1055.34 887L499.487 1146.2C492.223 1149.59 483.604 1147.91 478.138 1142.05L59.8609 693.5C54.3949 687.64 53.3249 678.93 57.2105 671.92L354.55 135.502C358.435 128.493 366.393 124.782 374.26 126.311L976.304 243.337C984.171 244.866 990.159 251.287 991.136 259.242L1065.88 867.98C1066.86 875.94 1062.6 883.62 1055.34 887Z" stroke="#ED1C24" stroke-opacity="0.02" stroke-width="3"/>
<path opacity="0.69697" d="M1054.34 889.12L495.273 1138.03C487.952 1141.29 479.364 1139.47 474.001 1133.51L64.5086 678.72C59.1458 672.77 58.228 664.04 62.2353 657.1L368.223 127.109C372.231 120.168 380.252 116.597 388.091 118.263L986.694 245.5C994.534 247.166 1000.41 253.691 1001.25 261.662L1065.22 870.29C1066.05 878.26 1061.66 885.86 1054.34 889.12Z" stroke="#ED1C24" stroke-opacity="0.02" stroke-width="3"/>
<path opacity="0.707071" d="M1053.22 891.11L491.127 1129.71C483.749 1132.84 475.194 1130.86 469.936 1124.82L69.3198 663.96C64.0617 657.91 63.2965 649.16 67.4243 642.29L381.928 118.873C386.055 112.003 394.137 108.572 401.947 110.375L996.937 247.74C1004.75 249.543 1010.51 256.169 1011.2 264.153L1064.43 872.47C1065.12 880.45 1060.6 887.98 1053.22 891.11Z" stroke="#ED1C24" stroke-opacity="0.02" stroke-width="3"/>
<path opacity="0.717172" d="M1052 892.99L487.058 1121.24C479.626 1124.24 471.107 1122.12 465.956 1115.98L74.3017 649.23C69.1499 643.09 68.5375 634.33 72.7847 627.53L395.667 110.81C399.914 104.013 408.055 100.724 415.832 102.663L1007.04 250.067C1014.81 252.006 1020.46 258.732 1021.02 266.727L1063.52 874.55C1064.08 882.54 1059.43 889.99 1052 892.99Z" stroke="#ED1C24" stroke-opacity="0.02" stroke-width="3"/>
<path opacity="0.727273" d="M1050.65 894.74L483.059 1112.62C475.576 1115.49 467.096 1113.22 462.052 1106.99L79.4441 634.51C74.4004 628.28 73.9409 619.51 78.3059 612.79L409.43 102.904C413.795 96.1829 421.992 93.036 429.733 95.111L1016.99 252.465C1024.73 254.539 1030.25 261.362 1030.67 269.366L1062.49 876.5C1062.91 884.51 1058.13 891.87 1050.65 894.74Z" stroke="#ED1C24" stroke-opacity="0.02" stroke-width="3"/>
<path opacity="0.737374" d="M1049.19 896.37L479.139 1103.85C471.608 1106.59 463.168 1104.17 458.234 1097.86L84.7526 619.82C79.8183 613.51 79.5119 604.73 83.9936 598.09L423.219 95.167C427.701 88.523 435.951 85.52 443.656 87.729L1026.79 254.94C1034.49 257.149 1039.9 264.068 1040.18 272.078L1061.35 878.34C1061.63 886.35 1056.72 893.63 1049.19 896.37Z" stroke="#ED1C24" stroke-opacity="0.02" stroke-width="3"/>
<path opacity="0.747475" d="M1047.62 897.87L475.298 1094.94C467.72 1097.55 459.323 1094.98 454.5 1088.58L90.2221 605.17C85.3987 598.77 85.2455 589.99 89.8425 583.42L437.028 87.592C441.625 81.027 449.926 78.168 457.591 80.511L1036.44 257.484C1044.11 259.827 1049.39 266.839 1049.53 274.852L1060.09 880.06C1060.23 888.07 1055.2 895.26 1047.62 897.87Z" stroke="#ED1C24" stroke-opacity="0.02" stroke-width="3"/>
<path opacity="0.757576" d="M1045.94 899.25L471.54 1085.89C463.918 1088.36 455.568 1085.65 450.857 1079.16L95.8562 590.55C91.1453 584.06 91.1453 575.28 95.8562 568.8L450.857 80.184C455.568 73.7 463.918 70.987 471.541 73.463L1045.94 260.098C1053.57 262.575 1058.73 269.678 1058.73 277.693V881.66C1058.73 889.67 1053.57 896.77 1045.94 899.25Z" stroke="#ED1C24" stroke-opacity="0.02" stroke-width="3"/>
<path opacity="0.767677" d="M1044.16 900.5L467.866 1076.69C460.202 1079.03 451.9 1076.17 447.303 1069.61L101.65 575.96C97.0529 569.398 97.2062 560.62 102.029 554.219L464.7 72.939C469.523 66.538 477.92 63.971 485.498 66.58L1055.29 262.777C1062.87 265.386 1067.91 272.578 1067.77 280.592L1057.25 883.13C1057.11 891.14 1051.83 898.15 1044.16 900.5Z" stroke="#ED1C24" stroke-opacity="0.02" stroke-width="3"/>
<path opacity="0.777778" d="M1042.28 901.61L464.277 1067.35C456.573 1069.56 448.322 1066.55 443.841 1059.91L107.602 561.414C103.12 554.769 103.427 545.995 108.361 539.679L478.554 65.854C483.488 59.539 491.928 57.118 499.459 59.86L1064.49 265.514C1072.02 268.255 1076.93 275.534 1076.65 283.544L1055.67 884.47C1055.39 892.48 1049.98 899.4 1042.28 901.61Z" stroke="#ED1C24" stroke-opacity="0.02" stroke-width="3"/>
<path opacity="0.787879" d="M1040.29 902.59L460.778 1057.87C453.036 1059.95 444.839 1056.8 440.474 1050.08L113.714 546.911C109.349 540.189 109.809 531.421 114.853 525.193L492.418 58.939C497.461 52.71 505.942 50.438 513.425 53.31L1073.53 268.315C1081.01 271.187 1085.8 278.551 1085.38 286.555L1053.98 885.69C1053.56 893.69 1048.03 900.52 1040.29 902.59Z" stroke="#ED1C24" stroke-opacity="0.02" stroke-width="3"/>
<path opacity="0.79798" d="M1038.21 903.44L457.37 1048.26C449.593 1050.2 441.453 1046.91 437.205 1040.11L119.984 532.45C115.737 525.653 116.35 516.895 121.502 510.755L506.288 52.185C511.44 46.045 519.959 43.921 527.39 46.924L1082.42 271.171C1089.85 274.173 1094.51 281.619 1093.95 289.614L1052.19 886.78C1051.63 894.77 1045.99 901.5 1038.21 903.44Z" stroke="#ED1C24" stroke-opacity="0.02" stroke-width="3"/>
<path opacity="0.808081" d="M1036.04 904.15L454.058 1038.51C446.248 1040.31 438.166 1036.88 434.039 1030.01L126.414 518.04C122.286 511.17 123.051 502.424 128.309 496.375L520.164 45.598C525.422 39.549 533.977 37.574 541.355 40.705L1091.16 274.084C1098.54 277.215 1103.06 284.741 1102.36 292.725L1050.3 887.74C1049.6 895.72 1043.84 902.35 1036.04 904.15Z" stroke="#ED1C24" stroke-opacity="0.02" stroke-width="3"/>
<path opacity="0.818182" d="M1033.77 904.73L450.839 1028.63C442.999 1030.3 434.978 1026.73 430.971 1019.79L132.996 503.679C128.988 496.738 129.906 488.006 135.269 482.05L534.038 39.173C539.401 33.217 547.989 31.391 555.31 34.651L1099.74 277.046C1107.06 280.306 1111.45 287.909 1110.61 295.88L1048.32 888.57C1047.48 896.54 1041.61 903.06 1033.77 904.73Z" stroke="#ED1C24" stroke-opacity="0.02" stroke-width="3"/>
<path opacity="0.828283" d="M1031.41 905.16L447.719 1018.62C439.852 1020.15 431.894 1016.44 428.009 1009.43L139.734 489.369C135.848 482.359 136.918 473.645 142.384 467.783L547.91 32.91C553.376 27.048 561.995 25.373 569.259 28.76L1108.16 280.055C1115.43 283.442 1119.68 291.121 1118.71 299.076L1046.24 889.26C1045.26 897.21 1039.28 903.64 1031.41 905.16Z" stroke="#ED1C24" stroke-opacity="0.02" stroke-width="3"/>
<path opacity="0.838384" d="M1028.97 905.46L444.699 1008.48C436.806 1009.88 428.915 1006.03 425.152 998.95L146.624 475.116C142.862 468.039 144.084 459.345 149.651 453.58L561.777 26.81C567.345 21.045 575.992 19.52 583.195 23.034L1116.43 283.11C1123.63 286.624 1127.76 294.376 1126.64 302.313L1044.07 889.82C1042.96 897.75 1036.86 904.07 1028.97 905.46Z" stroke="#ED1C24" stroke-opacity="0.02" stroke-width="3"/>
<path opacity="0.848485" d="M1026.43 905.62L441.779 998.22C433.863 999.47 426.04 995.49 422.401 988.34L153.664 460.918C150.026 453.777 151.399 445.105 157.067 439.438L575.634 20.87C581.301 15.203 589.973 13.83 597.114 17.468L1124.54 286.205C1131.68 289.844 1135.67 297.667 1134.41 305.583L1041.81 890.24C1040.56 898.15 1034.35 904.36 1026.43 905.62Z" stroke="#ED1C24" stroke-opacity="0.02" stroke-width="3"/>
<path opacity="0.858586" d="M1023.83 905.63L438.967 987.83C431.03 988.95 423.278 984.82 419.764 977.62L160.859 446.785C157.345 439.582 158.87 430.935 164.635 425.368L589.483 15.097C595.248 9.529 603.943 8.30702 611.02 12.07L1132.5 289.344C1139.57 293.106 1143.42 300.998 1142.03 308.891L1039.47 890.53C1038.08 898.42 1031.76 904.52 1023.83 905.63Z" stroke="#ED1C24" stroke-opacity="0.02" stroke-width="3"/>
<path opacity="0.868687" d="M1021.14 905.51L436.259 977.32C428.304 978.3 420.625 974.04 417.237 966.78L168.2 432.714C164.813 425.45 166.488 416.832 172.35 411.366L603.316 9.48297C609.178 4.01697 617.893 2.94697 624.902 6.83197L1140.29 292.517C1147.3 296.403 1151.01 304.36 1149.48 312.228L1037.04 890.67C1035.52 898.54 1029.09 904.53 1021.14 905.51Z" stroke="#ED1C24" stroke-opacity="0.02" stroke-width="3"/>
<path opacity="0.878788" d="M1018.37 905.23L433.658 966.69C425.687 967.53 418.083 963.14 414.823 955.81L175.688 418.707C172.428 411.385 174.253 402.797 180.209 397.434L617.132 4.02699C623.088 -1.33501 631.82 -2.25302 638.761 1.75398L1147.93 295.723C1154.87 299.73 1158.44 307.751 1156.78 315.591L1034.54 890.68C1032.87 898.52 1026.35 904.39 1018.37 905.23Z" stroke="#ED1C24" stroke-opacity="0.02" stroke-width="3"/>
<path opacity="0.888889" d="M1015.54 904.81L431.168 955.94C423.184 956.64 415.658 952.12 412.527 944.74L183.323 404.769C180.191 397.391 182.166 388.836 188.215 383.578L630.929 -1.26704C636.978 -6.52504 645.725 -7.29103 652.594 -3.16303L1155.41 298.96C1162.28 303.087 1165.71 311.17 1163.91 318.979L1031.95 890.55C1030.15 898.36 1023.52 904.12 1015.54 904.81Z" stroke="#ED1C24" stroke-opacity="0.02" stroke-width="3"/>
<path opacity="0.89899" d="M1012.63 904.25L428.79 945.08C420.794 945.63 413.349 940.98 410.346 933.55L191.102 390.901C188.099 383.47 190.223 374.951 196.363 369.799L644.703 -6.40301C650.843 -11.554 659.601 -12.167 666.398 -7.92001L1162.73 302.224C1169.53 306.471 1172.82 314.612 1170.88 322.389L1029.29 890.27C1027.35 898.05 1020.63 903.69 1012.63 904.25Z" stroke="#ED1C24" stroke-opacity="0.02" stroke-width="3"/>
<path opacity="0.909091" d="M1009.66 903.54L426.524 934.1C418.521 934.52 411.157 929.73 408.285 922.25L199.023 377.106C196.151 369.623 198.423 361.142 204.652 356.098L658.451 -11.381C664.68 -16.425 673.448 -16.884 680.169 -12.519L1169.9 305.512C1176.62 309.877 1179.76 318.074 1177.69 325.816L1026.56 889.85C1024.48 897.59 1017.66 903.12 1009.66 903.54Z" stroke="#ED1C24" stroke-opacity="0.02" stroke-width="3"/>
<path opacity="0.919192" d="M1006.61 902.68L424.374 923.01C416.365 923.29 409.086 918.38 406.344 910.85L207.085 363.387C204.344 355.856 206.764 347.416 213.08 342.481L672.171 -16.2C678.487 -21.134 687.261 -21.441 693.906 -16.959L1176.9 308.824C1183.54 313.306 1186.55 321.556 1184.34 329.261L1023.75 889.29C1021.54 896.99 1014.62 902.4 1006.61 902.68Z" stroke="#ED1C24" stroke-opacity="0.02" stroke-width="3"/>
<path opacity="0.929293" d="M1003.51 901.67L422.342 911.81C414.329 911.95 407.137 906.92 404.527 899.34L215.288 349.746C212.678 342.168 215.245 333.772 221.646 328.949L685.861 -20.862C692.262 -25.686 701.04 -25.839 707.606 -21.242L1183.75 312.155C1190.31 316.752 1193.17 325.054 1190.83 332.718L1020.88 888.58C1018.54 896.24 1011.53 901.53 1003.51 901.67Z" stroke="#ED1C24" stroke-opacity="0.02" stroke-width="3"/>
<path opacity="0.939394" d="M1000.35 900.51H420.43C412.415 900.51 405.312 895.35 402.835 887.73L223.629 336.186C221.152 328.563 223.865 320.213 230.349 315.502L699.518 -25.369C706.002 -30.08 714.782 -30.08 721.266 -25.369L1190.43 315.502C1196.92 320.213 1199.63 328.563 1197.15 336.186L1017.95 887.73C1015.47 895.35 1008.37 900.51 1000.35 900.51Z" stroke="#ED1C24" stroke-opacity="0.02" stroke-width="3"/>
<path opacity="0.949495" d="M997.135 899.2L418.634 889.1C410.62 888.96 403.608 883.68 401.265 876.01L232.102 322.704C229.759 315.039 232.617 306.738 239.183 302.141L713.135 -29.724C719.7 -34.321 728.479 -34.168 734.88 -29.345L1196.96 318.859C1203.36 323.682 1205.93 332.078 1203.32 339.656L1014.95 886.72C1012.34 894.3 1005.15 899.34 997.135 899.2Z" stroke="#ED1C24" stroke-opacity="0.02" stroke-width="3"/>
<path opacity="0.959596" d="M993.865 897.74L416.963 877.59C408.953 877.31 402.035 871.91 399.826 864.2L240.713 309.313C238.504 301.608 241.507 293.358 248.151 288.876L726.716 -33.92C733.36 -38.402 742.135 -38.095 748.451 -33.161L1203.33 322.232C1209.65 327.166 1212.07 335.606 1209.33 343.137L1011.89 885.58C1009.15 893.11 1001.87 898.02 993.865 897.74Z" stroke="#ED1C24" stroke-opacity="0.02" stroke-width="3"/>
<path opacity="0.969697" d="M990.544 896.12L415.415 865.98C407.411 865.56 400.588 860.04 398.514 852.3L249.455 296.002C247.381 288.261 250.527 280.064 257.249 275.699L740.254 -37.969C746.976 -42.334 755.744 -41.874 761.973 -36.83L1209.54 325.606C1215.77 330.65 1218.05 339.131 1215.17 346.613L1008.78 884.28C1005.91 891.76 998.547 896.54 990.544 896.12Z" stroke="#ED1C24" stroke-opacity="0.02" stroke-width="3"/>
<path opacity="0.979798" d="M987.176 894.36L413.993 854.28C405.998 853.72 399.272 848.08 397.333 840.3L258.329 282.786C256.39 275.009 259.679 266.869 266.476 262.622L753.75 -41.861C760.547 -46.108 769.305 -45.495 775.445 -40.343L1215.6 328.991C1221.74 334.143 1223.86 342.662 1220.86 350.093L1005.62 882.84C1002.62 890.27 995.171 894.92 987.176 894.36Z" stroke="#ED1C24" stroke-opacity="0.02" stroke-width="3"/>
<path opacity="0.989899" d="M983.763 892.44L412.698 842.48C404.713 841.78 398.087 836.02 396.284 828.21L267.332 269.659C265.529 261.85 268.959 253.768 275.829 249.64L767.198 -45.604C774.068 -49.732 782.814 -48.9671 788.863 -43.7091L1221.5 332.375C1227.55 337.633 1229.52 346.188 1226.39 353.566L1002.4 881.24C999.273 888.62 991.747 893.14 983.763 892.44Z" stroke="#ED1C24" stroke-opacity="0.02" stroke-width="3"/>
<path d="M980.306 890.37L411.527 830.59C403.556 829.75 397.032 823.88 395.365 816.04L276.458 256.623C274.792 248.783 278.363 240.762 285.304 236.755L780.594 -49.201C787.535 -53.208 796.267 -52.29 802.223 -46.927L1227.24 335.756C1233.19 341.119 1235.02 349.707 1231.76 357.029L999.14 879.5C995.88 886.82 988.276 891.21 980.306 890.37Z" stroke="#ED1C24" stroke-opacity="0.02" stroke-width="3"/>
</g>
</g>
<defs>
<clipPath id="clip0_31_1146">
<rect width="1194" height="1571" fill="white"/>
</clipPath>
<clipPath id="clip1_31_1146">
<rect width="1194" height="2322" fill="white" transform="translate(0 -425)"/>
</clipPath>
</defs>
</svg>
