<svg width="24" height="24" viewBox="0 0 24 24" fill="none" xmlns="http://www.w3.org/2000/svg">
<path d="M10.6041 7.34248C11.0694 6.83248 11.0332 6.04185 10.5232 5.57656C10.0132 5.11128 9.22254 5.14752 8.75726 5.65752L10.6041 7.34248ZM4.25586 12.4462L3.33242 11.6037C2.88596 12.093 2.89879 12.8457 3.36165 13.3196L4.25586 12.4462ZM8.78649 18.8734C9.26887 19.3673 10.0603 19.3766 10.5541 18.8942C11.048 18.4118 11.0573 17.6204 10.5749 17.1266L8.78649 18.8734ZM8.75726 5.65752L3.33242 11.6037L5.1793 13.2886L10.6041 7.34248L8.75726 5.65752ZM3.36165 13.3196L8.78649 18.8734L10.5749 17.1266L5.15007 11.5727L3.36165 13.3196Z" fill="white"/>
<path d="M4.16016 12.4805H20.7202" stroke="white" stroke-width="2.5" stroke-linecap="round"/>
</svg>
