<svg width="557" height="96" viewBox="0 0 557 96" fill="none" xmlns="http://www.w3.org/2000/svg">
<g clip-path="url(#clip0_249_4160)">
<rect width="557" height="96" fill="white"/>
<g clip-path="url(#clip1_249_4160)">
<path opacity="0.020202" d="M-35.2699 205.759L100.757 244.765C108.461 246.974 116.712 243.971 121.194 237.326L200.324 120.01C204.806 113.366 204.5 104.591 199.565 98.2753L112.444 -13.2352C107.51 -19.5509 99.0696 -21.971 91.5383 -19.2298L-41.4366 29.1691C-48.9679 31.9103 -53.8776 39.1893 -53.5979 47.1991L-48.6593 188.622C-48.3796 196.632 -42.9741 203.55 -35.2699 205.759Z" stroke="#666B6F" stroke-opacity="0.1" stroke-width="3"/>
<path opacity="0.030303" d="M-34.9447 208.075L101.441 244.62C109.183 246.694 117.38 243.547 121.745 236.826L198.646 118.408C203.011 111.686 202.552 102.918 197.508 96.6897L108.65 -13.0411C103.606 -19.2696 95.1251 -21.5421 87.6427 -18.6699L-44.1761 31.9307C-51.6585 34.8029 -56.4404 42.1664 -56.0209 50.1701L-48.6312 191.174C-48.2118 199.177 -42.6863 206.001 -34.9447 208.075Z" stroke="#666B6F" stroke-opacity="0.1" stroke-width="3"/>
<path opacity="0.040404" d="M-34.5976 210.351L102.103 244.434C109.879 246.373 118.02 243.084 122.267 236.287L196.925 116.81C201.172 110.013 200.56 101.254 195.408 95.1146L104.849 -12.8097C99.6969 -18.9494 91.1776 -21.0734 83.7466 -18.0711L-46.8799 34.7054C-54.311 37.7078 -58.9637 45.1537 -58.4046 53.1488L-48.577 193.691C-48.0179 201.686 -42.3742 208.412 -34.5976 210.351Z" stroke="#666B6F" stroke-opacity="0.1" stroke-width="3"/>
<path opacity="0.050505" d="M-34.2252 212.592L102.745 244.214C110.555 246.017 118.637 242.587 122.765 235.717L195.165 115.222C199.293 108.352 198.528 99.6053 193.27 93.5566L101.045 -12.5355C95.7872 -18.5843 87.2322 -20.5594 79.8546 -17.4278L-49.5439 37.4987C-56.9214 40.6302 -61.4435 48.1562 -60.745 56.1404L-48.4932 196.179C-47.7946 204.163 -42.0344 210.789 -34.2252 212.592Z" stroke="#666B6F" stroke-opacity="0.1" stroke-width="3"/>
<path opacity="0.0606061" d="M-33.8299 214.799L103.367 243.961C111.206 245.627 119.227 242.056 123.234 235.115L193.365 113.645C197.373 106.704 196.455 97.9722 191.092 92.0161L97.2386 -12.2185C91.8757 -18.1746 83.2876 -20.0001 75.9658 -16.7402L-52.1695 40.3093C-59.4913 43.5692 -63.8813 51.1729 -63.0435 59.1437L-48.3822 198.637C-47.5444 206.608 -41.6694 213.132 -33.8299 214.799Z" stroke="#666B6F" stroke-opacity="0.1" stroke-width="3"/>
<path opacity="0.0707071" d="M-33.4137 216.973L103.965 243.676C111.832 245.205 119.79 241.495 123.675 234.485L191.524 112.082C195.41 105.072 194.34 96.3579 188.874 90.4963L93.4282 -11.8564C87.9622 -17.718 79.3435 -19.3933 72.0797 -16.0061L-54.7578 43.1392C-62.0215 46.5263 -66.2782 54.2055 -65.3014 62.1605L-48.2459 201.067C-47.2691 209.022 -41.2811 215.443 -33.4137 216.973Z" stroke="#666B6F" stroke-opacity="0.1" stroke-width="3"/>
<path opacity="0.0808081" d="M-32.9774 219.1L104.539 243.348C112.432 244.739 120.323 240.89 124.086 233.814L189.642 110.521C193.405 103.444 192.183 94.7498 186.615 88.9845L89.6148 -11.4626C84.0473 -17.2279 75.4007 -18.7525 68.1971 -15.2391L-57.3086 45.9741C-64.5121 49.4875 -68.6341 57.2398 -67.5187 65.1765L-48.0848 203.455C-46.9694 211.392 -40.8703 217.708 -32.9774 219.1Z" stroke="#666B6F" stroke-opacity="0.1" stroke-width="3"/>
<path opacity="0.0909091" d="M-32.5173 221.198L105.093 242.993C113.009 244.247 120.833 240.261 124.471 233.12L187.724 108.98C191.362 101.839 189.989 93.1666 184.322 87.4993L85.8033 -11.0191C80.136 -16.6863 71.4641 -18.0598 64.323 -14.4212L-59.8175 48.8315C-66.9586 52.4701 -70.9446 60.2931 -69.6909 68.2092L-47.8955 205.82C-46.6417 213.736 -40.4333 219.944 -32.5173 221.198Z" stroke="#666B6F" stroke-opacity="0.1" stroke-width="3"/>
<path opacity="0.10101" d="M-32.0396 223.251L105.622 242.598C113.558 243.714 121.311 239.592 124.824 232.388L185.764 107.443C189.277 100.24 187.753 91.593 181.987 86.0255L81.989 -10.5419C76.2237 -16.1093 67.5292 -17.3313 60.4526 -13.5686L-62.2897 51.6946C-69.3662 55.4573 -73.2151 63.3487 -71.8234 71.2417L-47.6838 208.144C-46.2921 216.037 -39.9763 222.136 -32.0396 223.251Z" stroke="#666B6F" stroke-opacity="0.1" stroke-width="3"/>
<path opacity="0.111111" d="M-31.5428 225.276L106.126 242.179C114.081 243.156 121.76 238.899 125.147 231.636L183.765 105.928C187.152 98.6647 185.477 90.046 179.615 84.58L78.1749 -10.0148C72.3134 -15.4808 63.5988 -16.5509 56.589 -12.6653L-64.7229 54.579C-71.7327 58.4646 -75.4433 66.422 -73.914 74.2894L-47.4483 210.443C-45.9191 218.311 -39.4978 224.299 -31.5428 225.276Z" stroke="#666B6F" stroke-opacity="0.1" stroke-width="3"/>
<path opacity="0.121212" d="M-31.0271 227.256L106.605 241.722C114.576 242.559 122.18 238.169 125.44 230.848L181.728 104.422C184.988 97.0997 183.163 88.5116 177.207 83.1487L74.3624 -9.45267C68.4063 -14.8155 59.6744 -15.7333 52.7334 -11.726L-67.1163 57.4693C-74.0572 61.4767 -77.6284 69.4976 -75.962 77.3372L-47.189 212.704C-45.5227 220.543 -38.9978 226.418 -31.0271 227.256Z" stroke="#666B6F" stroke-opacity="0.1" stroke-width="3"/>
<path opacity="0.131313" d="M-30.4929 229.198L107.06 241.232C115.045 241.931 122.571 237.409 125.702 230.031L179.654 102.929C182.785 95.5514 180.81 86.9964 174.762 81.7383L70.5522 -8.84954C64.5034 -14.1076 55.7568 -14.8729 48.8869 -10.745L-69.4697 60.3708C-76.3397 64.4987 -79.7703 72.5808 -77.9674 80.39L-46.9064 214.93C-45.1035 222.739 -38.4771 228.499 -30.4929 229.198Z" stroke="#666B6F" stroke-opacity="0.1" stroke-width="3"/>
<path opacity="0.141414" d="M-29.9426 231.099L107.489 240.71C115.484 241.269 122.93 236.616 125.932 229.185L177.541 101.45C180.543 94.0185 178.419 85.4993 172.279 80.3475L66.7436 -8.20734C60.604 -13.3591 51.8454 -13.9715 45.0485 -9.72441L-71.7844 63.2809C-78.5813 67.5281 -81.8703 75.6688 -79.9314 83.4454L-46.6026 217.12C-44.6636 224.897 -37.9377 230.54 -29.9426 231.099Z" stroke="#666B6F" stroke-opacity="0.1" stroke-width="3"/>
<path opacity="0.151515" d="M-29.376 232.966L107.891 240.16C115.894 240.579 123.258 235.797 126.13 228.315L175.39 99.9894C178.262 92.5071 175.989 84.0262 169.761 78.9824L62.9382 -7.52088C56.7096 -12.5647 47.9416 -13.0242 41.2199 -8.65909L-74.0596 66.2043C-80.7813 70.5694 -83.9278 78.7663 -81.8535 86.5079L-46.2774 219.279C-44.2031 227.021 -37.3797 232.546 -29.376 232.966Z" stroke="#666B6F" stroke-opacity="0.1" stroke-width="3"/>
<path opacity="0.161616" d="M-28.792 234.79L108.268 239.576C116.277 239.856 123.556 234.946 126.298 227.415L173.203 98.5423C175.945 91.011 173.524 82.5711 167.209 77.6368L59.1384 -6.79704C52.8228 -11.7314 44.0481 -12.0378 37.4036 -7.55603L-76.2933 69.1335C-82.9378 73.6153 -85.9407 81.8658 -83.7316 89.57L-45.9297 221.401C-43.7206 229.105 -36.8018 234.51 -28.792 234.79Z" stroke="#666B6F" stroke-opacity="0.1" stroke-width="3"/>
<path opacity="0.171717" d="M-28.1944 236.581L108.616 238.969C116.63 239.109 123.822 234.073 126.431 226.495L170.979 97.1178C173.588 89.5398 171.021 81.1434 164.621 76.32L55.3421 -6.02719C48.9413 -10.8505 40.1626 -11.0038 33.5974 -6.40675L-78.4884 72.0766C-85.0536 76.6736 -87.9121 84.9753 -85.5689 92.6398L-45.5632 223.492C-43.2199 231.157 -36.2079 236.441 -28.1944 236.581Z" stroke="#666B6F" stroke-opacity="0.1" stroke-width="3"/>
<path opacity="0.181818" d="M-27.5855 238.323L108.934 238.323C116.949 238.323 124.052 233.162 126.529 225.54L168.716 95.7018C171.192 88.0794 168.479 79.7291 161.995 75.0182L51.5484 -5.22599C45.0644 -9.93691 36.2843 -9.93692 29.8003 -5.226L-80.6464 75.0182C-87.1304 79.7291 -89.8436 88.0794 -87.3669 95.7018L-45.18 225.54C-42.7033 233.162 -35.6002 238.323 -27.5855 238.323Z" stroke="#666B6F" stroke-opacity="0.1" stroke-width="3"/>
<path opacity="0.191919" d="M-26.9614 240.03L109.226 237.653C117.239 237.513 124.251 232.229 126.594 224.564L166.418 94.3082C168.761 86.6437 165.902 78.342 159.337 73.745L47.7623 -4.38062C41.1971 -8.97765 32.4184 -8.82442 26.0176 -4.00106L-82.7628 77.9709C-89.1636 82.7942 -91.7307 91.1906 -89.1213 98.7686L-44.7764 227.556C-42.1671 235.134 -34.9749 240.17 -26.9614 240.03Z" stroke="#666B6F" stroke-opacity="0.1" stroke-width="3"/>
<path opacity="0.20202" d="M-26.321 241.7L109.492 236.957C117.502 236.677 124.421 231.272 126.63 223.568L164.088 92.936C166.297 85.2318 163.294 76.9813 156.65 72.4995L43.9868 -3.49251C37.3423 -7.97426 28.5676 -7.66786 22.252 -2.73352L-84.8355 80.9324C-91.1512 85.8667 -93.5713 94.3066 -90.8301 101.838L-44.3509 229.538C-41.6097 237.07 -34.3308 241.979 -26.321 241.7Z" stroke="#666B6F" stroke-opacity="0.1" stroke-width="3"/>
<path opacity="0.212121" d="M-25.6734 243.324L109.725 236.228C117.729 235.808 124.552 230.283 126.626 222.541L161.718 91.5771C163.792 83.8356 160.646 75.6387 153.924 71.2736L40.2139 -2.57081C33.4922 -6.93592 24.7242 -6.4764 18.4956 -1.4326L-86.8731 83.8933C-93.1016 88.9371 -95.3741 97.4179 -92.5019 104.9L-43.9128 231.479C-41.0406 238.961 -33.6771 243.743 -25.6734 243.324Z" stroke="#666B6F" stroke-opacity="0.1" stroke-width="3"/>
<path opacity="0.222222" d="M-25.0153 244.915L109.928 235.479C117.923 234.92 124.649 229.276 126.587 221.5L159.313 90.2454C161.252 82.4688 157.963 74.3281 151.166 70.081L36.4484 -1.60242C29.6516 -5.84955 20.893 -5.23709 14.7534 -0.0853512L-88.8712 86.866C-95.0108 92.0178 -97.1349 100.537 -94.1325 107.968L-43.4587 233.39C-40.4563 240.821 -33.0104 245.474 -25.0153 244.915Z" stroke="#666B6F" stroke-opacity="0.1" stroke-width="3"/>
<path opacity="0.232323" d="M-24.3429 246.459L110.104 234.696C118.088 233.998 124.715 228.237 126.517 220.428L156.877 88.9266C158.68 81.1173 155.249 73.0353 148.379 68.9074L32.6956 -0.602389C25.8257 -4.73026 17.0791 -3.96504 11.0303 1.29307L-90.8256 89.8351C-96.8744 95.0932 -98.8495 103.648 -95.7179 111.026L-42.9847 235.258C-39.8531 242.635 -32.3271 247.157 -24.3429 246.459Z" stroke="#666B6F" stroke-opacity="0.1" stroke-width="3"/>
<path opacity="0.242424" d="M-23.6623 247.967L110.249 233.893C118.22 233.055 124.744 227.18 126.411 219.34L154.406 87.634C156.072 79.7944 152.501 71.7735 145.56 67.7661L28.9508 0.441781C22.0099 -3.56556 13.278 -2.6478 7.32188 2.71508L-92.7416 92.8126C-98.6977 98.1755 -100.523 106.764 -97.2633 114.085L-42.4967 237.093C-39.2368 244.415 -31.6331 248.805 -23.6623 247.967Z" stroke="#666B6F" stroke-opacity="0.1" stroke-width="3"/>
<path opacity="0.252525" d="M-22.9736 249.43L110.362 233.058C118.317 232.081 124.738 226.093 126.267 218.226L151.9 86.3573C153.429 78.4899 149.719 70.5325 142.709 66.6469L25.2154 1.51913C18.2056 -2.36647 9.49098 -1.29646 3.62941 4.16955L-94.6183 95.787C-100.48 101.253 -102.155 109.872 -98.768 117.136L-41.9948 238.886C-38.6077 246.15 -30.9285 250.406 -22.9736 249.43Z" stroke="#666B6F" stroke-opacity="0.1" stroke-width="3"/>
<path opacity="0.262626" d="M-22.2784 250.856L110.442 232.204C118.379 231.088 124.695 224.989 126.086 217.096L149.36 85.1073C150.751 77.2144 146.903 69.323 139.826 65.5603L21.4889 2.63938C14.4123 -1.12328 5.71776 0.0986675 -0.0475219 5.66614L-96.4571 98.7678C-102.222 104.335 -103.747 112.982 -100.234 120.185L-41.4808 240.646C-37.9674 247.85 -30.2151 251.972 -22.2784 250.856Z" stroke="#666B6F" stroke-opacity="0.1" stroke-width="3"/>
<path opacity="0.272727" d="M-21.5737 252.243L110.493 231.325C118.409 230.072 124.618 223.863 125.871 215.947L146.789 83.8802C148.043 75.9642 144.056 68.1411 136.915 64.5025L17.776 3.79804C10.6349 0.159449 1.96298 1.53295 -3.70426 7.20019L-98.2537 101.75C-103.921 107.417 -105.294 116.089 -101.656 123.23L-40.9514 242.369C-37.3128 249.51 -29.4897 253.496 -21.5737 252.243Z" stroke="#666B6F" stroke-opacity="0.1" stroke-width="3"/>
<path opacity="0.282828" d="M-20.8629 253.586L110.512 230.421C118.405 229.029 124.504 222.714 125.619 214.777L144.185 82.6739C145.3 74.7372 141.178 66.9849 133.975 63.4714L14.0746 4.99218C6.87108 1.47878 -1.77556 3.00341 -7.34303 8.76869L-100.011 104.73C-105.579 110.495 -106.801 119.189 -103.038 126.266L-40.41 244.052C-36.6473 251.129 -28.7559 254.978 -20.8629 253.586Z" stroke="#666B6F" stroke-opacity="0.1" stroke-width="3"/>
<path opacity="0.292929" d="M-20.1461 254.891L110.498 229.496C118.366 227.967 124.354 221.545 125.33 213.59L141.55 81.4929C142.527 73.538 138.27 65.8588 131.006 62.4717L10.3861 6.22563C3.1223 2.83848 -5.4964 4.51379 -10.9624 10.3754L-101.729 107.711C-107.195 113.572 -108.265 122.287 -104.38 129.297L-39.8566 245.7C-35.971 252.709 -28.0136 256.42 -20.1461 254.891Z" stroke="#666B6F" stroke-opacity="0.1" stroke-width="3"/>
<path opacity="0.30303" d="M-19.4235 256.154L110.453 228.548C118.292 226.882 124.167 220.357 125.005 212.386L138.884 80.3358C139.722 72.365 135.332 64.7613 128.01 61.5014L6.71146 7.49586C-0.61032 4.236 -9.19847 6.06147 -14.5613 12.0175L-103.407 110.691C-108.77 116.647 -109.688 125.379 -105.68 132.319L-39.2914 247.308C-35.284 254.249 -27.2631 257.82 -19.4235 256.154Z" stroke="#666B6F" stroke-opacity="0.1" stroke-width="3"/>
<path opacity="0.313131" d="M-18.699 257.375L110.372 227.576C118.181 225.773 123.941 219.147 124.64 211.163L136.185 79.201C136.883 71.2168 132.361 63.6908 124.984 60.5592L3.04843 8.80072C-4.32912 5.66913 -12.8841 7.6442 -18.1422 13.693L-105.048 113.666C-110.306 119.715 -111.071 128.462 -106.943 135.332L-38.7182 248.877C-34.5903 255.747 -26.5082 259.177 -18.699 257.375Z" stroke="#666B6F" stroke-opacity="0.1" stroke-width="3"/>
<path opacity="0.323232" d="M-17.9687 258.555L110.26 226.584C118.036 224.645 123.68 217.919 124.239 209.924L133.458 78.0919C134.017 70.0968 129.364 62.6509 121.933 59.6485L-0.598017 10.1428C-8.0291 7.1404 -16.5483 9.26448 -21.7001 15.4041L-106.647 116.64C-111.799 122.78 -112.411 131.538 -108.164 138.335L-38.1331 250.408C-33.886 257.205 -25.7453 260.494 -17.9687 258.555Z" stroke="#666B6F" stroke-opacity="0.1" stroke-width="3"/>
<path opacity="0.333333" d="M-17.2364 259.695L110.113 225.571C117.855 223.497 123.38 216.674 123.8 208.67L130.7 77.0085C131.119 69.0048 126.337 61.6413 118.855 58.7691L-4.23013 11.5211C-11.7125 8.6489 -20.1933 10.9213 -25.2371 17.1499L-108.208 119.61C-113.252 125.839 -113.711 134.607 -109.346 141.329L-37.5399 251.901C-33.1748 258.623 -24.9779 261.769 -17.2364 259.695Z" stroke="#666B6F" stroke-opacity="0.1" stroke-width="3"/>
<path opacity="0.343434" d="M-16.5003 260.798L109.935 224.544C117.639 222.335 123.044 215.416 123.324 207.406L127.915 75.9559C128.194 67.9461 123.285 60.6671 115.753 57.9259L-7.84487 12.9399C-15.3762 10.1987 -23.8161 12.6188 -28.7505 18.9344L-109.729 122.582C-114.663 128.897 -114.969 137.672 -110.488 144.317L-36.9368 253.36C-32.455 260.005 -24.2045 263.008 -16.5003 260.798Z" stroke="#666B6F" stroke-opacity="0.1" stroke-width="3"/>
<path opacity="0.353535" d="M-15.7641 261.859L109.721 223.494C117.385 221.151 122.669 214.139 122.809 206.125L125.099 74.9269C125.239 66.9134 120.203 59.7212 112.625 57.1119L-11.4446 14.3913C-19.0226 11.782 -27.419 14.349 -32.2424 20.7499L-111.212 125.546C-116.035 131.946 -116.188 140.725 -111.591 147.29L-36.3273 254.778C-31.7303 261.344 -23.4286 264.202 -15.7641 261.859Z" stroke="#666B6F" stroke-opacity="0.1" stroke-width="3"/>
<path opacity="0.363636" d="M-15.0277 262.879L109.472 222.427C117.094 219.95 122.255 212.847 122.255 204.832L122.255 73.9253C122.255 65.9106 117.094 58.8074 109.472 56.3307L-15.0277 15.8783C-22.6501 13.4016 -31.0004 16.1148 -35.7114 22.5988L-112.656 128.505C-117.367 134.989 -117.367 143.769 -112.656 150.253L-35.7114 256.158C-31.0005 262.642 -22.6501 265.356 -15.0277 262.879Z" stroke="#666B6F" stroke-opacity="0.1" stroke-width="3"/>
<path opacity="0.373737" d="M-14.2914 263.854L109.188 221.337C116.767 218.728 121.802 211.535 121.663 203.522L119.383 72.947C119.244 64.9336 113.96 57.9215 106.295 55.5782L-18.5933 17.396C-26.2578 15.0528 -34.5595 17.9113 -39.1565 24.4765L-114.063 131.453C-118.66 138.019 -118.506 146.797 -113.683 153.198L-35.0891 257.496C-30.2658 263.897 -21.8694 266.464 -14.2914 263.854Z" stroke="#666B6F" stroke-opacity="0.1" stroke-width="3"/>
<path opacity="0.383838" d="M-13.5566 264.797L108.869 220.237C116.401 217.496 121.31 210.217 121.031 202.207L116.484 72.0037C116.204 63.9939 110.799 57.0752 103.095 54.866L-22.1416 18.9552C-29.8458 16.746 -38.0963 19.749 -42.5781 26.3934L-115.431 134.403C-119.913 141.047 -119.607 149.822 -114.672 156.138L-34.4622 258.802C-29.5279 265.118 -21.088 267.538 -13.5566 264.797Z" stroke="#666B6F" stroke-opacity="0.1" stroke-width="3"/>
<path opacity="0.393939" d="M-12.8179 265.688L108.521 219.111C116.003 216.239 120.785 208.875 120.366 200.871L113.563 71.0783C113.144 63.0746 107.619 56.2512 99.8769 54.1768L-25.6657 20.5378C-33.4073 18.4635 -41.6041 21.6099 -45.9692 28.3316L-116.757 137.335C-121.122 144.056 -120.662 152.824 -115.618 159.053L-33.8249 260.06C-28.7811 266.288 -20.3002 268.561 -12.8179 265.688Z" stroke="#666B6F" stroke-opacity="0.1" stroke-width="3"/>
<path opacity="0.40404" d="M-12.0881 266.548L108.13 217.977C115.561 214.975 120.214 207.529 119.655 199.534L110.61 70.1903C110.051 62.1951 104.407 55.4692 96.6307 53.5303L-29.1772 22.1628C-36.9538 20.2239 -45.0945 23.513 -49.3417 30.3098L-118.051 140.267C-122.298 147.064 -121.685 155.823 -116.534 161.962L-33.1902 261.287C-28.0384 267.427 -19.5192 269.551 -12.0881 266.548Z" stroke="#666B6F" stroke-opacity="0.1" stroke-width="3"/>
<path opacity="0.414141" d="M-11.3579 267.365L107.707 216.825C115.085 213.694 119.607 206.168 118.908 198.183L107.635 69.3281C106.936 61.3439 101.176 54.7175 93.3669 52.9146L-32.6655 23.8177C-40.4748 22.0148 -48.5568 25.4454 -52.6847 32.3153L-119.304 143.188C-123.432 150.058 -122.666 158.804 -117.408 164.853L-32.5485 262.473C-27.2904 268.522 -18.7354 270.497 -11.3579 267.365Z" stroke="#666B6F" stroke-opacity="0.1" stroke-width="3"/>
<path opacity="0.424242" d="M-10.6329 268.141L107.247 215.657C114.569 212.398 118.959 204.794 118.121 196.823L104.633 68.4943C103.795 60.5235 97.9204 53.9987 90.0809 52.3323L-36.1351 25.5043C-43.9746 23.8379 -51.9956 27.4091 -56.0029 34.35L-120.521 146.098C-124.528 153.039 -123.61 161.771 -118.247 167.727L-31.9057 263.619C-26.5428 269.575 -17.9547 271.401 -10.6329 268.141Z" stroke="#666B6F" stroke-opacity="0.1" stroke-width="3"/>
<path opacity="0.434343" d="M-9.91268 268.882L106.751 214.481C114.015 211.094 118.271 203.415 117.294 195.46L101.607 67.6957C100.63 59.7407 94.6423 53.3194 86.7748 51.7901L-39.5841 27.2285C-47.4515 25.6992 -55.4089 29.4098 -59.2945 36.4196L-121.701 149.004C-125.587 156.014 -124.517 164.728 -119.051 170.59L-31.2612 264.733C-25.7952 270.594 -17.1764 272.27 -9.91268 268.882Z" stroke="#666B6F" stroke-opacity="0.1" stroke-width="3"/>
<path opacity="0.444444" d="M-9.19737 269.578L106.219 213.285C113.422 209.772 117.544 202.02 116.429 194.083L98.5572 66.9208C97.4418 58.9841 91.3427 52.6682 83.4497 51.2765L-43.0114 28.978C-50.9044 27.5863 -58.7958 31.4352 -62.5585 38.5117L-122.844 151.893C-126.607 158.969 -125.385 167.664 -119.818 173.429L-30.615 265.801C-25.0475 271.566 -16.4009 273.091 -9.19737 269.578Z" stroke="#666B6F" stroke-opacity="0.1" stroke-width="3"/>
<path opacity="0.454545" d="M-8.48669 270.24L105.651 212.083C112.793 208.445 116.779 200.622 115.525 192.706L95.4856 66.1826C94.2318 58.2665 88.0234 52.0581 80.1074 50.8044L-46.4158 30.7651C-54.3318 29.5113 -62.1548 33.4974 -65.7934 40.6385L-123.95 154.777C-127.588 161.918 -126.215 170.59 -120.548 176.257L-29.967 266.837C-24.2997 272.505 -15.6278 273.878 -8.48669 270.24Z" stroke="#666B6F" stroke-opacity="0.1" stroke-width="3"/>
<path opacity="0.464646" d="M-7.78039 270.862L105.05 210.869C112.127 207.106 115.976 199.215 114.584 191.322L92.3936 65.4748C91.0018 57.5818 84.686 51.4827 76.7493 50.3673L-49.7955 32.5826C-57.7321 31.4672 -65.4844 35.5891 -68.9978 42.7927L-125.017 157.648C-128.53 164.852 -127.005 173.498 -121.24 179.066L-29.3168 267.835C-23.5515 273.403 -14.8569 274.625 -7.78039 270.862Z" stroke="#666B6F" stroke-opacity="0.1" stroke-width="3"/>
<path opacity="0.474747" d="M-7.08602 271.44L104.407 209.638C111.417 205.753 115.128 197.795 113.599 189.928L89.275 64.7935C87.7457 56.9261 81.3244 50.9381 73.3694 49.9614L-53.1569 34.4259C-61.1119 33.4492 -68.7911 37.7058 -72.1782 44.9696L-126.052 160.503C-129.439 167.766 -127.764 176.385 -121.902 181.851L-28.672 268.79C-22.8104 274.256 -14.0958 275.326 -7.08602 271.44Z" stroke="#666B6F" stroke-opacity="0.1" stroke-width="3"/>
<path opacity="0.484848" d="M-6.39568 271.983L103.732 208.4C110.673 204.393 114.244 196.372 112.578 188.532L86.1389 64.1465C84.4725 56.3069 77.9477 50.4319 69.9769 49.5942L-56.4912 36.3019C-64.4619 35.4641 -72.0657 39.8541 -75.3255 47.1759L-127.048 163.347C-130.308 170.668 -128.482 179.257 -122.526 184.619L-28.0246 269.709C-22.0685 275.072 -13.3366 275.99 -6.39568 271.983Z" stroke="#666B6F" stroke-opacity="0.1" stroke-width="3"/>
<path opacity="0.494949" d="M-5.71487 272.488L103.019 207.154C109.889 203.026 113.32 194.944 111.517 187.135L82.9812 63.533C81.1783 55.7237 74.5519 49.9635 66.5677 49.265L-59.8024 38.2091C-67.7866 37.5105 -75.3126 42.0326 -78.4441 49.4101L-128.01 166.179C-131.141 173.556 -129.166 182.111 -123.117 187.369L-27.3802 270.592C-21.3314 275.851 -12.5848 276.616 -5.71487 272.488Z" stroke="#666B6F" stroke-opacity="0.1" stroke-width="3"/>
<path opacity="0.50505" d="M-5.04521 272.951L102.268 205.895C109.065 201.648 112.354 193.507 110.415 185.73L79.8016 62.9482C77.8627 55.1715 71.1368 49.5278 63.1416 48.9688L-63.0912 40.1417C-71.0863 39.5826 -78.5322 44.2353 -81.5346 51.6664L-128.938 168.993C-131.94 176.424 -129.816 184.944 -123.676 190.095L-26.7403 271.434C-20.6007 276.586 -11.842 277.199 -5.04521 272.951Z" stroke="#666B6F" stroke-opacity="0.1" stroke-width="3"/>
<path opacity="0.515152" d="M-4.38635 273.374L101.478 204.625C108.2 200.26 111.347 192.063 109.272 184.321L76.6017 62.3932C74.5273 54.6516 67.704 49.1261 59.7003 48.7067L-66.356 42.1003C-74.3597 41.6809 -81.7233 46.4628 -84.5955 53.9452L-129.832 171.79C-132.704 179.273 -130.432 187.754 -124.203 192.797L-26.1046 272.236C-19.876 277.28 -11.108 277.739 -4.38635 273.374Z" stroke="#666B6F" stroke-opacity="0.1" stroke-width="3"/>
<path opacity="0.525253" d="M-3.7364 273.762L100.654 203.349C107.298 198.868 110.301 190.617 108.092 182.913L73.3846 61.8734C71.1754 54.1692 64.2567 48.7637 56.2469 48.484L-69.5938 44.0895C-77.6036 43.8098 -84.8826 48.7195 -87.6238 56.2509L-130.69 174.575C-133.431 182.106 -131.011 190.546 -124.695 195.48L-25.4712 273.003C-19.1555 277.937 -10.3809 278.243 -3.7364 273.762Z" stroke="#666B6F" stroke-opacity="0.1" stroke-width="3"/>
<path opacity="0.535354" d="M-3.09868 274.119L99.7914 202.075C106.357 197.478 109.215 189.176 106.872 181.512L70.1483 61.3943C67.8051 53.7298 60.793 48.4459 52.7796 48.306L-72.8069 46.1139C-80.8204 45.974 -88.0125 51.01 -90.6218 58.5881L-131.515 177.35C-134.124 184.929 -131.557 193.325 -125.156 198.148L-24.8434 273.74C-18.4426 278.563 -9.66391 278.716 -3.09868 274.119Z" stroke="#666B6F" stroke-opacity="0.1" stroke-width="3"/>
<path opacity="0.545455" d="M-2.4691 274.429L98.8957 200.783C105.38 196.072 108.093 187.721 105.616 180.099L66.8983 60.9376C64.4216 53.3152 57.3184 48.1544 49.3038 48.1544L-75.99 48.1544C-84.0047 48.1544 -91.1079 53.3152 -93.5846 60.9376L-132.302 180.099C-134.779 187.721 -132.066 196.072 -125.582 200.783L-24.2172 274.429C-17.7331 279.139 -8.95311 279.139 -2.4691 274.429Z" stroke="#666B6F" stroke-opacity="0.1" stroke-width="3"/>
<path opacity="0.555556" d="M-1.85327 274.708L97.9617 199.492C104.363 194.668 106.93 186.272 104.32 178.694L63.6301 60.5213C61.0208 52.9433 53.8286 47.9073 45.8151 48.0471L-79.1477 50.2284C-87.1612 50.3682 -94.1732 55.6522 -96.5165 63.3167L-133.058 182.837C-135.401 190.502 -132.542 198.804 -125.977 203.401L-23.598 275.087C-17.0328 279.684 -8.25408 279.531 -1.85327 274.708Z" stroke="#666B6F" stroke-opacity="0.1" stroke-width="3"/>
<path opacity="0.565657" d="M-1.25437 274.944L96.987 198.189C103.303 193.255 105.723 184.815 102.982 177.284L60.3419 60.132C57.6007 52.6007 50.3217 47.691 42.3119 47.9707L-82.2822 52.3216C-90.292 52.6013 -97.2108 58.0068 -99.4199 65.711L-133.784 185.552C-135.993 193.256 -132.99 201.506 -126.345 205.988L-22.9892 275.703C-16.3447 280.185 -7.57002 279.878 -1.25437 274.944Z" stroke="#666B6F" stroke-opacity="0.1" stroke-width="3"/>
<path opacity="0.575758" d="M-0.666409 275.151L95.9782 196.89C102.207 191.846 104.479 183.365 101.607 175.883L57.0409 59.7843C54.1687 52.302 46.8052 47.52 38.8015 47.9395L-85.3864 54.4479C-93.3901 54.8673 -100.213 60.3928 -102.288 68.1344L-134.474 188.255C-136.548 195.997 -133.402 204.194 -126.68 208.559L-22.3847 276.289C-15.663 280.654 -6.89498 280.195 -0.666409 275.151Z" stroke="#666B6F" stroke-opacity="0.1" stroke-width="3"/>
<path opacity="0.585859" d="M-0.0948383 275.32L94.9303 195.585C101.07 190.433 103.194 181.914 100.192 174.483L53.723 59.469C50.7206 52.0379 43.2747 47.3852 35.2796 47.9443L-88.4648 56.5973C-96.4599 57.1564 -103.186 62.8001 -105.125 70.5767L-135.134 190.939C-137.073 198.715 -133.784 206.856 -126.987 211.103L-21.7899 276.838C-14.9931 281.085 -6.23444 280.472 -0.0948383 275.32Z" stroke="#666B6F" stroke-opacity="0.1" stroke-width="3"/>
<path opacity="0.59596" d="M0.464309 275.45L93.848 194.272C99.8968 189.014 101.872 180.459 98.7402 173.082L50.3933 59.1833C47.2617 51.8058 39.7358 47.2838 31.7516 47.9823L-91.5122 58.7665C-99.4964 59.465 -106.123 65.2252 -107.926 73.0345L-135.76 193.598C-137.563 201.407 -134.132 209.489 -127.262 213.617L-21.201 277.345C-14.3311 281.473 -5.58444 280.708 0.464309 275.45Z" stroke="#666B6F" stroke-opacity="0.1" stroke-width="3"/>
<path opacity="0.606061" d="M1.00795 275.544L92.7289 192.958C98.685 187.595 100.51 179.007 97.2506 171.685L47.0501 58.9331C43.7902 51.6113 36.1865 47.2213 28.2157 48.0591L-94.531 60.9603C-102.502 61.798 -109.027 67.673 -110.693 75.5126L-136.354 196.238C-138.02 204.078 -134.449 212.099 -127.508 216.106L-20.621 277.817C-13.6801 281.825 -4.94811 280.907 1.00795 275.544Z" stroke="#666B6F" stroke-opacity="0.1" stroke-width="3"/>
<path opacity="0.616162" d="M1.53447 275.605L91.5721 191.644C97.4337 186.178 99.109 177.559 95.7219 170.295L43.6929 58.7188C40.3058 51.455 32.6266 47.1984 24.6716 48.1751L-97.5217 63.1786C-105.477 64.1553 -111.898 70.1433 -113.427 78.0107L-136.918 198.86C-138.447 206.727 -134.737 214.685 -127.727 218.57L-20.0515 278.256C-13.0417 282.141 -4.32709 281.071 1.53447 275.605Z" stroke="#666B6F" stroke-opacity="0.1" stroke-width="3"/>
<path opacity="0.626263" d="M2.04042 275.635L90.3747 190.332C96.14 184.764 97.6647 176.118 94.1512 168.914L40.3196 58.5429C36.8062 51.3394 29.0539 47.2174 21.1173 48.3329L-100.487 65.4232C-108.424 66.5386 -114.739 72.6377 -116.131 80.5307L-137.455 201.464C-138.847 209.357 -134.998 217.249 -127.921 221.011L-19.496 278.662C-12.4194 282.425 -3.72485 281.203 2.04042 275.635Z" stroke="#666B6F" stroke-opacity="0.1" stroke-width="3"/>
<path opacity="0.636364" d="M2.53196 275.626L89.1436 189.014C94.8108 183.347 96.1843 174.675 92.5457 167.534L36.9377 58.3967C33.2991 51.2556 25.476 47.2695 17.56 48.5233L-103.419 67.6845C-111.335 68.9383 -117.544 75.1467 -118.798 83.0627L-137.959 204.042C-139.213 211.958 -135.226 219.781 -128.085 223.42L-18.9483 279.028C-11.8072 282.666 -3.13527 281.293 2.53196 275.626Z" stroke="#666B6F" stroke-opacity="0.1" stroke-width="3"/>
<path opacity="0.646465" d="M3.00569 275.584L87.8759 187.699C93.4434 181.934 94.6653 173.239 90.9027 166.162L33.5447 58.2878C29.7821 51.2113 21.8907 47.3624 13.9977 48.7541L-106.322 69.9697C-114.215 71.3614 -120.314 77.6772 -121.429 85.6139L-138.433 206.6C-139.548 214.537 -135.426 222.289 -128.223 225.803L-18.412 279.361C-11.2084 282.874 -2.56177 281.35 3.00569 275.584Z" stroke="#666B6F" stroke-opacity="0.1" stroke-width="3"/>
<path opacity="0.656566" d="M3.46188 275.513L86.5727 186.387C92.0387 180.526 93.1087 171.811 89.2231 164.801L30.1424 58.2168C26.2568 51.207 18.2994 47.4964 10.432 49.0257L-109.193 72.2783C-117.06 73.8076 -123.048 80.2289 -124.025 88.1839L-138.876 209.139C-139.853 217.094 -135.596 224.773 -128.333 228.16L-17.8866 279.662C-10.6228 283.049 -2.00411 281.374 3.46188 275.513Z" stroke="#666B6F" stroke-opacity="0.1" stroke-width="3"/>
<path opacity="0.666667" d="M3.89745 275.405L85.2315 185.075C90.5943 179.119 91.5121 170.387 87.5048 163.446L26.7289 58.179C22.7215 51.2381 14.7006 47.6669 6.86103 49.3333L-112.035 74.6053C-119.874 76.2716 -125.749 82.7965 -126.587 90.7673L-139.292 211.653C-140.13 219.624 -135.74 227.228 -128.418 230.488L-17.3754 279.927C-10.0536 283.187 -1.46541 281.362 3.89745 275.405Z" stroke="#666B6F" stroke-opacity="0.1" stroke-width="3"/>
<path opacity="0.676768" d="M4.31082 275.261L83.8514 183.76C89.1095 177.711 89.8748 168.965 85.7469 162.095L23.3037 58.1717C19.1758 51.3018 11.0938 47.8712 3.28448 49.6741L-114.848 76.9472C-122.657 78.7501 -128.418 85.3765 -129.116 93.3606L-139.683 214.139C-140.381 222.124 -135.859 229.649 -128.482 232.781L-16.8798 280.153C-9.50227 283.285 -0.947293 281.31 4.31082 275.261Z" stroke="#666B6F" stroke-opacity="0.1" stroke-width="3"/>
<path opacity="0.686869" d="M4.70631 275.09L82.4374 182.453C87.5892 176.314 88.2016 167.555 83.9545 160.758L19.8723 58.2054C15.6252 51.4086 7.48451 48.1195 -0.292114 50.0584L-117.628 79.3136C-125.405 81.2525 -131.048 87.9784 -131.608 95.9736L-140.043 216.607C-140.602 224.602 -135.949 232.048 -128.518 235.051L-16.3957 280.351C-8.96466 283.353 -0.445422 281.229 4.70631 275.09Z" stroke="#666B6F" stroke-opacity="0.1" stroke-width="3"/>
<path opacity="0.69697" d="M5.08243 274.883L80.9888 181.146C86.0326 174.918 86.4921 166.15 82.1269 159.428L16.4346 58.2707C12.0695 51.549 3.87262 48.4025 -3.86898 50.4769L-120.375 81.6947C-128.117 83.7691 -133.642 90.5924 -134.062 98.5961L-140.374 219.047C-140.794 227.051 -136.012 234.414 -128.53 237.287L-15.9246 280.512C-8.44221 283.384 0.0386195 281.111 5.08243 274.883Z" stroke="#666B6F" stroke-opacity="0.1" stroke-width="3"/>
<path opacity="0.707071" d="M5.43395 274.65L79.5008 179.849C84.4351 173.533 84.7415 164.758 80.2598 158.114L12.9863 58.3769C8.50458 51.7324 0.254068 48.7295 -7.45015 50.9386L-123.094 84.099C-130.798 86.3082 -136.204 93.2269 -136.484 101.237L-140.682 221.468C-140.962 229.478 -136.052 236.757 -128.521 239.498L-15.4716 280.644C-7.94029 283.386 0.499613 280.966 5.43395 274.65Z" stroke="#666B6F" stroke-opacity="0.1" stroke-width="3"/>
<path opacity="0.717172" d="M5.7672 274.383L77.9806 178.553C82.804 172.152 82.9572 163.373 78.3602 156.808L9.53519 58.5157C4.93814 51.9504 -3.36353 49.0919 -11.028 51.4352L-125.778 86.5176C-133.442 88.8609 -138.726 95.873 -138.866 103.886L-140.96 223.861C-141.1 231.874 -136.064 239.066 -128.486 241.676L-15.0306 280.742C-7.45255 283.351 0.943847 280.784 5.7672 274.383Z" stroke="#666B6F" stroke-opacity="0.1" stroke-width="3"/>
<path opacity="0.727273" d="M6.07302 274.085L76.4197 177.261C81.1306 170.777 81.1306 161.997 76.4196 155.513L6.073 58.6889C1.3621 52.2049 -6.98819 49.4917 -14.6106 51.9684L-128.434 88.9518C-136.056 91.4285 -141.217 98.5316 -141.217 106.546L-141.217 226.227C-141.217 234.242 -136.056 241.345 -128.434 243.822L-14.6106 280.805C-6.98819 283.282 1.3621 280.569 6.07302 274.085Z" stroke="#666B6F" stroke-opacity="0.1" stroke-width="3"/>
<path opacity="0.737374" d="M6.35784 273.758L74.8251 175.977C79.4221 169.412 79.2689 160.633 74.4455 154.232L2.60744 58.9C-2.21591 52.4992 -10.6123 49.9322 -18.1903 52.5415L-131.056 91.4042C-138.634 94.0136 -143.67 101.206 -143.53 109.219L-141.447 228.57C-141.307 236.584 -136.023 243.596 -128.359 245.939L-14.2054 280.839C-6.54087 283.182 1.7608 280.324 6.35784 273.758Z" stroke="#666B6F" stroke-opacity="0.1" stroke-width="3"/>
<path opacity="0.747475" d="M6.62207 273.403L73.198 174.7C77.6798 168.056 77.3734 159.281 72.439 152.966L-0.859937 59.1471C-5.79426 52.8315 -14.2341 50.4114 -21.7655 53.1526L-133.643 93.8726C-141.174 96.6138 -146.084 103.893 -145.804 111.903L-141.649 230.887C-141.369 238.897 -135.964 245.816 -128.26 248.025L-13.8144 280.842C-6.11018 283.051 2.14032 280.048 6.62207 273.403Z" stroke="#666B6F" stroke-opacity="0.1" stroke-width="3"/>
<path opacity="0.757576" d="M6.86057 273.017L71.5339 173.428C75.8991 166.707 75.4396 157.939 70.3957 151.71L-4.33316 59.4277C-9.37696 53.1991 -17.8578 50.9266 -25.3402 53.7988L-136.199 96.3534C-143.681 99.2256 -148.463 106.589 -148.043 114.593L-141.829 233.175C-141.409 241.179 -135.884 248.003 -128.142 250.077L-13.443 280.81C-5.7014 282.885 2.49545 279.738 6.86057 273.017Z" stroke="#666B6F" stroke-opacity="0.1" stroke-width="3"/>
<path opacity="0.767677" d="M7.07568 272.6L69.8359 172.163C74.083 165.366 73.4706 156.607 68.3188 150.468L-7.80878 59.7425C-12.9605 53.6029 -21.4798 51.4788 -28.9108 54.4812L-138.72 98.8471C-146.152 101.849 -150.804 109.295 -150.245 117.291L-141.984 235.436C-141.425 243.431 -135.781 250.157 -128.004 252.096L-13.0888 280.747C-5.31216 282.686 2.82854 279.397 7.07568 272.6Z" stroke="#666B6F" stroke-opacity="0.1" stroke-width="3"/>
<path opacity="0.777778" d="M7.26252 272.155L68.0997 170.905C72.2276 164.035 71.4624 155.288 66.2042 149.24L-11.2906 60.0921C-16.5487 54.0433 -25.1037 52.0683 -32.4812 55.1999L-141.213 101.354C-148.59 104.485 -153.112 112.011 -152.414 119.995L-142.119 237.668C-141.42 245.652 -135.66 252.278 -127.851 254.081L-12.7567 280.653C-4.94739 282.456 3.13466 279.025 7.26252 272.155Z" stroke="#666B6F" stroke-opacity="0.1" stroke-width="3"/>
<path opacity="0.787879" d="M7.42704 271.687L66.332 169.661C70.3393 162.72 69.4216 153.988 64.0587 148.032L-14.7715 60.4821C-20.1344 54.526 -28.7225 52.7005 -36.0443 55.9604L-143.669 103.878C-150.991 107.138 -155.381 114.742 -154.543 122.712L-142.229 239.877C-141.391 247.848 -135.516 254.372 -127.676 256.039L-12.4408 280.533C-4.60125 282.199 3.4197 278.628 7.42704 271.687Z" stroke="#666B6F" stroke-opacity="0.1" stroke-width="3"/>
<path opacity="0.79798" d="M7.56258 271.197L64.5267 168.431C68.4123 161.421 67.3423 152.706 61.8763 146.845L-18.2571 60.9121C-23.7231 55.0505 -32.3419 53.3752 -39.6056 56.7624L-146.095 106.419C-153.359 109.806 -157.615 117.486 -156.639 125.44L-142.319 242.063C-141.343 250.018 -135.355 256.439 -127.487 257.968L-12.1479 280.388C-4.28044 281.917 3.67697 278.207 7.56258 271.197Z" stroke="#666B6F" stroke-opacity="0.1" stroke-width="3"/>
<path opacity="0.808081" d="M7.67694 270.672L62.6925 167.203C66.4552 160.126 65.2333 151.432 59.6658 145.666L-21.7386 61.3697C-27.3061 55.6044 -35.9527 54.0797 -43.1563 57.5932L-148.483 108.964C-155.686 112.478 -159.808 120.23 -158.693 128.167L-142.383 244.212C-141.268 252.149 -135.169 258.465 -127.276 259.857L-11.8701 280.206C-3.97715 281.598 3.91428 277.749 7.67694 270.672Z" stroke="#666B6F" stroke-opacity="0.1" stroke-width="3"/>
<path opacity="0.818182" d="M7.76148 270.121L60.8213 165.985C64.4599 158.844 63.0864 150.172 57.4192 144.505L-25.2235 61.8619C-30.8907 56.1946 -39.5627 54.8211 -46.7038 58.4597L-150.84 111.52C-157.981 115.158 -161.967 122.981 -160.713 130.897L-142.43 246.333C-141.176 254.249 -134.968 260.457 -127.052 261.711L-11.6162 279.994C-3.70018 281.248 4.12288 277.262 7.76148 270.121Z" stroke="#666B6F" stroke-opacity="0.1" stroke-width="3"/>
<path opacity="0.828283" d="M7.81869 269.546L58.9163 164.78C62.4297 157.577 60.9051 148.93 55.1398 143.363L-28.7082 62.3916C-34.4735 56.8242 -43.1681 55.6022 -50.2447 59.3649L-153.163 114.088C-160.24 117.85 -164.089 125.742 -162.697 133.635L-142.456 248.426C-141.064 256.319 -134.749 262.418 -126.812 263.534L-11.3837 279.756C-3.44703 280.872 4.30529 276.75 7.81869 269.546Z" stroke="#666B6F" stroke-opacity="0.1" stroke-width="3"/>
<path opacity="0.838384" d="M7.8492 268.948L56.9789 163.59C60.366 156.326 58.6907 147.707 52.8291 142.241L-32.1913 62.9583C-38.0528 57.4922 -46.7674 56.4222 -53.7772 60.3078L-155.452 116.667C-162.462 120.553 -166.173 128.51 -164.643 136.378L-142.462 250.493C-140.933 258.36 -134.511 264.348 -126.556 265.325L-11.1721 279.492C-3.21712 280.469 4.46205 276.212 7.8492 268.948Z" stroke="#666B6F" stroke-opacity="0.1" stroke-width="3"/>
<path opacity="0.848485" d="M7.85349 268.323L55.0101 162.408C58.2699 155.086 56.4445 146.498 50.4884 141.135L-35.671 63.5567C-41.6271 58.1938 -50.359 57.2761 -57.2999 61.2834L-157.706 119.253C-164.647 123.26 -168.218 131.281 -166.552 139.121L-142.447 252.526C-140.78 260.366 -134.255 266.241 -126.285 267.078L-10.9809 279.197C-3.01012 280.035 4.59362 275.645 7.85349 268.323Z" stroke="#666B6F" stroke-opacity="0.1" stroke-width="3"/>
<path opacity="0.858586" d="M7.83029 267.681L53.0094 161.246C56.141 153.868 54.1659 145.313 48.1171 140.055L-39.1477 64.197C-45.1965 58.9389 -53.9431 58.1737 -60.813 62.3016L-159.925 121.854C-166.795 125.982 -170.225 134.064 -168.422 141.873L-142.412 254.537C-140.609 262.346 -133.983 268.106 -125.999 268.805L-10.8114 278.882C-2.82723 279.581 4.6987 275.059 7.83029 267.681Z" stroke="#666B6F" stroke-opacity="0.1" stroke-width="3"/>
<path opacity="0.868687" d="M7.77464 267.007L50.9725 160.088C53.9748 152.657 51.8508 144.138 45.7112 138.986L-42.6254 64.863C-48.7651 59.7112 -57.5237 59.0988 -64.3205 63.3459L-162.113 124.454C-168.91 128.701 -172.199 136.842 -170.26 144.618L-142.363 256.508C-140.424 264.285 -133.698 269.928 -125.703 270.487L-10.6688 278.531C-2.6736 279.09 4.77228 274.438 7.77464 267.007Z" stroke="#666B6F" stroke-opacity="0.1" stroke-width="3"/>
<path opacity="0.878788" d="M7.69288 266.313L48.9064 158.948C51.7786 151.466 49.5062 142.985 43.2776 137.941L-46.0968 65.5669C-52.3254 60.5231 -61.0934 60.0636 -67.8151 64.4287L-164.265 127.064C-170.987 131.429 -174.133 139.626 -172.059 147.368L-142.294 258.452C-140.219 266.194 -133.396 271.719 -125.392 272.139L-10.5466 278.158C-2.54289 278.577 4.82068 273.795 7.69288 266.313Z" stroke="#666B6F" stroke-opacity="0.1" stroke-width="3"/>
<path opacity="0.888889" d="M7.57806 265.603L46.8049 157.828C49.5461 150.296 47.126 141.857 40.8103 136.922L-49.5679 66.3111C-55.8835 61.3767 -64.6582 61.0703 -71.3027 65.5521L-166.386 129.687C-173.031 134.169 -176.034 142.419 -173.825 150.123L-142.211 260.372C-140.002 268.076 -133.083 273.482 -125.074 273.761L-10.4519 277.764C-2.44207 278.044 4.83688 273.134 7.57806 265.603Z" stroke="#666B6F" stroke-opacity="0.1" stroke-width="3"/>
<path opacity="0.89899" d="M7.43836 264.869L44.6768 156.721C47.2861 149.143 44.7191 140.747 38.3182 135.924L-53.0295 67.0881C-59.4303 62.2647 -68.209 62.1115 -74.7742 66.7085L-168.469 132.314C-175.034 136.911 -177.892 145.213 -175.549 152.877L-142.108 262.259C-139.764 269.924 -132.752 275.208 -124.739 275.347L-10.3766 277.344C-2.36315 277.484 4.82902 272.447 7.43836 264.869Z" stroke="#666B6F" stroke-opacity="0.1" stroke-width="3"/>
<path opacity="0.909091" d="M7.26696 264.106L42.5159 155.621C44.9926 147.999 42.2794 139.648 35.7954 134.937L-56.4875 67.89C-62.9715 63.1791 -71.7516 63.1791 -78.2356 67.89L-170.518 134.937C-177.002 139.648 -179.716 147.999 -177.239 155.621L-141.99 264.106C-139.513 271.729 -132.41 276.889 -124.396 276.889L-10.3276 276.889C-2.31292 276.889 4.79029 271.729 7.26696 264.106Z" stroke="#666B6F" stroke-opacity="0.1" stroke-width="3"/>
<path opacity="0.919192" d="M7.06447 263.332L40.3235 154.546C42.6668 146.882 39.8083 138.58 33.2431 133.983L-59.9405 68.7354C-66.5057 64.1384 -75.2844 64.2916 -81.6852 69.115L-172.535 137.575C-178.936 142.398 -181.503 150.795 -178.893 158.373L-141.858 265.931C-139.249 273.509 -132.057 278.545 -124.043 278.406L-10.3043 276.42C-2.29083 276.28 4.7212 270.996 7.06447 263.332Z" stroke="#666B6F" stroke-opacity="0.1" stroke-width="3"/>
<path opacity="0.929293" d="M6.83346 262.536L38.1029 153.487C40.3121 145.782 37.3091 137.532 30.6646 133.05L-63.3849 69.6129C-70.0294 65.1311 -78.804 65.4376 -85.1197 70.3719L-174.515 140.215C-180.831 145.149 -183.251 153.589 -180.51 161.121L-141.709 267.723C-138.968 275.255 -131.689 280.164 -123.679 279.885L-10.3043 275.926C-2.29445 275.646 4.62431 270.24 6.83346 262.536Z" stroke="#666B6F" stroke-opacity="0.1" stroke-width="3"/>
<path opacity="0.939394" d="M6.57073 261.719L35.8516 152.441C37.9259 144.699 34.7794 136.503 28.0577 132.138L-66.8231 70.5212C-73.5448 66.1561 -82.3128 66.6156 -88.5414 71.6594L-176.462 142.856C-182.69 147.9 -184.963 156.381 -182.091 163.863L-141.548 269.481C-138.675 276.964 -131.312 281.746 -123.308 281.326L-10.3307 275.405C-2.32697 274.986 4.49638 269.46 6.57073 261.719Z" stroke="#666B6F" stroke-opacity="0.1" stroke-width="3"/>
<path opacity="0.949495" d="M6.27337 260.886L33.5671 151.417C35.5061 143.64 32.217 135.499 25.4202 131.252L-70.2571 71.4665C-77.054 67.2194 -85.8126 67.8318 -91.9522 72.9836L-178.378 145.503C-184.517 150.655 -186.641 159.174 -183.639 166.605L-141.376 271.211C-138.373 278.642 -130.928 283.295 -122.932 282.735L-10.3866 274.865C-2.39145 274.306 4.33444 268.663 6.27337 260.886Z" stroke="#666B6F" stroke-opacity="0.1" stroke-width="3"/>
<path opacity="0.959596" d="M5.94949 260.031L31.2584 150.406C33.0614 142.597 29.6307 134.515 22.7608 130.387L-73.678 72.4404C-80.5479 68.3126 -89.2946 69.0778 -95.3433 74.3359L-180.255 148.148C-186.304 153.406 -188.279 161.961 -185.147 169.339L-141.186 272.904C-138.055 280.281 -130.529 284.803 -122.545 284.105L-10.464 274.299C-2.4798 273.601 4.14658 267.84 5.94949 260.031Z" stroke="#666B6F" stroke-opacity="0.1" stroke-width="3"/>
<path opacity="0.969697" d="M5.59224 259.163L28.9193 149.417C30.5856 141.578 27.0145 133.557 20.0736 129.55L-77.0918 73.4512C-84.0328 69.4439 -92.7647 70.3616 -98.7208 75.7245L-182.099 150.799C-188.055 156.162 -189.881 164.75 -186.621 172.072L-140.986 274.569C-137.727 281.891 -130.123 286.281 -122.152 285.443L-10.5697 273.715C-2.59892 272.877 3.92589 267.002 5.59224 259.163Z" stroke="#666B6F" stroke-opacity="0.1" stroke-width="3"/>
<path opacity="0.979798" d="M5.20617 258.28L26.5548 148.451C28.0841 140.583 24.3735 132.626 17.3637 128.74L-80.4932 74.4974C-87.503 70.6118 -96.2176 71.6818 -102.079 77.1478L-183.907 153.453C-189.768 158.919 -191.444 167.538 -188.056 174.802L-140.772 276.204C-137.385 283.468 -129.705 287.725 -121.75 286.748L-10.6994 273.112C-2.7444 272.136 3.6769 266.148 5.20617 258.28Z" stroke="#666B6F" stroke-opacity="0.1" stroke-width="3"/>
<path opacity="0.989899" d="M4.78248 257.376L24.157 147.498C25.5487 139.605 21.6998 131.714 14.6232 127.951L-83.8901 75.5706C-90.9666 71.808 -99.6612 73.0299 -105.427 78.5974L-185.686 156.103C-191.451 161.67 -192.976 170.317 -189.462 177.52L-140.552 277.802C-137.038 285.005 -129.286 289.127 -121.349 288.012L-10.8618 272.484C-2.9251 271.368 3.39075 265.269 4.78248 257.376Z" stroke="#666B6F" stroke-opacity="0.1" stroke-width="3"/>
<path d="M4.32941 256.458L21.7345 146.566C22.9883 138.65 19.0023 130.827 11.8611 127.189L-87.2736 76.6771C-94.4147 73.0385 -103.087 74.412 -108.754 80.0793L-187.428 158.753C-193.095 164.42 -194.468 173.092 -190.83 180.233L-140.318 279.368C-136.68 286.509 -128.856 290.495 -120.94 289.241L-11.0488 271.836C-3.13277 270.583 3.07563 264.374 4.32941 256.458Z" stroke="#666B6F" stroke-opacity="0.1" stroke-width="3"/>
</g>
</g>
<defs>
<clipPath id="clip0_249_4160">
<rect width="557" height="96" fill="white"/>
</clipPath>
<clipPath id="clip1_249_4160">
<rect width="558" height="95" fill="white" transform="translate(-0.714844)"/>
</clipPath>
</defs>
</svg>
