<svg width="267" height="244" viewBox="0 0 267 244" fill="none" xmlns="http://www.w3.org/2000/svg">
<g clip-path="url(#clip0_250_7400)">
<rect width="267" height="244" rx="24" fill="white"/>
<path opacity="0.010101" d="M-64.3148 277.055L61.6266 314.491C69.368 316.793 77.7147 314.013 82.3378 307.593L157.994 202.542C162.65 196.077 162.471 187.394 157.552 181.047L78.3719 78.8861C73.4527 72.5391 64.9163 69.9785 57.2416 72.5478L-67.4746 114.3C-75.0956 116.851 -80.1449 123.886 -80.0036 131.755L-77.7052 259.779C-77.5623 267.738 -72.1445 274.728 -64.3148 277.055Z" stroke="#ED1C24" stroke-opacity="0.08" stroke-width="3"/>
<path opacity="0.020202" d="M-64.0396 279.185L62.2786 314.402C70.0639 316.572 78.3679 313.646 82.8796 307.143L156.464 201.076C161.003 194.532 160.672 185.856 155.643 179.598L74.8087 79.0048C69.7798 72.7467 61.2016 70.335 53.5731 73.0345L-70.0811 116.793C-77.6628 119.476 -82.5918 126.602 -82.3092 134.471L-77.7231 262.157C-77.4376 270.105 -71.9027 276.993 -64.0396 279.185Z" stroke="#ED1C24" stroke-opacity="0.08" stroke-width="3"/>
<path opacity="0.030303" d="M-63.7438 281.287L62.9102 314.282C70.7369 316.321 78.9958 313.25 83.3945 306.664L154.893 199.62C159.316 192.999 158.831 184.334 153.695 178.166L71.2375 79.1647C66.1008 72.9973 57.4835 70.7351 49.9036 73.5641L-72.6547 119.305C-80.1947 122.119 -85.0019 129.335 -84.5778 137.202L-77.7154 264.512C-77.2877 272.447 -71.6378 279.23 -63.7438 281.287Z" stroke="#ED1C24" stroke-opacity="0.08" stroke-width="3"/>
<path opacity="0.040404" d="M-63.4278 283.351L63.5207 314.125C71.3866 316.032 79.5976 312.816 83.8818 306.15L153.283 198.166C157.586 191.47 156.949 182.818 151.706 176.743L67.6591 79.3577C62.4162 73.2828 53.7627 71.1707 46.2335 74.1283L-75.1951 121.828C-82.6911 124.772 -87.3746 132.076 -86.8091 139.939L-77.6826 266.834C-77.113 274.754 -71.3502 281.431 -63.4278 283.351Z" stroke="#ED1C24" stroke-opacity="0.08" stroke-width="3"/>
<path opacity="0.050505" d="M-63.0884 285.385L64.1136 313.938C72.0164 315.712 80.1768 312.351 84.345 305.606L151.636 196.722C155.819 189.953 155.03 181.317 149.683 175.336L64.0781 79.5905C58.7309 73.6099 50.044 71.6485 42.5679 74.7339L-77.6981 124.368C-85.1478 127.442 -89.7061 134.831 -88.9992 142.687L-77.6212 269.131C-76.9103 277.032 -71.0367 283.601 -63.0884 285.385Z" stroke="#ED1C24" stroke-opacity="0.08" stroke-width="3"/>
<path opacity="0.0606061" d="M-62.728 287.387L64.6864 313.719C72.6238 315.359 80.7312 311.856 84.7818 305.034L149.951 195.288C154.013 188.448 153.073 179.83 147.623 173.945L60.4936 79.8625C55.0439 73.9778 46.3262 72.1676 38.9055 75.3799L-80.1653 126.923C-87.5663 130.127 -91.9978 137.6 -91.1496 145.446L-77.5336 271.4C-76.6818 279.28 -70.6995 285.74 -62.728 287.387Z" stroke="#ED1C24" stroke-opacity="0.08" stroke-width="3"/>
<path opacity="0.0707071" d="M-62.3484 289.361L65.2376 313.473C73.2071 314.979 81.2587 311.332 85.1904 304.436L148.228 193.867C152.167 186.959 151.075 178.361 145.525 172.574L56.9049 80.1763C51.3544 74.3892 42.6089 72.7307 35.2459 76.0689L-82.598 129.496C-89.9479 132.828 -94.251 140.383 -93.2616 148.218L-77.4218 273.645C-76.4295 281.502 -70.3408 287.85 -62.3484 289.361Z" stroke="#ED1C24" stroke-opacity="0.08" stroke-width="3"/>
<path opacity="0.0808081" d="M-61.9501 291.291L65.7667 313.186C73.7659 314.558 81.7592 310.769 85.5704 303.8L146.467 192.447C150.282 185.472 149.039 176.897 143.39 171.209L53.313 80.519C47.6636 74.8312 38.8929 73.3248 31.5899 76.7879L-84.9956 132.073C-92.2921 135.533 -96.4653 143.168 -95.3349 150.988L-77.2859 275.851C-76.1539 283.683 -69.9609 289.918 -61.9501 291.291Z" stroke="#ED1C24" stroke-opacity="0.08" stroke-width="3"/>
<path opacity="0.0909091" d="M-61.53 293.196L66.277 312.877C74.3035 314.113 82.2358 310.183 85.9252 303.143L144.672 191.045C148.361 184.005 146.968 175.456 141.222 169.869L49.7223 80.9071C43.9759 75.3202 35.1829 73.9661 27.9421 77.5532L-87.3543 134.67C-94.5951 138.257 -98.6369 145.969 -97.3656 153.773L-77.1229 278.035C-75.8517 285.839 -69.5565 291.96 -61.53 293.196Z" stroke="#ED1C24" stroke-opacity="0.08" stroke-width="3"/>
<path opacity="0.10101" d="M-61.0936 295.059L66.763 312.53C74.8145 313.63 82.6832 309.561 86.2493 302.452L142.837 189.647C146.4 182.545 144.858 174.024 139.016 168.539L46.1286 81.3265C40.2871 75.8419 31.4745 74.6405 24.2981 78.3505L-89.679 137.272C-96.8618 140.985 -100.77 148.773 -99.3586 156.558L-76.9383 280.183C-75.5285 287.957 -69.1335 293.961 -61.0936 295.059Z" stroke="#ED1C24" stroke-opacity="0.08" stroke-width="3"/>
<path opacity="0.111111" d="M-60.6395 296.897L67.2264 312.161C75.3004 313.125 83.1028 308.916 86.5444 301.74L140.967 188.269C144.402 181.106 142.71 172.615 136.776 167.235L42.5347 81.7911C36.6 76.4104 27.7707 75.362 20.6609 79.1938L-91.9673 139.893C-99.0897 143.731 -102.864 151.593 -101.312 159.356L-76.7306 282.308C-75.1829 290.049 -68.6903 295.936 -60.6395 296.897Z" stroke="#ED1C24" stroke-opacity="0.08" stroke-width="3"/>
<path opacity="0.121212" d="M-60.1679 298.695L67.667 311.758C75.761 312.585 83.4946 308.238 86.8103 300.997L139.06 186.898C142.367 179.677 140.527 171.219 134.501 165.944L38.9416 82.2888C32.9157 77.0135 24.0725 76.1182 17.0314 80.0706L-94.2188 142.519C-101.279 146.482 -104.917 154.415 -103.225 162.154L-76.5 284.397C-74.8152 292.104 -68.2271 297.871 -60.1679 298.695Z" stroke="#ED1C24" stroke-opacity="0.08" stroke-width="3"/>
<path opacity="0.131313" d="M-59.6792 300.458L68.0848 311.326C76.1963 312.016 83.8585 307.531 87.047 300.228L137.118 185.54C140.295 178.262 138.307 169.84 132.192 164.672L35.3505 82.8239C29.2353 77.6554 20.3809 76.9134 13.4108 80.9853L-96.4332 145.155C-103.428 149.242 -106.929 157.243 -105.097 164.957L-76.2468 286.455C-74.4256 294.125 -67.7444 299.772 -59.6792 300.458Z" stroke="#ED1C24" stroke-opacity="0.08" stroke-width="3"/>
<path opacity="0.141414" d="M-59.1754 302.184L68.4777 310.863C76.6043 311.416 84.1924 306.795 87.2525 299.432L135.14 184.193C138.187 176.862 136.052 168.478 129.849 163.418L31.7606 83.3948C25.558 78.3345 16.6953 77.7459 9.7983 81.936L-98.6116 147.799C-105.539 152.008 -108.901 160.076 -106.931 167.761L-75.973 288.48C-74.0162 296.111 -67.2441 301.636 -59.1754 302.184Z" stroke="#ED1C24" stroke-opacity="0.08" stroke-width="3"/>
<path opacity="0.151515" d="M-58.6566 303.879L68.8459 310.376C76.9851 310.791 84.4966 306.036 87.427 298.614L133.127 182.864C136.042 175.481 133.76 167.138 127.472 162.187L28.173 84.0067C21.8851 79.056 13.0168 78.6208 6.19508 82.9279L-100.754 150.455C-107.611 154.785 -110.834 162.917 -108.724 170.571L-75.6788 290.477C-73.5873 298.067 -66.7265 303.468 -58.6566 303.879Z" stroke="#ED1C24" stroke-opacity="0.08" stroke-width="3"/>
<path opacity="0.161616" d="M-58.1216 305.536L69.191 309.858C77.3403 310.135 84.7726 305.246 87.5722 297.768L131.08 181.546C133.863 174.114 131.435 165.813 125.064 160.974L24.5907 84.6527C18.2194 79.8129 9.34824 79.531 2.60389 83.954L-102.857 153.115C-109.643 157.565 -112.724 165.76 -110.476 173.381L-75.3626 292.439C-73.1373 299.985 -66.1901 305.262 -58.1216 305.536Z" stroke="#ED1C24" stroke-opacity="0.08" stroke-width="3"/>
<path opacity="0.171717" d="M-57.5738 307.162L69.5097 309.319C77.6666 309.457 85.0171 304.436 87.6847 296.904L128.998 180.249C131.647 172.77 129.075 164.514 122.622 159.787L21.0111 85.3413C14.5585 80.6138 5.68736 80.4851 -0.977556 85.0225L-104.925 155.788C-111.637 160.358 -114.575 168.611 -112.19 176.197L-75.0283 294.374C-72.67 301.874 -65.6387 307.025 -57.5738 307.162Z" stroke="#ED1C24" stroke-opacity="0.08" stroke-width="3"/>
<path opacity="0.181818" d="M-57.0155 308.745L69.7999 308.745C77.9619 308.745 85.228 303.593 87.7625 296.009L126.879 178.96C129.394 171.436 126.677 163.228 120.145 158.614L17.4338 86.0593C10.9019 81.4452 2.03341 81.4698 -4.55001 86.1202L-106.958 158.46C-113.594 163.148 -116.388 171.459 -113.866 179.006L-74.6776 296.269C-72.1873 303.721 -65.0742 308.745 -57.0155 308.745Z" stroke="#ED1C24" stroke-opacity="0.08" stroke-width="3"/>
<path opacity="0.191919" d="M-56.4431 310.296L70.0655 308.149C78.23 308.01 85.4093 302.729 87.8096 295.096L124.728 177.691C127.107 170.124 124.248 161.966 117.639 157.466L13.8633 86.8175C7.25411 82.3181 -1.60886 82.4957 -8.10872 87.2579L-108.954 161.142C-115.51 165.946 -118.159 174.311 -115.501 181.818L-74.3073 298.134C-71.686 305.536 -64.4934 310.432 -56.4431 310.296Z" stroke="#ED1C24" stroke-opacity="0.08" stroke-width="3"/>
<path opacity="0.20202" d="M-55.8551 311.813L70.3081 307.529C78.4725 307.252 85.5626 301.843 87.8277 294.162L122.547 176.441C124.79 168.833 121.789 160.727 115.104 156.344L10.3025 87.6149C3.6182 83.2313 -5.23656 83.5617 -11.6509 88.4341L-110.908 163.831C-117.384 168.75 -119.887 177.168 -117.093 184.632L-73.9159 299.969C-71.1645 307.318 -63.8946 312.086 -55.8551 311.813Z" stroke="#ED1C24" stroke-opacity="0.08" stroke-width="3"/>
<path opacity="0.212121" d="M-55.2605 313.289L70.5192 306.88C78.6811 306.464 85.6792 300.928 87.8082 293.203L120.328 175.203C122.435 167.558 119.292 159.506 112.534 155.24L6.7439 88.4442C-0.0135283 84.1776 -8.85733 84.6606 -15.1841 89.6418L-112.83 166.521C-119.223 171.554 -121.578 180.022 -118.649 187.44L-73.5121 301.765C-70.6318 309.061 -63.2869 313.698 -55.2605 313.289Z" stroke="#ED1C24" stroke-opacity="0.08" stroke-width="3"/>
<path opacity="0.222222" d="M-54.656 314.735L70.7023 306.212C78.859 305.657 85.7629 299.996 87.7547 292.229L118.076 173.99C120.046 166.308 116.762 158.314 109.934 154.165L3.19214 89.3156C-3.6363 85.167 -12.4664 85.8023 -18.7037 90.8908L-114.716 169.22C-121.024 174.366 -123.231 182.881 -120.167 190.252L-73.0927 303.534C-70.0845 310.773 -62.667 315.279 -54.656 314.735Z" stroke="#ED1C24" stroke-opacity="0.08" stroke-width="3"/>
<path opacity="0.232323" d="M-54.0382 316.138L70.8611 305.514C79.0103 304.82 85.8173 299.036 87.6711 291.229L115.796 172.788C117.627 165.073 114.204 157.138 107.307 153.108L-0.347999 90.2168C-7.24536 86.1874 -16.0591 86.9746 -22.2049 92.1688L-116.562 171.917C-122.782 177.174 -124.839 185.733 -121.643 193.054L-72.6543 305.262C-69.5192 312.443 -62.0313 316.818 -54.0382 316.138Z" stroke="#ED1C24" stroke-opacity="0.08" stroke-width="3"/>
<path opacity="0.242424" d="M-53.4124 317.509L70.9906 304.796C79.1295 303.965 85.8373 298.058 87.5523 290.214L113.482 171.61C115.175 163.864 111.614 155.99 104.649 152.08L-3.88073 91.1585C-10.8449 87.2492 -19.6396 88.1879 -25.692 93.4863L-118.372 174.621C-124.502 179.987 -126.409 188.589 -123.08 195.857L-72.2023 306.961C-68.9415 314.082 -61.3855 318.324 -53.4124 317.509Z" stroke="#ED1C24" stroke-opacity="0.08" stroke-width="3"/>
<path opacity="0.252525" d="M-52.7788 318.838L71.0908 304.051C79.217 303.081 85.8231 297.055 87.3985 289.175L111.136 170.446C112.69 162.672 108.991 154.861 101.962 151.073L-7.40472 92.1309C-14.4336 88.3428 -23.2066 89.4325 -29.1638 94.8335L-120.146 177.323C-126.184 182.797 -127.94 191.437 -124.479 198.652L-71.7368 308.621C-68.3514 315.68 -60.7296 319.787 -52.7788 318.838Z" stroke="#ED1C24" stroke-opacity="0.08" stroke-width="3"/>
<path opacity="0.262626" d="M-52.1392 320.135L71.1605 303.287C79.2713 302.179 85.7735 296.035 87.2084 288.123L108.757 169.306C110.171 161.506 106.337 153.76 99.2453 150.094L-10.9205 93.1429C-18.012 89.4769 -26.7606 90.7171 -32.6206 96.2191L-121.885 180.03C-127.829 185.611 -129.432 194.288 -125.842 201.445L-71.2595 310.251C-67.7507 317.245 -60.0655 321.218 -52.1392 320.135Z" stroke="#ED1C24" stroke-opacity="0.08" stroke-width="3"/>
<path opacity="0.272727" d="M-51.4903 321.396L71.2031 302.503C79.296 301.256 85.6919 294.996 86.9856 287.054L106.349 168.187C107.624 160.363 103.654 152.686 96.5025 149.143L-14.4235 94.1908C-21.5754 90.6479 -30.297 92.0381 -36.0581 97.6394L-123.585 182.739C-129.433 188.424 -130.883 197.135 -127.163 204.233L-70.7673 311.847C-67.1363 318.775 -59.3898 322.613 -51.4903 321.396Z" stroke="#ED1C24" stroke-opacity="0.08" stroke-width="3"/>
<path opacity="0.282828" d="M-50.8356 322.617L71.2155 301.693C79.288 300.309 85.5752 293.934 86.7272 285.965L103.911 167.086C105.045 159.241 100.942 151.633 93.7317 148.214L-17.9158 95.2707C-25.126 91.8516 -33.8179 93.3913 -39.4783 99.0902L-125.249 185.445C-130.999 191.234 -132.295 199.976 -128.447 207.013L-70.2634 313.405C-66.5115 320.265 -58.7061 323.967 -50.8356 322.617Z" stroke="#ED1C24" stroke-opacity="0.08" stroke-width="3"/>
<path opacity="0.292929" d="M-50.175 323.804L71.1984 300.866C79.2478 299.344 85.4241 292.857 86.4336 284.863L101.443 166.009C102.437 158.144 98.2006 150.609 90.9343 147.315L-21.3961 96.3874C-28.6624 93.0931 -37.322 94.7815 -42.8799 100.576L-126.877 188.154C-132.527 194.044 -133.668 202.814 -129.692 209.787L-69.748 314.93C-65.8764 321.721 -58.0143 325.285 -50.175 323.804Z" stroke="#ED1C24" stroke-opacity="0.08" stroke-width="3"/>
<path opacity="0.30303" d="M-49.5089 324.952L71.1514 300.017C79.1753 298.358 85.2384 291.761 86.105 283.745L98.9468 164.952C99.7987 157.071 95.4314 149.611 88.1111 146.442L-24.8635 97.5378C-32.1837 94.369 -40.8085 96.2055 -46.2621 102.094L-128.468 190.861C-134.015 196.851 -135.001 205.646 -130.899 212.553L-69.2214 316.419C-65.2313 323.139 -57.3148 326.566 -49.5089 324.952Z" stroke="#ED1C24" stroke-opacity="0.08" stroke-width="3"/>
<path opacity="0.313131" d="M-48.8406 326.063L71.072 299.147C79.0677 297.352 85.0154 290.646 85.7385 282.61L96.4191 163.917C97.1295 156.022 92.6322 148.638 85.2601 145.595L-28.3197 98.7206C-35.6918 95.6781 -44.2791 97.6621 -49.6269 103.643L-130.024 193.565C-135.467 199.652 -136.297 208.471 -132.071 215.309L-68.6868 317.872C-64.5795 324.518 -56.6109 327.807 -48.8406 326.063Z" stroke="#ED1C24" stroke-opacity="0.08" stroke-width="3"/>
<path opacity="0.323232" d="M-48.1667 327.136L70.9636 298.258C78.9286 296.327 84.7588 289.514 85.338 281.462L93.8649 162.904C94.4335 154.997 89.8074 147.692 82.3857 144.776L-31.7605 99.9374C-39.1823 97.022 -47.7295 99.1526 -52.9696 105.224L-131.543 196.267C-136.88 202.451 -137.553 211.289 -133.203 218.057L-68.1409 319.29C-63.9178 325.861 -55.8993 329.011 -48.1667 327.136Z" stroke="#ED1C24" stroke-opacity="0.08" stroke-width="3"/>
<path opacity="0.333333" d="M-47.4907 328.173L70.8233 297.35C78.7551 295.284 84.4656 288.367 84.9004 280.3L91.2818 161.914C91.7085 153.998 86.9549 146.773 79.4857 143.986L-35.1878 101.188C-42.657 98.4001 -51.1618 100.677 -56.2926 106.837L-133.026 198.966C-138.255 205.244 -138.771 214.099 -134.299 220.795L-67.5871 320.672C-63.2495 327.166 -55.1835 330.177 -47.4907 328.173Z" stroke="#ED1C24" stroke-opacity="0.08" stroke-width="3"/>
<path opacity="0.343434" d="M-46.8108 329.176L70.6534 296.428C78.5494 294.227 84.1381 287.209 84.4283 279.13L88.6729 160.952C88.9575 153.029 84.0779 145.887 76.5634 143.228L-38.5986 102.475C-46.1132 99.8161 -54.5728 102.238 -59.5928 108.485L-134.472 201.667C-139.591 208.037 -139.949 216.906 -135.356 223.527L-67.0237 322.024C-62.573 328.439 -54.4617 331.309 -46.8108 329.176Z" stroke="#ED1C24" stroke-opacity="0.08" stroke-width="3"/>
<path opacity="0.353535" d="M-46.1305 330.141L70.4506 295.487C78.3083 293.152 83.7732 286.034 83.9184 277.946L86.0357 160.012C86.178 152.085 81.1738 145.028 73.6162 142.498L-41.9953 103.794C-49.5529 101.264 -57.965 103.829 -62.8726 110.161L-135.883 204.362C-140.89 210.822 -141.091 219.702 -136.378 226.246L-66.4543 323.337C-61.8918 329.672 -53.7374 332.402 -46.1305 330.141Z" stroke="#ED1C24" stroke-opacity="0.08" stroke-width="3"/>
<path opacity="0.363636" d="M-45.4498 331.069L70.2155 294.529C78.0324 292.06 83.3715 284.845 83.3715 276.751L83.3715 159.096C83.3715 151.167 78.2441 144.197 70.6455 141.796L-45.3763 105.144C-52.9749 102.744 -61.337 105.453 -66.1306 111.867L-137.259 207.052C-142.152 213.6 -142.195 222.489 -137.364 228.954L-65.8787 324.615C-61.2059 330.868 -53.0106 333.457 -45.4498 331.069Z" stroke="#ED1C24" stroke-opacity="0.08" stroke-width="3"/>
<path opacity="0.373737" d="M-44.7687 331.956L69.9485 293.551C77.722 290.949 82.9333 283.639 82.788 275.541L80.6813 158.202C80.539 150.273 75.2898 143.392 67.6526 141.121L-48.7407 106.523C-56.378 104.253 -64.6876 107.104 -69.3657 113.6L-138.6 209.734C-143.377 216.368 -143.261 225.262 -138.314 231.645L-65.297 325.854C-60.5153 332.024 -52.2814 334.471 -44.7687 331.956Z" stroke="#ED1C24" stroke-opacity="0.08" stroke-width="3"/>
<path opacity="0.383838" d="M-44.0888 332.813L69.6485 292.564C77.3762 289.83 82.4579 282.427 82.167 274.329L77.9651 157.339C77.6804 149.413 72.311 142.622 64.6372 140.483L-52.0886 107.941C-59.7624 105.801 -68.0171 108.794 -72.5783 115.369L-139.906 212.417C-144.566 219.135 -144.291 228.031 -139.228 234.331L-64.7108 327.064C-59.8216 333.148 -51.5513 335.454 -44.0888 332.813Z" stroke="#ED1C24" stroke-opacity="0.08" stroke-width="3"/>
<path opacity="0.393939" d="M-43.4049 333.623L69.3212 291.552C77.0005 288.686 81.9507 281.194 81.5143 273.097L75.2289 156.491C74.802 148.571 69.3138 141.873 61.6057 139.865L-55.4137 109.38C-63.1218 107.371 -71.3192 110.504 -75.7621 117.156L-141.171 215.083C-145.713 221.883 -145.279 230.778 -140.103 236.994L-64.1148 328.228C-59.1196 334.226 -50.8152 336.389 -43.4049 333.623Z" stroke="#ED1C24" stroke-opacity="0.08" stroke-width="3"/>
<path opacity="0.40404" d="M-42.7291 334.405L68.9548 290.534C76.5833 287.537 81.4002 279.957 80.8182 271.865L72.4618 155.678C71.8928 147.766 66.2874 141.163 58.5472 139.286L-58.7268 110.858C-66.4671 108.981 -74.6048 112.253 -78.9279 118.98L-142.408 217.752C-146.83 224.631 -146.237 233.523 -140.948 239.651L-63.5213 329.365C-58.4215 335.274 -50.0853 337.295 -42.7291 334.405Z" stroke="#ED1C24" stroke-opacity="0.08" stroke-width="3"/>
<path opacity="0.414141" d="M-42.0525 335.148L68.5589 289.498C76.1341 286.372 80.8159 278.707 80.0883 270.622L69.6741 154.889C68.963 146.987 63.2421 140.48 55.4719 138.736L-62.018 112.364C-69.7882 110.619 -77.8639 114.029 -82.0658 120.829L-143.608 220.41C-147.907 227.367 -147.155 236.252 -141.756 242.29L-62.9213 330.464C-57.7185 336.283 -49.3526 338.161 -42.0525 335.148Z" stroke="#ED1C24" stroke-opacity="0.08" stroke-width="3"/>
<path opacity="0.424242" d="M-41.3805 335.853L68.1284 288.449C75.6478 285.194 80.1929 277.446 79.32 269.371L66.8615 154.125C66.0086 146.235 60.1737 139.827 52.3758 138.216L-65.2911 113.899C-73.0891 112.287 -81.1004 115.834 -85.1799 122.704L-144.774 223.06C-148.949 230.092 -148.038 238.967 -142.53 244.914L-62.3202 331.525C-57.0158 337.253 -48.6224 338.988 -41.3805 335.853Z" stroke="#ED1C24" stroke-opacity="0.08" stroke-width="3"/>
<path opacity="0.434343" d="M-40.7126 336.526L67.6644 287.391C75.1257 284.008 79.5323 276.181 78.5142 268.119L64.0257 153.393C63.0313 145.518 57.084 139.21 49.2606 137.732L-68.545 115.468C-76.3684 113.99 -84.313 117.672 -88.2689 124.611L-145.906 225.706C-149.956 232.81 -148.886 241.673 -143.271 247.527L-61.7175 332.557C-56.3131 338.191 -47.8945 339.782 -40.7126 336.526Z" stroke="#ED1C24" stroke-opacity="0.08" stroke-width="3"/>
<path opacity="0.444444" d="M-40.049 337.157L67.1671 286.314C74.5679 282.805 78.8345 274.9 77.6713 266.854L61.1676 152.681C60.032 144.824 53.974 138.619 46.1273 137.273L-71.7782 117.06C-79.6249 115.715 -87.5005 119.532 -91.3315 126.537L-147.003 228.337C-150.927 235.511 -149.698 244.358 -143.978 250.116L-61.1134 333.545C-55.6106 339.086 -47.1689 340.533 -40.049 337.157Z" stroke="#ED1C24" stroke-opacity="0.08" stroke-width="3"/>
<path opacity="0.454545" d="M-39.3894 337.757L66.6375 285.233C73.9753 281.597 78.1004 273.619 76.7926 265.59L58.2889 152.003C57.0124 144.167 50.8455 138.065 42.9777 136.854L-74.9894 118.688C-82.8572 117.476 -90.6616 121.426 -94.3664 128.496L-148.066 230.964C-151.862 238.206 -150.474 247.034 -144.651 252.696L-60.5076 334.505C-54.9079 339.95 -46.4454 341.253 -39.3894 337.757Z" stroke="#ED1C24" stroke-opacity="0.08" stroke-width="3"/>
<path opacity="0.464646" d="M-38.7336 338.322L66.0763 284.139C73.3487 280.38 77.3308 272.329 75.8786 264.322L55.3909 151.354C53.9738 143.54 47.6997 137.543 39.813 136.466L-78.1775 120.343C-86.0641 119.266 -93.7951 123.348 -97.3726 130.48L-149.093 233.581C-152.759 240.889 -151.214 249.695 -145.289 255.258L-59.9 335.43C-54.205 340.777 -45.7239 341.936 -38.7336 338.322Z" stroke="#ED1C24" stroke-opacity="0.08" stroke-width="3"/>
<path opacity="0.474747" d="M-38.0887 338.846L65.4768 283.031C72.6816 279.148 76.5192 271.029 74.9231 263.045L52.4678 150.727C50.9106 142.938 44.531 137.05 36.6277 136.106L-81.348 122.022C-89.2513 121.079 -96.9066 125.292 -100.356 132.483L-150.091 236.183C-153.627 243.554 -151.923 252.335 -145.899 257.798L-59.2975 336.314C-53.5088 341.563 -45.0113 342.577 -38.0887 338.846Z" stroke="#ED1C24" stroke-opacity="0.08" stroke-width="3"/>
<path opacity="0.484848" d="M-37.4472 339.338L64.8471 281.916C71.9818 277.911 75.6737 269.725 73.9341 261.768L49.5282 150.133C47.8314 142.371 41.3481 136.591 33.4304 135.782L-84.4927 123.732C-92.4104 122.923 -99.9879 127.265 -103.307 134.514L-151.053 238.777C-154.456 246.209 -152.595 254.962 -146.473 260.322L-58.6929 337.167C-52.8121 342.315 -44.3003 343.185 -37.4472 339.338Z" stroke="#ED1C24" stroke-opacity="0.08" stroke-width="3"/>
<path opacity="0.494949" d="M-36.8144 339.794L64.1825 280.793C71.2449 276.667 74.7898 268.418 72.9072 260.49L46.5682 149.567C44.7322 141.835 38.1471 136.167 30.2171 135.492L-87.6155 125.469C-95.5455 124.795 -103.043 129.265 -106.232 136.57L-151.982 241.36C-155.252 248.85 -153.234 257.572 -147.016 262.828L-58.0911 337.985C-52.12 343.031 -43.5962 343.756 -36.8144 339.794Z" stroke="#ED1C24" stroke-opacity="0.08" stroke-width="3"/>
<path opacity="0.50505" d="M-36.1917 340.213L63.4821 279.657C70.4699 275.412 73.8665 267.103 71.8416 259.206L43.5874 149.028C41.6129 141.328 34.9277 135.773 26.9878 135.233L-90.7169 127.23C-98.6569 126.691 -106.072 131.288 -109.13 138.645L-152.88 243.928C-156.016 251.473 -153.842 260.162 -147.53 265.311L-57.4939 338.765C-51.434 343.708 -42.9003 344.289 -36.1917 340.213Z" stroke="#ED1C24" stroke-opacity="0.08" stroke-width="3"/>
<path opacity="0.515152" d="M-35.5789 340.594L62.7467 278.512C69.6576 274.148 72.9047 265.781 70.7381 257.919L40.5873 148.516C38.4748 140.851 31.6915 135.409 23.7438 135.004L-93.7957 129.015C-101.743 128.61 -109.074 133.332 -112 140.741L-153.747 246.481C-156.747 254.079 -154.417 262.731 -148.013 267.773L-56.901 339.507C-50.7539 344.347 -42.2126 344.782 -35.5789 340.594Z" stroke="#ED1C24" stroke-opacity="0.08" stroke-width="3"/>
<path opacity="0.525253" d="M-34.9742 340.943L61.9786 277.361C68.8104 272.881 71.9071 264.459 69.5994 256.635L37.5709 148.036C35.3211 140.408 28.4416 135.082 20.4883 134.812L-96.8486 130.828C-104.802 130.558 -112.047 135.404 -114.838 142.862L-154.58 249.023C-157.444 256.672 -154.959 265.284 -148.465 270.216L-56.3104 340.218C-50.0779 344.953 -41.5311 345.243 -34.9742 340.943Z" stroke="#ED1C24" stroke-opacity="0.08" stroke-width="3"/>
<path opacity="0.535354" d="M-34.3806 341.264L61.1753 276.211C67.9259 271.615 70.8709 263.141 68.4231 255.357L34.5364 147.593C32.15 140.004 25.1761 134.796 17.2195 134.661L-99.8781 132.674C-107.835 132.539 -114.991 137.507 -117.649 145.01L-155.383 251.559C-158.109 259.255 -155.469 267.824 -148.888 272.646L-55.7253 340.902C-49.4091 345.529 -40.8591 345.674 -34.3806 341.264Z" stroke="#ED1C24" stroke-opacity="0.08" stroke-width="3"/>
<path opacity="0.545455" d="M-33.7946 341.541L60.3412 275.045C67.0083 270.335 69.8008 261.812 67.2136 254.071L31.4887 147.17C28.9664 139.623 21.9002 134.534 13.9425 134.534L-102.879 134.534C-110.837 134.534 -117.903 139.623 -120.425 147.17L-156.15 254.071C-158.738 261.812 -155.945 270.335 -149.278 275.045L-55.1421 341.541C-48.7439 346.061 -40.1928 346.061 -33.7946 341.541Z" stroke="#ED1C24" stroke-opacity="0.08" stroke-width="3"/>
<path opacity="0.555556" d="M-33.2211 341.79L59.4717 273.878C66.0531 269.056 68.6922 260.488 65.9664 252.791L28.4238 146.784C25.7664 139.28 18.6099 134.312 10.6533 134.447L-105.856 136.424C-113.813 136.559 -120.786 141.767 -123.173 149.356L-156.887 256.573C-159.335 264.358 -156.39 272.832 -149.64 277.427L-54.5658 342.152C-48.0873 346.563 -39.5373 346.417 -33.2211 341.79Z" stroke="#ED1C24" stroke-opacity="0.08" stroke-width="3"/>
<path opacity="0.565657" d="M-32.6632 341.999L58.5643 272.701C65.058 267.769 67.5429 259.157 64.6795 251.508L25.3399 146.422C22.5483 138.965 15.3035 134.119 7.35019 134.389L-108.811 138.333C-116.764 138.603 -123.643 143.928 -125.893 151.557L-157.597 259.055C-159.905 266.88 -156.808 275.301 -149.977 279.782L-53.9994 342.724C-47.4425 347.024 -38.8957 346.733 -32.6632 341.999Z" stroke="#ED1C24" stroke-opacity="0.08" stroke-width="3"/>
<path opacity="0.575758" d="M-32.1156 342.182L57.625 271.527C64.029 266.485 66.3588 257.834 63.3589 250.235L22.2437 146.098C19.3187 138.689 11.9876 133.967 4.03987 134.372L-111.737 140.271C-119.685 140.676 -126.468 146.117 -128.58 153.783L-158.274 261.528C-160.441 269.39 -157.194 277.757 -150.283 282.121L-53.4376 343.268C-46.8039 347.457 -38.2626 347.021 -32.1156 342.182Z" stroke="#ED1C24" stroke-opacity="0.08" stroke-width="3"/>
<path opacity="0.585859" d="M-31.5831 342.329L56.6496 270.347C62.9618 265.197 65.1358 256.509 62.0003 248.964L19.1314 145.803C16.074 138.445 8.65861 133.848 0.718652 134.388L-114.638 142.231C-122.578 142.77 -129.263 148.326 -131.238 156.026L-158.923 263.984C-160.948 271.88 -157.551 280.189 -150.563 284.435L-52.8853 343.778C-46.1767 347.853 -37.643 347.273 -31.5831 342.329Z" stroke="#ED1C24" stroke-opacity="0.08" stroke-width="3"/>
<path opacity="0.59596" d="M-31.062 342.44L55.6423 269.159C61.8606 263.904 63.8783 255.182 60.6084 247.692L16.008 145.535C12.819 138.23 5.32154 133.76 -2.60843 134.434L-117.51 144.208C-125.44 144.882 -132.025 150.551 -133.861 158.283L-159.539 266.418C-161.421 274.346 -157.876 282.595 -150.814 286.721L-52.3388 344.25C-45.557 348.211 -37.0332 347.486 -31.062 342.44Z" stroke="#ED1C24" stroke-opacity="0.08" stroke-width="3"/>
<path opacity="0.606061" d="M-30.5554 342.518L54.6007 267.97C60.7231 262.61 62.5839 253.857 59.1807 246.426L12.8715 145.299C9.55196 138.05 1.9745 133.707 -5.94325 134.516L-120.355 146.208C-128.273 147.017 -134.756 152.796 -136.453 160.558L-160.125 268.836C-161.865 276.793 -158.173 284.979 -151.038 288.984L-51.8011 344.689C-44.9479 348.536 -36.4362 347.667 -30.5554 342.518Z" stroke="#ED1C24" stroke-opacity="0.08" stroke-width="3"/>
<path opacity="0.616162" d="M-30.0648 342.566L53.524 266.78C59.5486 261.318 61.2519 252.537 57.7167 245.166L9.72177 145.096C6.27271 137.904 -1.38259 133.691 -9.2859 134.635L-123.174 148.23C-131.077 149.174 -137.456 155.063 -139.014 162.851L-160.683 271.238C-162.279 279.222 -158.442 287.342 -151.237 291.225L-51.2736 345.098C-44.351 348.829 -35.8534 347.814 -30.0648 342.566Z" stroke="#ED1C24" stroke-opacity="0.08" stroke-width="3"/>
<path opacity="0.626263" d="M-29.5933 342.585L52.4095 265.592C58.3344 260.029 59.8799 251.223 56.2139 243.915L6.55671 144.927C2.97922 137.796 -4.75175 133.713 -12.6384 134.791L-125.968 150.276C-133.854 151.354 -140.128 157.35 -141.545 165.164L-161.216 273.625C-162.668 281.633 -158.686 289.683 -151.413 293.443L-50.7596 345.477C-43.7694 349.091 -35.2883 347.932 -29.5933 342.585Z" stroke="#ED1C24" stroke-opacity="0.08" stroke-width="3"/>
<path opacity="0.636364" d="M-29.1354 342.567L51.2636 264.398C57.0869 258.737 58.4741 249.909 54.6786 242.666L3.38304 144.786C-0.321732 137.716 -8.12614 133.766 -15.9939 134.978L-128.731 152.338C-136.598 153.55 -142.765 159.651 -144.042 167.488L-161.717 275.989C-163.025 284.018 -158.9 291.997 -151.562 295.632L-50.2536 345.819C-43.1975 349.315 -34.735 348.012 -29.1354 342.567Z" stroke="#ED1C24" stroke-opacity="0.08" stroke-width="3"/>
<path opacity="0.646465" d="M-28.6941 342.52L50.0836 263.206C55.8035 257.448 57.0321 248.601 53.1086 241.426L0.198967 144.678C-3.63195 137.673 -11.5076 133.856 -19.3543 135.201L-131.465 154.421C-139.312 155.766 -145.37 161.972 -146.506 169.829L-162.19 278.336C-163.353 286.383 -159.087 294.287 -151.686 297.797L-49.7585 346.131C-42.6386 349.508 -34.1969 348.061 -28.6941 342.52Z" stroke="#ED1C24" stroke-opacity="0.08" stroke-width="3"/>
<path opacity="0.656566" d="M-28.2692 342.445L48.8705 262.017C54.4852 256.163 55.5551 247.301 51.5048 240.197L-2.99409 144.605C-6.94996 137.667 -14.8946 133.984 -22.718 135.463L-134.17 156.526C-141.993 158.004 -147.941 164.312 -148.935 172.186L-162.635 280.667C-163.653 288.729 -159.246 296.556 -151.785 299.939L-49.274 346.415C-42.0922 349.671 -33.6735 348.08 -28.2692 342.445Z" stroke="#ED1C24" stroke-opacity="0.08" stroke-width="3"/>
<path opacity="0.666667" d="M-27.8637 342.336L47.622 260.827C53.1296 254.879 54.0406 246.004 49.8652 238.973L-6.1981 144.562C-10.2776 137.692 -18.289 134.145 -26.0869 135.756L-136.847 158.646C-144.645 160.258 -150.48 166.666 -151.333 174.555L-163.053 282.975C-163.926 291.049 -159.381 298.797 -151.862 302.052L-48.8034 346.664C-41.5614 349.799 -33.1681 348.064 -27.8637 342.336Z" stroke="#ED1C24" stroke-opacity="0.08" stroke-width="3"/>
<path opacity="0.676768" d="M-27.479 342.193L46.3373 259.633C51.7363 253.594 52.4882 244.71 48.189 237.753L-9.41317 144.546C-13.6152 137.747 -21.6908 134.337 -29.461 136.081L-139.498 160.78C-147.268 162.525 -152.989 169.031 -153.7 176.933L-163.448 285.258C-164.175 293.343 -159.493 301.008 -151.918 304.134L-48.3478 346.878C-41.0477 349.891 -32.6818 348.013 -27.479 342.193Z" stroke="#ED1C24" stroke-opacity="0.08" stroke-width="3"/>
<path opacity="0.686869" d="M-27.1112 342.026L45.0208 258.447C50.3093 252.319 50.9022 243.428 46.4809 236.548L-12.6344 144.568C-16.9575 137.842 -25.0952 134.57 -32.8355 136.446L-142.117 162.937C-149.857 164.813 -155.462 171.417 -156.031 179.329L-163.813 287.526C-164.395 295.618 -159.578 303.198 -151.95 306.195L-47.9034 347.066C-40.5473 349.956 -32.211 347.935 -27.1112 342.026Z" stroke="#ED1C24" stroke-opacity="0.08" stroke-width="3"/>
<path opacity="0.69697" d="M-26.7617 341.826L43.6719 257.26C48.8484 251.045 49.2823 242.15 44.7405 235.35L-15.8619 144.619C-20.3047 137.967 -28.5021 134.835 -36.2103 136.843L-144.704 165.107C-152.412 167.115 -157.901 173.813 -158.328 181.734L-164.151 289.77C-164.587 297.866 -159.637 305.359 -151.958 308.225L-47.4716 347.221C-40.0613 349.986 -31.7569 347.823 -26.7617 341.826Z" stroke="#ED1C24" stroke-opacity="0.08" stroke-width="3"/>
<path opacity="0.707071" d="M-26.4353 341.601L42.2863 256.081C47.3492 249.78 47.6241 240.884 42.9634 234.166L-19.0994 144.707C-23.6606 138.132 -31.9154 135.14 -39.5892 137.279L-147.265 167.298C-154.939 169.438 -160.308 176.228 -160.593 184.154L-164.466 291.996C-164.757 300.095 -159.676 307.497 -151.948 310.232L-47.0573 347.35C-39.5948 349.991 -31.3246 347.685 -26.4353 341.601Z" stroke="#ED1C24" stroke-opacity="0.08" stroke-width="3"/>
<path opacity="0.717172" d="M-26.1263 341.345L40.8706 254.903C45.8183 248.519 45.9344 239.626 41.1566 232.991L-22.34 144.824C-27.0182 138.329 -35.3278 135.477 -42.9651 137.748L-149.793 169.502C-157.43 171.772 -162.679 178.654 -162.822 186.582L-164.754 294.198C-164.899 302.296 -159.688 309.606 -151.914 312.208L-46.6546 347.447C-39.1419 349.962 -30.908 347.514 -26.1263 341.345Z" stroke="#ED1C24" stroke-opacity="0.08" stroke-width="3"/>
<path opacity="0.727273" d="M-25.843 341.059L39.4167 253.728C44.2478 247.263 44.2053 238.374 39.3121 231.826L-25.5912 144.973C-30.3848 138.558 -38.7469 135.849 -46.3454 138.249L-152.294 171.719C-159.893 174.12 -165.02 181.09 -165.02 189.019L-165.02 296.376C-165.02 304.47 -159.681 311.685 -151.864 314.155L-46.2719 347.512C-38.7111 349.901 -30.5159 347.312 -25.843 341.059Z" stroke="#ED1C24" stroke-opacity="0.08" stroke-width="3"/>
<path opacity="0.737374" d="M-25.5798 340.747L37.9313 252.56C42.6443 246.016 42.4435 237.136 37.4366 230.676L-28.8458 145.156C-33.7534 138.824 -42.1655 136.258 -49.7232 138.788L-154.764 173.954C-162.322 176.484 -167.326 183.541 -167.184 191.468L-165.261 298.534C-165.116 306.622 -159.651 313.74 -151.794 316.076L-45.9036 347.551C-38.2967 349.812 -30.1423 347.083 -25.5798 340.747Z" stroke="#ED1C24" stroke-opacity="0.08" stroke-width="3"/>
<path opacity="0.747475" d="M-25.3361 340.41L36.4155 251.398C41.0088 244.777 40.6501 235.908 35.5313 229.538L-32.1025 145.372C-37.1225 139.125 -45.5822 136.704 -53.0967 139.363L-157.201 176.202C-164.715 178.862 -169.595 186.004 -169.31 193.926L-165.476 300.67C-165.186 308.749 -159.597 315.767 -151.701 317.968L-45.5491 347.562C-37.8982 349.695 -29.7869 346.825 -25.3361 340.41Z" stroke="#ED1C24" stroke-opacity="0.08" stroke-width="3"/>
<path opacity="0.757576" d="M-25.1169 340.042L34.865 250.24C39.3373 243.544 38.8211 234.689 33.5923 228.411L-35.365 145.618C-40.4958 139.458 -49.0006 137.181 -56.4698 139.969L-159.608 178.462C-167.077 181.249 -171.831 188.474 -171.404 196.39L-165.669 302.779C-165.234 310.846 -159.524 317.762 -151.592 319.829L-45.2133 347.542C-37.5205 349.546 -29.4545 346.536 -25.1169 340.042Z" stroke="#ED1C24" stroke-opacity="0.08" stroke-width="3"/>
<path opacity="0.767677" d="M-24.9197 339.647L33.2827 249.087C37.6327 242.319 36.9593 233.481 31.6224 227.297L-38.6299 145.896C-43.87 139.824 -52.4173 137.693 -59.839 140.609L-161.983 180.733C-169.405 183.648 -174.031 190.954 -173.462 198.86L-165.838 304.863C-165.259 312.916 -159.429 319.728 -151.464 321.659L-44.8939 347.493C-37.1613 349.367 -29.1428 346.218 -24.9197 339.647Z" stroke="#ED1C24" stroke-opacity="0.08" stroke-width="3"/>
<path opacity="0.777778" d="M-24.7495 339.225L31.6644 247.941C35.8909 241.102 35.0609 232.284 29.6179 226.196L-41.901 146.205C-47.2487 140.224 -55.836 138.24 -63.2081 141.282L-164.331 183.016C-171.703 186.058 -176.2 193.442 -175.49 201.337L-165.989 306.923C-165.265 314.959 -159.318 321.665 -151.322 323.459L-44.5957 347.416C-36.8254 349.16 -28.8568 345.871 -24.7495 339.225Z" stroke="#ED1C24" stroke-opacity="0.08" stroke-width="3"/>
<path opacity="0.787879" d="M-24.6005 338.782L30.0167 246.806C34.1182 239.899 33.1323 231.104 27.585 225.114L-45.1714 146.551C-50.6251 140.662 -59.2498 138.825 -66.5701 141.994L-166.644 185.314C-173.964 188.483 -178.332 195.943 -177.48 203.824L-166.114 308.962C-165.247 316.978 -159.184 323.576 -151.16 325.234L-44.313 347.315C-36.5071 348.928 -28.5906 345.501 -24.6005 338.782Z" stroke="#ED1C24" stroke-opacity="0.08" stroke-width="3"/>
<path opacity="0.79798" d="M-24.4792 338.319L28.3336 245.684C32.3091 238.711 31.1678 229.941 25.5183 224.051L-48.4467 146.933C-54.0045 141.139 -62.6641 139.45 -69.9304 142.745L-168.929 187.628C-176.195 190.922 -180.431 198.457 -179.438 206.322L-166.221 310.981C-165.212 318.975 -159.035 325.462 -150.986 326.983L-44.0522 347.192C-36.2129 348.674 -28.3508 345.109 -24.4792 338.319Z" stroke="#ED1C24" stroke-opacity="0.08" stroke-width="3"/>
<path opacity="0.808081" d="M-24.378 337.823L26.6234 244.564C30.4716 237.527 29.1756 228.785 23.4259 222.996L-51.7182 147.341C-57.3786 141.642 -66.0704 140.102 -73.2806 143.521L-171.178 189.945C-178.388 193.364 -182.492 200.971 -181.358 208.816L-166.303 312.966C-165.151 320.936 -158.864 327.31 -150.791 328.694L-43.8058 347.035C-35.9353 348.385 -28.1299 344.683 -24.378 337.823Z" stroke="#ED1C24" stroke-opacity="0.08" stroke-width="3"/>
<path opacity="0.818182" d="M-24.3052 337.302L24.8784 243.451C28.5983 236.353 27.1483 227.642 21.3004 221.957L-54.9932 147.779C-60.7543 142.178 -69.4759 140.788 -76.6278 144.331L-173.399 192.27C-180.55 195.813 -184.52 203.491 -183.245 211.315L-166.367 314.926C-165.073 322.868 -158.677 329.128 -150.584 330.374L-43.5821 346.852C-35.6826 348.068 -27.9362 344.231 -24.3052 337.302Z" stroke="#ED1C24" stroke-opacity="0.08" stroke-width="3"/>
<path opacity="0.828283" d="M-24.2585 336.761L23.1014 242.352C26.6919 235.195 25.0888 226.518 19.1448 220.937L-58.2684 148.253C-64.1285 142.751 -72.8771 141.511 -79.9685 145.177L-175.588 194.608C-182.679 198.274 -186.514 206.02 -185.099 213.82L-166.412 316.862C-164.977 324.774 -158.475 330.918 -150.364 332.027L-43.3788 346.645C-35.4526 347.728 -27.7673 343.755 -24.2585 336.761Z" stroke="#ED1C24" stroke-opacity="0.08" stroke-width="3"/>
<path opacity="0.838384" d="M-24.2375 336.197L21.2939 241.263C24.7539 234.049 22.9985 225.409 16.9605 219.934L-61.5423 148.76C-67.4995 143.359 -76.2725 142.269 -83.3014 146.057L-177.744 196.956C-184.773 200.744 -188.472 208.555 -186.918 216.329L-166.436 318.773C-164.861 326.653 -158.255 332.679 -150.129 333.649L-43.1954 346.414C-35.2446 347.364 -27.6229 343.256 -24.2375 336.197Z" stroke="#ED1C24" stroke-opacity="0.08" stroke-width="3"/>
<path opacity="0.848485" d="M-24.2414 335.609L19.4568 240.183C22.7855 232.914 20.8786 224.313 14.7487 218.947L-64.8134 149.296C-70.8658 143.998 -79.6606 143.059 -86.6248 146.968L-179.868 199.309C-186.832 203.218 -190.393 211.093 -188.7 218.838L-166.441 320.655C-164.726 328.5 -158.018 334.406 -149.879 335.238L-43.0313 346.156C-35.0582 346.971 -27.5022 342.73 -24.2414 335.609Z" stroke="#ED1C24" stroke-opacity="0.08" stroke-width="3"/>
<path opacity="0.858586" d="M-24.2716 335.004L17.5897 239.12C20.786 231.799 18.7286 223.24 12.509 217.983L-68.0819 149.87C-74.2277 144.676 -83.0415 143.889 -89.9389 147.918L-181.959 201.675C-188.856 205.705 -192.279 213.641 -190.447 221.355L-166.426 322.516C-164.572 330.323 -157.765 336.108 -149.616 336.801L-42.8878 345.88C-34.8946 346.559 -27.4068 342.185 -24.2716 335.004Z" stroke="#ED1C24" stroke-opacity="0.08" stroke-width="3"/>
<path opacity="0.868687" d="M-24.3328 334.37L15.6885 238.061C18.7516 230.69 16.5447 222.176 10.2375 217.03L-71.3516 150.468C-77.5889 145.379 -86.419 144.744 -93.2474 148.892L-184.021 204.041C-190.85 208.19 -194.134 216.184 -192.164 223.865L-166.397 324.342C-164.406 332.11 -157.502 337.771 -149.345 338.325L-42.7695 345.571C-34.7586 346.116 -27.3411 341.609 -24.3328 334.37Z" stroke="#ED1C24" stroke-opacity="0.08" stroke-width="3"/>
<path opacity="0.878788" d="M-24.4191 333.717L13.7597 237.017C16.6886 229.598 14.3333 221.131 7.94074 216.098L-74.6157 151.099C-80.9425 146.118 -89.7863 145.635 -96.5437 149.902L-186.05 206.415C-192.807 210.682 -195.95 218.733 -193.843 226.379L-166.349 326.143C-164.22 333.868 -157.222 339.404 -149.06 339.82L-42.6707 345.241C-34.6443 345.65 -27.2995 341.013 -24.4191 333.717Z" stroke="#ED1C24" stroke-opacity="0.08" stroke-width="3"/>
<path opacity="0.888889" d="M-24.537 333.05L11.7973 235.991C14.5914 228.527 12.0887 220.11 5.61297 215.191L-77.8797 151.768C-84.294 146.896 -93.1488 146.565 -99.8331 150.949L-188.049 208.801C-194.734 213.185 -197.736 221.291 -195.492 228.898L-166.287 327.923C-164.022 335.603 -156.932 341.012 -148.768 341.29L-42.5977 344.894C-34.5582 345.167 -27.2884 340.4 -24.537 333.05Z" stroke="#ED1C24" stroke-opacity="0.08" stroke-width="3"/>
<path opacity="0.89899" d="M-24.6788 332.362L9.80993 234.977C12.4684 227.471 9.8194 219.105 3.26273 214.301L-81.1351 152.467C-87.6349 147.705 -96.4979 147.527 -103.107 152.027L-190.013 211.191C-196.622 215.69 -199.482 223.849 -197.102 231.416L-166.205 329.672C-163.805 337.306 -156.625 342.587 -148.461 342.726L-42.543 344.523C-34.4927 344.66 -27.3001 339.763 -24.6788 332.362Z" stroke="#ED1C24" stroke-opacity="0.08" stroke-width="3"/>
<path opacity="0.909091" d="M-24.851 331.645L7.79142 233.969C10.3136 226.422 7.51945 218.111 0.884096 213.424L-84.3874 153.189C-90.9708 148.538 -99.8393 148.514 -106.371 153.128L-191.946 213.577C-198.478 218.191 -201.194 226.399 -198.68 233.924L-166.109 331.386C-163.574 338.97 -156.308 344.122 -148.146 344.122L-42.5131 344.122C-34.4544 344.122 -27.3413 339.097 -24.851 331.645Z" stroke="#ED1C24" stroke-opacity="0.08" stroke-width="3"/>
<path opacity="0.919192" d="M-25.0529 330.919L5.74319 232.984C8.12839 225.398 5.19032 217.145 -1.52148 212.575L-87.6353 153.95C-94.3002 149.413 -103.171 149.541 -109.624 154.269L-193.848 215.976C-200.301 220.703 -202.873 228.959 -200.224 236.439L-165.998 333.08C-163.331 340.612 -155.98 345.633 -147.823 345.494L-42.5074 343.707C-34.4425 343.57 -27.4112 338.419 -25.0529 330.919Z" stroke="#ED1C24" stroke-opacity="0.08" stroke-width="3"/>
<path opacity="0.929293" d="M-25.2824 330.173L3.66813 232.011C5.91574 224.39 2.835 216.196 -3.95098 211.745L-90.8754 154.741C-97.6197 150.318 -106.491 150.599 -112.862 155.439L-195.716 218.376C-202.087 223.216 -204.515 231.517 -201.732 238.949L-165.872 334.743C-163.072 342.221 -155.64 347.11 -147.491 346.833L-42.5234 343.269C-34.4549 342.995 -27.5077 337.718 -25.2824 330.173Z" stroke="#ED1C24" stroke-opacity="0.08" stroke-width="3"/>
<path opacity="0.939394" d="M-25.5421 329.407L1.56403 231.052C3.67349 223.397 0.451351 215.265 -6.40652 210.935L-94.1098 155.56C-100.932 151.252 -109.8 151.688 -116.088 156.638L-197.553 220.778C-203.841 225.729 -206.123 234.072 -203.208 241.455L-165.732 336.375C-162.801 343.798 -155.29 348.553 -147.151 348.138L-42.5642 342.809C-34.4944 342.398 -27.6336 336.996 -25.5421 329.407Z" stroke="#ED1C24" stroke-opacity="0.08" stroke-width="3"/>
<path opacity="0.949495" d="M-25.835 328.627L-0.571397 230.111C1.3994 222.425 -1.96282 214.357 -8.8903 210.149L-97.3406 156.412C-104.238 152.222 -113.1 152.81 -119.303 157.871L-199.362 223.185C-205.564 228.245 -207.7 236.629 -204.653 243.96L-165.582 337.982C-162.522 345.346 -154.934 349.966 -146.807 349.413L-42.6327 342.331C-34.564 341.782 -27.7918 336.257 -25.835 328.627Z" stroke="#ED1C24" stroke-opacity="0.08" stroke-width="3"/>
<path opacity="0.959596" d="M-26.1536 327.826L-2.72995 229.182C-0.898286 221.468 -4.39923 213.467 -11.394 209.38L-100.559 157.29C-107.529 153.219 -116.384 153.961 -122.499 159.129L-201.134 225.589C-207.249 230.758 -209.237 239.179 -206.06 246.457L-165.415 339.555C-162.226 346.858 -154.564 351.342 -146.453 350.652L-42.7212 341.829C-34.656 341.143 -27.9748 335.496 -26.1536 327.826Z" stroke="#ED1C24" stroke-opacity="0.08" stroke-width="3"/>
<path opacity="0.969697" d="M-26.504 327.014L-4.91735 228.273C-3.22525 220.533 -6.86353 212.601 -13.9233 208.638L-103.772 158.203C-110.813 154.251 -119.656 155.146 -125.682 160.421L-202.876 227.999C-208.902 233.274 -210.742 241.732 -207.435 248.953L-165.237 341.102C-161.921 348.343 -154.188 352.69 -146.094 351.863L-42.8362 341.311C-34.7769 340.488 -28.1889 334.72 -26.504 327.014Z" stroke="#ED1C24" stroke-opacity="0.08" stroke-width="3"/>
<path opacity="0.979798" d="M-26.8823 326.188L-7.12886 227.384C-5.57671 219.621 -9.35092 211.759 -16.4734 207.921L-106.973 159.148C-114.083 155.316 -122.912 156.364 -128.846 161.745L-204.583 230.412C-210.518 235.793 -212.21 244.283 -208.774 251.446L-165.045 342.623C-161.603 349.799 -153.801 354.008 -145.727 353.044L-42.9735 340.777C-34.9227 339.816 -28.43 333.93 -26.8823 326.188Z" stroke="#ED1C24" stroke-opacity="0.08" stroke-width="3"/>
<path opacity="0.989899" d="M-27.2966 325.343L-9.37201 226.507C-7.96015 218.722 -11.8689 210.935 -19.0517 207.221L-110.17 160.117C-117.346 156.407 -126.159 157.608 -132 163.093L-206.265 232.82C-212.106 238.305 -213.648 246.826 -210.085 253.928L-164.847 344.109C-161.281 351.218 -153.412 355.287 -145.36 354.187L-43.1413 340.22C-35.1014 339.121 -28.7064 333.117 -27.2966 325.343Z" stroke="#ED1C24" stroke-opacity="0.08" stroke-width="3"/>
<path d="M-27.7391 324.485L-11.6385 225.65C-10.3672 217.846 -14.4089 210.134 -21.6498 206.547L-113.354 161.117C-120.595 157.53 -129.388 158.884 -135.134 164.471L-207.911 235.229C-213.658 240.816 -215.05 249.365 -211.361 256.405L-164.635 345.566C-160.946 352.606 -153.014 356.536 -144.987 355.3L-43.332 339.646C-35.3055 338.41 -29.0104 332.289 -27.7391 324.485Z" stroke="#ED1C24" stroke-opacity="0.08" stroke-width="3"/>
<path opacity="0.010101" d="M358.143 414.918L493.766 456.382C501.431 458.725 509.733 455.867 514.33 449.302L595.675 333.129C600.272 326.564 600.118 317.785 595.295 311.384L509.945 198.121C505.122 191.72 496.725 189.153 489.147 191.763L355.053 237.935C347.475 240.544 342.439 247.736 342.579 255.75L345.054 397.549C345.194 405.563 350.478 412.575 358.143 414.918Z" stroke="#ED1C24" stroke-opacity="0.15" stroke-width="3"/>
<path opacity="0.020202" d="M358.445 417.265L494.472 456.27C502.176 458.48 510.427 455.477 514.909 448.832L594.039 331.516C598.521 324.872 598.215 316.097 593.28 309.781L506.159 198.271C501.225 191.955 492.785 189.535 485.253 192.276L352.278 240.675C344.747 243.416 339.837 250.695 340.117 258.705L345.056 400.128C345.335 408.137 350.741 415.056 358.445 417.265Z" stroke="#ED1C24" stroke-opacity="0.15" stroke-width="3"/>
<path opacity="0.030303" d="M358.77 419.581L495.156 456.125C502.898 458.2 511.095 455.053 515.46 448.332L592.361 329.914C596.726 323.192 596.267 314.424 591.223 308.196L502.365 198.465C497.321 192.236 488.84 189.964 481.358 192.836L349.539 243.437C342.057 246.309 337.275 253.672 337.694 261.676L345.084 402.68C345.503 410.683 351.029 417.507 358.77 419.581Z" stroke="#ED1C24" stroke-opacity="0.15" stroke-width="3"/>
<path opacity="0.040404" d="M359.117 421.857L495.818 455.94C503.594 457.879 511.735 454.59 515.982 447.793L590.64 328.316C594.887 321.519 594.275 312.76 589.123 306.62L498.564 198.696C493.412 192.557 484.893 190.432 477.462 193.435L346.835 246.211C339.404 249.214 334.751 256.66 335.31 264.655L345.138 405.197C345.697 413.192 351.341 419.918 359.117 421.857Z" stroke="#ED1C24" stroke-opacity="0.15" stroke-width="3"/>
<path opacity="0.050505" d="M359.49 424.098L496.46 455.72C504.27 457.523 512.352 454.093 516.479 447.223L588.88 326.728C593.008 319.858 592.243 311.111 586.985 305.062L494.76 198.97C489.502 192.922 480.947 190.947 473.57 194.078L344.171 249.005C336.793 252.136 332.271 259.662 332.97 267.646L345.222 407.685C345.92 415.669 351.681 422.295 359.49 424.098Z" stroke="#ED1C24" stroke-opacity="0.15" stroke-width="3"/>
<path opacity="0.0606061" d="M359.885 426.305L497.082 455.467C504.921 457.133 512.942 453.562 516.949 446.621L587.08 325.151C591.088 318.21 590.17 309.478 584.807 303.522L490.954 199.287C485.591 193.331 477.003 191.506 469.681 194.766L341.546 251.815C334.224 255.075 329.834 262.679 330.672 270.65L345.333 410.143C346.171 418.113 352.046 424.638 359.885 426.305Z" stroke="#ED1C24" stroke-opacity="0.15" stroke-width="3"/>
<path opacity="0.0707071" d="M360.301 428.478L497.68 455.182C505.547 456.711 513.505 453.001 517.39 445.991L585.239 323.588C589.125 316.578 588.055 307.864 582.589 302.002L487.143 199.649C481.677 193.788 473.058 192.113 465.795 195.5L338.957 254.645C331.693 258.032 327.437 265.711 328.414 273.666L345.469 412.573C346.446 420.528 352.434 426.949 360.301 428.478Z" stroke="#ED1C24" stroke-opacity="0.15" stroke-width="3"/>
<path opacity="0.0808081" d="M360.738 430.606L498.254 454.853C506.147 456.245 514.038 452.396 517.801 445.32L583.357 322.027C587.12 314.95 585.898 306.256 580.33 300.49L483.33 200.043C477.762 194.278 469.116 192.753 461.912 196.267L336.406 257.48C329.203 260.993 325.081 268.746 326.196 276.682L345.63 414.961C346.746 422.898 352.845 429.214 360.738 430.606Z" stroke="#ED1C24" stroke-opacity="0.15" stroke-width="3"/>
<path opacity="0.0909091" d="M361.198 432.704L498.808 454.499C506.724 455.753 514.547 451.767 518.186 444.626L581.439 320.486C585.077 313.344 583.704 304.672 578.037 299.005L479.518 200.487C473.851 194.82 465.179 193.446 458.038 197.085L333.897 260.337C326.756 263.976 322.77 271.799 324.024 279.715L345.819 417.326C347.073 425.242 353.282 431.45 361.198 432.704Z" stroke="#ED1C24" stroke-opacity="0.15" stroke-width="3"/>
<path opacity="0.10101" d="M361.675 434.757L499.337 454.104C507.273 455.22 515.026 451.098 518.539 443.894L579.479 318.949C582.992 311.745 581.468 303.099 575.702 297.531L475.704 200.964C469.939 195.397 461.244 194.175 454.168 197.937L331.425 263.201C324.349 266.963 320.5 274.855 321.892 282.748L346.031 419.65C347.423 427.543 353.739 433.642 361.675 434.757Z" stroke="#ED1C24" stroke-opacity="0.15" stroke-width="3"/>
<path opacity="0.111111" d="M362.172 436.781L499.841 453.685C507.796 454.662 515.475 450.405 518.862 443.141L577.48 317.434C580.867 310.171 579.192 301.552 573.33 296.086L471.89 201.491C466.028 196.025 457.314 194.955 450.304 198.841L328.992 266.085C321.982 269.97 318.272 277.928 319.801 285.795L346.267 421.949C347.796 429.817 354.217 435.805 362.172 436.781Z" stroke="#ED1C24" stroke-opacity="0.15" stroke-width="3"/>
<path opacity="0.121212" d="M362.688 438.762L500.32 453.227C508.291 454.065 515.895 449.675 519.155 442.353L575.443 315.927C578.703 308.606 576.878 300.017 570.922 294.655L468.077 202.053C462.121 196.69 453.389 195.773 446.448 199.78L326.599 268.975C319.658 272.983 316.087 281.003 317.753 288.843L346.526 424.209C348.192 432.049 354.717 437.924 362.688 438.762Z" stroke="#ED1C24" stroke-opacity="0.15" stroke-width="3"/>
<path opacity="0.131313" d="M363.222 440.704L500.775 452.738C508.76 453.437 516.286 448.915 519.417 441.537L573.369 314.435C576.5 307.057 574.525 298.502 568.477 293.244L464.267 202.656C458.218 197.398 449.472 196.633 442.602 200.761L324.245 271.877C317.375 276.005 313.945 284.087 315.748 291.896L346.809 426.436C348.611 434.245 355.238 440.005 363.222 440.704Z" stroke="#ED1C24" stroke-opacity="0.15" stroke-width="3"/>
<path opacity="0.141414" d="M363.772 442.605L501.204 452.215C509.199 452.774 516.645 448.122 519.647 440.691L571.256 312.955C574.258 305.524 572.134 297.005 565.994 291.853L460.459 203.299C454.319 198.147 445.56 197.534 438.764 201.781L321.931 274.787C315.134 279.034 311.845 287.175 313.784 294.951L347.112 428.626C349.051 436.403 355.777 442.046 363.772 442.605Z" stroke="#ED1C24" stroke-opacity="0.15" stroke-width="3"/>
<path opacity="0.151515" d="M364.339 444.472L501.606 451.666C509.609 452.085 516.973 447.303 519.845 439.821L569.105 311.495C571.977 304.013 569.704 295.532 563.476 290.488L456.653 203.985C450.425 198.941 441.657 198.482 434.935 202.847L319.655 277.71C312.934 282.075 309.787 290.272 311.861 298.014L347.437 430.785C349.512 438.527 356.335 444.052 364.339 444.472Z" stroke="#ED1C24" stroke-opacity="0.15" stroke-width="3"/>
<path opacity="0.161616" d="M364.923 446.296L501.983 451.082C509.992 451.362 517.271 446.452 520.013 438.921L566.918 310.048C569.659 302.517 567.239 294.077 560.924 289.143L452.853 204.709C446.538 199.774 437.763 199.468 431.119 203.95L317.422 280.639C310.777 285.121 307.774 293.372 309.983 301.076L347.785 432.906C349.994 440.611 356.913 446.016 364.923 446.296Z" stroke="#ED1C24" stroke-opacity="0.15" stroke-width="3"/>
<path opacity="0.171717" d="M365.52 448.087L502.331 450.475C510.345 450.614 517.537 445.578 520.146 438L564.694 308.624C567.303 301.046 564.736 292.649 558.336 287.826L449.057 205.479C442.656 200.655 433.878 200.502 427.312 205.099L315.227 283.582C308.661 288.179 305.803 296.481 308.146 304.146L348.152 434.998C350.495 442.663 357.507 447.947 365.52 448.087Z" stroke="#ED1C24" stroke-opacity="0.15" stroke-width="3"/>
<path opacity="0.181818" d="M366.129 449.829L502.649 449.829C510.664 449.829 517.767 444.668 520.244 437.046L562.431 307.208C564.907 299.585 562.194 291.235 555.71 286.524L445.263 206.28C438.779 201.569 429.999 201.569 423.515 206.28L313.069 286.524C306.585 291.235 303.871 299.585 306.348 307.208L348.535 437.046C351.012 444.668 358.115 449.829 366.129 449.829Z" stroke="#ED1C24" stroke-opacity="0.15" stroke-width="3"/>
<path opacity="0.191919" d="M366.753 451.536L502.941 449.159C510.954 449.019 517.966 443.735 520.309 436.07L560.133 305.814C562.476 298.15 559.617 289.848 553.052 285.251L441.477 207.125C434.912 202.528 426.133 202.681 419.732 207.505L310.952 289.477C304.551 294.3 301.984 302.696 304.594 310.274L348.939 439.062C351.548 446.64 358.74 451.676 366.753 451.536Z" stroke="#ED1C24" stroke-opacity="0.15" stroke-width="3"/>
<path opacity="0.20202" d="M367.394 453.206L503.207 448.463C511.217 448.183 518.136 442.778 520.345 435.073L557.803 304.442C560.012 296.738 557.009 288.487 550.365 284.005L437.702 208.013C431.057 203.532 422.283 203.838 415.967 208.772L308.879 292.438C302.564 297.373 300.144 305.812 302.885 313.344L349.364 441.044C352.105 448.576 359.384 453.485 367.394 453.206Z" stroke="#ED1C24" stroke-opacity="0.15" stroke-width="3"/>
<path opacity="0.212121" d="M368.042 454.83L503.44 447.734C511.444 447.314 518.267 441.789 520.341 434.047L555.433 303.083C557.507 295.341 554.361 287.145 547.639 282.779L433.929 208.935C427.207 204.57 418.439 205.029 412.211 210.073L306.842 295.399C300.613 300.443 298.341 308.924 301.213 316.406L349.802 442.985C352.674 450.467 360.038 455.249 368.042 454.83Z" stroke="#ED1C24" stroke-opacity="0.15" stroke-width="3"/>
<path opacity="0.222222" d="M368.7 456.421L503.642 446.985C511.638 446.426 518.364 440.782 520.302 433.005L553.028 301.751C554.967 293.975 551.678 285.834 544.881 281.587L430.163 209.903C423.367 205.656 414.608 206.269 408.468 211.421L304.844 298.372C298.704 303.524 296.58 312.043 299.582 319.474L350.256 444.896C353.259 452.327 360.705 456.98 368.7 456.421Z" stroke="#ED1C24" stroke-opacity="0.15" stroke-width="3"/>
<path opacity="0.232323" d="M369.372 457.965L503.819 446.202C511.803 445.503 518.429 439.743 520.232 431.934L550.592 300.432C552.395 292.623 548.964 284.541 542.094 280.413L426.411 210.903C419.541 206.776 410.794 207.541 404.745 212.799L302.889 301.341C296.841 306.599 294.865 315.154 297.997 322.532L350.73 446.763C353.862 454.141 361.388 458.663 369.372 457.965Z" stroke="#ED1C24" stroke-opacity="0.15" stroke-width="3"/>
<path opacity="0.242424" d="M370.053 459.473L503.964 445.398C511.934 444.561 518.459 438.686 520.126 430.846L548.121 299.14C549.787 291.3 546.216 283.279 539.275 279.272L422.666 211.948C415.725 207.94 406.993 208.858 401.037 214.221L300.973 304.318C295.017 309.681 293.192 318.27 296.452 325.591L351.218 448.599C354.478 455.921 362.082 460.311 370.053 459.473Z" stroke="#ED1C24" stroke-opacity="0.15" stroke-width="3"/>
<path opacity="0.252525" d="M370.741 460.936L504.077 444.564C512.032 443.587 518.453 437.599 519.982 429.732L545.615 297.863C547.144 289.996 543.434 282.038 536.424 278.153L418.93 213.025C411.921 209.139 403.206 210.209 397.344 215.675L299.097 307.293C293.235 312.759 291.56 321.378 294.947 328.641L351.72 450.392C355.107 457.656 362.786 461.912 370.741 460.936Z" stroke="#ED1C24" stroke-opacity="0.15" stroke-width="3"/>
<path opacity="0.262626" d="M371.436 462.362L504.157 443.71C512.094 442.594 518.41 436.495 519.801 428.602L543.075 296.613C544.466 288.72 540.617 280.829 533.541 277.066L415.204 214.145C408.127 210.383 399.433 211.605 393.667 217.172L297.258 310.274C291.493 315.841 289.968 324.488 293.481 331.691L352.234 452.152C355.747 459.356 363.5 463.478 371.436 462.362Z" stroke="#ED1C24" stroke-opacity="0.15" stroke-width="3"/>
<path opacity="0.272727" d="M372.141 463.749L504.208 442.831C512.124 441.577 518.333 435.369 519.586 427.453L540.504 295.386C541.758 287.47 537.771 279.647 530.63 276.008L411.491 215.304C404.35 211.665 395.678 213.039 390.011 218.706L295.461 313.256C289.794 318.923 288.421 327.595 292.059 334.736L352.764 453.875C356.402 461.016 364.225 465.002 372.141 463.749Z" stroke="#ED1C24" stroke-opacity="0.15" stroke-width="3"/>
<path opacity="0.282828" d="M372.852 465.092L504.227 441.927C512.12 440.535 518.219 434.219 519.334 426.283L537.9 294.18C539.015 286.243 534.893 278.491 527.69 274.977L407.79 216.498C400.586 212.985 391.939 214.509 386.372 220.275L293.704 316.235C288.136 322.001 286.914 330.695 290.677 337.772L353.305 455.558C357.068 462.635 364.959 466.484 372.852 465.092Z" stroke="#ED1C24" stroke-opacity="0.15" stroke-width="3"/>
<path opacity="0.292929" d="M373.569 466.397L504.213 441.002C512.081 439.473 518.069 433.051 519.045 425.096L535.265 292.999C536.242 285.044 531.985 277.365 524.721 273.978L404.101 217.731C396.837 214.344 388.219 216.02 382.753 221.881L291.986 319.217C286.52 325.078 285.45 333.793 289.335 340.803L353.858 457.205C357.744 464.215 365.701 467.926 373.569 466.397Z" stroke="#ED1C24" stroke-opacity="0.15" stroke-width="3"/>
<path opacity="0.30303" d="M374.291 467.66L504.168 440.054C512.007 438.388 517.882 431.863 518.72 423.892L532.599 291.842C533.437 283.871 529.047 276.267 521.725 273.007L400.426 219.002C393.105 215.742 384.516 217.567 379.154 223.523L290.308 322.196C284.945 328.153 284.027 336.884 288.035 343.825L354.424 458.814C358.431 465.755 366.452 469.326 374.291 467.66Z" stroke="#ED1C24" stroke-opacity="0.15" stroke-width="3"/>
<path opacity="0.313131" d="M375.016 468.88L504.087 439.082C511.896 437.279 517.656 430.653 518.355 422.669L529.9 290.707C530.598 282.723 526.076 275.197 518.699 272.065L396.763 220.307C389.386 217.175 380.831 219.15 375.573 225.199L288.667 325.172C283.409 331.221 282.644 339.967 286.772 346.837L354.997 460.383C359.125 467.253 367.207 470.683 375.016 468.88Z" stroke="#ED1C24" stroke-opacity="0.15" stroke-width="3"/>
<path opacity="0.323232" d="M375.746 470.061L503.975 438.09C511.751 436.151 517.395 429.425 517.954 421.43L527.173 289.598C527.732 281.603 523.079 274.157 515.648 271.154L393.117 221.649C385.686 218.646 377.167 220.77 372.015 226.91L287.068 328.146C281.916 334.285 281.304 343.044 285.551 349.841L355.582 461.914C359.829 468.711 367.97 472 375.746 470.061Z" stroke="#ED1C24" stroke-opacity="0.15" stroke-width="3"/>
<path opacity="0.333333" d="M376.479 471.201L503.828 437.077C511.57 435.003 517.095 428.18 517.515 420.176L524.415 288.514C524.834 280.511 520.052 273.147 512.57 270.275L389.485 223.027C382.002 220.155 373.522 222.427 368.478 228.656L285.507 331.116C280.463 337.345 280.004 346.113 284.369 352.835L356.175 463.407C360.54 470.128 368.737 473.275 376.479 471.201Z" stroke="#ED1C24" stroke-opacity="0.15" stroke-width="3"/>
<path opacity="0.343434" d="M377.215 472.304L503.65 436.05C511.354 433.84 516.759 426.922 517.039 418.912L521.629 287.462C521.909 279.452 516.999 272.173 509.468 269.432L385.87 224.446C378.339 221.705 369.899 224.125 364.965 230.44L283.986 334.088C279.052 340.403 278.746 349.178 283.227 355.822L356.778 464.866C361.26 471.51 369.51 474.513 377.215 472.304Z" stroke="#ED1C24" stroke-opacity="0.15" stroke-width="3"/>
<path opacity="0.353535" d="M377.951 473.365L503.436 435C511.1 432.657 516.384 425.645 516.524 417.631L518.814 286.433C518.954 278.419 513.918 271.227 506.34 268.618L382.27 225.897C374.692 223.288 366.296 225.855 361.473 232.256L282.503 337.051C277.68 343.452 277.527 352.231 282.124 358.796L357.388 466.284C361.985 472.849 370.286 475.708 377.951 473.365Z" stroke="#ED1C24" stroke-opacity="0.15" stroke-width="3"/>
<path opacity="0.363636" d="M378.687 474.385L503.187 433.932C510.809 431.456 515.97 424.353 515.97 416.338L515.97 285.431C515.97 277.416 510.809 270.313 503.187 267.837L378.687 227.384C371.065 224.908 362.714 227.621 358.004 234.105L281.059 340.01C276.348 346.494 276.348 355.275 281.059 361.759L358.004 467.664C362.714 474.148 371.065 476.861 378.687 474.385Z" stroke="#ED1C24" stroke-opacity="0.15" stroke-width="3"/>
<path opacity="0.373737" d="M379.424 475.36L502.903 432.843C510.481 430.233 515.517 423.041 515.378 415.028L513.098 284.453C512.958 276.439 507.674 269.427 500.01 267.084L375.122 228.902C367.457 226.559 359.155 229.417 354.558 235.982L279.652 342.959C275.055 349.525 275.208 358.303 280.032 364.704L358.626 469.002C363.449 475.403 371.846 477.97 379.424 475.36Z" stroke="#ED1C24" stroke-opacity="0.15" stroke-width="3"/>
<path opacity="0.383838" d="M380.158 476.303L502.584 431.743C510.116 429.002 515.025 421.723 514.746 413.713L510.199 283.51C509.919 275.5 504.514 268.581 496.809 266.372L371.573 230.461C363.869 228.252 355.619 231.255 351.137 237.899L278.284 345.909C273.802 352.553 274.108 361.328 279.043 367.644L359.253 470.308C364.187 476.624 372.627 479.044 380.158 476.303Z" stroke="#ED1C24" stroke-opacity="0.15" stroke-width="3"/>
<path opacity="0.393939" d="M380.897 477.194L502.236 430.617C509.718 427.745 514.5 420.381 514.081 412.377L507.278 282.584C506.859 274.58 501.334 267.757 493.592 265.683L368.049 232.044C360.308 229.969 352.111 233.116 347.746 239.837L276.958 348.841C272.593 355.562 273.053 364.33 278.097 370.559L359.89 471.565C364.934 477.794 373.415 480.066 380.897 477.194Z" stroke="#ED1C24" stroke-opacity="0.15" stroke-width="3"/>
<path opacity="0.40404" d="M381.627 478.054L501.845 429.483C509.276 426.481 513.929 419.035 513.37 411.04L504.325 281.696C503.766 273.701 498.122 266.975 490.346 265.036L364.538 233.669C356.761 231.73 348.62 235.019 344.373 241.816L275.664 351.773C271.417 358.57 272.03 367.329 277.181 373.468L360.525 472.793C365.677 478.933 374.196 481.057 381.627 478.054Z" stroke="#ED1C24" stroke-opacity="0.15" stroke-width="3"/>
<path opacity="0.414141" d="M382.357 478.871L501.422 428.331C508.8 425.199 513.322 417.673 512.623 409.689L501.35 280.834C500.651 272.85 494.891 266.223 487.082 264.42L361.049 235.324C353.24 233.521 345.158 236.951 341.03 243.821L274.411 354.694C270.283 361.564 271.049 370.31 276.307 376.359L361.166 473.979C366.424 480.028 374.979 482.003 382.357 478.871Z" stroke="#ED1C24" stroke-opacity="0.15" stroke-width="3"/>
<path opacity="0.424242" d="M383.082 479.647L500.962 427.163C508.284 423.903 512.674 416.3 511.836 408.329L498.348 280C497.51 272.029 491.635 265.505 483.796 263.838L357.58 237.01C349.74 235.344 341.719 238.915 337.712 245.856L273.194 357.604C269.187 364.545 270.105 373.277 275.468 379.233L361.809 475.125C367.172 481.081 375.76 482.907 383.082 479.647Z" stroke="#ED1C24" stroke-opacity="0.15" stroke-width="3"/>
<path opacity="0.434343" d="M383.802 480.388L500.466 425.987C507.73 422.6 511.986 414.921 511.009 406.966L495.322 279.202C494.345 271.247 488.357 264.825 480.49 263.296L354.131 238.734C346.263 237.205 338.306 240.916 334.42 247.925L272.014 360.51C268.128 367.52 269.198 376.234 274.664 382.096L362.454 476.239C367.92 482.1 376.539 483.775 383.802 480.388Z" stroke="#ED1C24" stroke-opacity="0.15" stroke-width="3"/>
<path opacity="0.444444" d="M384.518 481.083L499.934 424.791C507.137 421.278 511.259 413.526 510.144 405.589L492.272 278.427C491.157 270.49 485.058 264.174 477.165 262.782L350.704 240.484C342.811 239.092 334.919 242.941 331.156 250.018L270.871 363.399C267.108 370.475 268.33 379.17 273.897 384.935L363.1 477.307C368.667 483.072 377.314 484.597 384.518 481.083Z" stroke="#ED1C24" stroke-opacity="0.15" stroke-width="3"/>
<path opacity="0.454545" d="M385.228 481.745L499.366 423.589C506.508 419.951 510.494 412.128 509.24 404.212L489.201 277.688C487.947 269.772 481.738 263.564 473.822 262.31L347.299 242.271C339.383 241.017 331.56 245.003 327.922 252.144L269.765 366.283C266.127 373.424 267.5 382.096 273.167 387.763L363.748 478.343C369.415 484.011 378.087 485.384 385.228 481.745Z" stroke="#ED1C24" stroke-opacity="0.15" stroke-width="3"/>
<path opacity="0.464646" d="M385.935 482.368L498.765 422.375C505.842 418.612 509.69 410.721 508.299 402.828L486.108 276.981C484.717 269.088 478.401 262.989 470.464 261.873L343.919 244.088C335.983 242.973 328.23 247.095 324.717 254.299L268.698 369.154C265.185 376.358 266.71 385.004 272.475 390.572L364.398 479.341C370.163 484.908 378.858 486.13 385.935 482.368Z" stroke="#ED1C24" stroke-opacity="0.15" stroke-width="3"/>
<path opacity="0.474747" d="M386.629 482.946L498.122 421.144C505.132 417.259 508.843 409.301 507.314 401.434L482.99 276.299C481.461 268.432 475.039 262.444 467.084 261.467L340.558 245.932C332.603 244.955 324.924 249.212 321.537 256.475L267.663 372.008C264.276 379.272 265.951 387.891 271.813 393.357L365.043 480.296C370.905 485.762 379.619 486.832 386.629 482.946Z" stroke="#ED1C24" stroke-opacity="0.15" stroke-width="3"/>
<path opacity="0.484848" d="M387.319 483.488L497.447 419.906C504.388 415.899 507.959 407.878 506.293 400.038L479.854 275.652C478.187 267.813 471.663 261.938 463.692 261.1L337.224 247.808C329.253 246.97 321.649 251.36 318.389 258.682L266.667 374.852C263.407 382.174 265.232 390.762 271.189 396.125L365.69 481.215C371.646 486.578 380.378 487.496 387.319 483.488Z" stroke="#ED1C24" stroke-opacity="0.15" stroke-width="3"/>
<path opacity="0.494949" d="M388 483.994L496.734 418.66C503.604 414.532 507.035 406.45 505.232 398.641L476.696 275.039C474.893 267.23 468.267 261.469 460.283 260.771L333.913 249.715C325.928 249.016 318.402 253.538 315.271 260.916L265.705 377.685C262.574 385.062 264.549 393.617 270.598 398.875L366.335 482.098C372.384 487.356 381.13 488.122 388 483.994Z" stroke="#ED1C24" stroke-opacity="0.15" stroke-width="3"/>
<path opacity="0.727273" d="M399.788 485.59L470.135 388.767C474.846 382.283 474.846 373.503 470.135 367.019L399.788 270.195C395.077 263.711 386.727 260.998 379.104 263.474L265.281 300.458C257.659 302.934 252.498 310.038 252.498 318.052L252.498 437.733C252.498 445.748 257.659 452.851 265.281 455.328L379.104 492.311C386.727 494.788 395.077 492.074 399.788 485.59Z" stroke="#ED1C24" stroke-opacity="0.15" stroke-width="3"/>
<path opacity="0.737374" d="M400.073 485.264L468.54 387.483C473.137 380.918 472.984 372.139 468.161 365.738L396.322 270.406C391.499 264.005 383.103 261.438 375.525 264.047L262.659 302.91C255.081 305.519 250.045 312.712 250.185 320.725L252.268 440.076C252.408 448.089 257.692 455.101 265.356 457.445L379.51 492.345C387.174 494.688 395.476 491.83 400.073 485.264Z" stroke="#ED1C24" stroke-opacity="0.15" stroke-width="3"/>
<path opacity="0.747475" d="M400.337 484.909L466.913 386.206C471.395 379.562 471.088 370.787 466.154 364.471L392.855 270.653C387.921 264.337 379.481 261.917 371.949 264.658L260.072 305.378C252.541 308.12 247.631 315.399 247.911 323.408L252.066 442.393C252.346 450.403 257.751 457.322 265.455 459.531L379.901 492.347C387.605 494.557 395.855 491.554 400.337 484.909Z" stroke="#ED1C24" stroke-opacity="0.15" stroke-width="3"/>
<path opacity="0.757576" d="M400.575 484.523L465.249 384.934C469.614 378.213 469.154 369.445 464.111 363.216L389.382 270.934C384.338 264.705 375.857 262.432 368.375 265.305L257.516 307.859C250.034 310.731 245.252 318.095 245.672 326.099L251.886 444.681C252.306 452.685 257.831 459.508 265.573 461.583L380.272 492.316C388.014 494.391 396.21 491.244 400.575 484.523Z" stroke="#ED1C24" stroke-opacity="0.15" stroke-width="3"/>
<path opacity="0.767677" d="M400.791 484.106L463.551 383.669C467.798 376.872 467.185 368.113 462.034 361.974L385.906 271.248C380.754 265.109 372.235 262.985 364.804 265.987L254.994 310.353C247.563 313.355 242.911 320.801 243.47 328.796L251.731 446.941C252.29 454.937 257.934 461.662 265.711 463.601L380.626 492.253C388.403 494.192 396.543 490.903 400.791 484.106Z" stroke="#ED1C24" stroke-opacity="0.15" stroke-width="3"/>
<path opacity="0.777778" d="M400.977 483.661L461.815 382.411C465.943 375.541 465.177 366.794 459.919 360.746L382.424 271.598C377.166 265.549 368.611 263.574 361.234 266.706L252.502 312.86C245.124 315.991 240.602 323.517 241.301 331.501L251.596 449.174C252.295 457.158 258.055 463.784 265.864 465.587L380.958 492.159C388.768 493.962 396.85 490.531 400.977 483.661Z" stroke="#ED1C24" stroke-opacity="0.15" stroke-width="3"/>
<path opacity="0.787879" d="M401.142 483.193L460.047 381.167C464.054 374.226 463.137 365.494 457.774 359.538L378.943 271.988C373.581 266.032 364.992 264.206 357.671 267.466L250.046 315.384C242.724 318.644 238.334 326.247 239.172 334.218L251.486 451.383C252.324 459.353 258.199 465.878 266.039 467.545L381.274 492.039C389.114 493.705 397.135 490.134 401.142 483.193Z" stroke="#ED1C24" stroke-opacity="0.15" stroke-width="3"/>
<path opacity="0.79798" d="M401.278 482.703L458.242 379.937C462.127 372.927 461.057 364.212 455.591 358.351L375.458 272.418C369.992 266.556 361.373 264.881 354.109 268.268L247.62 317.925C240.356 321.312 236.1 328.991 237.076 336.946L251.396 453.569C252.372 461.524 258.36 467.945 266.228 469.474L381.567 491.894C389.434 493.423 397.392 489.712 401.278 482.703Z" stroke="#ED1C24" stroke-opacity="0.15" stroke-width="3"/>
<path opacity="0.808081" d="M401.392 482.178L456.407 378.709C460.17 371.632 458.948 362.938 453.381 357.172L371.976 272.876C366.409 267.11 357.762 265.586 350.559 269.099L245.232 320.47C238.029 323.983 233.907 331.736 235.022 339.672L251.332 455.718C252.447 463.655 258.546 469.971 266.439 471.362L381.845 491.712C389.738 493.103 397.629 489.254 401.392 482.178Z" stroke="#ED1C24" stroke-opacity="0.15" stroke-width="3"/>
<path opacity="0.818182" d="M401.477 481.627L454.536 377.491C458.175 370.35 456.801 361.678 451.134 356.01L368.492 273.368C362.824 267.7 354.152 266.327 347.011 269.966L242.875 323.025C235.734 326.664 231.748 334.487 233.002 342.403L251.285 457.839C252.539 465.755 258.747 471.963 266.663 473.217L382.099 491.5C390.015 492.754 397.838 488.768 401.477 481.627Z" stroke="#ED1C24" stroke-opacity="0.15" stroke-width="3"/>
<path opacity="0.828283" d="M401.534 481.052L452.631 376.286C456.145 369.083 454.62 360.436 448.855 354.869L365.007 273.897C359.241 268.33 350.547 267.108 343.47 270.871L240.552 325.594C233.475 329.356 229.626 337.248 231.018 345.141L251.259 459.932C252.651 467.825 258.966 473.924 266.903 475.04L382.331 491.262C390.268 492.378 398.02 488.256 401.534 481.052Z" stroke="#ED1C24" stroke-opacity="0.15" stroke-width="3"/>
<path opacity="0.838384" d="M401.564 480.454L450.694 375.095C454.081 367.832 452.406 359.213 446.544 353.747L361.524 274.464C355.662 268.998 346.948 267.928 339.938 271.814L238.263 328.173C231.253 332.059 227.542 340.016 229.071 347.884L251.253 461.998C252.782 469.866 259.204 475.854 267.159 476.831L382.543 490.998C390.498 491.975 398.177 487.718 401.564 480.454Z" stroke="#ED1C24" stroke-opacity="0.15" stroke-width="3"/>
<path opacity="0.848485" d="M401.568 479.829L448.725 373.914C451.985 366.592 450.159 358.004 444.203 352.641L358.044 275.063C352.088 269.7 343.356 268.782 336.415 272.789L236.009 330.759C229.068 334.766 225.497 342.787 227.163 350.627L251.268 464.032C252.935 471.871 259.459 477.746 267.43 478.584L382.734 490.703C390.705 491.541 398.309 487.151 401.568 479.829Z" stroke="#ED1C24" stroke-opacity="0.15" stroke-width="3"/>
<path opacity="0.858586" d="M401.545 479.187L446.724 372.752C449.856 365.374 447.881 356.819 441.832 351.561L354.567 275.703C348.518 270.445 339.772 269.68 332.902 273.807L233.79 333.36C226.92 337.488 223.49 345.57 225.293 353.379L251.303 466.043C253.106 473.852 259.732 479.612 267.716 480.311L382.903 490.388C390.888 491.087 398.414 486.565 401.545 479.187Z" stroke="#ED1C24" stroke-opacity="0.15" stroke-width="3"/>
<path opacity="0.868687" d="M401.49 478.513L444.687 371.594C447.69 364.163 445.566 355.644 439.426 350.492L351.09 276.369C344.95 271.217 336.191 270.605 329.394 274.852L231.602 335.96C224.805 340.207 221.516 348.347 223.455 356.124L251.352 468.014C253.291 475.79 260.017 481.434 268.012 481.993L383.046 490.037C391.041 490.596 398.487 485.944 401.49 478.513Z" stroke="#ED1C24" stroke-opacity="0.15" stroke-width="3"/>
<path opacity="0.878788" d="M401.408 477.819L442.621 370.454C445.494 362.971 443.221 354.491 436.993 349.447L347.618 277.073C341.39 272.029 332.622 271.569 325.9 275.935L229.45 338.57C222.728 342.935 219.582 351.132 221.656 358.873L251.421 469.958C253.496 477.7 260.319 483.225 268.323 483.645L383.168 489.664C391.172 490.083 398.536 485.301 401.408 477.819Z" stroke="#ED1C24" stroke-opacity="0.15" stroke-width="3"/>
<path opacity="0.888889" d="M401.293 477.108L440.52 369.334C443.261 361.802 440.841 353.362 434.525 348.428L344.147 277.817C337.831 272.883 329.057 272.576 322.412 277.058L227.329 341.193C220.684 345.674 217.681 353.925 219.89 361.629L251.504 471.878C253.713 479.582 260.632 484.987 268.641 485.267L383.263 489.27C391.273 489.55 398.552 484.64 401.293 477.108Z" stroke="#ED1C24" stroke-opacity="0.15" stroke-width="3"/>
</g>
<defs>
<clipPath id="clip0_250_7400">
<rect width="267" height="244" rx="24" fill="white"/>
</clipPath>
</defs>
</svg>
