<svg width="33" height="33" viewBox="0 0 33 33" fill="none" xmlns="http://www.w3.org/2000/svg">
<path d="M24.039 22.4432L18.855 21.25H13.23L8.04598 22.4432C5.77598 22.9656 4.16748 24.9864 4.16748 27.3158V31.875H27.9175V27.3158C27.9175 24.9864 26.309 22.9656 24.039 22.4432Z" fill="#80D6FB"/>
<path d="M9.41748 29.375H8.16748V31.875H9.41748V29.375Z" fill="#46BEE8"/>
<path d="M23.9175 29.375H22.6675V31.875H23.9175V29.375Z" fill="#46BEE8"/>
<path d="M16.0425 25.4375C18.2459 25.4375 20.056 23.7265 20.217 21.5635L18.855 21.25H13.23L11.8679 21.5635C12.029 23.7265 13.839 25.4375 16.0425 25.4375Z" fill="#EDEFF1"/>
<path d="M18.855 21.25V18.3125H13.23V21.25C13.23 22.8033 14.4892 24.0625 16.0425 24.0625C17.5958 24.0625 18.855 22.8033 18.855 21.25Z" fill="#FFD3B3"/>
<path d="M16.0425 20.2419C17.0403 20.2419 17.9902 20.0358 18.855 19.6671V18.25H13.23V19.6671C14.0947 20.0358 15.0447 20.2419 16.0425 20.2419Z" fill="#FCB98B"/>
<path d="M22.605 9.625H21.855V12.875H22.605C23.0882 12.875 23.48 12.4832 23.48 12V10.5C23.48 10.0168 23.0882 9.625 22.605 9.625Z" fill="#FFD3B3"/>
<path d="M9.47998 9.625H10.23V12.875H9.47998C8.99673 12.875 8.60498 12.4832 8.60498 12V10.5C8.60498 10.0168 8.99673 9.625 9.47998 9.625Z" fill="#FFD3B3"/>
<path d="M10.2361 7.08203V13.2756C10.2361 16.4824 12.8357 19.082 16.0425 19.082C19.2493 19.082 21.849 16.4824 21.849 13.2756V7.08203H10.2361Z" fill="#FFD3B3"/>
<path d="M10.23 7.07031V13.2703C10.23 16.4805 12.8323 19.0828 16.0425 19.0828C19.2526 19.0828 21.855 16.4805 21.855 13.2703V7.07031H10.23Z" fill="#FFD3B3"/>
<path d="M16.0425 1.125C19.6519 1.125 22.605 4.07812 22.605 7.6875V9.625H21.855V12.875L20.9175 9.5625C17.362 9.4605 14.3659 8.908 12.855 7.125C12.855 7.125 12.3103 8.83431 11.105 9.5625L10.23 12.875V9.625H9.47998V7.6875C9.47998 4.07812 12.4331 1.125 16.0425 1.125Z" fill="#6E83B7"/>
</svg>
