<svg width="1057" height="104" viewBox="0 0 1057 104" fill="none" xmlns="http://www.w3.org/2000/svg">
<g clip-path="url(#clip0_14_5056)">
<g opacity="0.3">
<path fill-rule="evenodd" clip-rule="evenodd" d="M-71.9994 99.9649C-71.9994 99.9649 -71.9994 102.366 -71.9994 74.6731C109.934 60.5174 120.965 119.144 323.74 119.144C526.515 119.144 516.116 13.945 755.287 1.59158C994.457 -10.7618 989.331 52.5519 1127 62.1541L1125.4 229L-71.9994 229V99.9649Z" fill="#FFE7EA" fill-opacity="0.5" style="mix-blend-mode:multiply"/>
<path fill-rule="evenodd" clip-rule="evenodd" d="M1125.4 122.771C1125.4 122.771 1123.8 114.969 1127 109.567C939.706 81.3595 932.435 156.464 729.66 156.464C526.885 156.464 461.937 80.4423 282.515 73.2308C103.093 66.0193 85.9306 108.817 -72 125.772C-71.9995 164.482 -71.9992 62.1546 -71.9992 62.1546L-71.9994 229L1125.4 229V122.771Z" fill="#FFE7EA" style="mix-blend-mode:multiply"/>
</g>
</g>
<defs>
<clipPath id="clip0_14_5056">
<rect width="1057" height="104" fill="white"/>
</clipPath>
</defs>
</svg>
