<svg width="34" height="33" viewBox="0 0 34 33" fill="none" xmlns="http://www.w3.org/2000/svg">
<path d="M16.5425 21.375C20.2646 21.375 23.3101 18.4219 23.3101 14.8125V12.75H9.7749V14.8125C9.7749 18.4219 12.8203 21.375 16.5425 21.375Z" fill="#6E83B7"/>
<path d="M23.7889 22.4075L19.4429 21.4375H13.6421L9.29602 22.4075C6.36984 23.0606 4.29639 25.5866 4.29639 28.4982V31.875H28.7886V28.4982C28.7886 25.5866 26.7151 23.0606 23.7889 22.4075Z" fill="#FFB0AA"/>
<path d="M9.71045 29.375H8.42139V31.875H9.71045V29.375Z" fill="#FF7B7B"/>
<path d="M24.6636 29.375H23.3745V31.875H24.6636V29.375Z" fill="#FF7B7B"/>
<path d="M19.4429 21.4375H13.6421L11.1044 22.0039C11.4172 24.6615 13.7576 26.7094 16.5425 26.7094C19.3274 26.7094 21.6677 24.6616 21.9805 22.0039L19.4429 21.4375Z" fill="#FF7B7B"/>
<path d="M19.4429 21.4375V18.25H13.6421V21.4375L12.4738 21.6982C12.6321 23.7416 14.3955 25.3577 16.5425 25.3577C18.6895 25.3577 20.4529 23.7416 20.6112 21.6982L19.4429 21.4375Z" fill="#FFD3B3"/>
<path d="M16.5425 20.2419C17.5715 20.2419 18.5511 20.0358 19.4429 19.6671V18.25H13.6421V19.6671C14.5339 20.0358 15.5135 20.2419 16.5425 20.2419Z" fill="#FCB98B"/>
<path d="M23.3101 9.625H22.5366V12.875H23.3101C23.8084 12.875 24.2124 12.4832 24.2124 12V10.5C24.2124 10.0168 23.8084 9.625 23.3101 9.625Z" fill="#FFD3B3"/>
<path d="M9.7749 9.625H10.5483V12.875H9.7749C9.27655 12.875 8.87256 12.4832 8.87256 12V10.5C8.87256 10.0168 9.27655 9.625 9.7749 9.625Z" fill="#FFD3B3"/>
<path d="M10.5547 7.08203V13.2756C10.5547 16.4824 13.2356 19.082 16.5426 19.082C19.8496 19.082 22.5305 16.4824 22.5305 13.2756V7.08203H10.5547Z" fill="#FFD3B3"/>
<path d="M10.5483 7.07031V13.2703C10.5483 16.4805 13.232 19.0828 16.5425 19.0828C19.8529 19.0828 22.5366 16.4805 22.5366 13.2703V7.07031H10.5483Z" fill="#FFD3B3"/>
<path d="M16.5425 1.125C20.2646 1.125 23.3101 4.07812 23.3101 7.6875V9.625H22.5366V12.875L21.5698 9.5625C17.9032 9.4605 14.8135 8.908 13.2554 7.125C13.2554 7.125 12.6937 8.83431 11.4507 9.5625L10.5483 12.875V9.625H9.7749V7.6875C9.7749 4.07812 12.8203 1.125 16.5425 1.125Z" fill="#6E83B7"/>
</svg>
