<svg width="1440" height="2078" viewBox="0 0 1440 2078" fill="none" xmlns="http://www.w3.org/2000/svg">
<g clip-path="url(#clip0_171_3314)">
<rect width="1440" height="2078" fill="white"/>
<path opacity="0.010101" d="M505.77 1337.64L1341.29 1366.82C1349.3 1367.1 1356.58 1362.19 1359.32 1354.66L1645.25 569.05C1648 561.519 1645.58 553.079 1639.26 548.145L980.462 33.4356C974.147 28.5013 965.372 28.1949 958.728 32.6767L265.63 500.177C258.986 504.658 255.983 512.909 258.192 520.613L488.632 1324.25C490.841 1331.96 497.76 1337.36 505.77 1337.64Z" stroke="#ED1C24" stroke-opacity="0.01" stroke-width="3"/>
<path opacity="0.020202" d="M510.403 1349.77L1344.72 1364.33C1352.74 1364.47 1359.93 1359.44 1362.54 1351.86L1634.21 562.875C1636.82 555.297 1634.25 546.901 1627.85 542.077L961.43 39.8941C955.029 35.0708 946.25 34.9176 939.685 39.5146L256.146 518.134C249.58 522.731 246.722 531.033 249.065 538.697L493.034 1336.68C495.377 1344.35 502.389 1349.63 510.403 1349.77Z" stroke="#ED1C24" stroke-opacity="0.01" stroke-width="3"/>
<path opacity="0.030303" d="M515.116 1361.69L1347.99 1361.69C1356 1361.69 1363.1 1356.53 1365.58 1348.91L1622.95 556.805C1625.43 549.182 1622.71 540.832 1616.23 536.121L942.424 46.5731C935.94 41.8622 927.16 41.8622 920.676 46.5731L246.871 536.121C240.387 540.832 237.674 549.182 240.151 556.805L497.521 1348.91C499.998 1356.53 507.101 1361.69 515.116 1361.69Z" stroke="#ED1C24" stroke-opacity="0.01" stroke-width="3"/>
<path opacity="0.040404" d="M519.912 1373.41L1351.08 1358.9C1359.09 1358.76 1366.1 1353.48 1368.44 1345.81L1611.49 550.846C1613.83 543.182 1610.97 534.88 1604.41 530.283L923.456 53.4744C916.891 48.8774 908.112 49.0307 901.711 53.854L237.813 554.137C231.413 558.96 228.846 567.357 231.455 574.935L502.097 1360.94C504.706 1368.51 511.898 1373.55 519.912 1373.41Z" stroke="#ED1C24" stroke-opacity="0.01" stroke-width="3"/>
<path opacity="0.050505" d="M524.804 1384.9L1354.01 1355.95C1362.02 1355.67 1368.94 1350.26 1371.15 1342.56L1599.85 544.987C1602.06 537.283 1599.05 529.032 1592.41 524.551L904.547 60.5816C897.903 56.0998 889.128 56.4063 882.812 61.3406L228.991 572.162C222.675 577.096 220.255 585.536 222.996 593.068L506.774 1372.74C509.515 1380.27 516.794 1385.18 524.804 1384.9Z" stroke="#ED1C24" stroke-opacity="0.01" stroke-width="3"/>
<path opacity="0.0606061" d="M529.78 1396.2L1356.78 1352.86C1364.78 1352.44 1371.61 1346.91 1373.68 1339.17L1588.02 539.258C1590.09 531.517 1586.94 523.32 1580.22 518.955L885.692 67.9211C878.97 63.556 870.202 64.0155 863.973 69.0593L220.393 590.22C214.165 595.264 211.892 603.745 214.764 611.227L511.541 1384.36C514.413 1391.84 521.776 1396.62 529.78 1396.2Z" stroke="#ED1C24" stroke-opacity="0.01" stroke-width="3"/>
<path opacity="0.0707071" d="M534.831 1407.28L1359.37 1349.62C1367.37 1349.06 1374.09 1343.42 1376.03 1335.64L1575.99 533.642C1577.93 525.866 1574.64 517.725 1567.85 513.478L866.889 75.4709C860.092 71.2238 851.333 71.8363 845.194 76.988L212.016 608.287C205.877 613.439 203.753 621.958 206.755 629.389L516.388 1395.76C519.39 1403.19 526.836 1407.84 534.831 1407.28Z" stroke="#ED1C24" stroke-opacity="0.01" stroke-width="3"/>
<path opacity="0.0808081" d="M539.941 1418.15L1361.78 1346.25C1369.76 1345.55 1376.39 1339.79 1378.19 1331.98L1563.77 528.152C1565.57 520.343 1562.14 512.261 1555.27 508.133L848.13 83.2392C841.26 79.1113 832.513 79.8766 826.465 85.1347L203.848 626.368C197.799 631.626 195.824 640.181 198.955 647.558L521.299 1406.95C524.431 1414.33 531.957 1418.85 539.941 1418.15Z" stroke="#ED1C24" stroke-opacity="0.01" stroke-width="3"/>
<path opacity="0.0909091" d="M545.14 1428.81L1364.03 1342.74C1372 1341.91 1378.52 1336.03 1380.19 1328.19L1551.38 522.788C1553.05 514.948 1549.48 506.927 1542.54 502.92L829.454 91.2215C822.513 87.2141 813.781 88.1319 807.825 93.4948L195.922 644.455C189.966 649.818 188.14 658.406 191.4 665.728L526.306 1417.94C529.566 1425.26 537.17 1429.65 545.14 1428.81Z" stroke="#ED1C24" stroke-opacity="0.01" stroke-width="3"/>
<path opacity="0.10101" d="M550.4 1439.25L1366.09 1339.1C1374.05 1338.12 1380.47 1332.14 1382 1324.27L1538.81 517.548C1540.34 509.681 1536.63 501.724 1529.62 497.838L810.839 99.4125C803.829 95.5269 795.114 96.5969 789.253 102.063L188.213 662.542C182.351 668.008 180.676 676.626 184.063 683.89L531.379 1428.71C534.766 1435.97 542.445 1440.23 550.4 1439.25Z" stroke="#ED1C24" stroke-opacity="0.01" stroke-width="3"/>
<path opacity="0.111111" d="M555.712 1449.48L1367.97 1335.33C1375.91 1334.21 1382.22 1328.11 1383.61 1320.22L1526.05 512.443C1527.44 504.55 1523.59 496.659 1516.51 492.896L792.284 107.817C785.207 104.054 776.513 105.276 770.748 110.844L180.716 680.63C174.951 686.197 173.427 694.844 176.94 702.048L536.509 1439.27C540.023 1446.48 547.775 1450.6 555.712 1449.48Z" stroke="#ED1C24" stroke-opacity="0.01" stroke-width="3"/>
<path opacity="0.121212" d="M561.091 1459.5L1369.67 1331.44C1377.59 1330.18 1383.8 1323.97 1385.05 1316.06L1513.12 507.475C1514.37 499.559 1510.39 491.736 1503.24 488.097L773.812 116.433C766.671 112.794 757.999 114.168 752.332 119.835L173.451 698.716C167.784 704.383 166.41 713.055 170.049 720.196L541.714 1449.63C545.352 1456.77 553.175 1460.76 561.091 1459.5Z" stroke="#ED1C24" stroke-opacity="0.01" stroke-width="3"/>
<path opacity="0.131313" d="M566.516 1469.29L1371.19 1327.41C1379.08 1326.02 1385.18 1319.7 1386.29 1311.77L1500.01 502.634C1501.12 494.698 1497 486.945 1489.8 483.432L755.41 125.247C748.206 121.733 739.56 123.258 733.992 129.023L166.399 716.783C160.831 722.548 159.609 731.243 163.372 738.32L546.969 1459.76C550.732 1466.84 558.623 1470.69 566.516 1469.29Z" stroke="#ED1C24" stroke-opacity="0.01" stroke-width="3"/>
<path opacity="0.141414" d="M571.995 1478.88L1372.52 1323.27C1380.38 1321.74 1386.37 1315.32 1387.35 1307.37L1486.73 497.94C1487.71 489.985 1483.45 482.306 1476.19 478.919L737.092 134.272C729.828 130.885 721.209 132.56 715.743 138.422L159.571 734.844C154.105 740.705 153.035 749.42 156.921 756.43L552.285 1469.69C556.17 1476.7 564.128 1480.41 571.995 1478.88Z" stroke="#ED1C24" stroke-opacity="0.01" stroke-width="3"/>
<path opacity="0.151515" d="M577.52 1488.24L1373.66 1319.02C1381.5 1317.35 1387.37 1310.82 1388.21 1302.85L1473.29 493.387C1474.13 485.417 1469.74 477.813 1462.42 474.553L718.858 143.5C711.537 140.24 702.948 142.065 697.586 148.022L152.963 752.886C147.6 758.842 146.683 767.574 150.69 774.515L557.653 1479.39C561.66 1486.34 569.681 1489.91 577.52 1488.24Z" stroke="#ED1C24" stroke-opacity="0.01" stroke-width="3"/>
<path opacity="0.161616" d="M583.095 1497.39L1374.62 1314.65C1382.43 1312.85 1388.19 1306.22 1388.89 1298.24L1459.69 488.98C1460.39 480.996 1455.87 473.47 1448.49 470.338L700.72 152.929C693.342 149.798 684.787 151.773 679.529 157.821L146.582 770.907C141.323 776.956 140.558 785.703 144.686 792.573L563.076 1488.89C567.203 1495.76 575.286 1499.19 583.095 1497.39Z" stroke="#ED1C24" stroke-opacity="0.01" stroke-width="3"/>
<path opacity="0.171717" d="M588.698 1506.33L1375.38 1310.19C1383.16 1308.25 1388.8 1301.52 1389.36 1293.53L1445.92 484.734C1446.48 476.739 1441.83 469.293 1434.39 466.29L682.663 162.571C675.232 159.569 666.713 161.693 661.561 167.833L140.409 788.917C135.258 795.057 134.645 803.815 138.892 810.612L568.534 1498.18C572.781 1504.98 580.922 1508.27 588.698 1506.33Z" stroke="#ED1C24" stroke-opacity="0.01" stroke-width="3"/>
<path opacity="0.181818" d="M594.336 1515.03L1375.95 1305.6C1383.69 1303.52 1389.22 1296.7 1389.64 1288.7L1431.99 480.617C1432.41 472.614 1427.63 465.25 1420.14 462.378L664.7 172.39C657.218 169.518 648.737 171.791 643.693 178.019L134.454 806.877C129.41 813.106 128.951 821.874 133.316 828.596L574.032 1507.24C578.397 1513.96 586.594 1517.11 594.336 1515.03Z" stroke="#ED1C24" stroke-opacity="0.01" stroke-width="3"/>
<path opacity="0.191919" d="M600.003 1523.52L1376.33 1300.91C1384.03 1298.7 1389.44 1291.79 1389.72 1283.78L1417.9 476.657C1418.18 468.647 1413.27 461.369 1405.74 458.627L646.836 182.408C639.304 179.667 630.864 182.087 625.93 188.403L128.715 824.809C123.781 831.125 123.474 839.899 127.956 846.544L579.566 1516.08C584.048 1522.73 592.299 1525.73 600.003 1523.52Z" stroke="#ED1C24" stroke-opacity="0.01" stroke-width="3"/>
<path opacity="0.20202" d="M605.702 1531.8L1376.51 1296.14C1384.18 1293.8 1389.46 1286.78 1389.6 1278.77L1403.67 472.861C1403.81 464.847 1398.77 457.655 1391.2 455.046L629.077 192.627C621.499 190.018 613.103 192.585 608.279 198.986L123.197 842.712C118.374 849.112 118.22 857.891 122.817 864.456L585.139 1524.72C589.736 1531.28 598.037 1534.14 605.702 1531.8Z" stroke="#ED1C24" stroke-opacity="0.01" stroke-width="3"/>
<path opacity="0.212121" d="M611.419 1539.86L1376.5 1291.27C1384.12 1288.79 1389.28 1281.69 1389.28 1273.67L1389.28 469.218C1389.28 461.203 1384.12 454.1 1376.5 451.623L611.419 203.033C603.797 200.556 595.446 203.27 590.735 209.754L117.889 860.57C113.178 867.054 113.179 875.834 117.889 882.318L590.735 1533.14C595.446 1539.62 603.797 1542.33 611.419 1539.86Z" stroke="#ED1C24" stroke-opacity="0.01" stroke-width="3"/>
<path opacity="0.222222" d="M617.149 1547.7L1376.28 1286.31C1383.86 1283.7 1388.9 1276.51 1388.76 1268.49L1374.74 465.739C1374.6 457.726 1369.32 450.714 1361.66 448.37L593.862 213.633C586.198 211.289 577.896 214.148 573.299 220.713L112.789 878.39C108.192 884.955 108.345 893.734 113.169 900.134L596.351 1541.34C601.174 1547.74 609.571 1550.31 617.149 1547.7Z" stroke="#ED1C24" stroke-opacity="0.01" stroke-width="3"/>
<path opacity="0.232323" d="M622.902 1555.33L1375.87 1281.27C1383.41 1278.52 1388.32 1271.25 1388.04 1263.24L1360.07 462.427C1359.79 454.417 1354.39 447.499 1346.68 445.289L576.426 224.422C568.722 222.213 560.471 225.216 555.989 231.861L107.91 896.165C103.428 902.81 103.735 911.585 108.669 917.9L601.997 1549.33C606.931 1555.65 615.371 1558.07 622.902 1555.33Z" stroke="#ED1C24" stroke-opacity="0.01" stroke-width="3"/>
<path opacity="0.242424" d="M628.663 1562.72L1375.26 1276.13C1382.75 1273.26 1387.53 1265.89 1387.11 1257.89L1345.25 459.268C1344.84 451.264 1339.31 444.441 1331.57 442.367L559.1 235.384C551.358 233.31 543.161 236.457 538.796 243.178L103.239 913.878C98.8735 920.6 99.333 929.368 104.377 935.596L607.656 1557.09C612.699 1563.32 621.18 1565.59 628.663 1562.72Z" stroke="#ED1C24" stroke-opacity="0.01" stroke-width="3"/>
<path opacity="0.252525" d="M634.425 1569.91L1374.45 1270.92C1381.88 1267.92 1386.53 1260.48 1385.97 1252.48L1330.3 456.286C1329.74 448.291 1324.09 441.565 1316.32 439.626L541.886 246.539C534.109 244.6 525.968 247.889 521.721 254.686L98.7719 931.546C94.5248 938.343 95.1373 947.102 100.289 953.241L613.323 1564.65C618.475 1570.79 626.994 1572.91 634.425 1569.91Z" stroke="#ED1C24" stroke-opacity="0.01" stroke-width="3"/>
<path opacity="0.262626" d="M640.194 1576.89L1373.43 1265.65C1380.81 1262.51 1385.33 1254.99 1384.63 1247L1315.21 453.475C1314.51 445.491 1308.75 438.865 1300.94 437.062L524.795 257.875C516.986 256.072 508.904 259.503 504.776 266.373L94.517 949.158C90.3891 956.028 91.1544 964.775 96.4125 970.823L619.003 1572C624.261 1578.04 632.816 1580.02 640.194 1576.89Z" stroke="#ED1C24" stroke-opacity="0.01" stroke-width="3"/>
<path opacity="0.272727" d="M645.958 1583.63L1372.21 1260.28C1379.53 1257.02 1383.92 1249.42 1383.08 1241.45L1299.99 450.823C1299.15 442.853 1293.27 436.328 1285.43 434.661L507.824 269.375C499.985 267.709 491.964 271.28 487.957 278.221L90.4657 966.696C86.4583 973.637 87.3761 982.368 92.739 988.325L624.686 1579.11C630.049 1585.07 638.637 1586.89 645.958 1583.63Z" stroke="#ED1C24" stroke-opacity="0.01" stroke-width="3"/>
<path opacity="0.282828" d="M651.721 1590.17L1370.79 1254.86C1378.05 1251.47 1382.31 1243.79 1381.33 1235.84L1284.64 448.349C1283.66 440.394 1277.68 433.973 1269.81 432.444L490.982 281.055C483.115 279.526 475.157 283.237 471.272 290.247L86.6223 984.173C82.7367 991.183 83.8067 999.897 89.2728 1005.76L630.372 1586.02C635.838 1591.88 644.457 1593.55 651.721 1590.17Z" stroke="#ED1C24" stroke-opacity="0.01" stroke-width="3"/>
<path opacity="0.292929" d="M657.471 1596.48L1369.16 1249.37C1376.36 1245.85 1380.48 1238.1 1379.37 1230.16L1269.17 446.046C1268.05 438.11 1261.95 431.794 1254.06 430.402L474.265 292.903C466.373 291.511 458.481 295.36 454.718 302.437L82.9793 1001.58C79.2167 1008.65 80.4386 1017.35 86.0061 1023.11L636.054 1592.7C641.621 1598.47 650.268 1599.99 657.471 1596.48Z" stroke="#ED1C24" stroke-opacity="0.01" stroke-width="3"/>
<path opacity="0.30303" d="M663.214 1602.6L1367.33 1243.84C1374.47 1240.2 1378.46 1232.37 1377.2 1224.46L1253.58 443.941C1252.33 436.025 1246.12 429.817 1238.2 428.563L457.686 304.942C449.77 303.688 441.946 307.674 438.308 314.815L79.544 1018.93C75.9054 1026.07 77.2789 1034.74 82.9461 1040.41L641.734 1599.2C647.401 1604.86 656.073 1606.24 663.214 1602.6Z" stroke="#ED1C24" stroke-opacity="0.01" stroke-width="3"/>
<path opacity="0.313131" d="M668.934 1608.48L1365.29 1238.23C1372.36 1234.47 1376.21 1226.57 1374.82 1218.68L1237.87 441.995C1236.48 434.102 1230.16 428.003 1222.23 426.887L441.233 317.126C433.296 316.011 425.544 320.133 422.031 327.336L76.3015 1036.19C72.788 1043.39 74.3127 1052.04 80.078 1057.6L647.398 1605.46C653.163 1611.03 661.858 1612.25 668.934 1608.48Z" stroke="#ED1C24" stroke-opacity="0.01" stroke-width="3"/>
<path opacity="0.323232" d="M674.635 1614.16L1363.04 1232.57C1370.05 1228.69 1373.76 1220.73 1372.23 1212.86L1222.05 440.237C1220.52 432.369 1214.1 426.381 1206.14 425.405L424.919 329.483C416.964 328.506 409.285 332.763 405.897 340.026L73.2592 1053.37C69.8721 1060.63 71.5474 1069.25 77.409 1074.72L653.049 1611.51C658.911 1616.98 667.625 1618.05 674.635 1614.16Z" stroke="#ED1C24" stroke-opacity="0.01" stroke-width="3"/>
<path opacity="0.333333" d="M680.313 1619.62L1360.58 1226.86C1367.53 1222.85 1371.1 1214.83 1369.43 1206.99L1206.11 438.648C1204.45 430.809 1197.92 424.934 1189.95 424.096L408.745 341.988C400.774 341.15 393.17 345.54 389.911 352.862L70.4148 1070.46C67.155 1077.78 68.9805 1086.37 74.9365 1091.73L658.684 1617.34C664.64 1622.71 673.372 1623.62 680.313 1619.62Z" stroke="#ED1C24" stroke-opacity="0.01" stroke-width="3"/>
<path opacity="0.343434" d="M685.961 1624.88L1357.92 1221.13C1364.79 1217 1368.22 1208.92 1366.42 1201.11L1190.07 437.268C1188.27 429.459 1181.64 423.698 1173.66 423L392.711 354.676C384.727 353.977 377.201 358.499 374.069 365.877L67.7628 1087.49C64.6312 1094.87 66.6062 1103.42 72.655 1108.68L664.295 1622.99C670.344 1628.24 679.091 1629.01 685.961 1624.88Z" stroke="#ED1C24" stroke-opacity="0.01" stroke-width="3"/>
<path opacity="0.353535" d="M691.583 1629.91L1355.06 1215.33C1361.85 1211.08 1365.14 1202.94 1363.2 1195.16L1173.93 436.05C1172 428.273 1165.27 422.629 1157.27 422.07L376.827 367.496C368.832 366.937 361.386 371.59 358.384 379.021L65.3094 1104.41C62.3071 1111.84 64.4312 1120.36 70.5708 1125.51L669.888 1628.39C676.027 1633.55 684.786 1634.16 691.583 1629.91Z" stroke="#ED1C24" stroke-opacity="0.01" stroke-width="3"/>
<path opacity="0.363636" d="M697.162 1634.74L1351.97 1209.5C1358.7 1205.14 1361.84 1196.94 1359.77 1189.2L1157.69 435.028C1155.61 427.286 1148.79 421.761 1140.79 421.342L361.084 380.479C353.08 380.059 345.716 384.841 342.844 392.324L63.0396 1121.24C60.1674 1128.72 62.4399 1137.2 68.6685 1142.25L675.444 1633.6C681.673 1638.65 690.441 1639.11 697.162 1634.74Z" stroke="#ED1C24" stroke-opacity="0.01" stroke-width="3"/>
<path opacity="0.373737" d="M702.698 1639.36L1348.68 1203.64C1355.32 1199.16 1358.33 1190.91 1356.12 1183.2L1141.34 434.194C1139.13 426.49 1132.22 421.084 1124.21 420.804L345.485 393.611C337.475 393.331 330.196 398.241 327.455 405.772L60.9545 1137.98C58.2133 1145.51 60.6334 1153.95 66.9491 1158.88L680.963 1638.6C687.279 1643.54 696.054 1643.84 702.698 1639.36Z" stroke="#ED1C24" stroke-opacity="0.01" stroke-width="3"/>
<path opacity="0.383838" d="M708.199 1643.78L1345.19 1197.75C1351.75 1193.16 1354.61 1184.85 1352.27 1177.19L1124.91 433.552C1122.57 425.887 1115.56 420.603 1107.54 420.463L330.046 406.892C322.032 406.752 314.84 411.788 312.231 419.366L59.0632 1154.62C56.4539 1162.2 59.0209 1170.59 65.4217 1175.42L686.454 1643.4C692.855 1648.22 701.634 1648.37 708.199 1643.78Z" stroke="#ED1C24" stroke-opacity="0.01" stroke-width="3"/>
<path opacity="0.393939" d="M713.662 1647.97L1341.49 1191.83C1347.97 1187.12 1350.69 1178.76 1348.21 1171.14L1108.4 433.086C1105.93 425.463 1098.82 420.303 1090.81 420.303L314.769 420.303C306.754 420.303 299.651 425.463 297.174 433.086L57.365 1171.14C54.8883 1178.76 57.6015 1187.12 64.0855 1191.83L691.914 1647.97C698.398 1652.68 707.178 1652.68 713.662 1647.97Z" stroke="#ED1C24" stroke-opacity="0.01" stroke-width="3"/>
<path opacity="0.40404" d="M719.063 1651.98L1337.57 1185.9C1343.98 1181.08 1346.54 1172.68 1343.93 1165.1L1091.79 432.839C1089.18 425.261 1081.99 420.225 1073.98 420.365L299.637 433.881C291.623 434.021 284.611 439.305 282.268 446.969L55.8379 1187.59C53.4946 1195.25 56.3531 1203.55 62.9184 1208.15L697.319 1652.36C703.884 1656.96 712.663 1656.81 719.063 1651.98Z" stroke="#ED1C24" stroke-opacity="0.01" stroke-width="3"/>
<path opacity="0.414141" d="M724.41 1655.77L1333.45 1179.94C1339.76 1175.01 1342.18 1166.57 1339.44 1159.03L1075.1 432.763C1072.36 425.232 1065.08 420.322 1057.07 420.602L284.662 447.575C276.652 447.855 269.734 453.26 267.525 460.965L54.4896 1203.91C52.2805 1211.61 55.2834 1219.86 61.9279 1224.34L702.675 1656.53C709.32 1661.01 718.095 1660.71 724.41 1655.77Z" stroke="#ED1C24" stroke-opacity="0.01" stroke-width="3"/>
<path opacity="0.424242" d="M729.7 1659.36L1329.11 1173.97C1335.34 1168.92 1337.62 1160.44 1334.74 1152.96L1058.33 432.888C1055.46 425.406 1048.1 420.624 1040.09 421.043L269.849 461.41C261.845 461.829 255.022 467.355 252.948 475.097L53.3198 1220.12C51.2455 1227.86 54.3919 1236.06 61.1136 1240.42L707.982 1660.5C714.704 1664.87 723.472 1664.41 729.7 1659.36Z" stroke="#ED1C24" stroke-opacity="0.01" stroke-width="3"/>
<path opacity="0.434343" d="M734.929 1662.76L1324.57 1167.99C1330.71 1162.84 1332.84 1154.32 1329.83 1146.89L1041.49 433.217C1038.49 425.786 1031.04 421.133 1023.05 421.692L255.197 475.385C247.202 475.944 240.476 481.588 238.537 489.365L52.3242 1236.22C50.3853 1244 53.6744 1252.14 60.4712 1256.39L713.234 1664.28C720.031 1668.53 728.79 1667.92 734.929 1662.76Z" stroke="#ED1C24" stroke-opacity="0.01" stroke-width="3"/>
<path opacity="0.444444" d="M740.096 1665.94L1319.82 1161.99C1325.87 1156.74 1327.85 1148.18 1324.71 1140.8L1024.58 433.723C1021.44 426.345 1013.92 421.823 1005.93 422.522L240.712 489.47C232.728 490.169 226.102 495.929 224.299 503.738L51.504 1252.2C49.7011 1260 53.1317 1268.09 60.0017 1272.21L718.431 1667.84C725.3 1671.97 734.047 1671.2 740.096 1665.94Z" stroke="#ED1C24" stroke-opacity="0.01" stroke-width="3"/>
<path opacity="0.454545" d="M745.197 1668.94L1314.87 1156.01C1320.82 1150.64 1322.65 1142.06 1319.39 1134.73L1007.6 434.441C1004.34 427.119 996.734 422.729 988.763 423.567L226.396 503.695C218.425 504.533 211.9 510.408 210.234 518.247L50.8559 1268.06C49.1896 1275.9 52.7607 1283.92 59.7017 1287.93L723.568 1671.21C730.509 1675.22 739.241 1674.3 745.197 1668.94Z" stroke="#ED1C24" stroke-opacity="0.01" stroke-width="3"/>
<path opacity="0.464646" d="M750.226 1671.73L1309.7 1150.01C1315.56 1144.55 1317.24 1135.93 1313.85 1128.67L990.555 435.351C987.167 428.088 979.488 423.831 971.533 424.808L212.248 518.036C204.293 519.013 197.871 525.001 196.342 532.868L50.3755 1283.8C48.8463 1291.67 52.5569 1299.63 59.5667 1303.51L728.64 1674.39C735.65 1678.27 744.364 1677.2 750.226 1671.73Z" stroke="#ED1C24" stroke-opacity="0.01" stroke-width="3"/>
<path opacity="0.474747" d="M755.179 1674.34L1304.33 1144.03C1310.1 1138.47 1311.62 1129.82 1308.11 1122.62L973.45 436.469C969.937 429.265 962.184 425.143 954.248 426.258L198.268 532.505C190.331 533.62 184.015 539.719 182.624 547.612L50.0591 1299.42C48.6674 1307.32 52.5163 1315.21 59.5929 1318.97L733.643 1677.37C740.72 1681.13 749.414 1679.91 755.179 1674.34Z" stroke="#ED1C24" stroke-opacity="0.01" stroke-width="3"/>
<path opacity="0.484848" d="M760.054 1676.74L1298.75 1138.04C1304.42 1132.38 1305.79 1123.71 1302.15 1116.56L956.288 437.769C952.649 430.627 944.826 426.641 936.91 427.895L184.459 547.072C176.543 548.325 170.335 554.534 169.081 562.45L49.9043 1314.9C48.6505 1322.82 52.6366 1330.64 59.7777 1334.28L738.574 1680.14C745.715 1683.78 754.387 1682.41 760.054 1676.74Z" stroke="#ED1C24" stroke-opacity="0.01" stroke-width="3"/>
<path opacity="0.494949" d="M764.859 1678.96L1292.97 1132.08C1298.54 1126.32 1299.76 1117.62 1296 1110.55L939.084 439.286C935.322 432.209 927.43 428.36 919.537 429.752L170.835 561.769C162.942 563.16 156.843 569.476 155.728 577.413L49.9213 1330.27C48.8059 1338.2 52.9278 1345.95 60.1314 1349.47L743.441 1682.74C750.645 1686.25 759.291 1684.73 764.859 1678.96Z" stroke="#ED1C24" stroke-opacity="0.01" stroke-width="3"/>
<path opacity="0.50505" d="M769.555 1680.99L1286.97 1126.13C1292.44 1120.27 1293.51 1111.55 1289.62 1104.54L921.808 440.993C917.922 433.983 909.965 430.272 902.097 431.802L157.363 576.563C149.495 578.093 143.507 584.514 142.531 592.469L50.0716 1345.49C49.0949 1353.44 53.3515 1361.12 60.6153 1364.51L748.207 1685.14C755.471 1688.52 764.089 1686.85 769.555 1680.99Z" stroke="#ED1C24" stroke-opacity="0.01" stroke-width="3"/>
<path opacity="0.515152" d="M774.171 1682.82L1280.77 1120.19C1286.13 1114.24 1287.05 1105.5 1283.04 1098.56L904.493 442.9C900.485 435.959 892.464 432.388 884.625 434.054L144.074 591.463C136.235 593.129 130.36 599.654 129.522 607.625L50.3841 1360.57C49.5463 1368.54 53.9363 1376.15 61.2581 1379.41L752.899 1687.34C760.22 1690.6 768.809 1688.78 774.171 1682.82Z" stroke="#ED1C24" stroke-opacity="0.01" stroke-width="3"/>
<path opacity="0.525253" d="M778.711 1684.47L1274.37 1114.28C1279.63 1108.23 1280.4 1099.48 1276.27 1092.61L887.15 445.01C883.022 438.14 874.94 434.71 867.131 436.512L130.979 606.467C123.169 608.27 117.409 614.896 116.711 622.88L50.863 1375.52C50.1645 1383.51 54.6865 1391.03 62.0641 1394.16L757.52 1689.37C764.898 1692.5 773.453 1690.52 778.711 1684.47Z" stroke="#ED1C24" stroke-opacity="0.01" stroke-width="3"/>
<path opacity="0.535354" d="M783.142 1685.94L1267.76 1108.39C1272.92 1102.25 1273.53 1093.5 1269.28 1086.7L869.754 447.323C865.507 440.527 857.366 437.238 849.59 439.176L118.047 621.57C110.271 623.509 104.627 630.235 104.068 638.23L51.4761 1390.33C50.917 1398.33 55.5697 1405.77 63.0008 1408.77L762.04 1691.2C769.471 1694.21 777.99 1692.08 783.142 1685.94Z" stroke="#ED1C24" stroke-opacity="0.01" stroke-width="3"/>
<path opacity="0.545455" d="M787.482 1687.23L1260.96 1102.54C1266 1096.31 1266.46 1087.54 1262.09 1080.82L852.331 449.839C847.966 443.117 839.769 439.971 832.027 442.045L105.304 636.77C97.5627 638.844 92.0373 645.668 91.6178 653.671L52.2424 1405C51.8229 1413 56.6049 1420.37 64.0872 1423.24L766.475 1692.86C773.957 1695.73 782.438 1693.46 787.482 1687.23Z" stroke="#ED1C24" stroke-opacity="0.01" stroke-width="3"/>
<path opacity="0.555556" d="M791.733 1688.34L1253.96 1096.72C1258.89 1090.4 1259.2 1081.63 1254.72 1074.98L834.888 452.557C830.406 445.913 822.155 442.91 814.451 445.119L92.755 652.062C85.0508 654.271 79.6452 661.19 79.3656 669.2L53.1637 1419.52C52.884 1427.53 57.7937 1434.81 65.325 1437.55L770.828 1694.33C778.359 1697.08 786.799 1694.66 791.733 1688.34Z" stroke="#ED1C24" stroke-opacity="0.01" stroke-width="3"/>
<path opacity="0.565657" d="M795.861 1689.26L1246.74 1090.92C1251.56 1084.52 1251.72 1075.74 1247.12 1069.17L817.397 455.463C812.8 448.898 804.498 446.039 796.833 448.382L80.3682 667.428C72.7037 669.771 67.4198 676.783 67.28 684.796L54.2046 1433.88C54.0648 1441.9 59.1008 1449.09 66.6788 1451.7L775.063 1695.62C782.641 1698.22 791.037 1695.66 795.861 1689.26Z" stroke="#ED1C24" stroke-opacity="0.01" stroke-width="3"/>
<path opacity="0.575758" d="M799.893 1690.02L1239.33 1085.18C1244.05 1078.7 1244.05 1069.92 1239.33 1063.43L799.893 458.594C795.182 452.11 786.832 449.397 779.209 451.874L68.1776 682.902C60.5552 685.379 55.3945 692.482 55.3945 700.497L55.3944 1448.12C55.3945 1456.13 60.5552 1463.24 68.1776 1465.71L779.209 1696.74C786.832 1699.22 795.182 1696.51 799.893 1690.02Z" stroke="#ED1C24" stroke-opacity="0.01" stroke-width="3"/>
<path opacity="0.585859" d="M803.815 1690.6L1231.73 1079.48C1236.33 1072.91 1236.17 1064.13 1231.35 1057.73L782.368 461.914C777.544 455.513 769.148 452.946 761.57 455.555L56.1711 698.443C48.5931 701.053 43.5571 708.245 43.6969 716.258L56.7172 1462.19C56.8571 1470.2 62.141 1477.21 69.8055 1479.56L783.251 1697.68C790.916 1700.02 799.218 1697.17 803.815 1690.6Z" stroke="#ED1C24" stroke-opacity="0.01" stroke-width="3"/>
<path opacity="0.59596" d="M807.623 1691.01L1223.92 1073.82C1228.4 1067.18 1228.1 1058.4 1223.16 1052.09L764.825 465.44C759.891 459.124 751.451 456.704 743.919 459.445L44.3503 714.067C36.819 716.808 31.9093 724.087 32.189 732.097L58.1704 1476.11C58.4501 1484.12 63.8556 1491.04 71.5599 1493.25L787.186 1698.45C794.891 1700.66 803.141 1697.66 807.623 1691.01Z" stroke="#ED1C24" stroke-opacity="0.01" stroke-width="3"/>
<path opacity="0.606061" d="M811.327 1691.25L1215.93 1068.21C1220.3 1061.49 1219.84 1052.72 1214.79 1046.49L747.28 469.162C742.237 462.933 733.756 460.661 726.273 463.533L32.7285 729.76C25.2462 732.632 20.4643 739.996 20.8837 747.999L59.7634 1489.87C60.1829 1497.87 65.7083 1504.7 73.4499 1506.77L791.024 1699.04C798.765 1701.12 806.962 1697.97 811.327 1691.25Z" stroke="#ED1C24" stroke-opacity="0.01" stroke-width="3"/>
<path opacity="0.616162" d="M814.899 1691.33L1207.73 1062.66C1211.98 1055.87 1211.37 1047.11 1206.22 1040.97L729.712 473.093C724.56 466.953 716.041 464.829 708.61 467.831L21.2805 745.53C13.8494 748.533 9.19671 755.979 9.75578 763.974L61.4668 1503.48C62.0259 1511.47 67.6695 1518.2 75.4462 1520.14L794.735 1699.48C802.511 1701.41 810.652 1698.13 814.899 1691.33Z" stroke="#ED1C24" stroke-opacity="0.01" stroke-width="3"/>
<path opacity="0.626263" d="M818.356 1691.23L1199.34 1057.16C1203.47 1050.29 1202.71 1041.54 1197.45 1035.5L712.143 477.215C706.885 471.166 698.33 469.191 690.952 472.323L10.0271 761.358C2.64953 764.49 -1.87248 772.016 -1.17396 780L63.2977 1516.91C63.9963 1524.9 69.7565 1531.53 77.5657 1533.33L798.336 1699.73C806.146 1701.53 814.228 1698.1 818.356 1691.23Z" stroke="#ED1C24" stroke-opacity="0.01" stroke-width="3"/>
<path opacity="0.636364" d="M821.684 1690.99L1190.76 1051.73C1194.77 1044.79 1193.85 1036.06 1188.49 1030.1L694.567 481.551C689.204 475.595 680.616 473.77 673.294 477.03L-1.04075 777.263C-8.36255 780.523 -12.7525 788.126 -11.9147 796.097L65.2431 1530.2C66.0809 1538.18 71.9558 1544.7 79.7954 1546.37L801.816 1699.84C809.656 1701.5 817.677 1697.93 821.684 1690.99Z" stroke="#ED1C24" stroke-opacity="0.01" stroke-width="3"/>
<path opacity="0.646465" d="M824.901 1690.58L1182 1046.36C1185.88 1039.35 1184.81 1030.63 1179.35 1024.77L677.007 486.074C671.541 480.213 662.922 478.537 655.658 481.925L-11.9032 793.214C-19.167 796.601 -23.4236 804.28 -22.4468 812.235L67.3188 1543.32C68.2955 1551.27 74.2835 1557.69 82.1509 1559.22L805.191 1699.77C813.058 1701.3 821.015 1697.59 824.901 1690.58Z" stroke="#ED1C24" stroke-opacity="0.01" stroke-width="3"/>
<path opacity="0.656566" d="M827.979 1690.01L1173.04 1041.05C1176.8 1033.98 1175.58 1025.28 1170.01 1019.52L659.441 490.806C653.874 485.041 645.227 483.516 638.024 487.029L-22.5844 809.229C-29.788 812.743 -33.9099 820.495 -32.7945 828.432L69.4969 1556.27C70.6123 1564.21 76.7114 1570.53 84.6044 1571.92L808.432 1699.55C816.325 1700.94 824.216 1697.09 827.979 1690.01Z" stroke="#ED1C24" stroke-opacity="0.01" stroke-width="3"/>
<path opacity="0.666667" d="M830.929 1689.3L1163.89 1035.82C1167.53 1028.68 1166.16 1020.01 1160.49 1014.34L641.887 495.738C636.22 490.071 627.548 488.697 620.407 492.336L-33.0707 825.299C-40.2118 828.938 -44.1978 836.761 -42.944 844.677L71.7874 1569.06C73.0411 1576.98 79.2495 1583.19 87.1656 1584.44L811.551 1699.17C819.467 1700.43 827.29 1696.44 830.929 1689.3Z" stroke="#ED1C24" stroke-opacity="0.01" stroke-width="3"/>
<path opacity="0.676768" d="M833.752 1688.43L1154.57 1030.66C1158.08 1023.46 1156.56 1014.81 1150.79 1009.24L624.353 500.867C618.587 495.3 609.893 494.078 602.816 497.84L-43.3575 841.417C-50.434 845.18 -54.2829 853.071 -52.8911 860.964L74.191 1581.68C75.5828 1589.58 81.8986 1595.67 89.8353 1596.79L814.55 1698.64C822.487 1699.76 830.239 1695.64 833.752 1688.43Z" stroke="#ED1C24" stroke-opacity="0.01" stroke-width="3"/>
<path opacity="0.686869" d="M836.432 1687.4L1145.05 1025.57C1148.44 1018.3 1146.76 1009.68 1140.9 1004.22L606.825 506.182C600.964 500.716 592.249 499.646 585.239 503.531L-53.4588 857.568C-60.4686 861.453 -64.1792 869.41 -62.6499 877.278L76.69 1594.12C78.2192 1601.99 84.6405 1607.97 92.5955 1608.95L817.411 1697.95C825.365 1698.92 833.045 1694.67 836.432 1687.4Z" stroke="#ED1C24" stroke-opacity="0.01" stroke-width="3"/>
<path opacity="0.69697" d="M838.979 1686.25L1135.36 1020.57C1138.62 1013.25 1136.79 1004.66 1130.84 999.295L589.323 511.713C583.367 506.351 574.635 505.433 567.695 509.44L-63.3606 873.78C-70.3015 877.787 -73.8726 885.808 -72.2063 893.648L79.2947 1606.4C80.9611 1614.24 87.4859 1620.12 95.4567 1620.96L820.145 1697.12C828.115 1697.96 835.719 1693.57 838.979 1686.25Z" stroke="#ED1C24" stroke-opacity="0.01" stroke-width="3"/>
<path opacity="0.707071" d="M841.375 1684.95L1125.48 1015.65C1128.61 1008.28 1126.63 999.72 1120.58 994.462L571.833 517.441C565.784 512.183 557.038 511.418 550.168 515.546L-73.0792 890.03C-79.9491 894.158 -83.3797 902.24 -81.5768 910.05L81.9853 1618.51C83.7882 1626.32 90.4146 1632.08 98.3988 1632.78L822.733 1696.15C830.717 1696.85 838.243 1692.33 841.375 1684.95Z" stroke="#ED1C24" stroke-opacity="0.01" stroke-width="3"/>
<path opacity="0.717172" d="M843.645 1683.5L1115.43 1010.81C1118.43 1003.38 1116.31 994.858 1110.17 989.707L554.387 523.35C548.247 518.198 539.488 517.586 532.692 521.833L-82.5864 906.301C-89.3833 910.548 -92.6723 918.689 -90.7334 926.465L84.7864 1630.44C86.7253 1638.21 93.4512 1643.86 101.446 1644.42L825.201 1695.03C833.197 1695.59 840.642 1690.93 843.645 1683.5Z" stroke="#ED1C24" stroke-opacity="0.01" stroke-width="3"/>
<path opacity="0.727273" d="M845.756 1681.92L1105.19 1006.06C1108.07 998.581 1105.79 990.1 1099.56 985.056L536.955 529.464C530.726 524.42 521.959 523.96 515.237 528.325L-91.9135 922.613C-98.6351 926.979 -101.782 935.175 -99.7072 942.917L87.6632 1642.19C89.7376 1649.93 96.5609 1655.46 104.565 1655.88L827.516 1693.77C835.52 1694.19 842.883 1689.41 845.756 1681.92Z" stroke="#ED1C24" stroke-opacity="0.01" stroke-width="3"/>
<path opacity="0.737374" d="M847.726 1680.22L1094.79 1001.41C1097.53 993.883 1095.11 985.443 1088.79 980.508L519.563 535.776C513.248 530.842 504.473 530.535 497.829 535.017L-101.039 938.959C-107.684 943.44 -110.686 951.691 -108.477 959.395L90.6336 1653.78C92.8427 1661.48 99.7615 1666.89 107.771 1667.17L829.696 1692.38C837.706 1692.66 844.985 1687.75 847.726 1680.22Z" stroke="#ED1C24" stroke-opacity="0.01" stroke-width="3"/>
<path opacity="0.747475" d="M849.55 1678.38L1084.21 996.859C1086.82 989.28 1084.26 980.884 1077.86 976.061L502.211 542.281C495.81 537.457 487.031 537.304 480.466 541.901L-109.968 955.327C-116.533 959.924 -119.391 968.226 -117.048 975.89L93.6895 1665.18C96.0327 1672.85 103.045 1678.13 111.058 1678.27L831.735 1690.85C839.748 1690.99 846.94 1685.95 849.55 1678.38Z" stroke="#ED1C24" stroke-opacity="0.01" stroke-width="3"/>
<path opacity="0.757576" d="M851.222 1676.41L1073.47 992.399C1075.95 984.777 1073.23 976.427 1066.75 971.716L484.898 548.976C478.414 544.265 469.634 544.265 463.15 548.976L-118.702 971.716C-125.186 976.427 -127.899 984.777 -125.422 992.399L96.8252 1676.41C99.3018 1684.03 106.405 1689.19 114.42 1689.19L833.628 1689.19C841.642 1689.19 848.745 1684.03 851.222 1676.41Z" stroke="#ED1C24" stroke-opacity="0.01" stroke-width="3"/>
<path opacity="0.767677" d="M852.742 1674.3L1062.56 988.026C1064.9 980.362 1062.04 972.06 1055.48 967.463L467.629 555.848C461.064 551.251 452.285 551.404 445.884 556.228L-127.24 988.108C-133.641 992.931 -136.208 1001.33 -133.598 1008.91L100.039 1687.44C102.648 1695.02 109.84 1700.05 117.854 1699.91L835.374 1687.39C843.387 1687.25 850.399 1681.96 852.742 1674.3Z" stroke="#ED1C24" stroke-opacity="0.01" stroke-width="3"/>
<path opacity="0.777778" d="M854.104 1672.08L1051.47 983.764C1053.68 976.06 1050.68 967.809 1044.04 963.327L450.403 562.917C443.758 558.435 434.984 558.742 428.668 563.676L-135.588 1004.52C-141.903 1009.46 -144.323 1017.89 -141.582 1025.43L103.322 1698.29C106.063 1705.83 113.342 1710.73 121.352 1710.46L836.966 1685.47C844.976 1685.19 851.894 1679.78 854.104 1672.08Z" stroke="#ED1C24" stroke-opacity="0.01" stroke-width="3"/>
<path opacity="0.787879" d="M855.309 1669.74L1040.23 979.618C1042.3 971.876 1039.16 963.679 1032.43 959.314L433.228 570.185C426.506 565.82 417.738 566.28 411.51 571.323L-143.739 1020.96C-149.968 1026 -152.24 1034.48 -149.368 1041.96L106.676 1708.98C109.548 1716.46 116.912 1721.24 124.915 1720.82L838.408 1683.43C846.412 1683.01 853.235 1677.49 855.309 1669.74Z" stroke="#ED1C24" stroke-opacity="0.01" stroke-width="3"/>
<path opacity="0.79798" d="M856.352 1667.3L1028.82 975.582C1030.76 967.805 1027.47 959.665 1020.67 955.418L416.102 577.642C409.305 573.395 400.547 574.007 394.407 579.159L-151.701 1037.4C-157.84 1042.55 -159.964 1051.07 -156.962 1058.5L110.092 1719.48C113.095 1726.91 120.541 1731.57 128.536 1731.01L839.692 1681.28C847.687 1680.72 854.413 1675.08 856.352 1667.3Z" stroke="#ED1C24" stroke-opacity="0.01" stroke-width="3"/>
<path opacity="0.808081" d="M857.242 1664.72L1017.25 971.641C1019.06 963.832 1015.63 955.75 1008.76 951.622L399.04 585.268C392.17 581.14 383.423 581.905 377.375 587.163L-159.461 1053.83C-165.51 1059.09 -167.485 1067.64 -164.353 1075.02L113.579 1729.79C116.711 1737.16 124.237 1741.69 132.221 1740.99L840.829 1678.99C848.813 1678.29 855.439 1672.53 857.242 1664.72Z" stroke="#ED1C24" stroke-opacity="0.01" stroke-width="3"/>
<path opacity="0.818182" d="M857.976 1662.05L1005.54 967.819C1007.2 959.979 1003.63 951.958 996.692 947.951L382.043 593.083C375.102 589.076 366.37 589.993 360.414 595.356L-167.023 1070.26C-172.979 1075.63 -174.804 1084.21 -171.544 1091.54L117.131 1739.91C120.391 1747.23 127.995 1751.62 135.966 1750.79L841.814 1676.6C849.784 1675.76 856.309 1669.89 857.976 1662.05Z" stroke="#ED1C24" stroke-opacity="0.01" stroke-width="3"/>
<path opacity="0.828283" d="M858.53 1659.27L993.653 964.128C995.182 956.26 991.471 948.303 984.461 944.418L365.093 601.096C358.083 597.21 349.369 598.281 343.507 603.746L-174.406 1086.71C-180.268 1092.17 -181.943 1100.79 -178.556 1108.06L120.724 1749.87C124.111 1757.13 131.79 1761.39 139.745 1760.41L842.624 1674.11C850.579 1673.13 857 1667.14 858.53 1659.27Z" stroke="#ED1C24" stroke-opacity="0.01" stroke-width="3"/>
<path opacity="0.838384" d="M858.93 1656.38L981.626 960.537C983.018 952.644 979.169 944.753 972.093 940.99L348.221 609.272C341.144 605.509 332.45 606.731 326.684 612.299L-181.586 1103.13C-187.351 1108.7 -188.876 1117.34 -185.362 1124.55L124.381 1759.62C127.895 1766.82 135.647 1770.94 143.584 1769.83L843.286 1671.49C851.223 1670.37 857.538 1664.27 858.93 1656.38Z" stroke="#ED1C24" stroke-opacity="0.01" stroke-width="3"/>
<path opacity="0.848485" d="M859.163 1653.4L969.449 957.077C970.703 949.161 966.717 941.338 959.576 937.699L331.416 617.636C324.275 613.997 315.603 615.371 309.936 621.038L-188.575 1119.55C-194.242 1125.22 -195.615 1133.89 -191.977 1141.03L128.087 1769.19C131.725 1776.33 139.548 1780.32 147.464 1779.06L843.785 1668.78C851.701 1667.52 857.909 1661.31 859.163 1653.4Z" stroke="#ED1C24" stroke-opacity="0.01" stroke-width="3"/>
<path opacity="0.858586" d="M859.231 1650.31L957.128 953.738C958.243 945.801 954.121 938.049 946.918 934.536L314.687 626.176C307.483 622.663 298.837 624.187 293.269 629.952L-195.368 1135.95C-200.936 1141.72 -202.158 1150.41 -198.395 1157.49L131.841 1778.57C135.604 1785.65 143.495 1789.5 151.388 1788.11L844.123 1665.96C852.016 1664.57 858.115 1658.25 859.231 1650.31Z" stroke="#ED1C24" stroke-opacity="0.01" stroke-width="3"/>
<path opacity="0.868687" d="M859.12 1647.14L944.653 950.528C945.63 942.573 941.373 934.894 934.109 931.507L298.024 634.895C290.76 631.508 282.141 633.183 276.675 639.045L-201.98 1152.34C-207.446 1158.2 -208.516 1166.92 -204.631 1173.93L135.629 1787.77C139.515 1794.78 147.472 1798.49 155.34 1796.96L844.288 1663.04C852.155 1661.52 858.143 1655.09 859.12 1647.14Z" stroke="#ED1C24" stroke-opacity="0.01" stroke-width="3"/>
<path opacity="0.878788" d="M858.842 1643.87L932.04 947.443C932.878 939.472 928.488 931.868 921.166 928.609L281.443 643.785C274.121 640.526 265.533 642.351 260.17 648.307L-208.398 1168.7C-213.761 1174.66 -214.679 1183.39 -210.672 1190.33L139.461 1796.78C143.468 1803.72 151.489 1807.29 159.328 1805.63L844.29 1660.03C852.13 1658.37 858.005 1651.84 858.842 1643.87Z" stroke="#ED1C24" stroke-opacity="0.01" stroke-width="3"/>
<path opacity="0.888889" d="M858.396 1640.52L919.29 944.496C919.989 936.512 915.467 928.986 908.089 925.854L264.946 652.856C257.569 649.725 249.014 651.7 243.756 657.748L-214.623 1185.05C-219.881 1191.1 -220.647 1199.85 -216.519 1206.72L143.331 1805.61C147.459 1812.48 155.541 1815.91 163.35 1814.11L844.128 1656.94C851.937 1655.13 857.697 1648.51 858.396 1640.52Z" stroke="#ED1C24" stroke-opacity="0.01" stroke-width="3"/>
<path opacity="0.89899" d="M857.776 1637.08L906.404 941.676C906.963 933.681 902.31 926.235 894.879 923.232L248.532 662.092C241.101 659.089 232.582 661.213 227.43 667.353L-220.661 1201.37C-225.813 1207.51 -226.426 1216.27 -222.178 1223.06L147.232 1814.24C151.479 1821.04 159.62 1824.33 167.396 1822.39L843.796 1653.74C851.573 1651.81 857.217 1645.08 857.776 1637.08Z" stroke="#ED1C24" stroke-opacity="0.01" stroke-width="3"/>
<path opacity="0.909091" d="M856.98 1633.56L893.381 938.982C893.8 930.978 889.018 923.614 881.536 920.742L232.204 671.487C224.722 668.615 216.241 670.887 211.197 677.116L-226.513 1217.64C-231.557 1223.87 -232.016 1232.64 -227.651 1239.36L151.161 1822.68C155.526 1829.4 163.723 1832.55 171.464 1830.47L843.293 1650.46C851.035 1648.38 856.56 1641.56 856.98 1633.56Z" stroke="#ED1C24" stroke-opacity="0.01" stroke-width="3"/>
<path opacity="0.919192" d="M856.013 1629.96L880.231 936.435C880.511 928.425 875.601 921.146 868.07 918.405L215.97 681.06C208.439 678.319 199.999 680.739 195.065 687.055L-232.173 1233.89C-237.107 1240.21 -237.414 1248.98 -232.932 1255.63L155.12 1830.94C159.602 1837.58 167.852 1840.59 175.556 1838.38L842.624 1647.1C850.328 1644.89 855.733 1637.97 856.013 1629.96Z" stroke="#ED1C24" stroke-opacity="0.01" stroke-width="3"/>
<path opacity="0.929293" d="M854.865 1626.29L866.948 934.022C867.088 926.009 862.052 918.817 854.474 916.207L199.825 690.793C192.247 688.184 183.85 690.751 179.027 697.152L-237.652 1250.1C-242.476 1256.5 -242.629 1265.28 -238.032 1271.85L159.096 1839.01C163.693 1845.57 171.994 1848.43 179.659 1846.09L841.776 1643.66C849.441 1641.31 854.725 1634.3 854.865 1626.29Z" stroke="#ED1C24" stroke-opacity="0.01" stroke-width="3"/>
<path opacity="0.939394" d="M853.536 1622.55L853.536 931.76C853.536 923.746 848.375 916.642 840.753 914.166L183.77 700.699C176.147 698.222 167.797 700.936 163.086 707.42L-242.951 1266.28C-247.662 1272.77 -247.662 1281.55 -242.951 1288.03L163.086 1846.89C167.797 1853.38 176.148 1856.09 183.77 1853.61L840.753 1640.15C848.375 1637.67 853.536 1630.57 853.536 1622.55Z" stroke="#ED1C24" stroke-opacity="0.01" stroke-width="3"/>
<path opacity="0.949495" d="M852.034 1618.74L840.005 929.633C839.866 921.619 834.582 914.607 826.917 912.264L167.819 710.757C160.154 708.414 151.853 711.273 147.255 717.838L-248.061 1282.41C-252.658 1288.97 -252.505 1297.75 -247.682 1304.15L167.097 1854.58C171.921 1860.99 180.317 1863.55 187.895 1860.94L839.56 1636.56C847.138 1633.95 852.174 1626.76 852.034 1618.74Z" stroke="#ED1C24" stroke-opacity="0.01" stroke-width="3"/>
<path opacity="0.959596" d="M850.358 1614.87L826.36 927.657C826.081 919.647 820.675 912.728 812.971 910.519L151.974 720.981C144.269 718.772 136.019 721.775 131.537 728.419L-252.984 1298.49C-257.465 1305.14 -257.159 1313.91 -252.225 1320.23L171.126 1862.09C176.06 1868.41 184.5 1870.83 192.031 1868.09L838.197 1632.9C845.728 1630.16 850.638 1622.88 850.358 1614.87Z" stroke="#ED1C24" stroke-opacity="0.01" stroke-width="3"/>
<path opacity="0.969697" d="M848.494 1610.94L812.588 925.825C812.169 917.821 806.643 910.998 798.902 908.923L136.222 731.359C128.48 729.285 120.283 732.431 115.918 739.153L-257.735 1314.53C-262.1 1321.25 -261.64 1330.02 -256.597 1336.25L175.153 1869.41C180.197 1875.64 188.677 1877.91 196.16 1875.04L836.649 1629.18C844.131 1626.31 848.913 1618.94 848.494 1610.94Z" stroke="#ED1C24" stroke-opacity="0.01" stroke-width="3"/>
<path opacity="0.979798" d="M846.464 1606.95L798.717 924.143C798.158 916.148 792.514 909.422 784.738 907.483L120.592 741.893C112.815 739.954 104.674 743.243 100.427 750.04L-262.291 1330.51C-266.538 1337.31 -265.925 1346.07 -260.774 1352.21L179.2 1876.55C184.352 1882.69 192.871 1884.81 200.302 1881.81L834.939 1625.4C842.37 1622.39 847.023 1614.95 846.464 1606.95Z" stroke="#ED1C24" stroke-opacity="0.01" stroke-width="3"/>
<path opacity="0.989899" d="M844.229 1602.91L784.711 922.611C784.012 914.627 778.252 908 770.443 906.198L105.046 752.579C97.2368 750.776 89.1547 754.206 85.0268 761.076L-266.692 1346.44C-270.82 1353.31 -270.055 1362.05 -264.797 1368.1L183.225 1883.49C188.484 1889.54 197.039 1891.51 204.416 1888.38L833.028 1621.55C840.406 1618.42 844.928 1610.9 844.229 1602.91Z" stroke="#ED1C24" stroke-opacity="0.01" stroke-width="3"/>
<path d="M841.828 1598.82L770.61 921.228C769.773 913.257 763.898 906.732 756.058 905.066L89.6258 763.411C81.7863 761.745 73.7653 765.316 69.758 772.257L-270.902 1362.3C-274.91 1369.24 -273.992 1377.97 -268.629 1383.93L187.264 1890.25C192.626 1896.2 201.215 1898.03 208.536 1894.77L830.954 1617.65C838.276 1614.39 842.666 1606.79 841.828 1598.82Z" stroke="#ED1C24" stroke-opacity="0.01" stroke-width="3"/>
</g>
<defs>
<clipPath id="clip0_171_3314">
<rect width="1440" height="2078" fill="white"/>
</clipPath>
</defs>
</svg>
