<svg width="26" height="28" viewBox="0 0 26 28" fill="none" xmlns="http://www.w3.org/2000/svg">
<path d="M24.8378 3.89915C24.7872 3.53994 24.5256 3.24447 24.1719 3.14735L12.837 0.033323C12.6754 -0.0111077 12.5047 -0.0111077 12.343 0.033323L1.00809 3.14735C0.654431 3.24447 0.392809 3.53982 0.34218 3.89915C0.276437 4.36616 -1.22337 15.4005 2.62354 20.8897C6.46591 26.3724 12.1342 27.7775 12.3736 27.8346C12.4447 27.8516 12.5173 27.86 12.59 27.86C12.6627 27.86 12.7352 27.8515 12.8064 27.8346C13.0459 27.7775 18.7142 26.3724 22.5565 20.8897C26.4034 15.4006 24.9036 4.36628 24.8378 3.89915ZM19.8996 10.3411L12.168 17.9789C11.9881 18.1566 11.7522 18.2456 11.5164 18.2456C11.2805 18.2456 11.0446 18.1568 10.8647 17.9789L6.08435 13.2565C5.91145 13.0859 5.81437 12.8542 5.81437 12.6128C5.81437 12.3713 5.91157 12.1397 6.08435 11.969L7.03351 11.0314C7.39344 10.6759 7.97702 10.6758 8.33683 11.0314L11.5164 14.1723L17.6471 8.11581C17.8199 7.94501 18.0543 7.84911 18.2987 7.84911C18.5432 7.84911 18.7776 7.94501 18.9504 8.11581L19.8996 9.05347C20.2595 9.40903 20.2595 9.98554 19.8996 10.3411Z" fill="#00B76A"/>
</svg>
