<svg width="1194" height="465" viewBox="0 0 1194 465" fill="none" xmlns="http://www.w3.org/2000/svg">
<g clip-path="url(#clip0_30_256)">
<g opacity="0.15">
<path fill-rule="evenodd" clip-rule="evenodd" d="M-755.674 161.405C-755.674 161.405 -712.703 296.354 -530.822 347.143C-348.941 397.932 -199.503 161.405 3.21364 161.405C205.93 161.405 195.534 538.847 434.636 583.169C673.738 627.491 687.382 439.271 845.267 347.143C1003.15 255.015 1193.52 507.765 1193.52 507.765L1193.52 -232.742L-755.674 -232.742L-755.674 161.405Z" fill="white" fill-opacity="0.49"/>
<path opacity="0.7" fill-rule="evenodd" clip-rule="evenodd" d="M1193.52 93.2719C1193.52 93.2719 1023.41 -25.7484 881.65 177.147C739.89 380.042 637.35 27.5084 434.633 27.5084C231.915 27.5084 166.985 300.264 -12.3854 326.138C-191.756 352.012 -239.143 189.464 -397.029 128.633C-554.914 67.8026 -755.683 320.963 -755.683 320.963L-755.683 -232.74L1193.52 -232.74L1193.52 93.2719Z" fill="white"/>
</g>
</g>
<defs>
<clipPath id="clip0_30_256">
<rect width="1194" height="465" fill="white"/>
</clipPath>
</defs>
</svg>
