<svg width="51" height="52" viewBox="0 0 51 52" fill="none" xmlns="http://www.w3.org/2000/svg">
<mask id="mask0_100_52752" style="mask-type:alpha" maskUnits="userSpaceOnUse" x="0" y="0" width="51" height="52">
<path d="M0.792969 0.983765L50.9996 0.983765L50.9996 51.0173L0.792969 51.0173L0.792969 0.983765Z" fill="white"/>
</mask>
<g mask="url(#mask0_100_52752)">
<path fill-rule="evenodd" clip-rule="evenodd" d="M46.2857 51.0173L5.50691 51.0173C2.91434 51.0173 0.792969 48.9034 0.792969 46.3196L0.792969 5.68145C0.792969 3.09782 2.91434 0.983765 5.50691 0.983765L46.2857 0.983765C48.8784 0.983765 50.9996 3.09782 50.9996 5.68145L50.9996 46.3196C50.9996 48.9034 48.8784 51.0173 46.2857 51.0173Z" fill="#E82529"/>
</g>
<path fill-rule="evenodd" clip-rule="evenodd" d="M11.6261 10.4052H14.0048C14.1859 10.4052 14.325 10.5652 14.2992 10.7437L13.1945 18.3807C13.152 18.6746 13.3809 18.9378 13.6788 18.9378H17.8516C17.9702 18.9378 18.061 19.0427 18.0437 19.1595L17.72 21.3529C17.7033 21.4669 17.6051 21.5515 17.4894 21.5515H12.7711C11.3676 21.5515 10.0216 20.4044 10.2197 19.0196L11.3313 10.6626C11.3509 10.5153 11.4769 10.4052 11.6261 10.4052Z" fill="#FEFEFE"/>
<path fill-rule="evenodd" clip-rule="evenodd" d="M19.5557 13.4525L18.4669 21.2409C18.4496 21.3644 18.5458 21.4747 18.671 21.4747H20.9728C21.1365 21.4747 21.2752 21.3545 21.2979 21.1929L22.3761 13.5311C22.3991 13.3546 22.2612 13.1981 22.0825 13.1981H19.8489C19.7011 13.1981 19.5761 13.3067 19.5557 13.4525Z" fill="#FEFEFE"/>
<path fill-rule="evenodd" clip-rule="evenodd" d="M24.3033 20.8774C23.5931 20.8519 23.2609 21.0737 22.8418 21.3228C22.9429 20.6206 23.7359 15.1485 23.8083 14.8123C23.8848 14.4539 23.9543 13.856 24.2706 13.5544C24.6412 13.2003 25.2149 12.9978 28.0693 12.9886C30.983 12.9792 31.5474 15.0689 31.3928 16.4267C31.261 17.589 30.8275 20.4604 30.7051 21.2627C30.6864 21.3847 30.5818 21.4745 30.4586 21.4745H28.2079C28.043 21.4745 27.9162 21.3296 27.9392 21.167C28.0531 20.3647 28.3583 18.226 28.4619 17.6049C28.5904 16.8367 28.6932 15.9914 28.4875 15.6577C28.2818 15.3246 27.6647 15.0689 26.4822 15.2739L25.6076 21.4364C25.6076 21.4364 25.0449 20.9041 24.3033 20.8774Z" fill="#FEFEFE"/>
<path fill-rule="evenodd" clip-rule="evenodd" d="M33.8353 9.96277H36.332C36.4249 9.96277 36.4964 10.0446 36.4836 10.1363L34.93 21.352C34.9185 21.4352 34.8471 21.4972 34.7627 21.4972H32.2977C32.1952 21.4972 32.1164 21.407 32.1305 21.3059L33.6836 10.0946C33.6941 10.0191 33.7587 9.96277 33.8353 9.96277Z" fill="#FEFEFE"/>
<path fill-rule="evenodd" clip-rule="evenodd" d="M35.7676 16.7203L38.5892 13.4274C38.6781 13.3237 38.8082 13.2639 38.9452 13.2639L41.4222 13.2639C41.601 13.2639 41.6952 13.475 41.5756 13.6072L38.6905 16.798L41.3279 22.4506C41.4246 22.6581 41.2726 22.8954 41.0432 22.8954H38.8043C38.6874 22.8954 38.5812 22.8274 38.5324 22.7216L35.7676 16.7203Z" fill="#FEFEFE"/>
<path fill-rule="evenodd" clip-rule="evenodd" d="M22.8598 11.0891C22.658 11.9377 21.8911 12.5692 21.0882 12.5692C20.2854 12.5692 19.6697 11.8813 19.8717 11.0328C20.0736 10.1842 20.7383 9.49622 21.691 9.49622C22.4938 9.49622 23.0617 10.2405 22.8598 11.0891Z" fill="#FEFEFE"/>
<path fill-rule="evenodd" clip-rule="evenodd" d="M25.397 23.4599C25.1951 24.3086 24.4282 24.9401 23.6253 24.9401C22.8225 24.9401 22.2068 24.2521 22.4088 23.4037C22.6107 22.555 23.2754 21.8671 24.2281 21.8671C25.0309 21.8671 25.5988 22.6113 25.397 23.4599Z" fill="#FEFEFE"/>
<path fill-rule="evenodd" clip-rule="evenodd" d="M37.4736 33.6013C37.3035 34.4399 36.5286 35.0637 35.6845 35.0632C34.8403 35.0628 34.1588 34.3825 34.329 33.5441C34.4991 32.7056 35.1638 32.026 36.1655 32.0265C37.0096 32.027 37.6438 32.7627 37.4736 33.6013Z" fill="#FEFEFE"/>
<path fill-rule="evenodd" clip-rule="evenodd" d="M16.2231 29.4245H14.7115C14.6554 29.4245 14.6168 29.3682 14.6374 29.3161L15.9529 25.9886C15.978 25.9252 16.0718 25.9387 16.0779 26.0065L16.3735 29.2603C16.3815 29.3484 16.312 29.4245 16.2231 29.4245ZM19.8849 33.6031L18.1982 23.5417C18.1244 23.1018 17.7423 22.7795 17.2948 22.7795H15.6023C15.0861 22.7795 14.6175 23.0799 14.4038 23.5481L9.86001 33.6156C9.79411 33.7617 9.90185 33.9266 10.0624 33.9257L12.4233 33.912C12.5849 33.9111 12.7303 33.8145 12.7934 33.6665L13.5782 31.8266C13.5995 31.7764 13.6488 31.7439 13.7035 31.7439H16.5607C16.6308 31.7439 16.6896 31.7969 16.6964 31.8664L16.8669 33.6074C16.8866 33.81 17.0576 33.9646 17.2619 33.9646H19.5776C19.7702 33.9646 19.9167 33.7923 19.8849 33.6031Z" fill="#FEFEFE"/>
<path fill-rule="evenodd" clip-rule="evenodd" d="M18.7586 35.4258L19.3039 37.1045C19.4019 37.3807 19.4758 37.442 19.6674 37.4017C20.3562 37.257 22.0204 36.7669 22.8347 35.6691C23.8962 34.238 24.0418 31.7079 24.2292 30.422C24.3834 29.3628 24.7213 26.7555 24.8356 25.8693C24.8562 25.7099 24.7316 25.569 24.5701 25.569H22.4536C22.2666 25.569 22.1085 25.7066 22.0834 25.8912C21.9127 27.1429 21.298 31.6439 21.1907 32.2678C21.0658 32.9938 21.0409 34.0394 19.9632 34.6636C19.4254 34.9749 19.1496 35.0344 18.9368 35.1334C18.8285 35.1838 18.7062 35.2378 18.7586 35.4258Z" fill="#FEFEFE"/>
<path fill-rule="evenodd" clip-rule="evenodd" d="M30.4057 31.5501C30.4057 31.5501 29.3021 31.9241 28.7723 31.528C28.2424 31.1321 28.1982 30.3182 28.5073 29.1523C28.8164 27.9863 29.589 27.7884 29.9201 27.7663C30.2513 27.7443 30.8738 27.9005 30.8738 27.9005L30.4057 31.5501ZM33.4618 25.8701C32.7481 25.6922 31.5483 25.3014 29.6194 25.4423C27.8397 25.5722 25.83 26.3925 25.4537 29.8936C25.0773 33.3947 26.6834 34.0699 28.992 34.17C30.6838 34.2433 32.0116 33.7795 32.6005 33.5263C32.8055 33.4383 32.9483 33.2494 32.9783 33.029L33.8312 26.2883C33.8647 26.0208 33.7305 25.937 33.4618 25.8701Z" fill="#FEFEFE"/>
<path fill-rule="evenodd" clip-rule="evenodd" d="M35.1097 30.9104L35.7308 24.4557C35.7531 24.2245 35.9478 24.1301 36.1809 24.1301H38.3235C38.5231 24.1301 38.6077 24.2811 38.5526 24.5283L37.2448 30.9917C37.2183 31.1168 37.1078 31.2063 36.9795 31.2063H35.3794C35.2195 31.2063 35.0943 31.069 35.1097 30.9104Z" fill="#FEFEFE"/>
<path fill-rule="evenodd" clip-rule="evenodd" d="M10.0356 42.8126C10.4599 43.0463 10.9555 43.1142 11.4272 43.0029C13.3063 42.5592 17.4646 41.3648 26.2609 40.0977C37.3121 38.5057 45.4716 38.5123 45.4716 38.5123L45.493 38.4992C45.493 38.4992 38.261 37.509 26.3917 38.6643C14.5222 39.8195 7.89746 41.6351 7.89746 41.6351L10.0356 42.8126Z" fill="#FEFEFE"/>
</svg>
