<svg width="20" height="28" viewBox="0 0 20 28" fill="none" xmlns="http://www.w3.org/2000/svg">
<path fill-rule="evenodd" clip-rule="evenodd" d="M5.37582 1.91565C8.28897 0.222992 11.8697 0.252577 14.7555 1.99315C17.6129 3.76918 19.3496 6.93886 19.3334 10.3486C19.2669 13.7359 17.4047 16.92 15.077 19.3814C13.7334 20.8085 12.2305 22.0704 10.5988 23.1413C10.4307 23.2385 10.2467 23.3036 10.0556 23.3333C9.87179 23.3255 9.69275 23.2711 9.53466 23.1752C7.04356 21.566 4.85811 19.512 3.08343 17.1119C1.59844 15.1084 0.754773 12.688 0.666994 10.1792C0.665066 6.76295 2.46268 3.60832 5.37582 1.91565ZM7.05921 11.593C7.54924 12.8011 8.7059 13.5891 9.98913 13.5891C10.8298 13.5951 11.6379 13.2584 12.2334 12.6539C12.8289 12.0495 13.1623 11.2275 13.1593 10.3711C13.1638 9.06401 12.3943 7.88304 11.21 7.37966C10.0258 6.87627 8.66038 7.14976 7.75142 8.07242C6.84245 8.99509 6.56918 10.3849 7.05921 11.593Z" fill="#FDE8EB"/>
<ellipse cx="10.0007" cy="26" rx="6.66667" ry="1.33333" fill="#ED1C24"/>
</svg>
