<svg width="14" height="21" viewBox="0 0 14 21" fill="none" xmlns="http://www.w3.org/2000/svg">
<path fill-rule="evenodd" clip-rule="evenodd" d="M3.53162 1.43677C5.71648 0.167274 8.40203 0.189463 10.5664 1.49489C12.7095 2.82691 14.012 5.20418 13.9998 7.76144C13.95 10.3019 12.5533 12.69 10.8075 14.5361C9.79983 15.6064 8.67261 16.5528 7.44884 17.356C7.32281 17.4289 7.18475 17.4777 7.04148 17.5C6.9036 17.4941 6.76932 17.4534 6.65075 17.3814C4.78243 16.1746 3.14334 14.634 1.81233 12.834C0.698589 11.3314 0.0658357 9.51601 1.16173e-06 7.63442C-0.00144468 5.07225 1.34677 2.70627 3.53162 1.43677ZM4.79416 8.69478C5.16168 9.60084 6.02918 10.1918 6.9916 10.1918C7.6221 10.1964 8.22819 9.94383 8.67481 9.49048C9.12143 9.03712 9.37148 8.42064 9.36925 7.77838C9.37261 6.79804 8.79546 5.91231 7.90726 5.53477C7.01907 5.15723 5.99504 5.36235 5.31332 6.05435C4.63159 6.74635 4.42664 7.78872 4.79416 8.69478Z" fill="#ED1C24"/>
<ellipse cx="7" cy="19.5" rx="5" ry="1" fill="#FDE8EB"/>
</svg>
