<svg width="24" height="25" viewBox="0 0 24 25" fill="none" xmlns="http://www.w3.org/2000/svg">
<path fill-rule="evenodd" clip-rule="evenodd" d="M8.53162 3.43677C10.7165 2.16727 13.402 2.18946 15.5664 3.49489C17.7095 4.82691 19.012 7.20418 18.9998 9.76144C18.95 12.3019 17.5533 14.69 15.8075 16.5361C14.7998 17.6064 13.6726 18.5528 12.4488 19.356C12.3228 19.4289 12.1848 19.4777 12.0415 19.5C11.9036 19.4941 11.7693 19.4534 11.6508 19.3814C9.78243 18.1746 8.14334 16.634 6.81233 14.834C5.69859 13.3314 5.06584 11.516 5 9.63442C4.99856 7.07225 6.34677 4.70627 8.53162 3.43677ZM9.79416 10.6948C10.1617 11.6008 11.0292 12.1918 11.9916 12.1918C12.6221 12.1964 13.2282 11.9438 13.6748 11.4905C14.1214 11.0371 14.3715 10.4206 14.3692 9.77838C14.3726 8.79804 13.7955 7.91231 12.9073 7.53477C12.0191 7.15723 10.995 7.36235 10.3133 8.05435C9.63159 8.74635 9.42664 9.78872 9.79416 10.6948Z" fill="#ED1C24"/>
<ellipse cx="12" cy="21.5" rx="5" ry="1" fill="#FDE8EB"/>
</svg>
