<svg width="100" height="64" viewBox="0 0 100 64" fill="none" xmlns="http://www.w3.org/2000/svg">
<path d="M6.60834 10.3039C8.23826 6.57173 9.71611 4.02626 11.0419 2.66393C11.8533 1.8819 12.7623 1.50215 13.7712 1.52945C14.7812 1.55674 15.624 1.94005 16.3031 2.68173C16.9823 3.42223 17.2516 4.34905 17.1111 5.45861C16.9811 6.51952 16.3252 8.82646 15.1399 12.3806C15.047 12.6227 14.4805 14.5582 13.4392 18.1895C11.793 23.8287 10.9142 28.0296 10.8004 30.7958C10.6704 33.9714 11.8092 36.4208 14.2146 38.1439C15.4731 38.9888 16.9277 39.5216 18.5797 39.7411C20.2305 39.9607 21.8697 39.88 23.495 39.5026C24.5886 39.1822 25.6566 39.2463 26.6979 39.6913C27.7393 40.1363 28.4765 40.9124 28.9095 42.0244C29.2926 43.1244 29.2415 44.1735 28.7586 45.1703C28.2745 46.1671 27.5025 46.8791 26.4414 47.3075C23.9141 48.4005 21.2602 48.8645 18.481 48.7007C15.7018 48.5358 13.1629 47.8855 10.8619 46.7498C8.56216 45.6129 6.55959 43.9634 4.85188 41.7989C3.1465 39.6343 2.05756 37.1945 1.58972 34.4781C1.15437 32.1807 1.19733 29.5047 1.72322 26.4525C2.24912 23.3991 2.88297 20.7777 3.62364 18.5894C4.48387 15.7022 5.47994 12.9396 6.60834 10.3039Z" fill="#ED1C24"/>
<path d="M33.1781 33.688C33.1781 33.7379 33.1294 33.7853 33.0353 33.8316L33.0342 33.904L33.1793 33.6144L33.1781 33.688Z" fill="#F9B342"/>
<path d="M33.7607 32.3849C33.7607 32.3374 33.7619 32.2888 33.7619 32.239C33.7619 32.2888 33.7619 32.3374 33.7607 32.3849Z" fill="#F9B342"/>
<path d="M62.69 17.9725C62.8618 19.0488 62.6575 19.9542 61.9377 20.8336C61.2179 21.7129 60.6305 22.1508 59.3326 22.3561C57.64 22.6243 55.3658 22.9661 53.5559 23.2141C53.7393 25.2481 53.9181 27.167 53.8995 29.2414C53.8903 30.2014 53.9204 31.2599 53.91 32.2852C53.8995 33.3105 53.845 34.4415 53.6662 35.4941C53.4863 36.5467 53.0985 37.7785 52.7781 38.7658C52.4577 39.7531 51.8714 41.0407 51.3746 41.7136C50.7662 42.5371 50.3669 42.9026 49.6297 43.2444C48.8925 43.5862 47.9661 43.89 47.2266 43.7796C46.4871 43.6692 46.1504 43.534 45.6246 42.8338C45.0987 42.1336 44.9953 41.621 45.0395 40.623C45.1172 38.3065 45.9264 35.6341 46.0611 32.8394C46.1586 30.7995 46.0181 27.7188 45.8196 25.4546C45.7755 24.9491 45.6954 24.2109 45.6222 23.6852C43.7183 23.6033 42.0443 23.0468 41.2224 21.2762C40.8381 20.4467 40.9542 19.9151 41.2409 19.2007C41.5277 18.4851 42.0919 18.135 42.7095 17.7066C43.0555 17.4669 43.6545 17.2818 44.0585 17.1975C44.3092 17.1453 44.4335 17.143 44.6598 17.1358C44.5577 17.1477 44.4648 17.1536 44.3661 17.1643C44.661 17.0967 44.9547 17.0563 45.2554 17.0017C45.2589 14.9844 45.4446 12.5872 45.9601 10.7277C46.6125 8.37444 47.4925 6.43537 48.831 4.59362C50.1695 2.75186 51.7762 1.49752 53.7463 0.650217C55.5991 -0.146058 57.2674 -0.208953 59.1051 0.462718C60.9416 1.13439 62.0642 2.44807 62.7852 4.26015C63.2716 5.48245 62.8699 6.45792 61.7415 7.07975C60.6131 7.70158 59.6774 7.47848 58.8462 6.4864C58.8299 6.46623 58.8323 6.42825 58.7777 6.39977C58.722 6.37129 58.5978 6.36536 58.4991 6.35705C58.4004 6.34874 58.1798 6.34637 58.0753 6.3618C57.7097 6.4152 57.0654 6.37485 56.7879 6.51726C55.6757 7.08806 55.3019 7.32658 54.5891 8.54414C53.4944 10.4156 53.1415 13.0856 53.1217 15.376C54.9026 15.1766 56.5836 14.8431 58.39 14.5726C59.3802 14.4242 60.3983 14.6355 61.1912 15.3439C61.9807 16.0512 62.517 16.8961 62.69 17.9725Z" fill="#ED1C24"/>
<path d="M51.6747 46.2539C51.8952 46.3797 52.0671 46.5542 52.1913 46.7796C52.3155 47.0051 52.3782 47.265 52.3782 47.5593C52.3782 47.8548 52.3155 48.1147 52.1913 48.3425C52.0671 48.5692 51.8941 48.7448 51.6747 48.8706C51.4541 48.9964 51.2057 49.0593 50.9282 49.0593C50.7146 49.0593 50.5207 49.0166 50.3431 48.9323C50.1666 48.8481 50.0204 48.7246 49.9043 48.5621V49.0261H49.4062V44.9213H49.9263V46.5364C50.0413 46.3809 50.1864 46.2646 50.3594 46.1851C50.5323 46.1056 50.7216 46.0664 50.927 46.0664C51.2057 46.0664 51.4553 46.1293 51.6747 46.2539ZM51.3798 48.4636C51.5261 48.3769 51.641 48.2559 51.7258 48.0981C51.8105 47.9414 51.8535 47.7622 51.8535 47.5593C51.8535 47.3564 51.8105 47.1772 51.7258 47.0205C51.641 46.8639 51.5261 46.7428 51.3798 46.6586C51.2335 46.5743 51.0687 46.5316 50.8853 46.5316C50.7053 46.5316 50.5405 46.5743 50.393 46.6586C50.2456 46.7428 50.1295 46.8639 50.0471 47.0205C49.9647 47.1772 49.9229 47.3576 49.9229 47.5593C49.9229 47.7622 49.9647 47.9414 50.0471 48.0981C50.1307 48.2547 50.2456 48.3769 50.393 48.4636C50.5405 48.5502 50.7053 48.5929 50.8853 48.5929C51.0687 48.5941 51.2335 48.5502 51.3798 48.4636Z" fill="#636569"/>
<path d="M55.4464 46.0938L54.0557 49.3192C53.9326 49.6182 53.7898 49.8283 53.625 49.9493C53.4613 50.0716 53.2639 50.1321 53.0329 50.1321C52.8924 50.1321 52.7554 50.1095 52.6242 50.0633C52.4919 50.017 52.3839 49.9493 52.2969 49.8615L52.5186 49.4628C52.666 49.6064 52.8379 49.6788 53.0329 49.6788C53.1594 49.6788 53.2651 49.6444 53.3498 49.5767C53.4346 49.5079 53.5112 49.3916 53.5797 49.2254L53.6714 49.0213L52.4048 46.0949H52.9458L53.9465 48.441L54.9368 46.0949H55.4464V46.0938Z" fill="#636569"/>
<path d="M62.0898 55.4649H59.6055V47.4914L62.0898 49.5231V55.4649Z" fill="#E30613"/>
<path d="M70.2366 48.2213L71.8665 46.0935H63.8086V55.4649H66.2883V52.0804H68.1121L69.7618 49.9527H66.2883V48.2213H70.2366Z" fill="#E30613"/>
<path d="M59.6052 47.4915L57.8789 46.0935H59.6052V47.4915Z" fill="#E30613"/>
<path d="M59.6052 46.0936L56.6982 43.7392H59.6052V46.0936Z" fill="#E30613"/>
<path d="M76.2302 55.6429C75.291 55.6429 74.432 55.434 73.6785 55.0223C72.9216 54.6093 72.3191 54.0266 71.8884 53.292C71.4577 52.5575 71.2383 51.7173 71.2383 50.7952C71.2383 49.872 71.4565 49.0318 71.8884 48.2972C72.3203 47.5615 72.9263 46.98 73.6925 46.5658C74.454 46.1552 75.3201 45.9464 76.2685 45.9464C77.0591 45.9464 77.7893 46.0852 78.4383 46.3594C78.992 46.5931 79.4784 46.923 79.8836 47.3372L80.0287 47.4867L78.6403 49.3142L78.4534 49.1137C77.8706 48.4871 77.1891 48.1821 76.3672 48.1821C75.8529 48.1821 75.3909 48.2925 74.995 48.5108C74.6049 48.7256 74.2961 49.033 74.0779 49.4246C73.8585 49.8186 73.747 50.2802 73.747 50.7964C73.747 51.3043 73.8585 51.7612 74.0779 52.1552C74.2961 52.548 74.6038 52.8577 74.9904 53.0773C75.3816 53.2992 75.8355 53.4107 76.3417 53.4107C76.8316 53.4107 77.282 53.3122 77.6814 53.1188L77.7069 52.1018H76.5483L74.8952 49.9693H79.9881V54.3921L79.8952 54.4633C79.4018 54.8431 78.8248 55.1385 78.1782 55.3415C77.5374 55.5408 76.8815 55.6429 76.2302 55.6429Z" fill="#E30613"/>
<path d="M62.0921 46.0923H59.6055L62.0921 48.1346V46.0923Z" fill="#E30613"/>
<path d="M40.2748 34.4545C40.0334 36.1954 39.5528 37.6799 38.4197 39.7127C37.2565 41.8013 33.3605 45.1656 31.3881 41.9081C30.529 40.4888 31.1478 38.6708 31.4182 37.9683C32.0359 36.3615 32.1496 35.9663 32.3923 35.0787C32.7684 33.7033 33.1817 32.0289 33.0667 30.3971C33.0551 30.2358 33.0041 29.9604 32.9785 29.7931C32.953 29.6258 32.8903 29.3505 32.744 28.693C32.4851 27.5348 31.734 26.2164 31.2952 25.2196C30.8575 24.2239 30.5418 23.2378 30.2527 22.3703C29.4482 19.953 30.1877 17.9878 32.6511 16.8735C33.5833 16.4522 35.7856 16.387 37.1868 19.0321C37.8427 20.2699 38.8516 22.6812 39.2939 23.5582C40.9435 26.8252 40.6429 31.7951 40.2748 34.4545Z" fill="#ED1C24"/>
<path d="M29.9412 13.7513C32.4436 13.7513 34.4722 11.6776 34.4722 9.11963C34.4722 6.56162 32.4436 4.48795 29.9412 4.48795C27.4388 4.48795 25.4102 6.56162 25.4102 9.11963C25.4102 11.6776 27.4388 13.7513 29.9412 13.7513Z" fill="#ED1C24"/>
<path d="M72.9751 29.9748C74.9684 29.8027 76.7017 29.5547 78.1749 29.2319C79.5517 28.9079 80.932 28.5104 82.3124 28.0405C82.4551 27.9942 82.786 27.9004 83.3107 27.7604C83.8332 27.6204 84.2255 27.5041 84.4879 27.4103C84.7491 27.3166 85.0823 27.1872 85.4875 27.0211C85.8926 26.8561 86.249 26.6781 86.5601 26.4871C86.8713 26.2972 87.1452 26.0824 87.3844 25.8415C88.2469 25.0761 88.7403 24.2086 88.8704 23.2403C88.9981 22.2719 88.8181 21.3499 88.3294 20.4717C87.8406 19.5947 87.2683 18.7878 86.6124 18.0544C85.9541 17.321 85.2506 16.6588 84.4995 16.069C82.2891 14.3495 79.6678 13.3515 76.6355 13.0762C73.6519 12.8021 70.9876 13.4761 68.6484 15.0983C65.8785 16.9591 64.2613 19.7763 63.7958 23.5524C63.3825 26.7956 63.7064 29.792 64.7698 32.5416C65.8309 35.2924 67.6825 37.311 70.3259 38.5997C73.1075 39.9383 76.0678 40.4308 79.2011 40.0771C83.6137 39.6404 86.523 38.0728 87.9265 35.3731C88.312 34.6504 88.4397 33.8648 88.3062 33.0139C88.1738 32.1654 87.7779 31.47 87.1197 30.9289C86.5079 30.4376 85.7405 30.1991 84.8153 30.2133C83.8889 30.2287 82.6003 30.5622 81.9165 31.9637C74.3705 34.8189 71.452 30.3308 71.2756 30.0448C71.2732 30.0401 71.2698 30.0341 71.2674 30.0306C71.8827 30.0353 72.4527 30.0187 72.9751 29.9748ZM70.9087 23.5547C70.9087 23.5547 70.8669 21.1469 73.6659 20.4349C76.4648 19.7229 78.5963 20.4349 79.7502 21.4697C79.7491 21.4697 75.6754 22.9958 70.9087 23.5547Z" fill="#ED1C24"/>
</svg>
