<svg width="81" height="87" viewBox="0 0 81 87" fill="none" xmlns="http://www.w3.org/2000/svg">
<path opacity="0.010101" d="M-31.83 24.315C-34.766 31.7725 -32.5662 40.2725 -26.3809 45.3694L-5.31535 62.7281C0.869896 67.8249 9.63363 68.3594 16.3924 64.0519L39.4111 49.3815C46.1699 45.0739 49.3863 36.9043 47.3782 29.1452L40.539 2.71971C38.5309 -5.03932 31.755 -10.6229 23.7552 -11.1107L-3.49046 -12.7722C-11.4903 -13.2601 -18.8944 -8.54121 -21.8305 -1.08368L-31.83 24.315Z" stroke="#ED1C24" stroke-opacity="0.02" stroke-width="3"/>
<path opacity="0.020202" d="M-32.3078 25.0244C-35.1132 32.5321 -32.7653 40.9924 -26.4921 45.9805L-5.2073 62.9049C1.06596 67.893 9.8377 68.2744 16.5202 63.8496L39.1937 48.8365C45.8762 44.4117 48.9496 36.1872 46.8063 28.4643L39.5345 2.26132C37.3913 -5.46149 30.519 -10.926 22.5119 -11.2741L-4.65581 -12.4554C-12.6629 -12.8035 -19.9836 -7.95618 -22.7891 -0.448542L-32.3078 25.0244Z" stroke="#ED1C24" stroke-opacity="0.02" stroke-width="3"/>
<path opacity="0.030303" d="M-32.7751 25.7304C-35.4491 33.2858 -32.9539 41.7039 -26.5946 46.5817L-5.09922 63.0695C1.26014 67.9474 10.0372 68.1757 16.6415 63.6349L38.9647 48.2866C45.569 43.7459 48.4984 35.4689 46.2207 27.7847L38.5219 1.81117C36.2442 -5.87306 29.2776 -11.2167 21.2656 -11.4251L-5.81577 -12.1294C-13.8278 -12.3377 -21.0627 -7.36336 -23.7367 0.192102L-32.7751 25.7304Z" stroke="#ED1C24" stroke-opacity="0.02" stroke-width="3"/>
<path opacity="0.040404" d="M-33.2316 26.4327C-35.7733 34.0337 -33.1316 42.4069 -26.6881 47.1731L-4.991 63.222C1.45252 67.9882 10.2322 68.0632 16.7563 63.4079L38.7245 47.7321C45.2485 43.0768 48.033 34.75 45.6216 27.1067L37.5016 1.36955C35.0901 -6.27376 28.0313 -11.4951 20.0169 -11.5635L-6.96976 -11.7942C-14.9842 -11.8627 -22.1312 -6.76281 -24.6729 0.83816L-33.2316 26.4327Z" stroke="#ED1C24" stroke-opacity="0.02" stroke-width="3"/>
<path opacity="0.050505" d="M-33.676 27.1326C-36.0847 34.7768 -33.2972 43.1026 -26.7715 47.7555L-4.88134 63.3637C1.64438 68.0167 10.424 67.9385 16.8659 63.17L38.4745 47.1744C44.9163 42.4059 47.555 34.0318 45.0106 26.4317L36.4753 0.93773C33.9308 -6.66233 26.7819 -11.7596 18.7676 -11.6882L-8.1162 -11.4488C-16.1306 -11.3774 -23.1875 -6.15356 -25.5962 1.49062L-33.676 27.1326Z" stroke="#ED1C24" stroke-opacity="0.02" stroke-width="3"/>
<path opacity="0.0606061" d="M-34.1098 27.829C-36.3847 35.514 -33.4523 43.7899 -26.8464 48.3283L-4.77195 63.4938C1.83398 68.0322 10.611 67.8008 16.9686 62.9206L38.2132 46.6129C44.5708 41.7327 47.0629 33.3138 44.3862 25.7593L35.4417 0.515149C32.7649 -7.03934 25.5282 -12.0111 17.5163 -11.7999L-9.25638 -11.094C-17.2683 -10.8827 -24.233 -5.53653 -26.5079 2.14852L-34.1098 27.829Z" stroke="#ED1C24" stroke-opacity="0.02" stroke-width="3"/>
<path opacity="0.0707071" d="M-34.5324 28.5218C-36.6728 36.2453 -33.5965 44.4688 -26.9124 48.8912L-4.66238 63.6124C2.02175 68.0348 10.7933 67.6502 17.0648 62.6598L37.9411 46.0479C44.2126 41.0575 46.5574 32.5964 43.7493 25.0898L34.4015 0.101836C31.5934 -7.40479 24.2709 -12.2495 16.264 -11.8984L-10.3896 -10.7299C-18.3966 -10.3789 -25.2669 -4.91194 -27.4074 2.81164L-34.5324 28.5218Z" stroke="#ED1C24" stroke-opacity="0.02" stroke-width="3"/>
<path opacity="0.0808081" d="M-34.945 29.2103C-36.9503 36.97 -33.7309 45.1385 -26.9706 49.4436L-4.55379 63.719C2.2065 68.0241 10.97 67.4865 17.1534 62.3874L37.6573 45.4791C43.8407 40.38 46.0375 31.8792 43.0988 24.4228L33.3541 -0.302552C30.4154 -7.75902 23.0095 -12.4752 15.0099 -11.9845L-11.5166 -10.3572C-19.5162 -9.86649 -26.2901 -4.28049 -28.2954 3.47927L-34.945 29.2103Z" stroke="#ED1C24" stroke-opacity="0.02" stroke-width="3"/>
<path opacity="0.0909091" d="M-35.3454 29.8956C-37.215 37.6892 -33.8536 45.8003 -27.0192 49.9867L-4.44437 63.815C2.39002 68.0014 11.1429 67.311 17.2363 62.1047L37.3638 44.908C43.4573 39.7017 45.5054 31.164 42.437 23.7599L32.3016 -0.696558C29.2332 -8.10061 21.7462 -12.6868 13.7563 -12.0565L-12.6352 -9.9747C-20.625 -9.34443 -27.3004 -3.64106 -29.17 4.15252L-35.3454 29.8956Z" stroke="#ED1C24" stroke-opacity="0.02" stroke-width="3"/>
<path opacity="0.10101" d="M-35.7362 30.5764C-37.4695 38.4014 -33.967 46.4526 -27.0606 50.5191L-4.33651 63.8991C2.56991 67.9656 11.3094 67.1225 17.3111 61.8107L37.0583 44.3334C43.06 39.0217 44.9588 30.4494 41.7616 23.1001L31.242 -1.08149C28.0448 -8.43086 20.4789 -12.8857 12.5013 -12.1161L-13.7475 -9.58382C-21.7252 -8.81421 -28.2999 -2.99521 -30.0332 4.82981L-35.7362 30.5764Z" stroke="#ED1C24" stroke-opacity="0.02" stroke-width="3"/>
<path opacity="0.111111" d="M-36.1167 31.2529C-37.7131 39.107 -34.0707 47.0958 -27.0943 51.0412L-4.22968 63.9719C2.74666 67.9173 11.4701 66.9218 17.3781 61.5061L36.7416 43.7563C42.6496 38.3406 44.3985 29.7366 41.0736 22.4441L30.1762 -1.45659C26.8513 -8.74904 19.2087 -13.0712 11.2457 -12.1624L-14.8526 -9.18413C-22.8157 -8.2754 -29.2879 -2.34254 -30.8843 5.51153L-36.1167 31.2529Z" stroke="#ED1C24" stroke-opacity="0.02" stroke-width="3"/>
<path opacity="0.121212" d="M-36.4863 31.9246C-37.9454 39.8054 -34.1641 47.7294 -27.12 51.5524L-4.12349 64.0331C2.92063 67.8561 11.6253 66.7085 17.438 61.1905L36.4141 43.1763C42.2268 37.6583 43.8252 29.0251 40.3735 21.7917L29.1049 -1.82232C25.6532 -9.05564 17.9364 -13.2437 9.99052 -12.1961L-15.95 -8.77625C-23.8959 -7.72869 -30.2636 -1.68378 -31.7227 6.19696L-36.4863 31.9246Z" stroke="#ED1C24" stroke-opacity="0.02" stroke-width="3"/>
<path opacity="0.131313" d="M-36.8457 32.5917C-38.1671 40.4967 -34.248 48.3535 -27.1382 52.053L-4.01871 64.083C3.09108 67.7825 11.7744 66.4831 17.4899 60.8645L36.0754 42.594C41.7909 36.9754 43.2384 28.3156 39.661 21.1436L28.0279 -2.17818C24.4505 -9.35016 16.6618 -13.4029 8.73537 -12.2168L-17.0398 -8.35997C-24.9662 -7.17389 -31.2274 -1.01876 -32.5488 6.88624L-36.8457 32.5917Z" stroke="#ED1C24" stroke-opacity="0.02" stroke-width="3"/>
<path opacity="0.141414" d="M-37.1945 33.2548C-38.3777 41.1817 -34.3222 48.9689 -27.1489 52.5437L-3.91497 64.1225C3.2583 67.6973 11.9176 66.2467 17.5342 60.5292L35.7259 42.0105C41.3424 36.293 42.6386 27.6091 38.9366 20.5007L26.9458 -2.52329C23.2437 -9.63173 15.3855 -13.5479 7.48095 -12.2237L-18.1215 -7.93457C-26.026 -6.61034 -32.1789 -0.346874 -33.3621 7.57999L-37.1945 33.2548Z" stroke="#ED1C24" stroke-opacity="0.02" stroke-width="3"/>
<path opacity="0.151515" d="M-37.5335 33.9121C-38.5782 41.8584 -34.3873 49.5737 -27.1527 53.0228L-3.81312 64.15C3.42144 67.5991 12.0542 65.9975 17.5701 60.1829L35.365 41.4241C40.8809 35.6095 42.0254 26.9044 38.1998 19.8616L25.8581 -2.85921C22.0326 -9.90197 14.1072 -13.6804 6.22698 -12.2185L-19.1956 -7.50192C-27.0758 -6.03994 -33.1184 0.329951 -34.1631 8.27626L-37.5335 33.9121Z" stroke="#ED1C24" stroke-opacity="0.02" stroke-width="3"/>
<path opacity="0.161616" d="M-37.8623 34.5646C-38.7681 42.5279 -34.4433 50.1689 -27.1496 53.4912L-3.71295 64.1668C3.5807 67.4891 12.1841 65.7371 17.5977 59.8271L34.9931 40.8364C40.4067 34.9264 41.3991 26.2026 37.4512 19.2277L24.7655 -3.18476C20.8176 -10.1597 12.8275 -13.7992 4.97397 -12.1999L-20.2617 -7.06095C-28.1152 -5.46166 -34.0457 1.01271 -34.9515 8.97604L-37.8623 34.5646Z" stroke="#ED1C24" stroke-opacity="0.02" stroke-width="3"/>
<path opacity="0.171717" d="M-38.1811 35.2119C-38.9478 43.1899 -34.4903 50.7542 -27.1398 53.9487L-3.61465 64.1727C3.73587 67.3672 12.3074 65.4653 17.617 59.4617L34.6103 40.2474C39.9199 34.2438 40.7598 25.504 36.6908 18.5991L23.6681 -3.5C19.5991 -10.4049 11.5467 -13.9045 3.72227 -12.1684L-21.3194 -6.61207C-29.1438 -4.87597 -34.9605 1.70093 -35.7272 9.67886L-38.1811 35.2119Z" stroke="#ED1C24" stroke-opacity="0.02" stroke-width="3"/>
<path opacity="0.181818" d="M-38.4902 35.8535C-39.1176 43.8436 -34.5287 51.3289 -27.1236 54.3947L-3.51864 64.1672C3.88651 67.2329 12.4236 65.1817 17.6276 59.0864L34.2161 39.6566C39.4201 33.5613 40.1074 24.8082 35.9185 17.9753L22.5659 -3.80544C18.377 -10.6383 10.2647 -13.9968 2.47178 -12.1244L-22.3691 -6.15591C-30.162 -4.28351 -35.863 2.39389 -36.4904 10.384L-38.4902 35.8535Z" stroke="#ED1C24" stroke-opacity="0.02" stroke-width="3"/>
<path opacity="0.191919" d="M-38.79 36.4895C-39.2779 44.4893 -34.559 51.8935 -27.1015 54.8295L-3.42531 64.1509C4.03222 67.0869 12.5322 64.8871 17.629 58.7018L33.8105 39.0649C38.9074 32.8796 39.4418 24.1159 35.1343 17.3572L21.4588 -4.10049C17.1513 -10.8592 8.98165 -14.0757 1.22262 -12.0675L-23.4108 -5.69217C-31.1698 -3.68405 -36.7534 3.09183 -37.2412 11.0917L-38.79 36.4895Z" stroke="#ED1C24" stroke-opacity="0.02" stroke-width="3"/>
<path opacity="0.20202" d="M-39.0802 37.1198C-39.4284 45.1269 -34.581 52.4476 -27.0734 55.253L-3.33444 64.1238C4.17319 66.9292 12.6335 64.5813 17.6216 58.3081L33.3939 38.4722C38.382 32.199 38.7634 23.4272 34.3386 16.7447L20.3475 -4.38526C15.9227 -11.0678 7.69815 -14.1411 -0.0246638 -11.9979L-24.444 -5.2211C-32.1668 -3.07788 -37.6312 3.79442 -37.9794 11.8015L-39.0802 37.1198Z" stroke="#ED1C24" stroke-opacity="0.02" stroke-width="3"/>
<path opacity="0.212121" d="M-39.3604 37.7443C-39.5687 45.7563 -34.5943 52.9912 -27.0389 55.6652L-3.24572 64.086C4.30974 66.76 12.7278 64.2648 17.6056 57.9055L32.9668 37.879C37.8446 31.5196 38.0729 22.7426 33.5321 16.1383L19.2327 -4.65955C14.6919 -11.2638 6.41497 -14.1932 -1.26925 -11.9155L-25.4679 -4.74278C-33.1522 -2.4651 -38.4959 4.50152 -38.7042 12.5135L-39.3604 37.7443Z" stroke="#ED1C24" stroke-opacity="0.02" stroke-width="3"/>
<path opacity="0.222222" d="M-39.6322 38.3624C-39.7007 46.3768 -34.6008 53.5238 -26.9998 56.0656L-3.16082 64.0372C4.44016 66.5789 12.8133 63.9372 17.5795 57.4937L32.5276 37.2848C37.2938 30.8413 37.3688 22.0616 32.7135 15.5376L18.1129 -4.92383C13.4576 -11.4479 5.1308 -14.2323 -2.51251 -11.8209L-26.4843 -4.25785C-34.1276 -1.8464 -39.3488 5.21242 -39.4173 13.2268L-39.6322 38.3624Z" stroke="#ED1C24" stroke-opacity="0.02" stroke-width="3"/>
<path opacity="0.232323" d="M-39.8939 38.9743C-39.8225 46.9886 -34.5987 54.0456 -26.9545 56.4543L-3.07809 63.9777C4.56608 66.3864 12.8919 63.599 17.5449 57.0732L32.0783 36.6903C36.7313 30.1646 36.6531 21.3849 31.8846 14.9431L16.9904 -5.17766C12.2219 -11.6195 3.84777 -14.2582 -3.75229 -11.7137L-27.4909 -3.76611C-35.0909 -1.22164 -40.1882 5.92723 -40.1168 13.9416L-39.8939 38.9743Z" stroke="#ED1C24" stroke-opacity="0.02" stroke-width="3"/>
<path opacity="0.242424" d="M-40.1465 39.5802C-39.9353 47.5921 -34.5891 54.5567 -26.904 56.8316L-2.99858 63.9081C4.68647 66.183 12.9623 63.2507 17.5007 56.6447L31.618 36.096C36.1564 29.4901 35.9249 20.7131 31.0448 14.3555L15.8643 -5.42068C10.9841 -11.7783 2.56519 -14.2704 -4.9893 -11.5937L-28.4886 -3.26738C-36.0431 -0.59066 -41.0149 6.64608 -40.8036 14.658L-40.1465 39.5802Z" stroke="#ED1C24" stroke-opacity="0.02" stroke-width="3"/>
<path opacity="0.252525" d="M-40.3909 40.1792C-40.0399 48.1862 -34.573 55.0566 -26.8494 57.197L-2.9232 63.8277C4.80038 65.9681 13.0238 62.8918 17.4462 56.2077L31.146 35.5015C35.5684 28.8174 35.1838 20.0458 30.1934 13.7743L14.7341 -5.65344C9.74374 -11.9249 1.28263 -14.2697 -6.224 -11.4616L-29.4781 -2.76245C-36.9847 0.0457092 -41.8294 7.36812 -41.4784 15.3751L-40.3909 40.1792Z" stroke="#ED1C24" stroke-opacity="0.02" stroke-width="3"/>
<path opacity="0.262626" d="M-40.6263 40.772C-40.1356 48.7716 -34.5496 55.5455 -26.7898 57.5508L-2.85108 63.7372C4.90868 65.7425 13.0772 62.5231 17.3822 55.7628L30.6633 34.9075C34.9684 28.1472 34.4308 19.3836 29.3317 13.2002L13.6011 -5.87548C8.50203 -12.0589 0.00128261 -14.2557 -7.45519 -11.317L-30.4583 -2.25101C-37.9147 0.687721 -42.6309 8.09357 -42.1402 16.0932L-40.6263 40.772Z" stroke="#ED1C24" stroke-opacity="0.02" stroke-width="3"/>
<path opacity="0.272727" d="M-40.8536 41.3571C-40.2234 49.347 -34.52 56.0223 -26.7264 57.8919L-2.78343 63.6356C5.01014 65.5051 13.1212 62.1437 17.3077 55.3093L30.169 34.3131C34.3554 27.4787 33.665 18.7258 28.4587 12.6323L12.4645 -6.0877C7.25825 -12.1812 -1.27955 -14.2293 -8.68361 -11.1609L-31.4299 -1.73423C-38.834 1.33419 -43.4202 8.82122 -42.7899 16.8111L-40.8536 41.3571Z" stroke="#ED1C24" stroke-opacity="0.02" stroke-width="3"/>
<path opacity="0.282828" d="M-41.072 41.9362C-40.3024 49.9138 -34.4834 56.4886 -26.6583 58.2219L-2.71914 63.5246C5.10587 65.2579 13.157 61.7554 17.2236 54.849L29.6643 33.72C33.7308 26.8136 32.8877 18.0742 27.5759 12.0725L11.3255 -6.28854C6.01376 -12.2902 -2.55847 -14.189 -9.90784 -10.9918L-32.3919 -1.21069C-39.7413 1.98649 -44.1961 9.5524 -43.4265 17.5301L-41.072 41.9362Z" stroke="#ED1C24" stroke-opacity="0.02" stroke-width="3"/>
<path opacity="0.292929" d="M-41.2814 42.5079C-40.3727 50.4709 -34.4398 56.9432 -26.5857 58.5396L-2.65844 63.4032C5.19563 64.9996 13.1845 61.3572 17.1298 54.3809L29.1493 33.1276C33.0947 26.1512 32.0992 17.4278 26.6835 11.5197L10.1846 -6.47909C4.76889 -12.3872 -3.83519 -14.1361 -11.1276 -10.8111L-33.344 -0.681716C-40.6364 2.64324 -44.9586 10.2858 -44.0498 18.2488L-41.2814 42.5079Z" stroke="#ED1C24" stroke-opacity="0.02" stroke-width="3"/>
<path opacity="0.30303" d="M-41.4834 43.0728C-40.4358 51.0187 -34.3909 57.3864 -26.5102 58.8455L-2.60275 63.2721C5.27798 64.7312 13.202 60.9499 17.025 53.9057L28.6227 32.5363C32.4457 25.4922 31.2981 16.7875 25.7801 10.9748L9.04043 -6.65873C3.52244 -12.4714 -5.11084 -14.0699 -12.3442 -10.6181L-34.2875 -0.146836C-41.5208 3.30488 -45.7089 11.0217 -44.6613 18.9676L-41.4834 43.0728Z" stroke="#ED1C24" stroke-opacity="0.02" stroke-width="3"/>
<path opacity="0.313131" d="M-41.6772 43.6301C-40.4911 51.5565 -34.336 57.8178 -26.431 59.1392L-2.5514 63.1308C5.35361 64.4522 13.2105 60.5332 16.9099 53.4234L28.0854 31.946C31.7849 24.8362 30.4856 16.1529 24.867 10.4374L7.89422 -6.82795C2.27562 -12.5434 -6.38425 -13.991 -13.5562 -10.4136L-35.2215 0.393201C-42.3934 3.97063 -46.4462 11.7593 -45.2601 19.6858L-41.6772 43.6301Z" stroke="#ED1C24" stroke-opacity="0.02" stroke-width="3"/>
<path opacity="0.323232" d="M-41.8629 44.1799C-40.5387 52.0845 -34.2752 58.2373 -26.3483 59.4205L-2.50441 62.9796C5.42246 64.1629 13.2097 60.1073 16.7845 52.934L27.5376 31.3569C31.1125 24.1837 29.6618 15.5243 23.9443 9.9078L6.74613 -6.98668C1.02864 -12.6032 -7.65517 -13.8994 -14.7636 -10.1974L-36.1457 0.938367C-43.2542 4.64042 -47.1704 12.4987 -45.8462 20.4032L-41.8629 44.1799Z" stroke="#ED1C24" stroke-opacity="0.02" stroke-width="3"/>
<path opacity="0.333333" d="M-42.0406 44.7225C-40.5786 52.6028 -34.2087 58.6454 -26.2624 59.6901L-2.46203 62.8191C5.48428 63.8638 13.1996 59.6729 16.6487 52.4384L26.9793 30.7698C30.4284 23.5352 28.8268 14.9025 23.0122 9.38659L5.5964 -7.13437C-0.218238 -12.6503 -8.92335 -13.7947 -15.9661 -9.96918L-37.0602 1.48892C-44.103 5.31447 -47.8815 13.2399 -46.4195 21.1201L-42.0406 44.7225Z" stroke="#ED1C24" stroke-opacity="0.02" stroke-width="3"/>
<path opacity="0.343434" d="M-42.2114 45.2574C-40.6121 53.1109 -34.1377 59.0414 -26.1744 59.9472L-2.42515 62.6488C5.53818 63.5546 13.1791 59.2298 16.5014 51.9361L26.4097 30.1841C29.732 22.8904 27.98 14.287 22.07 8.87341L4.44437 -7.27163C-1.46565 -12.6852 -10.1894 -13.6776 -17.1643 -9.72968L-37.9658 2.04417C-44.9407 5.99205 -48.5803 13.9822 -46.981 21.8357L-42.2114 45.2574Z" stroke="#ED1C24" stroke-opacity="0.02" stroke-width="3"/>
<path opacity="0.353535" d="M-42.374 45.7843C-40.6379 53.6087 -34.061 59.4254 -26.0831 60.1921L-2.39269 62.4689C5.58524 63.2356 13.1496 58.7781 16.3441 51.4275L25.8302 29.6002C29.0247 22.2497 27.1228 13.6781 21.1192 8.36854L3.29158 -7.39829C-2.71202 -12.7079 -11.4518 -13.5479 -18.3567 -9.47885L-38.8609 2.60402C-45.7659 6.67303 -49.2655 14.7255 -47.5293 22.5499L-42.374 45.7843Z" stroke="#ED1C24" stroke-opacity="0.02" stroke-width="3"/>
<path opacity="0.363636" d="M-42.5298 46.3036C-40.6574 54.0965 -33.98 59.7974 -25.9899 60.4248L-2.36592 62.2798C5.62417 62.9072 13.1095 58.3183 16.1753 50.9131L25.2397 29.0186C28.3054 21.6134 26.2542 13.0764 20.1589 7.87233L2.13699 -7.5142C-3.95837 -12.7182 -12.7114 -13.4055 -19.5443 -9.21662L-39.7469 3.16852C-46.5797 7.35741 -49.9383 15.4697 -48.0659 23.2626L-42.5298 46.3036Z" stroke="#ED1C24" stroke-opacity="0.02" stroke-width="3"/>
<path opacity="0.373737" d="M-42.6788 46.8145C-40.6707 54.5736 -33.8948 60.1571 -25.8949 60.645L-2.34486 62.0811C5.65497 62.5689 13.0591 57.8501 15.9952 50.3926L24.6384 28.4389C27.5744 20.9813 25.3745 12.4814 19.1893 7.38454L0.981007 -7.6197C-5.20424 -12.7166 -13.968 -13.251 -20.7267 -8.94348L-40.6233 3.73707C-47.382 8.04458 -50.5984 16.2142 -48.5903 23.9733L-42.6788 46.8145Z" stroke="#ED1C24" stroke-opacity="0.02" stroke-width="3"/>
<path opacity="0.383838" d="M-42.8206 47.3175C-40.6774 55.0403 -33.805 60.5048 -25.7979 60.8529L-2.32907 61.8734C5.67804 62.2215 12.9987 57.3742 15.8042 49.8665L24.0269 27.8617C26.8324 20.354 24.4845 11.8937 18.2112 6.90562L-0.175688 -7.71458C-6.44895 -12.7027 -15.2207 -13.0841 -21.9032 -8.6593L-41.4897 4.30981C-48.1722 8.73461 -51.2456 16.9592 -49.1024 24.682L-42.8206 47.3175Z" stroke="#ED1C24" stroke-opacity="0.02" stroke-width="3"/>
<path opacity="0.393939" d="M-42.9544 47.8128C-40.6768 55.497 -33.7101 60.8407 -25.6982 61.0491L-2.31789 61.6571C5.69408 61.8654 12.929 56.8911 15.603 49.3356L23.4062 27.2875C26.0802 19.7321 23.585 11.3141 17.2257 6.43618L-1.33198 -7.79829C-7.69134 -12.6762 -16.4684 -12.9044 -23.0727 -8.36368L-42.3451 4.88702C-48.9494 9.42778 -51.8788 17.7047 -49.6011 25.3889L-42.9544 47.8128Z" stroke="#ED1C24" stroke-opacity="0.02" stroke-width="3"/>
<path opacity="0.40404" d="M-43.0827 48.2995C-40.6712 55.9428 -33.6124 61.1641 -25.598 61.2326L-2.31352 61.4316C5.70086 61.5001 12.8479 56.4002 15.3896 48.7993L22.7742 26.7159C25.3159 19.1149 22.6742 10.7417 16.2307 5.97559L-2.4899 -7.87169C-8.93342 -12.6378 -17.7131 -12.7129 -24.2372 -8.05756L-43.1917 5.46773C-49.7157 10.1231 -52.5002 18.4499 -50.0887 26.0932L-43.0827 48.2995Z" stroke="#ED1C24" stroke-opacity="0.02" stroke-width="3"/>
<path opacity="0.414141" d="M-43.2042 48.7774C-40.6597 56.3775 -33.5108 61.4748 -25.4965 61.4034L-2.31491 61.1969C5.69946 61.1255 12.7564 55.9017 15.1651 48.2575L22.1322 26.1467C24.5409 18.5026 21.7535 10.1767 15.2277 5.52377L-3.6479 -7.93496C-10.1736 -12.5879 -18.9533 -12.5097 -25.3951 -7.74127L-44.028 6.05157C-50.4698 10.82 -53.1085 19.1942 -50.5641 26.7942L-43.2042 48.7774Z" stroke="#ED1C24" stroke-opacity="0.02" stroke-width="3"/>
<path opacity="0.424242" d="M-43.3196 49.2473C-40.6428 56.8018 -33.4061 61.7736 -25.3942 61.5623L-2.32257 60.954C5.68933 60.7428 12.654 55.3966 14.9289 47.7115L21.4799 25.5811C23.7548 17.8961 20.8225 9.62021 14.2166 5.08183L-4.80634 -7.9872C-11.4123 -12.5256 -20.1892 -12.2942 -26.5468 -7.41398L-44.8546 6.63933C-51.2122 11.5195 -53.7044 19.9384 -51.0276 27.4929L-43.3196 49.2473Z" stroke="#ED1C24" stroke-opacity="0.02" stroke-width="3"/>
<path opacity="0.434343" d="M-43.4287 49.7089C-40.6205 57.2155 -33.2981 62.0602 -25.2911 61.7092L-2.33638 60.7028C5.67061 60.3518 12.541 54.8848 14.6814 47.1612L20.8177 25.019C22.9581 17.2954 19.8818 9.07195 13.1977 4.64955L-5.96462 -8.02873C-12.6488 -12.4511 -21.4204 -12.0666 -27.6918 -7.07619L-45.6711 7.23045C-51.9425 12.2208 -54.2874 20.682 -51.4792 28.1886L-43.4287 49.7089Z" stroke="#ED1C24" stroke-opacity="0.02" stroke-width="3"/>
<path opacity="0.444444" d="M-43.5318 50.1612C-40.5931 57.6176 -33.1872 62.3338 -25.1876 61.8431L-2.35653 60.4425C5.64311 59.9518 12.417 54.3658 14.4223 46.6061L20.1455 24.4596C22.1508 16.6999 18.9314 8.53138 12.1712 4.22631L-7.12277 -8.06038C-13.8831 -12.3654 -22.6466 -11.8279 -28.83 -6.72878L-46.4775 7.82403C-52.6609 12.9231 -54.8577 21.4239 -51.919 28.8803L-43.5318 50.1612Z" stroke="#ED1C24" stroke-opacity="0.02" stroke-width="3"/>
<path opacity="0.454545" d="M-43.6293 50.6049C-40.5608 58.0089 -33.0738 62.5952 -25.084 61.9649L-2.38337 60.1742C5.60649 59.5439 12.2819 53.8406 14.1514 46.047L19.4633 23.9041C21.3328 16.1105 17.9714 7.99943 11.137 3.813L-8.28068 -8.08137C-15.1151 -12.2678 -23.8679 -11.5774 -29.9614 -6.37114L-47.274 8.42063C-53.3675 13.6269 -55.4156 22.1647 -52.3472 29.5687L-43.6293 50.6049Z" stroke="#ED1C24" stroke-opacity="0.02" stroke-width="3"/>
<path opacity="0.464646" d="M-43.7206 51.0403C-40.5234 58.3897 -32.9575 62.8445 -24.9798 62.0749L-2.41628 59.8982C5.56136 59.1286 12.1362 53.3096 13.8694 45.4845L18.7718 23.3527C20.505 15.5277 17.0026 7.47653 10.0961 3.41001L-9.43758 -8.09148C-16.344 -12.158 -25.0834 -11.3149 -31.0851 -6.00312L-48.0599 9.02039C-54.0616 14.3322 -55.9604 22.9044 -52.7633 30.2538L-43.7206 51.0403Z" stroke="#ED1C24" stroke-opacity="0.02" stroke-width="3"/>
<path opacity="0.474747" d="M-43.8063 51.4669C-40.4813 58.7593 -32.8388 63.0814 -24.8758 62.1727L-2.45589 59.6142C5.50711 58.7055 11.9794 52.7726 13.5758 44.9185L18.0706 22.8053C19.6671 14.9512 16.0246 6.96242 9.04831 3.01705L-10.5936 -8.09114C-17.57 -12.0365 -26.2934 -11.041 -32.2014 -5.6253L-48.8357 9.62267C-54.7437 15.0384 -56.4926 23.6425 -53.1677 30.9349L-43.8063 51.4669Z" stroke="#ED1C24" stroke-opacity="0.02" stroke-width="3"/>
<path opacity="0.484848" d="M-43.8871 51.8844C-40.4354 59.1177 -32.7186 63.3057 -24.7727 62.2582L-2.50277 59.3222C5.44316 58.2746 11.8109 52.2297 13.27 44.349L17.3595 22.2618C18.8186 14.3811 15.0373 6.45703 7.99318 2.63402L-11.7493 -8.08064C-18.7934 -11.9036 -27.4981 -10.7561 -33.3107 -5.23806L-49.6017 10.2271C-55.4144 15.7451 -57.0129 24.3784 -53.5611 31.6117L-43.8871 51.8844Z" stroke="#ED1C24" stroke-opacity="0.02" stroke-width="3"/>
<path opacity="0.494949" d="M-43.9623 52.2932C-40.3849 59.4651 -32.5962 63.5179 -24.6697 62.3318L-2.55619 59.0229C5.37025 57.8368 11.6315 51.6816 12.9529 43.7766L16.6393 21.7229C17.9607 13.8179 14.0417 5.96105 6.93188 2.26156L-12.9033 -8.05943C-20.0131 -11.7589 -28.6964 -10.4596 -34.4119 -4.841L-50.3572 10.834C-56.0726 16.4526 -57.5202 25.1125 -53.9428 32.2845L-43.9623 52.2932Z" stroke="#ED1C24" stroke-opacity="0.02" stroke-width="3"/>
<path opacity="0.50505" d="M-44.0333 52.6917C-40.3312 59.8002 -32.473 63.7164 -24.5684 62.3921L-2.61744 58.7147C5.28709 57.3905 11.44 51.127 12.6232 43.2002L15.909 21.1872C17.0922 13.2603 13.0366 5.47305 5.86337 1.89821L-14.0569 -8.02918C-21.2302 -11.604 -29.8895 -10.1533 -35.506 -4.43585L-51.1032 11.4417C-56.7198 17.1592 -58.016 25.843 -54.3139 32.9515L-44.0333 52.6917Z" stroke="#ED1C24" stroke-opacity="0.02" stroke-width="3"/>
<path opacity="0.515152" d="M-44.0988 53.0819C-40.2732 60.1247 -32.3478 63.9032 -24.4676 62.4412L-2.68528 58.4C5.19493 56.938 11.2376 50.5681 12.2823 42.6218L15.17 20.6567C16.2147 12.7104 12.0238 4.99517 4.78926 1.54606L-15.2084 -7.98791C-22.443 -11.437 -31.0757 -9.83542 -36.5916 -4.02077L-51.8385 12.052C-57.3544 17.8666 -58.4989 26.5717 -54.6733 33.6145L-44.0988 53.0819Z" stroke="#ED1C24" stroke-opacity="0.02" stroke-width="3"/>
<path opacity="0.525253" d="M-44.1594 53.4633C-40.2115 60.4382 -32.2214 64.0778 -24.3679 62.4785L-2.76016 58.0783C5.09334 56.479 11.0239 50.0046 11.9297 42.0413L14.422 20.1314C15.3279 12.168 11.003 4.52709 3.70937 1.20476L-16.358 -7.93611C-23.6517 -11.2584 -32.2551 -9.50642 -37.6687 -3.5964L-52.5634 12.6641C-57.9769 18.5742 -58.9693 27.2979 -55.0214 34.2728L-44.1594 53.4633Z" stroke="#ED1C24" stroke-opacity="0.02" stroke-width="3"/>
<path opacity="0.535354" d="M-44.2164 53.8346C-40.1474 60.7396 -32.095 64.2392 -24.2706 62.5031L-2.84333 57.7487C4.98106 56.0126 10.7977 49.4357 11.5644 41.4578L13.6641 19.6101C14.4309 11.6321 9.9733 4.06783 2.62277 0.87331L-17.5068 -7.87495C-24.8573 -11.0695 -33.4289 -9.16758 -38.7385 -3.16398L-53.2789 13.277C-58.5886 19.2806 -59.4285 28.0204 -55.3595 34.9253L-44.2164 53.8346Z" stroke="#ED1C24" stroke-opacity="0.02" stroke-width="3"/>
<path opacity="0.545455" d="M-44.2681 54.1976C-40.0792 61.0305 -31.9669 64.389 -24.174 62.5166L-2.93298 57.413C4.85992 55.5406 10.5609 48.8632 11.1883 40.8731L12.8983 19.0946C13.5257 11.1045 8.93681 3.61916 1.53165 0.553401L-18.6525 -7.80288C-26.0577 -10.8686 -34.5947 -8.81744 -39.7987 -2.72208L-53.9833 13.8919C-59.1873 19.9873 -59.8746 28.7404 -55.6857 35.5733L-44.2681 54.1976Z" stroke="#ED1C24" stroke-opacity="0.02" stroke-width="3"/>
<path opacity="0.555556" d="M-44.3158 54.5511C-40.0083 61.3098 -31.8386 64.5262 -24.0796 62.5181L-3.03048 57.0704C4.72855 55.0623 10.3121 48.2864 10.8 40.2866L12.1234 18.5842C12.6113 10.5844 7.89242 3.18024 0.434887 0.244197L-19.7963 -7.72087C-27.2538 -10.6569 -35.7538 -8.45705 -40.8507 -2.2718L-54.6777 14.5079C-59.7745 20.6931 -60.309 29.4569 -56.0015 36.2156L-44.3158 54.5511Z" stroke="#ED1C24" stroke-opacity="0.02" stroke-width="3"/>
<path opacity="0.565657" d="M-44.3596 54.8945C-39.9348 61.577 -31.7103 64.6504 -23.9875 62.5072L-3.1357 56.7204C4.58711 54.5772 10.0516 47.7049 10.3997 39.6978L11.3397 18.0783C11.6879 10.0712 6.84055 2.75055 -0.667092 -0.0548993L-20.9379 -7.62968C-28.4455 -10.4351 -36.9058 -8.08724 -41.8939 -1.81398L-55.362 15.124C-60.3501 21.3972 -60.7315 30.169 -56.3067 36.8515L-44.3596 54.8945Z" stroke="#ED1C24" stroke-opacity="0.02" stroke-width="3"/>
<path opacity="0.575758" d="M-44.4005 55.2288C-39.8597 61.8331 -31.5828 64.7624 -23.8986 62.4847L-3.24955 56.3641C4.43468 54.0865 9.77835 47.1198 9.98671 39.1079L10.5466 17.5781C10.7549 9.56615 5.78059 2.33122 -1.77487 -0.342779L-22.0779 -7.52833C-29.6333 -10.2023 -38.0513 -7.70714 -42.9292 -1.34778L-56.037 15.7411C-60.9149 22.1004 -61.1431 30.8774 -56.6024 37.4817L-44.4005 55.2288Z" stroke="#ED1C24" stroke-opacity="0.02" stroke-width="3"/>
<path opacity="0.585859" d="M-44.4368 55.5533C-39.7815 62.0774 -31.4547 64.8618 -23.8114 62.4504L-3.37044 56.0013C4.27286 53.5899 9.49415 46.5311 9.56265 38.5167L9.74583 17.0833C9.81432 9.06887 4.71445 1.92184 -2.88653 -0.619884L-23.2143 -7.41738C-30.8153 -9.9591 -39.1884 -7.31739 -43.9546 -0.873873L-56.701 16.3584C-61.4672 22.8019 -61.5422 31.5817 -56.8869 38.1057L-44.4368 55.5533Z" stroke="#ED1C24" stroke-opacity="0.02" stroke-width="3"/>
<path opacity="0.59596" d="M-44.4697 55.8692C-39.7013 62.311 -31.3271 64.9497 -23.7271 62.4052L-3.49928 55.633C4.10078 53.0886 9.19805 45.9397 9.12667 37.9253L8.93668 16.5948C8.86529 8.58047 3.64146 1.52355 -4.00272 -0.885134L-24.3479 -7.29592C-31.9921 -9.7046 -40.3179 -6.91716 -44.9709 -0.39144L-57.3549 16.977C-62.0079 23.5027 -61.9297 32.2823 -57.1612 38.7241L-44.4697 55.8692Z" stroke="#ED1C24" stroke-opacity="0.02" stroke-width="3"/>
<path opacity="0.606061" d="M-44.4992 56.1749C-39.619 62.5325 -31.2001 65.0246 -23.6456 62.3479L-3.63608 55.2581C3.91841 52.5814 8.89016 45.3446 8.67892 37.3327L8.11939 16.1117C7.90814 8.09975 2.56195 1.13506 -5.1231 -1.13985L-25.4785 -7.16539C-33.1635 -9.4403 -41.4394 -6.50797 -45.9778 0.0979566L-57.9985 17.5951C-62.5369 24.201 -62.3055 32.978 -57.4253 39.3356L-44.4992 56.1749Z" stroke="#ED1C24" stroke-opacity="0.02" stroke-width="3"/>
<path opacity="0.616162" d="M-44.5263 56.471C-39.5359 62.7424 -31.0748 65.0872 -23.5681 62.2791L-3.78168 54.8772C3.72495 52.069 8.56963 44.7466 8.2186 36.7396L7.2933 15.6342C6.94226 7.62725 1.47533 0.756936 -6.24826 -1.3835L-26.6066 -7.02542C-34.3302 -9.16585 -42.5536 -6.08954 -46.976 0.59459L-58.6328 18.2131C-63.0552 24.8972 -62.6707 33.6688 -57.6803 39.9402L-44.5263 56.471Z" stroke="#ED1C24" stroke-opacity="0.02" stroke-width="3"/>
<path opacity="0.626263" d="M-44.5504 56.7572C-39.4513 62.9406 -30.9506 65.1374 -23.4941 62.1986L-3.9355 54.4902C3.52097 51.5515 8.23714 44.1457 7.74642 36.146L6.45923 15.1627C5.9685 7.16302 0.382499 0.389143 -7.37726 -1.61618L-27.7314 -6.87619C-35.4911 -8.88151 -43.6596 -5.66215 -47.9647 1.09814L-59.257 18.8306C-63.5621 25.5909 -63.0245 34.3545 -57.9255 40.5379L-44.5504 56.7572Z" stroke="#ED1C24" stroke-opacity="0.02" stroke-width="3"/>
<path opacity="0.636364" d="M-44.5716 57.0345C-39.3653 63.1279 -30.8275 65.176 -23.4235 62.1076L-4.09741 54.0984C3.30663 51.03 7.89282 43.543 7.26256 35.5531L5.61743 14.6979C4.98716 6.70806 -0.716197 0.0327309 -8.50978 -1.83686L-28.8526 -6.71686C-36.6462 -8.58644 -44.7572 -5.22501 -48.9437 1.60939L-59.8711 19.4486C-64.0575 26.283 -63.3671 35.0358 -58.1609 41.1293L-44.5716 57.0345Z" stroke="#ED1C24" stroke-opacity="0.02" stroke-width="3"/>
<path opacity="0.646465" d="M-44.5895 57.302C-39.2777 63.3037 -30.7055 65.2025 -23.3561 62.0054L-4.26704 53.7011C3.08232 50.5039 7.53717 42.938 6.76755 34.9604L4.76858 14.2395C3.99897 6.2618 -1.82003 -0.312993 -9.64505 -2.04628L-29.9695 -6.54826C-37.7945 -8.28154 -45.8457 -4.77907 -49.9122 2.12735L-60.4745 20.0659C-64.541 26.9723 -63.6979 35.7118 -58.3861 41.7134L-44.5895 57.302Z" stroke="#ED1C24" stroke-opacity="0.02" stroke-width="3"/>
<path opacity="0.656566" d="M-44.6056 57.5597C-39.1899 63.4677 -30.5859 65.2166 -23.2934 61.8917L-4.44576 53.2982C2.84669 49.9733 7.16878 42.3307 6.26007 34.3677L3.91143 13.787C3.0027 5.82404 -2.93015 -0.648181 -10.7842 -2.24464L-31.0834 -6.37074C-38.9375 -7.96719 -46.9263 -4.32473 -50.8716 2.6516L-61.0686 20.6822C-65.0139 27.6586 -64.0184 36.382 -58.6027 42.29L-44.6056 57.5597Z" stroke="#ED1C24" stroke-opacity="0.02" stroke-width="3"/>
<path opacity="0.666667" d="M-44.6194 57.8078C-39.1015 63.6205 -30.4682 65.2189 -23.2348 61.7672L-4.63289 52.8904C2.60041 49.4387 6.78849 41.7219 5.74094 33.776L3.04692 13.3414C1.99936 5.39549 -4.04555 -0.972223 -11.9263 -2.43136L-32.1932 -6.18384C-40.074 -7.64298 -47.998 -3.86165 -51.821 3.18248L-61.6527 21.2979C-65.4757 28.342 -64.3281 37.0467 -58.8101 42.8594L-44.6194 57.8078Z" stroke="#ED1C24" stroke-opacity="0.02" stroke-width="3"/>
<path opacity="0.676768" d="M-44.631 58.0464C-39.0124 63.7619 -30.3526 65.2094 -23.1806 61.632L-4.8284 52.4778C2.34357 48.9004 6.39633 41.1117 5.21025 33.1852L2.17523 12.9024C0.989152 4.976 -5.16597 -1.28523 -13.071 -2.60661L-33.2989 -5.98786C-41.2039 -7.30924 -49.0608 -3.39019 -52.7602 3.71959L-62.2268 21.9126C-65.9263 29.0224 -64.6269 37.7058 -59.0083 43.4212L-44.631 58.0464Z" stroke="#ED1C24" stroke-opacity="0.02" stroke-width="3"/>
<path opacity="0.686869" d="M-44.6408 58.2749C-38.9234 63.8914 -30.2395 65.1877 -23.1311 61.4856L-5.03268 52.06C2.07576 48.358 5.99197 40.4997 4.66775 32.5952L1.2962 12.4699C-0.0280342 4.56539 -6.2915 -1.58748 -14.2184 -2.77069L-34.4005 -5.78321C-42.3274 -6.96643 -50.1146 -2.91086 -53.6894 4.2624L-62.7911 22.5258C-66.366 29.6991 -64.9153 38.3584 -59.1978 43.975L-44.6408 58.2749Z" stroke="#ED1C24" stroke-opacity="0.02" stroke-width="3"/>
<path opacity="0.69697" d="M-44.6488 58.4942C-38.8342 64.0101 -30.1291 65.1546 -23.0863 61.329L-5.24553 51.6381C1.79722 47.8125 5.57569 39.8871 4.1137 32.0069L0.410193 12.0447C-1.05179 4.16445 -7.42167 -1.87816 -15.368 -2.92286L-35.4977 -5.56929C-43.444 -6.61398 -51.1592 -2.42312 -54.6084 4.81144L-63.3457 23.1381C-66.7948 30.3727 -65.1932 39.0054 -59.3785 44.5213L-44.6488 58.4942Z" stroke="#ED1C24" stroke-opacity="0.02" stroke-width="3"/>
<path opacity="0.707071" d="M-44.656 58.7028C-38.746 64.1164 -30.0223 65.1088 -23.0473 61.1609L-5.46792 51.2108C1.507 47.2629 5.14657 39.2727 3.54728 31.4192L-0.483521 11.6255C-2.08281 3.77196 -8.55719 -2.15857 -16.5205 -3.06442L-36.5911 -5.34751C-44.5544 -6.25336 -52.1954 -1.9285 -55.5177 5.36515L-63.8912 23.7479C-67.2136 31.0416 -65.4616 39.645 -59.5515 45.0586L-44.656 58.7028Z" stroke="#ED1C24" stroke-opacity="0.02" stroke-width="3"/>
<path opacity="0.717172" d="M-44.661 58.9025C-38.6574 64.2121 -29.9176 65.0521 -23.0127 60.9831L-5.69814 50.7798C1.20681 46.7108 4.70638 38.6584 2.97027 30.834L-1.3831 11.2139C-3.11921 3.38954 -9.69609 -2.42708 -17.674 -3.19382L-37.6791 -5.11644C-45.657 -5.88318 -53.2213 -1.42562 -56.4158 5.92491L-64.4263 24.3567C-67.6208 31.7072 -65.7189 40.2788 -59.7153 45.5884L-44.661 58.9025Z" stroke="#ED1C24" stroke-opacity="0.02" stroke-width="3"/>
<path opacity="0.727273" d="M-44.6654 59.0922C-38.57 64.2962 -29.8169 64.9835 -22.9841 60.7947L-5.93795 50.3446C0.894932 46.1557 4.25344 38.0434 2.38105 30.2505L-2.29005 10.8094C-4.16245 3.01651 -10.8399 -2.68446 -18.8299 -3.31184L-38.7629 -4.87698C-46.753 -5.50437 -54.2384 -0.915471 -57.3042 6.48968L-64.9523 24.9634C-68.0181 32.3686 -65.9669 40.9057 -59.8715 46.1097L-44.6654 59.0922Z" stroke="#ED1C24" stroke-opacity="0.02" stroke-width="3"/>
<path opacity="0.737374" d="M-44.6684 59.2722C-38.4831 64.3691 -29.7194 64.9035 -22.9607 60.596L-6.18625 49.9053C0.572494 45.5977 3.78891 37.4281 1.78079 29.669L-3.20313 10.412C-5.21125 2.65297 -11.9871 -2.93058 -19.987 -3.41842L-39.8416 -4.62918C-47.8414 -5.11703 -55.2456 -0.398189 -58.1816 7.05934L-65.4685 25.5681C-68.4046 33.0256 -66.2047 41.5256 -60.0194 46.6224L-44.6684 59.2722Z" stroke="#ED1C24" stroke-opacity="0.02" stroke-width="3"/>
<path opacity="0.747475" d="M-44.6709 59.443C-38.3976 64.4311 -29.6259 64.8125 -22.9433 60.3877L-6.44381 49.4626C0.238728 45.0378 3.31208 36.8133 1.16886 29.0905L-4.12287 10.0224C-6.2661 2.29964 -13.1384 -3.16482 -21.1455 -3.51298L-40.9155 -4.37258C-48.9226 -4.72073 -56.2433 0.126607 -59.0488 7.63425L-65.9756 26.171C-68.781 33.6786 -66.4331 42.1389 -60.1599 47.127L-44.6709 59.443Z" stroke="#ED1C24" stroke-opacity="0.02" stroke-width="3"/>
<path opacity="0.757576" d="M-44.6722 59.6039C-38.3128 64.4818 -29.5358 64.71 -22.9315 60.1693L-6.70987 49.0162C-0.105586 44.4754 2.82376 36.1985 0.546075 28.5142L-5.0484 9.64006C-7.32609 1.95583 -14.2927 -3.38785 -22.3047 -3.5962L-41.9839 -4.10797C-49.9959 -4.31633 -57.2308 0.658037 -59.9048 8.21349L-66.4727 26.7714C-69.1467 34.3268 -66.6515 42.7448 -60.2922 47.6227L-44.6722 59.6039Z" stroke="#ED1C24" stroke-opacity="0.02" stroke-width="3"/>
<path opacity="0.767677" d="M-44.6731 59.755C-38.2296 64.5212 -29.4499 64.5962 -22.9259 59.9409L-6.9851 48.5661C-0.461061 43.9108 2.32338 35.584 -0.0880527 27.9407L-5.98014 9.26514C-8.39158 1.62184 -15.4504 -3.59945 -23.4648 -3.66795L-43.0471 -3.83531C-51.0615 -3.9038 -58.2085 1.19607 -60.7502 8.79704L-66.9606 27.3692C-69.5024 34.9701 -66.8607 43.3433 -60.4171 48.1095L-44.6731 59.755Z" stroke="#ED1C24" stroke-opacity="0.02" stroke-width="3"/>
<path opacity="0.777778" d="M-44.6737 59.8962C-38.148 64.5492 -29.3683 64.4709 -22.9265 59.7025L-7.26938 48.1124C-0.82758 43.3439 1.81111 34.9698 -0.733353 27.3697L-6.91783 8.89736C-9.46231 1.2973 -16.6112 -3.79998 -24.6255 -3.7286L-44.1049 -3.55509C-52.1193 -3.48371 -59.1762 1.74012 -61.5849 9.3843L-67.4393 27.9639C-69.848 35.6081 -67.0606 43.9339 -60.5349 48.5869L-44.6737 59.8962Z" stroke="#ED1C24" stroke-opacity="0.02" stroke-width="3"/>
<path opacity="0.787879" d="M-44.6745 60.0279C-38.0686 64.5663 -29.2916 64.3349 -22.934 59.4547L-7.56313 47.6558C-1.20553 42.7756 1.28662 34.3567 -1.3901 26.8022L-7.86167 8.53751C-10.5384 0.983013 -17.7751 -3.98875 -25.787 -3.7775L-45.1576 -3.26677C-53.1695 -3.05553 -60.1342 2.29067 -62.4091 9.97572L-67.9092 28.556C-70.1841 36.2411 -67.2518 44.517 -60.6459 49.0554L-44.6745 60.0279Z" stroke="#ED1C24" stroke-opacity="0.02" stroke-width="3"/>
<path opacity="0.79798" d="M-44.675 60.1504C-37.9909 64.5728 -29.2193 64.1882 -22.9478 59.1978L-7.86565 47.1965C-1.59419 42.2061 0.75063 33.745 -2.05752 26.2384L-8.81083 8.18572C-11.619 0.679095 -18.9414 -4.1656 -26.9484 -3.81456L-46.2044 -2.97034C-54.2113 -2.6193 -61.0817 2.84763 -63.2221 10.5712L-68.3696 29.1456C-70.5101 36.8692 -67.4338 45.0926 -60.7496 49.515L-44.675 60.1504Z" stroke="#ED1C24" stroke-opacity="0.02" stroke-width="3"/>
<path opacity="0.808081" d="M-44.6755 60.2632C-37.9152 64.5683 -29.1517 64.0307 -22.9683 58.9316L-8.1772 46.7343C-1.99379 41.6352 0.203035 33.1344 -2.7357 25.678L-9.76533 7.84165C-12.7041 0.385168 -20.1099 -4.33101 -28.1096 -3.84028L-47.2452 -2.66643C-55.2448 -2.1757 -62.0187 3.4103 -64.024 11.1701L-68.8209 29.7319C-70.8262 37.4916 -67.6068 45.6601 -60.8466 49.9652L-44.6755 60.2632Z" stroke="#ED1C24" stroke-opacity="0.02" stroke-width="3"/>
<path opacity="0.818182" d="M-44.6764 60.3668C-37.842 64.5533 -29.0892 63.8628 -22.9957 58.6566L-8.49791 46.2698C-2.40444 41.0636 -0.356328 32.5258 -3.42475 25.1217L-10.7252 7.50577C-13.7937 0.101719 -21.2807 -4.48447 -29.2705 -3.85421L-48.2803 -2.35466C-56.2701 -1.72439 -62.9455 3.97898 -64.8151 11.7726L-69.2632 30.3153C-71.1328 38.1088 -67.7714 46.2199 -60.937 50.4063L-44.6764 60.3668Z" stroke="#ED1C24" stroke-opacity="0.02" stroke-width="3"/>
<path opacity="0.828283" d="M-44.6783 60.4603C-37.7718 64.5268 -29.0324 63.6837 -23.0307 58.372L-8.82832 45.8022C-2.82663 40.4904 -0.927832 31.9182 -4.125 24.5688L-11.6908 7.17729C-14.888 -0.172086 -22.4539 -4.62693 -30.4315 -3.85731L-49.3098 -2.03611C-57.2875 -1.26649 -63.8623 4.55251 -65.5956 12.3775L-69.6972 30.8946C-71.4305 38.7196 -67.928 46.7708 -61.0216 50.8373L-44.6783 60.4603Z" stroke="#ED1C24" stroke-opacity="0.02" stroke-width="3"/>
<path opacity="0.838384" d="M-44.6803 60.5445C-37.704 64.4898 -28.9806 63.4943 -23.0725 58.0786L-9.16747 45.3324C-3.2594 39.9167 -1.51051 31.3126 -4.83545 24.0202L-12.6609 6.8569C-15.9859 -0.43555 -23.6284 -4.75765 -31.5914 -3.84893L-50.3329 -1.71019C-58.2959 -0.801462 -64.7681 5.1314 -66.3646 12.9855L-70.1219 31.4706C-71.7184 39.3246 -68.0759 47.3135 -61.0996 51.2588L-44.6803 60.5445Z" stroke="#ED1C24" stroke-opacity="0.02" stroke-width="3"/>
<path opacity="0.848485" d="M-44.6831 60.6196C-37.6389 64.4427 -28.9342 63.2951 -23.1216 57.7771L-9.5157 44.8609C-3.70305 39.3429 -2.10456 30.7096 -5.55628 23.4763L-13.6358 6.54508C-17.0875 -0.688236 -24.8043 -4.87632 -32.7503 -3.82876L-51.3495 -1.3767C-59.2955 -0.329142 -65.6632 5.71578 -67.1223 13.5965L-70.5378 32.0432C-71.9969 39.924 -68.2156 47.848 -61.1715 51.671L-44.6831 60.6196Z" stroke="#ED1C24" stroke-opacity="0.02" stroke-width="3"/>
<path opacity="0.858586" d="M-44.6868 60.6854C-37.577 64.3849 -28.8937 63.0855 -23.1782 57.4669L-9.87315 44.3874C-4.15768 38.7688 -2.71013 30.1089 -6.28755 22.937L-14.6155 6.2413C-18.1929 -0.930667 -25.9816 -4.98342 -33.908 -3.79734L-52.36 -1.03628C-60.2864 0.1498 -66.5477 6.30493 -67.8691 14.2099L-70.9451 32.612C-72.2665 40.517 -68.3474 48.3739 -61.2377 52.0733L-44.6868 60.6854Z" stroke="#ED1C24" stroke-opacity="0.02" stroke-width="3"/>
<path opacity="0.868687" d="M-44.6921 60.7414C-37.5189 64.3163 -28.8595 62.8656 -23.243 57.1481L-10.2403 43.9117C-4.62377 38.1942 -3.32756 29.5104 -7.02961 22.402L-15.6001 5.94543C-19.3022 -1.16301 -27.1604 -5.07924 -35.0649 -3.75501L-53.3645 -0.689322C-61.269 0.634908 -67.4219 6.89837 -68.6051 14.8252L-71.3443 33.1765C-72.5276 41.1033 -68.472 48.8906 -61.2987 52.4654L-44.6921 60.7414Z" stroke="#ED1C24" stroke-opacity="0.02" stroke-width="3"/>
<path opacity="0.878788" d="M-44.6983 60.7884C-37.4637 64.2375 -28.831 62.6359 -23.3151 56.8212L-10.6162 43.4345C-5.10031 37.6199 -3.95586 28.9148 -7.78141 21.872L-16.5887 5.65792C-20.4143 -1.38483 -28.3397 -5.16329 -36.2199 -3.70131L-54.362 -0.335482C-62.2422 1.1265 -68.2849 7.49639 -69.3296 15.4427L-71.7347 33.737C-72.7794 41.6833 -68.5885 49.3986 -61.354 52.8477L-44.6983 60.7884Z" stroke="#ED1C24" stroke-opacity="0.02" stroke-width="3"/>
<path opacity="0.888889" d="M-44.7062 60.8263C-37.4126 64.1487 -28.8091 62.3966 -23.3956 56.4866L-11.0017 42.9562C-5.58811 37.0462 -4.59575 28.3224 -8.54363 21.3475L-17.5819 5.37909C-21.5298 -1.59582 -29.5199 -5.2354 -37.3734 -3.63612L-55.3533 0.0252972C-63.2068 1.62459 -69.1373 8.09897 -70.0432 16.0623L-72.117 34.2936C-73.0229 42.2569 -68.698 49.8979 -61.4043 53.2202L-44.7062 60.8263Z" stroke="#ED1C24" stroke-opacity="0.02" stroke-width="3"/>
<path opacity="0.89899" d="M-44.7157 60.8543C-37.3652 64.0488 -28.7937 62.1469 -23.4841 56.1433L-11.3963 42.4757C-6.08673 36.4721 -5.24679 27.7323 -9.31579 20.8274L-18.5792 5.10774C-22.6482 -1.79721 -30.7006 -5.29678 -38.525 -3.56067L-56.3378 0.391707C-64.1622 2.12781 -69.9789 8.70471 -70.7456 16.6826L-72.4911 34.845C-73.2579 42.8229 -68.8003 50.3872 -61.4498 53.5817L-44.7157 60.8543Z" stroke="#ED1C24" stroke-opacity="0.02" stroke-width="3"/>
<path opacity="0.909091" d="M-44.7269 60.874C-37.3217 63.9397 -28.7846 61.8885 -23.5806 55.7932L-11.8 41.9949C-6.59603 35.8995 -5.90872 27.1464 -10.0976 20.3136L-19.5802 4.84566C-23.7691 -1.98723 -31.8814 -5.34575 -39.6743 -3.47335L-57.3154 0.765273C-65.1083 2.63767 -70.8093 9.31508 -71.4367 17.3052L-72.8569 35.3927C-73.4843 43.3828 -68.8954 50.8682 -61.4902 53.9339L-44.7269 60.874Z" stroke="#ED1C24" stroke-opacity="0.02" stroke-width="3"/>
<path opacity="0.919192" d="M-44.7396 60.8845C-37.2821 63.8206 -28.7821 61.6207 -23.6853 55.4354L-12.2127 41.513C-7.11586 35.3278 -6.58142 26.564 -10.8889 19.8053L-20.5848 4.59195C-24.8923 -2.16679 -33.0619 -5.3832 -40.821 -3.37509L-58.2859 1.145C-66.0449 3.15312 -71.6285 9.92901 -72.1163 17.9288L-73.2144 35.9357C-73.7022 43.9356 -68.9834 51.3397 -61.5259 54.2757L-44.7396 60.8845Z" stroke="#ED1C24" stroke-opacity="0.02" stroke-width="3"/>
<path opacity="0.929293" d="M-44.755 60.8854C-37.2473 63.6909 -28.7871 61.343 -23.7989 55.0697L-12.6351 41.0297C-7.64699 34.7564 -7.26559 25.9847 -11.6904 19.3022L-21.5934 4.34615C-26.0183 -2.33639 -34.2428 -5.40974 -41.9656 -3.26652L-59.2499 1.53018C-66.9727 3.67341 -72.4371 10.5457 -72.7853 18.5528L-73.5645 36.4734C-73.9126 44.4805 -69.0653 51.8012 -61.5576 54.6066L-44.755 60.8854Z" stroke="#ED1C24" stroke-opacity="0.02" stroke-width="3"/>
<path opacity="0.939394" d="M-44.7723 60.8779C-37.2169 63.5519 -28.7989 61.0567 -23.921 54.6973L-13.0665 40.5462C-8.1886 34.1868 -7.96035 25.4098 -12.5011 18.8055L-22.6054 4.10931C-27.1462 -2.49499 -35.4231 -5.42433 -43.1074 -3.14664L-60.2067 1.92176C-67.8909 4.19944 -73.2346 11.1661 -73.4429 19.178L-73.9066 37.0067C-74.1149 45.0186 -69.1406 52.2536 -61.5851 54.9276L-44.7723 60.8779Z" stroke="#ED1C24" stroke-opacity="0.02" stroke-width="3"/>
<path opacity="0.949495" d="M-44.7924 60.8611C-37.1914 63.4028 -28.8182 60.7611 -24.052 54.3176L-13.5073 40.0618C-8.74114 33.6183 -8.66612 24.8386 -13.3214 18.3146L-23.621 3.88065C-28.2763 -2.64339 -36.6031 -5.42781 -44.2464 -3.01637L-61.1566 2.31873C-68.7999 4.73017 -74.0212 11.789 -74.0897 19.8034L-74.2412 37.5346C-74.3097 45.549 -69.2098 52.696 -61.6089 55.2377L-44.7924 60.8611Z" stroke="#ED1C24" stroke-opacity="0.02" stroke-width="3"/>
<path opacity="0.959596" d="M-44.8143 60.8362C-37.1701 63.2449 -28.8443 60.4574 -24.1914 53.9317L-13.9567 39.5778C-9.30377 33.0521 -9.38198 24.2724 -14.1505 17.8306L-24.6391 3.66136C-29.4076 -2.78045 -37.7817 -5.41913 -45.3818 -2.87466L-62.0988 2.72211C-69.6988 5.26657 -74.7961 12.4154 -74.7247 20.4298L-74.5677 38.0581C-74.4963 46.0724 -69.2725 53.1294 -61.6283 55.5381L-44.8143 60.8362Z" stroke="#ED1C24" stroke-opacity="0.02" stroke-width="3"/>
<path opacity="0.969697" d="M-44.8391 60.8019C-37.1541 63.0769 -28.8782 60.1445 -24.3398 53.5386L-14.4155 39.0931C-9.87715 32.4872 -10.1086 23.7102 -14.9887 17.3526L-25.6605 3.45006C-30.5407 -2.90754 -38.9596 -5.39966 -46.5141 -2.72294L-63.0339 3.13039C-70.5884 5.80711 -75.5601 13.0438 -75.3489 21.0557L-74.8869 38.5758C-74.6757 46.5877 -69.3295 53.5524 -61.6444 55.8273L-44.8391 60.8019Z" stroke="#ED1C24" stroke-opacity="0.02" stroke-width="3"/>
<path opacity="0.979798" d="M-44.8667 60.7596C-37.1431 62.9 -28.9196 59.8237 -24.4972 53.1396L-14.8833 38.6088C-10.4609 31.9247 -10.8455 23.1531 -15.8359 16.8816L-26.6846 3.24798C-31.675 -3.02347 -40.1361 -5.36831 -47.6427 -2.56015L-63.9615 3.54456C-71.4681 6.35272 -76.3128 13.6751 -75.9618 21.6821L-75.1987 39.0887C-74.8476 47.0957 -69.3807 53.966 -61.6571 56.1065L-44.8667 60.7596Z" stroke="#ED1C24" stroke-opacity="0.02" stroke-width="3"/>
<path opacity="0.989899" d="M-44.8976 60.7078C-37.1378 62.7131 -28.9693 59.4937 -24.6642 52.7334L-15.3606 38.1238C-11.0555 31.3635 -11.5931 22.6 -16.6922 16.4166L-27.7118 3.05368C-32.8109 -3.12972 -41.3116 -5.32652 -48.7681 -2.38778L-64.8822 3.9631C-72.3387 6.90183 -77.0548 14.3077 -76.5641 22.3073L-75.5036 39.5953C-75.0129 47.5949 -69.4269 54.3688 -61.6671 56.3741L-44.8976 60.7078Z" stroke="#ED1C24" stroke-opacity="0.02" stroke-width="3"/>
<path d="M-44.9312 60.6479C-37.1376 62.5175 -29.0266 59.1561 -24.8401 52.3217L-15.8466 37.6396C-11.6602 30.8052 -12.3506 22.0524 -17.5568 15.9589L-28.7411 2.86856C-33.9474 -3.22492 -42.4852 -5.27304 -49.8892 -2.20461L-65.795 4.38715C-73.1991 7.45557 -77.7853 14.9426 -77.155 22.9325L-75.801 40.0967C-75.1708 48.0866 -69.4674 54.762 -61.6738 56.6316L-44.9312 60.6479Z" stroke="#ED1C24" stroke-opacity="0.02" stroke-width="3"/>
</svg>
