<svg width="25" height="24" viewBox="0 0 25 24" fill="none" xmlns="http://www.w3.org/2000/svg">
<path d="M12.52 2C6.71 2 2.5 6.74 2.5 12C2.5 13.68 2.99 15.41 3.85 16.99C4.01 17.25 4.03 17.58 3.92 17.89L3.25 20.13C3.1 20.67 3.56 21.07 4.07 20.91L6.09 20.31C6.64 20.13 7.07 20.36 7.581 20.67C9.041 21.53 10.86 21.97 12.5 21.97C17.46 21.97 22.5 18.14 22.5 11.97C22.5 6.65 18.2 2 12.52 2Z" fill="#FDE8EB"/>
<path fill-rule="evenodd" clip-rule="evenodd" d="M12.4807 13.2901C11.7707 13.2801 11.2007 12.7101 11.2007 12.0001C11.2007 11.3001 11.7807 10.7201 12.4807 10.7301C13.1907 10.7301 13.7607 11.3001 13.7607 12.0101C13.7607 12.7101 13.1907 13.2901 12.4807 13.2901ZM7.87033 13.2901C7.17033 13.2901 6.59033 12.7101 6.59033 12.0101C6.59033 11.3001 7.16033 10.7301 7.87033 10.7301C8.58033 10.7301 9.15033 11.3001 9.15033 12.0101C9.15033 12.7101 8.58033 13.2801 7.87033 13.2901ZM15.8105 12.0101C15.8105 12.7101 16.3805 13.2901 17.0905 13.2901C17.8005 13.2901 18.3705 12.7101 18.3705 12.0101C18.3705 11.3001 17.8005 10.7301 17.0905 10.7301C16.3805 10.7301 15.8105 11.3001 15.8105 12.0101Z" fill="#ED1C24"/>
</svg>
