<svg width="24" height="24" viewBox="0 0 24 24" fill="none" xmlns="http://www.w3.org/2000/svg">
<mask id="mask0_263_787" style="mask-type:alpha" maskUnits="userSpaceOnUse" x="0" y="0" width="24" height="24">
<rect width="24" height="24" fill="url(#paint0_radial_263_787)"/>
</mask>
<g mask="url(#mask0_263_787)">
<path d="M21.3599 11.7823C21.6969 11.4116 21.6643 10.8435 21.2872 10.5136L12.9778 3.2429C12.6007 2.91308 11.996 2.91999 11.6268 3.25848L3.28917 10.9013C2.91995 11.2398 2.90183 11.8072 3.24905 12.1681L3.45808 12.3858C3.80488 12.7467 4.36544 12.7897 4.70933 12.4816L5.33243 11.9236V20.093C5.33243 20.5942 5.73856 21 6.23942 21H9.48944C9.9903 21 10.3964 20.5942 10.3964 20.093V14.3777H14.5419V20.093C14.5347 20.5939 14.893 20.9996 15.3939 20.9996H18.8381C19.339 20.9996 19.7451 20.5939 19.7451 20.0926V12.0386C19.7451 12.0386 19.9172 12.1894 20.1295 12.376C20.3415 12.5623 20.7866 12.4129 21.1237 12.0419L21.3599 11.7823Z" fill="url(#paint1_radial_263_787)"/>
</g>
<defs>
<radialGradient id="paint0_radial_263_787" cx="0" cy="0" r="1" gradientUnits="userSpaceOnUse" gradientTransform="translate(-7.232 -8.1958) rotate(43.1335) scale(60.469 59.269)">
<stop stop-color="#FBB04C"/>
<stop offset="0.177083" stop-color="#FD8C48"/>
<stop offset="0.375" stop-color="#FE684D"/>
<stop offset="0.5625" stop-color="#F43036"/>
<stop offset="0.760417" stop-color="#F0232B"/>
<stop offset="0.9195" stop-color="#ED1C24"/>
<stop offset="1" stop-color="#ED1C24"/>
</radialGradient>
<radialGradient id="paint1_radial_263_787" cx="0" cy="0" r="1" gradientUnits="userSpaceOnUse" gradientTransform="translate(-2.60263 -3.14685) rotate(42.2083) scale(46.1531 45.1184)">
<stop stop-color="#FBB04C"/>
<stop offset="0.177083" stop-color="#FD8C48"/>
<stop offset="0.375" stop-color="#FE684D"/>
<stop offset="0.5625" stop-color="#F43036"/>
<stop offset="0.760417" stop-color="#F0232B"/>
<stop offset="0.9195" stop-color="#ED1C24"/>
<stop offset="1" stop-color="#ED1C24"/>
</radialGradient>
</defs>
</svg>
