<svg width="25" height="24" viewBox="0 0 25 24" fill="none" xmlns="http://www.w3.org/2000/svg">
<ellipse cx="12.3786" cy="7.50583" rx="4.77803" ry="4.57614" stroke="#C4C4C4" stroke-width="1.5" stroke-linecap="round" stroke-linejoin="round"/>
<path fill-rule="evenodd" clip-rule="evenodd" d="M4.79982 18.4467C4.79854 18.125 4.87366 17.8072 5.0195 17.5174C5.47717 16.6408 6.76778 16.1761 7.83872 15.9657C8.61108 15.8079 9.39411 15.7024 10.182 15.6501C11.6406 15.5274 13.1077 15.5274 14.5664 15.6501C15.3542 15.703 16.1372 15.8085 16.9097 15.9657C17.9806 16.1761 19.2712 16.5969 19.7289 17.5174C20.0222 18.1082 20.0222 18.794 19.7289 19.3847C19.2712 20.3052 17.9806 20.726 16.9097 20.9276C16.1382 21.092 15.3549 21.2004 14.5664 21.252C13.3792 21.3484 12.1864 21.3659 10.9966 21.3046C10.722 21.3046 10.4566 21.3046 10.182 21.252C9.39644 21.2011 8.61612 21.0926 7.84788 20.9276C6.76778 20.726 5.48632 20.3052 5.0195 19.3847C4.8744 19.0915 4.79936 18.7711 4.79982 18.4467Z" stroke="#C4C4C4" stroke-width="1.5" stroke-linecap="round" stroke-linejoin="round"/>
</svg>
