<svg width="13" height="14" viewBox="0 0 13 14" fill="none" xmlns="http://www.w3.org/2000/svg">
<path d="M10.9033 4.95826C10.6023 4.95826 10.2036 4.95159 9.70715 4.95159C8.49652 4.95159 7.50108 3.94959 7.50108 2.72759V0.583588C7.50108 0.414921 7.36576 0.277588 7.19942 0.277588H3.67314C2.0275 0.277588 0.697388 1.62825 0.697388 3.28359V10.4669C0.697388 12.2036 2.09087 13.6109 3.81044 13.6109H9.06091C10.7013 13.6109 12.0307 12.2689 12.0307 10.6123V5.25826C12.0307 5.08892 11.8961 4.95226 11.7284 4.95292C11.4472 4.95492 11.1086 4.95826 10.9033 4.95826Z" fill="#F9B4B6"/>
<path d="M9.08688 0.655794C8.88755 0.44846 8.53955 0.591127 8.53955 0.87846V2.63646C8.53955 3.37379 9.14688 3.98046 9.88355 3.98046C10.3489 3.98579 10.9942 3.98713 11.5422 3.98579C11.8229 3.98513 11.9656 3.64979 11.7709 3.44713C11.0676 2.71579 9.80822 1.40513 9.08688 0.655794Z" fill="#F9B4B6"/>
<path d="M8.43425 7.53334C8.24025 7.72601 7.92625 7.72734 7.73158 7.53201L6.67225 6.46734V9.68534C6.67225 9.95934 6.44958 10.182 6.17558 10.182C5.90158 10.182 5.67958 9.95934 5.67958 9.68534V6.46734L4.61891 7.53201C4.42558 7.72734 4.11091 7.72601 3.91691 7.53334C3.72291 7.34068 3.72225 7.02601 3.91558 6.83134L5.82358 4.91468C5.82425 4.91401 5.82425 4.91401 5.82425 4.91401C5.86958 4.86868 5.92425 4.83201 5.98425 4.80734C6.04425 4.78201 6.10958 4.76868 6.17558 4.76868C6.24225 4.76868 6.30758 4.78201 6.36758 4.80734C6.42691 4.83201 6.48091 4.86868 6.52625 4.91334C6.52691 4.91401 6.52758 4.91401 6.52758 4.91468L8.43558 6.83134C8.62891 7.02601 8.62891 7.34068 8.43425 7.53334Z" fill="white"/>
</svg>
