<svg width="20" height="20" viewBox="0 0 20 20" fill="none" xmlns="http://www.w3.org/2000/svg">
<path d="M16.6609 15.7939H11.9157C11.4527 15.7939 11.0762 16.1765 11.0762 16.6468C11.0762 17.118 11.4527 17.4996 11.9157 17.4996H16.6609C17.1239 17.4996 17.5004 17.118 17.5004 16.6468C17.5004 16.1765 17.1239 15.7939 16.6609 15.7939" fill="#C4C4C4"/>
<path d="M8.59085 5.75284L13.0874 9.38625C13.1959 9.47315 13.2144 9.6326 13.1297 9.74368L7.79895 16.6898C7.46385 17.1189 6.97001 17.3617 6.4409 17.3706L3.5308 17.4064C3.37559 17.4082 3.23979 17.3007 3.20452 17.1467L2.54313 14.2711C2.42849 13.7426 2.54313 13.1961 2.87823 12.7751L8.23547 5.79584C8.32189 5.68387 8.4815 5.66416 8.59085 5.75284" fill="#DADADA"/>
<path d="M15.1011 7.2212L14.2342 8.30334C14.1469 8.41352 13.9899 8.43144 13.8815 8.34365C12.8277 7.49084 10.1292 5.30237 9.3805 4.69591C9.27115 4.60633 9.25616 4.44687 9.34435 4.33579L10.1803 3.29755C10.9387 2.32111 12.2615 2.23153 13.3285 3.08255L14.5543 4.05899C15.057 4.45314 15.3921 4.97271 15.5067 5.51916C15.639 6.12025 15.4979 6.71059 15.1011 7.2212" fill="#C4C4C4"/>
</svg>
