<svg width="22" height="18" viewBox="0 0 22 18" fill="none" xmlns="http://www.w3.org/2000/svg">
<path d="M20.1875 0H1.8125C1.08125 0 0.5 0.595313 0.5 1.32656V16.6734C0.5 17.4047 1.08125 18 1.8125 18H20.1875C20.9188 18 21.5 17.4047 21.5 16.6734V1.32656C21.5 0.595313 20.9188 0 20.1875 0ZM15.3547 9.26719C15.2141 9.10313 14.9984 8.97656 14.7547 8.97656C14.5156 8.97656 14.3469 9.08906 14.1547 9.24375L13.2781 9.98438C13.0953 10.1156 12.95 10.2047 12.7391 10.2047C12.5375 10.2047 12.3547 10.1297 12.2234 10.0125C12.1766 9.97031 12.0922 9.89062 12.0219 9.82031L9.5 7.09219C9.3125 6.87656 9.03125 6.74063 8.71719 6.74063C8.40313 6.74063 8.1125 6.89531 7.92969 7.10625L2 14.2594V2.04844C2.04688 1.72969 2.29531 1.5 2.61406 1.5H19.3812C19.7047 1.5 19.9672 1.73906 19.9859 2.0625L20 14.2687L15.3547 9.26719Z" fill="#ED1C24"/>
</svg>
