<svg width="24" height="24" viewBox="0 0 24 24" fill="none" xmlns="http://www.w3.org/2000/svg">
<path d="M16.6203 22H7.3797C4.68923 22 2.5 19.8311 2.5 17.1646V11.8354C2.5 9.16894 4.68923 7 7.3797 7H16.6203C19.3108 7 21.5 9.16894 21.5 11.8354V17.1646C21.5 19.8311 19.3108 22 16.6203 22Z" fill="#FDE8EB"/>
<path d="M16 6.18262C15.5888 6.18262 15.0103 5.75569 15.0103 5.35689C15.0103 3.75111 13.6635 2.44491 12.0089 2.44491C11.2472 2.44491 10.4477 2.7416 9.87861 3.28778C9.30854 3.83588 8.99272 4.56508 8.98974 5.34341V12.5C8.98974 12.8988 8.91117 13.5 8.5 13.5C8 13.5 7.5 12.8988 7.5 12.5V5.35689C7.50497 4.17303 7.97771 3.08067 8.82984 2.26285C9.68098 1.44311 10.7814 1.03179 12.0119 1C14.4849 1 16.5 2.95449 16.5 5.35689L16.5 5.34324C16.5 5.74204 16.4112 6.18262 16 6.18262Z" fill="#ED1C24"/>
</svg>
