<svg width="25" height="24" viewBox="0 0 25 24" fill="none" xmlns="http://www.w3.org/2000/svg">
<path d="M17.0768 6.43872L16.435 7.24912H17.4688H20.75C21.0152 7.24912 21.2696 7.35448 21.4571 7.54202L21.8107 7.18846L21.4571 7.54202C21.6446 7.72955 21.75 7.98391 21.75 8.24912V11.2491C21.75 11.5143 21.6446 11.7687 21.4571 11.9562C21.2696 12.1438 21.0152 12.2491 20.75 12.2491H20.25V12.7491V18.7491C20.25 19.0143 20.1446 19.2687 19.9571 19.4562C19.7696 19.6438 19.5152 19.7491 19.25 19.7491H5.75C5.48478 19.7491 5.23043 19.6438 5.04289 19.4562C4.85536 19.2687 4.75 19.0143 4.75 18.7491V12.7491V12.2491H4.25C3.98478 12.2491 3.73043 12.1438 3.54289 11.9562L3.18934 12.3098L3.54289 11.9562C3.35536 11.7687 3.25 11.5143 3.25 11.2491V8.24912C3.25 7.98391 3.35536 7.72955 3.54289 7.54202C3.73043 7.35448 3.98478 7.24912 4.25 7.24912H7.53125H8.56497L7.92323 6.43872C7.52957 5.9416 7.33953 5.31346 7.39159 4.68148C7.44365 4.04951 7.73391 3.46093 8.20362 3.03492C8.67332 2.60891 9.28735 2.37731 9.92139 2.38701C10.5534 2.39668 11.1582 2.64538 11.6142 3.08293C11.7928 3.26478 11.9391 3.47583 12.0467 3.70698L12.5 4.68097L12.9533 3.70698C13.0609 3.47583 13.2072 3.26478 13.3858 3.08293C13.8418 2.64538 14.4466 2.39668 15.0786 2.38701C15.7126 2.37731 16.3267 2.60891 16.7964 3.03492L17.1285 2.66879L16.7964 3.03492C17.2661 3.46093 17.5564 4.04951 17.6084 4.68148C17.6605 5.31346 17.4704 5.9416 17.0768 6.43872ZM12.7798 6.67982L12.7312 7.2679L13.3193 7.2193C13.9037 7.171 14.551 7.08107 15.1197 6.93888C15.4041 6.86779 15.6787 6.78121 15.9203 6.67538C16.1517 6.57401 16.3819 6.44256 16.5587 6.26636C16.7546 6.08629 16.9127 5.86888 17.0236 5.62686C17.1364 5.38055 17.198 5.11388 17.2047 4.84303C17.2114 4.57218 17.163 4.3028 17.0624 4.05123L16.5981 4.23688L17.0624 4.05123C16.9618 3.79967 16.8111 3.57117 16.6195 3.37959C16.428 3.18801 16.1995 3.03736 15.9479 2.93676L15.7622 3.40102L15.9479 2.93676C15.6963 2.83617 15.4269 2.78774 15.1561 2.79441C14.8852 2.80108 14.6186 2.86271 14.3723 2.97556C14.1302 3.08644 13.9128 3.24451 13.7328 3.44044C13.5566 3.61718 13.4251 3.84738 13.3237 4.07879C13.2179 4.32039 13.1313 4.59505 13.0602 4.87942C12.9181 5.44815 12.8281 6.09541 12.7798 6.67982ZM8.43657 3.43047L8.43653 3.43043L8.43134 3.43569C8.06092 3.81163 7.85327 4.31822 7.85327 4.846C7.85327 5.37355 8.06074 5.87993 8.43087 6.25582C8.60893 6.43733 8.84367 6.572 9.07966 6.67538C9.32127 6.78121 9.59592 6.86779 9.88029 6.93888C10.449 7.08107 11.0963 7.171 11.6807 7.2193L12.2688 7.2679L12.2202 6.67982C12.1719 6.09541 12.0819 5.44815 11.9398 4.87942C11.8687 4.59505 11.7821 4.32039 11.6763 4.07879C11.573 3.843 11.4384 3.60847 11.2572 3.43047C10.8812 3.06004 10.3747 2.85239 9.84687 2.85239C9.3191 2.85239 8.81251 3.06004 8.43657 3.43047ZM20.75 11.7491H21.25V11.2491V8.24912V7.74912H20.75H13.25H12.75V8.24912V10.7491H12.25V8.24912V7.74912H11.75H4.25H3.75V8.24912V11.2491V11.7491H4.25H11.25V17.9991C11.25 18.3306 11.3817 18.6486 11.6161 18.883C11.8505 19.1174 12.1685 19.2491 12.5 19.2491C12.8315 19.2491 13.1495 19.1174 13.3839 18.883C13.6183 18.6486 13.75 18.3306 13.75 17.9991V11.7491H20.75Z" fill="#ED1C24" stroke="#ED1C24"/>
</svg>
