<svg width="14" height="12" viewBox="0 0 14 12" fill="none" xmlns="http://www.w3.org/2000/svg">
<path d="M4.5651 9.76814e-05C4.97746 0.0121983 5.37673 0.0816708 5.76356 0.208616H5.80218C5.82836 0.220616 5.848 0.233879 5.86109 0.245879C6.00574 0.29072 6.14254 0.341245 6.27345 0.410718L6.52217 0.518085C6.62035 0.56861 6.73817 0.662714 6.80363 0.70124C6.86908 0.738502 6.94108 0.777028 6.99999 0.820606C7.72718 0.284404 8.61015 -0.00611716 9.51996 9.76814e-05C9.93297 9.76814e-05 10.3453 0.0564081 10.7374 0.183353C13.1533 0.941236 14.0238 3.49909 13.2966 5.73484C12.8843 6.87735 12.2101 7.92007 11.3271 8.77205C10.0632 9.95309 8.67626 11.0015 7.18326 11.9046L7.01962 12L6.84944 11.8983C5.3512 11.0015 3.95638 9.95309 2.68069 8.76574C1.8036 7.91375 1.12878 6.87735 0.709871 5.73484C-0.0297579 3.49909 0.840779 0.941236 3.28286 0.17009C3.47268 0.106934 3.66839 0.0627238 3.86475 0.0380926H3.94329C4.12722 0.0121983 4.30983 9.76814e-05 4.4931 9.76814e-05H4.5651ZM10.397 1.99595C10.1287 1.9069 11.1891 1.7307 11.091 1.99595C10.9993 2.26121 11.0522 2.21764 11.3271 2.31174C11.7467 2.46332 10.7636 3.51172 10.7636 3.95319V3.97276C10.7511 4.11739 11.5031 3.92867 10.8879 4.36434C10.2728 4.8 10.947 2.29848 11.091 2.31174C11.3593 2.30479 12.7273 4 11.7781 4.06687C10.8289 4.13374 11.7781 3.99171 11.7781 3.99171C11.7978 3.10688 11.2421 2.30542 10.397 1.99595Z" fill="#ED1C24"/>
</svg>
