<svg width="36" height="36" viewBox="0 0 36 36" fill="none" xmlns="http://www.w3.org/2000/svg">
<path d="M22.022 2.22348L33.7785 13.98C34.845 15.0466 35.4442 16.4931 35.4442 18.0015C35.4442 19.5098 34.845 20.9564 33.7785 22.023L22.022 33.7777C20.9554 34.8442 19.5088 35.4434 18.0005 35.4434C16.4922 35.4434 15.0456 34.8442 13.979 33.7777L2.22425 22.0247C1.15774 20.9581 0.558594 19.5116 0.558594 18.0032C0.558594 16.4949 1.15774 15.0483 2.22425 13.9817L13.979 2.22523C15.0456 1.15872 16.4922 0.55957 18.0005 0.55957C19.5088 0.55957 20.9554 1.15872 22.022 2.22523V2.22348ZM20.7848 9.63648L20.6378 9.50873C20.4146 9.34349 20.1448 9.25329 19.8671 9.25109C19.5895 9.24889 19.3183 9.3348 19.0925 9.49648L18.9298 9.63648L18.802 9.78348C18.6368 10.0066 18.5466 10.2764 18.5444 10.5541C18.5422 10.8318 18.6281 11.103 18.7898 11.3287L18.9298 11.4932L20.1863 12.7497H17.563L17.2708 12.7602C16.1001 12.8316 14.9959 13.3281 14.1654 14.1562C13.335 14.9844 12.8356 16.0873 12.761 17.2577L12.7505 17.5657V23.2497L12.7628 23.4265C12.806 23.7406 12.9615 24.0285 13.2005 24.2369C13.4395 24.4453 13.7459 24.5601 14.063 24.5601C14.3801 24.5601 14.6865 24.4453 14.9255 24.2369C15.1645 24.0285 15.32 23.7406 15.3633 23.4265L15.3755 23.2497V17.5622L15.3878 17.3382C15.439 16.838 15.661 16.3707 16.0164 16.015C16.3718 15.6593 16.8388 15.4369 17.339 15.3852L17.563 15.3747H20.188L18.928 16.6347L18.802 16.7817C18.6124 17.0345 18.5204 17.3471 18.5428 17.6623C18.5652 17.9774 18.7005 18.2739 18.9239 18.4973C19.1473 18.7207 19.4438 18.856 19.759 18.8784C20.0741 18.9008 20.3868 18.8088 20.6395 18.6192L20.7848 18.4915L24.2848 14.9915L24.4125 14.8445C24.5777 14.6213 24.6679 14.3515 24.6701 14.0738C24.6723 13.7962 24.5864 13.525 24.4248 13.2992L24.2848 13.1347L20.7848 9.63473V9.63648Z" fill="#ED1C24"/>
</svg>
