<svg width="17" height="21" viewBox="0 0 17 21" fill="none" xmlns="http://www.w3.org/2000/svg">
<path d="M8.50001 0.4375C6.4039 0.439973 4.39435 1.27374 2.91218 2.75592C1.43 4.23809 0.596231 6.24764 0.593758 8.34375C0.591248 10.0567 1.15078 11.7232 2.18651 13.0875C2.18651 13.0875 2.40213 13.3714 2.43735 13.4124L8.50001 20.5625L14.5655 13.4088C14.5972 13.3707 14.8135 13.0875 14.8135 13.0875L14.8142 13.0853C15.8494 11.7216 16.4087 10.0559 16.4063 8.34375C16.4038 6.24764 15.57 4.23809 14.0878 2.75592C12.6057 1.27374 10.5961 0.439973 8.50001 0.4375ZM8.50001 11.2188C7.93139 11.2188 7.37554 11.0501 6.90274 10.7342C6.42995 10.4183 6.06146 9.9693 5.84385 9.44396C5.62625 8.91863 5.56932 8.34056 5.68025 7.78287C5.79118 7.22517 6.065 6.71289 6.46708 6.31082C6.86915 5.90874 7.38143 5.63492 7.93912 5.52399C8.49682 5.41306 9.07489 5.46999 9.60022 5.6876C10.1256 5.9052 10.5746 6.27369 10.8905 6.74649C11.2064 7.21928 11.375 7.77513 11.375 8.34375C11.3741 9.10596 11.0709 9.83667 10.5319 10.3756C9.99293 10.9146 9.26221 11.2178 8.50001 11.2188Z" fill="#ED1C24"/>
</svg>
