<svg width="23" height="25" viewBox="0 0 23 25" fill="none" xmlns="http://www.w3.org/2000/svg">
<rect y="0.519531" width="23" height="24" rx="8" fill="url(#paint0_linear_2636_41037)"/>
<path d="M13.0659 6.96079C12.9086 6.68533 12.6808 6.45629 12.4057 6.29697C12.1307 6.13764 11.8182 6.05371 11.5 6.05371C11.1818 6.05371 10.8693 6.13764 10.5943 6.29697C10.3192 6.45629 10.0914 6.68533 9.93405 6.96079L5.19157 15.3769C5.04097 15.6411 4.96312 15.9401 4.96589 16.2438C4.96866 16.5476 5.05197 16.8452 5.20736 17.1065C5.36503 17.3761 5.59145 17.5994 5.86368 17.7538C6.13591 17.9082 6.44427 17.9882 6.75751 17.9856H16.2425C16.5557 17.9882 16.8641 17.9082 17.1363 17.7538C17.4085 17.5994 17.635 17.3761 17.7926 17.1065C17.948 16.8452 18.0313 16.5476 18.0341 16.2438C18.0369 15.9401 17.959 15.6411 17.8084 15.3769L13.0659 6.96079ZM11.5 15.8162C11.3923 15.8162 11.287 15.7844 11.1975 15.7248C11.108 15.6652 11.0382 15.5805 10.997 15.4814C10.9557 15.3823 10.945 15.2733 10.966 15.1681C10.987 15.0629 11.0388 14.9662 11.115 14.8904C11.1911 14.8145 11.2882 14.7629 11.3938 14.742C11.4994 14.721 11.6089 14.7318 11.7084 14.7728C11.8079 14.8139 11.8929 14.8834 11.9527 14.9726C12.0126 15.0618 12.0445 15.1666 12.0445 15.2739C12.0445 15.4177 11.9871 15.5557 11.885 15.6574C11.7829 15.7591 11.6444 15.8162 11.5 15.8162ZM12.0445 13.1045C12.0445 13.2483 11.9871 13.3863 11.885 13.488C11.7829 13.5897 11.6444 13.6469 11.5 13.6469C11.3556 13.6469 11.2171 13.5897 11.115 13.488C11.0129 13.3863 10.9555 13.2483 10.9555 13.1045V9.85042C10.9555 9.70658 11.0129 9.56863 11.115 9.46692C11.2171 9.36521 11.3556 9.30807 11.5 9.30807C11.6444 9.30807 11.7829 9.36521 11.885 9.46692C11.9871 9.56863 12.0445 9.70658 12.0445 9.85042V13.1045Z" fill="#FBFDFF"/>
<defs>
<linearGradient id="paint0_linear_2636_41037" x1="20.125" y1="28.0195" x2="-0.0614862" y2="3.35417" gradientUnits="userSpaceOnUse">
<stop stop-color="#F4060E"/>
<stop offset="1" stop-color="#FF989B" stop-opacity="0.56"/>
</linearGradient>
</defs>
</svg>
