<svg width="35" height="35" viewBox="0 0 35 35" fill="none" xmlns="http://www.w3.org/2000/svg">
<g clip-path="url(#clip0_7090_208216)">
<path d="M4.20383 19.1139C4.13628 18.551 4.10156 17.9919 4.10156 17.5C4.10156 10.158 10.158 4.10156 17.5 4.10156C20.9246 4.10156 24.1309 5.48237 26.4893 7.63569L25.3066 8.83892C25.0401 9.10542 24.9376 9.49501 25.0401 9.86431C25.1632 10.2128 25.4502 10.4795 25.8193 10.5615C26.0257 10.6029 32.8066 12.788 32.3748 12.7012C32.9241 12.8841 33.7364 12.2983 33.585 11.4913C33.5434 11.2846 32.0421 3.75202 32.1289 4.18354C32.0469 3.81451 31.7802 3.50689 31.4111 3.40435C31.0627 3.30181 30.6728 3.40435 30.4063 3.67085L29.4015 4.65511C26.3047 1.76373 22.0526 0 17.5 0C7.88189 0 0 7.88189 0 17.5V17.5409C0 18.119 0.0264359 18.5657 0.0571442 18.9075C0.0979996 19.3604 0.431786 19.7313 0.877724 19.8207L2.98431 20.2419C3.67004 20.3791 4.28661 19.8042 4.20383 19.1139V19.1139Z" fill="url(#paint0_linear_7090_208216)"/>
<path d="M34.1293 15.1776L32.0165 14.7472C31.33 14.6073 30.7092 15.1827 30.7935 15.8762C30.8667 16.4746 30.8993 17.0565 30.8993 17.5C30.8993 24.8417 24.8428 30.8984 17.5008 30.8984C14.0762 30.8984 10.87 29.5176 8.51158 27.3437L9.69425 26.1611C9.96075 25.8946 10.0633 25.505 9.96075 25.1357C9.83765 24.7869 9.55059 24.5205 9.18156 24.4385C8.97515 24.3968 2.19422 22.212 2.626 22.2988C2.27726 22.2374 1.92852 22.3399 1.70315 22.5858C1.45695 22.8115 1.35441 23.1805 1.41583 23.5087C1.45748 23.7151 2.95899 31.1794 2.8722 30.7478C2.95391 31.1171 3.22068 31.4247 3.58971 31.527C4.01776 31.6344 4.37504 31.5046 4.59454 31.2605L5.57907 30.2763C8.67554 33.1679 12.9277 35 17.5008 35C27.119 35 35.0008 27.1181 35.0008 17.5V17.4383C35.0008 16.9838 34.9843 16.5376 34.9464 16.0941C34.9074 15.6409 34.5749 15.2687 34.1293 15.1776Z" fill="url(#paint1_linear_7090_208216)"/>
</g>
<defs>
<linearGradient id="paint0_linear_7090_208216" x1="16.8017" y1="22.795" x2="16.5977" y2="-6.58382" gradientUnits="userSpaceOnUse">
<stop stop-color="#ED1C24"/>
<stop offset="1" stop-color="#F99D27"/>
</linearGradient>
<linearGradient id="paint1_linear_7090_208216" x1="18.1996" y1="37.5342" x2="17.9954" y2="8.13847" gradientUnits="userSpaceOnUse">
<stop stop-color="#ED1C24"/>
<stop offset="1" stop-color="#F99D27"/>
</linearGradient>
<clipPath id="clip0_7090_208216">
<rect width="35" height="35" fill="white"/>
</clipPath>
</defs>
</svg>
