<svg width="36" height="36" viewBox="0 0 36 36" fill="none" xmlns="http://www.w3.org/2000/svg">
<path opacity="0.4" fill-rule="evenodd" clip-rule="evenodd" d="M13.7829 5.62083C13.7829 5.00158 13.2714 4.5 12.6414 4.5H12.6399L10.1964 4.50147C6.90985 4.50441 4.23535 7.12997 4.23535 10.3542L4.23535 13.143C4.23535 13.7608 4.74685 14.2638 5.37685 14.2638C6.00685 14.2638 6.51985 13.7608 6.51985 13.143L6.51985 10.3542C6.51985 8.36406 8.16985 6.74459 10.1979 6.74165L12.6414 6.74018C13.2729 6.74018 13.7829 6.2386 13.7829 5.62083ZM25.7902 4.50044L23.4007 4.50044C22.7707 4.50044 22.2592 5.00202 22.2592 5.62127C22.2592 6.23905 22.7707 6.73915 23.4007 6.73915H25.7902C27.8257 6.73915 29.4817 8.36303 29.4817 10.359V13.1435C29.4817 13.7612 29.9932 14.2643 30.6232 14.2643C31.2547 14.2643 31.7647 13.7612 31.7647 13.1435V10.359C31.7647 7.12747 29.0857 4.50044 25.7902 4.50044ZM13.8576 10.114L22.1436 10.114C23.0511 10.114 23.9226 10.4714 24.5571 11.1083C25.1961 11.7511 25.5501 12.6145 25.5486 13.5132V15.3813C25.5411 15.6004 25.3626 15.7784 25.1391 15.7843L10.8591 15.7843C10.6371 15.777 10.4586 15.599 10.4541 15.3813V13.5132C10.4376 11.6525 11.9616 10.1331 13.8576 10.114Z" fill="#ED1C24"/>
<path d="M33.3585 18.0619L2.643 18.0619C2.013 18.0619 1.5 18.5635 1.5 19.1827C1.5 19.8005 2.013 20.3006 2.643 20.3006H4.2345L4.2345 25.6459C4.2345 28.8701 6.9105 31.4956 10.197 31.4986L12.6405 31.5C13.272 31.5 13.782 30.9985 13.7835 30.3792C13.7835 29.7614 13.272 29.2599 12.642 29.2599L10.2 29.2584C8.1705 29.2554 6.519 27.636 6.519 25.6459L6.519 20.3006H10.4535V21.7877C10.4385 23.6484 11.961 25.1693 13.857 25.1869L22.143 25.1869C24.0405 25.1693 25.563 23.6484 25.548 21.7877V20.3006H29.4825V25.64C29.4825 27.6375 27.8265 29.2599 25.791 29.2599H23.4015C22.77 29.2599 22.2585 29.7614 22.2585 30.3792C22.2585 30.9985 22.77 31.5 23.4015 31.5H25.791C29.085 31.5 31.7655 28.873 31.7655 25.64V20.3006L33.3585 20.3006C33.9885 20.3006 34.5 19.8005 34.5 19.1827C34.5 18.5635 33.9885 18.0619 33.3585 18.0619Z" fill="#ED1C24"/>
</svg>
