<svg width="24" height="28" viewBox="0 0 24 28" fill="none" xmlns="http://www.w3.org/2000/svg">
<path d="M12.1156 27.3334C11.9505 27.3334 11.7854 27.2955 11.6364 27.2184L6.83498 24.7329C5.47253 24.0269 4.40673 23.2346 3.5745 22.3115C1.75298 20.2928 0.739528 17.7014 0.72342 15.0133L0.667043 6.16576C0.660331 5.14464 1.31941 4.22812 2.30467 3.88295L11.121 0.809132C11.6445 0.622167 12.2284 0.619552 12.7613 0.79998L21.6112 3.7692C22.6018 4.09999 23.2716 5.00998 23.277 6.02979L23.3334 14.8839C23.3508 17.5681 22.3723 20.1699 20.5789 22.2108C19.7561 23.147 18.6997 23.951 17.3507 24.6701L12.5922 27.2118C12.4445 27.2916 12.2808 27.3321 12.1156 27.3334Z" fill="#FDE8EB"/>
<path d="M11.0928 17.0947C10.8351 17.096 10.5774 17.0032 10.3787 16.8123L7.82293 14.3543C7.42829 13.9725 7.42426 13.3527 7.81487 12.9684C8.20549 12.5827 8.84309 12.5787 9.23907 12.9592L11.078 14.7269L15.5681 10.2998C15.96 9.91415 16.5976 9.91022 16.9923 10.2907C17.3883 10.6725 17.3923 11.2935 17.0017 11.6766L11.8029 16.8031C11.6069 16.9966 11.3505 17.0934 11.0928 17.0947Z" fill="#ED1C24"/>
</svg>
