<svg width="28" height="24" viewBox="0 0 28 24" fill="none" xmlns="http://www.w3.org/2000/svg">
<path d="M26.3337 13.9686C25.239 13.9686 24.3483 13.0861 24.3483 12.0014C24.3483 10.9155 25.239 10.0329 26.3337 10.0329C26.599 10.0329 26.8537 9.92856 27.0403 9.7436C27.2283 9.55732 27.3337 9.30498 27.3337 9.04207L27.3323 5.47232C27.3323 2.45482 24.8537 0.00012207 21.8083 0.00012207H6.19233C3.14699 0.00012207 0.668326 2.45482 0.668326 5.47232L0.666992 9.15701C0.666992 9.41992 0.772326 9.67226 0.960326 9.85854C1.14699 10.0435 1.40166 10.1479 1.66699 10.1479C2.79899 10.1479 3.65233 10.9445 3.65233 12.0014C3.65233 13.0861 2.76166 13.9686 1.66699 13.9686C1.11499 13.9686 0.666992 14.4125 0.666992 14.9595V18.5266C0.666992 21.5441 3.14433 24.0001 6.19099 24.0001H21.8097C24.8563 24.0001 27.3337 21.5441 27.3337 18.5266V14.9595C27.3337 14.4125 26.8857 13.9686 26.3337 13.9686Z" fill="#FDE8EB"/>
<path d="M18.5741 11.4515L17.0021 12.9822L17.3741 15.1462C17.4381 15.5209 17.2874 15.8902 16.9794 16.1115C16.6741 16.3355 16.2754 16.3635 15.9394 16.1849L13.9994 15.1649L12.0554 16.1862C11.9114 16.2622 11.7541 16.3022 11.5981 16.3022C11.3941 16.3022 11.1928 16.2382 11.0194 16.1129C10.7128 15.8902 10.5621 15.5209 10.6261 15.1462L10.9968 12.9822L9.42478 11.4515C9.15278 11.1875 9.05811 10.7995 9.17544 10.4382C9.29411 10.0782 9.60078 9.8222 9.97544 9.76887L12.1434 9.45287L13.1154 7.48354C13.2848 7.14487 13.6234 6.9342 13.9994 6.9342H14.0021C14.3794 6.93554 14.7181 7.1462 14.8848 7.48487L15.8568 9.45287L18.0288 9.7702C18.3994 9.8222 18.7061 10.0782 18.8234 10.4382C18.9421 10.7995 18.8474 11.1875 18.5741 11.4515Z" fill="#ED1C24"/>
</svg>
