<svg width="23" height="23" viewBox="0 0 23 23" fill="none" xmlns="http://www.w3.org/2000/svg">
<path d="M5.38279 3.03115C5.39786 3.0337 5.42265 3.04316 5.47658 3.0682C5.58314 3.1188 5.75258 3.24914 5.91843 3.43084C6.25244 3.79475 6.5862 4.34598 6.75946 4.70989C6.76483 4.72062 6.77045 4.73238 6.77556 4.74439C7.26725 5.58798 7.47936 6.23326 7.48575 6.63806C7.49265 7.04465 7.38353 7.2197 7.03879 7.41776L6.14945 7.9304C5.57011 8.2639 5.29641 8.86165 5.22843 9.41927C5.1602 9.97715 5.26063 10.5192 5.50878 10.9477L7.704 14.7312C7.95265 15.1596 8.37713 15.5178 8.89616 15.7379C9.41571 15.9584 10.0727 16.0208 10.6521 15.688L11.5414 15.1764C11.8859 14.9789 12.0942 14.9748 12.444 15.1828C12.7949 15.3913 13.2506 15.895 13.7402 16.7391C13.7471 16.7517 13.7538 16.7621 13.7617 16.7742C13.9912 17.1051 14.3037 17.6666 14.4545 18.1368C14.5294 18.3704 14.5588 18.5814 14.5493 18.6982C14.5388 18.8155 14.5363 18.8035 14.5054 18.8219L13.8286 19.2099C12.1287 19.9471 10.5706 19.7808 9.17804 19.0586C7.78296 18.3333 6.57035 17.0236 5.72498 15.4859C5.72216 15.4828 5.72089 15.479 5.71859 15.477L3.86683 12.2856C3.86376 12.2825 3.86249 12.2797 3.85993 12.2756C2.94376 10.7781 2.40991 9.07785 2.47686 7.51359C2.54382 5.95164 3.1776 4.52768 4.67055 3.43211L5.34752 3.04546C5.36311 3.03651 5.36822 3.02961 5.38279 3.03115ZM5.38969 2.08022C5.21054 2.07741 5.02782 2.11498 4.8635 2.2103L4.14769 2.622C4.13159 2.6312 4.11676 2.64066 4.1022 2.64986C2.38001 3.91026 1.58702 5.6649 1.50959 7.47347C1.43215 9.28127 2.03578 11.1471 3.03295 12.7783L4.87858 15.9587L4.87423 15.9492C5.79551 17.6234 7.11571 19.0757 8.72903 19.9124C10.3431 20.7503 12.2659 20.9446 14.2245 20.0905C14.2406 20.0836 14.257 20.0759 14.2715 20.067L14.9884 19.6553C15.3198 19.4667 15.4864 19.0997 15.5135 18.7792C15.5414 18.4598 15.4762 18.1488 15.3773 17.8424C15.1836 17.2365 14.8458 16.6479 14.5667 16.2441C14.0395 15.3372 13.5304 14.7077 12.9421 14.3558C12.3492 14.0024 11.6375 14.0075 11.0569 14.3413L10.1676 14.8539C9.90484 15.0052 9.59766 14.9876 9.27439 14.8508C8.95264 14.7141 8.65466 14.4407 8.54401 14.249L6.34879 10.4658C6.23788 10.2731 6.14715 9.88004 6.19009 9.5335C6.23149 9.18799 6.37179 8.91736 6.63475 8.76581L7.49879 8.26901C7.52128 8.38478 7.5867 8.48981 7.68151 8.56035L12.3615 12.2373C12.6659 12.4765 13.0265 12.6096 13.3896 12.6306C13.408 12.6316 13.4269 12.6316 13.4456 12.6306C13.809 12.6096 14.1678 12.4762 14.4724 12.2373L20.918 7.1737V15.5391C20.918 15.6663 20.7729 15.834 20.4882 15.834H16.0259C15.7573 15.8324 15.5398 16.0491 15.5398 16.3162C15.5398 16.5827 15.7576 16.7995 16.0259 16.7979H20.4882C21.2175 16.7979 21.8878 16.2707 21.8878 15.5391V6.6332C21.8878 5.90104 21.2175 5.37408 20.4882 5.37408H8.16579C8.02932 5.03291 7.84915 4.6713 7.62222 4.27826C7.40985 3.83615 7.06536 3.25169 6.63424 2.78172C6.41651 2.54355 6.18165 2.33246 5.88802 2.19599V2.19727C5.7421 2.12827 5.56858 2.08406 5.38969 2.08022Z" fill="#ED1C24"/>
</svg>
