<svg width="24" height="24" viewBox="0 0 24 24" fill="none" xmlns="http://www.w3.org/2000/svg">
<path d="M8.16216 1.65855L8.48912 1.65775L8.61948 1.35789C8.83145 0.87031 9.31454 0.530725 9.8762 0.529351C10.4379 0.527978 10.9226 0.865195 11.137 1.35173L11.2688 1.65095L11.5957 1.65015L13.1289 1.6464L13.1332 3.39639C13.1336 3.53463 13.0221 3.64667 12.8838 3.647L6.88385 3.66168C6.74562 3.66202 6.63358 3.55052 6.63324 3.41229L6.62896 1.6623L8.16216 1.65855ZM3.04861 19.9211L3.04983 20.4211L3.54983 20.4199L10.7545 20.4023C10.7985 20.5715 10.8491 20.7382 10.906 20.9019L2.55106 20.9223L2.50397 1.67239L4.87897 1.66658L4.88111 2.54158L3.50611 2.54494L3.00611 2.54616L3.00733 3.04616L3.04861 19.9211ZM16.7573 3.01253L16.7561 2.51253L16.2561 2.51375L14.8811 2.51712L14.8789 1.64212L17.2539 1.63631L17.2799 12.2657C17.1971 12.263 17.1138 12.2617 17.0299 12.2619C16.9462 12.2621 16.8629 12.2638 16.7799 12.2672L16.7573 3.01253ZM19.5221 16.2947L19.1968 15.9703L18.8461 16.2671L16.6213 18.1497L15.3022 17.3568L14.9409 17.1396L14.6658 17.459L14.0406 18.1849L13.7286 18.5471L14.0765 18.875L16.3324 21.0016L16.6866 21.3354L17.0298 20.9905L20.2643 17.7401L20.6167 17.386L20.2629 17.0334L19.5221 16.2947ZM11.1296 1.90129C11.1279 1.21077 10.567 0.652662 9.87651 0.654351C9.18599 0.65604 8.62788 1.21689 8.62957 1.9074C8.63126 2.59792 9.19211 3.15603 9.88262 3.15434C10.5731 3.15265 11.1312 2.59181 11.1296 1.90129ZM8.52108 8.65769C8.51922 7.89846 9.13348 7.28119 9.89271 7.27933C10.6519 7.27747 11.2692 7.89173 11.2711 8.65096L11.2717 8.91903C11.2727 9.31437 11.1173 9.7392 10.853 10.0614C10.5906 10.3813 10.254 10.5639 9.90075 10.5647C9.54746 10.5656 9.20996 10.3846 8.94606 10.0661C8.68017 9.74516 8.5227 9.32109 8.52173 8.92576L8.52108 8.65769ZM6.43566 13.8399C6.47112 13.6576 6.60328 13.5049 6.78787 13.4404C7.43673 13.2201 8.5934 12.9075 9.90647 12.9043C11.2195 12.9011 12.3777 13.208 13.0276 13.4251C13.0924 13.4474 13.1503 13.4802 13.1997 13.5208C12.376 14.1237 11.7032 14.9177 11.2413 15.8368C10.8206 15.961 10.3754 16.0282 9.91411 16.0293C8.48265 16.0328 7.20104 15.4016 6.32822 14.4024L6.43556 13.8405C6.43559 13.8403 6.43563 13.8401 6.43566 13.8399ZM12.6699 18.3976C12.664 15.9812 14.6178 14.0178 17.0342 14.0119C19.4505 14.006 21.414 15.9598 21.4199 18.3762C21.4258 20.7925 19.4719 22.7559 17.0556 22.7619C14.6392 22.7678 12.6758 20.8139 12.6699 18.3976Z" fill="#ED1C24" stroke="#ED1C24"/>
</svg>
