<svg width="23" height="24" viewBox="0 0 23 24" fill="none" xmlns="http://www.w3.org/2000/svg">
<g clip-path="url(#clip0_5991_256238)">
<path d="M22.692 19.382L18.3258 12.301C18.1923 12.0845 17.9086 12.0171 17.6919 12.1507L17.4704 12.2872L16.4673 10.6605C18.3535 8.7389 18.7671 5.70564 17.292 3.31323C15.5567 0.499103 11.8554 -0.378626 9.04152 1.35657C8.357 1.77866 7.78739 2.31732 7.34176 2.93099H0.460719C0.206281 2.93099 0 3.13727 0 3.39171V21.6779C0 21.9324 0.206281 22.1386 0.460719 22.1386H12.5734C12.8278 22.1386 13.0341 21.9323 13.0341 21.6779C13.0341 21.4234 12.8278 21.2172 12.5734 21.2172H0.921482V3.85248H6.79124C5.93391 5.63408 5.97232 7.80286 7.08481 9.60706C8.21675 11.4428 10.185 12.4545 12.1982 12.4545C12.3703 12.4545 12.5427 12.4463 12.7149 12.4313V21.2172H8.70837C8.45394 21.2172 8.24766 21.4234 8.24766 21.6779C8.24766 21.9324 8.45394 22.1386 8.70837 22.1386H13.1756C13.4301 22.1386 13.6363 21.9323 13.6363 21.6779V12.2785C13.7649 12.2466 13.8928 12.2105 14.0199 12.1697L15.023 13.7963L14.8014 13.9329C14.5849 14.0665 14.5176 14.3503 14.6511 14.5669L19.0173 21.6478C19.4087 22.2826 20.0893 22.6325 20.7855 22.6325C21.1565 22.6325 21.532 22.5331 21.8703 22.3245L22.0154 22.235C22.9884 21.6349 23.292 20.3551 22.692 19.382ZM7.86914 9.12343C6.40065 6.74181 7.14348 3.60945 9.5251 2.14091C10.3532 1.63028 11.2719 1.38707 12.1801 1.38707C13.8837 1.38707 15.5497 2.24337 16.5076 3.79686C17.9761 6.17848 17.2333 9.31084 14.8517 10.7794C12.47 12.248 9.33773 11.5051 7.86914 9.12343ZM14.8839 11.8151C15.0365 11.7382 15.1872 11.655 15.3353 11.5637C15.4833 11.4724 15.6256 11.3755 15.7629 11.2737L16.6861 12.7709L15.8074 13.3127L14.8839 11.8151ZM17.7833 13.1768L20.932 18.2832L18.8259 19.5818L15.6773 14.4754L17.7833 13.1768ZM21.5317 21.4506L21.3867 21.5401C20.8461 21.8734 20.135 21.7048 19.8017 21.1642L19.3096 20.3661L21.4156 19.0675L21.9077 19.8656C22.241 20.4062 22.0724 21.1172 21.5317 21.4506Z" fill="#ED1C24"/>
<path d="M15.6362 4.33459C16.2041 5.25544 16.3793 6.34228 16.1296 7.39489C15.88 8.44755 15.2354 9.33997 14.3145 9.90769C13.6537 10.3152 12.9202 10.5094 12.1954 10.5094C10.8356 10.5094 9.50598 9.82607 8.74136 8.586C7.56922 6.68508 8.16214 4.185 10.0631 3.01286C11.9639 1.84071 14.464 2.43359 15.6362 4.33459Z" fill="#ED1C24"/>
<path d="M2.31912 7.76323H4.80698C5.06142 7.76323 5.2677 7.55695 5.2677 7.30252C5.2677 7.04803 5.06142 6.8418 4.80698 6.8418H2.31912C2.06468 6.8418 1.8584 7.04808 1.8584 7.30252C1.85835 7.55695 2.06468 7.76323 2.31912 7.76323Z" fill="#ED1C24"/>
<path d="M2.31912 11.4498H6.266C6.52043 11.4498 6.72672 11.2435 6.72672 10.989C6.72672 10.7346 6.52043 10.5283 6.266 10.5283H2.31912C2.06468 10.5283 1.8584 10.7346 1.8584 10.989C1.8584 11.2435 2.06468 11.4498 2.31912 11.4498Z" fill="#ED1C24"/>
<path d="M2.31912 15.1353H11.3345C11.589 15.1353 11.7953 14.929 11.7953 14.6746C11.7953 14.4201 11.589 14.2139 11.3345 14.2139H2.31912C2.06468 14.2139 1.8584 14.4201 1.8584 14.6746C1.8584 14.929 2.06468 15.1353 2.31912 15.1353Z" fill="#ED1C24"/>
<path d="M2.32009 18.9214H11.3355C11.5899 18.9214 11.7962 18.7152 11.7962 18.4607C11.7962 18.2063 11.5899 18 11.3355 18H2.32009C2.06566 18 1.85938 18.2063 1.85938 18.4607C1.85938 18.7152 2.06566 18.9214 2.32009 18.9214Z" fill="#ED1C24"/>
</g>
<defs>
<clipPath id="clip0_5991_256238">
<rect width="23" height="23" fill="white" transform="translate(0 0.0488281)"/>
</clipPath>
</defs>
</svg>
