<svg width="20" height="21" viewBox="0 0 20 21" fill="none" xmlns="http://www.w3.org/2000/svg">
<path d="M14.3328 20.4957H5.66618C2.2769 20.4957 0 18.1186 0 14.58V6.41245C0 2.87384 2.2769 0.495728 5.66618 0.495728H14.3338C17.7231 0.495728 20 2.87384 20 6.41245V14.58C20 18.1186 17.7231 20.4957 14.3328 20.4957Z" fill="#FDE8EB"/>
<path fill-rule="evenodd" clip-rule="evenodd" d="M9.2451 7.17075C9.2451 8.54075 8.1301 9.65575 6.7601 9.65575C5.3891 9.65575 4.2751 8.54075 4.2751 7.17075C4.2751 5.80075 5.3891 4.68475 6.7601 4.68475C8.1301 4.68475 9.2451 5.80075 9.2451 7.17075ZM17.4005 12.5834C17.6335 12.8094 17.8005 13.0674 17.9105 13.3424C18.2435 14.1744 18.0705 15.1744 17.7145 15.9984C17.2925 16.9794 16.4845 17.7204 15.4665 18.0444C15.0145 18.1894 14.5405 18.2514 14.0675 18.2514H5.6865C4.8525 18.2514 4.1145 18.0574 3.5095 17.6934C3.1305 17.4654 3.0635 16.9404 3.3445 16.5984C3.8145 16.0284 4.2785 15.4564 4.7465 14.8794C5.6385 13.7754 6.2395 13.4554 6.9075 13.7364C7.1785 13.8524 7.4505 14.0274 7.7305 14.2114C8.4765 14.7054 9.5135 15.3834 10.8795 14.6474C11.8132 14.1368 12.3552 13.2631 12.827 12.5027L12.8365 12.4874C12.8682 12.4365 12.8997 12.3856 12.9311 12.3349C13.0915 12.0757 13.2495 11.8204 13.4285 11.5854C13.6505 11.2944 14.4745 10.3844 15.5395 11.0324C16.2185 11.4404 16.7895 11.9924 17.4005 12.5834Z" fill="#ED1C24"/>
</svg>
