<svg width="24" height="25" viewBox="0 0 24 25" fill="none" xmlns="http://www.w3.org/2000/svg">
<path opacity="0.4" d="M18.8088 9.51673C18.3573 9.51673 17.7592 9.50673 17.0146 9.50673C15.1987 9.50673 13.7055 8.00373 13.7055 6.17073V2.95473C13.7055 2.70173 13.5026 2.49573 13.253 2.49573H7.96363C5.49517 2.49573 3.5 4.52173 3.5 7.00473V17.7797C3.5 20.3847 5.59022 22.4957 8.16958 22.4957H16.0453C18.5058 22.4957 20.5 20.4827 20.5 17.9977V9.96673C20.5 9.71273 20.298 9.50773 20.0465 9.50873C19.6247 9.51173 19.1168 9.51673 18.8088 9.51673Z" fill="#FDE8EB"/>
<path opacity="0.4" d="M16.0842 3.06304C15.7852 2.75204 15.2632 2.96604 15.2632 3.39704V6.03404C15.2632 7.14004 16.1742 8.05004 17.2792 8.05004C17.9772 8.05804 18.9452 8.06004 19.7672 8.05804C20.1882 8.05704 20.4022 7.55404 20.1102 7.25004C19.0552 6.15304 17.1662 4.18704 16.0842 3.06304Z" fill="#FDE8EB"/>
<path d="M14.3672 12.732H12.6392V11.005C12.6392 10.594 12.3062 10.26 11.8952 10.26C11.4842 10.26 11.1502 10.594 11.1502 11.005V12.732H9.4232C9.0122 12.732 8.6792 13.066 8.6792 13.477C8.6792 13.888 9.0122 14.222 9.4232 14.222H11.1502V15.948C11.1502 16.359 11.4842 16.693 11.8952 16.693C12.3062 16.693 12.6392 16.359 12.6392 15.948V14.222H14.3672C14.7782 14.222 15.1122 13.888 15.1122 13.477C15.1122 13.066 14.7782 12.732 14.3672 12.732Z" fill="#ED1C24"/>
</svg>
