<svg width="289" height="7" viewBox="0 0 289 7" fill="none" xmlns="http://www.w3.org/2000/svg">
<path d="M0.638672 6L6.3943 1L12.1499 6L17.9056 1L23.6612 6L29.4168 1L35.1725 6L40.9281 1L46.6837 6L52.4394 1L58.195 6L63.9506 1L69.7062 6L75.4619 1L81.2175 6L86.9731 1L92.7288 6L98.4844 1L104.24 6L109.996 1L115.751 6L121.507 1L127.263 6L133.018 1L138.774 6L144.529 1L150.285 6L156.041 1L161.796 6L167.552 1L173.308 6L179.063 1L184.819 6L190.574 1L196.33 6L202.086 1L207.841 6L213.597 1L219.353 6L225.108 1L230.864 6L236.62 1L242.375 6L248.131 1L253.886 6L259.642 1L265.398 6L271.153 1L276.909 6L282.665 1L288.42 6" stroke="#CCCCCC"/>
</svg>
