<svg width="28" height="24" viewBox="0 0 28 24" fill="none" xmlns="http://www.w3.org/2000/svg">
<path fill-rule="evenodd" clip-rule="evenodd" d="M27.3289 7.16684H21.6827C19.0551 7.17146 16.9265 9.24686 16.9218 11.8088C16.9183 14.3764 19.0492 16.4611 21.6827 16.4645H27.3337V16.8725C27.3337 21.3514 24.6184 24 20.0234 24H7.9784C3.38225 24 0.666992 21.3514 0.666992 16.8725V7.11715C0.666992 2.63816 3.38225 0 7.9784 0H20.0187C24.6137 0 27.3289 2.63816 27.3289 7.11715V7.16684ZM6.9864 7.15644H14.5064H14.5111H14.5206C15.0836 7.15412 15.5387 6.70692 15.5363 6.15687C15.534 5.60797 15.0741 5.16424 14.5111 5.16655H6.9864C6.42699 5.16886 5.97307 5.61144 5.9707 6.15802C5.96833 6.70692 6.42344 7.15412 6.9864 7.15644Z" fill="#FDE8EB"/>
<path d="M19.3839 12.3955C19.6627 13.6638 20.7746 14.556 22.0441 14.5328H26.3773C26.9055 14.5328 27.334 14.0954 27.334 13.5547V10.1793C27.3329 9.63972 26.9055 9.20111 26.3773 9.19995H21.9421C20.4981 9.20459 19.3317 10.4032 19.334 11.8803C19.334 12.0532 19.351 12.2261 19.3839 12.3955Z" fill="#ED1C24"/>
<ellipse cx="22.0003" cy="11.8667" rx="1.33333" ry="1.33333" fill="white"/>
</svg>
