<svg width="21" height="21" viewBox="0 0 21 21" fill="none" xmlns="http://www.w3.org/2000/svg">
<path d="M10.4004 0.400391C4.87753 0.400391 0.400391 4.87753 0.400391 10.4004C0.400391 15.9232 4.87753 20.4004 10.4004 20.4004C15.9232 20.4004 20.4004 15.9232 20.4004 10.4004C20.4004 4.87753 15.9232 0.400391 10.4004 0.400391ZM9.16883 4.79831C9.16883 4.47286 9.29811 4.16074 9.52824 3.93061C9.75837 3.70048 10.0705 3.57119 10.3959 3.57119C10.7214 3.57119 11.0335 3.70048 11.2636 3.93061C11.4938 4.16074 11.6231 4.47286 11.6231 4.79831V11.9032C11.6231 12.2286 11.4938 12.5407 11.2637 12.7709C11.0335 13.001 10.7214 13.1303 10.3959 13.1303C10.0705 13.1303 9.75837 13.001 9.52824 12.7709C9.29811 12.5407 9.16883 12.2286 9.16883 11.9032V4.79831ZM11.4763 16.7805C11.2282 17.0253 10.9029 17.1766 10.5558 17.2086C10.2087 17.2406 9.86118 17.1515 9.57241 16.9562C9.28364 16.7609 9.07143 16.4717 8.97185 16.1376C8.87227 15.8036 8.89149 15.4453 9.02622 15.1239C9.16095 14.8024 9.40289 14.5375 9.71088 14.3742C10.0189 14.211 10.3739 14.1595 10.7156 14.2284C11.0573 14.2974 11.3645 14.4826 11.5851 14.7525C11.8057 15.0224 11.9259 15.3604 11.9254 15.709C11.9271 15.9087 11.8881 16.1067 11.8109 16.2909C11.7337 16.4751 11.6199 16.6417 11.4763 16.7805V16.7805Z" fill="#FBB559"/>
</svg>
