<svg width="14" height="12" viewBox="0 0 14 12" fill="none" xmlns="http://www.w3.org/2000/svg">
<path d="M4.5651 -0.000146459C4.97746 0.0119542 5.37673 0.0814267 5.76356 0.208372H5.80218C5.82836 0.220372 5.848 0.233635 5.86109 0.245635C6.00574 0.290476 6.14254 0.341001 6.27345 0.410474L6.52217 0.517841C6.62035 0.568366 6.73817 0.66247 6.80363 0.700995C6.86908 0.738258 6.94108 0.776784 6.99999 0.820362C7.72718 0.28416 8.61015 -0.0063613 9.51996 -0.000146459C9.93297 -0.000146459 10.3453 0.056164 10.7374 0.183109C13.1533 0.940991 14.0238 3.49884 13.2966 5.7346C12.8843 6.8771 12.2101 7.91982 11.3271 8.77181C10.0632 9.95284 8.67626 11.0012 7.18326 11.9044L7.01962 11.9998L6.84944 11.8981C5.3512 11.0012 3.95638 9.95284 2.68069 8.76549C1.8036 7.91351 1.12878 6.8771 0.709871 5.7346C-0.0297579 3.49884 0.840779 0.940991 3.28286 0.169846C3.47268 0.106689 3.66839 0.0624797 3.86475 0.0378485H3.94329C4.12722 0.0119542 4.30983 -0.000146459 4.4931 -0.000146459H4.5651ZM10.397 1.99571C10.1287 1.90666 13.9546 2.39985 11.5 4.79985C9.0455 7.19985 9.78832 2.86728 10.0632 2.96138C10.4828 3.11296 10.7636 3.51148 10.7636 3.95294V3.97252C10.7511 4.11715 10.7963 4.25673 10.8879 4.36409C10.9796 4.47146 11.117 4.53398 11.261 4.54725C11.5294 4.5403 11.7585 4.33251 11.7781 4.06662V3.99147C11.7978 3.10664 11.2421 2.30518 10.397 1.99571Z" fill="white"/>
</svg>
