<svg width="307" height="28" viewBox="0 0 307 28" fill="none" xmlns="http://www.w3.org/2000/svg">
<g clip-path="url(#clip0_5889_129948)">
<path d="M20.2379 5.52823C21.1387 3.54376 21.9471 2.1906 22.6632 1.46877C22.8575 1.2728 23.0903 1.11844 23.3471 1.01524C23.6039 0.912031 23.8793 0.862172 24.1563 0.868738C24.4171 0.869805 24.6748 0.924578 24.9132 1.02959C25.1516 1.13461 25.3655 1.28758 25.5412 1.47883C25.7253 1.67368 25.8612 1.90842 25.938 2.16444C26.0148 2.42046 26.0305 2.69071 25.9837 2.95378C25.9117 3.51694 25.5525 4.74606 24.9062 6.64114C24.8566 6.76853 24.547 7.79652 23.9772 9.72512C23.0765 12.7219 22.5945 14.9567 22.5315 16.4294C22.4594 18.1167 23.0821 19.4173 24.3995 20.3313C25.1199 20.7901 25.9371 21.078 26.7877 21.1727C27.6886 21.2926 28.604 21.2506 29.49 21.0487C30.0681 20.8764 30.6889 20.912 31.2431 21.1493C31.5205 21.2604 31.7713 21.4278 31.9796 21.6408C32.1878 21.8539 32.3489 22.1078 32.4524 22.3862C32.5575 22.6557 32.6045 22.9441 32.5906 23.2327C32.5766 23.5214 32.5019 23.804 32.3714 24.0623C32.1069 24.589 31.6486 24.9947 31.0911 25.1953C29.7159 25.7731 28.2241 26.0256 26.7336 25.9328C25.2881 25.8612 23.8713 25.5057 22.5653 24.8869C21.2851 24.2663 20.1619 23.3681 19.2785 22.2588C18.3562 21.1365 17.7408 19.7973 17.4916 18.3703C17.2549 16.9564 17.2801 15.5114 17.5659 14.1064C17.8026 12.6897 18.1493 11.2933 18.603 9.9296C19.061 8.43212 19.6069 6.96249 20.2379 5.52823Z" fill="white"/>
<path d="M50.9232 9.59751C50.9779 9.86448 50.9691 10.1404 50.8976 10.4034C50.826 10.6664 50.6937 10.9093 50.5111 11.1127C50.3448 11.3409 50.1313 11.5314 49.8849 11.6713C49.6385 11.8111 49.3649 11.8973 49.0823 11.9239C48.1567 12.068 46.9136 12.2591 45.9205 12.3798C46.0396 13.4429 46.1027 14.5115 46.1097 15.5811C46.1097 16.0906 46.1097 16.6538 46.1097 17.2002C46.1094 17.7704 46.0642 18.3398 45.9746 18.9031C45.8526 19.493 45.6912 20.0742 45.4915 20.6429C45.3083 21.1972 45.0491 21.724 44.7214 22.2083C44.489 22.5652 44.1568 22.8471 43.7654 23.0195C43.3606 23.2284 42.9071 23.3267 42.4514 23.3045C42.2755 23.2969 42.1041 23.2472 41.9517 23.1597C41.7994 23.0721 41.6707 22.9493 41.5765 22.8016C41.4413 22.64 41.3415 22.4522 41.2834 22.2502C41.2252 22.0483 41.21 21.8365 41.2387 21.6284C41.313 20.3981 41.7522 18.9768 41.8231 17.4818C41.8599 16.173 41.8159 14.8632 41.6914 13.5598C41.6677 13.2916 41.6238 12.8893 41.5833 12.6212C40.5429 12.5776 39.6275 12.2859 39.1782 11.3406C39.0865 11.1711 39.0386 10.9816 39.0386 10.7892C39.0386 10.5968 39.0865 10.4073 39.1782 10.2378C39.3558 9.89714 39.6355 9.61957 39.9788 9.44331C40.2085 9.31351 40.4586 9.22286 40.7185 9.17514C40.8294 9.15078 40.9428 9.13953 41.0563 9.14162H40.8976C41.0597 9.1081 41.2354 9.08463 41.384 9.05782C41.3655 7.9286 41.495 6.80178 41.7691 5.70566C42.0868 4.54656 42.6195 3.45637 43.3398 2.49095C44.0257 1.55347 44.9616 0.824439 46.0421 0.385798C46.4999 0.177597 46.9947 0.06151 47.498 0.0442487C48.0013 0.0269874 48.503 0.108894 48.9742 0.285233C49.4417 0.449402 49.8663 0.715205 50.217 1.0632C50.5676 1.41119 50.8355 1.83258 51.0009 2.29652C51.0688 2.43084 51.1079 2.57768 51.1157 2.72775C51.1234 2.87782 51.0998 3.02786 51.0461 3.16838C50.9925 3.3089 50.91 3.43684 50.804 3.54411C50.6979 3.65138 50.5706 3.73565 50.4301 3.79158C50.1775 3.95617 49.87 4.01572 49.5737 3.95741C49.2773 3.8991 49.0159 3.72758 48.8458 3.47983C48.8458 3.47983 48.8458 3.44631 48.8087 3.4329C48.7597 3.41672 48.7083 3.40879 48.6566 3.40944C48.5791 3.40278 48.5011 3.40278 48.4236 3.40944C48.186 3.41029 47.9492 3.43727 47.7176 3.48989C47.196 3.68968 46.7675 4.07425 46.515 4.56928C45.9172 5.57493 45.7246 6.97948 45.7111 8.19631C46.6873 8.0924 47.6061 7.91473 48.5958 7.77059C48.8622 7.73099 49.1341 7.74882 49.3929 7.82287C49.6517 7.89691 49.8914 8.02542 50.0956 8.19966C50.5322 8.55147 50.8261 9.04784 50.9232 9.59751Z" fill="white"/>
<path d="M38.6608 18.3566C38.5182 19.3462 38.1733 20.2964 37.6474 21.149C37.009 22.2585 34.8775 24.0452 33.8 22.3155C33.3304 21.5613 33.6682 20.5959 33.8 20.2238C34.0105 19.7241 34.1877 19.2113 34.3303 18.6885C34.5937 17.8859 34.7193 17.0451 34.7019 16.2012C34.7019 16.114 34.6681 15.9699 34.6512 15.866C34.6343 15.7621 34.6039 15.6313 34.5228 15.2827C34.3211 14.654 34.0622 14.0447 33.7493 13.4625C33.5095 12.9362 33.3372 12.4099 33.1784 11.9507C32.7393 10.6668 33.1413 9.60416 34.4891 9.03095C34.9991 8.80635 36.205 8.77283 36.9718 10.1774C37.3299 10.8478 37.8839 12.1149 38.1237 12.5809C39.029 14.3039 38.8635 16.942 38.6608 18.3566Z" fill="white"/>
<path d="M33.0053 7.35651C34.3746 7.35651 35.4847 6.25491 35.4847 4.89603C35.4847 3.53714 34.3746 2.43555 33.0053 2.43555C31.6359 2.43555 30.5259 3.53714 30.5259 4.89603C30.5259 6.25491 31.6359 7.35651 33.0053 7.35651Z" fill="white"/>
<path d="M56.5521 15.9757C57.5076 15.9034 58.4575 15.7712 59.3963 15.5802C60.153 15.4092 60.9062 15.198 61.6629 14.9466C61.7406 14.9232 61.9196 14.8729 62.2067 14.7991C62.4939 14.7254 62.71 14.6617 62.8519 14.6114C62.9938 14.5611 63.1897 14.4941 63.3991 14.4069C63.602 14.3268 63.7985 14.2315 63.9869 14.122C64.1492 14.0279 64.3 13.9154 64.4362 13.7868C64.8716 13.4433 65.162 12.9507 65.2502 12.4057C65.3211 11.8959 65.2164 11.3774 64.953 10.9341C64.6893 10.4727 64.3743 10.042 64.0139 9.65023C63.6605 9.26561 63.2739 8.9123 62.8587 8.5943C61.6039 7.66206 60.1052 7.10811 58.5417 6.99868C57.0025 6.82854 55.4526 7.2089 54.1707 8.07137C52.6573 9.05913 51.7723 10.5564 51.5156 12.5633C51.2769 14.1735 51.4607 15.8176 52.0493 17.3367C52.5979 18.7638 53.6898 19.9196 55.0894 20.5548C56.6062 21.2664 58.2947 21.5383 59.9604 21.3392C62.3722 21.1157 63.9632 20.2833 64.7334 18.8418C64.9436 18.4593 65.0163 18.0171 64.9395 17.5881C64.8742 17.148 64.6392 16.7502 64.2841 16.4786C63.9224 16.2084 63.4764 16.0731 63.0242 16.0964C62.6982 16.0867 62.3762 16.1691 62.0957 16.3341C61.8152 16.4991 61.5878 16.7399 61.4399 17.0283C57.3087 18.5435 55.7144 16.1601 55.6164 16.0227C55.9542 16.0059 56.265 15.9992 56.5521 15.9757ZM55.4205 12.5633C55.4205 12.5633 55.4002 11.2861 56.9304 10.9073C58.4606 10.5285 59.6328 10.9073 60.2577 11.457C58.6891 11.9941 57.0677 12.3649 55.4205 12.5633Z" fill="white"/>
<path d="M66.4272 20.305L68.8357 15.7393C70.7262 16.8466 72.8796 17.4343 75.0747 17.4422C76.686 17.4422 77.5338 17.0232 77.5338 16.3662C77.5338 14.4253 68.7276 15.555 68.7276 9.85967C68.7276 5.68959 72.244 2.96094 78.0878 2.96094C80.8375 2.96094 83.2966 3.51069 85.0159 4.5331L82.7696 9.04845C81.2404 8.1371 79.4864 7.66479 77.7027 7.68412C75.8787 7.68412 74.9801 8.28751 74.9801 8.91436C74.9801 10.9257 83.81 9.65183 83.81 15.317C83.81 19.41 80.2125 22.1654 74.4498 22.1654C71.1361 22.1755 68.2007 21.381 66.4272 20.305Z" fill="white"/>
<path d="M97.4174 18.5479H90.3575L88.5064 21.7493H81.9229L93.7152 3.38281H99.8495L104.241 21.7493H98.0254L97.4174 18.5479ZM96.5425 14.0862L95.644 9.39322L92.9214 14.0862H96.5425Z" fill="white"/>
<path d="M123.871 3.38281L112.342 21.7493H106.207L102.083 3.38281H108.481L110.781 14.0862L117.469 3.38281H123.871Z" fill="white"/>
<path d="M129.14 8.05236L128.718 10.2044H136.538L135.636 14.6662H127.789L127.313 17.0797H136.592L135.639 21.7493H120.25L123.965 3.38281H139.01L138.058 8.05236H129.14Z" fill="white"/>
<path d="M152.216 16.3956L155.307 21.759H148.832L146.214 17.1398H144.677L143.751 21.759H137.516L141.231 3.39258H149.531C154.422 3.39258 157.226 5.62176 157.226 9.42645C157.212 12.6982 155.361 15.2156 152.216 16.3956ZM148.568 8.15934H146.477L145.606 12.4568H148.17C149.889 12.4568 150.892 11.5651 150.892 10.0164C150.892 8.70909 149.994 8.15934 148.568 8.15934Z" fill="white"/>
</g>
<defs>
<clipPath id="clip0_5889_129948">
<rect width="307" height="26.8252" fill="white" transform="translate(0 0.329102)"/>
</clipPath>
</defs>
</svg>
