<svg xmlns="http://www.w3.org/2000/svg" height="20" width="20"><path d="M8.75 14.917H5.958q-2.041 0-3.479-1.438Q1.042 12.042 1.042 10q0-2.062 1.437-3.49 1.438-1.427 3.479-1.427H8.75V7.75H5.958q-.937 0-1.593.656-.657.656-.657 1.594 0 .938.657 1.594.656.656 1.593.656H8.75Zm-2.354-3.896V8.979h7.208v2.042Zm4.854 3.896V12.25h2.792q.937 0 1.593-.656.657-.656.657-1.594 0-.938-.657-1.594-.656-.656-1.593-.656H11.25V5.083h2.792q2.041 0 3.479 1.438Q18.958 7.958 18.958 10q0 2.062-1.437 3.49-1.438 1.427-3.479 1.427Z" fill="white"/></svg>