<svg width="83" height="82" viewBox="0 0 83 82" fill="none" xmlns="http://www.w3.org/2000/svg">
<g filter="url(#filter0_i_377_77048)">
<path fill-rule="evenodd" clip-rule="evenodd" d="M62.628 6.7054C62.756 6.83337 62.8402 6.99851 62.8687 7.17723C63.2218 11.3514 62.8618 15.5553 61.8041 19.6087L49.8363 7.51206C53.8536 6.46544 58.0199 6.11123 62.1561 6.46466C62.3349 6.49317 62.5 6.57742 62.628 6.7054ZM32.1076 19.0918L20.5175 37.6188C20.4139 37.7836 20.3693 37.9787 20.3912 38.1721C20.413 38.3655 20.4999 38.5458 20.6377 38.6833L30.6481 48.6937C30.7276 48.7748 30.8224 48.8394 30.927 48.8836C31.0317 48.9278 31.144 48.9508 31.2576 48.9513C31.4196 48.9522 31.5782 48.9043 31.7126 48.8139L50.2997 37.1723C55.5393 33.2492 59.3917 27.7577 61.2974 21.4957L47.9473 8.03406C41.6229 9.93562 36.0725 13.8103 32.1076 19.0918Z" fill="url(#paint0_linear_377_77048)"/>
</g>
<g filter="url(#filter1_bdiii_377_77048)">
<path d="M-nan -nanL22.1999 45.8102L17.9073 50.1028C17.8268 50.1826 17.7629 50.2776 17.7193 50.3822C17.6758 50.4868 17.6533 50.599 17.6533 50.7124C17.6533 50.8257 17.6758 50.9379 17.7193 51.0425C17.7629 51.1472 17.8268 51.2421 17.9073 51.3219C17.9875 51.4015 18.0826 51.4644 18.1872 51.5072C18.2918 51.5499 18.4038 51.5715 18.5168 51.5709C18.742 51.5699 18.9579 51.4805 19.1178 51.3219L23.4104 47.0293C23.4909 46.9495 23.5547 46.8545 23.5983 46.7499C23.6419 46.6453 23.6644 46.5331 23.6644 46.4198C23.6644 46.3064 23.6419 46.1942 23.5983 46.0896C23.5547 45.985 23.4909 45.89 23.4104 45.8102C23.2495 45.6503 23.032 45.5605 22.8051 45.5605C22.5783 45.5605 22.3607 45.6503 22.1999 45.8102L-nan -nanZ" fill="url(#paint1_linear_377_77048)" fill-opacity="0.21"/>
<path d="M-nan -nanL22.1999 45.8102L17.9073 50.1028C17.8268 50.1826 17.7629 50.2776 17.7193 50.3822C17.6758 50.4868 17.6533 50.599 17.6533 50.7124C17.6533 50.8257 17.6758 50.9379 17.7193 51.0425C17.7629 51.1472 17.8268 51.2421 17.9073 51.3219C17.9875 51.4015 18.0826 51.4644 18.1872 51.5072C18.2918 51.5499 18.4038 51.5715 18.5168 51.5709C18.742 51.5699 18.9579 51.4805 19.1178 51.3219L23.4104 47.0293C23.4909 46.9495 23.5547 46.8545 23.5983 46.7499C23.6419 46.6453 23.6644 46.5331 23.6644 46.4198C23.6644 46.3064 23.6419 46.1942 23.5983 46.0896C23.5547 45.985 23.4909 45.89 23.4104 45.8102C23.2495 45.6503 23.032 45.5605 22.8051 45.5605C22.5783 45.5605 22.3607 45.6503 22.1999 45.8102L-nan -nanZ" fill="#D7FFC2" fill-opacity="0.1"/>
</g>
<g filter="url(#filter2_bdii_377_77048)">
<path fill-rule="evenodd" clip-rule="evenodd" d="M21.8973 38.015C21.9039 38.0083 21.9049 37.998 21.8997 37.9902C21.8949 37.9829 21.8954 37.9732 21.9013 37.9666C21.9764 37.8819 22.0676 37.8128 22.1697 37.7634C22.2762 37.7119 22.3922 37.6829 22.5104 37.6784C22.6287 37.6738 22.7466 37.6937 22.8568 37.7369C22.9669 37.7801 23.067 37.8455 23.1507 37.9292C23.2343 38.0129 23.2998 38.1129 23.3429 38.2231C23.3861 38.3333 23.406 38.4512 23.4015 38.5694C23.3969 38.6876 23.3679 38.8036 23.3164 38.9102C23.2649 39.0167 23.1919 39.1114 23.102 39.1883L21.1875 41.1029C21.0354 41.2721 20.8223 41.374 20.5951 41.3862C20.4253 41.3855 20.2596 41.3344 20.1188 41.2395C19.978 41.1446 19.8685 41.01 19.8042 40.8529C19.7399 40.6958 19.7236 40.5231 19.7574 40.3567C19.7912 40.1903 19.8736 40.0377 19.9942 39.9181L21.8973 38.015ZM12.7061 55.1371L18.6128 49.2047C18.7744 49.0396 18.995 48.9456 19.2261 48.9431C19.4571 48.9407 19.6797 49.0302 19.8447 49.1918C20.0098 49.3535 20.1039 49.5741 20.1063 49.8052C20.1087 50.0362 20.0193 50.2588 19.8576 50.4238L13.9166 56.3562C13.755 56.5167 13.5362 56.6065 13.3083 56.6057C13.0805 56.6049 12.8623 56.5136 12.7018 56.3519C12.5413 56.1903 12.4516 55.9715 12.4524 55.7436C12.4532 55.5158 12.5444 55.2976 12.7061 55.1371ZM25.3866 43.0079C25.3918 43.0157 25.3908 43.026 25.3842 43.0326L23.4811 44.9358C23.3605 45.0553 23.2781 45.208 23.2443 45.3744C23.2105 45.5407 23.2268 45.7134 23.2911 45.8706C23.3554 46.0277 23.4649 46.1622 23.6057 46.2572C23.7465 46.3521 23.9122 46.4031 24.082 46.4038C24.3092 46.3916 24.5223 46.2897 24.6744 46.1205L26.5889 44.206C26.6788 44.1291 26.7518 44.0343 26.8033 43.9278C26.8548 43.8213 26.8838 43.7053 26.8884 43.5871C26.8929 43.4688 26.873 43.3509 26.8299 43.2408C26.7867 43.1306 26.7212 43.0305 26.6376 42.9469C26.5539 42.8632 26.4538 42.7977 26.3437 42.7546C26.2335 42.7114 26.1156 42.6915 25.9974 42.696C25.8791 42.7006 25.7631 42.7296 25.6566 42.7811C25.5545 42.8305 25.4633 42.8996 25.3882 42.9843C25.3823 42.9909 25.3818 43.0006 25.3866 43.0079ZM29.9336 46.0502C29.9399 46.0437 29.95 46.0427 29.9575 46.0477C29.9649 46.0526 29.9748 46.0517 29.9813 46.0455C30.1418 45.8917 30.3559 45.806 30.5786 45.8068C30.8064 45.8076 31.0245 45.8988 31.1851 46.0605C31.3456 46.2222 31.4353 46.441 31.4345 46.6688C31.4337 46.8966 31.3424 47.1148 31.1808 47.2753L29.2663 49.1898C29.1064 49.3484 28.8905 49.4378 28.6653 49.4388C28.5523 49.4394 28.4403 49.4178 28.3357 49.3751C28.2311 49.3323 28.136 49.2694 28.0557 49.1898C27.9753 49.11 27.9114 49.015 27.8678 48.9104C27.8242 48.8058 27.8018 48.6936 27.8018 48.5803C27.8018 48.4669 27.8242 48.3547 27.8678 48.2501C27.9114 48.1455 27.9753 48.0505 28.0557 47.9707L29.9336 46.0502ZM24.3208 51.6716L20.7923 55.1916C20.7118 55.2714 20.6479 55.3663 20.6043 55.471C20.5608 55.5756 20.5383 55.6878 20.5383 55.8011C20.5383 55.9145 20.5608 56.0267 20.6043 56.1313C20.6479 56.2359 20.7118 56.3309 20.7923 56.4107C20.8725 56.4902 20.9676 56.5532 21.0722 56.5959C21.1768 56.6386 21.2888 56.6603 21.4018 56.6597C21.5148 56.6603 21.6268 56.6386 21.7314 56.5959C21.836 56.5532 21.9311 56.4902 22.0114 56.4107L25.5313 52.8821C25.672 52.7179 25.7455 52.5066 25.7371 52.2906C25.7288 52.0745 25.6392 51.8695 25.4863 51.7166C25.3334 51.5638 25.1284 51.4742 24.9124 51.4658C24.6963 51.4575 24.485 51.531 24.3208 51.6716ZM11.5933 47.9327L15.1218 44.4127C15.2861 44.2721 15.4973 44.1986 15.7134 44.2069C15.9295 44.2153 16.1344 44.3048 16.2873 44.4577C16.4402 44.6106 16.5298 44.8156 16.5382 45.0317C16.5465 45.2477 16.473 45.459 16.3324 45.6232L12.8124 49.1518C12.7322 49.2313 12.637 49.2943 12.5324 49.337C12.4278 49.3797 12.3158 49.4014 12.2029 49.4007C12.0899 49.4014 11.9779 49.3797 11.8733 49.337C11.7687 49.2943 11.6735 49.2313 11.5933 49.1518C11.5128 49.072 11.449 48.977 11.4054 48.8724C11.3618 48.7678 11.3394 48.6556 11.3394 48.5422C11.3394 48.4289 11.3618 48.3167 11.4054 48.212C11.449 48.1074 11.5128 48.0125 11.5933 47.9327Z" fill="url(#paint2_linear_377_77048)" fill-opacity="0.1"/>
</g>
<g filter="url(#filter3_i_377_77048)">
<path fill-rule="evenodd" clip-rule="evenodd" d="M62.6271 6.7054C62.755 6.83337 62.8393 6.99851 62.8678 7.17723C63.2208 11.3514 62.8608 15.5553 61.8032 19.6087L49.8354 7.51206C53.8527 6.46544 58.0189 6.11123 62.1552 6.46466C62.3339 6.49317 62.4991 6.57742 62.6271 6.7054ZM32.1071 19.0918L20.517 37.6188C20.4134 37.7836 20.3688 37.9787 20.3907 38.1721C20.4125 38.3655 20.4994 38.5458 20.6372 38.6833L30.6476 48.6937C30.7271 48.7748 30.8219 48.8394 30.9265 48.8836C31.0312 48.9278 31.1435 48.9508 31.2571 48.9513C31.4192 48.9522 31.5777 48.9043 31.7122 48.8139L50.2992 37.1723C55.5388 33.2492 59.3912 27.7577 61.2969 21.4957L47.9468 8.03406C41.6224 9.93562 36.072 13.8103 32.1071 19.0918Z" fill="url(#paint3_linear_377_77048)"/>
</g>
<g filter="url(#filter4_biii_377_77048)">
<path d="M37.1723 44.092C35.6217 45.371 35.0561 47.4514 35.2527 49.4518C35.5837 52.8194 34.9186 56.2368 33.3015 59.2645C33.1982 59.4322 33.1557 59.6303 33.1811 59.8257C33.2065 60.021 33.2983 60.2016 33.4411 60.3372C33.5326 60.4219 33.6415 60.4857 33.7601 60.5241C33.8787 60.5625 34.0043 60.5745 34.128 60.5595C34.2708 60.5416 34.4067 60.4882 34.5234 60.4041C38.6727 57.4282 46.4977 50.8656 48.3477 42.6402C49.1427 39.1056 45.0317 37.6091 42.2369 39.9144L37.1723 44.092Z" fill="url(#paint4_linear_377_77048)" fill-opacity="0.09"/>
<path d="M37.1723 44.092C35.6217 45.371 35.0561 47.4514 35.2527 49.4518C35.5837 52.8194 34.9186 56.2368 33.3015 59.2645C33.1982 59.4322 33.1557 59.6303 33.1811 59.8257C33.2065 60.021 33.2983 60.2016 33.4411 60.3372C33.5326 60.4219 33.6415 60.4857 33.7601 60.5241C33.8787 60.5625 34.0043 60.5745 34.128 60.5595C34.2708 60.5416 34.4067 60.4882 34.5234 60.4041C38.6727 57.4282 46.4977 50.8656 48.3477 42.6402C49.1427 39.1056 45.0317 37.6091 42.2369 39.9144L37.1723 44.092Z" fill="#506943" fill-opacity="0.05"/>
</g>
<g filter="url(#filter5_biii_377_77048)">
<path d="M25.6613 33.0844C24.3469 34.6052 22.2541 35.1228 20.2587 34.8802C16.8996 34.4718 13.4679 35.0581 10.4037 36.6051C10.2336 36.7045 10.0346 36.7424 9.83993 36.7125C9.64527 36.6826 9.4668 36.5867 9.33447 36.4408C9.2519 36.3474 9.19066 36.2371 9.15502 36.1176C9.11937 35.9982 9.11019 35.8724 9.12809 35.749C9.14922 35.6067 9.20576 35.472 9.2925 35.3573C12.3631 31.2775 19.104 23.6056 27.3698 21.9453C30.9218 21.2319 32.3233 25.3762 29.9543 28.1172L25.6613 33.0844Z" fill="url(#paint5_linear_377_77048)" fill-opacity="0.09"/>
<path d="M25.6613 33.0844C24.3469 34.6052 22.2541 35.1228 20.2587 34.8802C16.8996 34.4718 13.4679 35.0581 10.4037 36.6051C10.2336 36.7045 10.0346 36.7424 9.83993 36.7125C9.64527 36.6826 9.4668 36.5867 9.33447 36.4408C9.2519 36.3474 9.19066 36.2371 9.15502 36.1176C9.11937 35.9982 9.11019 35.8724 9.12809 35.749C9.14922 35.6067 9.20576 35.472 9.2925 35.3573C12.3631 31.2775 19.104 23.6056 27.3698 21.9453C30.9218 21.2319 32.3233 25.3762 29.9543 28.1172L25.6613 33.0844Z" fill="#506943" fill-opacity="0.05"/>
</g>
<g filter="url(#filter6_bdiii_377_77048)">
<path d="M-nan -nanL22.1994 45.8102L17.9068 50.1028C17.8263 50.1826 17.7624 50.2776 17.7189 50.3822C17.6753 50.4868 17.6528 50.599 17.6528 50.7124C17.6528 50.8257 17.6753 50.9379 17.7189 51.0425C17.7624 51.1472 17.8263 51.2421 17.9068 51.3219C17.987 51.4015 18.0821 51.4644 18.1867 51.5072C18.2913 51.5499 18.4033 51.5715 18.5163 51.5709C18.7416 51.5699 18.9574 51.4805 19.1173 51.3219L23.4099 47.0293C23.4904 46.9495 23.5543 46.8545 23.5978 46.7499C23.6414 46.6453 23.6639 46.5331 23.6639 46.4198C23.6639 46.3064 23.6414 46.1942 23.5978 46.0896C23.5543 45.985 23.4904 45.89 23.4099 45.8102C23.2491 45.6503 23.0315 45.5605 22.8047 45.5605C22.5778 45.5605 22.3603 45.6503 22.1994 45.8102L-nan -nanZ" fill="url(#paint6_linear_377_77048)" fill-opacity="0.21"/>
<path d="M-nan -nanL22.1994 45.8102L17.9068 50.1028C17.8263 50.1826 17.7624 50.2776 17.7189 50.3822C17.6753 50.4868 17.6528 50.599 17.6528 50.7124C17.6528 50.8257 17.6753 50.9379 17.7189 51.0425C17.7624 51.1472 17.8263 51.2421 17.9068 51.3219C17.987 51.4015 18.0821 51.4644 18.1867 51.5072C18.2913 51.5499 18.4033 51.5715 18.5163 51.5709C18.7416 51.5699 18.9574 51.4805 19.1173 51.3219L23.4099 47.0293C23.4904 46.9495 23.5543 46.8545 23.5978 46.7499C23.6414 46.6453 23.6639 46.5331 23.6639 46.4198C23.6639 46.3064 23.6414 46.1942 23.5978 46.0896C23.5543 45.985 23.4904 45.89 23.4099 45.8102C23.2491 45.6503 23.0315 45.5605 22.8047 45.5605C22.5778 45.5605 22.3603 45.6503 22.1994 45.8102L-nan -nanZ" fill="#D7FFC2" fill-opacity="0.1"/>
</g>
<g filter="url(#filter7_bdii_377_77048)">
<path fill-rule="evenodd" clip-rule="evenodd" d="M21.8973 38.015C21.9039 38.0083 21.9049 37.998 21.8997 37.9902C21.8949 37.9829 21.8954 37.9732 21.9013 37.9666C21.9764 37.8819 22.0676 37.8128 22.1697 37.7634C22.2762 37.7119 22.3922 37.6829 22.5104 37.6784C22.6287 37.6738 22.7466 37.6937 22.8568 37.7369C22.9669 37.7801 23.067 37.8455 23.1507 37.9292C23.2343 38.0129 23.2998 38.1129 23.3429 38.2231C23.3861 38.3333 23.406 38.4512 23.4015 38.5694C23.3969 38.6876 23.3679 38.8036 23.3164 38.9102C23.2649 39.0167 23.1919 39.1114 23.102 39.1883L21.1875 41.1029C21.0354 41.2721 20.8223 41.374 20.5951 41.3862C20.4253 41.3855 20.2596 41.3344 20.1188 41.2395C19.978 41.1446 19.8685 41.01 19.8042 40.8529C19.7399 40.6958 19.7236 40.5231 19.7574 40.3567C19.7912 40.1903 19.8736 40.0377 19.9942 39.9181L21.8973 38.015ZM12.7061 55.1371L18.6128 49.2047C18.7744 49.0396 18.995 48.9456 19.2261 48.9431C19.4571 48.9407 19.6797 49.0302 19.8447 49.1918C20.0098 49.3535 20.1039 49.5741 20.1063 49.8052C20.1087 50.0362 20.0193 50.2588 19.8576 50.4238L13.9166 56.3562C13.755 56.5167 13.5362 56.6065 13.3083 56.6057C13.0805 56.6049 12.8623 56.5136 12.7018 56.3519C12.5413 56.1903 12.4516 55.9715 12.4524 55.7436C12.4532 55.5158 12.5444 55.2976 12.7061 55.1371ZM25.3866 43.0079C25.3918 43.0157 25.3908 43.026 25.3842 43.0326L23.4811 44.9358C23.3605 45.0553 23.2781 45.208 23.2443 45.3744C23.2105 45.5407 23.2268 45.7134 23.2911 45.8706C23.3554 46.0277 23.4649 46.1622 23.6057 46.2572C23.7465 46.3521 23.9122 46.4031 24.082 46.4038C24.3092 46.3916 24.5223 46.2897 24.6744 46.1205L26.5889 44.206C26.6788 44.1291 26.7518 44.0343 26.8033 43.9278C26.8548 43.8213 26.8838 43.7053 26.8884 43.5871C26.8929 43.4688 26.873 43.3509 26.8299 43.2408C26.7867 43.1306 26.7212 43.0305 26.6376 42.9469C26.5539 42.8632 26.4538 42.7977 26.3437 42.7546C26.2335 42.7114 26.1156 42.6915 25.9974 42.696C25.8791 42.7006 25.7631 42.7296 25.6566 42.7811C25.5545 42.8305 25.4633 42.8996 25.3882 42.9843C25.3823 42.9909 25.3818 43.0006 25.3866 43.0079ZM29.9336 46.0502C29.9399 46.0437 29.95 46.0427 29.9575 46.0477C29.9649 46.0526 29.9748 46.0517 29.9813 46.0455C30.1418 45.8917 30.3559 45.806 30.5786 45.8068C30.8064 45.8076 31.0245 45.8988 31.1851 46.0605C31.3456 46.2222 31.4353 46.441 31.4345 46.6688C31.4337 46.8966 31.3424 47.1148 31.1808 47.2753L29.2663 49.1898C29.1064 49.3484 28.8905 49.4378 28.6653 49.4388C28.5523 49.4394 28.4403 49.4178 28.3357 49.3751C28.2311 49.3323 28.136 49.2694 28.0557 49.1898C27.9753 49.11 27.9114 49.015 27.8678 48.9104C27.8242 48.8058 27.8018 48.6936 27.8018 48.5803C27.8018 48.4669 27.8242 48.3547 27.8678 48.2501C27.9114 48.1455 27.9753 48.0505 28.0557 47.9707L29.9336 46.0502ZM24.3208 51.6716L20.7923 55.1916C20.7118 55.2714 20.6479 55.3663 20.6043 55.471C20.5608 55.5756 20.5383 55.6878 20.5383 55.8011C20.5383 55.9145 20.5608 56.0267 20.6043 56.1313C20.6479 56.2359 20.7118 56.3309 20.7923 56.4107C20.8725 56.4902 20.9676 56.5532 21.0722 56.5959C21.1768 56.6386 21.2888 56.6603 21.4018 56.6597C21.5148 56.6603 21.6268 56.6386 21.7314 56.5959C21.836 56.5532 21.9311 56.4902 22.0114 56.4107L25.5313 52.8821C25.672 52.7179 25.7455 52.5066 25.7371 52.2906C25.7288 52.0745 25.6392 51.8695 25.4863 51.7166C25.3334 51.5638 25.1284 51.4742 24.9124 51.4658C24.6963 51.4575 24.485 51.531 24.3208 51.6716ZM11.5933 47.9327L15.1218 44.4127C15.2861 44.2721 15.4973 44.1986 15.7134 44.2069C15.9295 44.2153 16.1344 44.3048 16.2873 44.4577C16.4402 44.6106 16.5298 44.8156 16.5382 45.0317C16.5465 45.2477 16.473 45.459 16.3324 45.6232L12.8124 49.1518C12.7322 49.2313 12.637 49.2943 12.5324 49.337C12.4278 49.3797 12.3158 49.4014 12.2029 49.4007C12.0899 49.4014 11.9779 49.3797 11.8733 49.337C11.7687 49.2943 11.6735 49.2313 11.5933 49.1518C11.5128 49.072 11.449 48.977 11.4054 48.8724C11.3618 48.7678 11.3394 48.6556 11.3394 48.5422C11.3394 48.4289 11.3618 48.3167 11.4054 48.212C11.449 48.1074 11.5128 48.0125 11.5933 47.9327Z" fill="url(#paint7_linear_377_77048)" fill-opacity="0.1"/>
</g>
<g filter="url(#filter8_bdii_377_77048)">
<circle cx="46.7878" cy="21.6799" r="6.48459" fill="url(#paint8_linear_377_77048)" fill-opacity="0.21"/>
<circle cx="46.7878" cy="21.6799" r="6.48459" fill="#D8FFC5" fill-opacity="0.26"/>
</g>
<defs>
<filter id="filter0_i_377_77048" x="20.3857" y="3.33203" width="51.6143" height="45.6191" filterUnits="userSpaceOnUse" color-interpolation-filters="sRGB">
<feFlood flood-opacity="0" result="BackgroundImageFix"/>
<feBlend mode="normal" in="SourceGraphic" in2="BackgroundImageFix" result="shape"/>
<feColorMatrix in="SourceAlpha" type="matrix" values="0 0 0 0 0 0 0 0 0 0 0 0 0 0 0 0 0 0 127 0" result="hardAlpha"/>
<feOffset dx="9" dy="-3"/>
<feGaussianBlur stdDeviation="10"/>
<feComposite in2="hardAlpha" operator="arithmetic" k2="-1" k3="1"/>
<feColorMatrix type="matrix" values="0 0 0 0 0 0 0 0 0 0 0 0 0 0 0 0 0 0 0.17 0"/>
<feBlend mode="normal" in2="shape" result="effect1_innerShadow_377_77048"/>
</filter>
<filter id="filter1_bdiii_377_77048" x="-2.34668" y="25.5605" width="55.0112" height="51.0098" filterUnits="userSpaceOnUse" color-interpolation-filters="sRGB">
<feFlood flood-opacity="0" result="BackgroundImageFix"/>
<feGaussianBlur in="BackgroundImage" stdDeviation="10"/>
<feComposite in2="SourceAlpha" operator="in" result="effect1_backgroundBlur_377_77048"/>
<feColorMatrix in="SourceAlpha" type="matrix" values="0 0 0 0 0 0 0 0 0 0 0 0 0 0 0 0 0 0 127 0" result="hardAlpha"/>
<feOffset dx="9" dy="5"/>
<feGaussianBlur stdDeviation="10"/>
<feColorMatrix type="matrix" values="0 0 0 0 0.0690278 0 0 0 0 0.295833 0 0 0 0 0.11166 0 0 0 0.08 0"/>
<feBlend mode="normal" in2="effect1_backgroundBlur_377_77048" result="effect2_dropShadow_377_77048"/>
<feBlend mode="normal" in="SourceGraphic" in2="effect2_dropShadow_377_77048" result="shape"/>
<feColorMatrix in="SourceAlpha" type="matrix" values="0 0 0 0 0 0 0 0 0 0 0 0 0 0 0 0 0 0 127 0" result="hardAlpha"/>
<feOffset dx="-10" dy="10"/>
<feGaussianBlur stdDeviation="5"/>
<feComposite in2="hardAlpha" operator="arithmetic" k2="-1" k3="1"/>
<feColorMatrix type="matrix" values="0 0 0 0 1 0 0 0 0 1 0 0 0 0 1 0 0 0 0.15 0"/>
<feBlend mode="normal" in2="shape" result="effect3_innerShadow_377_77048"/>
<feColorMatrix in="SourceAlpha" type="matrix" values="0 0 0 0 0 0 0 0 0 0 0 0 0 0 0 0 0 0 127 0" result="hardAlpha"/>
<feOffset dy="-10"/>
<feGaussianBlur stdDeviation="5"/>
<feComposite in2="hardAlpha" operator="arithmetic" k2="-1" k3="1"/>
<feColorMatrix type="matrix" values="0 0 0 0 0.156863 0 0 0 0 0.67451 0 0 0 0 0.25098 0 0 0 0.3 0"/>
<feBlend mode="normal" in2="effect3_innerShadow_377_77048" result="effect4_innerShadow_377_77048"/>
<feColorMatrix in="SourceAlpha" type="matrix" values="0 0 0 0 0 0 0 0 0 0 0 0 0 0 0 0 0 0 127 0" result="hardAlpha"/>
<feOffset dx="-3" dy="6"/>
<feGaussianBlur stdDeviation="7.5"/>
<feComposite in2="hardAlpha" operator="arithmetic" k2="-1" k3="1"/>
<feColorMatrix type="matrix" values="0 0 0 0 0.0770313 0 0 0 0 0.6375 0 0 0 0 0.178935 0 0 0 0.09 0"/>
<feBlend mode="normal" in2="effect4_innerShadow_377_77048" result="effect5_innerShadow_377_77048"/>
</filter>
<filter id="filter2_bdii_377_77048" x="-8.66064" y="17.6777" width="69.0952" height="63.9824" filterUnits="userSpaceOnUse" color-interpolation-filters="sRGB">
<feFlood flood-opacity="0" result="BackgroundImageFix"/>
<feGaussianBlur in="BackgroundImage" stdDeviation="10"/>
<feComposite in2="SourceAlpha" operator="in" result="effect1_backgroundBlur_377_77048"/>
<feColorMatrix in="SourceAlpha" type="matrix" values="0 0 0 0 0 0 0 0 0 0 0 0 0 0 0 0 0 0 127 0" result="hardAlpha"/>
<feOffset dx="9" dy="5"/>
<feGaussianBlur stdDeviation="10"/>
<feColorMatrix type="matrix" values="0 0 0 0 0.0690278 0 0 0 0 0.295833 0 0 0 0 0.11166 0 0 0 0.08 0"/>
<feBlend mode="normal" in2="effect1_backgroundBlur_377_77048" result="effect2_dropShadow_377_77048"/>
<feBlend mode="normal" in="SourceGraphic" in2="effect2_dropShadow_377_77048" result="shape"/>
<feColorMatrix in="SourceAlpha" type="matrix" values="0 0 0 0 0 0 0 0 0 0 0 0 0 0 0 0 0 0 127 0" result="hardAlpha"/>
<feOffset/>
<feGaussianBlur stdDeviation="5"/>
<feComposite in2="hardAlpha" operator="arithmetic" k2="-1" k3="1"/>
<feColorMatrix type="matrix" values="0 0 0 0 0.156863 0 0 0 0 0.67451 0 0 0 0 0.25098 0 0 0 0.2 0"/>
<feBlend mode="normal" in2="shape" result="effect3_innerShadow_377_77048"/>
<feColorMatrix in="SourceAlpha" type="matrix" values="0 0 0 0 0 0 0 0 0 0 0 0 0 0 0 0 0 0 127 0" result="hardAlpha"/>
<feOffset dx="-3" dy="6"/>
<feGaussianBlur stdDeviation="7.5"/>
<feComposite in2="hardAlpha" operator="arithmetic" k2="-1" k3="1"/>
<feColorMatrix type="matrix" values="0 0 0 0 0.0770313 0 0 0 0 0.6375 0 0 0 0 0.178935 0 0 0 0.09 0"/>
<feBlend mode="normal" in2="effect3_innerShadow_377_77048" result="effect4_innerShadow_377_77048"/>
</filter>
<filter id="filter3_i_377_77048" x="20.3853" y="3.33203" width="51.6138" height="45.6191" filterUnits="userSpaceOnUse" color-interpolation-filters="sRGB">
<feFlood flood-opacity="0" result="BackgroundImageFix"/>
<feBlend mode="normal" in="SourceGraphic" in2="BackgroundImageFix" result="shape"/>
<feColorMatrix in="SourceAlpha" type="matrix" values="0 0 0 0 0 0 0 0 0 0 0 0 0 0 0 0 0 0 127 0" result="hardAlpha"/>
<feOffset dx="9" dy="-3"/>
<feGaussianBlur stdDeviation="10"/>
<feComposite in2="hardAlpha" operator="arithmetic" k2="-1" k3="1"/>
<feColorMatrix type="matrix" values="0 0 0 0 0 0 0 0 0 0 0 0 0 0 0 0 0 0 0.17 0"/>
<feBlend mode="normal" in2="shape" result="effect1_innerShadow_377_77048"/>
</filter>
<filter id="filter4_biii_377_77048" x="13.1738" y="18.8105" width="55.2739" height="61.7559" filterUnits="userSpaceOnUse" color-interpolation-filters="sRGB">
<feFlood flood-opacity="0" result="BackgroundImageFix"/>
<feGaussianBlur in="BackgroundImage" stdDeviation="10"/>
<feComposite in2="SourceAlpha" operator="in" result="effect1_backgroundBlur_377_77048"/>
<feBlend mode="normal" in="SourceGraphic" in2="effect1_backgroundBlur_377_77048" result="shape"/>
<feColorMatrix in="SourceAlpha" type="matrix" values="0 0 0 0 0 0 0 0 0 0 0 0 0 0 0 0 0 0 127 0" result="hardAlpha"/>
<feOffset dx="-10" dy="10"/>
<feGaussianBlur stdDeviation="5"/>
<feComposite in2="hardAlpha" operator="arithmetic" k2="-1" k3="1"/>
<feColorMatrix type="matrix" values="0 0 0 0 1 0 0 0 0 1 0 0 0 0 1 0 0 0 0.15 0"/>
<feBlend mode="normal" in2="shape" result="effect2_innerShadow_377_77048"/>
<feColorMatrix in="SourceAlpha" type="matrix" values="0 0 0 0 0 0 0 0 0 0 0 0 0 0 0 0 0 0 127 0" result="hardAlpha"/>
<feOffset dy="-10"/>
<feGaussianBlur stdDeviation="5"/>
<feComposite in2="hardAlpha" operator="arithmetic" k2="-1" k3="1"/>
<feColorMatrix type="matrix" values="0 0 0 0 0.156863 0 0 0 0 0.67451 0 0 0 0 0.25098 0 0 0 0.05 0"/>
<feBlend mode="normal" in2="effect2_innerShadow_377_77048" result="effect3_innerShadow_377_77048"/>
<feColorMatrix in="SourceAlpha" type="matrix" values="0 0 0 0 0 0 0 0 0 0 0 0 0 0 0 0 0 0 127 0" result="hardAlpha"/>
<feOffset dx="-3" dy="6"/>
<feGaussianBlur stdDeviation="7.5"/>
<feComposite in2="hardAlpha" operator="arithmetic" k2="-1" k3="1"/>
<feColorMatrix type="matrix" values="0 0 0 0 0.0770313 0 0 0 0 0.6375 0 0 0 0 0.178935 0 0 0 0.2 0"/>
<feBlend mode="normal" in2="effect3_innerShadow_377_77048" result="effect4_innerShadow_377_77048"/>
</filter>
<filter id="filter5_biii_377_77048" x="-10.8809" y="1.86328" width="62.0078" height="54.8594" filterUnits="userSpaceOnUse" color-interpolation-filters="sRGB">
<feFlood flood-opacity="0" result="BackgroundImageFix"/>
<feGaussianBlur in="BackgroundImage" stdDeviation="10"/>
<feComposite in2="SourceAlpha" operator="in" result="effect1_backgroundBlur_377_77048"/>
<feBlend mode="normal" in="SourceGraphic" in2="effect1_backgroundBlur_377_77048" result="shape"/>
<feColorMatrix in="SourceAlpha" type="matrix" values="0 0 0 0 0 0 0 0 0 0 0 0 0 0 0 0 0 0 127 0" result="hardAlpha"/>
<feOffset dx="-10" dy="10"/>
<feGaussianBlur stdDeviation="5"/>
<feComposite in2="hardAlpha" operator="arithmetic" k2="-1" k3="1"/>
<feColorMatrix type="matrix" values="0 0 0 0 1 0 0 0 0 1 0 0 0 0 1 0 0 0 0.15 0"/>
<feBlend mode="normal" in2="shape" result="effect2_innerShadow_377_77048"/>
<feColorMatrix in="SourceAlpha" type="matrix" values="0 0 0 0 0 0 0 0 0 0 0 0 0 0 0 0 0 0 127 0" result="hardAlpha"/>
<feOffset dy="-10"/>
<feGaussianBlur stdDeviation="5"/>
<feComposite in2="hardAlpha" operator="arithmetic" k2="-1" k3="1"/>
<feColorMatrix type="matrix" values="0 0 0 0 0.156863 0 0 0 0 0.67451 0 0 0 0 0.25098 0 0 0 0.05 0"/>
<feBlend mode="normal" in2="effect2_innerShadow_377_77048" result="effect3_innerShadow_377_77048"/>
<feColorMatrix in="SourceAlpha" type="matrix" values="0 0 0 0 0 0 0 0 0 0 0 0 0 0 0 0 0 0 127 0" result="hardAlpha"/>
<feOffset dx="-3" dy="6"/>
<feGaussianBlur stdDeviation="7.5"/>
<feComposite in2="hardAlpha" operator="arithmetic" k2="-1" k3="1"/>
<feColorMatrix type="matrix" values="0 0 0 0 0.0770313 0 0 0 0 0.6375 0 0 0 0 0.178935 0 0 0 0.2 0"/>
<feBlend mode="normal" in2="effect3_innerShadow_377_77048" result="effect4_innerShadow_377_77048"/>
</filter>
<filter id="filter6_bdiii_377_77048" x="-2.34717" y="25.5605" width="55.0112" height="51.0098" filterUnits="userSpaceOnUse" color-interpolation-filters="sRGB">
<feFlood flood-opacity="0" result="BackgroundImageFix"/>
<feGaussianBlur in="BackgroundImage" stdDeviation="10"/>
<feComposite in2="SourceAlpha" operator="in" result="effect1_backgroundBlur_377_77048"/>
<feColorMatrix in="SourceAlpha" type="matrix" values="0 0 0 0 0 0 0 0 0 0 0 0 0 0 0 0 0 0 127 0" result="hardAlpha"/>
<feOffset dx="9" dy="5"/>
<feGaussianBlur stdDeviation="10"/>
<feColorMatrix type="matrix" values="0 0 0 0 0.0690278 0 0 0 0 0.295833 0 0 0 0 0.11166 0 0 0 0.08 0"/>
<feBlend mode="normal" in2="effect1_backgroundBlur_377_77048" result="effect2_dropShadow_377_77048"/>
<feBlend mode="normal" in="SourceGraphic" in2="effect2_dropShadow_377_77048" result="shape"/>
<feColorMatrix in="SourceAlpha" type="matrix" values="0 0 0 0 0 0 0 0 0 0 0 0 0 0 0 0 0 0 127 0" result="hardAlpha"/>
<feOffset dx="-10" dy="10"/>
<feGaussianBlur stdDeviation="5"/>
<feComposite in2="hardAlpha" operator="arithmetic" k2="-1" k3="1"/>
<feColorMatrix type="matrix" values="0 0 0 0 1 0 0 0 0 1 0 0 0 0 1 0 0 0 0.15 0"/>
<feBlend mode="normal" in2="shape" result="effect3_innerShadow_377_77048"/>
<feColorMatrix in="SourceAlpha" type="matrix" values="0 0 0 0 0 0 0 0 0 0 0 0 0 0 0 0 0 0 127 0" result="hardAlpha"/>
<feOffset dy="-10"/>
<feGaussianBlur stdDeviation="5"/>
<feComposite in2="hardAlpha" operator="arithmetic" k2="-1" k3="1"/>
<feColorMatrix type="matrix" values="0 0 0 0 0.156863 0 0 0 0 0.67451 0 0 0 0 0.25098 0 0 0 0.3 0"/>
<feBlend mode="normal" in2="effect3_innerShadow_377_77048" result="effect4_innerShadow_377_77048"/>
<feColorMatrix in="SourceAlpha" type="matrix" values="0 0 0 0 0 0 0 0 0 0 0 0 0 0 0 0 0 0 127 0" result="hardAlpha"/>
<feOffset dx="-3" dy="6"/>
<feGaussianBlur stdDeviation="7.5"/>
<feComposite in2="hardAlpha" operator="arithmetic" k2="-1" k3="1"/>
<feColorMatrix type="matrix" values="0 0 0 0 0.0770313 0 0 0 0 0.6375 0 0 0 0 0.178935 0 0 0 0.09 0"/>
<feBlend mode="normal" in2="effect4_innerShadow_377_77048" result="effect5_innerShadow_377_77048"/>
</filter>
<filter id="filter7_bdii_377_77048" x="-8.66064" y="17.6777" width="69.0952" height="63.9824" filterUnits="userSpaceOnUse" color-interpolation-filters="sRGB">
<feFlood flood-opacity="0" result="BackgroundImageFix"/>
<feGaussianBlur in="BackgroundImage" stdDeviation="10"/>
<feComposite in2="SourceAlpha" operator="in" result="effect1_backgroundBlur_377_77048"/>
<feColorMatrix in="SourceAlpha" type="matrix" values="0 0 0 0 0 0 0 0 0 0 0 0 0 0 0 0 0 0 127 0" result="hardAlpha"/>
<feOffset dx="9" dy="5"/>
<feGaussianBlur stdDeviation="10"/>
<feColorMatrix type="matrix" values="0 0 0 0 0.0690278 0 0 0 0 0.295833 0 0 0 0 0.11166 0 0 0 0.08 0"/>
<feBlend mode="normal" in2="effect1_backgroundBlur_377_77048" result="effect2_dropShadow_377_77048"/>
<feBlend mode="normal" in="SourceGraphic" in2="effect2_dropShadow_377_77048" result="shape"/>
<feColorMatrix in="SourceAlpha" type="matrix" values="0 0 0 0 0 0 0 0 0 0 0 0 0 0 0 0 0 0 127 0" result="hardAlpha"/>
<feOffset/>
<feGaussianBlur stdDeviation="5"/>
<feComposite in2="hardAlpha" operator="arithmetic" k2="-1" k3="1"/>
<feColorMatrix type="matrix" values="0 0 0 0 0.156863 0 0 0 0 0.67451 0 0 0 0 0.25098 0 0 0 0.2 0"/>
<feBlend mode="normal" in2="shape" result="effect3_innerShadow_377_77048"/>
<feColorMatrix in="SourceAlpha" type="matrix" values="0 0 0 0 0 0 0 0 0 0 0 0 0 0 0 0 0 0 127 0" result="hardAlpha"/>
<feOffset dx="-3" dy="6"/>
<feGaussianBlur stdDeviation="7.5"/>
<feComposite in2="hardAlpha" operator="arithmetic" k2="-1" k3="1"/>
<feColorMatrix type="matrix" values="0 0 0 0 0.0770313 0 0 0 0 0.6375 0 0 0 0 0.178935 0 0 0 0.09 0"/>
<feBlend mode="normal" in2="effect3_innerShadow_377_77048" result="effect4_innerShadow_377_77048"/>
</filter>
<filter id="filter8_bdii_377_77048" x="20.3032" y="-4.80469" width="61.9692" height="57.9688" filterUnits="userSpaceOnUse" color-interpolation-filters="sRGB">
<feFlood flood-opacity="0" result="BackgroundImageFix"/>
<feGaussianBlur in="BackgroundImage" stdDeviation="10"/>
<feComposite in2="SourceAlpha" operator="in" result="effect1_backgroundBlur_377_77048"/>
<feColorMatrix in="SourceAlpha" type="matrix" values="0 0 0 0 0 0 0 0 0 0 0 0 0 0 0 0 0 0 127 0" result="hardAlpha"/>
<feOffset dx="9" dy="5"/>
<feGaussianBlur stdDeviation="10"/>
<feColorMatrix type="matrix" values="0 0 0 0 0.0690278 0 0 0 0 0.295833 0 0 0 0 0.11166 0 0 0 0.08 0"/>
<feBlend mode="normal" in2="effect1_backgroundBlur_377_77048" result="effect2_dropShadow_377_77048"/>
<feBlend mode="normal" in="SourceGraphic" in2="effect2_dropShadow_377_77048" result="shape"/>
<feColorMatrix in="SourceAlpha" type="matrix" values="0 0 0 0 0 0 0 0 0 0 0 0 0 0 0 0 0 0 127 0" result="hardAlpha"/>
<feOffset dx="-10" dy="10"/>
<feGaussianBlur stdDeviation="5"/>
<feComposite in2="hardAlpha" operator="arithmetic" k2="-1" k3="1"/>
<feColorMatrix type="matrix" values="0 0 0 0 1 0 0 0 0 1 0 0 0 0 1 0 0 0 0.15 0"/>
<feBlend mode="normal" in2="shape" result="effect3_innerShadow_377_77048"/>
<feColorMatrix in="SourceAlpha" type="matrix" values="0 0 0 0 0 0 0 0 0 0 0 0 0 0 0 0 0 0 127 0" result="hardAlpha"/>
<feOffset dx="3" dy="-6"/>
<feGaussianBlur stdDeviation="4.5"/>
<feComposite in2="hardAlpha" operator="arithmetic" k2="-1" k3="1"/>
<feColorMatrix type="matrix" values="0 0 0 0 0.0199306 0 0 0 0 0.341667 0 0 0 0 0.0521041 0 0 0 0.05 0"/>
<feBlend mode="normal" in2="effect3_innerShadow_377_77048" result="effect4_innerShadow_377_77048"/>
</filter>
<linearGradient id="paint0_linear_377_77048" x1="58.2957" y1="6.33203" x2="47.7054" y2="53.9362" gradientUnits="userSpaceOnUse">
<stop stop-color="#9BE15D"/>
<stop offset="1" stop-color="#00E3AE"/>
</linearGradient>
<linearGradient id="paint1_linear_377_77048" x1="23.0008" y1="45.5605" x2="21.5076" y2="52.274" gradientUnits="userSpaceOnUse">
<stop stop-color="#9BE15D"/>
<stop offset="1" stop-color="#00E3AE"/>
</linearGradient>
<linearGradient id="paint2_linear_377_77048" x1="15.9649" y1="44.2073" x2="14.6754" y2="50.01" gradientUnits="userSpaceOnUse">
<stop stop-color="#9BE15D"/>
<stop offset="1" stop-color="#00E3AE"/>
</linearGradient>
<linearGradient id="paint3_linear_377_77048" x1="58.295" y1="6.33203" x2="47.7046" y2="53.9362" gradientUnits="userSpaceOnUse">
<stop stop-color="#9BE15D"/>
<stop offset="1" stop-color="#00E3AE"/>
</linearGradient>
<linearGradient id="paint4_linear_377_77048" x1="46.3421" y1="35.2473" x2="42.3824" y2="61.4557" gradientUnits="userSpaceOnUse">
<stop stop-color="#9BE15D"/>
<stop offset="1" stop-color="#00E3AE"/>
</linearGradient>
<linearGradient id="paint5_linear_377_77048" x1="34.7146" y1="24.1205" x2="8.42199" y2="27.4762" gradientUnits="userSpaceOnUse">
<stop stop-color="#9BE15D"/>
<stop offset="1" stop-color="#00E3AE"/>
</linearGradient>
<linearGradient id="paint6_linear_377_77048" x1="23.0003" y1="45.5605" x2="21.5071" y2="52.274" gradientUnits="userSpaceOnUse">
<stop stop-color="#9BE15D"/>
<stop offset="1" stop-color="#00E3AE"/>
</linearGradient>
<linearGradient id="paint7_linear_377_77048" x1="15.9649" y1="44.2073" x2="14.6754" y2="50.01" gradientUnits="userSpaceOnUse">
<stop stop-color="#9BE15D"/>
<stop offset="1" stop-color="#00E3AE"/>
</linearGradient>
<linearGradient id="paint8_linear_377_77048" x1="51.8407" y1="15.1953" x2="48.6184" y2="29.6816" gradientUnits="userSpaceOnUse">
<stop stop-color="#9BE15D"/>
<stop offset="1" stop-color="#00E3AE"/>
</linearGradient>
</defs>
</svg>
