<svg width="18" height="18" viewBox="0 0 18 18" fill="none" xmlns="http://www.w3.org/2000/svg">
<path d="M16.8527 2.51918C16.8204 2.2871 16.6535 2.0962 16.4277 2.03345L9.19322 0.0215294C9.09008 -0.00717647 8.98114 -0.00717647 8.87793 0.0215294L1.64342 2.03345C1.41769 2.0962 1.25071 2.28702 1.2184 2.51918C1.17644 2.8209 0.219181 9.95 2.67448 13.4965C5.12687 17.0388 8.74467 17.9465 8.89746 17.9835C8.94287 17.9945 8.98914 17.9999 9.03557 17.9999C9.082 17.9999 9.12828 17.9944 9.17369 17.9835C9.32655 17.9465 12.9444 17.0388 15.3967 13.4965C17.852 9.95008 16.8947 2.82098 16.8527 2.51918Z" fill="#A3A5A8"/>
<g clip-path="url(#clip0_899_59127)">
<path d="M5.75836 12.9498C5.56222 12.9612 5.36933 12.896 5.22036 12.7679C4.92655 12.4723 4.92655 11.995 5.22036 11.6994L11.6538 5.266C11.9594 4.98005 12.4389 4.99595 12.7248 5.30153C12.9834 5.57787 12.9985 6.00261 12.7601 6.29657L6.28878 12.7679C6.14173 12.8941 5.95193 12.9592 5.75836 12.9498V12.9498Z" fill="white"/>
<path d="M12.1842 12.9498C11.9854 12.9489 11.7949 12.87 11.6537 12.73L5.22029 6.29656C4.9481 5.9787 4.9851 5.50033 5.30297 5.22811C5.58667 4.98516 6.00507 4.98516 6.28875 5.22811L12.7601 11.6616C13.0656 11.9476 13.0814 12.4271 12.7954 12.7326C12.784 12.7448 12.7722 12.7565 12.7601 12.7679C12.6016 12.9057 12.3931 12.9716 12.1842 12.9498V12.9498Z" fill="white"/>
</g>
<defs>
<clipPath id="clip0_899_59127">
<rect width="8" height="8" fill="white" transform="translate(5 5)"/>
</clipPath>
</defs>
</svg>
