<svg width="24" height="24" viewBox="0 0 24 24" fill="none" xmlns="http://www.w3.org/2000/svg">
<path fill-rule="evenodd" clip-rule="evenodd" d="M19.086 4.90649C17.2059 3.0332 14.7056 2.0011 12.0418 2C6.55291 2 2.08574 6.44568 2.08353 11.9098C2.08279 13.6565 2.54129 15.3616 3.41277 16.8645L2 22L7.27905 20.6218C8.73364 21.4115 10.3712 21.8276 12.0378 21.8281H12.0419C17.5302 21.8281 21.9979 17.3821 22 11.9177C22.0011 9.26953 20.9662 6.77966 19.086 4.90649ZM12.0418 20.1544H12.0384C10.5533 20.1538 9.0967 19.7566 7.82573 19.0062L7.52362 18.8276L4.39096 19.6455L5.22711 16.6058L5.03025 16.2942C4.2017 14.9827 3.76418 13.4668 3.76492 11.9104C3.76663 7.36877 7.47971 3.67383 12.0451 3.67383C14.2559 3.67456 16.3341 4.53247 17.8967 6.08948C19.4594 7.64648 20.3195 9.71606 20.3187 11.9171C20.3168 16.4591 16.6039 20.1544 12.0418 20.1544ZM16.5819 13.9851C16.3331 13.8611 15.1097 13.2622 14.8816 13.1794C14.6537 13.0968 14.4876 13.0557 14.3219 13.3035C14.1559 13.5513 13.6792 14.1091 13.534 14.2743C13.3887 14.4396 13.2437 14.4603 12.9949 14.3363C12.746 14.2124 11.9443 13.9508 10.9938 13.1072C10.2542 12.4506 9.75488 11.6396 9.60966 11.3918C9.46467 11.1438 9.60843 11.0227 9.71882 10.8865C9.98818 10.5536 10.2579 10.2046 10.3408 10.0394C10.4239 9.87415 10.3823 9.72949 10.32 9.60559C10.2579 9.48169 9.76028 8.26282 9.55299 7.76685C9.35085 7.28418 9.14589 7.34937 8.99306 7.3418C8.84808 7.33459 8.68212 7.33313 8.51617 7.33313C8.35033 7.33313 8.08073 7.39502 7.85259 7.64307C7.62457 7.89099 6.98185 8.48999 6.98185 9.70886C6.98185 10.9277 7.87344 12.1052 7.99782 12.2705C8.12219 12.4358 9.75243 14.937 12.2484 16.0095C12.842 16.2649 13.3054 16.4171 13.6669 16.5312C14.263 16.7197 14.8053 16.6931 15.2341 16.6294C15.7122 16.5582 16.7061 16.0303 16.9136 15.4519C17.1209 14.8734 17.1209 14.3777 17.0586 14.2743C16.9966 14.171 16.8306 14.1091 16.5819 13.9851Z" fill="#ED1C24"/>
</svg>
